  0
SECTION
  2
HEADER
  9
$ANGBASE
  50
0.0
  9
$ANGDIR
  70
  1
  9
$MEASUREMENT
  70
0
  0
ENDSEC
  0
SECTION
  2
TABLES
  0
TABLE
  2
LTYPE
  70
1
  0
LTYPE
  2
CONTINUOUS
  70
0
  3
Solid line
  72
65
  73
0
  40
0.0
  0
ENDTAB
  0
TABLE
  2
STYLE
  70
4
  0
STYLE
  2
KICAD
  70
0
  40
0
  41
1
  42
1
  50
0
  71
0
  3
isocp.shx
  0
STYLE
  2
KICADB
  70
0
  40
0
  41
1
  42
1
  50
0
  71
0
  3
isocp.shx
  0
STYLE
  2
KICADI
  70
0
  40
0
  41
1
  42
1
  50
15
  71
0
  3
isocp.shx
  0
STYLE
  2
KICADBI
  70
0
  40
0
  41
1
  42
1
  50
15
  71
0
  3
isocp.shx
  0
ENDTAB
  0
TABLE
  2
LAYER
  70
30
  0
LAYER
  2
BLACK
  70
0
  62
7
  6
CONTINUOUS
  0
LAYER
  2
GRAY1
  70
0
  62
251
  6
CONTINUOUS
  0
LAYER
  2
GRAY2
  70
0
  62
8
  6
CONTINUOUS
  0
LAYER
  2
GRAY3
  70
0
  62
9
  6
CONTINUOUS
  0
LAYER
  2
WHITE
  70
0
  62
7
  6
CONTINUOUS
  0
LAYER
  2
LYELLOW
  70
0
  62
51
  6
CONTINUOUS
  0
LAYER
  2
BLUE1
  70
0
  62
178
  6
CONTINUOUS
  0
LAYER
  2
GREEN1
  70
0
  62
98
  6
CONTINUOUS
  0
LAYER
  2
CYAN1
  70
0
  62
138
  6
CONTINUOUS
  0
LAYER
  2
RED1
  70
0
  62
18
  6
CONTINUOUS
  0
LAYER
  2
MAGENTA1
  70
0
  62
228
  6
CONTINUOUS
  0
LAYER
  2
BROWN1
  70
0
  62
58
  6
CONTINUOUS
  0
LAYER
  2
BLUE2
  70
0
  62
5
  6
CONTINUOUS
  0
LAYER
  2
GREEN2
  70
0
  62
3
  6
CONTINUOUS
  0
LAYER
  2
CYAN2
  70
0
  62
4
  6
CONTINUOUS
  0
LAYER
  2
RED2
  70
0
  62
1
  6
CONTINUOUS
  0
LAYER
  2
MAGENTA2
  70
0
  62
6
  6
CONTINUOUS
  0
LAYER
  2
BROWN2
  70
0
  62
54
  6
CONTINUOUS
  0
LAYER
  2
BLUE3
  70
0
  62
171
  6
CONTINUOUS
  0
LAYER
  2
GREEN3
  70
0
  62
91
  6
CONTINUOUS
  0
LAYER
  2
CYAN3
  70
0
  62
131
  6
CONTINUOUS
  0
LAYER
  2
RED3
  70
0
  62
11
  6
CONTINUOUS
  0
LAYER
  2
MAGENTA3
  70
0
  62
221
  6
CONTINUOUS
  0
LAYER
  2
YELLOW3
  70
0
  62
2
  6
CONTINUOUS
  0
LAYER
  2
BLUE4
  70
0
  62
5
  6
CONTINUOUS
  0
LAYER
  2
GREEN4
  70
0
  62
3
  6
CONTINUOUS
  0
LAYER
  2
CYAN4
  70
0
  62
4
  6
CONTINUOUS
  0
LAYER
  2
RED4
  70
0
  62
1
  6
CONTINUOUS
  0
LAYER
  2
MAGENTA4
  70
0
  62
6
  6
CONTINUOUS
  0
LAYER
  2
YELLOW4
  70
0
  62
2
  6
CONTINUOUS
  0
ENDTAB
  0
ENDSEC
  0
SECTION
  2
ENTITIES
0
LINE
8
Black
10
279.4
20
-10.325
11
279.406
21
-10.3261
0
LINE
8
Black
10
279.406
20
-10.3261
11
279.413
21
-10.3261
0
LINE
8
Black
10
279.413
20
-10.3261
11
279.419
21
-10.3284
0
LINE
8
Black
10
279.419
20
-10.3284
11
279.426
21
-10.3295
0
LINE
8
Black
10
279.426
20
-10.3295
11
279.431
21
-10.3328
0
LINE
8
Black
10
279.431
20
-10.3328
11
279.438
21
-10.335
0
LINE
8
Black
10
279.438
20
-10.335
11
279.443
21
-10.3393
0
LINE
8
Black
10
279.443
20
-10.3393
11
279.448
21
-10.3425
0
LINE
8
Black
10
279.448
20
-10.3425
11
279.452
21
-10.3476
0
LINE
8
Black
10
279.452
20
-10.3476
11
279.457
21
-10.3518
0
LINE
8
Black
10
279.457
20
-10.3518
11
279.461
21
-10.3575
0
LINE
8
Black
10
279.461
20
-10.3575
11
279.465
21
-10.3625
0
LINE
8
Black
10
279.465
20
-10.3625
11
279.467
21
-10.3687
0
LINE
8
Black
10
279.467
20
-10.3687
11
279.47
21
-10.3743
0
LINE
8
Black
10
279.47
20
-10.3743
11
279.472
21
-10.3808
0
LINE
8
Black
10
279.472
20
-10.3808
11
279.474
21
-10.387
0
LINE
8
Black
10
279.474
20
-10.387
11
279.474
21
-10.3935
0
LINE
8
Black
10
279.474
20
-10.3935
11
279.475
21
-10.4
0
LINE
8
Black
10
279.475
20
-10.4
11
279.475
21
-108.7
0
LINE
8
Black
10
279.475
20
-108.7
11
279.474
21
-108.706
0
LINE
8
Black
10
279.474
20
-108.706
11
279.474
21
-108.713
0
LINE
8
Black
10
279.474
20
-108.713
11
279.472
21
-108.719
0
LINE
8
Black
10
279.472
20
-108.719
11
279.47
21
-108.726
0
LINE
8
Black
10
279.47
20
-108.726
11
279.467
21
-108.731
0
LINE
8
Black
10
279.467
20
-108.731
11
279.465
21
-108.737
0
LINE
8
Black
10
279.465
20
-108.737
11
279.461
21
-108.743
0
LINE
8
Black
10
279.461
20
-108.743
11
279.457
21
-108.748
0
LINE
8
Black
10
279.457
20
-108.748
11
279.452
21
-108.752
0
LINE
8
Black
10
279.452
20
-108.752
11
279.448
21
-108.757
0
LINE
8
Black
10
279.448
20
-108.757
11
279.443
21
-108.761
0
LINE
8
Black
10
279.443
20
-108.761
11
279.438
21
-108.765
0
LINE
8
Black
10
279.438
20
-108.765
11
279.431
21
-108.767
0
LINE
8
Black
10
279.431
20
-108.767
11
279.426
21
-108.77
0
LINE
8
Black
10
279.426
20
-108.77
11
279.419
21
-108.772
0
LINE
8
Black
10
279.419
20
-108.772
11
279.413
21
-108.774
0
LINE
8
Black
10
279.413
20
-108.774
11
279.406
21
-108.774
0
LINE
8
Black
10
279.406
20
-108.774
11
279.4
21
-108.775
0
LINE
8
Black
10
279.4
20
-108.775
11
11.1
21
-108.775
0
LINE
8
Black
10
11.1
20
-108.775
11
11.0743
21
-108.77
0
LINE
8
Black
10
11.0743
20
-108.77
11
11.0518
21
-108.757
0
LINE
8
Black
10
11.0518
20
-108.757
11
11.035
21
-108.737
0
LINE
8
Black
10
11.035
20
-108.737
11
11.0261
21
-108.713
0
LINE
8
Black
10
11.0261
20
-108.713
11
11.0261
21
-108.687
0
LINE
8
Black
10
11.0261
20
-108.687
11
11.035
21
-108.662
0
LINE
8
Black
10
11.035
20
-108.662
11
11.0518
21
-108.643
0
LINE
8
Black
10
11.0518
20
-108.643
11
11.0743
21
-108.63
0
LINE
8
Black
10
11.0743
20
-108.63
11
11.1
21
-108.625
0
LINE
8
Black
10
11.1
20
-108.625
11
11.825
21
-108.625
0
LINE
8
Black
10
11.825
20
-108.625
11
11.825
21
-10.4
0
LINE
8
Black
10
11.825
20
-10.4
11
11.8261
21
-10.3935
0
LINE
8
Black
10
11.8261
20
-10.3935
11
11.8261
21
-10.387
0
LINE
8
Black
10
11.8261
20
-10.387
11
11.8284
21
-10.3808
0
LINE
8
Black
10
11.8284
20
-10.3808
11
11.8295
21
-10.3743
0
LINE
8
Black
10
11.8295
20
-10.3743
11
11.8328
21
-10.3687
0
LINE
8
Black
10
11.8328
20
-10.3687
11
11.835
21
-10.3625
0
LINE
8
Black
10
11.835
20
-10.3625
11
11.8393
21
-10.3575
0
LINE
8
Black
10
11.8393
20
-10.3575
11
11.8425
21
-10.3518
0
LINE
8
Black
10
11.8425
20
-10.3518
11
11.8476
21
-10.3476
0
LINE
8
Black
10
11.8476
20
-10.3476
11
11.8518
21
-10.3425
0
LINE
8
Black
10
11.8518
20
-10.3425
11
11.8575
21
-10.3393
0
LINE
8
Black
10
11.8575
20
-10.3393
11
11.8625
21
-10.335
0
LINE
8
Black
10
11.8625
20
-10.335
11
11.8687
21
-10.3328
0
LINE
8
Black
10
11.8687
20
-10.3328
11
11.8743
21
-10.3295
0
LINE
8
Black
10
11.8743
20
-10.3295
11
11.8808
21
-10.3284
0
LINE
8
Black
10
11.8808
20
-10.3284
11
11.887
21
-10.3261
0
LINE
8
Black
10
11.887
20
-10.3261
11
11.8935
21
-10.3261
0
LINE
8
Black
10
11.8935
20
-10.3261
11
11.9
21
-10.325
0
LINE
8
Black
10
11.9
20
-10.325
11
139
21
-10.325
0
LINE
8
Black
10
139
20
-10.325
11
279.4
21
-10.325
0
LINE
8
Black
10
279.325
20
-10.475
11
139
21
-10.475
0
LINE
8
Black
10
139
20
-10.475
11
11.975
21
-10.475
0
LINE
8
Black
10
11.975
20
-10.475
11
11.975
21
-108.625
0
LINE
8
Black
10
11.975
20
-108.625
11
139
21
-108.625
0
LINE
8
Black
10
139
20
-108.625
11
279.325
21
-108.625
0
LINE
8
Black
10
279.325
20
-108.625
11
279.325
21
-10.475
  0
ENDSEC
  0
EOF
