  0
SECTION
  2
HEADER
  9
$ANGBASE
  50
0.0
  9
$ANGDIR
  70
  1
  9
$MEASUREMENT
  70
0
  0
ENDSEC
  0
SECTION
  2
TABLES
  0
TABLE
  2
LTYPE
  70
1
  0
LTYPE
  2
CONTINUOUS
  70
0
  3
Solid line
  72
65
  73
0
  40
0.0
  0
ENDTAB
  0
TABLE
  2
STYLE
  70
4
  0
STYLE
  2
KICAD
  70
0
  40
0
  41
1
  42
1
  50
0
  71
0
  3
isocp.shx
  0
STYLE
  2
KICADB
  70
0
  40
0
  41
1
  42
1
  50
0
  71
0
  3
isocp.shx
  0
STYLE
  2
KICADI
  70
0
  40
0
  41
1
  42
1
  50
15
  71
0
  3
isocp.shx
  0
STYLE
  2
KICADBI
  70
0
  40
0
  41
1
  42
1
  50
15
  71
0
  3
isocp.shx
  0
ENDTAB
  0
TABLE
  2
LAYER
  70
30
  0
LAYER
  2
BLACK
  70
0
  62
7
  6
CONTINUOUS
  0
LAYER
  2
GRAY1
  70
0
  62
251
  6
CONTINUOUS
  0
LAYER
  2
GRAY2
  70
0
  62
8
  6
CONTINUOUS
  0
LAYER
  2
GRAY3
  70
0
  62
9
  6
CONTINUOUS
  0
LAYER
  2
WHITE
  70
0
  62
7
  6
CONTINUOUS
  0
LAYER
  2
LYELLOW
  70
0
  62
51
  6
CONTINUOUS
  0
LAYER
  2
BLUE1
  70
0
  62
178
  6
CONTINUOUS
  0
LAYER
  2
GREEN1
  70
0
  62
98
  6
CONTINUOUS
  0
LAYER
  2
CYAN1
  70
0
  62
138
  6
CONTINUOUS
  0
LAYER
  2
RED1
  70
0
  62
18
  6
CONTINUOUS
  0
LAYER
  2
MAGENTA1
  70
0
  62
228
  6
CONTINUOUS
  0
LAYER
  2
BROWN1
  70
0
  62
58
  6
CONTINUOUS
  0
LAYER
  2
BLUE2
  70
0
  62
5
  6
CONTINUOUS
  0
LAYER
  2
GREEN2
  70
0
  62
3
  6
CONTINUOUS
  0
LAYER
  2
CYAN2
  70
0
  62
4
  6
CONTINUOUS
  0
LAYER
  2
RED2
  70
0
  62
1
  6
CONTINUOUS
  0
LAYER
  2
MAGENTA2
  70
0
  62
6
  6
CONTINUOUS
  0
LAYER
  2
BROWN2
  70
0
  62
54
  6
CONTINUOUS
  0
LAYER
  2
BLUE3
  70
0
  62
171
  6
CONTINUOUS
  0
LAYER
  2
GREEN3
  70
0
  62
91
  6
CONTINUOUS
  0
LAYER
  2
CYAN3
  70
0
  62
131
  6
CONTINUOUS
  0
LAYER
  2
RED3
  70
0
  62
11
  6
CONTINUOUS
  0
LAYER
  2
MAGENTA3
  70
0
  62
221
  6
CONTINUOUS
  0
LAYER
  2
YELLOW3
  70
0
  62
2
  6
CONTINUOUS
  0
LAYER
  2
BLUE4
  70
0
  62
5
  6
CONTINUOUS
  0
LAYER
  2
GREEN4
  70
0
  62
3
  6
CONTINUOUS
  0
LAYER
  2
CYAN4
  70
0
  62
4
  6
CONTINUOUS
  0
LAYER
  2
RED4
  70
0
  62
1
  6
CONTINUOUS
  0
LAYER
  2
MAGENTA4
  70
0
  62
6
  6
CONTINUOUS
  0
LAYER
  2
YELLOW4
  70
0
  62
2
  6
CONTINUOUS
  0
ENDTAB
  0
ENDSEC
  0
SECTION
  2
ENTITIES
0
LINE
8
Black
10
273.65
20
-104.1
11
272.35
21
-104.1
0
LINE
8
Black
10
272.35
20
-104.1
11
272.35
21
-102.6
0
LINE
8
Black
10
272.35
20
-102.6
11
273.65
21
-102.6
0
LINE
8
Black
10
273.65
20
-102.6
11
273.65
21
-104.1
0
LINE
8
Black
10
84.15
20
-104.1
11
82.85
21
-104.1
0
LINE
8
Black
10
82.85
20
-104.1
11
82.85
21
-102.6
0
LINE
8
Black
10
82.85
20
-102.6
11
84.15
21
-102.6
0
LINE
8
Black
10
84.15
20
-102.6
11
84.15
21
-104.1
0
LINE
8
Black
10
273.65
20
-101.4
11
272.35
21
-101.4
0
LINE
8
Black
10
272.35
20
-101.4
11
272.35
21
-99.9
0
LINE
8
Black
10
272.35
20
-99.9
11
273.65
21
-99.9
0
LINE
8
Black
10
273.65
20
-99.9
11
273.65
21
-101.4
0
LINE
8
Black
10
84.15
20
-101.4
11
82.85
21
-101.4
0
LINE
8
Black
10
82.85
20
-101.4
11
82.85
21
-99.9
0
LINE
8
Black
10
82.85
20
-99.9
11
84.15
21
-99.9
0
LINE
8
Black
10
84.15
20
-99.9
11
84.15
21
-101.4
0
LINE
8
Black
10
121.8
20
-69.15
11
120.25
21
-69.15
0
LINE
8
Black
10
120.25
20
-69.15
11
120.25
21
-67.85
0
LINE
8
Black
10
120.25
20
-67.85
11
121.8
21
-67.85
0
LINE
8
Black
10
121.8
20
-67.85
11
121.8
21
-69.15
0
LINE
8
Black
10
113.85
20
-69.15
11
112.3
21
-69.15
0
LINE
8
Black
10
112.3
20
-69.15
11
112.3
21
-67.85
0
LINE
8
Black
10
112.3
20
-67.85
11
113.85
21
-67.85
0
LINE
8
Black
10
113.85
20
-67.85
11
113.85
21
-69.15
0
LINE
8
Black
10
142
20
-65.125
11
140.5
21
-65.125
0
LINE
8
Black
10
140.5
20
-65.125
11
140.5
21
-63.875
0
LINE
8
Black
10
140.5
20
-63.875
11
142
21
-63.875
0
LINE
8
Black
10
142
20
-63.875
11
142
21
-65.125
0
LINE
8
Black
10
144.5
20
-65.125
11
143
21
-65.125
0
LINE
8
Black
10
143
20
-65.125
11
143
21
-63.875
0
LINE
8
Black
10
143
20
-63.875
11
144.5
21
-63.875
0
LINE
8
Black
10
144.5
20
-63.875
11
144.5
21
-65.125
0
LINE
8
Black
10
121.8
20
-64.65
11
120.25
21
-64.65
0
LINE
8
Black
10
120.25
20
-64.65
11
120.25
21
-63.35
0
LINE
8
Black
10
120.25
20
-63.35
11
121.8
21
-63.35
0
LINE
8
Black
10
121.8
20
-63.35
11
121.8
21
-64.65
0
LINE
8
Black
10
113.85
20
-64.65
11
112.3
21
-64.65
0
LINE
8
Black
10
112.3
20
-64.65
11
112.3
21
-63.35
0
LINE
8
Black
10
112.3
20
-63.35
11
113.85
21
-63.35
0
LINE
8
Black
10
113.85
20
-63.35
11
113.85
21
-64.65
0
LINE
8
Black
10
142
20
-63.125
11
140.5
21
-63.125
0
LINE
8
Black
10
140.5
20
-63.125
11
140.5
21
-61.875
0
LINE
8
Black
10
140.5
20
-61.875
11
142
21
-61.875
0
LINE
8
Black
10
142
20
-61.875
11
142
21
-63.125
0
LINE
8
Black
10
144.5
20
-63.125
11
143
21
-63.125
0
LINE
8
Black
10
143
20
-63.125
11
143
21
-61.875
0
LINE
8
Black
10
143
20
-61.875
11
144.5
21
-61.875
0
LINE
8
Black
10
144.5
20
-61.875
11
144.5
21
-63.125
0
LINE
8
Black
10
161.125
20
-58
11
159.875
21
-58
0
LINE
8
Black
10
159.875
20
-58
11
159.875
21
-56.5
0
LINE
8
Black
10
159.875
20
-56.5
11
161.125
21
-56.5
0
LINE
8
Black
10
161.125
20
-56.5
11
161.125
21
-58
0
LINE
8
Black
10
161.125
20
-55.5
11
159.875
21
-55.5
0
LINE
8
Black
10
159.875
20
-55.5
11
159.875
21
-54
0
LINE
8
Black
10
159.875
20
-54
11
161.125
21
-54
0
LINE
8
Black
10
161.125
20
-54
11
161.125
21
-55.5
0
LINE
8
Black
10
115.7
20
-55.5
11
113.3
21
-55.5
0
LINE
8
Black
10
113.3
20
-55.5
11
113.3
21
-53.6
0
LINE
8
Black
10
113.3
20
-53.6
11
115.7
21
-53.6
0
LINE
8
Black
10
115.7
20
-53.6
11
115.7
21
-55.5
0
LINE
8
Black
10
149.574
20
-52.4944
11
149.614
21
-52.5278
0
LINE
8
Black
10
149.614
20
-52.5278
11
149.64
21
-52.5729
0
LINE
8
Black
10
149.64
20
-52.5729
11
149.649
21
-52.6241
0
LINE
8
Black
10
149.649
20
-52.6241
11
149.649
21
-53.0256
0
LINE
8
Black
10
149.649
20
-53.0256
11
149.64
21
-53.0768
0
LINE
8
Black
10
149.64
20
-53.0768
11
149.614
21
-53.1219
0
LINE
8
Black
10
149.614
20
-53.1219
11
149.574
21
-53.1554
0
LINE
8
Black
10
149.574
20
-53.1554
11
149.525
21
-53.1732
0
LINE
8
Black
10
149.525
20
-53.1732
11
149.473
21
-53.1732
0
LINE
8
Black
10
149.473
20
-53.1732
11
149.424
21
-53.1554
0
LINE
8
Black
10
149.424
20
-53.1554
11
149.385
21
-53.1219
0
LINE
8
Black
10
149.385
20
-53.1219
11
149.359
21
-53.0768
0
LINE
8
Black
10
149.359
20
-53.0768
11
149.35
21
-53.0256
0
LINE
8
Black
10
149.35
20
-53.0256
11
149.35
21
-52.6241
0
LINE
8
Black
10
149.35
20
-52.6241
11
149.359
21
-52.5729
0
LINE
8
Black
10
149.359
20
-52.5729
11
149.385
21
-52.5278
0
LINE
8
Black
10
149.385
20
-52.5278
11
149.424
21
-52.4944
0
LINE
8
Black
10
149.424
20
-52.4944
11
149.473
21
-52.4766
0
LINE
8
Black
10
149.473
20
-52.4766
11
149.525
21
-52.4766
0
LINE
8
Black
10
149.525
20
-52.4766
11
149.574
21
-52.4944
0
LINE
8
Black
10
149.074
20
-52.4944
11
149.114
21
-52.5278
0
LINE
8
Black
10
149.114
20
-52.5278
11
149.14
21
-52.5729
0
LINE
8
Black
10
149.14
20
-52.5729
11
149.149
21
-52.6241
0
LINE
8
Black
10
149.149
20
-52.6241
11
149.149
21
-53.0256
0
LINE
8
Black
10
149.149
20
-53.0256
11
149.14
21
-53.0768
0
LINE
8
Black
10
149.14
20
-53.0768
11
149.114
21
-53.1219
0
LINE
8
Black
10
149.114
20
-53.1219
11
149.074
21
-53.1554
0
LINE
8
Black
10
149.074
20
-53.1554
11
149.025
21
-53.1732
0
LINE
8
Black
10
149.025
20
-53.1732
11
148.973
21
-53.1732
0
LINE
8
Black
10
148.973
20
-53.1732
11
148.924
21
-53.1554
0
LINE
8
Black
10
148.924
20
-53.1554
11
148.884
21
-53.1219
0
LINE
8
Black
10
148.884
20
-53.1219
11
148.858
21
-53.0768
0
LINE
8
Black
10
148.858
20
-53.0768
11
148.849
21
-53.0256
0
LINE
8
Black
10
148.849
20
-53.0256
11
148.849
21
-52.6241
0
LINE
8
Black
10
148.849
20
-52.6241
11
148.858
21
-52.5729
0
LINE
8
Black
10
148.858
20
-52.5729
11
148.884
21
-52.5278
0
LINE
8
Black
10
148.884
20
-52.5278
11
148.924
21
-52.4944
0
LINE
8
Black
10
148.924
20
-52.4944
11
148.973
21
-52.4766
0
LINE
8
Black
10
148.973
20
-52.4766
11
149.025
21
-52.4766
0
LINE
8
Black
10
149.025
20
-52.4766
11
149.074
21
-52.4944
0
LINE
8
Black
10
148.574
20
-52.4944
11
148.613
21
-52.5278
0
LINE
8
Black
10
148.613
20
-52.5278
11
148.639
21
-52.5729
0
LINE
8
Black
10
148.639
20
-52.5729
11
148.648
21
-52.6241
0
LINE
8
Black
10
148.648
20
-52.6241
11
148.648
21
-53.0256
0
LINE
8
Black
10
148.648
20
-53.0256
11
148.639
21
-53.0768
0
LINE
8
Black
10
148.639
20
-53.0768
11
148.613
21
-53.1219
0
LINE
8
Black
10
148.613
20
-53.1219
11
148.574
21
-53.1554
0
LINE
8
Black
10
148.574
20
-53.1554
11
148.525
21
-53.1732
0
LINE
8
Black
10
148.525
20
-53.1732
11
148.473
21
-53.1732
0
LINE
8
Black
10
148.473
20
-53.1732
11
148.424
21
-53.1554
0
LINE
8
Black
10
148.424
20
-53.1554
11
148.384
21
-53.1219
0
LINE
8
Black
10
148.384
20
-53.1219
11
148.358
21
-53.0768
0
LINE
8
Black
10
148.358
20
-53.0768
11
148.349
21
-53.0256
0
LINE
8
Black
10
148.349
20
-53.0256
11
148.349
21
-52.6241
0
LINE
8
Black
10
148.349
20
-52.6241
11
148.358
21
-52.5729
0
LINE
8
Black
10
148.358
20
-52.5729
11
148.384
21
-52.5278
0
LINE
8
Black
10
148.384
20
-52.5278
11
148.424
21
-52.4944
0
LINE
8
Black
10
148.424
20
-52.4944
11
148.473
21
-52.4766
0
LINE
8
Black
10
148.473
20
-52.4766
11
148.525
21
-52.4766
0
LINE
8
Black
10
148.525
20
-52.4766
11
148.574
21
-52.4944
0
LINE
8
Black
10
148.073
20
-52.4944
11
148.113
21
-52.5278
0
LINE
8
Black
10
148.113
20
-52.5278
11
148.139
21
-52.5729
0
LINE
8
Black
10
148.139
20
-52.5729
11
148.148
21
-52.6241
0
LINE
8
Black
10
148.148
20
-52.6241
11
148.148
21
-53.0256
0
LINE
8
Black
10
148.148
20
-53.0256
11
148.139
21
-53.0768
0
LINE
8
Black
10
148.139
20
-53.0768
11
148.113
21
-53.1219
0
LINE
8
Black
10
148.113
20
-53.1219
11
148.073
21
-53.1554
0
LINE
8
Black
10
148.073
20
-53.1554
11
148.024
21
-53.1732
0
LINE
8
Black
10
148.024
20
-53.1732
11
147.972
21
-53.1732
0
LINE
8
Black
10
147.972
20
-53.1732
11
147.923
21
-53.1554
0
LINE
8
Black
10
147.923
20
-53.1554
11
147.883
21
-53.1219
0
LINE
8
Black
10
147.883
20
-53.1219
11
147.857
21
-53.0768
0
LINE
8
Black
10
147.857
20
-53.0768
11
147.848
21
-53.0256
0
LINE
8
Black
10
147.848
20
-53.0256
11
147.848
21
-52.6241
0
LINE
8
Black
10
147.848
20
-52.6241
11
147.857
21
-52.5729
0
LINE
8
Black
10
147.857
20
-52.5729
11
147.883
21
-52.5278
0
LINE
8
Black
10
147.883
20
-52.5278
11
147.923
21
-52.4944
0
LINE
8
Black
10
147.923
20
-52.4944
11
147.972
21
-52.4766
0
LINE
8
Black
10
147.972
20
-52.4766
11
148.024
21
-52.4766
0
LINE
8
Black
10
148.024
20
-52.4766
11
148.073
21
-52.4944
0
LINE
8
Black
10
147.573
20
-52.4944
11
147.613
21
-52.5278
0
LINE
8
Black
10
147.613
20
-52.5278
11
147.639
21
-52.5729
0
LINE
8
Black
10
147.639
20
-52.5729
11
147.648
21
-52.6241
0
LINE
8
Black
10
147.648
20
-52.6241
11
147.648
21
-53.0256
0
LINE
8
Black
10
147.648
20
-53.0256
11
147.639
21
-53.0768
0
LINE
8
Black
10
147.639
20
-53.0768
11
147.613
21
-53.1219
0
LINE
8
Black
10
147.613
20
-53.1219
11
147.573
21
-53.1554
0
LINE
8
Black
10
147.573
20
-53.1554
11
147.524
21
-53.1732
0
LINE
8
Black
10
147.524
20
-53.1732
11
147.472
21
-53.1732
0
LINE
8
Black
10
147.472
20
-53.1732
11
147.423
21
-53.1554
0
LINE
8
Black
10
147.423
20
-53.1554
11
147.383
21
-53.1219
0
LINE
8
Black
10
147.383
20
-53.1219
11
147.357
21
-53.0768
0
LINE
8
Black
10
147.357
20
-53.0768
11
147.348
21
-53.0256
0
LINE
8
Black
10
147.348
20
-53.0256
11
147.348
21
-52.6241
0
LINE
8
Black
10
147.348
20
-52.6241
11
147.357
21
-52.5729
0
LINE
8
Black
10
147.357
20
-52.5729
11
147.383
21
-52.5278
0
LINE
8
Black
10
147.383
20
-52.5278
11
147.423
21
-52.4944
0
LINE
8
Black
10
147.423
20
-52.4944
11
147.472
21
-52.4766
0
LINE
8
Black
10
147.472
20
-52.4766
11
147.524
21
-52.4766
0
LINE
8
Black
10
147.524
20
-52.4766
11
147.573
21
-52.4944
0
LINE
8
Black
10
147.075
20
-52.4944
11
147.115
21
-52.5278
0
LINE
8
Black
10
147.115
20
-52.5278
11
147.141
21
-52.5729
0
LINE
8
Black
10
147.141
20
-52.5729
11
147.15
21
-52.6241
0
LINE
8
Black
10
147.15
20
-52.6241
11
147.15
21
-53.0256
0
LINE
8
Black
10
147.15
20
-53.0256
11
147.141
21
-53.0768
0
LINE
8
Black
10
147.141
20
-53.0768
11
147.115
21
-53.1219
0
LINE
8
Black
10
147.115
20
-53.1219
11
147.075
21
-53.1554
0
LINE
8
Black
10
147.075
20
-53.1554
11
147.026
21
-53.1732
0
LINE
8
Black
10
147.026
20
-53.1732
11
146.974
21
-53.1732
0
LINE
8
Black
10
146.974
20
-53.1732
11
146.925
21
-53.1554
0
LINE
8
Black
10
146.925
20
-53.1554
11
146.885
21
-53.1219
0
LINE
8
Black
10
146.885
20
-53.1219
11
146.859
21
-53.0768
0
LINE
8
Black
10
146.859
20
-53.0768
11
146.85
21
-53.0256
0
LINE
8
Black
10
146.85
20
-53.0256
11
146.85
21
-52.6241
0
LINE
8
Black
10
146.85
20
-52.6241
11
146.859
21
-52.5729
0
LINE
8
Black
10
146.859
20
-52.5729
11
146.885
21
-52.5278
0
LINE
8
Black
10
146.885
20
-52.5278
11
146.925
21
-52.4944
0
LINE
8
Black
10
146.925
20
-52.4944
11
146.974
21
-52.4766
0
LINE
8
Black
10
146.974
20
-52.4766
11
147.026
21
-52.4766
0
LINE
8
Black
10
147.026
20
-52.4766
11
147.075
21
-52.4944
0
LINE
8
Black
10
146.577
20
-52.4944
11
146.617
21
-52.5278
0
LINE
8
Black
10
146.617
20
-52.5278
11
146.643
21
-52.5729
0
LINE
8
Black
10
146.643
20
-52.5729
11
146.652
21
-52.6241
0
LINE
8
Black
10
146.652
20
-52.6241
11
146.652
21
-53.0256
0
LINE
8
Black
10
146.652
20
-53.0256
11
146.643
21
-53.0768
0
LINE
8
Black
10
146.643
20
-53.0768
11
146.617
21
-53.1219
0
LINE
8
Black
10
146.617
20
-53.1219
11
146.577
21
-53.1554
0
LINE
8
Black
10
146.577
20
-53.1554
11
146.528
21
-53.1732
0
LINE
8
Black
10
146.528
20
-53.1732
11
146.476
21
-53.1732
0
LINE
8
Black
10
146.476
20
-53.1732
11
146.427
21
-53.1554
0
LINE
8
Black
10
146.427
20
-53.1554
11
146.387
21
-53.1219
0
LINE
8
Black
10
146.387
20
-53.1219
11
146.361
21
-53.0768
0
LINE
8
Black
10
146.361
20
-53.0768
11
146.352
21
-53.0256
0
LINE
8
Black
10
146.352
20
-53.0256
11
146.352
21
-52.6241
0
LINE
8
Black
10
146.352
20
-52.6241
11
146.361
21
-52.5729
0
LINE
8
Black
10
146.361
20
-52.5729
11
146.387
21
-52.5278
0
LINE
8
Black
10
146.387
20
-52.5278
11
146.427
21
-52.4944
0
LINE
8
Black
10
146.427
20
-52.4944
11
146.476
21
-52.4766
0
LINE
8
Black
10
146.476
20
-52.4766
11
146.528
21
-52.4766
0
LINE
8
Black
10
146.528
20
-52.4766
11
146.577
21
-52.4944
0
LINE
8
Black
10
146.077
20
-52.4944
11
146.117
21
-52.5278
0
LINE
8
Black
10
146.117
20
-52.5278
11
146.143
21
-52.5729
0
LINE
8
Black
10
146.143
20
-52.5729
11
146.152
21
-52.6241
0
LINE
8
Black
10
146.152
20
-52.6241
11
146.152
21
-53.0256
0
LINE
8
Black
10
146.152
20
-53.0256
11
146.143
21
-53.0768
0
LINE
8
Black
10
146.143
20
-53.0768
11
146.117
21
-53.1219
0
LINE
8
Black
10
146.117
20
-53.1219
11
146.077
21
-53.1554
0
LINE
8
Black
10
146.077
20
-53.1554
11
146.028
21
-53.1732
0
LINE
8
Black
10
146.028
20
-53.1732
11
145.976
21
-53.1732
0
LINE
8
Black
10
145.976
20
-53.1732
11
145.927
21
-53.1554
0
LINE
8
Black
10
145.927
20
-53.1554
11
145.887
21
-53.1219
0
LINE
8
Black
10
145.887
20
-53.1219
11
145.861
21
-53.0768
0
LINE
8
Black
10
145.861
20
-53.0768
11
145.852
21
-53.0256
0
LINE
8
Black
10
145.852
20
-53.0256
11
145.852
21
-52.6241
0
LINE
8
Black
10
145.852
20
-52.6241
11
145.861
21
-52.5729
0
LINE
8
Black
10
145.861
20
-52.5729
11
145.887
21
-52.5278
0
LINE
8
Black
10
145.887
20
-52.5278
11
145.927
21
-52.4944
0
LINE
8
Black
10
145.927
20
-52.4944
11
145.976
21
-52.4766
0
LINE
8
Black
10
145.976
20
-52.4766
11
146.028
21
-52.4766
0
LINE
8
Black
10
146.028
20
-52.4766
11
146.077
21
-52.4944
0
LINE
8
Black
10
145.576
20
-52.4944
11
145.616
21
-52.5278
0
LINE
8
Black
10
145.616
20
-52.5278
11
145.642
21
-52.5729
0
LINE
8
Black
10
145.642
20
-52.5729
11
145.651
21
-52.6241
0
LINE
8
Black
10
145.651
20
-52.6241
11
145.651
21
-53.0256
0
LINE
8
Black
10
145.651
20
-53.0256
11
145.642
21
-53.0768
0
LINE
8
Black
10
145.642
20
-53.0768
11
145.616
21
-53.1219
0
LINE
8
Black
10
145.616
20
-53.1219
11
145.576
21
-53.1554
0
LINE
8
Black
10
145.576
20
-53.1554
11
145.527
21
-53.1732
0
LINE
8
Black
10
145.527
20
-53.1732
11
145.475
21
-53.1732
0
LINE
8
Black
10
145.475
20
-53.1732
11
145.426
21
-53.1554
0
LINE
8
Black
10
145.426
20
-53.1554
11
145.387
21
-53.1219
0
LINE
8
Black
10
145.387
20
-53.1219
11
145.361
21
-53.0768
0
LINE
8
Black
10
145.361
20
-53.0768
11
145.352
21
-53.0256
0
LINE
8
Black
10
145.352
20
-53.0256
11
145.352
21
-52.6241
0
LINE
8
Black
10
145.352
20
-52.6241
11
145.361
21
-52.5729
0
LINE
8
Black
10
145.361
20
-52.5729
11
145.387
21
-52.5278
0
LINE
8
Black
10
145.387
20
-52.5278
11
145.426
21
-52.4944
0
LINE
8
Black
10
145.426
20
-52.4944
11
145.475
21
-52.4766
0
LINE
8
Black
10
145.475
20
-52.4766
11
145.527
21
-52.4766
0
LINE
8
Black
10
145.527
20
-52.4766
11
145.576
21
-52.4944
0
LINE
8
Black
10
145.076
20
-52.4944
11
145.116
21
-52.5278
0
LINE
8
Black
10
145.116
20
-52.5278
11
145.142
21
-52.5729
0
LINE
8
Black
10
145.142
20
-52.5729
11
145.151
21
-52.6241
0
LINE
8
Black
10
145.151
20
-52.6241
11
145.151
21
-53.0256
0
LINE
8
Black
10
145.151
20
-53.0256
11
145.142
21
-53.0768
0
LINE
8
Black
10
145.142
20
-53.0768
11
145.116
21
-53.1219
0
LINE
8
Black
10
145.116
20
-53.1219
11
145.076
21
-53.1554
0
LINE
8
Black
10
145.076
20
-53.1554
11
145.027
21
-53.1732
0
LINE
8
Black
10
145.027
20
-53.1732
11
144.975
21
-53.1732
0
LINE
8
Black
10
144.975
20
-53.1732
11
144.926
21
-53.1554
0
LINE
8
Black
10
144.926
20
-53.1554
11
144.886
21
-53.1219
0
LINE
8
Black
10
144.886
20
-53.1219
11
144.86
21
-53.0768
0
LINE
8
Black
10
144.86
20
-53.0768
11
144.851
21
-53.0256
0
LINE
8
Black
10
144.851
20
-53.0256
11
144.851
21
-52.6241
0
LINE
8
Black
10
144.851
20
-52.6241
11
144.86
21
-52.5729
0
LINE
8
Black
10
144.86
20
-52.5729
11
144.886
21
-52.5278
0
LINE
8
Black
10
144.886
20
-52.5278
11
144.926
21
-52.4944
0
LINE
8
Black
10
144.926
20
-52.4944
11
144.975
21
-52.4766
0
LINE
8
Black
10
144.975
20
-52.4766
11
145.027
21
-52.4766
0
LINE
8
Black
10
145.027
20
-52.4766
11
145.076
21
-52.4944
0
LINE
8
Black
10
144.576
20
-52.4944
11
144.615
21
-52.5278
0
LINE
8
Black
10
144.615
20
-52.5278
11
144.641
21
-52.5729
0
LINE
8
Black
10
144.641
20
-52.5729
11
144.65
21
-52.6241
0
LINE
8
Black
10
144.65
20
-52.6241
11
144.65
21
-53.0256
0
LINE
8
Black
10
144.65
20
-53.0256
11
144.641
21
-53.0768
0
LINE
8
Black
10
144.641
20
-53.0768
11
144.615
21
-53.1219
0
LINE
8
Black
10
144.615
20
-53.1219
11
144.576
21
-53.1554
0
LINE
8
Black
10
144.576
20
-53.1554
11
144.527
21
-53.1732
0
LINE
8
Black
10
144.527
20
-53.1732
11
144.475
21
-53.1732
0
LINE
8
Black
10
144.475
20
-53.1732
11
144.426
21
-53.1554
0
LINE
8
Black
10
144.426
20
-53.1554
11
144.386
21
-53.1219
0
LINE
8
Black
10
144.386
20
-53.1219
11
144.36
21
-53.0768
0
LINE
8
Black
10
144.36
20
-53.0768
11
144.351
21
-53.0256
0
LINE
8
Black
10
144.351
20
-53.0256
11
144.351
21
-52.6241
0
LINE
8
Black
10
144.351
20
-52.6241
11
144.36
21
-52.5729
0
LINE
8
Black
10
144.36
20
-52.5729
11
144.386
21
-52.5278
0
LINE
8
Black
10
144.386
20
-52.5278
11
144.426
21
-52.4944
0
LINE
8
Black
10
144.426
20
-52.4944
11
144.475
21
-52.4766
0
LINE
8
Black
10
144.475
20
-52.4766
11
144.527
21
-52.4766
0
LINE
8
Black
10
144.527
20
-52.4766
11
144.576
21
-52.4944
0
LINE
8
Black
10
121
20
-53.125
11
119.5
21
-53.125
0
LINE
8
Black
10
119.5
20
-53.125
11
119.5
21
-51.875
0
LINE
8
Black
10
119.5
20
-51.875
11
121
21
-51.875
0
LINE
8
Black
10
121
20
-51.875
11
121
21
-53.125
0
LINE
8
Black
10
118.5
20
-53.125
11
117
21
-53.125
0
LINE
8
Black
10
117
20
-53.125
11
117
21
-51.875
0
LINE
8
Black
10
117
20
-51.875
11
118.5
21
-51.875
0
LINE
8
Black
10
118.5
20
-51.875
11
118.5
21
-53.125
0
LINE
8
Black
10
150.577
20
-51.8585
11
150.622
21
-51.8846
0
LINE
8
Black
10
150.622
20
-51.8846
11
150.655
21
-51.9244
0
LINE
8
Black
10
150.655
20
-51.9244
11
150.673
21
-51.9733
0
LINE
8
Black
10
150.673
20
-51.9733
11
150.673
21
-52.0254
0
LINE
8
Black
10
150.673
20
-52.0254
11
150.655
21
-52.0743
0
LINE
8
Black
10
150.655
20
-52.0743
11
150.622
21
-52.1142
0
LINE
8
Black
10
150.622
20
-52.1142
11
150.577
21
-52.1402
0
LINE
8
Black
10
150.577
20
-52.1402
11
150.526
21
-52.1492
0
LINE
8
Black
10
150.526
20
-52.1492
11
150.124
21
-52.1492
0
LINE
8
Black
10
150.124
20
-52.1492
11
150.073
21
-52.1402
0
LINE
8
Black
10
150.073
20
-52.1402
11
150.028
21
-52.1142
0
LINE
8
Black
10
150.028
20
-52.1142
11
149.994
21
-52.0743
0
LINE
8
Black
10
149.994
20
-52.0743
11
149.977
21
-52.0254
0
LINE
8
Black
10
149.977
20
-52.0254
11
149.977
21
-51.9733
0
LINE
8
Black
10
149.977
20
-51.9733
11
149.994
21
-51.9244
0
LINE
8
Black
10
149.994
20
-51.9244
11
150.028
21
-51.8846
0
LINE
8
Black
10
150.028
20
-51.8846
11
150.073
21
-51.8585
0
LINE
8
Black
10
150.073
20
-51.8585
11
150.124
21
-51.8495
0
LINE
8
Black
10
150.124
20
-51.8495
11
150.526
21
-51.8495
0
LINE
8
Black
10
150.526
20
-51.8495
11
150.577
21
-51.8585
0
LINE
8
Black
10
143.927
20
-51.8585
11
143.972
21
-51.8846
0
LINE
8
Black
10
143.972
20
-51.8846
11
144.006
21
-51.9244
0
LINE
8
Black
10
144.006
20
-51.9244
11
144.023
21
-51.9733
0
LINE
8
Black
10
144.023
20
-51.9733
11
144.023
21
-52.0254
0
LINE
8
Black
10
144.023
20
-52.0254
11
144.006
21
-52.0743
0
LINE
8
Black
10
144.006
20
-52.0743
11
143.972
21
-52.1142
0
LINE
8
Black
10
143.972
20
-52.1142
11
143.927
21
-52.1402
0
LINE
8
Black
10
143.927
20
-52.1402
11
143.876
21
-52.1492
0
LINE
8
Black
10
143.876
20
-52.1492
11
143.474
21
-52.1492
0
LINE
8
Black
10
143.474
20
-52.1492
11
143.423
21
-52.1402
0
LINE
8
Black
10
143.423
20
-52.1402
11
143.378
21
-52.1142
0
LINE
8
Black
10
143.378
20
-52.1142
11
143.345
21
-52.0743
0
LINE
8
Black
10
143.345
20
-52.0743
11
143.327
21
-52.0254
0
LINE
8
Black
10
143.327
20
-52.0254
11
143.327
21
-51.9733
0
LINE
8
Black
10
143.327
20
-51.9733
11
143.345
21
-51.9244
0
LINE
8
Black
10
143.345
20
-51.9244
11
143.378
21
-51.8846
0
LINE
8
Black
10
143.378
20
-51.8846
11
143.423
21
-51.8585
0
LINE
8
Black
10
143.423
20
-51.8585
11
143.474
21
-51.8495
0
LINE
8
Black
10
143.474
20
-51.8495
11
143.876
21
-51.8495
0
LINE
8
Black
10
143.876
20
-51.8495
11
143.927
21
-51.8585
0
LINE
8
Black
10
143.927
20
-51.3582
11
143.972
21
-51.3842
0
LINE
8
Black
10
143.972
20
-51.3842
11
144.006
21
-51.4241
0
LINE
8
Black
10
144.006
20
-51.4241
11
144.023
21
-51.473
0
LINE
8
Black
10
144.023
20
-51.473
11
144.023
21
-51.525
0
LINE
8
Black
10
144.023
20
-51.525
11
144.006
21
-51.5739
0
LINE
8
Black
10
144.006
20
-51.5739
11
143.972
21
-51.6138
0
LINE
8
Black
10
143.972
20
-51.6138
11
143.927
21
-51.6398
0
LINE
8
Black
10
143.927
20
-51.6398
11
143.876
21
-51.6488
0
LINE
8
Black
10
143.876
20
-51.6488
11
143.474
21
-51.6488
0
LINE
8
Black
10
143.474
20
-51.6488
11
143.423
21
-51.6398
0
LINE
8
Black
10
143.423
20
-51.6398
11
143.378
21
-51.6138
0
LINE
8
Black
10
143.378
20
-51.6138
11
143.345
21
-51.5739
0
LINE
8
Black
10
143.345
20
-51.5739
11
143.327
21
-51.525
0
LINE
8
Black
10
143.327
20
-51.525
11
143.327
21
-51.473
0
LINE
8
Black
10
143.327
20
-51.473
11
143.345
21
-51.4241
0
LINE
8
Black
10
143.345
20
-51.4241
11
143.378
21
-51.3842
0
LINE
8
Black
10
143.378
20
-51.3842
11
143.423
21
-51.3582
0
LINE
8
Black
10
143.423
20
-51.3582
11
143.474
21
-51.3491
0
LINE
8
Black
10
143.474
20
-51.3491
11
143.876
21
-51.3491
0
LINE
8
Black
10
143.876
20
-51.3491
11
143.927
21
-51.3582
0
LINE
8
Black
10
150.577
20
-51.3582
11
150.622
21
-51.3842
0
LINE
8
Black
10
150.622
20
-51.3842
11
150.655
21
-51.4241
0
LINE
8
Black
10
150.655
20
-51.4241
11
150.673
21
-51.473
0
LINE
8
Black
10
150.673
20
-51.473
11
150.673
21
-51.525
0
LINE
8
Black
10
150.673
20
-51.525
11
150.655
21
-51.5739
0
LINE
8
Black
10
150.655
20
-51.5739
11
150.622
21
-51.6138
0
LINE
8
Black
10
150.622
20
-51.6138
11
150.577
21
-51.6398
0
LINE
8
Black
10
150.577
20
-51.6398
11
150.526
21
-51.6488
0
LINE
8
Black
10
150.526
20
-51.6488
11
150.124
21
-51.6488
0
LINE
8
Black
10
150.124
20
-51.6488
11
150.073
21
-51.6398
0
LINE
8
Black
10
150.073
20
-51.6398
11
150.028
21
-51.6138
0
LINE
8
Black
10
150.028
20
-51.6138
11
149.994
21
-51.5739
0
LINE
8
Black
10
149.994
20
-51.5739
11
149.977
21
-51.525
0
LINE
8
Black
10
149.977
20
-51.525
11
149.977
21
-51.473
0
LINE
8
Black
10
149.977
20
-51.473
11
149.994
21
-51.4241
0
LINE
8
Black
10
149.994
20
-51.4241
11
150.028
21
-51.3842
0
LINE
8
Black
10
150.028
20
-51.3842
11
150.073
21
-51.3582
0
LINE
8
Black
10
150.073
20
-51.3582
11
150.124
21
-51.3491
0
LINE
8
Black
10
150.124
20
-51.3491
11
150.526
21
-51.3491
0
LINE
8
Black
10
150.526
20
-51.3491
11
150.577
21
-51.3582
0
LINE
8
Black
10
115.7
20
-51.4
11
113.3
21
-51.4
0
LINE
8
Black
10
113.3
20
-51.4
11
113.3
21
-49.5
0
LINE
8
Black
10
113.3
20
-49.5
11
115.7
21
-49.5
0
LINE
8
Black
10
115.7
20
-49.5
11
115.7
21
-51.4
0
LINE
8
Black
10
143.927
20
-50.8578
11
143.972
21
-50.8838
0
LINE
8
Black
10
143.972
20
-50.8838
11
144.006
21
-50.9237
0
LINE
8
Black
10
144.006
20
-50.9237
11
144.023
21
-50.9726
0
LINE
8
Black
10
144.023
20
-50.9726
11
144.023
21
-51.0246
0
LINE
8
Black
10
144.023
20
-51.0246
11
144.006
21
-51.0735
0
LINE
8
Black
10
144.006
20
-51.0735
11
143.972
21
-51.1134
0
LINE
8
Black
10
143.972
20
-51.1134
11
143.927
21
-51.1394
0
LINE
8
Black
10
143.927
20
-51.1394
11
143.876
21
-51.1485
0
LINE
8
Black
10
143.876
20
-51.1485
11
143.474
21
-51.1485
0
LINE
8
Black
10
143.474
20
-51.1485
11
143.423
21
-51.1394
0
LINE
8
Black
10
143.423
20
-51.1394
11
143.378
21
-51.1134
0
LINE
8
Black
10
143.378
20
-51.1134
11
143.345
21
-51.0735
0
LINE
8
Black
10
143.345
20
-51.0735
11
143.327
21
-51.0246
0
LINE
8
Black
10
143.327
20
-51.0246
11
143.327
21
-50.9726
0
LINE
8
Black
10
143.327
20
-50.9726
11
143.345
21
-50.9237
0
LINE
8
Black
10
143.345
20
-50.9237
11
143.378
21
-50.8838
0
LINE
8
Black
10
143.378
20
-50.8838
11
143.423
21
-50.8578
0
LINE
8
Black
10
143.423
20
-50.8578
11
143.474
21
-50.8487
0
LINE
8
Black
10
143.474
20
-50.8487
11
143.876
21
-50.8487
0
LINE
8
Black
10
143.876
20
-50.8487
11
143.927
21
-50.8578
0
LINE
8
Black
10
150.577
20
-50.8578
11
150.622
21
-50.8838
0
LINE
8
Black
10
150.622
20
-50.8838
11
150.655
21
-50.9237
0
LINE
8
Black
10
150.655
20
-50.9237
11
150.673
21
-50.9726
0
LINE
8
Black
10
150.673
20
-50.9726
11
150.673
21
-51.0246
0
LINE
8
Black
10
150.673
20
-51.0246
11
150.655
21
-51.0735
0
LINE
8
Black
10
150.655
20
-51.0735
11
150.622
21
-51.1134
0
LINE
8
Black
10
150.622
20
-51.1134
11
150.577
21
-51.1394
0
LINE
8
Black
10
150.577
20
-51.1394
11
150.526
21
-51.1485
0
LINE
8
Black
10
150.526
20
-51.1485
11
150.124
21
-51.1485
0
LINE
8
Black
10
150.124
20
-51.1485
11
150.073
21
-51.1394
0
LINE
8
Black
10
150.073
20
-51.1394
11
150.028
21
-51.1134
0
LINE
8
Black
10
150.028
20
-51.1134
11
149.994
21
-51.0735
0
LINE
8
Black
10
149.994
20
-51.0735
11
149.977
21
-51.0246
0
LINE
8
Black
10
149.977
20
-51.0246
11
149.977
21
-50.9726
0
LINE
8
Black
10
149.977
20
-50.9726
11
149.994
21
-50.9237
0
LINE
8
Black
10
149.994
20
-50.9237
11
150.028
21
-50.8838
0
LINE
8
Black
10
150.028
20
-50.8838
11
150.073
21
-50.8578
0
LINE
8
Black
10
150.073
20
-50.8578
11
150.124
21
-50.8487
0
LINE
8
Black
10
150.124
20
-50.8487
11
150.526
21
-50.8487
0
LINE
8
Black
10
150.526
20
-50.8487
11
150.577
21
-50.8578
0
LINE
8
Black
10
121
20
-51.125
11
119.5
21
-51.125
0
LINE
8
Black
10
119.5
20
-51.125
11
119.5
21
-49.875
0
LINE
8
Black
10
119.5
20
-49.875
11
121
21
-49.875
0
LINE
8
Black
10
121
20
-49.875
11
121
21
-51.125
0
LINE
8
Black
10
118.5
20
-51.125
11
117
21
-51.125
0
LINE
8
Black
10
117
20
-51.125
11
117
21
-49.875
0
LINE
8
Black
10
117
20
-49.875
11
118.5
21
-49.875
0
LINE
8
Black
10
118.5
20
-49.875
11
118.5
21
-51.125
0
LINE
8
Black
10
143.927
20
-50.3574
11
143.972
21
-50.3834
0
LINE
8
Black
10
143.972
20
-50.3834
11
144.006
21
-50.4233
0
LINE
8
Black
10
144.006
20
-50.4233
11
144.023
21
-50.4722
0
LINE
8
Black
10
144.023
20
-50.4722
11
144.023
21
-50.5242
0
LINE
8
Black
10
144.023
20
-50.5242
11
144.006
21
-50.5731
0
LINE
8
Black
10
144.006
20
-50.5731
11
143.972
21
-50.613
0
LINE
8
Black
10
143.972
20
-50.613
11
143.927
21
-50.639
0
LINE
8
Black
10
143.927
20
-50.639
11
143.876
21
-50.6481
0
LINE
8
Black
10
143.876
20
-50.6481
11
143.474
21
-50.6481
0
LINE
8
Black
10
143.474
20
-50.6481
11
143.423
21
-50.639
0
LINE
8
Black
10
143.423
20
-50.639
11
143.378
21
-50.613
0
LINE
8
Black
10
143.378
20
-50.613
11
143.345
21
-50.5731
0
LINE
8
Black
10
143.345
20
-50.5731
11
143.327
21
-50.5242
0
LINE
8
Black
10
143.327
20
-50.5242
11
143.327
21
-50.4722
0
LINE
8
Black
10
143.327
20
-50.4722
11
143.345
21
-50.4233
0
LINE
8
Black
10
143.345
20
-50.4233
11
143.378
21
-50.3834
0
LINE
8
Black
10
143.378
20
-50.3834
11
143.423
21
-50.3574
0
LINE
8
Black
10
143.423
20
-50.3574
11
143.474
21
-50.3484
0
LINE
8
Black
10
143.474
20
-50.3484
11
143.876
21
-50.3484
0
LINE
8
Black
10
143.876
20
-50.3484
11
143.927
21
-50.3574
0
LINE
8
Black
10
150.577
20
-50.3574
11
150.622
21
-50.3834
0
LINE
8
Black
10
150.622
20
-50.3834
11
150.655
21
-50.4233
0
LINE
8
Black
10
150.655
20
-50.4233
11
150.673
21
-50.4722
0
LINE
8
Black
10
150.673
20
-50.4722
11
150.673
21
-50.5242
0
LINE
8
Black
10
150.673
20
-50.5242
11
150.655
21
-50.5731
0
LINE
8
Black
10
150.655
20
-50.5731
11
150.622
21
-50.613
0
LINE
8
Black
10
150.622
20
-50.613
11
150.577
21
-50.639
0
LINE
8
Black
10
150.577
20
-50.639
11
150.526
21
-50.6481
0
LINE
8
Black
10
150.526
20
-50.6481
11
150.124
21
-50.6481
0
LINE
8
Black
10
150.124
20
-50.6481
11
150.073
21
-50.639
0
LINE
8
Black
10
150.073
20
-50.639
11
150.028
21
-50.613
0
LINE
8
Black
10
150.028
20
-50.613
11
149.994
21
-50.5731
0
LINE
8
Black
10
149.994
20
-50.5731
11
149.977
21
-50.5242
0
LINE
8
Black
10
149.977
20
-50.5242
11
149.977
21
-50.4722
0
LINE
8
Black
10
149.977
20
-50.4722
11
149.994
21
-50.4233
0
LINE
8
Black
10
149.994
20
-50.4233
11
150.028
21
-50.3834
0
LINE
8
Black
10
150.028
20
-50.3834
11
150.073
21
-50.3574
0
LINE
8
Black
10
150.073
20
-50.3574
11
150.124
21
-50.3484
0
LINE
8
Black
10
150.124
20
-50.3484
11
150.526
21
-50.3484
0
LINE
8
Black
10
150.526
20
-50.3484
11
150.577
21
-50.3574
0
LINE
8
Black
10
143.927
20
-49.857
11
143.972
21
-49.883
0
LINE
8
Black
10
143.972
20
-49.883
11
144.006
21
-49.9229
0
LINE
8
Black
10
144.006
20
-49.9229
11
144.023
21
-49.9718
0
LINE
8
Black
10
144.023
20
-49.9718
11
144.023
21
-50.0239
0
LINE
8
Black
10
144.023
20
-50.0239
11
144.006
21
-50.0728
0
LINE
8
Black
10
144.006
20
-50.0728
11
143.972
21
-50.1126
0
LINE
8
Black
10
143.972
20
-50.1126
11
143.927
21
-50.1387
0
LINE
8
Black
10
143.927
20
-50.1387
11
143.876
21
-50.1477
0
LINE
8
Black
10
143.876
20
-50.1477
11
143.474
21
-50.1477
0
LINE
8
Black
10
143.474
20
-50.1477
11
143.423
21
-50.1387
0
LINE
8
Black
10
143.423
20
-50.1387
11
143.378
21
-50.1126
0
LINE
8
Black
10
143.378
20
-50.1126
11
143.345
21
-50.0728
0
LINE
8
Black
10
143.345
20
-50.0728
11
143.327
21
-50.0239
0
LINE
8
Black
10
143.327
20
-50.0239
11
143.327
21
-49.9718
0
LINE
8
Black
10
143.327
20
-49.9718
11
143.345
21
-49.9229
0
LINE
8
Black
10
143.345
20
-49.9229
11
143.378
21
-49.883
0
LINE
8
Black
10
143.378
20
-49.883
11
143.423
21
-49.857
0
LINE
8
Black
10
143.423
20
-49.857
11
143.474
21
-49.848
0
LINE
8
Black
10
143.474
20
-49.848
11
143.876
21
-49.848
0
LINE
8
Black
10
143.876
20
-49.848
11
143.927
21
-49.857
0
LINE
8
Black
10
150.577
20
-49.857
11
150.622
21
-49.883
0
LINE
8
Black
10
150.622
20
-49.883
11
150.655
21
-49.9229
0
LINE
8
Black
10
150.655
20
-49.9229
11
150.673
21
-49.9718
0
LINE
8
Black
10
150.673
20
-49.9718
11
150.673
21
-50.0239
0
LINE
8
Black
10
150.673
20
-50.0239
11
150.655
21
-50.0728
0
LINE
8
Black
10
150.655
20
-50.0728
11
150.622
21
-50.1126
0
LINE
8
Black
10
150.622
20
-50.1126
11
150.577
21
-50.1387
0
LINE
8
Black
10
150.577
20
-50.1387
11
150.526
21
-50.1477
0
LINE
8
Black
10
150.526
20
-50.1477
11
150.124
21
-50.1477
0
LINE
8
Black
10
150.124
20
-50.1477
11
150.073
21
-50.1387
0
LINE
8
Black
10
150.073
20
-50.1387
11
150.028
21
-50.1126
0
LINE
8
Black
10
150.028
20
-50.1126
11
149.994
21
-50.0728
0
LINE
8
Black
10
149.994
20
-50.0728
11
149.977
21
-50.0239
0
LINE
8
Black
10
149.977
20
-50.0239
11
149.977
21
-49.9718
0
LINE
8
Black
10
149.977
20
-49.9718
11
149.994
21
-49.9229
0
LINE
8
Black
10
149.994
20
-49.9229
11
150.028
21
-49.883
0
LINE
8
Black
10
150.028
20
-49.883
11
150.073
21
-49.857
0
LINE
8
Black
10
150.073
20
-49.857
11
150.124
21
-49.848
0
LINE
8
Black
10
150.124
20
-49.848
11
150.526
21
-49.848
0
LINE
8
Black
10
150.526
20
-49.848
11
150.577
21
-49.857
0
LINE
8
Black
10
150.577
20
-49.3592
11
150.622
21
-49.3852
0
LINE
8
Black
10
150.622
20
-49.3852
11
150.655
21
-49.4251
0
LINE
8
Black
10
150.655
20
-49.4251
11
150.673
21
-49.474
0
LINE
8
Black
10
150.673
20
-49.474
11
150.673
21
-49.526
0
LINE
8
Black
10
150.673
20
-49.526
11
150.655
21
-49.5749
0
LINE
8
Black
10
150.655
20
-49.5749
11
150.622
21
-49.6148
0
LINE
8
Black
10
150.622
20
-49.6148
11
150.577
21
-49.6408
0
LINE
8
Black
10
150.577
20
-49.6408
11
150.526
21
-49.6499
0
LINE
8
Black
10
150.526
20
-49.6499
11
150.124
21
-49.6499
0
LINE
8
Black
10
150.124
20
-49.6499
11
150.073
21
-49.6408
0
LINE
8
Black
10
150.073
20
-49.6408
11
150.028
21
-49.6148
0
LINE
8
Black
10
150.028
20
-49.6148
11
149.994
21
-49.5749
0
LINE
8
Black
10
149.994
20
-49.5749
11
149.977
21
-49.526
0
LINE
8
Black
10
149.977
20
-49.526
11
149.977
21
-49.474
0
LINE
8
Black
10
149.977
20
-49.474
11
149.994
21
-49.4251
0
LINE
8
Black
10
149.994
20
-49.4251
11
150.028
21
-49.3852
0
LINE
8
Black
10
150.028
20
-49.3852
11
150.073
21
-49.3592
0
LINE
8
Black
10
150.073
20
-49.3592
11
150.124
21
-49.3501
0
LINE
8
Black
10
150.124
20
-49.3501
11
150.526
21
-49.3501
0
LINE
8
Black
10
150.526
20
-49.3501
11
150.577
21
-49.3592
0
LINE
8
Black
10
143.927
20
-49.3592
11
143.972
21
-49.3852
0
LINE
8
Black
10
143.972
20
-49.3852
11
144.006
21
-49.4251
0
LINE
8
Black
10
144.006
20
-49.4251
11
144.023
21
-49.474
0
LINE
8
Black
10
144.023
20
-49.474
11
144.023
21
-49.526
0
LINE
8
Black
10
144.023
20
-49.526
11
144.006
21
-49.5749
0
LINE
8
Black
10
144.006
20
-49.5749
11
143.972
21
-49.6148
0
LINE
8
Black
10
143.972
20
-49.6148
11
143.927
21
-49.6408
0
LINE
8
Black
10
143.927
20
-49.6408
11
143.876
21
-49.6499
0
LINE
8
Black
10
143.876
20
-49.6499
11
143.474
21
-49.6499
0
LINE
8
Black
10
143.474
20
-49.6499
11
143.423
21
-49.6408
0
LINE
8
Black
10
143.423
20
-49.6408
11
143.378
21
-49.6148
0
LINE
8
Black
10
143.378
20
-49.6148
11
143.345
21
-49.5749
0
LINE
8
Black
10
143.345
20
-49.5749
11
143.327
21
-49.526
0
LINE
8
Black
10
143.327
20
-49.526
11
143.327
21
-49.474
0
LINE
8
Black
10
143.327
20
-49.474
11
143.345
21
-49.4251
0
LINE
8
Black
10
143.345
20
-49.4251
11
143.378
21
-49.3852
0
LINE
8
Black
10
143.378
20
-49.3852
11
143.423
21
-49.3592
0
LINE
8
Black
10
143.423
20
-49.3592
11
143.474
21
-49.3501
0
LINE
8
Black
10
143.474
20
-49.3501
11
143.876
21
-49.3501
0
LINE
8
Black
10
143.876
20
-49.3501
11
143.927
21
-49.3592
0
LINE
8
Black
10
150.577
20
-48.8613
11
150.622
21
-48.8874
0
LINE
8
Black
10
150.622
20
-48.8874
11
150.655
21
-48.9272
0
LINE
8
Black
10
150.655
20
-48.9272
11
150.673
21
-48.9761
0
LINE
8
Black
10
150.673
20
-48.9761
11
150.673
21
-49.0282
0
LINE
8
Black
10
150.673
20
-49.0282
11
150.655
21
-49.0771
0
LINE
8
Black
10
150.655
20
-49.0771
11
150.622
21
-49.117
0
LINE
8
Black
10
150.622
20
-49.117
11
150.577
21
-49.143
0
LINE
8
Black
10
150.577
20
-49.143
11
150.526
21
-49.152
0
LINE
8
Black
10
150.526
20
-49.152
11
150.124
21
-49.152
0
LINE
8
Black
10
150.124
20
-49.152
11
150.073
21
-49.143
0
LINE
8
Black
10
150.073
20
-49.143
11
150.028
21
-49.117
0
LINE
8
Black
10
150.028
20
-49.117
11
149.994
21
-49.0771
0
LINE
8
Black
10
149.994
20
-49.0771
11
149.977
21
-49.0282
0
LINE
8
Black
10
149.977
20
-49.0282
11
149.977
21
-48.9761
0
LINE
8
Black
10
149.977
20
-48.9761
11
149.994
21
-48.9272
0
LINE
8
Black
10
149.994
20
-48.9272
11
150.028
21
-48.8874
0
LINE
8
Black
10
150.028
20
-48.8874
11
150.073
21
-48.8613
0
LINE
8
Black
10
150.073
20
-48.8613
11
150.124
21
-48.8523
0
LINE
8
Black
10
150.124
20
-48.8523
11
150.526
21
-48.8523
0
LINE
8
Black
10
150.526
20
-48.8523
11
150.577
21
-48.8613
0
LINE
8
Black
10
143.927
20
-48.8613
11
143.972
21
-48.8874
0
LINE
8
Black
10
143.972
20
-48.8874
11
144.006
21
-48.9272
0
LINE
8
Black
10
144.006
20
-48.9272
11
144.023
21
-48.9761
0
LINE
8
Black
10
144.023
20
-48.9761
11
144.023
21
-49.0282
0
LINE
8
Black
10
144.023
20
-49.0282
11
144.006
21
-49.0771
0
LINE
8
Black
10
144.006
20
-49.0771
11
143.972
21
-49.117
0
LINE
8
Black
10
143.972
20
-49.117
11
143.927
21
-49.143
0
LINE
8
Black
10
143.927
20
-49.143
11
143.876
21
-49.152
0
LINE
8
Black
10
143.876
20
-49.152
11
143.474
21
-49.152
0
LINE
8
Black
10
143.474
20
-49.152
11
143.423
21
-49.143
0
LINE
8
Black
10
143.423
20
-49.143
11
143.378
21
-49.117
0
LINE
8
Black
10
143.378
20
-49.117
11
143.345
21
-49.0771
0
LINE
8
Black
10
143.345
20
-49.0771
11
143.327
21
-49.0282
0
LINE
8
Black
10
143.327
20
-49.0282
11
143.327
21
-48.9761
0
LINE
8
Black
10
143.327
20
-48.9761
11
143.345
21
-48.9272
0
LINE
8
Black
10
143.345
20
-48.9272
11
143.378
21
-48.8874
0
LINE
8
Black
10
143.378
20
-48.8874
11
143.423
21
-48.8613
0
LINE
8
Black
10
143.423
20
-48.8613
11
143.474
21
-48.8523
0
LINE
8
Black
10
143.474
20
-48.8523
11
143.876
21
-48.8523
0
LINE
8
Black
10
143.876
20
-48.8523
11
143.927
21
-48.8613
0
LINE
8
Black
10
150.577
20
-48.361
11
150.622
21
-48.387
0
LINE
8
Black
10
150.622
20
-48.387
11
150.655
21
-48.4268
0
LINE
8
Black
10
150.655
20
-48.4268
11
150.673
21
-48.4758
0
LINE
8
Black
10
150.673
20
-48.4758
11
150.673
21
-48.5278
0
LINE
8
Black
10
150.673
20
-48.5278
11
150.655
21
-48.5767
0
LINE
8
Black
10
150.655
20
-48.5767
11
150.622
21
-48.6166
0
LINE
8
Black
10
150.622
20
-48.6166
11
150.577
21
-48.6426
0
LINE
8
Black
10
150.577
20
-48.6426
11
150.526
21
-48.6516
0
LINE
8
Black
10
150.526
20
-48.6516
11
150.124
21
-48.6516
0
LINE
8
Black
10
150.124
20
-48.6516
11
150.073
21
-48.6426
0
LINE
8
Black
10
150.073
20
-48.6426
11
150.028
21
-48.6166
0
LINE
8
Black
10
150.028
20
-48.6166
11
149.994
21
-48.5767
0
LINE
8
Black
10
149.994
20
-48.5767
11
149.977
21
-48.5278
0
LINE
8
Black
10
149.977
20
-48.5278
11
149.977
21
-48.4758
0
LINE
8
Black
10
149.977
20
-48.4758
11
149.994
21
-48.4268
0
LINE
8
Black
10
149.994
20
-48.4268
11
150.028
21
-48.387
0
LINE
8
Black
10
150.028
20
-48.387
11
150.073
21
-48.361
0
LINE
8
Black
10
150.073
20
-48.361
11
150.124
21
-48.3519
0
LINE
8
Black
10
150.124
20
-48.3519
11
150.526
21
-48.3519
0
LINE
8
Black
10
150.526
20
-48.3519
11
150.577
21
-48.361
0
LINE
8
Black
10
143.927
20
-48.361
11
143.972
21
-48.387
0
LINE
8
Black
10
143.972
20
-48.387
11
144.006
21
-48.4268
0
LINE
8
Black
10
144.006
20
-48.4268
11
144.023
21
-48.4758
0
LINE
8
Black
10
144.023
20
-48.4758
11
144.023
21
-48.5278
0
LINE
8
Black
10
144.023
20
-48.5278
11
144.006
21
-48.5767
0
LINE
8
Black
10
144.006
20
-48.5767
11
143.972
21
-48.6166
0
LINE
8
Black
10
143.972
20
-48.6166
11
143.927
21
-48.6426
0
LINE
8
Black
10
143.927
20
-48.6426
11
143.876
21
-48.6516
0
LINE
8
Black
10
143.876
20
-48.6516
11
143.474
21
-48.6516
0
LINE
8
Black
10
143.474
20
-48.6516
11
143.423
21
-48.6426
0
LINE
8
Black
10
143.423
20
-48.6426
11
143.378
21
-48.6166
0
LINE
8
Black
10
143.378
20
-48.6166
11
143.345
21
-48.5767
0
LINE
8
Black
10
143.345
20
-48.5767
11
143.327
21
-48.5278
0
LINE
8
Black
10
143.327
20
-48.5278
11
143.327
21
-48.4758
0
LINE
8
Black
10
143.327
20
-48.4758
11
143.345
21
-48.4268
0
LINE
8
Black
10
143.345
20
-48.4268
11
143.378
21
-48.387
0
LINE
8
Black
10
143.378
20
-48.387
11
143.423
21
-48.361
0
LINE
8
Black
10
143.423
20
-48.361
11
143.474
21
-48.3519
0
LINE
8
Black
10
143.474
20
-48.3519
11
143.876
21
-48.3519
0
LINE
8
Black
10
143.876
20
-48.3519
11
143.927
21
-48.361
0
LINE
8
Black
10
150.577
20
-47.8606
11
150.622
21
-47.8866
0
LINE
8
Black
10
150.622
20
-47.8866
11
150.655
21
-47.9265
0
LINE
8
Black
10
150.655
20
-47.9265
11
150.673
21
-47.9754
0
LINE
8
Black
10
150.673
20
-47.9754
11
150.673
21
-48.0274
0
LINE
8
Black
10
150.673
20
-48.0274
11
150.655
21
-48.0763
0
LINE
8
Black
10
150.655
20
-48.0763
11
150.622
21
-48.1162
0
LINE
8
Black
10
150.622
20
-48.1162
11
150.577
21
-48.1422
0
LINE
8
Black
10
150.577
20
-48.1422
11
150.526
21
-48.1513
0
LINE
8
Black
10
150.526
20
-48.1513
11
150.124
21
-48.1513
0
LINE
8
Black
10
150.124
20
-48.1513
11
150.073
21
-48.1422
0
LINE
8
Black
10
150.073
20
-48.1422
11
150.028
21
-48.1162
0
LINE
8
Black
10
150.028
20
-48.1162
11
149.994
21
-48.0763
0
LINE
8
Black
10
149.994
20
-48.0763
11
149.977
21
-48.0274
0
LINE
8
Black
10
149.977
20
-48.0274
11
149.977
21
-47.9754
0
LINE
8
Black
10
149.977
20
-47.9754
11
149.994
21
-47.9265
0
LINE
8
Black
10
149.994
20
-47.9265
11
150.028
21
-47.8866
0
LINE
8
Black
10
150.028
20
-47.8866
11
150.073
21
-47.8606
0
LINE
8
Black
10
150.073
20
-47.8606
11
150.124
21
-47.8515
0
LINE
8
Black
10
150.124
20
-47.8515
11
150.526
21
-47.8515
0
LINE
8
Black
10
150.526
20
-47.8515
11
150.577
21
-47.8606
0
LINE
8
Black
10
143.927
20
-47.8606
11
143.972
21
-47.8866
0
LINE
8
Black
10
143.972
20
-47.8866
11
144.006
21
-47.9265
0
LINE
8
Black
10
144.006
20
-47.9265
11
144.023
21
-47.9754
0
LINE
8
Black
10
144.023
20
-47.9754
11
144.023
21
-48.0274
0
LINE
8
Black
10
144.023
20
-48.0274
11
144.006
21
-48.0763
0
LINE
8
Black
10
144.006
20
-48.0763
11
143.972
21
-48.1162
0
LINE
8
Black
10
143.972
20
-48.1162
11
143.927
21
-48.1422
0
LINE
8
Black
10
143.927
20
-48.1422
11
143.876
21
-48.1513
0
LINE
8
Black
10
143.876
20
-48.1513
11
143.474
21
-48.1513
0
LINE
8
Black
10
143.474
20
-48.1513
11
143.423
21
-48.1422
0
LINE
8
Black
10
143.423
20
-48.1422
11
143.378
21
-48.1162
0
LINE
8
Black
10
143.378
20
-48.1162
11
143.345
21
-48.0763
0
LINE
8
Black
10
143.345
20
-48.0763
11
143.327
21
-48.0274
0
LINE
8
Black
10
143.327
20
-48.0274
11
143.327
21
-47.9754
0
LINE
8
Black
10
143.327
20
-47.9754
11
143.345
21
-47.9265
0
LINE
8
Black
10
143.345
20
-47.9265
11
143.378
21
-47.8866
0
LINE
8
Black
10
143.378
20
-47.8866
11
143.423
21
-47.8606
0
LINE
8
Black
10
143.423
20
-47.8606
11
143.474
21
-47.8515
0
LINE
8
Black
10
143.474
20
-47.8515
11
143.876
21
-47.8515
0
LINE
8
Black
10
143.876
20
-47.8515
11
143.927
21
-47.8606
0
LINE
8
Black
10
150.577
20
-47.3602
11
150.622
21
-47.3862
0
LINE
8
Black
10
150.622
20
-47.3862
11
150.655
21
-47.4261
0
LINE
8
Black
10
150.655
20
-47.4261
11
150.673
21
-47.475
0
LINE
8
Black
10
150.673
20
-47.475
11
150.673
21
-47.527
0
LINE
8
Black
10
150.673
20
-47.527
11
150.655
21
-47.5759
0
LINE
8
Black
10
150.655
20
-47.5759
11
150.622
21
-47.6158
0
LINE
8
Black
10
150.622
20
-47.6158
11
150.577
21
-47.6418
0
LINE
8
Black
10
150.577
20
-47.6418
11
150.526
21
-47.6509
0
LINE
8
Black
10
150.526
20
-47.6509
11
150.124
21
-47.6509
0
LINE
8
Black
10
150.124
20
-47.6509
11
150.073
21
-47.6418
0
LINE
8
Black
10
150.073
20
-47.6418
11
150.028
21
-47.6158
0
LINE
8
Black
10
150.028
20
-47.6158
11
149.994
21
-47.5759
0
LINE
8
Black
10
149.994
20
-47.5759
11
149.977
21
-47.527
0
LINE
8
Black
10
149.977
20
-47.527
11
149.977
21
-47.475
0
LINE
8
Black
10
149.977
20
-47.475
11
149.994
21
-47.4261
0
LINE
8
Black
10
149.994
20
-47.4261
11
150.028
21
-47.3862
0
LINE
8
Black
10
150.028
20
-47.3862
11
150.073
21
-47.3602
0
LINE
8
Black
10
150.073
20
-47.3602
11
150.124
21
-47.3512
0
LINE
8
Black
10
150.124
20
-47.3512
11
150.526
21
-47.3512
0
LINE
8
Black
10
150.526
20
-47.3512
11
150.577
21
-47.3602
0
LINE
8
Black
10
143.927
20
-47.3602
11
143.972
21
-47.3862
0
LINE
8
Black
10
143.972
20
-47.3862
11
144.006
21
-47.4261
0
LINE
8
Black
10
144.006
20
-47.4261
11
144.023
21
-47.475
0
LINE
8
Black
10
144.023
20
-47.475
11
144.023
21
-47.527
0
LINE
8
Black
10
144.023
20
-47.527
11
144.006
21
-47.5759
0
LINE
8
Black
10
144.006
20
-47.5759
11
143.972
21
-47.6158
0
LINE
8
Black
10
143.972
20
-47.6158
11
143.927
21
-47.6418
0
LINE
8
Black
10
143.927
20
-47.6418
11
143.876
21
-47.6509
0
LINE
8
Black
10
143.876
20
-47.6509
11
143.474
21
-47.6509
0
LINE
8
Black
10
143.474
20
-47.6509
11
143.423
21
-47.6418
0
LINE
8
Black
10
143.423
20
-47.6418
11
143.378
21
-47.6158
0
LINE
8
Black
10
143.378
20
-47.6158
11
143.345
21
-47.5759
0
LINE
8
Black
10
143.345
20
-47.5759
11
143.327
21
-47.527
0
LINE
8
Black
10
143.327
20
-47.527
11
143.327
21
-47.475
0
LINE
8
Black
10
143.327
20
-47.475
11
143.345
21
-47.4261
0
LINE
8
Black
10
143.345
20
-47.4261
11
143.378
21
-47.3862
0
LINE
8
Black
10
143.378
20
-47.3862
11
143.423
21
-47.3602
0
LINE
8
Black
10
143.423
20
-47.3602
11
143.474
21
-47.3512
0
LINE
8
Black
10
143.474
20
-47.3512
11
143.876
21
-47.3512
0
LINE
8
Black
10
143.876
20
-47.3512
11
143.927
21
-47.3602
0
LINE
8
Black
10
143.927
20
-46.8598
11
143.972
21
-46.8858
0
LINE
8
Black
10
143.972
20
-46.8858
11
144.006
21
-46.9257
0
LINE
8
Black
10
144.006
20
-46.9257
11
144.023
21
-46.9746
0
LINE
8
Black
10
144.023
20
-46.9746
11
144.023
21
-47.0267
0
LINE
8
Black
10
144.023
20
-47.0267
11
144.006
21
-47.0756
0
LINE
8
Black
10
144.006
20
-47.0756
11
143.972
21
-47.1154
0
LINE
8
Black
10
143.972
20
-47.1154
11
143.927
21
-47.1415
0
LINE
8
Black
10
143.927
20
-47.1415
11
143.876
21
-47.1505
0
LINE
8
Black
10
143.876
20
-47.1505
11
143.474
21
-47.1505
0
LINE
8
Black
10
143.474
20
-47.1505
11
143.423
21
-47.1415
0
LINE
8
Black
10
143.423
20
-47.1415
11
143.378
21
-47.1154
0
LINE
8
Black
10
143.378
20
-47.1154
11
143.345
21
-47.0756
0
LINE
8
Black
10
143.345
20
-47.0756
11
143.327
21
-47.0267
0
LINE
8
Black
10
143.327
20
-47.0267
11
143.327
21
-46.9746
0
LINE
8
Black
10
143.327
20
-46.9746
11
143.345
21
-46.9257
0
LINE
8
Black
10
143.345
20
-46.9257
11
143.378
21
-46.8858
0
LINE
8
Black
10
143.378
20
-46.8858
11
143.423
21
-46.8598
0
LINE
8
Black
10
143.423
20
-46.8598
11
143.474
21
-46.8508
0
LINE
8
Black
10
143.474
20
-46.8508
11
143.876
21
-46.8508
0
LINE
8
Black
10
143.876
20
-46.8508
11
143.927
21
-46.8598
0
LINE
8
Black
10
150.577
20
-46.8598
11
150.622
21
-46.8858
0
LINE
8
Black
10
150.622
20
-46.8858
11
150.655
21
-46.9257
0
LINE
8
Black
10
150.655
20
-46.9257
11
150.673
21
-46.9746
0
LINE
8
Black
10
150.673
20
-46.9746
11
150.673
21
-47.0267
0
LINE
8
Black
10
150.673
20
-47.0267
11
150.655
21
-47.0756
0
LINE
8
Black
10
150.655
20
-47.0756
11
150.622
21
-47.1154
0
LINE
8
Black
10
150.622
20
-47.1154
11
150.577
21
-47.1415
0
LINE
8
Black
10
150.577
20
-47.1415
11
150.526
21
-47.1505
0
LINE
8
Black
10
150.526
20
-47.1505
11
150.124
21
-47.1505
0
LINE
8
Black
10
150.124
20
-47.1505
11
150.073
21
-47.1415
0
LINE
8
Black
10
150.073
20
-47.1415
11
150.028
21
-47.1154
0
LINE
8
Black
10
150.028
20
-47.1154
11
149.994
21
-47.0756
0
LINE
8
Black
10
149.994
20
-47.0756
11
149.977
21
-47.0267
0
LINE
8
Black
10
149.977
20
-47.0267
11
149.977
21
-46.9746
0
LINE
8
Black
10
149.977
20
-46.9746
11
149.994
21
-46.9257
0
LINE
8
Black
10
149.994
20
-46.9257
11
150.028
21
-46.8858
0
LINE
8
Black
10
150.028
20
-46.8858
11
150.073
21
-46.8598
0
LINE
8
Black
10
150.073
20
-46.8598
11
150.124
21
-46.8508
0
LINE
8
Black
10
150.124
20
-46.8508
11
150.526
21
-46.8508
0
LINE
8
Black
10
150.526
20
-46.8508
11
150.577
21
-46.8598
0
LINE
8
Black
10
145.576
20
-45.8446
11
145.616
21
-45.8781
0
LINE
8
Black
10
145.616
20
-45.8781
11
145.642
21
-45.9232
0
LINE
8
Black
10
145.642
20
-45.9232
11
145.651
21
-45.9744
0
LINE
8
Black
10
145.651
20
-45.9744
11
145.651
21
-46.3759
0
LINE
8
Black
10
145.651
20
-46.3759
11
145.642
21
-46.4271
0
LINE
8
Black
10
145.642
20
-46.4271
11
145.616
21
-46.4722
0
LINE
8
Black
10
145.616
20
-46.4722
11
145.576
21
-46.5056
0
LINE
8
Black
10
145.576
20
-46.5056
11
145.527
21
-46.5234
0
LINE
8
Black
10
145.527
20
-46.5234
11
145.475
21
-46.5234
0
LINE
8
Black
10
145.475
20
-46.5234
11
145.426
21
-46.5056
0
LINE
8
Black
10
145.426
20
-46.5056
11
145.387
21
-46.4722
0
LINE
8
Black
10
145.387
20
-46.4722
11
145.361
21
-46.4271
0
LINE
8
Black
10
145.361
20
-46.4271
11
145.352
21
-46.3759
0
LINE
8
Black
10
145.352
20
-46.3759
11
145.352
21
-45.9744
0
LINE
8
Black
10
145.352
20
-45.9744
11
145.361
21
-45.9232
0
LINE
8
Black
10
145.361
20
-45.9232
11
145.387
21
-45.8781
0
LINE
8
Black
10
145.387
20
-45.8781
11
145.426
21
-45.8446
0
LINE
8
Black
10
145.426
20
-45.8446
11
145.475
21
-45.8268
0
LINE
8
Black
10
145.475
20
-45.8268
11
145.527
21
-45.8268
0
LINE
8
Black
10
145.527
20
-45.8268
11
145.576
21
-45.8446
0
LINE
8
Black
10
149.574
20
-45.8446
11
149.614
21
-45.8781
0
LINE
8
Black
10
149.614
20
-45.8781
11
149.64
21
-45.9232
0
LINE
8
Black
10
149.64
20
-45.9232
11
149.649
21
-45.9744
0
LINE
8
Black
10
149.649
20
-45.9744
11
149.649
21
-46.3759
0
LINE
8
Black
10
149.649
20
-46.3759
11
149.64
21
-46.4271
0
LINE
8
Black
10
149.64
20
-46.4271
11
149.614
21
-46.4722
0
LINE
8
Black
10
149.614
20
-46.4722
11
149.574
21
-46.5056
0
LINE
8
Black
10
149.574
20
-46.5056
11
149.525
21
-46.5234
0
LINE
8
Black
10
149.525
20
-46.5234
11
149.473
21
-46.5234
0
LINE
8
Black
10
149.473
20
-46.5234
11
149.424
21
-46.5056
0
LINE
8
Black
10
149.424
20
-46.5056
11
149.385
21
-46.4722
0
LINE
8
Black
10
149.385
20
-46.4722
11
149.359
21
-46.4271
0
LINE
8
Black
10
149.359
20
-46.4271
11
149.35
21
-46.3759
0
LINE
8
Black
10
149.35
20
-46.3759
11
149.35
21
-45.9744
0
LINE
8
Black
10
149.35
20
-45.9744
11
149.359
21
-45.9232
0
LINE
8
Black
10
149.359
20
-45.9232
11
149.385
21
-45.8781
0
LINE
8
Black
10
149.385
20
-45.8781
11
149.424
21
-45.8446
0
LINE
8
Black
10
149.424
20
-45.8446
11
149.473
21
-45.8268
0
LINE
8
Black
10
149.473
20
-45.8268
11
149.525
21
-45.8268
0
LINE
8
Black
10
149.525
20
-45.8268
11
149.574
21
-45.8446
0
LINE
8
Black
10
149.074
20
-45.8446
11
149.114
21
-45.8781
0
LINE
8
Black
10
149.114
20
-45.8781
11
149.14
21
-45.9232
0
LINE
8
Black
10
149.14
20
-45.9232
11
149.149
21
-45.9744
0
LINE
8
Black
10
149.149
20
-45.9744
11
149.149
21
-46.3759
0
LINE
8
Black
10
149.149
20
-46.3759
11
149.14
21
-46.4271
0
LINE
8
Black
10
149.14
20
-46.4271
11
149.114
21
-46.4722
0
LINE
8
Black
10
149.114
20
-46.4722
11
149.074
21
-46.5056
0
LINE
8
Black
10
149.074
20
-46.5056
11
149.025
21
-46.5234
0
LINE
8
Black
10
149.025
20
-46.5234
11
148.973
21
-46.5234
0
LINE
8
Black
10
148.973
20
-46.5234
11
148.924
21
-46.5056
0
LINE
8
Black
10
148.924
20
-46.5056
11
148.884
21
-46.4722
0
LINE
8
Black
10
148.884
20
-46.4722
11
148.858
21
-46.4271
0
LINE
8
Black
10
148.858
20
-46.4271
11
148.849
21
-46.3759
0
LINE
8
Black
10
148.849
20
-46.3759
11
148.849
21
-45.9744
0
LINE
8
Black
10
148.849
20
-45.9744
11
148.858
21
-45.9232
0
LINE
8
Black
10
148.858
20
-45.9232
11
148.884
21
-45.8781
0
LINE
8
Black
10
148.884
20
-45.8781
11
148.924
21
-45.8446
0
LINE
8
Black
10
148.924
20
-45.8446
11
148.973
21
-45.8268
0
LINE
8
Black
10
148.973
20
-45.8268
11
149.025
21
-45.8268
0
LINE
8
Black
10
149.025
20
-45.8268
11
149.074
21
-45.8446
0
LINE
8
Black
10
148.574
20
-45.8446
11
148.613
21
-45.8781
0
LINE
8
Black
10
148.613
20
-45.8781
11
148.639
21
-45.9232
0
LINE
8
Black
10
148.639
20
-45.9232
11
148.648
21
-45.9744
0
LINE
8
Black
10
148.648
20
-45.9744
11
148.648
21
-46.3759
0
LINE
8
Black
10
148.648
20
-46.3759
11
148.639
21
-46.4271
0
LINE
8
Black
10
148.639
20
-46.4271
11
148.613
21
-46.4722
0
LINE
8
Black
10
148.613
20
-46.4722
11
148.574
21
-46.5056
0
LINE
8
Black
10
148.574
20
-46.5056
11
148.525
21
-46.5234
0
LINE
8
Black
10
148.525
20
-46.5234
11
148.473
21
-46.5234
0
LINE
8
Black
10
148.473
20
-46.5234
11
148.424
21
-46.5056
0
LINE
8
Black
10
148.424
20
-46.5056
11
148.384
21
-46.4722
0
LINE
8
Black
10
148.384
20
-46.4722
11
148.358
21
-46.4271
0
LINE
8
Black
10
148.358
20
-46.4271
11
148.349
21
-46.3759
0
LINE
8
Black
10
148.349
20
-46.3759
11
148.349
21
-45.9744
0
LINE
8
Black
10
148.349
20
-45.9744
11
148.358
21
-45.9232
0
LINE
8
Black
10
148.358
20
-45.9232
11
148.384
21
-45.8781
0
LINE
8
Black
10
148.384
20
-45.8781
11
148.424
21
-45.8446
0
LINE
8
Black
10
148.424
20
-45.8446
11
148.473
21
-45.8268
0
LINE
8
Black
10
148.473
20
-45.8268
11
148.525
21
-45.8268
0
LINE
8
Black
10
148.525
20
-45.8268
11
148.574
21
-45.8446
0
LINE
8
Black
10
148.073
20
-45.8446
11
148.113
21
-45.8781
0
LINE
8
Black
10
148.113
20
-45.8781
11
148.139
21
-45.9232
0
LINE
8
Black
10
148.139
20
-45.9232
11
148.148
21
-45.9744
0
LINE
8
Black
10
148.148
20
-45.9744
11
148.148
21
-46.3759
0
LINE
8
Black
10
148.148
20
-46.3759
11
148.139
21
-46.4271
0
LINE
8
Black
10
148.139
20
-46.4271
11
148.113
21
-46.4722
0
LINE
8
Black
10
148.113
20
-46.4722
11
148.073
21
-46.5056
0
LINE
8
Black
10
148.073
20
-46.5056
11
148.024
21
-46.5234
0
LINE
8
Black
10
148.024
20
-46.5234
11
147.972
21
-46.5234
0
LINE
8
Black
10
147.972
20
-46.5234
11
147.923
21
-46.5056
0
LINE
8
Black
10
147.923
20
-46.5056
11
147.883
21
-46.4722
0
LINE
8
Black
10
147.883
20
-46.4722
11
147.857
21
-46.4271
0
LINE
8
Black
10
147.857
20
-46.4271
11
147.848
21
-46.3759
0
LINE
8
Black
10
147.848
20
-46.3759
11
147.848
21
-45.9744
0
LINE
8
Black
10
147.848
20
-45.9744
11
147.857
21
-45.9232
0
LINE
8
Black
10
147.857
20
-45.9232
11
147.883
21
-45.8781
0
LINE
8
Black
10
147.883
20
-45.8781
11
147.923
21
-45.8446
0
LINE
8
Black
10
147.923
20
-45.8446
11
147.972
21
-45.8268
0
LINE
8
Black
10
147.972
20
-45.8268
11
148.024
21
-45.8268
0
LINE
8
Black
10
148.024
20
-45.8268
11
148.073
21
-45.8446
0
LINE
8
Black
10
147.573
20
-45.8446
11
147.613
21
-45.8781
0
LINE
8
Black
10
147.613
20
-45.8781
11
147.639
21
-45.9232
0
LINE
8
Black
10
147.639
20
-45.9232
11
147.648
21
-45.9744
0
LINE
8
Black
10
147.648
20
-45.9744
11
147.648
21
-46.3759
0
LINE
8
Black
10
147.648
20
-46.3759
11
147.639
21
-46.4271
0
LINE
8
Black
10
147.639
20
-46.4271
11
147.613
21
-46.4722
0
LINE
8
Black
10
147.613
20
-46.4722
11
147.573
21
-46.5056
0
LINE
8
Black
10
147.573
20
-46.5056
11
147.524
21
-46.5234
0
LINE
8
Black
10
147.524
20
-46.5234
11
147.472
21
-46.5234
0
LINE
8
Black
10
147.472
20
-46.5234
11
147.423
21
-46.5056
0
LINE
8
Black
10
147.423
20
-46.5056
11
147.383
21
-46.4722
0
LINE
8
Black
10
147.383
20
-46.4722
11
147.357
21
-46.4271
0
LINE
8
Black
10
147.357
20
-46.4271
11
147.348
21
-46.3759
0
LINE
8
Black
10
147.348
20
-46.3759
11
147.348
21
-45.9744
0
LINE
8
Black
10
147.348
20
-45.9744
11
147.357
21
-45.9232
0
LINE
8
Black
10
147.357
20
-45.9232
11
147.383
21
-45.8781
0
LINE
8
Black
10
147.383
20
-45.8781
11
147.423
21
-45.8446
0
LINE
8
Black
10
147.423
20
-45.8446
11
147.472
21
-45.8268
0
LINE
8
Black
10
147.472
20
-45.8268
11
147.524
21
-45.8268
0
LINE
8
Black
10
147.524
20
-45.8268
11
147.573
21
-45.8446
0
LINE
8
Black
10
147.075
20
-45.8446
11
147.115
21
-45.8781
0
LINE
8
Black
10
147.115
20
-45.8781
11
147.141
21
-45.9232
0
LINE
8
Black
10
147.141
20
-45.9232
11
147.15
21
-45.9744
0
LINE
8
Black
10
147.15
20
-45.9744
11
147.15
21
-46.3759
0
LINE
8
Black
10
147.15
20
-46.3759
11
147.141
21
-46.4271
0
LINE
8
Black
10
147.141
20
-46.4271
11
147.115
21
-46.4722
0
LINE
8
Black
10
147.115
20
-46.4722
11
147.075
21
-46.5056
0
LINE
8
Black
10
147.075
20
-46.5056
11
147.026
21
-46.5234
0
LINE
8
Black
10
147.026
20
-46.5234
11
146.974
21
-46.5234
0
LINE
8
Black
10
146.974
20
-46.5234
11
146.925
21
-46.5056
0
LINE
8
Black
10
146.925
20
-46.5056
11
146.885
21
-46.4722
0
LINE
8
Black
10
146.885
20
-46.4722
11
146.859
21
-46.4271
0
LINE
8
Black
10
146.859
20
-46.4271
11
146.85
21
-46.3759
0
LINE
8
Black
10
146.85
20
-46.3759
11
146.85
21
-45.9744
0
LINE
8
Black
10
146.85
20
-45.9744
11
146.859
21
-45.9232
0
LINE
8
Black
10
146.859
20
-45.9232
11
146.885
21
-45.8781
0
LINE
8
Black
10
146.885
20
-45.8781
11
146.925
21
-45.8446
0
LINE
8
Black
10
146.925
20
-45.8446
11
146.974
21
-45.8268
0
LINE
8
Black
10
146.974
20
-45.8268
11
147.026
21
-45.8268
0
LINE
8
Black
10
147.026
20
-45.8268
11
147.075
21
-45.8446
0
LINE
8
Black
10
146.577
20
-45.8446
11
146.617
21
-45.8781
0
LINE
8
Black
10
146.617
20
-45.8781
11
146.643
21
-45.9232
0
LINE
8
Black
10
146.643
20
-45.9232
11
146.652
21
-45.9744
0
LINE
8
Black
10
146.652
20
-45.9744
11
146.652
21
-46.3759
0
LINE
8
Black
10
146.652
20
-46.3759
11
146.643
21
-46.4271
0
LINE
8
Black
10
146.643
20
-46.4271
11
146.617
21
-46.4722
0
LINE
8
Black
10
146.617
20
-46.4722
11
146.577
21
-46.5056
0
LINE
8
Black
10
146.577
20
-46.5056
11
146.528
21
-46.5234
0
LINE
8
Black
10
146.528
20
-46.5234
11
146.476
21
-46.5234
0
LINE
8
Black
10
146.476
20
-46.5234
11
146.427
21
-46.5056
0
LINE
8
Black
10
146.427
20
-46.5056
11
146.387
21
-46.4722
0
LINE
8
Black
10
146.387
20
-46.4722
11
146.361
21
-46.4271
0
LINE
8
Black
10
146.361
20
-46.4271
11
146.352
21
-46.3759
0
LINE
8
Black
10
146.352
20
-46.3759
11
146.352
21
-45.9744
0
LINE
8
Black
10
146.352
20
-45.9744
11
146.361
21
-45.9232
0
LINE
8
Black
10
146.361
20
-45.9232
11
146.387
21
-45.8781
0
LINE
8
Black
10
146.387
20
-45.8781
11
146.427
21
-45.8446
0
LINE
8
Black
10
146.427
20
-45.8446
11
146.476
21
-45.8268
0
LINE
8
Black
10
146.476
20
-45.8268
11
146.528
21
-45.8268
0
LINE
8
Black
10
146.528
20
-45.8268
11
146.577
21
-45.8446
0
LINE
8
Black
10
146.077
20
-45.8446
11
146.117
21
-45.8781
0
LINE
8
Black
10
146.117
20
-45.8781
11
146.143
21
-45.9232
0
LINE
8
Black
10
146.143
20
-45.9232
11
146.152
21
-45.9744
0
LINE
8
Black
10
146.152
20
-45.9744
11
146.152
21
-46.3759
0
LINE
8
Black
10
146.152
20
-46.3759
11
146.143
21
-46.4271
0
LINE
8
Black
10
146.143
20
-46.4271
11
146.117
21
-46.4722
0
LINE
8
Black
10
146.117
20
-46.4722
11
146.077
21
-46.5056
0
LINE
8
Black
10
146.077
20
-46.5056
11
146.028
21
-46.5234
0
LINE
8
Black
10
146.028
20
-46.5234
11
145.976
21
-46.5234
0
LINE
8
Black
10
145.976
20
-46.5234
11
145.927
21
-46.5056
0
LINE
8
Black
10
145.927
20
-46.5056
11
145.887
21
-46.4722
0
LINE
8
Black
10
145.887
20
-46.4722
11
145.861
21
-46.4271
0
LINE
8
Black
10
145.861
20
-46.4271
11
145.852
21
-46.3759
0
LINE
8
Black
10
145.852
20
-46.3759
11
145.852
21
-45.9744
0
LINE
8
Black
10
145.852
20
-45.9744
11
145.861
21
-45.9232
0
LINE
8
Black
10
145.861
20
-45.9232
11
145.887
21
-45.8781
0
LINE
8
Black
10
145.887
20
-45.8781
11
145.927
21
-45.8446
0
LINE
8
Black
10
145.927
20
-45.8446
11
145.976
21
-45.8268
0
LINE
8
Black
10
145.976
20
-45.8268
11
146.028
21
-45.8268
0
LINE
8
Black
10
146.028
20
-45.8268
11
146.077
21
-45.8446
0
LINE
8
Black
10
145.076
20
-45.8446
11
145.116
21
-45.8781
0
LINE
8
Black
10
145.116
20
-45.8781
11
145.142
21
-45.9232
0
LINE
8
Black
10
145.142
20
-45.9232
11
145.151
21
-45.9744
0
LINE
8
Black
10
145.151
20
-45.9744
11
145.151
21
-46.3759
0
LINE
8
Black
10
145.151
20
-46.3759
11
145.142
21
-46.4271
0
LINE
8
Black
10
145.142
20
-46.4271
11
145.116
21
-46.4722
0
LINE
8
Black
10
145.116
20
-46.4722
11
145.076
21
-46.5056
0
LINE
8
Black
10
145.076
20
-46.5056
11
145.027
21
-46.5234
0
LINE
8
Black
10
145.027
20
-46.5234
11
144.975
21
-46.5234
0
LINE
8
Black
10
144.975
20
-46.5234
11
144.926
21
-46.5056
0
LINE
8
Black
10
144.926
20
-46.5056
11
144.886
21
-46.4722
0
LINE
8
Black
10
144.886
20
-46.4722
11
144.86
21
-46.4271
0
LINE
8
Black
10
144.86
20
-46.4271
11
144.851
21
-46.3759
0
LINE
8
Black
10
144.851
20
-46.3759
11
144.851
21
-45.9744
0
LINE
8
Black
10
144.851
20
-45.9744
11
144.86
21
-45.9232
0
LINE
8
Black
10
144.86
20
-45.9232
11
144.886
21
-45.8781
0
LINE
8
Black
10
144.886
20
-45.8781
11
144.926
21
-45.8446
0
LINE
8
Black
10
144.926
20
-45.8446
11
144.975
21
-45.8268
0
LINE
8
Black
10
144.975
20
-45.8268
11
145.027
21
-45.8268
0
LINE
8
Black
10
145.027
20
-45.8268
11
145.076
21
-45.8446
0
LINE
8
Black
10
144.576
20
-45.8446
11
144.615
21
-45.8781
0
LINE
8
Black
10
144.615
20
-45.8781
11
144.641
21
-45.9232
0
LINE
8
Black
10
144.641
20
-45.9232
11
144.65
21
-45.9744
0
LINE
8
Black
10
144.65
20
-45.9744
11
144.65
21
-46.3759
0
LINE
8
Black
10
144.65
20
-46.3759
11
144.641
21
-46.4271
0
LINE
8
Black
10
144.641
20
-46.4271
11
144.615
21
-46.4722
0
LINE
8
Black
10
144.615
20
-46.4722
11
144.576
21
-46.5056
0
LINE
8
Black
10
144.576
20
-46.5056
11
144.527
21
-46.5234
0
LINE
8
Black
10
144.527
20
-46.5234
11
144.475
21
-46.5234
0
LINE
8
Black
10
144.475
20
-46.5234
11
144.426
21
-46.5056
0
LINE
8
Black
10
144.426
20
-46.5056
11
144.386
21
-46.4722
0
LINE
8
Black
10
144.386
20
-46.4722
11
144.36
21
-46.4271
0
LINE
8
Black
10
144.36
20
-46.4271
11
144.351
21
-46.3759
0
LINE
8
Black
10
144.351
20
-46.3759
11
144.351
21
-45.9744
0
LINE
8
Black
10
144.351
20
-45.9744
11
144.36
21
-45.9232
0
LINE
8
Black
10
144.36
20
-45.9232
11
144.386
21
-45.8781
0
LINE
8
Black
10
144.386
20
-45.8781
11
144.426
21
-45.8446
0
LINE
8
Black
10
144.426
20
-45.8446
11
144.475
21
-45.8268
0
LINE
8
Black
10
144.475
20
-45.8268
11
144.527
21
-45.8268
0
LINE
8
Black
10
144.527
20
-45.8268
11
144.576
21
-45.8446
0
LINE
8
Black
10
154.4
20
-45.15
11
152.9
21
-45.15
0
LINE
8
Black
10
152.9
20
-45.15
11
152.9
21
-43.85
0
LINE
8
Black
10
152.9
20
-43.85
11
154.4
21
-43.85
0
LINE
8
Black
10
154.4
20
-43.85
11
154.4
21
-45.15
0
LINE
8
Black
10
157.1
20
-45.15
11
155.6
21
-45.15
0
LINE
8
Black
10
155.6
20
-45.15
11
155.6
21
-43.85
0
LINE
8
Black
10
155.6
20
-43.85
11
157.1
21
-43.85
0
LINE
8
Black
10
157.1
20
-43.85
11
157.1
21
-45.15
0
LINE
8
Black
10
150.65
20
-28.1
11
149.35
21
-28.1
0
LINE
8
Black
10
149.35
20
-28.1
11
149.35
21
-26.6
0
LINE
8
Black
10
149.35
20
-26.6
11
150.65
21
-26.6
0
LINE
8
Black
10
150.65
20
-26.6
11
150.65
21
-28.1
0
LINE
8
Black
10
152.65
20
-28.1
11
151.35
21
-28.1
0
LINE
8
Black
10
151.35
20
-28.1
11
151.35
21
-26.6
0
LINE
8
Black
10
151.35
20
-26.6
11
152.65
21
-26.6
0
LINE
8
Black
10
152.65
20
-26.6
11
152.65
21
-28.1
0
LINE
8
Black
10
134.5
20
-27.625
11
133
21
-27.625
0
LINE
8
Black
10
133
20
-27.625
11
133
21
-26.375
0
LINE
8
Black
10
133
20
-26.375
11
134.5
21
-26.375
0
LINE
8
Black
10
134.5
20
-26.375
11
134.5
21
-27.625
0
LINE
8
Black
10
132
20
-27.625
11
130.5
21
-27.625
0
LINE
8
Black
10
130.5
20
-27.625
11
130.5
21
-26.375
0
LINE
8
Black
10
130.5
20
-26.375
11
132
21
-26.375
0
LINE
8
Black
10
132
20
-26.375
11
132
21
-27.625
0
LINE
8
Black
10
139.5
20
-27.625
11
138
21
-27.625
0
LINE
8
Black
10
138
20
-27.625
11
138
21
-26.375
0
LINE
8
Black
10
138
20
-26.375
11
139.5
21
-26.375
0
LINE
8
Black
10
139.5
20
-26.375
11
139.5
21
-27.625
0
LINE
8
Black
10
142
20
-27.625
11
140.5
21
-27.625
0
LINE
8
Black
10
140.5
20
-27.625
11
140.5
21
-26.375
0
LINE
8
Black
10
140.5
20
-26.375
11
142
21
-26.375
0
LINE
8
Black
10
142
20
-26.375
11
142
21
-27.625
0
LINE
8
Black
10
139.5
20
-25.625
11
138
21
-25.625
0
LINE
8
Black
10
138
20
-25.625
11
138
21
-24.375
0
LINE
8
Black
10
138
20
-24.375
11
139.5
21
-24.375
0
LINE
8
Black
10
139.5
20
-24.375
11
139.5
21
-25.625
0
LINE
8
Black
10
142
20
-25.625
11
140.5
21
-25.625
0
LINE
8
Black
10
140.5
20
-25.625
11
140.5
21
-24.375
0
LINE
8
Black
10
140.5
20
-24.375
11
142
21
-24.375
0
LINE
8
Black
10
142
20
-24.375
11
142
21
-25.625
0
LINE
8
Black
10
132
20
-25.625
11
130.5
21
-25.625
0
LINE
8
Black
10
130.5
20
-25.625
11
130.5
21
-24.375
0
LINE
8
Black
10
130.5
20
-24.375
11
132
21
-24.375
0
LINE
8
Black
10
132
20
-24.375
11
132
21
-25.625
0
LINE
8
Black
10
134.5
20
-25.625
11
133
21
-25.625
0
LINE
8
Black
10
133
20
-25.625
11
133
21
-24.375
0
LINE
8
Black
10
133
20
-24.375
11
134.5
21
-24.375
0
LINE
8
Black
10
134.5
20
-24.375
11
134.5
21
-25.625
0
LINE
8
Black
10
150.65
20
-25.4
11
149.35
21
-25.4
0
LINE
8
Black
10
149.35
20
-25.4
11
149.35
21
-23.9
0
LINE
8
Black
10
149.35
20
-23.9
11
150.65
21
-23.9
0
LINE
8
Black
10
150.65
20
-23.9
11
150.65
21
-25.4
0
LINE
8
Black
10
152.65
20
-25.4
11
151.35
21
-25.4
0
LINE
8
Black
10
151.35
20
-25.4
11
151.35
21
-23.9
0
LINE
8
Black
10
151.35
20
-23.9
11
152.65
21
-23.9
0
LINE
8
Black
10
152.65
20
-23.9
11
152.65
21
-25.4
0
LINE
8
Black
10
144.65
20
-15.5999
11
144.15
21
-15.5999
0
LINE
8
Black
10
144.15
20
-15.5999
11
144.15
21
-13.2987
0
LINE
8
Black
10
144.15
20
-13.2987
11
144.65
21
-13.2987
0
LINE
8
Black
10
144.65
20
-13.2987
11
144.65
21
-15.5999
0
LINE
8
Black
10
145.45
20
-15.5999
11
144.95
21
-15.5999
0
LINE
8
Black
10
144.95
20
-15.5999
11
144.95
21
-13.2987
0
LINE
8
Black
10
144.95
20
-13.2987
11
145.45
21
-13.2987
0
LINE
8
Black
10
145.45
20
-13.2987
11
145.45
21
-15.5999
0
LINE
8
Black
10
146.25
20
-15.5999
11
145.75
21
-15.5999
0
LINE
8
Black
10
145.75
20
-15.5999
11
145.75
21
-13.2987
0
LINE
8
Black
10
145.75
20
-13.2987
11
146.25
21
-13.2987
0
LINE
8
Black
10
146.25
20
-13.2987
11
146.25
21
-15.5999
0
LINE
8
Black
10
147.05
20
-15.5999
11
146.55
21
-15.5999
0
LINE
8
Black
10
146.55
20
-15.5999
11
146.55
21
-13.2987
0
LINE
8
Black
10
146.55
20
-13.2987
11
147.05
21
-13.2987
0
LINE
8
Black
10
147.05
20
-13.2987
11
147.05
21
-15.5999
0
LINE
8
Black
10
147.85
20
-15.5999
11
147.35
21
-15.5999
0
LINE
8
Black
10
147.35
20
-15.5999
11
147.35
21
-13.2987
0
LINE
8
Black
10
147.35
20
-13.2987
11
147.85
21
-13.2987
0
LINE
8
Black
10
147.85
20
-13.2987
11
147.85
21
-15.5999
0
LINE
8
Black
10
142.549
20
-15.5999
11
140.55
21
-15.5999
0
LINE
8
Black
10
140.55
20
-15.5999
11
140.55
21
-13.1006
0
LINE
8
Black
10
140.55
20
-13.1006
11
142.549
21
-13.1006
0
LINE
8
Black
10
142.549
20
-13.1006
11
142.549
21
-15.5999
0
LINE
8
Black
10
151.45
20
-15.5999
11
149.451
21
-15.5999
0
LINE
8
Black
10
149.451
20
-15.5999
11
149.451
21
-13.1006
0
LINE
8
Black
10
149.451
20
-13.1006
11
151.45
21
-13.1006
0
LINE
8
Black
10
151.45
20
-13.1006
11
151.45
21
-15.5999
  0
ENDSEC
  0
EOF
