  0
SECTION
  2
HEADER
  9
$ANGBASE
  50
0.0
  9
$ANGDIR
  70
  1
  9
$MEASUREMENT
  70
0
  0
ENDSEC
  0
SECTION
  2
TABLES
  0
TABLE
  2
LTYPE
  70
1
  0
LTYPE
  2
CONTINUOUS
  70
0
  3
Solid line
  72
65
  73
0
  40
0.0
  0
ENDTAB
  0
TABLE
  2
STYLE
  70
4
  0
STYLE
  2
KICAD
  70
0
  40
0
  41
1
  42
1
  50
0
  71
0
  3
isocp.shx
  0
STYLE
  2
KICADB
  70
0
  40
0
  41
1
  42
1
  50
0
  71
0
  3
isocp.shx
  0
STYLE
  2
KICADI
  70
0
  40
0
  41
1
  42
1
  50
15
  71
0
  3
isocp.shx
  0
STYLE
  2
KICADBI
  70
0
  40
0
  41
1
  42
1
  50
15
  71
0
  3
isocp.shx
  0
ENDTAB
  0
TABLE
  2
LAYER
  70
30
  0
LAYER
  2
BLACK
  70
0
  62
7
  6
CONTINUOUS
  0
LAYER
  2
GRAY1
  70
0
  62
251
  6
CONTINUOUS
  0
LAYER
  2
GRAY2
  70
0
  62
8
  6
CONTINUOUS
  0
LAYER
  2
GRAY3
  70
0
  62
9
  6
CONTINUOUS
  0
LAYER
  2
WHITE
  70
0
  62
7
  6
CONTINUOUS
  0
LAYER
  2
LYELLOW
  70
0
  62
51
  6
CONTINUOUS
  0
LAYER
  2
BLUE1
  70
0
  62
178
  6
CONTINUOUS
  0
LAYER
  2
GREEN1
  70
0
  62
98
  6
CONTINUOUS
  0
LAYER
  2
CYAN1
  70
0
  62
138
  6
CONTINUOUS
  0
LAYER
  2
RED1
  70
0
  62
18
  6
CONTINUOUS
  0
LAYER
  2
MAGENTA1
  70
0
  62
228
  6
CONTINUOUS
  0
LAYER
  2
BROWN1
  70
0
  62
58
  6
CONTINUOUS
  0
LAYER
  2
BLUE2
  70
0
  62
5
  6
CONTINUOUS
  0
LAYER
  2
GREEN2
  70
0
  62
3
  6
CONTINUOUS
  0
LAYER
  2
CYAN2
  70
0
  62
4
  6
CONTINUOUS
  0
LAYER
  2
RED2
  70
0
  62
1
  6
CONTINUOUS
  0
LAYER
  2
MAGENTA2
  70
0
  62
6
  6
CONTINUOUS
  0
LAYER
  2
BROWN2
  70
0
  62
54
  6
CONTINUOUS
  0
LAYER
  2
BLUE3
  70
0
  62
171
  6
CONTINUOUS
  0
LAYER
  2
GREEN3
  70
0
  62
91
  6
CONTINUOUS
  0
LAYER
  2
CYAN3
  70
0
  62
131
  6
CONTINUOUS
  0
LAYER
  2
RED3
  70
0
  62
11
  6
CONTINUOUS
  0
LAYER
  2
MAGENTA3
  70
0
  62
221
  6
CONTINUOUS
  0
LAYER
  2
YELLOW3
  70
0
  62
2
  6
CONTINUOUS
  0
LAYER
  2
BLUE4
  70
0
  62
5
  6
CONTINUOUS
  0
LAYER
  2
GREEN4
  70
0
  62
3
  6
CONTINUOUS
  0
LAYER
  2
CYAN4
  70
0
  62
4
  6
CONTINUOUS
  0
LAYER
  2
RED4
  70
0
  62
1
  6
CONTINUOUS
  0
LAYER
  2
MAGENTA4
  70
0
  62
6
  6
CONTINUOUS
  0
LAYER
  2
YELLOW4
  70
0
  62
2
  6
CONTINUOUS
  0
ENDTAB
  0
ENDSEC
  0
SECTION
  2
ENTITIES
0
LINE
8
Black
10
274.002
20
-99.5754
11
274.004
21
-99.5754
0
LINE
8
Black
10
274.004
20
-99.5754
11
274.006
21
-99.5761
0
LINE
8
Black
10
274.006
20
-99.5761
11
274.009
21
-99.5765
0
LINE
8
Black
10
274.009
20
-99.5765
11
274.01
21
-99.5776
0
LINE
8
Black
10
274.01
20
-99.5776
11
274.012
21
-99.5783
0
LINE
8
Black
10
274.012
20
-99.5783
11
274.014
21
-99.5798
0
LINE
8
Black
10
274.014
20
-99.5798
11
274.016
21
-99.5808
0
LINE
8
Black
10
274.016
20
-99.5808
11
274.017
21
-99.5825
0
LINE
8
Black
10
274.017
20
-99.5825
11
274.019
21
-99.5839
0
LINE
8
Black
10
274.019
20
-99.5839
11
274.02
21
-99.5858
0
LINE
8
Black
10
274.02
20
-99.5858
11
274.022
21
-99.5875
0
LINE
8
Black
10
274.022
20
-99.5875
11
274.022
21
-99.5896
0
LINE
8
Black
10
274.022
20
-99.5896
11
274.023
21
-99.5914
0
LINE
8
Black
10
274.023
20
-99.5914
11
274.024
21
-99.5936
0
LINE
8
Black
10
274.024
20
-99.5936
11
274.025
21
-99.5957
0
LINE
8
Black
10
274.025
20
-99.5957
11
274.025
21
-99.5978
0
LINE
8
Black
10
274.025
20
-99.5978
11
274.025
21
-99.6
0
LINE
8
Black
10
274.025
20
-99.6
11
274.025
21
-104.4
0
LINE
8
Black
10
274.025
20
-104.4
11
274.025
21
-104.402
0
LINE
8
Black
10
274.025
20
-104.402
11
274.025
21
-104.404
0
LINE
8
Black
10
274.025
20
-104.404
11
274.024
21
-104.406
0
LINE
8
Black
10
274.024
20
-104.406
11
274.023
21
-104.409
0
LINE
8
Black
10
274.023
20
-104.409
11
274.022
21
-104.41
0
LINE
8
Black
10
274.022
20
-104.41
11
274.022
21
-104.412
0
LINE
8
Black
10
274.022
20
-104.412
11
274.02
21
-104.414
0
LINE
8
Black
10
274.02
20
-104.414
11
274.019
21
-104.416
0
LINE
8
Black
10
274.019
20
-104.416
11
274.017
21
-104.417
0
LINE
8
Black
10
274.017
20
-104.417
11
274.016
21
-104.419
0
LINE
8
Black
10
274.016
20
-104.419
11
274.014
21
-104.42
0
LINE
8
Black
10
274.014
20
-104.42
11
274.012
21
-104.422
0
LINE
8
Black
10
274.012
20
-104.422
11
274.01
21
-104.422
0
LINE
8
Black
10
274.01
20
-104.422
11
274.009
21
-104.423
0
LINE
8
Black
10
274.009
20
-104.423
11
274.006
21
-104.424
0
LINE
8
Black
10
274.006
20
-104.424
11
274.004
21
-104.425
0
LINE
8
Black
10
274.004
20
-104.425
11
274.002
21
-104.425
0
LINE
8
Black
10
274.002
20
-104.425
11
274
21
-104.425
0
LINE
8
Black
10
274
20
-104.425
11
272
21
-104.425
0
LINE
8
Black
10
272
20
-104.425
11
271.998
21
-104.425
0
LINE
8
Black
10
271.998
20
-104.425
11
271.996
21
-104.425
0
LINE
8
Black
10
271.996
20
-104.425
11
271.994
21
-104.424
0
LINE
8
Black
10
271.994
20
-104.424
11
271.991
21
-104.423
0
LINE
8
Black
10
271.991
20
-104.423
11
271.99
21
-104.422
0
LINE
8
Black
10
271.99
20
-104.422
11
271.988
21
-104.422
0
LINE
8
Black
10
271.988
20
-104.422
11
271.986
21
-104.42
0
LINE
8
Black
10
271.986
20
-104.42
11
271.984
21
-104.419
0
LINE
8
Black
10
271.984
20
-104.419
11
271.983
21
-104.417
0
LINE
8
Black
10
271.983
20
-104.417
11
271.981
21
-104.416
0
LINE
8
Black
10
271.981
20
-104.416
11
271.98
21
-104.414
0
LINE
8
Black
10
271.98
20
-104.414
11
271.978
21
-104.412
0
LINE
8
Black
10
271.978
20
-104.412
11
271.978
21
-104.41
0
LINE
8
Black
10
271.978
20
-104.41
11
271.977
21
-104.409
0
LINE
8
Black
10
271.977
20
-104.409
11
271.976
21
-104.406
0
LINE
8
Black
10
271.976
20
-104.406
11
271.975
21
-104.404
0
LINE
8
Black
10
271.975
20
-104.404
11
271.975
21
-104.402
0
LINE
8
Black
10
271.975
20
-104.402
11
271.975
21
-104.4
0
LINE
8
Black
10
271.975
20
-104.4
11
271.975
21
-99.6
0
LINE
8
Black
10
271.975
20
-99.6
11
271.975
21
-99.5978
0
LINE
8
Black
10
271.975
20
-99.5978
11
271.975
21
-99.5957
0
LINE
8
Black
10
271.975
20
-99.5957
11
271.976
21
-99.5936
0
LINE
8
Black
10
271.976
20
-99.5936
11
271.977
21
-99.5914
0
LINE
8
Black
10
271.977
20
-99.5914
11
271.978
21
-99.5896
0
LINE
8
Black
10
271.978
20
-99.5896
11
271.978
21
-99.5875
0
LINE
8
Black
10
271.978
20
-99.5875
11
271.98
21
-99.5858
0
LINE
8
Black
10
271.98
20
-99.5858
11
271.981
21
-99.5839
0
LINE
8
Black
10
271.981
20
-99.5839
11
271.983
21
-99.5825
0
LINE
8
Black
10
271.983
20
-99.5825
11
271.984
21
-99.5808
0
LINE
8
Black
10
271.984
20
-99.5808
11
271.986
21
-99.5798
0
LINE
8
Black
10
271.986
20
-99.5798
11
271.988
21
-99.5783
0
LINE
8
Black
10
271.988
20
-99.5783
11
271.99
21
-99.5776
0
LINE
8
Black
10
271.99
20
-99.5776
11
271.991
21
-99.5765
0
LINE
8
Black
10
271.991
20
-99.5765
11
271.994
21
-99.5761
0
LINE
8
Black
10
271.994
20
-99.5761
11
271.996
21
-99.5754
0
LINE
8
Black
10
271.996
20
-99.5754
11
271.998
21
-99.5754
0
LINE
8
Black
10
271.998
20
-99.5754
11
272
21
-99.575
0
LINE
8
Black
10
272
20
-99.575
11
274
21
-99.575
0
LINE
8
Black
10
274
20
-99.575
11
274.002
21
-99.5754
0
LINE
8
Black
10
272.025
20
-99.625
11
272.025
21
-104.375
0
LINE
8
Black
10
272.025
20
-104.375
11
273.975
21
-104.375
0
LINE
8
Black
10
273.975
20
-104.375
11
273.975
21
-99.625
0
LINE
8
Black
10
273.975
20
-99.625
11
272.025
21
-99.625
0
LINE
8
Black
10
84.5022
20
-99.5754
11
84.5043
21
-99.5754
0
LINE
8
Black
10
84.5043
20
-99.5754
11
84.5064
21
-99.5761
0
LINE
8
Black
10
84.5064
20
-99.5761
11
84.5086
21
-99.5765
0
LINE
8
Black
10
84.5086
20
-99.5765
11
84.5104
21
-99.5776
0
LINE
8
Black
10
84.5104
20
-99.5776
11
84.5125
21
-99.5783
0
LINE
8
Black
10
84.5125
20
-99.5783
11
84.5142
21
-99.5798
0
LINE
8
Black
10
84.5142
20
-99.5798
11
84.5161
21
-99.5808
0
LINE
8
Black
10
84.5161
20
-99.5808
11
84.5175
21
-99.5825
0
LINE
8
Black
10
84.5175
20
-99.5825
11
84.5192
21
-99.5839
0
LINE
8
Black
10
84.5192
20
-99.5839
11
84.5202
21
-99.5858
0
LINE
8
Black
10
84.5202
20
-99.5858
11
84.5217
21
-99.5875
0
LINE
8
Black
10
84.5217
20
-99.5875
11
84.5224
21
-99.5896
0
LINE
8
Black
10
84.5224
20
-99.5896
11
84.5235
21
-99.5914
0
LINE
8
Black
10
84.5235
20
-99.5914
11
84.5239
21
-99.5936
0
LINE
8
Black
10
84.5239
20
-99.5936
11
84.5246
21
-99.5957
0
LINE
8
Black
10
84.5246
20
-99.5957
11
84.5246
21
-99.5978
0
LINE
8
Black
10
84.5246
20
-99.5978
11
84.525
21
-99.6
0
LINE
8
Black
10
84.525
20
-99.6
11
84.525
21
-104.4
0
LINE
8
Black
10
84.525
20
-104.4
11
84.5246
21
-104.402
0
LINE
8
Black
10
84.5246
20
-104.402
11
84.5246
21
-104.404
0
LINE
8
Black
10
84.5246
20
-104.404
11
84.5239
21
-104.406
0
LINE
8
Black
10
84.5239
20
-104.406
11
84.5235
21
-104.409
0
LINE
8
Black
10
84.5235
20
-104.409
11
84.5224
21
-104.41
0
LINE
8
Black
10
84.5224
20
-104.41
11
84.5217
21
-104.412
0
LINE
8
Black
10
84.5217
20
-104.412
11
84.5202
21
-104.414
0
LINE
8
Black
10
84.5202
20
-104.414
11
84.5192
21
-104.416
0
LINE
8
Black
10
84.5192
20
-104.416
11
84.5175
21
-104.417
0
LINE
8
Black
10
84.5175
20
-104.417
11
84.5161
21
-104.419
0
LINE
8
Black
10
84.5161
20
-104.419
11
84.5142
21
-104.42
0
LINE
8
Black
10
84.5142
20
-104.42
11
84.5125
21
-104.422
0
LINE
8
Black
10
84.5125
20
-104.422
11
84.5104
21
-104.422
0
LINE
8
Black
10
84.5104
20
-104.422
11
84.5086
21
-104.423
0
LINE
8
Black
10
84.5086
20
-104.423
11
84.5064
21
-104.424
0
LINE
8
Black
10
84.5064
20
-104.424
11
84.5043
21
-104.425
0
LINE
8
Black
10
84.5043
20
-104.425
11
84.5022
21
-104.425
0
LINE
8
Black
10
84.5022
20
-104.425
11
84.5
21
-104.425
0
LINE
8
Black
10
84.5
20
-104.425
11
82.5
21
-104.425
0
LINE
8
Black
10
82.5
20
-104.425
11
82.4978
21
-104.425
0
LINE
8
Black
10
82.4978
20
-104.425
11
82.4957
21
-104.425
0
LINE
8
Black
10
82.4957
20
-104.425
11
82.4936
21
-104.424
0
LINE
8
Black
10
82.4936
20
-104.424
11
82.4914
21
-104.423
0
LINE
8
Black
10
82.4914
20
-104.423
11
82.4896
21
-104.422
0
LINE
8
Black
10
82.4896
20
-104.422
11
82.4875
21
-104.422
0
LINE
8
Black
10
82.4875
20
-104.422
11
82.4858
21
-104.42
0
LINE
8
Black
10
82.4858
20
-104.42
11
82.4839
21
-104.419
0
LINE
8
Black
10
82.4839
20
-104.419
11
82.4825
21
-104.417
0
LINE
8
Black
10
82.4825
20
-104.417
11
82.4808
21
-104.416
0
LINE
8
Black
10
82.4808
20
-104.416
11
82.4798
21
-104.414
0
LINE
8
Black
10
82.4798
20
-104.414
11
82.4783
21
-104.412
0
LINE
8
Black
10
82.4783
20
-104.412
11
82.4776
21
-104.41
0
LINE
8
Black
10
82.4776
20
-104.41
11
82.4765
21
-104.409
0
LINE
8
Black
10
82.4765
20
-104.409
11
82.4761
21
-104.406
0
LINE
8
Black
10
82.4761
20
-104.406
11
82.4754
21
-104.404
0
LINE
8
Black
10
82.4754
20
-104.404
11
82.4754
21
-104.402
0
LINE
8
Black
10
82.4754
20
-104.402
11
82.475
21
-104.4
0
LINE
8
Black
10
82.475
20
-104.4
11
82.475
21
-99.6
0
LINE
8
Black
10
82.475
20
-99.6
11
82.4754
21
-99.5978
0
LINE
8
Black
10
82.4754
20
-99.5978
11
82.4754
21
-99.5957
0
LINE
8
Black
10
82.4754
20
-99.5957
11
82.4761
21
-99.5936
0
LINE
8
Black
10
82.4761
20
-99.5936
11
82.4765
21
-99.5914
0
LINE
8
Black
10
82.4765
20
-99.5914
11
82.4776
21
-99.5896
0
LINE
8
Black
10
82.4776
20
-99.5896
11
82.4783
21
-99.5875
0
LINE
8
Black
10
82.4783
20
-99.5875
11
82.4798
21
-99.5858
0
LINE
8
Black
10
82.4798
20
-99.5858
11
82.4808
21
-99.5839
0
LINE
8
Black
10
82.4808
20
-99.5839
11
82.4825
21
-99.5825
0
LINE
8
Black
10
82.4825
20
-99.5825
11
82.4839
21
-99.5808
0
LINE
8
Black
10
82.4839
20
-99.5808
11
82.4858
21
-99.5798
0
LINE
8
Black
10
82.4858
20
-99.5798
11
82.4875
21
-99.5783
0
LINE
8
Black
10
82.4875
20
-99.5783
11
82.4896
21
-99.5776
0
LINE
8
Black
10
82.4896
20
-99.5776
11
82.4914
21
-99.5765
0
LINE
8
Black
10
82.4914
20
-99.5765
11
82.4936
21
-99.5761
0
LINE
8
Black
10
82.4936
20
-99.5761
11
82.4957
21
-99.5754
0
LINE
8
Black
10
82.4957
20
-99.5754
11
82.4978
21
-99.5754
0
LINE
8
Black
10
82.4978
20
-99.5754
11
82.5
21
-99.575
0
LINE
8
Black
10
82.5
20
-99.575
11
84.5
21
-99.575
0
LINE
8
Black
10
84.5
20
-99.575
11
84.5022
21
-99.5754
0
LINE
8
Black
10
82.525
20
-99.625
11
82.525
21
-104.375
0
LINE
8
Black
10
82.525
20
-104.375
11
84.475
21
-104.375
0
LINE
8
Black
10
84.475
20
-104.375
11
84.475
21
-99.625
0
LINE
8
Black
10
84.475
20
-99.625
11
82.525
21
-99.625
0
LINE
8
Black
10
122.102
20
-62.8254
11
122.104
21
-62.8254
0
LINE
8
Black
10
122.104
20
-62.8254
11
122.106
21
-62.8261
0
LINE
8
Black
10
122.106
20
-62.8261
11
122.109
21
-62.8265
0
LINE
8
Black
10
122.109
20
-62.8265
11
122.11
21
-62.8276
0
LINE
8
Black
10
122.11
20
-62.8276
11
122.112
21
-62.8283
0
LINE
8
Black
10
122.112
20
-62.8283
11
122.114
21
-62.8298
0
LINE
8
Black
10
122.114
20
-62.8298
11
122.116
21
-62.8308
0
LINE
8
Black
10
122.116
20
-62.8308
11
122.117
21
-62.8325
0
LINE
8
Black
10
122.117
20
-62.8325
11
122.119
21
-62.8339
0
LINE
8
Black
10
122.119
20
-62.8339
11
122.12
21
-62.8358
0
LINE
8
Black
10
122.12
20
-62.8358
11
122.122
21
-62.8375
0
LINE
8
Black
10
122.122
20
-62.8375
11
122.122
21
-62.8396
0
LINE
8
Black
10
122.122
20
-62.8396
11
122.123
21
-62.8414
0
LINE
8
Black
10
122.123
20
-62.8414
11
122.124
21
-62.8436
0
LINE
8
Black
10
122.124
20
-62.8436
11
122.125
21
-62.8457
0
LINE
8
Black
10
122.125
20
-62.8457
11
122.125
21
-62.8478
0
LINE
8
Black
10
122.125
20
-62.8478
11
122.125
21
-62.85
0
LINE
8
Black
10
122.125
20
-62.85
11
122.125
21
-69.65
0
LINE
8
Black
10
122.125
20
-69.65
11
122.125
21
-69.6522
0
LINE
8
Black
10
122.125
20
-69.6522
11
122.125
21
-69.6543
0
LINE
8
Black
10
122.125
20
-69.6543
11
122.124
21
-69.6564
0
LINE
8
Black
10
122.124
20
-69.6564
11
122.123
21
-69.6586
0
LINE
8
Black
10
122.123
20
-69.6586
11
122.122
21
-69.6604
0
LINE
8
Black
10
122.122
20
-69.6604
11
122.122
21
-69.6625
0
LINE
8
Black
10
122.122
20
-69.6625
11
122.12
21
-69.6642
0
LINE
8
Black
10
122.12
20
-69.6642
11
122.119
21
-69.6661
0
LINE
8
Black
10
122.119
20
-69.6661
11
122.117
21
-69.6675
0
LINE
8
Black
10
122.117
20
-69.6675
11
122.116
21
-69.6692
0
LINE
8
Black
10
122.116
20
-69.6692
11
122.114
21
-69.6702
0
LINE
8
Black
10
122.114
20
-69.6702
11
122.112
21
-69.6717
0
LINE
8
Black
10
122.112
20
-69.6717
11
122.11
21
-69.6724
0
LINE
8
Black
10
122.11
20
-69.6724
11
122.109
21
-69.6735
0
LINE
8
Black
10
122.109
20
-69.6735
11
122.106
21
-69.6739
0
LINE
8
Black
10
122.106
20
-69.6739
11
122.104
21
-69.6746
0
LINE
8
Black
10
122.104
20
-69.6746
11
122.102
21
-69.6746
0
LINE
8
Black
10
122.102
20
-69.6746
11
122.1
21
-69.675
0
LINE
8
Black
10
122.1
20
-69.675
11
112
21
-69.675
0
LINE
8
Black
10
112
20
-69.675
11
111.998
21
-69.6746
0
LINE
8
Black
10
111.998
20
-69.6746
11
111.996
21
-69.6746
0
LINE
8
Black
10
111.996
20
-69.6746
11
111.994
21
-69.6739
0
LINE
8
Black
10
111.994
20
-69.6739
11
111.991
21
-69.6735
0
LINE
8
Black
10
111.991
20
-69.6735
11
111.99
21
-69.6724
0
LINE
8
Black
10
111.99
20
-69.6724
11
111.987
21
-69.6717
0
LINE
8
Black
10
111.987
20
-69.6717
11
111.986
21
-69.6702
0
LINE
8
Black
10
111.986
20
-69.6702
11
111.984
21
-69.6692
0
LINE
8
Black
10
111.984
20
-69.6692
11
111.983
21
-69.6675
0
LINE
8
Black
10
111.983
20
-69.6675
11
111.981
21
-69.6661
0
LINE
8
Black
10
111.981
20
-69.6661
11
111.98
21
-69.6642
0
LINE
8
Black
10
111.98
20
-69.6642
11
111.978
21
-69.6625
0
LINE
8
Black
10
111.978
20
-69.6625
11
111.978
21
-69.6604
0
LINE
8
Black
10
111.978
20
-69.6604
11
111.977
21
-69.6586
0
LINE
8
Black
10
111.977
20
-69.6586
11
111.976
21
-69.6564
0
LINE
8
Black
10
111.976
20
-69.6564
11
111.975
21
-69.6543
0
LINE
8
Black
10
111.975
20
-69.6543
11
111.975
21
-69.6522
0
LINE
8
Black
10
111.975
20
-69.6522
11
111.975
21
-69.65
0
LINE
8
Black
10
111.975
20
-69.65
11
111.975
21
-62.85
0
LINE
8
Black
10
111.975
20
-62.85
11
111.975
21
-62.8478
0
LINE
8
Black
10
111.975
20
-62.8478
11
111.975
21
-62.8457
0
LINE
8
Black
10
111.975
20
-62.8457
11
111.976
21
-62.8436
0
LINE
8
Black
10
111.976
20
-62.8436
11
111.977
21
-62.8414
0
LINE
8
Black
10
111.977
20
-62.8414
11
111.978
21
-62.8396
0
LINE
8
Black
10
111.978
20
-62.8396
11
111.978
21
-62.8375
0
LINE
8
Black
10
111.978
20
-62.8375
11
111.98
21
-62.8358
0
LINE
8
Black
10
111.98
20
-62.8358
11
111.981
21
-62.8339
0
LINE
8
Black
10
111.981
20
-62.8339
11
111.983
21
-62.8325
0
LINE
8
Black
10
111.983
20
-62.8325
11
111.984
21
-62.8308
0
LINE
8
Black
10
111.984
20
-62.8308
11
111.986
21
-62.8298
0
LINE
8
Black
10
111.986
20
-62.8298
11
111.987
21
-62.8283
0
LINE
8
Black
10
111.987
20
-62.8283
11
111.99
21
-62.8276
0
LINE
8
Black
10
111.99
20
-62.8276
11
111.991
21
-62.8265
0
LINE
8
Black
10
111.991
20
-62.8265
11
111.994
21
-62.8261
0
LINE
8
Black
10
111.994
20
-62.8261
11
111.996
21
-62.8254
0
LINE
8
Black
10
111.996
20
-62.8254
11
111.998
21
-62.8254
0
LINE
8
Black
10
111.998
20
-62.8254
11
112
21
-62.825
0
LINE
8
Black
10
112
20
-62.825
11
122.1
21
-62.825
0
LINE
8
Black
10
122.1
20
-62.825
11
122.102
21
-62.8254
0
LINE
8
Black
10
112.025
20
-62.875
11
112.025
21
-69.625
0
LINE
8
Black
10
112.025
20
-69.625
11
122.075
21
-69.625
0
LINE
8
Black
10
122.075
20
-69.625
11
122.075
21
-62.875
0
LINE
8
Black
10
122.075
20
-62.875
11
112.025
21
-62.875
0
LINE
8
Black
10
144.802
20
-61.4754
11
144.804
21
-61.4754
0
LINE
8
Black
10
144.804
20
-61.4754
11
144.806
21
-61.4761
0
LINE
8
Black
10
144.806
20
-61.4761
11
144.809
21
-61.4765
0
LINE
8
Black
10
144.809
20
-61.4765
11
144.81
21
-61.4776
0
LINE
8
Black
10
144.81
20
-61.4776
11
144.812
21
-61.4783
0
LINE
8
Black
10
144.812
20
-61.4783
11
144.814
21
-61.4798
0
LINE
8
Black
10
144.814
20
-61.4798
11
144.816
21
-61.4808
0
LINE
8
Black
10
144.816
20
-61.4808
11
144.817
21
-61.4825
0
LINE
8
Black
10
144.817
20
-61.4825
11
144.819
21
-61.4839
0
LINE
8
Black
10
144.819
20
-61.4839
11
144.82
21
-61.4858
0
LINE
8
Black
10
144.82
20
-61.4858
11
144.822
21
-61.4875
0
LINE
8
Black
10
144.822
20
-61.4875
11
144.822
21
-61.4896
0
LINE
8
Black
10
144.822
20
-61.4896
11
144.823
21
-61.4914
0
LINE
8
Black
10
144.823
20
-61.4914
11
144.824
21
-61.4936
0
LINE
8
Black
10
144.824
20
-61.4936
11
144.825
21
-61.4957
0
LINE
8
Black
10
144.825
20
-61.4957
11
144.825
21
-61.4978
0
LINE
8
Black
10
144.825
20
-61.4978
11
144.825
21
-61.5
0
LINE
8
Black
10
144.825
20
-61.5
11
144.825
21
-63.5
0
LINE
8
Black
10
144.825
20
-63.5
11
144.825
21
-65.5
0
LINE
8
Black
10
144.825
20
-65.5
11
144.825
21
-65.5022
0
LINE
8
Black
10
144.825
20
-65.5022
11
144.825
21
-65.5043
0
LINE
8
Black
10
144.825
20
-65.5043
11
144.824
21
-65.5064
0
LINE
8
Black
10
144.824
20
-65.5064
11
144.823
21
-65.5086
0
LINE
8
Black
10
144.823
20
-65.5086
11
144.822
21
-65.5104
0
LINE
8
Black
10
144.822
20
-65.5104
11
144.822
21
-65.5125
0
LINE
8
Black
10
144.822
20
-65.5125
11
144.82
21
-65.5142
0
LINE
8
Black
10
144.82
20
-65.5142
11
144.819
21
-65.5161
0
LINE
8
Black
10
144.819
20
-65.5161
11
144.817
21
-65.5175
0
LINE
8
Black
10
144.817
20
-65.5175
11
144.816
21
-65.5192
0
LINE
8
Black
10
144.816
20
-65.5192
11
144.814
21
-65.5202
0
LINE
8
Black
10
144.814
20
-65.5202
11
144.812
21
-65.5217
0
LINE
8
Black
10
144.812
20
-65.5217
11
144.81
21
-65.5224
0
LINE
8
Black
10
144.81
20
-65.5224
11
144.809
21
-65.5235
0
LINE
8
Black
10
144.809
20
-65.5235
11
144.806
21
-65.5239
0
LINE
8
Black
10
144.806
20
-65.5239
11
144.804
21
-65.5246
0
LINE
8
Black
10
144.804
20
-65.5246
11
144.802
21
-65.5246
0
LINE
8
Black
10
144.802
20
-65.5246
11
144.8
21
-65.525
0
LINE
8
Black
10
144.8
20
-65.525
11
140.2
21
-65.525
0
LINE
8
Black
10
140.2
20
-65.525
11
140.198
21
-65.5246
0
LINE
8
Black
10
140.198
20
-65.5246
11
140.196
21
-65.5246
0
LINE
8
Black
10
140.196
20
-65.5246
11
140.194
21
-65.5239
0
LINE
8
Black
10
140.194
20
-65.5239
11
140.191
21
-65.5235
0
LINE
8
Black
10
140.191
20
-65.5235
11
140.19
21
-65.5224
0
LINE
8
Black
10
140.19
20
-65.5224
11
140.188
21
-65.5217
0
LINE
8
Black
10
140.188
20
-65.5217
11
140.186
21
-65.5202
0
LINE
8
Black
10
140.186
20
-65.5202
11
140.184
21
-65.5192
0
LINE
8
Black
10
140.184
20
-65.5192
11
140.183
21
-65.5175
0
LINE
8
Black
10
140.183
20
-65.5175
11
140.181
21
-65.5161
0
LINE
8
Black
10
140.181
20
-65.5161
11
140.18
21
-65.5142
0
LINE
8
Black
10
140.18
20
-65.5142
11
140.178
21
-65.5125
0
LINE
8
Black
10
140.178
20
-65.5125
11
140.178
21
-65.5104
0
LINE
8
Black
10
140.178
20
-65.5104
11
140.177
21
-65.5086
0
LINE
8
Black
10
140.177
20
-65.5086
11
140.176
21
-65.5064
0
LINE
8
Black
10
140.176
20
-65.5064
11
140.175
21
-65.5043
0
LINE
8
Black
10
140.175
20
-65.5043
11
140.175
21
-65.5022
0
LINE
8
Black
10
140.175
20
-65.5022
11
140.175
21
-65.5
0
LINE
8
Black
10
140.175
20
-65.5
11
140.175
21
-63.5
0
LINE
8
Black
10
140.175
20
-63.5
11
140.175
21
-61.5
0
LINE
8
Black
10
140.175
20
-61.5
11
140.175
21
-61.4978
0
LINE
8
Black
10
140.175
20
-61.4978
11
140.175
21
-61.4957
0
LINE
8
Black
10
140.175
20
-61.4957
11
140.176
21
-61.4936
0
LINE
8
Black
10
140.176
20
-61.4936
11
140.177
21
-61.4914
0
LINE
8
Black
10
140.177
20
-61.4914
11
140.178
21
-61.4896
0
LINE
8
Black
10
140.178
20
-61.4896
11
140.178
21
-61.4875
0
LINE
8
Black
10
140.178
20
-61.4875
11
140.18
21
-61.4858
0
LINE
8
Black
10
140.18
20
-61.4858
11
140.181
21
-61.4839
0
LINE
8
Black
10
140.181
20
-61.4839
11
140.183
21
-61.4825
0
LINE
8
Black
10
140.183
20
-61.4825
11
140.184
21
-61.4808
0
LINE
8
Black
10
140.184
20
-61.4808
11
140.186
21
-61.4798
0
LINE
8
Black
10
140.186
20
-61.4798
11
140.188
21
-61.4783
0
LINE
8
Black
10
140.188
20
-61.4783
11
140.19
21
-61.4776
0
LINE
8
Black
10
140.19
20
-61.4776
11
140.191
21
-61.4765
0
LINE
8
Black
10
140.191
20
-61.4765
11
140.194
21
-61.4761
0
LINE
8
Black
10
140.194
20
-61.4761
11
140.196
21
-61.4754
0
LINE
8
Black
10
140.196
20
-61.4754
11
140.198
21
-61.4754
0
LINE
8
Black
10
140.198
20
-61.4754
11
140.2
21
-61.475
0
LINE
8
Black
10
140.2
20
-61.475
11
144.8
21
-61.475
0
LINE
8
Black
10
144.8
20
-61.475
11
144.802
21
-61.4754
0
LINE
8
Black
10
140.225
20
-63.525
11
140.225
21
-65.475
0
LINE
8
Black
10
140.225
20
-65.475
11
144.775
21
-65.475
0
LINE
8
Black
10
144.775
20
-65.475
11
144.775
21
-63.525
0
LINE
8
Black
10
144.775
20
-63.525
11
140.225
21
-63.525
0
LINE
8
Black
10
140.225
20
-61.525
11
140.225
21
-63.475
0
LINE
8
Black
10
140.225
20
-63.475
11
144.775
21
-63.475
0
LINE
8
Black
10
144.775
20
-63.475
11
144.775
21
-61.525
0
LINE
8
Black
10
144.775
20
-61.525
11
140.225
21
-61.525
0
LINE
8
Black
10
161.502
20
-53.6754
11
161.504
21
-53.6754
0
LINE
8
Black
10
161.504
20
-53.6754
11
161.506
21
-53.6761
0
LINE
8
Black
10
161.506
20
-53.6761
11
161.509
21
-53.6765
0
LINE
8
Black
10
161.509
20
-53.6765
11
161.51
21
-53.6776
0
LINE
8
Black
10
161.51
20
-53.6776
11
161.512
21
-53.6783
0
LINE
8
Black
10
161.512
20
-53.6783
11
161.514
21
-53.6798
0
LINE
8
Black
10
161.514
20
-53.6798
11
161.516
21
-53.6808
0
LINE
8
Black
10
161.516
20
-53.6808
11
161.517
21
-53.6825
0
LINE
8
Black
10
161.517
20
-53.6825
11
161.519
21
-53.6839
0
LINE
8
Black
10
161.519
20
-53.6839
11
161.52
21
-53.6858
0
LINE
8
Black
10
161.52
20
-53.6858
11
161.522
21
-53.6875
0
LINE
8
Black
10
161.522
20
-53.6875
11
161.522
21
-53.6896
0
LINE
8
Black
10
161.522
20
-53.6896
11
161.523
21
-53.6914
0
LINE
8
Black
10
161.523
20
-53.6914
11
161.524
21
-53.6936
0
LINE
8
Black
10
161.524
20
-53.6936
11
161.525
21
-53.6957
0
LINE
8
Black
10
161.525
20
-53.6957
11
161.525
21
-53.6978
0
LINE
8
Black
10
161.525
20
-53.6978
11
161.525
21
-53.7
0
LINE
8
Black
10
161.525
20
-53.7
11
161.525
21
-58.3
0
LINE
8
Black
10
161.525
20
-58.3
11
161.525
21
-58.3022
0
LINE
8
Black
10
161.525
20
-58.3022
11
161.525
21
-58.3043
0
LINE
8
Black
10
161.525
20
-58.3043
11
161.524
21
-58.3064
0
LINE
8
Black
10
161.524
20
-58.3064
11
161.523
21
-58.3086
0
LINE
8
Black
10
161.523
20
-58.3086
11
161.522
21
-58.3104
0
LINE
8
Black
10
161.522
20
-58.3104
11
161.522
21
-58.3125
0
LINE
8
Black
10
161.522
20
-58.3125
11
161.52
21
-58.3142
0
LINE
8
Black
10
161.52
20
-58.3142
11
161.519
21
-58.3161
0
LINE
8
Black
10
161.519
20
-58.3161
11
161.517
21
-58.3175
0
LINE
8
Black
10
161.517
20
-58.3175
11
161.516
21
-58.3192
0
LINE
8
Black
10
161.516
20
-58.3192
11
161.514
21
-58.3202
0
LINE
8
Black
10
161.514
20
-58.3202
11
161.512
21
-58.3217
0
LINE
8
Black
10
161.512
20
-58.3217
11
161.51
21
-58.3224
0
LINE
8
Black
10
161.51
20
-58.3224
11
161.509
21
-58.3235
0
LINE
8
Black
10
161.509
20
-58.3235
11
161.506
21
-58.3239
0
LINE
8
Black
10
161.506
20
-58.3239
11
161.504
21
-58.3246
0
LINE
8
Black
10
161.504
20
-58.3246
11
161.502
21
-58.3246
0
LINE
8
Black
10
161.502
20
-58.3246
11
161.5
21
-58.325
0
LINE
8
Black
10
161.5
20
-58.325
11
159.5
21
-58.325
0
LINE
8
Black
10
159.5
20
-58.325
11
159.498
21
-58.3246
0
LINE
8
Black
10
159.498
20
-58.3246
11
159.496
21
-58.3246
0
LINE
8
Black
10
159.496
20
-58.3246
11
159.494
21
-58.3239
0
LINE
8
Black
10
159.494
20
-58.3239
11
159.491
21
-58.3235
0
LINE
8
Black
10
159.491
20
-58.3235
11
159.49
21
-58.3224
0
LINE
8
Black
10
159.49
20
-58.3224
11
159.487
21
-58.3217
0
LINE
8
Black
10
159.487
20
-58.3217
11
159.486
21
-58.3202
0
LINE
8
Black
10
159.486
20
-58.3202
11
159.484
21
-58.3192
0
LINE
8
Black
10
159.484
20
-58.3192
11
159.483
21
-58.3175
0
LINE
8
Black
10
159.483
20
-58.3175
11
159.481
21
-58.3161
0
LINE
8
Black
10
159.481
20
-58.3161
11
159.48
21
-58.3142
0
LINE
8
Black
10
159.48
20
-58.3142
11
159.478
21
-58.3125
0
LINE
8
Black
10
159.478
20
-58.3125
11
159.478
21
-58.3104
0
LINE
8
Black
10
159.478
20
-58.3104
11
159.477
21
-58.3086
0
LINE
8
Black
10
159.477
20
-58.3086
11
159.476
21
-58.3064
0
LINE
8
Black
10
159.476
20
-58.3064
11
159.475
21
-58.3043
0
LINE
8
Black
10
159.475
20
-58.3043
11
159.475
21
-58.3022
0
LINE
8
Black
10
159.475
20
-58.3022
11
159.475
21
-58.3
0
LINE
8
Black
10
159.475
20
-58.3
11
159.475
21
-53.7
0
LINE
8
Black
10
159.475
20
-53.7
11
159.475
21
-53.6978
0
LINE
8
Black
10
159.475
20
-53.6978
11
159.475
21
-53.6957
0
LINE
8
Black
10
159.475
20
-53.6957
11
159.476
21
-53.6936
0
LINE
8
Black
10
159.476
20
-53.6936
11
159.477
21
-53.6914
0
LINE
8
Black
10
159.477
20
-53.6914
11
159.478
21
-53.6896
0
LINE
8
Black
10
159.478
20
-53.6896
11
159.478
21
-53.6875
0
LINE
8
Black
10
159.478
20
-53.6875
11
159.48
21
-53.6858
0
LINE
8
Black
10
159.48
20
-53.6858
11
159.481
21
-53.6839
0
LINE
8
Black
10
159.481
20
-53.6839
11
159.483
21
-53.6825
0
LINE
8
Black
10
159.483
20
-53.6825
11
159.484
21
-53.6808
0
LINE
8
Black
10
159.484
20
-53.6808
11
159.486
21
-53.6798
0
LINE
8
Black
10
159.486
20
-53.6798
11
159.487
21
-53.6783
0
LINE
8
Black
10
159.487
20
-53.6783
11
159.49
21
-53.6776
0
LINE
8
Black
10
159.49
20
-53.6776
11
159.491
21
-53.6765
0
LINE
8
Black
10
159.491
20
-53.6765
11
159.494
21
-53.6761
0
LINE
8
Black
10
159.494
20
-53.6761
11
159.496
21
-53.6754
0
LINE
8
Black
10
159.496
20
-53.6754
11
159.498
21
-53.6754
0
LINE
8
Black
10
159.498
20
-53.6754
11
159.5
21
-53.675
0
LINE
8
Black
10
159.5
20
-53.675
11
161.5
21
-53.675
0
LINE
8
Black
10
161.5
20
-53.675
11
161.502
21
-53.6754
0
LINE
8
Black
10
159.525
20
-53.725
11
159.525
21
-58.275
0
LINE
8
Black
10
159.525
20
-58.275
11
161.475
21
-58.275
0
LINE
8
Black
10
161.475
20
-58.275
11
161.475
21
-53.725
0
LINE
8
Black
10
161.475
20
-53.725
11
159.525
21
-53.725
0
LINE
8
Black
10
116.602
20
-48.9754
11
116.604
21
-48.9754
0
LINE
8
Black
10
116.604
20
-48.9754
11
116.606
21
-48.9761
0
LINE
8
Black
10
116.606
20
-48.9761
11
116.609
21
-48.9765
0
LINE
8
Black
10
116.609
20
-48.9765
11
116.61
21
-48.9776
0
LINE
8
Black
10
116.61
20
-48.9776
11
116.612
21
-48.9783
0
LINE
8
Black
10
116.612
20
-48.9783
11
116.614
21
-48.9798
0
LINE
8
Black
10
116.614
20
-48.9798
11
116.616
21
-48.9808
0
LINE
8
Black
10
116.616
20
-48.9808
11
116.617
21
-48.9825
0
LINE
8
Black
10
116.617
20
-48.9825
11
116.619
21
-48.9839
0
LINE
8
Black
10
116.619
20
-48.9839
11
116.62
21
-48.9858
0
LINE
8
Black
10
116.62
20
-48.9858
11
116.622
21
-48.9875
0
LINE
8
Black
10
116.622
20
-48.9875
11
116.622
21
-48.9896
0
LINE
8
Black
10
116.622
20
-48.9896
11
116.623
21
-48.9914
0
LINE
8
Black
10
116.623
20
-48.9914
11
116.624
21
-48.9936
0
LINE
8
Black
10
116.624
20
-48.9936
11
116.625
21
-48.9957
0
LINE
8
Black
10
116.625
20
-48.9957
11
116.625
21
-48.9978
0
LINE
8
Black
10
116.625
20
-48.9978
11
116.625
21
-49
0
LINE
8
Black
10
116.625
20
-49
11
116.625
21
-56
0
LINE
8
Black
10
116.625
20
-56
11
116.625
21
-56.0022
0
LINE
8
Black
10
116.625
20
-56.0022
11
116.625
21
-56.0043
0
LINE
8
Black
10
116.625
20
-56.0043
11
116.624
21
-56.0064
0
LINE
8
Black
10
116.624
20
-56.0064
11
116.623
21
-56.0086
0
LINE
8
Black
10
116.623
20
-56.0086
11
116.622
21
-56.0104
0
LINE
8
Black
10
116.622
20
-56.0104
11
116.622
21
-56.0125
0
LINE
8
Black
10
116.622
20
-56.0125
11
116.62
21
-56.0142
0
LINE
8
Black
10
116.62
20
-56.0142
11
116.619
21
-56.0161
0
LINE
8
Black
10
116.619
20
-56.0161
11
116.617
21
-56.0175
0
LINE
8
Black
10
116.617
20
-56.0175
11
116.616
21
-56.0192
0
LINE
8
Black
10
116.616
20
-56.0192
11
116.614
21
-56.0202
0
LINE
8
Black
10
116.614
20
-56.0202
11
116.612
21
-56.0217
0
LINE
8
Black
10
116.612
20
-56.0217
11
116.61
21
-56.0224
0
LINE
8
Black
10
116.61
20
-56.0224
11
116.609
21
-56.0235
0
LINE
8
Black
10
116.609
20
-56.0235
11
116.606
21
-56.0239
0
LINE
8
Black
10
116.606
20
-56.0239
11
116.604
21
-56.0246
0
LINE
8
Black
10
116.604
20
-56.0246
11
116.602
21
-56.0246
0
LINE
8
Black
10
116.602
20
-56.0246
11
116.6
21
-56.025
0
LINE
8
Black
10
116.6
20
-56.025
11
112.4
21
-56.025
0
LINE
8
Black
10
112.4
20
-56.025
11
112.398
21
-56.0246
0
LINE
8
Black
10
112.398
20
-56.0246
11
112.396
21
-56.0246
0
LINE
8
Black
10
112.396
20
-56.0246
11
112.394
21
-56.0239
0
LINE
8
Black
10
112.394
20
-56.0239
11
112.391
21
-56.0235
0
LINE
8
Black
10
112.391
20
-56.0235
11
112.39
21
-56.0224
0
LINE
8
Black
10
112.39
20
-56.0224
11
112.387
21
-56.0217
0
LINE
8
Black
10
112.387
20
-56.0217
11
112.386
21
-56.0202
0
LINE
8
Black
10
112.386
20
-56.0202
11
112.384
21
-56.0192
0
LINE
8
Black
10
112.384
20
-56.0192
11
112.383
21
-56.0175
0
LINE
8
Black
10
112.383
20
-56.0175
11
112.381
21
-56.0161
0
LINE
8
Black
10
112.381
20
-56.0161
11
112.38
21
-56.0142
0
LINE
8
Black
10
112.38
20
-56.0142
11
112.378
21
-56.0125
0
LINE
8
Black
10
112.378
20
-56.0125
11
112.378
21
-56.0104
0
LINE
8
Black
10
112.378
20
-56.0104
11
112.377
21
-56.0086
0
LINE
8
Black
10
112.377
20
-56.0086
11
112.376
21
-56.0064
0
LINE
8
Black
10
112.376
20
-56.0064
11
112.375
21
-56.0043
0
LINE
8
Black
10
112.375
20
-56.0043
11
112.375
21
-56.0022
0
LINE
8
Black
10
112.375
20
-56.0022
11
112.375
21
-56
0
LINE
8
Black
10
112.375
20
-56
11
112.375
21
-49
0
LINE
8
Black
10
112.375
20
-49
11
112.375
21
-48.9978
0
LINE
8
Black
10
112.375
20
-48.9978
11
112.375
21
-48.9957
0
LINE
8
Black
10
112.375
20
-48.9957
11
112.376
21
-48.9936
0
LINE
8
Black
10
112.376
20
-48.9936
11
112.377
21
-48.9914
0
LINE
8
Black
10
112.377
20
-48.9914
11
112.378
21
-48.9896
0
LINE
8
Black
10
112.378
20
-48.9896
11
112.378
21
-48.9875
0
LINE
8
Black
10
112.378
20
-48.9875
11
112.38
21
-48.9858
0
LINE
8
Black
10
112.38
20
-48.9858
11
112.381
21
-48.9839
0
LINE
8
Black
10
112.381
20
-48.9839
11
112.383
21
-48.9825
0
LINE
8
Black
10
112.383
20
-48.9825
11
112.384
21
-48.9808
0
LINE
8
Black
10
112.384
20
-48.9808
11
112.386
21
-48.9798
0
LINE
8
Black
10
112.386
20
-48.9798
11
112.387
21
-48.9783
0
LINE
8
Black
10
112.387
20
-48.9783
11
112.39
21
-48.9776
0
LINE
8
Black
10
112.39
20
-48.9776
11
112.391
21
-48.9765
0
LINE
8
Black
10
112.391
20
-48.9765
11
112.394
21
-48.9761
0
LINE
8
Black
10
112.394
20
-48.9761
11
112.396
21
-48.9754
0
LINE
8
Black
10
112.396
20
-48.9754
11
112.398
21
-48.9754
0
LINE
8
Black
10
112.398
20
-48.9754
11
112.4
21
-48.975
0
LINE
8
Black
10
112.4
20
-48.975
11
116.6
21
-48.975
0
LINE
8
Black
10
116.6
20
-48.975
11
116.602
21
-48.9754
0
LINE
8
Black
10
112.425
20
-49.025
11
112.425
21
-55.975
0
LINE
8
Black
10
112.425
20
-55.975
11
116.575
21
-55.975
0
LINE
8
Black
10
116.575
20
-55.975
11
116.575
21
-49.025
0
LINE
8
Black
10
116.575
20
-49.025
11
112.425
21
-49.025
0
LINE
8
Black
10
121.302
20
-49.4754
11
121.304
21
-49.4754
0
LINE
8
Black
10
121.304
20
-49.4754
11
121.306
21
-49.4761
0
LINE
8
Black
10
121.306
20
-49.4761
11
121.309
21
-49.4765
0
LINE
8
Black
10
121.309
20
-49.4765
11
121.31
21
-49.4776
0
LINE
8
Black
10
121.31
20
-49.4776
11
121.312
21
-49.4783
0
LINE
8
Black
10
121.312
20
-49.4783
11
121.314
21
-49.4798
0
LINE
8
Black
10
121.314
20
-49.4798
11
121.316
21
-49.4808
0
LINE
8
Black
10
121.316
20
-49.4808
11
121.317
21
-49.4825
0
LINE
8
Black
10
121.317
20
-49.4825
11
121.319
21
-49.4839
0
LINE
8
Black
10
121.319
20
-49.4839
11
121.32
21
-49.4858
0
LINE
8
Black
10
121.32
20
-49.4858
11
121.322
21
-49.4875
0
LINE
8
Black
10
121.322
20
-49.4875
11
121.322
21
-49.4896
0
LINE
8
Black
10
121.322
20
-49.4896
11
121.323
21
-49.4914
0
LINE
8
Black
10
121.323
20
-49.4914
11
121.324
21
-49.4936
0
LINE
8
Black
10
121.324
20
-49.4936
11
121.325
21
-49.4957
0
LINE
8
Black
10
121.325
20
-49.4957
11
121.325
21
-49.4978
0
LINE
8
Black
10
121.325
20
-49.4978
11
121.325
21
-49.5
0
LINE
8
Black
10
121.325
20
-49.5
11
121.325
21
-51.5
0
LINE
8
Black
10
121.325
20
-51.5
11
121.325
21
-53.5
0
LINE
8
Black
10
121.325
20
-53.5
11
121.325
21
-53.5022
0
LINE
8
Black
10
121.325
20
-53.5022
11
121.325
21
-53.5043
0
LINE
8
Black
10
121.325
20
-53.5043
11
121.324
21
-53.5064
0
LINE
8
Black
10
121.324
20
-53.5064
11
121.323
21
-53.5086
0
LINE
8
Black
10
121.323
20
-53.5086
11
121.322
21
-53.5104
0
LINE
8
Black
10
121.322
20
-53.5104
11
121.322
21
-53.5125
0
LINE
8
Black
10
121.322
20
-53.5125
11
121.32
21
-53.5142
0
LINE
8
Black
10
121.32
20
-53.5142
11
121.319
21
-53.5161
0
LINE
8
Black
10
121.319
20
-53.5161
11
121.317
21
-53.5175
0
LINE
8
Black
10
121.317
20
-53.5175
11
121.316
21
-53.5192
0
LINE
8
Black
10
121.316
20
-53.5192
11
121.314
21
-53.5202
0
LINE
8
Black
10
121.314
20
-53.5202
11
121.312
21
-53.5217
0
LINE
8
Black
10
121.312
20
-53.5217
11
121.31
21
-53.5224
0
LINE
8
Black
10
121.31
20
-53.5224
11
121.309
21
-53.5235
0
LINE
8
Black
10
121.309
20
-53.5235
11
121.306
21
-53.5239
0
LINE
8
Black
10
121.306
20
-53.5239
11
121.304
21
-53.5246
0
LINE
8
Black
10
121.304
20
-53.5246
11
121.302
21
-53.5246
0
LINE
8
Black
10
121.302
20
-53.5246
11
121.3
21
-53.525
0
LINE
8
Black
10
121.3
20
-53.525
11
116.7
21
-53.525
0
LINE
8
Black
10
116.7
20
-53.525
11
116.698
21
-53.5246
0
LINE
8
Black
10
116.698
20
-53.5246
11
116.696
21
-53.5246
0
LINE
8
Black
10
116.696
20
-53.5246
11
116.694
21
-53.5239
0
LINE
8
Black
10
116.694
20
-53.5239
11
116.691
21
-53.5235
0
LINE
8
Black
10
116.691
20
-53.5235
11
116.69
21
-53.5224
0
LINE
8
Black
10
116.69
20
-53.5224
11
116.688
21
-53.5217
0
LINE
8
Black
10
116.688
20
-53.5217
11
116.686
21
-53.5202
0
LINE
8
Black
10
116.686
20
-53.5202
11
116.684
21
-53.5192
0
LINE
8
Black
10
116.684
20
-53.5192
11
116.683
21
-53.5175
0
LINE
8
Black
10
116.683
20
-53.5175
11
116.681
21
-53.5161
0
LINE
8
Black
10
116.681
20
-53.5161
11
116.68
21
-53.5142
0
LINE
8
Black
10
116.68
20
-53.5142
11
116.678
21
-53.5125
0
LINE
8
Black
10
116.678
20
-53.5125
11
116.678
21
-53.5104
0
LINE
8
Black
10
116.678
20
-53.5104
11
116.677
21
-53.5086
0
LINE
8
Black
10
116.677
20
-53.5086
11
116.676
21
-53.5064
0
LINE
8
Black
10
116.676
20
-53.5064
11
116.675
21
-53.5043
0
LINE
8
Black
10
116.675
20
-53.5043
11
116.675
21
-53.5022
0
LINE
8
Black
10
116.675
20
-53.5022
11
116.675
21
-53.5
0
LINE
8
Black
10
116.675
20
-53.5
11
116.675
21
-51.5
0
LINE
8
Black
10
116.675
20
-51.5
11
116.675
21
-49.5
0
LINE
8
Black
10
116.675
20
-49.5
11
116.675
21
-49.4978
0
LINE
8
Black
10
116.675
20
-49.4978
11
116.675
21
-49.4957
0
LINE
8
Black
10
116.675
20
-49.4957
11
116.676
21
-49.4936
0
LINE
8
Black
10
116.676
20
-49.4936
11
116.677
21
-49.4914
0
LINE
8
Black
10
116.677
20
-49.4914
11
116.678
21
-49.4896
0
LINE
8
Black
10
116.678
20
-49.4896
11
116.678
21
-49.4875
0
LINE
8
Black
10
116.678
20
-49.4875
11
116.68
21
-49.4858
0
LINE
8
Black
10
116.68
20
-49.4858
11
116.681
21
-49.4839
0
LINE
8
Black
10
116.681
20
-49.4839
11
116.683
21
-49.4825
0
LINE
8
Black
10
116.683
20
-49.4825
11
116.684
21
-49.4808
0
LINE
8
Black
10
116.684
20
-49.4808
11
116.686
21
-49.4798
0
LINE
8
Black
10
116.686
20
-49.4798
11
116.688
21
-49.4783
0
LINE
8
Black
10
116.688
20
-49.4783
11
116.69
21
-49.4776
0
LINE
8
Black
10
116.69
20
-49.4776
11
116.691
21
-49.4765
0
LINE
8
Black
10
116.691
20
-49.4765
11
116.694
21
-49.4761
0
LINE
8
Black
10
116.694
20
-49.4761
11
116.696
21
-49.4754
0
LINE
8
Black
10
116.696
20
-49.4754
11
116.698
21
-49.4754
0
LINE
8
Black
10
116.698
20
-49.4754
11
116.7
21
-49.475
0
LINE
8
Black
10
116.7
20
-49.475
11
121.3
21
-49.475
0
LINE
8
Black
10
121.3
20
-49.475
11
121.302
21
-49.4754
0
LINE
8
Black
10
116.725
20
-51.525
11
116.725
21
-53.475
0
LINE
8
Black
10
116.725
20
-53.475
11
121.275
21
-53.475
0
LINE
8
Black
10
121.275
20
-53.475
11
121.275
21
-51.525
0
LINE
8
Black
10
121.275
20
-51.525
11
116.725
21
-51.525
0
LINE
8
Black
10
116.725
20
-49.525
11
116.725
21
-51.475
0
LINE
8
Black
10
116.725
20
-51.475
11
121.275
21
-51.475
0
LINE
8
Black
10
121.275
20
-51.475
11
121.275
21
-49.525
0
LINE
8
Black
10
121.275
20
-49.525
11
116.725
21
-49.525
0
LINE
8
Black
10
157.402
20
-43.4754
11
157.404
21
-43.4754
0
LINE
8
Black
10
157.404
20
-43.4754
11
157.406
21
-43.4761
0
LINE
8
Black
10
157.406
20
-43.4761
11
157.409
21
-43.4765
0
LINE
8
Black
10
157.409
20
-43.4765
11
157.41
21
-43.4776
0
LINE
8
Black
10
157.41
20
-43.4776
11
157.412
21
-43.4783
0
LINE
8
Black
10
157.412
20
-43.4783
11
157.414
21
-43.4798
0
LINE
8
Black
10
157.414
20
-43.4798
11
157.416
21
-43.4808
0
LINE
8
Black
10
157.416
20
-43.4808
11
157.417
21
-43.4825
0
LINE
8
Black
10
157.417
20
-43.4825
11
157.419
21
-43.4839
0
LINE
8
Black
10
157.419
20
-43.4839
11
157.42
21
-43.4858
0
LINE
8
Black
10
157.42
20
-43.4858
11
157.422
21
-43.4875
0
LINE
8
Black
10
157.422
20
-43.4875
11
157.422
21
-43.4896
0
LINE
8
Black
10
157.422
20
-43.4896
11
157.423
21
-43.4914
0
LINE
8
Black
10
157.423
20
-43.4914
11
157.424
21
-43.4936
0
LINE
8
Black
10
157.424
20
-43.4936
11
157.425
21
-43.4957
0
LINE
8
Black
10
157.425
20
-43.4957
11
157.425
21
-43.4978
0
LINE
8
Black
10
157.425
20
-43.4978
11
157.425
21
-43.5
0
LINE
8
Black
10
157.425
20
-43.5
11
157.425
21
-45.5
0
LINE
8
Black
10
157.425
20
-45.5
11
157.425
21
-45.5022
0
LINE
8
Black
10
157.425
20
-45.5022
11
157.425
21
-45.5043
0
LINE
8
Black
10
157.425
20
-45.5043
11
157.424
21
-45.5064
0
LINE
8
Black
10
157.424
20
-45.5064
11
157.423
21
-45.5086
0
LINE
8
Black
10
157.423
20
-45.5086
11
157.422
21
-45.5104
0
LINE
8
Black
10
157.422
20
-45.5104
11
157.422
21
-45.5125
0
LINE
8
Black
10
157.422
20
-45.5125
11
157.42
21
-45.5142
0
LINE
8
Black
10
157.42
20
-45.5142
11
157.419
21
-45.5161
0
LINE
8
Black
10
157.419
20
-45.5161
11
157.417
21
-45.5175
0
LINE
8
Black
10
157.417
20
-45.5175
11
157.416
21
-45.5192
0
LINE
8
Black
10
157.416
20
-45.5192
11
157.414
21
-45.5202
0
LINE
8
Black
10
157.414
20
-45.5202
11
157.412
21
-45.5217
0
LINE
8
Black
10
157.412
20
-45.5217
11
157.41
21
-45.5224
0
LINE
8
Black
10
157.41
20
-45.5224
11
157.409
21
-45.5235
0
LINE
8
Black
10
157.409
20
-45.5235
11
157.406
21
-45.5239
0
LINE
8
Black
10
157.406
20
-45.5239
11
157.404
21
-45.5246
0
LINE
8
Black
10
157.404
20
-45.5246
11
157.402
21
-45.5246
0
LINE
8
Black
10
157.402
20
-45.5246
11
157.4
21
-45.525
0
LINE
8
Black
10
157.4
20
-45.525
11
152.6
21
-45.525
0
LINE
8
Black
10
152.6
20
-45.525
11
152.598
21
-45.5246
0
LINE
8
Black
10
152.598
20
-45.5246
11
152.596
21
-45.5246
0
LINE
8
Black
10
152.596
20
-45.5246
11
152.594
21
-45.5239
0
LINE
8
Black
10
152.594
20
-45.5239
11
152.591
21
-45.5235
0
LINE
8
Black
10
152.591
20
-45.5235
11
152.59
21
-45.5224
0
LINE
8
Black
10
152.59
20
-45.5224
11
152.588
21
-45.5217
0
LINE
8
Black
10
152.588
20
-45.5217
11
152.586
21
-45.5202
0
LINE
8
Black
10
152.586
20
-45.5202
11
152.584
21
-45.5192
0
LINE
8
Black
10
152.584
20
-45.5192
11
152.583
21
-45.5175
0
LINE
8
Black
10
152.583
20
-45.5175
11
152.581
21
-45.5161
0
LINE
8
Black
10
152.581
20
-45.5161
11
152.58
21
-45.5142
0
LINE
8
Black
10
152.58
20
-45.5142
11
152.578
21
-45.5125
0
LINE
8
Black
10
152.578
20
-45.5125
11
152.578
21
-45.5104
0
LINE
8
Black
10
152.578
20
-45.5104
11
152.577
21
-45.5086
0
LINE
8
Black
10
152.577
20
-45.5086
11
152.576
21
-45.5064
0
LINE
8
Black
10
152.576
20
-45.5064
11
152.575
21
-45.5043
0
LINE
8
Black
10
152.575
20
-45.5043
11
152.575
21
-45.5022
0
LINE
8
Black
10
152.575
20
-45.5022
11
152.575
21
-45.5
0
LINE
8
Black
10
152.575
20
-45.5
11
152.575
21
-43.5
0
LINE
8
Black
10
152.575
20
-43.5
11
152.575
21
-43.4978
0
LINE
8
Black
10
152.575
20
-43.4978
11
152.575
21
-43.4957
0
LINE
8
Black
10
152.575
20
-43.4957
11
152.576
21
-43.4936
0
LINE
8
Black
10
152.576
20
-43.4936
11
152.577
21
-43.4914
0
LINE
8
Black
10
152.577
20
-43.4914
11
152.578
21
-43.4896
0
LINE
8
Black
10
152.578
20
-43.4896
11
152.578
21
-43.4875
0
LINE
8
Black
10
152.578
20
-43.4875
11
152.58
21
-43.4858
0
LINE
8
Black
10
152.58
20
-43.4858
11
152.581
21
-43.4839
0
LINE
8
Black
10
152.581
20
-43.4839
11
152.583
21
-43.4825
0
LINE
8
Black
10
152.583
20
-43.4825
11
152.584
21
-43.4808
0
LINE
8
Black
10
152.584
20
-43.4808
11
152.586
21
-43.4798
0
LINE
8
Black
10
152.586
20
-43.4798
11
152.588
21
-43.4783
0
LINE
8
Black
10
152.588
20
-43.4783
11
152.59
21
-43.4776
0
LINE
8
Black
10
152.59
20
-43.4776
11
152.591
21
-43.4765
0
LINE
8
Black
10
152.591
20
-43.4765
11
152.594
21
-43.4761
0
LINE
8
Black
10
152.594
20
-43.4761
11
152.596
21
-43.4754
0
LINE
8
Black
10
152.596
20
-43.4754
11
152.598
21
-43.4754
0
LINE
8
Black
10
152.598
20
-43.4754
11
152.6
21
-43.475
0
LINE
8
Black
10
152.6
20
-43.475
11
157.4
21
-43.475
0
LINE
8
Black
10
157.4
20
-43.475
11
157.402
21
-43.4754
0
LINE
8
Black
10
152.625
20
-43.525
11
152.625
21
-45.475
0
LINE
8
Black
10
152.625
20
-45.475
11
157.375
21
-45.475
0
LINE
8
Black
10
157.375
20
-45.475
11
157.375
21
-43.525
0
LINE
8
Black
10
157.375
20
-43.525
11
152.625
21
-43.525
0
LINE
8
Black
10
148.998
20
-28.4246
11
148.996
21
-28.4246
0
LINE
8
Black
10
148.996
20
-28.4246
11
148.994
21
-28.4239
0
LINE
8
Black
10
148.994
20
-28.4239
11
148.991
21
-28.4235
0
LINE
8
Black
10
148.991
20
-28.4235
11
148.99
21
-28.4224
0
LINE
8
Black
10
148.99
20
-28.4224
11
148.987
21
-28.4217
0
LINE
8
Black
10
148.987
20
-28.4217
11
148.986
21
-28.4202
0
LINE
8
Black
10
148.986
20
-28.4202
11
148.984
21
-28.4192
0
LINE
8
Black
10
148.984
20
-28.4192
11
148.983
21
-28.4175
0
LINE
8
Black
10
148.983
20
-28.4175
11
148.981
21
-28.4161
0
LINE
8
Black
10
148.981
20
-28.4161
11
148.98
21
-28.4142
0
LINE
8
Black
10
148.98
20
-28.4142
11
148.978
21
-28.4125
0
LINE
8
Black
10
148.978
20
-28.4125
11
148.978
21
-28.4104
0
LINE
8
Black
10
148.978
20
-28.4104
11
148.977
21
-28.4086
0
LINE
8
Black
10
148.977
20
-28.4086
11
148.976
21
-28.4064
0
LINE
8
Black
10
148.976
20
-28.4064
11
148.975
21
-28.4043
0
LINE
8
Black
10
148.975
20
-28.4043
11
148.975
21
-28.4022
0
LINE
8
Black
10
148.975
20
-28.4022
11
148.975
21
-28.4
0
LINE
8
Black
10
148.975
20
-28.4
11
148.975
21
-23.6
0
LINE
8
Black
10
148.975
20
-23.6
11
148.975
21
-23.5978
0
LINE
8
Black
10
148.975
20
-23.5978
11
148.975
21
-23.5957
0
LINE
8
Black
10
148.975
20
-23.5957
11
148.976
21
-23.5936
0
LINE
8
Black
10
148.976
20
-23.5936
11
148.977
21
-23.5914
0
LINE
8
Black
10
148.977
20
-23.5914
11
148.978
21
-23.5896
0
LINE
8
Black
10
148.978
20
-23.5896
11
148.978
21
-23.5875
0
LINE
8
Black
10
148.978
20
-23.5875
11
148.98
21
-23.5858
0
LINE
8
Black
10
148.98
20
-23.5858
11
148.981
21
-23.5839
0
LINE
8
Black
10
148.981
20
-23.5839
11
148.983
21
-23.5825
0
LINE
8
Black
10
148.983
20
-23.5825
11
148.984
21
-23.5808
0
LINE
8
Black
10
148.984
20
-23.5808
11
148.986
21
-23.5798
0
LINE
8
Black
10
148.986
20
-23.5798
11
148.987
21
-23.5783
0
LINE
8
Black
10
148.987
20
-23.5783
11
148.99
21
-23.5776
0
LINE
8
Black
10
148.99
20
-23.5776
11
148.991
21
-23.5765
0
LINE
8
Black
10
148.991
20
-23.5765
11
148.994
21
-23.5761
0
LINE
8
Black
10
148.994
20
-23.5761
11
148.996
21
-23.5754
0
LINE
8
Black
10
148.996
20
-23.5754
11
148.998
21
-23.5754
0
LINE
8
Black
10
148.998
20
-23.5754
11
149
21
-23.575
0
LINE
8
Black
10
149
20
-23.575
11
151
21
-23.575
0
LINE
8
Black
10
151
20
-23.575
11
153
21
-23.575
0
LINE
8
Black
10
153
20
-23.575
11
153.002
21
-23.5754
0
LINE
8
Black
10
153.002
20
-23.5754
11
153.004
21
-23.5754
0
LINE
8
Black
10
153.004
20
-23.5754
11
153.006
21
-23.5761
0
LINE
8
Black
10
153.006
20
-23.5761
11
153.009
21
-23.5765
0
LINE
8
Black
10
153.009
20
-23.5765
11
153.01
21
-23.5776
0
LINE
8
Black
10
153.01
20
-23.5776
11
153.012
21
-23.5783
0
LINE
8
Black
10
153.012
20
-23.5783
11
153.014
21
-23.5798
0
LINE
8
Black
10
153.014
20
-23.5798
11
153.016
21
-23.5808
0
LINE
8
Black
10
153.016
20
-23.5808
11
153.017
21
-23.5825
0
LINE
8
Black
10
153.017
20
-23.5825
11
153.019
21
-23.5839
0
LINE
8
Black
10
153.019
20
-23.5839
11
153.02
21
-23.5858
0
LINE
8
Black
10
153.02
20
-23.5858
11
153.022
21
-23.5875
0
LINE
8
Black
10
153.022
20
-23.5875
11
153.022
21
-23.5896
0
LINE
8
Black
10
153.022
20
-23.5896
11
153.023
21
-23.5914
0
LINE
8
Black
10
153.023
20
-23.5914
11
153.024
21
-23.5936
0
LINE
8
Black
10
153.024
20
-23.5936
11
153.025
21
-23.5957
0
LINE
8
Black
10
153.025
20
-23.5957
11
153.025
21
-23.5978
0
LINE
8
Black
10
153.025
20
-23.5978
11
153.025
21
-23.6
0
LINE
8
Black
10
153.025
20
-23.6
11
153.025
21
-28.4
0
LINE
8
Black
10
153.025
20
-28.4
11
153.025
21
-28.4022
0
LINE
8
Black
10
153.025
20
-28.4022
11
153.025
21
-28.4043
0
LINE
8
Black
10
153.025
20
-28.4043
11
153.024
21
-28.4064
0
LINE
8
Black
10
153.024
20
-28.4064
11
153.023
21
-28.4086
0
LINE
8
Black
10
153.023
20
-28.4086
11
153.022
21
-28.4104
0
LINE
8
Black
10
153.022
20
-28.4104
11
153.022
21
-28.4125
0
LINE
8
Black
10
153.022
20
-28.4125
11
153.02
21
-28.4142
0
LINE
8
Black
10
153.02
20
-28.4142
11
153.019
21
-28.4161
0
LINE
8
Black
10
153.019
20
-28.4161
11
153.017
21
-28.4175
0
LINE
8
Black
10
153.017
20
-28.4175
11
153.016
21
-28.4192
0
LINE
8
Black
10
153.016
20
-28.4192
11
153.014
21
-28.4202
0
LINE
8
Black
10
153.014
20
-28.4202
11
153.012
21
-28.4217
0
LINE
8
Black
10
153.012
20
-28.4217
11
153.01
21
-28.4224
0
LINE
8
Black
10
153.01
20
-28.4224
11
153.009
21
-28.4235
0
LINE
8
Black
10
153.009
20
-28.4235
11
153.006
21
-28.4239
0
LINE
8
Black
10
153.006
20
-28.4239
11
153.004
21
-28.4246
0
LINE
8
Black
10
153.004
20
-28.4246
11
153.002
21
-28.4246
0
LINE
8
Black
10
153.002
20
-28.4246
11
153
21
-28.425
0
LINE
8
Black
10
153
20
-28.425
11
151
21
-28.425
0
LINE
8
Black
10
151
20
-28.425
11
149
21
-28.425
0
LINE
8
Black
10
149
20
-28.425
11
148.998
21
-28.4246
0
LINE
8
Black
10
151.025
20
-23.625
11
151.025
21
-28.375
0
LINE
8
Black
10
151.025
20
-28.375
11
152.975
21
-28.375
0
LINE
8
Black
10
152.975
20
-28.375
11
152.975
21
-23.625
0
LINE
8
Black
10
152.975
20
-23.625
11
151.025
21
-23.625
0
LINE
8
Black
10
149.025
20
-23.625
11
149.025
21
-28.375
0
LINE
8
Black
10
149.025
20
-28.375
11
150.975
21
-28.375
0
LINE
8
Black
10
150.975
20
-28.375
11
150.975
21
-23.625
0
LINE
8
Black
10
150.975
20
-23.625
11
149.025
21
-23.625
0
LINE
8
Black
10
134.802
20
-23.9754
11
134.804
21
-23.9754
0
LINE
8
Black
10
134.804
20
-23.9754
11
134.806
21
-23.9761
0
LINE
8
Black
10
134.806
20
-23.9761
11
134.809
21
-23.9765
0
LINE
8
Black
10
134.809
20
-23.9765
11
134.81
21
-23.9776
0
LINE
8
Black
10
134.81
20
-23.9776
11
134.812
21
-23.9783
0
LINE
8
Black
10
134.812
20
-23.9783
11
134.814
21
-23.9798
0
LINE
8
Black
10
134.814
20
-23.9798
11
134.816
21
-23.9808
0
LINE
8
Black
10
134.816
20
-23.9808
11
134.817
21
-23.9825
0
LINE
8
Black
10
134.817
20
-23.9825
11
134.819
21
-23.9839
0
LINE
8
Black
10
134.819
20
-23.9839
11
134.82
21
-23.9858
0
LINE
8
Black
10
134.82
20
-23.9858
11
134.822
21
-23.9875
0
LINE
8
Black
10
134.822
20
-23.9875
11
134.822
21
-23.9896
0
LINE
8
Black
10
134.822
20
-23.9896
11
134.823
21
-23.9914
0
LINE
8
Black
10
134.823
20
-23.9914
11
134.824
21
-23.9936
0
LINE
8
Black
10
134.824
20
-23.9936
11
134.825
21
-23.9957
0
LINE
8
Black
10
134.825
20
-23.9957
11
134.825
21
-23.9978
0
LINE
8
Black
10
134.825
20
-23.9978
11
134.825
21
-24
0
LINE
8
Black
10
134.825
20
-24
11
134.825
21
-26
0
LINE
8
Black
10
134.825
20
-26
11
134.825
21
-28
0
LINE
8
Black
10
134.825
20
-28
11
134.825
21
-28.0022
0
LINE
8
Black
10
134.825
20
-28.0022
11
134.825
21
-28.0043
0
LINE
8
Black
10
134.825
20
-28.0043
11
134.824
21
-28.0064
0
LINE
8
Black
10
134.824
20
-28.0064
11
134.823
21
-28.0086
0
LINE
8
Black
10
134.823
20
-28.0086
11
134.822
21
-28.0104
0
LINE
8
Black
10
134.822
20
-28.0104
11
134.822
21
-28.0125
0
LINE
8
Black
10
134.822
20
-28.0125
11
134.82
21
-28.0142
0
LINE
8
Black
10
134.82
20
-28.0142
11
134.819
21
-28.0161
0
LINE
8
Black
10
134.819
20
-28.0161
11
134.817
21
-28.0175
0
LINE
8
Black
10
134.817
20
-28.0175
11
134.816
21
-28.0192
0
LINE
8
Black
10
134.816
20
-28.0192
11
134.814
21
-28.0202
0
LINE
8
Black
10
134.814
20
-28.0202
11
134.812
21
-28.0217
0
LINE
8
Black
10
134.812
20
-28.0217
11
134.81
21
-28.0224
0
LINE
8
Black
10
134.81
20
-28.0224
11
134.809
21
-28.0235
0
LINE
8
Black
10
134.809
20
-28.0235
11
134.806
21
-28.0239
0
LINE
8
Black
10
134.806
20
-28.0239
11
134.804
21
-28.0246
0
LINE
8
Black
10
134.804
20
-28.0246
11
134.802
21
-28.0246
0
LINE
8
Black
10
134.802
20
-28.0246
11
134.8
21
-28.025
0
LINE
8
Black
10
134.8
20
-28.025
11
130.2
21
-28.025
0
LINE
8
Black
10
130.2
20
-28.025
11
130.198
21
-28.0246
0
LINE
8
Black
10
130.198
20
-28.0246
11
130.196
21
-28.0246
0
LINE
8
Black
10
130.196
20
-28.0246
11
130.194
21
-28.0239
0
LINE
8
Black
10
130.194
20
-28.0239
11
130.191
21
-28.0235
0
LINE
8
Black
10
130.191
20
-28.0235
11
130.19
21
-28.0224
0
LINE
8
Black
10
130.19
20
-28.0224
11
130.188
21
-28.0217
0
LINE
8
Black
10
130.188
20
-28.0217
11
130.186
21
-28.0202
0
LINE
8
Black
10
130.186
20
-28.0202
11
130.184
21
-28.0192
0
LINE
8
Black
10
130.184
20
-28.0192
11
130.183
21
-28.0175
0
LINE
8
Black
10
130.183
20
-28.0175
11
130.181
21
-28.0161
0
LINE
8
Black
10
130.181
20
-28.0161
11
130.18
21
-28.0142
0
LINE
8
Black
10
130.18
20
-28.0142
11
130.178
21
-28.0125
0
LINE
8
Black
10
130.178
20
-28.0125
11
130.178
21
-28.0104
0
LINE
8
Black
10
130.178
20
-28.0104
11
130.177
21
-28.0086
0
LINE
8
Black
10
130.177
20
-28.0086
11
130.176
21
-28.0064
0
LINE
8
Black
10
130.176
20
-28.0064
11
130.175
21
-28.0043
0
LINE
8
Black
10
130.175
20
-28.0043
11
130.175
21
-28.0022
0
LINE
8
Black
10
130.175
20
-28.0022
11
130.175
21
-28
0
LINE
8
Black
10
130.175
20
-28
11
130.175
21
-26
0
LINE
8
Black
10
130.175
20
-26
11
130.175
21
-24
0
LINE
8
Black
10
130.175
20
-24
11
130.175
21
-23.9978
0
LINE
8
Black
10
130.175
20
-23.9978
11
130.175
21
-23.9957
0
LINE
8
Black
10
130.175
20
-23.9957
11
130.176
21
-23.9936
0
LINE
8
Black
10
130.176
20
-23.9936
11
130.177
21
-23.9914
0
LINE
8
Black
10
130.177
20
-23.9914
11
130.178
21
-23.9896
0
LINE
8
Black
10
130.178
20
-23.9896
11
130.178
21
-23.9875
0
LINE
8
Black
10
130.178
20
-23.9875
11
130.18
21
-23.9858
0
LINE
8
Black
10
130.18
20
-23.9858
11
130.181
21
-23.9839
0
LINE
8
Black
10
130.181
20
-23.9839
11
130.183
21
-23.9825
0
LINE
8
Black
10
130.183
20
-23.9825
11
130.184
21
-23.9808
0
LINE
8
Black
10
130.184
20
-23.9808
11
130.186
21
-23.9798
0
LINE
8
Black
10
130.186
20
-23.9798
11
130.188
21
-23.9783
0
LINE
8
Black
10
130.188
20
-23.9783
11
130.19
21
-23.9776
0
LINE
8
Black
10
130.19
20
-23.9776
11
130.191
21
-23.9765
0
LINE
8
Black
10
130.191
20
-23.9765
11
130.194
21
-23.9761
0
LINE
8
Black
10
130.194
20
-23.9761
11
130.196
21
-23.9754
0
LINE
8
Black
10
130.196
20
-23.9754
11
130.198
21
-23.9754
0
LINE
8
Black
10
130.198
20
-23.9754
11
130.2
21
-23.975
0
LINE
8
Black
10
130.2
20
-23.975
11
134.8
21
-23.975
0
LINE
8
Black
10
134.8
20
-23.975
11
134.802
21
-23.9754
0
LINE
8
Black
10
130.225
20
-26.025
11
130.225
21
-27.975
0
LINE
8
Black
10
130.225
20
-27.975
11
134.775
21
-27.975
0
LINE
8
Black
10
134.775
20
-27.975
11
134.775
21
-26.025
0
LINE
8
Black
10
134.775
20
-26.025
11
130.225
21
-26.025
0
LINE
8
Black
10
130.225
20
-24.025
11
130.225
21
-25.975
0
LINE
8
Black
10
130.225
20
-25.975
11
134.775
21
-25.975
0
LINE
8
Black
10
134.775
20
-25.975
11
134.775
21
-24.025
0
LINE
8
Black
10
134.775
20
-24.025
11
130.225
21
-24.025
0
LINE
8
Black
10
142.302
20
-23.9754
11
142.304
21
-23.9754
0
LINE
8
Black
10
142.304
20
-23.9754
11
142.306
21
-23.9761
0
LINE
8
Black
10
142.306
20
-23.9761
11
142.309
21
-23.9765
0
LINE
8
Black
10
142.309
20
-23.9765
11
142.31
21
-23.9776
0
LINE
8
Black
10
142.31
20
-23.9776
11
142.312
21
-23.9783
0
LINE
8
Black
10
142.312
20
-23.9783
11
142.314
21
-23.9798
0
LINE
8
Black
10
142.314
20
-23.9798
11
142.316
21
-23.9808
0
LINE
8
Black
10
142.316
20
-23.9808
11
142.317
21
-23.9825
0
LINE
8
Black
10
142.317
20
-23.9825
11
142.319
21
-23.9839
0
LINE
8
Black
10
142.319
20
-23.9839
11
142.32
21
-23.9858
0
LINE
8
Black
10
142.32
20
-23.9858
11
142.322
21
-23.9875
0
LINE
8
Black
10
142.322
20
-23.9875
11
142.322
21
-23.9896
0
LINE
8
Black
10
142.322
20
-23.9896
11
142.323
21
-23.9914
0
LINE
8
Black
10
142.323
20
-23.9914
11
142.324
21
-23.9936
0
LINE
8
Black
10
142.324
20
-23.9936
11
142.325
21
-23.9957
0
LINE
8
Black
10
142.325
20
-23.9957
11
142.325
21
-23.9978
0
LINE
8
Black
10
142.325
20
-23.9978
11
142.325
21
-24
0
LINE
8
Black
10
142.325
20
-24
11
142.325
21
-26
0
LINE
8
Black
10
142.325
20
-26
11
142.325
21
-28
0
LINE
8
Black
10
142.325
20
-28
11
142.325
21
-28.0022
0
LINE
8
Black
10
142.325
20
-28.0022
11
142.325
21
-28.0043
0
LINE
8
Black
10
142.325
20
-28.0043
11
142.324
21
-28.0064
0
LINE
8
Black
10
142.324
20
-28.0064
11
142.323
21
-28.0086
0
LINE
8
Black
10
142.323
20
-28.0086
11
142.322
21
-28.0104
0
LINE
8
Black
10
142.322
20
-28.0104
11
142.322
21
-28.0125
0
LINE
8
Black
10
142.322
20
-28.0125
11
142.32
21
-28.0142
0
LINE
8
Black
10
142.32
20
-28.0142
11
142.319
21
-28.0161
0
LINE
8
Black
10
142.319
20
-28.0161
11
142.317
21
-28.0175
0
LINE
8
Black
10
142.317
20
-28.0175
11
142.316
21
-28.0192
0
LINE
8
Black
10
142.316
20
-28.0192
11
142.314
21
-28.0202
0
LINE
8
Black
10
142.314
20
-28.0202
11
142.312
21
-28.0217
0
LINE
8
Black
10
142.312
20
-28.0217
11
142.31
21
-28.0224
0
LINE
8
Black
10
142.31
20
-28.0224
11
142.309
21
-28.0235
0
LINE
8
Black
10
142.309
20
-28.0235
11
142.306
21
-28.0239
0
LINE
8
Black
10
142.306
20
-28.0239
11
142.304
21
-28.0246
0
LINE
8
Black
10
142.304
20
-28.0246
11
142.302
21
-28.0246
0
LINE
8
Black
10
142.302
20
-28.0246
11
142.3
21
-28.025
0
LINE
8
Black
10
142.3
20
-28.025
11
137.7
21
-28.025
0
LINE
8
Black
10
137.7
20
-28.025
11
137.698
21
-28.0246
0
LINE
8
Black
10
137.698
20
-28.0246
11
137.696
21
-28.0246
0
LINE
8
Black
10
137.696
20
-28.0246
11
137.694
21
-28.0239
0
LINE
8
Black
10
137.694
20
-28.0239
11
137.691
21
-28.0235
0
LINE
8
Black
10
137.691
20
-28.0235
11
137.69
21
-28.0224
0
LINE
8
Black
10
137.69
20
-28.0224
11
137.688
21
-28.0217
0
LINE
8
Black
10
137.688
20
-28.0217
11
137.686
21
-28.0202
0
LINE
8
Black
10
137.686
20
-28.0202
11
137.684
21
-28.0192
0
LINE
8
Black
10
137.684
20
-28.0192
11
137.683
21
-28.0175
0
LINE
8
Black
10
137.683
20
-28.0175
11
137.681
21
-28.0161
0
LINE
8
Black
10
137.681
20
-28.0161
11
137.68
21
-28.0142
0
LINE
8
Black
10
137.68
20
-28.0142
11
137.678
21
-28.0125
0
LINE
8
Black
10
137.678
20
-28.0125
11
137.678
21
-28.0104
0
LINE
8
Black
10
137.678
20
-28.0104
11
137.677
21
-28.0086
0
LINE
8
Black
10
137.677
20
-28.0086
11
137.676
21
-28.0064
0
LINE
8
Black
10
137.676
20
-28.0064
11
137.675
21
-28.0043
0
LINE
8
Black
10
137.675
20
-28.0043
11
137.675
21
-28.0022
0
LINE
8
Black
10
137.675
20
-28.0022
11
137.675
21
-28
0
LINE
8
Black
10
137.675
20
-28
11
137.675
21
-26
0
LINE
8
Black
10
137.675
20
-26
11
137.675
21
-24
0
LINE
8
Black
10
137.675
20
-24
11
137.675
21
-23.9978
0
LINE
8
Black
10
137.675
20
-23.9978
11
137.675
21
-23.9957
0
LINE
8
Black
10
137.675
20
-23.9957
11
137.676
21
-23.9936
0
LINE
8
Black
10
137.676
20
-23.9936
11
137.677
21
-23.9914
0
LINE
8
Black
10
137.677
20
-23.9914
11
137.678
21
-23.9896
0
LINE
8
Black
10
137.678
20
-23.9896
11
137.678
21
-23.9875
0
LINE
8
Black
10
137.678
20
-23.9875
11
137.68
21
-23.9858
0
LINE
8
Black
10
137.68
20
-23.9858
11
137.681
21
-23.9839
0
LINE
8
Black
10
137.681
20
-23.9839
11
137.683
21
-23.9825
0
LINE
8
Black
10
137.683
20
-23.9825
11
137.684
21
-23.9808
0
LINE
8
Black
10
137.684
20
-23.9808
11
137.686
21
-23.9798
0
LINE
8
Black
10
137.686
20
-23.9798
11
137.688
21
-23.9783
0
LINE
8
Black
10
137.688
20
-23.9783
11
137.69
21
-23.9776
0
LINE
8
Black
10
137.69
20
-23.9776
11
137.691
21
-23.9765
0
LINE
8
Black
10
137.691
20
-23.9765
11
137.694
21
-23.9761
0
LINE
8
Black
10
137.694
20
-23.9761
11
137.696
21
-23.9754
0
LINE
8
Black
10
137.696
20
-23.9754
11
137.698
21
-23.9754
0
LINE
8
Black
10
137.698
20
-23.9754
11
137.7
21
-23.975
0
LINE
8
Black
10
137.7
20
-23.975
11
142.3
21
-23.975
0
LINE
8
Black
10
142.3
20
-23.975
11
142.302
21
-23.9754
0
LINE
8
Black
10
137.725
20
-26.025
11
137.725
21
-27.975
0
LINE
8
Black
10
137.725
20
-27.975
11
142.275
21
-27.975
0
LINE
8
Black
10
142.275
20
-27.975
11
142.275
21
-26.025
0
LINE
8
Black
10
142.275
20
-26.025
11
137.725
21
-26.025
0
LINE
8
Black
10
137.725
20
-24.025
11
137.725
21
-25.975
0
LINE
8
Black
10
137.725
20
-25.975
11
142.275
21
-25.975
0
LINE
8
Black
10
142.275
20
-25.975
11
142.275
21
-24.025
0
LINE
8
Black
10
142.275
20
-24.025
11
137.725
21
-24.025
0
LINE
8
Black
10
151.702
20
-6.12538
11
151.704
21
-6.12538
0
LINE
8
Black
10
151.704
20
-6.12538
11
151.706
21
-6.12613
0
LINE
8
Black
10
151.706
20
-6.12613
11
151.709
21
-6.12651
0
LINE
8
Black
10
151.709
20
-6.12651
11
151.71
21
-6.1276
0
LINE
8
Black
10
151.71
20
-6.1276
11
151.713
21
-6.12835
0
LINE
8
Black
10
151.713
20
-6.12835
11
151.714
21
-6.12976
0
LINE
8
Black
10
151.714
20
-6.12976
11
151.716
21
-6.13085
0
LINE
8
Black
10
151.716
20
-6.13085
11
151.717
21
-6.13252
0
LINE
8
Black
10
151.717
20
-6.13252
11
151.719
21
-6.13393
0
LINE
8
Black
10
151.719
20
-6.13393
11
151.72
21
-6.13582
0
LINE
8
Black
10
151.72
20
-6.13582
11
151.722
21
-6.1375
0
LINE
8
Black
10
151.722
20
-6.1375
11
151.722
21
-6.13956
0
LINE
8
Black
10
151.722
20
-6.13956
11
151.723
21
-6.14145
0
LINE
8
Black
10
151.723
20
-6.14145
11
151.724
21
-6.1436
0
LINE
8
Black
10
151.724
20
-6.1436
11
151.725
21
-6.14566
0
LINE
8
Black
10
151.725
20
-6.14566
11
151.725
21
-6.14784
0
LINE
8
Black
10
151.725
20
-6.14784
11
151.725
21
-6.15
0
LINE
8
Black
10
151.725
20
-6.15
11
151.725
21
-15.85
0
LINE
8
Black
10
151.725
20
-15.85
11
151.725
21
-15.8522
0
LINE
8
Black
10
151.725
20
-15.8522
11
151.725
21
-15.8543
0
LINE
8
Black
10
151.725
20
-15.8543
11
151.724
21
-15.8564
0
LINE
8
Black
10
151.724
20
-15.8564
11
151.723
21
-15.8586
0
LINE
8
Black
10
151.723
20
-15.8586
11
151.722
21
-15.8604
0
LINE
8
Black
10
151.722
20
-15.8604
11
151.722
21
-15.8625
0
LINE
8
Black
10
151.722
20
-15.8625
11
151.72
21
-15.8642
0
LINE
8
Black
10
151.72
20
-15.8642
11
151.719
21
-15.8661
0
LINE
8
Black
10
151.719
20
-15.8661
11
151.717
21
-15.8675
0
LINE
8
Black
10
151.717
20
-15.8675
11
151.716
21
-15.8692
0
LINE
8
Black
10
151.716
20
-15.8692
11
151.714
21
-15.8702
0
LINE
8
Black
10
151.714
20
-15.8702
11
151.713
21
-15.8717
0
LINE
8
Black
10
151.713
20
-15.8717
11
151.71
21
-15.8724
0
LINE
8
Black
10
151.71
20
-15.8724
11
151.709
21
-15.8735
0
LINE
8
Black
10
151.709
20
-15.8735
11
151.706
21
-15.8739
0
LINE
8
Black
10
151.706
20
-15.8739
11
151.704
21
-15.8746
0
LINE
8
Black
10
151.704
20
-15.8746
11
151.702
21
-15.8746
0
LINE
8
Black
10
151.702
20
-15.8746
11
151.7
21
-15.875
0
LINE
8
Black
10
151.7
20
-15.875
11
140.3
21
-15.875
0
LINE
8
Black
10
140.3
20
-15.875
11
140.298
21
-15.8746
0
LINE
8
Black
10
140.298
20
-15.8746
11
140.296
21
-15.8746
0
LINE
8
Black
10
140.296
20
-15.8746
11
140.294
21
-15.8739
0
LINE
8
Black
10
140.294
20
-15.8739
11
140.291
21
-15.8735
0
LINE
8
Black
10
140.291
20
-15.8735
11
140.29
21
-15.8724
0
LINE
8
Black
10
140.29
20
-15.8724
11
140.287
21
-15.8717
0
LINE
8
Black
10
140.287
20
-15.8717
11
140.286
21
-15.8702
0
LINE
8
Black
10
140.286
20
-15.8702
11
140.284
21
-15.8692
0
LINE
8
Black
10
140.284
20
-15.8692
11
140.283
21
-15.8675
0
LINE
8
Black
10
140.283
20
-15.8675
11
140.281
21
-15.8661
0
LINE
8
Black
10
140.281
20
-15.8661
11
140.28
21
-15.8642
0
LINE
8
Black
10
140.28
20
-15.8642
11
140.278
21
-15.8625
0
LINE
8
Black
10
140.278
20
-15.8625
11
140.278
21
-15.8604
0
LINE
8
Black
10
140.278
20
-15.8604
11
140.277
21
-15.8586
0
LINE
8
Black
10
140.277
20
-15.8586
11
140.276
21
-15.8564
0
LINE
8
Black
10
140.276
20
-15.8564
11
140.275
21
-15.8543
0
LINE
8
Black
10
140.275
20
-15.8543
11
140.275
21
-15.8522
0
LINE
8
Black
10
140.275
20
-15.8522
11
140.275
21
-15.85
0
LINE
8
Black
10
140.275
20
-15.85
11
140.275
21
-6.15
0
LINE
8
Black
10
140.275
20
-6.15
11
140.275
21
-6.14784
0
LINE
8
Black
10
140.275
20
-6.14784
11
140.275
21
-6.14566
0
LINE
8
Black
10
140.275
20
-6.14566
11
140.276
21
-6.1436
0
LINE
8
Black
10
140.276
20
-6.1436
11
140.277
21
-6.14145
0
LINE
8
Black
10
140.277
20
-6.14145
11
140.278
21
-6.13956
0
LINE
8
Black
10
140.278
20
-6.13956
11
140.278
21
-6.1375
0
LINE
8
Black
10
140.278
20
-6.1375
11
140.28
21
-6.13582
0
LINE
8
Black
10
140.28
20
-6.13582
11
140.281
21
-6.13393
0
LINE
8
Black
10
140.281
20
-6.13393
11
140.283
21
-6.13252
0
LINE
8
Black
10
140.283
20
-6.13252
11
140.284
21
-6.13085
0
LINE
8
Black
10
140.284
20
-6.13085
11
140.286
21
-6.12976
0
LINE
8
Black
10
140.286
20
-6.12976
11
140.287
21
-6.12835
0
LINE
8
Black
10
140.287
20
-6.12835
11
140.29
21
-6.1276
0
LINE
8
Black
10
140.29
20
-6.1276
11
140.291
21
-6.12651
0
LINE
8
Black
10
140.291
20
-6.12651
11
140.294
21
-6.12613
0
LINE
8
Black
10
140.294
20
-6.12613
11
140.296
21
-6.12538
0
LINE
8
Black
10
140.296
20
-6.12538
11
140.298
21
-6.12538
0
LINE
8
Black
10
140.298
20
-6.12538
11
140.3
21
-6.125
0
LINE
8
Black
10
140.3
20
-6.125
11
151.7
21
-6.125
0
LINE
8
Black
10
151.7
20
-6.125
11
151.702
21
-6.12538
0
LINE
8
Black
10
140.325
20
-6.175
11
140.325
21
-15.825
0
LINE
8
Black
10
140.325
20
-15.825
11
151.675
21
-15.825
0
LINE
8
Black
10
151.675
20
-15.825
11
151.675
21
-6.175
0
LINE
8
Black
10
151.675
20
-6.175
11
140.325
21
-6.175
  0
ENDSEC
  0
EOF
