  0
SECTION
  2
HEADER
  9
$ACADVER
  1
AC1009
  9
$EXTMIN
 10
0.0
 20
0.0
 30
0.0
  9
$EXTMAX
 10
1000.0
 20
1000.0
 30
0.0
  9
$FILLMODE
 70
 0
  9
$SPLFRAME
 70
 1
  0
ENDSEC
  0
SECTION
  2
TABLES
  0
TABLE
  2
LAYER
 70
1
  0
LAYER
  2
0
 70
     0
 62
     7
  6
CONTINUOUS
  0
ENDTAB
  0
ENDSEC
  0
SECTION
  2
ENTITIES
  0
LINE
  8
0
 62
     0
 10
272.094
 20
100.094
 30
0.0
 11
272.172
 21
100.091
 31
0.0
  0
LINE
  8
0
 62
     0
 10
272.172
 20
100.091
 30
0.0
 11
272.249
 21
100.081
 31
0.0
  0
LINE
  8
0
 62
     0
 10
272.249
 20
100.081
 30
0.0
 11
272.326
 21
100.066
 31
0.0
  0
LINE
  8
0
 62
     0
 10
272.326
 20
100.066
 30
0.0
 11
272.402
 21
100.044
 31
0.0
  0
LINE
  8
0
 62
     0
 10
272.402
 20
100.044
 30
0.0
 11
272.477
 21
100.018
 31
0.0
  0
LINE
  8
0
 62
     0
 10
272.477
 20
100.018
 30
0.0
 11
272.548
 21
99.985
 31
0.0
  0
LINE
  8
0
 62
     0
 10
272.548
 20
99.985
 30
0.0
 11
272.616
 21
99.9465
 31
0.0
  0
LINE
  8
0
 62
     0
 10
272.616
 20
99.9465
 30
0.0
 11
272.682
 21
99.9024
 31
0.0
  0
LINE
  8
0
 62
     0
 10
272.682
 20
99.9024
 30
0.0
 11
272.743
 21
99.8541
 31
0.0
  0
LINE
  8
0
 62
     0
 10
272.743
 20
99.8541
 30
0.0
 11
272.801
 21
99.8001
 31
0.0
  0
LINE
  8
0
 62
     0
 10
272.801
 20
99.8001
 30
0.0
 11
272.854
 21
99.7423
 31
0.0
  0
LINE
  8
0
 62
     0
 10
272.854
 20
99.7423
 30
0.0
 11
272.903
 21
99.6819
 31
0.0
  0
LINE
  8
0
 62
     0
 10
272.903
 20
99.6819
 30
0.0
 11
272.947
 21
99.6156
 31
0.0
  0
LINE
  8
0
 62
     0
 10
272.947
 20
99.6156
 30
0.0
 11
272.985
 21
99.5482
 31
0.0
  0
LINE
  8
0
 62
     0
 10
272.985
 20
99.5482
 30
0.0
 11
273.018
 21
99.4763
 31
0.0
  0
LINE
  8
0
 62
     0
 10
273.018
 20
99.4763
 30
0.0
 11
273.044
 21
99.4033
 31
0.0
  0
LINE
  8
0
 62
     0
 10
273.044
 20
99.4033
 30
0.0
 11
273.065
 21
99.3263
 31
0.0
  0
LINE
  8
0
 62
     0
 10
273.065
 20
99.3263
 30
0.0
 11
273.082
 21
99.2505
 31
0.0
  0
LINE
  8
0
 62
     0
 10
273.082
 20
99.2505
 30
0.0
 11
273.091
 21
99.1718
 31
0.0
  0
LINE
  8
0
 62
     0
 10
273.091
 20
99.1718
 30
0.0
 11
273.094
 21
99.0935
 31
0.0
  0
LINE
  8
0
 62
     0
 10
273.094
 20
99.0935
 30
0.0
 11
273.094
 21
1.09416
 31
0.0
  0
LINE
  8
0
 62
     0
 10
273.094
 20
1.09416
 30
0.0
 11
273.091
 21
1.01562
 31
0.0
  0
LINE
  8
0
 62
     0
 10
273.091
 20
1.01562
 30
0.0
 11
273.082
 21
0.938445
 31
0.0
  0
LINE
  8
0
 62
     0
 10
273.082
 20
0.938445
 30
0.0
 11
273.065
 21
0.861275
 31
0.0
  0
LINE
  8
0
 62
     0
 10
273.065
 20
0.861275
 30
0.0
 11
273.044
 21
0.784105
 31
0.0
  0
LINE
  8
0
 62
     0
 10
273.044
 20
0.784105
 30
0.0
 11
273.018
 21
0.711069
 31
0.0
  0
LINE
  8
0
 62
     0
 10
273.018
 20
0.711069
 30
0.0
 11
272.985
 21
0.63941
 31
0.0
  0
LINE
  8
0
 62
     0
 10
272.985
 20
0.63941
 30
0.0
 11
272.947
 21
0.571885
 31
0.0
  0
LINE
  8
0
 62
     0
 10
272.947
 20
0.571885
 30
0.0
 11
272.903
 21
0.505739
 31
0.0
  0
LINE
  8
0
 62
     0
 10
272.903
 20
0.505739
 30
0.0
 11
272.854
 21
0.445107
 31
0.0
  0
LINE
  8
0
 62
     0
 10
272.854
 20
0.445107
 30
0.0
 11
272.801
 21
0.38723
 31
0.0
  0
LINE
  8
0
 62
     0
 10
272.801
 20
0.38723
 30
0.0
 11
272.743
 21
0.333485
 31
0.0
  0
LINE
  8
0
 62
     0
 10
272.743
 20
0.333485
 30
0.0
 11
272.682
 21
0.285254
 31
0.0
  0
LINE
  8
0
 62
     0
 10
272.682
 20
0.285254
 30
0.0
 11
272.616
 21
0.241157
 31
0.0
  0
LINE
  8
0
 62
     0
 10
272.616
 20
0.241157
 30
0.0
 11
272.548
 21
0.202572
 31
0.0
  0
LINE
  8
0
 62
     0
 10
272.548
 20
0.202572
 30
0.0
 11
272.477
 21
0.169499
 31
0.0
  0
LINE
  8
0
 62
     0
 10
272.477
 20
0.169499
 30
0.0
 11
272.402
 21
0.143316
 31
0.0
  0
LINE
  8
0
 62
     0
 10
272.402
 20
0.143316
 30
0.0
 11
272.326
 21
0.121267
 31
0.0
  0
LINE
  8
0
 62
     0
 10
272.326
 20
0.121267
 30
0.0
 11
272.249
 21
0.106109
 31
0.0
  0
LINE
  8
0
 62
     0
 10
272.249
 20
0.106109
 30
0.0
 11
272.172
 21
0.0964629
 31
0.0
  0
LINE
  8
0
 62
     0
 10
272.172
 20
0.0964629
 30
0.0
 11
272.094
 21
0.0937066
 31
0.0
  0
LINE
  8
0
 62
     0
 10
272.094
 20
0.0937066
 30
0.0
 11
1.09416
 21
0.0937066
 31
0.0
  0
LINE
  8
0
 62
     0
 10
1.09416
 20
0.0937066
 30
0.0
 11
1.01562
 21
0.0964629
 31
0.0
  0
LINE
  8
0
 62
     0
 10
1.01562
 20
0.0964629
 30
0.0
 11
0.937066
 21
0.106109
 31
0.0
  0
LINE
  8
0
 62
     0
 10
0.937066
 20
0.106109
 30
0.0
 11
0.861275
 21
0.121267
 31
0.0
  0
LINE
  8
0
 62
     0
 10
0.861275
 20
0.121267
 30
0.0
 11
0.784105
 21
0.143316
 31
0.0
  0
LINE
  8
0
 62
     0
 10
0.784105
 20
0.143316
 30
0.0
 11
0.711069
 21
0.169499
 31
0.0
  0
LINE
  8
0
 62
     0
 10
0.711069
 20
0.169499
 30
0.0
 11
0.63941
 21
0.202572
 31
0.0
  0
LINE
  8
0
 62
     0
 10
0.63941
 20
0.202572
 30
0.0
 11
0.571885
 21
0.241157
 31
0.0
  0
LINE
  8
0
 62
     0
 10
0.571885
 20
0.241157
 30
0.0
 11
0.505739
 21
0.285254
 31
0.0
  0
LINE
  8
0
 62
     0
 10
0.505739
 20
0.285254
 30
0.0
 11
0.445107
 21
0.333485
 31
0.0
  0
LINE
  8
0
 62
     0
 10
0.445107
 20
0.333485
 30
0.0
 11
0.38723
 21
0.38723
 31
0.0
  0
LINE
  8
0
 62
     0
 10
0.38723
 20
0.38723
 30
0.0
 11
0.333485
 21
0.445107
 31
0.0
  0
LINE
  8
0
 62
     0
 10
0.333485
 20
0.445107
 30
0.0
 11
0.285254
 21
0.505739
 31
0.0
  0
LINE
  8
0
 62
     0
 10
0.285254
 20
0.505739
 30
0.0
 11
0.241157
 21
0.571885
 31
0.0
  0
LINE
  8
0
 62
     0
 10
0.241157
 20
0.571885
 30
0.0
 11
0.202572
 21
0.63941
 31
0.0
  0
LINE
  8
0
 62
     0
 10
0.202572
 20
0.63941
 30
0.0
 11
0.169499
 21
0.711069
 31
0.0
  0
LINE
  8
0
 62
     0
 10
0.169499
 20
0.711069
 30
0.0
 11
0.143316
 21
0.784105
 31
0.0
  0
LINE
  8
0
 62
     0
 10
0.143316
 20
0.784105
 30
0.0
 11
0.121267
 21
0.861275
 31
0.0
  0
LINE
  8
0
 62
     0
 10
0.121267
 20
0.861275
 30
0.0
 11
0.106109
 21
0.938445
 31
0.0
  0
LINE
  8
0
 62
     0
 10
0.106109
 20
0.938445
 30
0.0
 11
0.0964629
 21
1.01562
 31
0.0
  0
LINE
  8
0
 62
     0
 10
0.0964629
 20
1.01562
 30
0.0
 11
0.0937066
 21
1.09416
 31
0.0
  0
LINE
  8
0
 62
     0
 10
0.0937066
 20
1.09416
 30
0.0
 11
0.0937066
 21
99.0935
 31
0.0
  0
LINE
  8
0
 62
     0
 10
0.0937066
 20
99.0935
 30
0.0
 11
0.0964629
 21
99.1718
 31
0.0
  0
LINE
  8
0
 62
     0
 10
0.0964629
 20
99.1718
 30
0.0
 11
0.106109
 21
99.2505
 31
0.0
  0
LINE
  8
0
 62
     0
 10
0.106109
 20
99.2505
 30
0.0
 11
0.121267
 21
99.3263
 31
0.0
  0
LINE
  8
0
 62
     0
 10
0.121267
 20
99.3263
 30
0.0
 11
0.143316
 21
99.4033
 31
0.0
  0
LINE
  8
0
 62
     0
 10
0.143316
 20
99.4033
 30
0.0
 11
0.169499
 21
99.4763
 31
0.0
  0
LINE
  8
0
 62
     0
 10
0.169499
 20
99.4763
 30
0.0
 11
0.202572
 21
99.5482
 31
0.0
  0
LINE
  8
0
 62
     0
 10
0.202572
 20
99.5482
 30
0.0
 11
0.241157
 21
99.6156
 31
0.0
  0
LINE
  8
0
 62
     0
 10
0.241157
 20
99.6156
 30
0.0
 11
0.285254
 21
99.6819
 31
0.0
  0
LINE
  8
0
 62
     0
 10
0.285254
 20
99.6819
 30
0.0
 11
0.333485
 21
99.7423
 31
0.0
  0
LINE
  8
0
 62
     0
 10
0.333485
 20
99.7423
 30
0.0
 11
0.38723
 21
99.8001
 31
0.0
  0
LINE
  8
0
 62
     0
 10
0.38723
 20
99.8001
 30
0.0
 11
0.445107
 21
99.8541
 31
0.0
  0
LINE
  8
0
 62
     0
 10
0.445107
 20
99.8541
 30
0.0
 11
0.505739
 21
99.9024
 31
0.0
  0
LINE
  8
0
 62
     0
 10
0.505739
 20
99.9024
 30
0.0
 11
0.571885
 21
99.9465
 31
0.0
  0
LINE
  8
0
 62
     0
 10
0.571885
 20
99.9465
 30
0.0
 11
0.63941
 21
99.985
 31
0.0
  0
LINE
  8
0
 62
     0
 10
0.63941
 20
99.985
 30
0.0
 11
0.711069
 21
100.018
 31
0.0
  0
LINE
  8
0
 62
     0
 10
0.711069
 20
100.018
 30
0.0
 11
0.784105
 21
100.044
 31
0.0
  0
LINE
  8
0
 62
     0
 10
0.784105
 20
100.044
 30
0.0
 11
0.861275
 21
100.066
 31
0.0
  0
LINE
  8
0
 62
     0
 10
0.861275
 20
100.066
 30
0.0
 11
0.937066
 21
100.081
 31
0.0
  0
LINE
  8
0
 62
     0
 10
0.937066
 20
100.081
 30
0.0
 11
1.01562
 21
100.091
 31
0.0
  0
LINE
  8
0
 62
     0
 10
1.01562
 20
100.091
 30
0.0
 11
1.09416
 21
100.094
 31
0.0
  0
LINE
  8
0
 62
     0
 10
1.09416
 20
100.094
 30
0.0
 11
272.094
 21
100.094
 31
0.0
  0
LINE
  8
0
 62
     0
 10
19.7693
 20
82.193
 30
0.0
 11
19.7693
 21
81.1939
 31
0.0
  0
LINE
  8
0
 62
     0
 10
19.7693
 20
81.1939
 30
0.0
 11
5.76848
 21
81.1939
 31
0.0
  0
LINE
  8
0
 62
     0
 10
5.76848
 20
81.1939
 30
0.0
 11
5.76848
 21
82.193
 31
0.0
  0
LINE
  8
0
 62
     0
 10
5.76848
 20
82.193
 30
0.0
 11
4.96919
 21
82.193
 31
0.0
  0
LINE
  8
0
 62
     0
 10
4.96919
 20
82.193
 30
0.0
 11
4.96919
 21
85.2936
 31
0.0
  0
LINE
  8
0
 62
     0
 10
4.96919
 20
85.2936
 30
0.0
 11
5.76848
 21
85.2936
 31
0.0
  0
LINE
  8
0
 62
     0
 10
5.76848
 20
85.2936
 30
0.0
 11
5.76848
 21
91.0939
 31
0.0
  0
LINE
  8
0
 62
     0
 10
5.76848
 20
91.0939
 30
0.0
 11
4.96919
 21
91.0939
 31
0.0
  0
LINE
  8
0
 62
     0
 10
4.96919
 20
91.0939
 30
0.0
 11
4.96919
 21
94.1945
 31
0.0
  0
LINE
  8
0
 62
     0
 10
4.96919
 20
94.1945
 30
0.0
 11
5.76848
 21
94.1945
 31
0.0
  0
LINE
  8
0
 62
     0
 10
5.76848
 20
94.1945
 30
0.0
 11
5.76848
 21
95.1936
 31
0.0
  0
LINE
  8
0
 62
     0
 10
5.76848
 20
95.1936
 30
0.0
 11
19.7693
 21
95.1936
 31
0.0
  0
LINE
  8
0
 62
     0
 10
19.7693
 20
95.1936
 30
0.0
 11
19.7693
 21
94.1945
 31
0.0
  0
LINE
  8
0
 62
     0
 10
19.7693
 20
94.1945
 30
0.0
 11
20.5686
 21
94.1945
 31
0.0
  0
LINE
  8
0
 62
     0
 10
20.5686
 20
94.1945
 30
0.0
 11
20.5686
 21
91.0939
 31
0.0
  0
LINE
  8
0
 62
     0
 10
20.5686
 20
91.0939
 30
0.0
 11
19.7693
 21
91.0939
 31
0.0
  0
LINE
  8
0
 62
     0
 10
19.7693
 20
91.0939
 30
0.0
 11
19.7693
 21
85.2936
 31
0.0
  0
LINE
  8
0
 62
     0
 10
19.7693
 20
85.2936
 30
0.0
 11
20.5686
 21
85.2936
 31
0.0
  0
LINE
  8
0
 62
     0
 10
20.5686
 20
85.2936
 30
0.0
 11
20.5686
 21
82.193
 31
0.0
  0
LINE
  8
0
 62
     0
 10
20.5686
 20
82.193
 30
0.0
 11
19.7693
 21
82.193
 31
0.0
  0
LINE
  8
0
 62
     0
 10
19.7693
 20
63.143
 30
0.0
 11
19.7693
 21
62.1439
 31
0.0
  0
LINE
  8
0
 62
     0
 10
19.7693
 20
62.1439
 30
0.0
 11
5.76848
 21
62.1439
 31
0.0
  0
LINE
  8
0
 62
     0
 10
5.76848
 20
62.1439
 30
0.0
 11
5.76848
 21
63.143
 31
0.0
  0
LINE
  8
0
 62
     0
 10
5.76848
 20
63.143
 30
0.0
 11
4.96919
 21
63.143
 31
0.0
  0
LINE
  8
0
 62
     0
 10
4.96919
 20
63.143
 30
0.0
 11
4.96919
 21
66.2436
 31
0.0
  0
LINE
  8
0
 62
     0
 10
4.96919
 20
66.2436
 30
0.0
 11
5.76848
 21
66.2436
 31
0.0
  0
LINE
  8
0
 62
     0
 10
5.76848
 20
66.2436
 30
0.0
 11
5.76848
 21
72.0439
 31
0.0
  0
LINE
  8
0
 62
     0
 10
5.76848
 20
72.0439
 30
0.0
 11
4.96919
 21
72.0439
 31
0.0
  0
LINE
  8
0
 62
     0
 10
4.96919
 20
72.0439
 30
0.0
 11
4.96919
 21
75.1445
 31
0.0
  0
LINE
  8
0
 62
     0
 10
4.96919
 20
75.1445
 30
0.0
 11
5.76848
 21
75.1445
 31
0.0
  0
LINE
  8
0
 62
     0
 10
5.76848
 20
75.1445
 30
0.0
 11
5.76848
 21
76.1436
 31
0.0
  0
LINE
  8
0
 62
     0
 10
5.76848
 20
76.1436
 30
0.0
 11
19.7693
 21
76.1436
 31
0.0
  0
LINE
  8
0
 62
     0
 10
19.7693
 20
76.1436
 30
0.0
 11
19.7693
 21
75.1445
 31
0.0
  0
LINE
  8
0
 62
     0
 10
19.7693
 20
75.1445
 30
0.0
 11
20.5686
 21
75.1445
 31
0.0
  0
LINE
  8
0
 62
     0
 10
20.5686
 20
75.1445
 30
0.0
 11
20.5686
 21
72.0439
 31
0.0
  0
LINE
  8
0
 62
     0
 10
20.5686
 20
72.0439
 30
0.0
 11
19.7693
 21
72.0439
 31
0.0
  0
LINE
  8
0
 62
     0
 10
19.7693
 20
72.0439
 30
0.0
 11
19.7693
 21
66.2436
 31
0.0
  0
LINE
  8
0
 62
     0
 10
19.7693
 20
66.2436
 30
0.0
 11
20.5686
 21
66.2436
 31
0.0
  0
LINE
  8
0
 62
     0
 10
20.5686
 20
66.2436
 30
0.0
 11
20.5686
 21
63.143
 31
0.0
  0
LINE
  8
0
 62
     0
 10
20.5686
 20
63.143
 30
0.0
 11
19.7693
 21
63.143
 31
0.0
  0
LINE
  8
0
 62
     0
 10
19.7693
 20
44.093
 30
0.0
 11
19.7693
 21
43.0939
 31
0.0
  0
LINE
  8
0
 62
     0
 10
19.7693
 20
43.0939
 30
0.0
 11
5.76848
 21
43.0939
 31
0.0
  0
LINE
  8
0
 62
     0
 10
5.76848
 20
43.0939
 30
0.0
 11
5.76848
 21
44.093
 31
0.0
  0
LINE
  8
0
 62
     0
 10
5.76848
 20
44.093
 30
0.0
 11
4.96919
 21
44.093
 31
0.0
  0
LINE
  8
0
 62
     0
 10
4.96919
 20
44.093
 30
0.0
 11
4.96919
 21
47.1936
 31
0.0
  0
LINE
  8
0
 62
     0
 10
4.96919
 20
47.1936
 30
0.0
 11
5.76848
 21
47.1936
 31
0.0
  0
LINE
  8
0
 62
     0
 10
5.76848
 20
47.1936
 30
0.0
 11
5.76848
 21
52.9939
 31
0.0
  0
LINE
  8
0
 62
     0
 10
5.76848
 20
52.9939
 30
0.0
 11
4.96919
 21
52.9939
 31
0.0
  0
LINE
  8
0
 62
     0
 10
4.96919
 20
52.9939
 30
0.0
 11
4.96919
 21
56.0945
 31
0.0
  0
LINE
  8
0
 62
     0
 10
4.96919
 20
56.0945
 30
0.0
 11
5.76848
 21
56.0945
 31
0.0
  0
LINE
  8
0
 62
     0
 10
5.76848
 20
56.0945
 30
0.0
 11
5.76848
 21
57.0936
 31
0.0
  0
LINE
  8
0
 62
     0
 10
5.76848
 20
57.0936
 30
0.0
 11
19.7693
 21
57.0936
 31
0.0
  0
LINE
  8
0
 62
     0
 10
19.7693
 20
57.0936
 30
0.0
 11
19.7693
 21
56.0945
 31
0.0
  0
LINE
  8
0
 62
     0
 10
19.7693
 20
56.0945
 30
0.0
 11
20.5686
 21
56.0945
 31
0.0
  0
LINE
  8
0
 62
     0
 10
20.5686
 20
56.0945
 30
0.0
 11
20.5686
 21
52.9939
 31
0.0
  0
LINE
  8
0
 62
     0
 10
20.5686
 20
52.9939
 30
0.0
 11
19.7693
 21
52.9939
 31
0.0
  0
LINE
  8
0
 62
     0
 10
19.7693
 20
52.9939
 30
0.0
 11
19.7693
 21
47.1936
 31
0.0
  0
LINE
  8
0
 62
     0
 10
19.7693
 20
47.1936
 30
0.0
 11
20.5686
 21
47.1936
 31
0.0
  0
LINE
  8
0
 62
     0
 10
20.5686
 20
47.1936
 30
0.0
 11
20.5686
 21
44.093
 31
0.0
  0
LINE
  8
0
 62
     0
 10
20.5686
 20
44.093
 30
0.0
 11
19.7693
 21
44.093
 31
0.0
  0
LINE
  8
0
 62
     0
 10
19.7693
 20
25.0431
 30
0.0
 11
19.7693
 21
24.044
 31
0.0
  0
LINE
  8
0
 62
     0
 10
19.7693
 20
24.044
 30
0.0
 11
5.76848
 21
24.044
 31
0.0
  0
LINE
  8
0
 62
     0
 10
5.76848
 20
24.044
 30
0.0
 11
5.76848
 21
25.0431
 31
0.0
  0
LINE
  8
0
 62
     0
 10
5.76848
 20
25.0431
 30
0.0
 11
4.96919
 21
25.0431
 31
0.0
  0
LINE
  8
0
 62
     0
 10
4.96919
 20
25.0431
 30
0.0
 11
4.96919
 21
28.1437
 31
0.0
  0
LINE
  8
0
 62
     0
 10
4.96919
 20
28.1437
 30
0.0
 11
5.76848
 21
28.1437
 31
0.0
  0
LINE
  8
0
 62
     0
 10
5.76848
 20
28.1437
 30
0.0
 11
5.76848
 21
33.9439
 31
0.0
  0
LINE
  8
0
 62
     0
 10
5.76848
 20
33.9439
 30
0.0
 11
4.96919
 21
33.9439
 31
0.0
  0
LINE
  8
0
 62
     0
 10
4.96919
 20
33.9439
 30
0.0
 11
4.96919
 21
37.0445
 31
0.0
  0
LINE
  8
0
 62
     0
 10
4.96919
 20
37.0445
 30
0.0
 11
5.76848
 21
37.0445
 31
0.0
  0
LINE
  8
0
 62
     0
 10
5.76848
 20
37.0445
 30
0.0
 11
5.76848
 21
38.0436
 31
0.0
  0
LINE
  8
0
 62
     0
 10
5.76848
 20
38.0436
 30
0.0
 11
19.7693
 21
38.0436
 31
0.0
  0
LINE
  8
0
 62
     0
 10
19.7693
 20
38.0436
 30
0.0
 11
19.7693
 21
37.0445
 31
0.0
  0
LINE
  8
0
 62
     0
 10
19.7693
 20
37.0445
 30
0.0
 11
20.5686
 21
37.0445
 31
0.0
  0
LINE
  8
0
 62
     0
 10
20.5686
 20
37.0445
 30
0.0
 11
20.5686
 21
33.9439
 31
0.0
  0
LINE
  8
0
 62
     0
 10
20.5686
 20
33.9439
 30
0.0
 11
19.7693
 21
33.9439
 31
0.0
  0
LINE
  8
0
 62
     0
 10
19.7693
 20
33.9439
 30
0.0
 11
19.7693
 21
28.1437
 31
0.0
  0
LINE
  8
0
 62
     0
 10
19.7693
 20
28.1437
 30
0.0
 11
20.5686
 21
28.1437
 31
0.0
  0
LINE
  8
0
 62
     0
 10
20.5686
 20
28.1437
 30
0.0
 11
20.5686
 21
25.0431
 31
0.0
  0
LINE
  8
0
 62
     0
 10
20.5686
 20
25.0431
 30
0.0
 11
19.7693
 21
25.0431
 31
0.0
  0
LINE
  8
0
 62
     0
 10
19.7693
 20
5.99309
 30
0.0
 11
19.7693
 21
4.99403
 31
0.0
  0
LINE
  8
0
 62
     0
 10
19.7693
 20
4.99403
 30
0.0
 11
5.76848
 21
4.99403
 31
0.0
  0
LINE
  8
0
 62
     0
 10
5.76848
 20
4.99403
 30
0.0
 11
5.76848
 21
5.99309
 31
0.0
  0
LINE
  8
0
 62
     0
 10
5.76848
 20
5.99309
 30
0.0
 11
4.96919
 21
5.99309
 31
0.0
  0
LINE
  8
0
 62
     0
 10
4.96919
 20
5.99309
 30
0.0
 11
4.96919
 21
9.09366
 31
0.0
  0
LINE
  8
0
 62
     0
 10
4.96919
 20
9.09366
 30
0.0
 11
5.76848
 21
9.09366
 31
0.0
  0
LINE
  8
0
 62
     0
 10
5.76848
 20
9.09366
 30
0.0
 11
5.76848
 21
14.8939
 31
0.0
  0
LINE
  8
0
 62
     0
 10
5.76848
 20
14.8939
 30
0.0
 11
4.96919
 21
14.8939
 31
0.0
  0
LINE
  8
0
 62
     0
 10
4.96919
 20
14.8939
 30
0.0
 11
4.96919
 21
17.9944
 31
0.0
  0
LINE
  8
0
 62
     0
 10
4.96919
 20
17.9944
 30
0.0
 11
5.76848
 21
17.9944
 31
0.0
  0
LINE
  8
0
 62
     0
 10
5.76848
 20
17.9944
 30
0.0
 11
5.76848
 21
18.9935
 31
0.0
  0
LINE
  8
0
 62
     0
 10
5.76848
 20
18.9935
 30
0.0
 11
19.7693
 21
18.9935
 31
0.0
  0
LINE
  8
0
 62
     0
 10
19.7693
 20
18.9935
 30
0.0
 11
19.7693
 21
17.9944
 31
0.0
  0
LINE
  8
0
 62
     0
 10
19.7693
 20
17.9944
 30
0.0
 11
20.5686
 21
17.9944
 31
0.0
  0
LINE
  8
0
 62
     0
 10
20.5686
 20
17.9944
 30
0.0
 11
20.5686
 21
14.8939
 31
0.0
  0
LINE
  8
0
 62
     0
 10
20.5686
 20
14.8939
 30
0.0
 11
19.7693
 21
14.8939
 31
0.0
  0
LINE
  8
0
 62
     0
 10
19.7693
 20
14.8939
 30
0.0
 11
19.7693
 21
9.09366
 31
0.0
  0
LINE
  8
0
 62
     0
 10
19.7693
 20
9.09366
 30
0.0
 11
20.5686
 21
9.09366
 31
0.0
  0
LINE
  8
0
 62
     0
 10
20.5686
 20
9.09366
 30
0.0
 11
20.5686
 21
5.99309
 31
0.0
  0
LINE
  8
0
 62
     0
 10
20.5686
 20
5.99309
 30
0.0
 11
19.7693
 21
5.99309
 31
0.0
  0
LINE
  8
0
 62
     0
 10
38.8193
 20
82.193
 30
0.0
 11
38.8193
 21
81.1939
 31
0.0
  0
LINE
  8
0
 62
     0
 10
38.8193
 20
81.1939
 30
0.0
 11
24.8185
 21
81.1939
 31
0.0
  0
LINE
  8
0
 62
     0
 10
24.8185
 20
81.1939
 30
0.0
 11
24.8185
 21
82.193
 31
0.0
  0
LINE
  8
0
 62
     0
 10
24.8185
 20
82.193
 30
0.0
 11
24.0192
 21
82.193
 31
0.0
  0
LINE
  8
0
 62
     0
 10
24.0192
 20
82.193
 30
0.0
 11
24.0192
 21
85.2936
 31
0.0
  0
LINE
  8
0
 62
     0
 10
24.0192
 20
85.2936
 30
0.0
 11
24.8185
 21
85.2936
 31
0.0
  0
LINE
  8
0
 62
     0
 10
24.8185
 20
85.2936
 30
0.0
 11
24.8185
 21
91.0939
 31
0.0
  0
LINE
  8
0
 62
     0
 10
24.8185
 20
91.0939
 30
0.0
 11
24.0192
 21
91.0939
 31
0.0
  0
LINE
  8
0
 62
     0
 10
24.0192
 20
91.0939
 30
0.0
 11
24.0192
 21
94.1945
 31
0.0
  0
LINE
  8
0
 62
     0
 10
24.0192
 20
94.1945
 30
0.0
 11
24.8185
 21
94.1945
 31
0.0
  0
LINE
  8
0
 62
     0
 10
24.8185
 20
94.1945
 30
0.0
 11
24.8185
 21
95.1936
 31
0.0
  0
LINE
  8
0
 62
     0
 10
24.8185
 20
95.1936
 30
0.0
 11
38.8193
 21
95.1936
 31
0.0
  0
LINE
  8
0
 62
     0
 10
38.8193
 20
95.1936
 30
0.0
 11
38.8193
 21
94.1945
 31
0.0
  0
LINE
  8
0
 62
     0
 10
38.8193
 20
94.1945
 30
0.0
 11
39.6187
 21
94.1945
 31
0.0
  0
LINE
  8
0
 62
     0
 10
39.6187
 20
94.1945
 30
0.0
 11
39.6187
 21
91.0939
 31
0.0
  0
LINE
  8
0
 62
     0
 10
39.6187
 20
91.0939
 30
0.0
 11
38.8193
 21
91.0939
 31
0.0
  0
LINE
  8
0
 62
     0
 10
38.8193
 20
91.0939
 30
0.0
 11
38.8193
 21
85.2936
 31
0.0
  0
LINE
  8
0
 62
     0
 10
38.8193
 20
85.2936
 30
0.0
 11
39.6187
 21
85.2936
 31
0.0
  0
LINE
  8
0
 62
     0
 10
39.6187
 20
85.2936
 30
0.0
 11
39.6187
 21
82.193
 31
0.0
  0
LINE
  8
0
 62
     0
 10
39.6187
 20
82.193
 30
0.0
 11
38.8193
 21
82.193
 31
0.0
  0
LINE
  8
0
 62
     0
 10
38.8193
 20
63.143
 30
0.0
 11
38.8193
 21
62.1439
 31
0.0
  0
LINE
  8
0
 62
     0
 10
38.8193
 20
62.1439
 30
0.0
 11
24.8185
 21
62.1439
 31
0.0
  0
LINE
  8
0
 62
     0
 10
24.8185
 20
62.1439
 30
0.0
 11
24.8185
 21
63.143
 31
0.0
  0
LINE
  8
0
 62
     0
 10
24.8185
 20
63.143
 30
0.0
 11
24.0192
 21
63.143
 31
0.0
  0
LINE
  8
0
 62
     0
 10
24.0192
 20
63.143
 30
0.0
 11
24.0192
 21
66.2436
 31
0.0
  0
LINE
  8
0
 62
     0
 10
24.0192
 20
66.2436
 30
0.0
 11
24.8185
 21
66.2436
 31
0.0
  0
LINE
  8
0
 62
     0
 10
24.8185
 20
66.2436
 30
0.0
 11
24.8185
 21
72.0439
 31
0.0
  0
LINE
  8
0
 62
     0
 10
24.8185
 20
72.0439
 30
0.0
 11
24.0192
 21
72.0439
 31
0.0
  0
LINE
  8
0
 62
     0
 10
24.0192
 20
72.0439
 30
0.0
 11
24.0192
 21
75.1445
 31
0.0
  0
LINE
  8
0
 62
     0
 10
24.0192
 20
75.1445
 30
0.0
 11
24.8185
 21
75.1445
 31
0.0
  0
LINE
  8
0
 62
     0
 10
24.8185
 20
75.1445
 30
0.0
 11
24.8185
 21
76.1436
 31
0.0
  0
LINE
  8
0
 62
     0
 10
24.8185
 20
76.1436
 30
0.0
 11
38.8193
 21
76.1436
 31
0.0
  0
LINE
  8
0
 62
     0
 10
38.8193
 20
76.1436
 30
0.0
 11
38.8193
 21
75.1445
 31
0.0
  0
LINE
  8
0
 62
     0
 10
38.8193
 20
75.1445
 30
0.0
 11
39.6187
 21
75.1445
 31
0.0
  0
LINE
  8
0
 62
     0
 10
39.6187
 20
75.1445
 30
0.0
 11
39.6187
 21
72.0439
 31
0.0
  0
LINE
  8
0
 62
     0
 10
39.6187
 20
72.0439
 30
0.0
 11
38.8193
 21
72.0439
 31
0.0
  0
LINE
  8
0
 62
     0
 10
38.8193
 20
72.0439
 30
0.0
 11
38.8193
 21
66.2436
 31
0.0
  0
LINE
  8
0
 62
     0
 10
38.8193
 20
66.2436
 30
0.0
 11
39.6187
 21
66.2436
 31
0.0
  0
LINE
  8
0
 62
     0
 10
39.6187
 20
66.2436
 30
0.0
 11
39.6187
 21
63.143
 31
0.0
  0
LINE
  8
0
 62
     0
 10
39.6187
 20
63.143
 30
0.0
 11
38.8193
 21
63.143
 31
0.0
  0
LINE
  8
0
 62
     0
 10
38.8193
 20
44.093
 30
0.0
 11
38.8193
 21
43.0939
 31
0.0
  0
LINE
  8
0
 62
     0
 10
38.8193
 20
43.0939
 30
0.0
 11
24.8185
 21
43.0939
 31
0.0
  0
LINE
  8
0
 62
     0
 10
24.8185
 20
43.0939
 30
0.0
 11
24.8185
 21
44.093
 31
0.0
  0
LINE
  8
0
 62
     0
 10
24.8185
 20
44.093
 30
0.0
 11
24.0192
 21
44.093
 31
0.0
  0
LINE
  8
0
 62
     0
 10
24.0192
 20
44.093
 30
0.0
 11
24.0192
 21
47.1936
 31
0.0
  0
LINE
  8
0
 62
     0
 10
24.0192
 20
47.1936
 30
0.0
 11
24.8185
 21
47.1936
 31
0.0
  0
LINE
  8
0
 62
     0
 10
24.8185
 20
47.1936
 30
0.0
 11
24.8185
 21
52.9939
 31
0.0
  0
LINE
  8
0
 62
     0
 10
24.8185
 20
52.9939
 30
0.0
 11
24.0192
 21
52.9939
 31
0.0
  0
LINE
  8
0
 62
     0
 10
24.0192
 20
52.9939
 30
0.0
 11
24.0192
 21
56.0945
 31
0.0
  0
LINE
  8
0
 62
     0
 10
24.0192
 20
56.0945
 30
0.0
 11
24.8185
 21
56.0945
 31
0.0
  0
LINE
  8
0
 62
     0
 10
24.8185
 20
56.0945
 30
0.0
 11
24.8185
 21
57.0936
 31
0.0
  0
LINE
  8
0
 62
     0
 10
24.8185
 20
57.0936
 30
0.0
 11
38.8193
 21
57.0936
 31
0.0
  0
LINE
  8
0
 62
     0
 10
38.8193
 20
57.0936
 30
0.0
 11
38.8193
 21
56.0945
 31
0.0
  0
LINE
  8
0
 62
     0
 10
38.8193
 20
56.0945
 30
0.0
 11
39.6187
 21
56.0945
 31
0.0
  0
LINE
  8
0
 62
     0
 10
39.6187
 20
56.0945
 30
0.0
 11
39.6187
 21
52.9939
 31
0.0
  0
LINE
  8
0
 62
     0
 10
39.6187
 20
52.9939
 30
0.0
 11
38.8193
 21
52.9939
 31
0.0
  0
LINE
  8
0
 62
     0
 10
38.8193
 20
52.9939
 30
0.0
 11
38.8193
 21
47.1936
 31
0.0
  0
LINE
  8
0
 62
     0
 10
38.8193
 20
47.1936
 30
0.0
 11
39.6187
 21
47.1936
 31
0.0
  0
LINE
  8
0
 62
     0
 10
39.6187
 20
47.1936
 30
0.0
 11
39.6187
 21
44.093
 31
0.0
  0
LINE
  8
0
 62
     0
 10
39.6187
 20
44.093
 30
0.0
 11
38.8193
 21
44.093
 31
0.0
  0
LINE
  8
0
 62
     0
 10
38.8193
 20
25.0431
 30
0.0
 11
38.8193
 21
24.044
 31
0.0
  0
LINE
  8
0
 62
     0
 10
38.8193
 20
24.044
 30
0.0
 11
24.8185
 21
24.044
 31
0.0
  0
LINE
  8
0
 62
     0
 10
24.8185
 20
24.044
 30
0.0
 11
24.8185
 21
25.0431
 31
0.0
  0
LINE
  8
0
 62
     0
 10
24.8185
 20
25.0431
 30
0.0
 11
24.0192
 21
25.0431
 31
0.0
  0
LINE
  8
0
 62
     0
 10
24.0192
 20
25.0431
 30
0.0
 11
24.0192
 21
28.1437
 31
0.0
  0
LINE
  8
0
 62
     0
 10
24.0192
 20
28.1437
 30
0.0
 11
24.8185
 21
28.1437
 31
0.0
  0
LINE
  8
0
 62
     0
 10
24.8185
 20
28.1437
 30
0.0
 11
24.8185
 21
33.9439
 31
0.0
  0
LINE
  8
0
 62
     0
 10
24.8185
 20
33.9439
 30
0.0
 11
24.0192
 21
33.9439
 31
0.0
  0
LINE
  8
0
 62
     0
 10
24.0192
 20
33.9439
 30
0.0
 11
24.0192
 21
37.0445
 31
0.0
  0
LINE
  8
0
 62
     0
 10
24.0192
 20
37.0445
 30
0.0
 11
24.8185
 21
37.0445
 31
0.0
  0
LINE
  8
0
 62
     0
 10
24.8185
 20
37.0445
 30
0.0
 11
24.8185
 21
38.0436
 31
0.0
  0
LINE
  8
0
 62
     0
 10
24.8185
 20
38.0436
 30
0.0
 11
38.8193
 21
38.0436
 31
0.0
  0
LINE
  8
0
 62
     0
 10
38.8193
 20
38.0436
 30
0.0
 11
38.8193
 21
37.0445
 31
0.0
  0
LINE
  8
0
 62
     0
 10
38.8193
 20
37.0445
 30
0.0
 11
39.6187
 21
37.0445
 31
0.0
  0
LINE
  8
0
 62
     0
 10
39.6187
 20
37.0445
 30
0.0
 11
39.6187
 21
33.9439
 31
0.0
  0
LINE
  8
0
 62
     0
 10
39.6187
 20
33.9439
 30
0.0
 11
38.8193
 21
33.9439
 31
0.0
  0
LINE
  8
0
 62
     0
 10
38.8193
 20
33.9439
 30
0.0
 11
38.8193
 21
28.1437
 31
0.0
  0
LINE
  8
0
 62
     0
 10
38.8193
 20
28.1437
 30
0.0
 11
39.6187
 21
28.1437
 31
0.0
  0
LINE
  8
0
 62
     0
 10
39.6187
 20
28.1437
 30
0.0
 11
39.6187
 21
25.0431
 31
0.0
  0
LINE
  8
0
 62
     0
 10
39.6187
 20
25.0431
 30
0.0
 11
38.8193
 21
25.0431
 31
0.0
  0
LINE
  8
0
 62
     0
 10
38.8193
 20
5.99309
 30
0.0
 11
38.8193
 21
4.99403
 31
0.0
  0
LINE
  8
0
 62
     0
 10
38.8193
 20
4.99403
 30
0.0
 11
24.8185
 21
4.99403
 31
0.0
  0
LINE
  8
0
 62
     0
 10
24.8185
 20
4.99403
 30
0.0
 11
24.8185
 21
5.99309
 31
0.0
  0
LINE
  8
0
 62
     0
 10
24.8185
 20
5.99309
 30
0.0
 11
24.0192
 21
5.99309
 31
0.0
  0
LINE
  8
0
 62
     0
 10
24.0192
 20
5.99309
 30
0.0
 11
24.0192
 21
9.09366
 31
0.0
  0
LINE
  8
0
 62
     0
 10
24.0192
 20
9.09366
 30
0.0
 11
24.8185
 21
9.09366
 31
0.0
  0
LINE
  8
0
 62
     0
 10
24.8185
 20
9.09366
 30
0.0
 11
24.8185
 21
14.8939
 31
0.0
  0
LINE
  8
0
 62
     0
 10
24.8185
 20
14.8939
 30
0.0
 11
24.0192
 21
14.8939
 31
0.0
  0
LINE
  8
0
 62
     0
 10
24.0192
 20
14.8939
 30
0.0
 11
24.0192
 21
17.9944
 31
0.0
  0
LINE
  8
0
 62
     0
 10
24.0192
 20
17.9944
 30
0.0
 11
24.8185
 21
17.9944
 31
0.0
  0
LINE
  8
0
 62
     0
 10
24.8185
 20
17.9944
 30
0.0
 11
24.8185
 21
18.9935
 31
0.0
  0
LINE
  8
0
 62
     0
 10
24.8185
 20
18.9935
 30
0.0
 11
38.8193
 21
18.9935
 31
0.0
  0
LINE
  8
0
 62
     0
 10
38.8193
 20
18.9935
 30
0.0
 11
38.8193
 21
17.9944
 31
0.0
  0
LINE
  8
0
 62
     0
 10
38.8193
 20
17.9944
 30
0.0
 11
39.6187
 21
17.9944
 31
0.0
  0
LINE
  8
0
 62
     0
 10
39.6187
 20
17.9944
 30
0.0
 11
39.6187
 21
14.8939
 31
0.0
  0
LINE
  8
0
 62
     0
 10
39.6187
 20
14.8939
 30
0.0
 11
38.8193
 21
14.8939
 31
0.0
  0
LINE
  8
0
 62
     0
 10
38.8193
 20
14.8939
 30
0.0
 11
38.8193
 21
9.09366
 31
0.0
  0
LINE
  8
0
 62
     0
 10
38.8193
 20
9.09366
 30
0.0
 11
39.6187
 21
9.09366
 31
0.0
  0
LINE
  8
0
 62
     0
 10
39.6187
 20
9.09366
 30
0.0
 11
39.6187
 21
5.99309
 31
0.0
  0
LINE
  8
0
 62
     0
 10
39.6187
 20
5.99309
 30
0.0
 11
38.8193
 21
5.99309
 31
0.0
  0
LINE
  8
0
 62
     0
 10
57.8693
 20
82.193
 30
0.0
 11
57.8693
 21
81.1939
 31
0.0
  0
LINE
  8
0
 62
     0
 10
57.8693
 20
81.1939
 30
0.0
 11
43.8686
 21
81.1939
 31
0.0
  0
LINE
  8
0
 62
     0
 10
43.8686
 20
81.1939
 30
0.0
 11
43.8686
 21
82.193
 31
0.0
  0
LINE
  8
0
 62
     0
 10
43.8686
 20
82.193
 30
0.0
 11
43.0692
 21
82.193
 31
0.0
  0
LINE
  8
0
 62
     0
 10
43.0692
 20
82.193
 30
0.0
 11
43.0692
 21
85.2936
 31
0.0
  0
LINE
  8
0
 62
     0
 10
43.0692
 20
85.2936
 30
0.0
 11
43.8686
 21
85.2936
 31
0.0
  0
LINE
  8
0
 62
     0
 10
43.8686
 20
85.2936
 30
0.0
 11
43.8686
 21
91.0939
 31
0.0
  0
LINE
  8
0
 62
     0
 10
43.8686
 20
91.0939
 30
0.0
 11
43.0692
 21
91.0939
 31
0.0
  0
LINE
  8
0
 62
     0
 10
43.0692
 20
91.0939
 30
0.0
 11
43.0692
 21
94.1945
 31
0.0
  0
LINE
  8
0
 62
     0
 10
43.0692
 20
94.1945
 30
0.0
 11
43.8686
 21
94.1945
 31
0.0
  0
LINE
  8
0
 62
     0
 10
43.8686
 20
94.1945
 30
0.0
 11
43.8686
 21
95.1936
 31
0.0
  0
LINE
  8
0
 62
     0
 10
43.8686
 20
95.1936
 30
0.0
 11
57.8693
 21
95.1936
 31
0.0
  0
LINE
  8
0
 62
     0
 10
57.8693
 20
95.1936
 30
0.0
 11
57.8693
 21
94.1945
 31
0.0
  0
LINE
  8
0
 62
     0
 10
57.8693
 20
94.1945
 30
0.0
 11
58.6687
 21
94.1945
 31
0.0
  0
LINE
  8
0
 62
     0
 10
58.6687
 20
94.1945
 30
0.0
 11
58.6687
 21
91.0939
 31
0.0
  0
LINE
  8
0
 62
     0
 10
58.6687
 20
91.0939
 30
0.0
 11
57.8693
 21
91.0939
 31
0.0
  0
LINE
  8
0
 62
     0
 10
57.8693
 20
91.0939
 30
0.0
 11
57.8693
 21
85.2936
 31
0.0
  0
LINE
  8
0
 62
     0
 10
57.8693
 20
85.2936
 30
0.0
 11
58.6687
 21
85.2936
 31
0.0
  0
LINE
  8
0
 62
     0
 10
58.6687
 20
85.2936
 30
0.0
 11
58.6687
 21
82.193
 31
0.0
  0
LINE
  8
0
 62
     0
 10
58.6687
 20
82.193
 30
0.0
 11
57.8693
 21
82.193
 31
0.0
  0
LINE
  8
0
 62
     0
 10
57.8693
 20
63.143
 30
0.0
 11
57.8693
 21
62.1439
 31
0.0
  0
LINE
  8
0
 62
     0
 10
57.8693
 20
62.1439
 30
0.0
 11
43.8686
 21
62.1439
 31
0.0
  0
LINE
  8
0
 62
     0
 10
43.8686
 20
62.1439
 30
0.0
 11
43.8686
 21
63.143
 31
0.0
  0
LINE
  8
0
 62
     0
 10
43.8686
 20
63.143
 30
0.0
 11
43.0692
 21
63.143
 31
0.0
  0
LINE
  8
0
 62
     0
 10
43.0692
 20
63.143
 30
0.0
 11
43.0692
 21
66.2436
 31
0.0
  0
LINE
  8
0
 62
     0
 10
43.0692
 20
66.2436
 30
0.0
 11
43.8686
 21
66.2436
 31
0.0
  0
LINE
  8
0
 62
     0
 10
43.8686
 20
66.2436
 30
0.0
 11
43.8686
 21
72.0439
 31
0.0
  0
LINE
  8
0
 62
     0
 10
43.8686
 20
72.0439
 30
0.0
 11
43.0692
 21
72.0439
 31
0.0
  0
LINE
  8
0
 62
     0
 10
43.0692
 20
72.0439
 30
0.0
 11
43.0692
 21
75.1445
 31
0.0
  0
LINE
  8
0
 62
     0
 10
43.0692
 20
75.1445
 30
0.0
 11
43.8686
 21
75.1445
 31
0.0
  0
LINE
  8
0
 62
     0
 10
43.8686
 20
75.1445
 30
0.0
 11
43.8686
 21
76.1436
 31
0.0
  0
LINE
  8
0
 62
     0
 10
43.8686
 20
76.1436
 30
0.0
 11
57.8693
 21
76.1436
 31
0.0
  0
LINE
  8
0
 62
     0
 10
57.8693
 20
76.1436
 30
0.0
 11
57.8693
 21
75.1445
 31
0.0
  0
LINE
  8
0
 62
     0
 10
57.8693
 20
75.1445
 30
0.0
 11
58.6687
 21
75.1445
 31
0.0
  0
LINE
  8
0
 62
     0
 10
58.6687
 20
75.1445
 30
0.0
 11
58.6687
 21
72.0439
 31
0.0
  0
LINE
  8
0
 62
     0
 10
58.6687
 20
72.0439
 30
0.0
 11
57.8693
 21
72.0439
 31
0.0
  0
LINE
  8
0
 62
     0
 10
57.8693
 20
72.0439
 30
0.0
 11
57.8693
 21
66.2436
 31
0.0
  0
LINE
  8
0
 62
     0
 10
57.8693
 20
66.2436
 30
0.0
 11
58.6687
 21
66.2436
 31
0.0
  0
LINE
  8
0
 62
     0
 10
58.6687
 20
66.2436
 30
0.0
 11
58.6687
 21
63.143
 31
0.0
  0
LINE
  8
0
 62
     0
 10
58.6687
 20
63.143
 30
0.0
 11
57.8693
 21
63.143
 31
0.0
  0
LINE
  8
0
 62
     0
 10
57.8693
 20
44.093
 30
0.0
 11
57.8693
 21
43.0939
 31
0.0
  0
LINE
  8
0
 62
     0
 10
57.8693
 20
43.0939
 30
0.0
 11
43.8686
 21
43.0939
 31
0.0
  0
LINE
  8
0
 62
     0
 10
43.8686
 20
43.0939
 30
0.0
 11
43.8686
 21
44.093
 31
0.0
  0
LINE
  8
0
 62
     0
 10
43.8686
 20
44.093
 30
0.0
 11
43.0692
 21
44.093
 31
0.0
  0
LINE
  8
0
 62
     0
 10
43.0692
 20
44.093
 30
0.0
 11
43.0692
 21
47.1936
 31
0.0
  0
LINE
  8
0
 62
     0
 10
43.0692
 20
47.1936
 30
0.0
 11
43.8686
 21
47.1936
 31
0.0
  0
LINE
  8
0
 62
     0
 10
43.8686
 20
47.1936
 30
0.0
 11
43.8686
 21
52.9939
 31
0.0
  0
LINE
  8
0
 62
     0
 10
43.8686
 20
52.9939
 30
0.0
 11
43.0692
 21
52.9939
 31
0.0
  0
LINE
  8
0
 62
     0
 10
43.0692
 20
52.9939
 30
0.0
 11
43.0692
 21
56.0945
 31
0.0
  0
LINE
  8
0
 62
     0
 10
43.0692
 20
56.0945
 30
0.0
 11
43.8686
 21
56.0945
 31
0.0
  0
LINE
  8
0
 62
     0
 10
43.8686
 20
56.0945
 30
0.0
 11
43.8686
 21
57.0936
 31
0.0
  0
LINE
  8
0
 62
     0
 10
43.8686
 20
57.0936
 30
0.0
 11
57.8693
 21
57.0936
 31
0.0
  0
LINE
  8
0
 62
     0
 10
57.8693
 20
57.0936
 30
0.0
 11
57.8693
 21
56.0945
 31
0.0
  0
LINE
  8
0
 62
     0
 10
57.8693
 20
56.0945
 30
0.0
 11
58.6687
 21
56.0945
 31
0.0
  0
LINE
  8
0
 62
     0
 10
58.6687
 20
56.0945
 30
0.0
 11
58.6687
 21
52.9939
 31
0.0
  0
LINE
  8
0
 62
     0
 10
58.6687
 20
52.9939
 30
0.0
 11
57.8693
 21
52.9939
 31
0.0
  0
LINE
  8
0
 62
     0
 10
57.8693
 20
52.9939
 30
0.0
 11
57.8693
 21
47.1936
 31
0.0
  0
LINE
  8
0
 62
     0
 10
57.8693
 20
47.1936
 30
0.0
 11
58.6687
 21
47.1936
 31
0.0
  0
LINE
  8
0
 62
     0
 10
58.6687
 20
47.1936
 30
0.0
 11
58.6687
 21
44.093
 31
0.0
  0
LINE
  8
0
 62
     0
 10
58.6687
 20
44.093
 30
0.0
 11
57.8693
 21
44.093
 31
0.0
  0
LINE
  8
0
 62
     0
 10
57.8693
 20
25.0431
 30
0.0
 11
57.8693
 21
24.044
 31
0.0
  0
LINE
  8
0
 62
     0
 10
57.8693
 20
24.044
 30
0.0
 11
43.8686
 21
24.044
 31
0.0
  0
LINE
  8
0
 62
     0
 10
43.8686
 20
24.044
 30
0.0
 11
43.8686
 21
25.0431
 31
0.0
  0
LINE
  8
0
 62
     0
 10
43.8686
 20
25.0431
 30
0.0
 11
43.0692
 21
25.0431
 31
0.0
  0
LINE
  8
0
 62
     0
 10
43.0692
 20
25.0431
 30
0.0
 11
43.0692
 21
28.1437
 31
0.0
  0
LINE
  8
0
 62
     0
 10
43.0692
 20
28.1437
 30
0.0
 11
43.8686
 21
28.1437
 31
0.0
  0
LINE
  8
0
 62
     0
 10
43.8686
 20
28.1437
 30
0.0
 11
43.8686
 21
33.9439
 31
0.0
  0
LINE
  8
0
 62
     0
 10
43.8686
 20
33.9439
 30
0.0
 11
43.0692
 21
33.9439
 31
0.0
  0
LINE
  8
0
 62
     0
 10
43.0692
 20
33.9439
 30
0.0
 11
43.0692
 21
37.0445
 31
0.0
  0
LINE
  8
0
 62
     0
 10
43.0692
 20
37.0445
 30
0.0
 11
43.8686
 21
37.0445
 31
0.0
  0
LINE
  8
0
 62
     0
 10
43.8686
 20
37.0445
 30
0.0
 11
43.8686
 21
38.0436
 31
0.0
  0
LINE
  8
0
 62
     0
 10
43.8686
 20
38.0436
 30
0.0
 11
57.8693
 21
38.0436
 31
0.0
  0
LINE
  8
0
 62
     0
 10
57.8693
 20
38.0436
 30
0.0
 11
57.8693
 21
37.0445
 31
0.0
  0
LINE
  8
0
 62
     0
 10
57.8693
 20
37.0445
 30
0.0
 11
58.6687
 21
37.0445
 31
0.0
  0
LINE
  8
0
 62
     0
 10
58.6687
 20
37.0445
 30
0.0
 11
58.6687
 21
33.9439
 31
0.0
  0
LINE
  8
0
 62
     0
 10
58.6687
 20
33.9439
 30
0.0
 11
57.8693
 21
33.9439
 31
0.0
  0
LINE
  8
0
 62
     0
 10
57.8693
 20
33.9439
 30
0.0
 11
57.8693
 21
28.1437
 31
0.0
  0
LINE
  8
0
 62
     0
 10
57.8693
 20
28.1437
 30
0.0
 11
58.6687
 21
28.1437
 31
0.0
  0
LINE
  8
0
 62
     0
 10
58.6687
 20
28.1437
 30
0.0
 11
58.6687
 21
25.0431
 31
0.0
  0
LINE
  8
0
 62
     0
 10
58.6687
 20
25.0431
 30
0.0
 11
57.8693
 21
25.0431
 31
0.0
  0
LINE
  8
0
 62
     0
 10
57.8693
 20
5.99309
 30
0.0
 11
57.8693
 21
4.99403
 31
0.0
  0
LINE
  8
0
 62
     0
 10
57.8693
 20
4.99403
 30
0.0
 11
43.8686
 21
4.99403
 31
0.0
  0
LINE
  8
0
 62
     0
 10
43.8686
 20
4.99403
 30
0.0
 11
43.8686
 21
5.99309
 31
0.0
  0
LINE
  8
0
 62
     0
 10
43.8686
 20
5.99309
 30
0.0
 11
43.0692
 21
5.99309
 31
0.0
  0
LINE
  8
0
 62
     0
 10
43.0692
 20
5.99309
 30
0.0
 11
43.0692
 21
9.09366
 31
0.0
  0
LINE
  8
0
 62
     0
 10
43.0692
 20
9.09366
 30
0.0
 11
43.8686
 21
9.09366
 31
0.0
  0
LINE
  8
0
 62
     0
 10
43.8686
 20
9.09366
 30
0.0
 11
43.8686
 21
14.8939
 31
0.0
  0
LINE
  8
0
 62
     0
 10
43.8686
 20
14.8939
 30
0.0
 11
43.0692
 21
14.8939
 31
0.0
  0
LINE
  8
0
 62
     0
 10
43.0692
 20
14.8939
 30
0.0
 11
43.0692
 21
17.9944
 31
0.0
  0
LINE
  8
0
 62
     0
 10
43.0692
 20
17.9944
 30
0.0
 11
43.8686
 21
17.9944
 31
0.0
  0
LINE
  8
0
 62
     0
 10
43.8686
 20
17.9944
 30
0.0
 11
43.8686
 21
18.9935
 31
0.0
  0
LINE
  8
0
 62
     0
 10
43.8686
 20
18.9935
 30
0.0
 11
57.8693
 21
18.9935
 31
0.0
  0
LINE
  8
0
 62
     0
 10
57.8693
 20
18.9935
 30
0.0
 11
57.8693
 21
17.9944
 31
0.0
  0
LINE
  8
0
 62
     0
 10
57.8693
 20
17.9944
 30
0.0
 11
58.6687
 21
17.9944
 31
0.0
  0
LINE
  8
0
 62
     0
 10
58.6687
 20
17.9944
 30
0.0
 11
58.6687
 21
14.8939
 31
0.0
  0
LINE
  8
0
 62
     0
 10
58.6687
 20
14.8939
 30
0.0
 11
57.8693
 21
14.8939
 31
0.0
  0
LINE
  8
0
 62
     0
 10
57.8693
 20
14.8939
 30
0.0
 11
57.8693
 21
9.09366
 31
0.0
  0
LINE
  8
0
 62
     0
 10
57.8693
 20
9.09366
 30
0.0
 11
58.6687
 21
9.09366
 31
0.0
  0
LINE
  8
0
 62
     0
 10
58.6687
 20
9.09366
 30
0.0
 11
58.6687
 21
5.99309
 31
0.0
  0
LINE
  8
0
 62
     0
 10
58.6687
 20
5.99309
 30
0.0
 11
57.8693
 21
5.99309
 31
0.0
  0
LINE
  8
0
 62
     0
 10
76.9193
 20
82.193
 30
0.0
 11
76.9193
 21
81.1939
 31
0.0
  0
LINE
  8
0
 62
     0
 10
76.9193
 20
81.1939
 30
0.0
 11
62.9186
 21
81.1939
 31
0.0
  0
LINE
  8
0
 62
     0
 10
62.9186
 20
81.1939
 30
0.0
 11
62.9186
 21
82.193
 31
0.0
  0
LINE
  8
0
 62
     0
 10
62.9186
 20
82.193
 30
0.0
 11
62.1192
 21
82.193
 31
0.0
  0
LINE
  8
0
 62
     0
 10
62.1192
 20
82.193
 30
0.0
 11
62.1192
 21
85.2936
 31
0.0
  0
LINE
  8
0
 62
     0
 10
62.1192
 20
85.2936
 30
0.0
 11
62.9186
 21
85.2936
 31
0.0
  0
LINE
  8
0
 62
     0
 10
62.9186
 20
85.2936
 30
0.0
 11
62.9186
 21
91.0939
 31
0.0
  0
LINE
  8
0
 62
     0
 10
62.9186
 20
91.0939
 30
0.0
 11
62.1192
 21
91.0939
 31
0.0
  0
LINE
  8
0
 62
     0
 10
62.1192
 20
91.0939
 30
0.0
 11
62.1192
 21
94.1945
 31
0.0
  0
LINE
  8
0
 62
     0
 10
62.1192
 20
94.1945
 30
0.0
 11
62.9186
 21
94.1945
 31
0.0
  0
LINE
  8
0
 62
     0
 10
62.9186
 20
94.1945
 30
0.0
 11
62.9186
 21
95.1936
 31
0.0
  0
LINE
  8
0
 62
     0
 10
62.9186
 20
95.1936
 30
0.0
 11
76.9193
 21
95.1936
 31
0.0
  0
LINE
  8
0
 62
     0
 10
76.9193
 20
95.1936
 30
0.0
 11
76.9193
 21
94.1945
 31
0.0
  0
LINE
  8
0
 62
     0
 10
76.9193
 20
94.1945
 30
0.0
 11
77.7187
 21
94.1945
 31
0.0
  0
LINE
  8
0
 62
     0
 10
77.7187
 20
94.1945
 30
0.0
 11
77.7187
 21
91.0939
 31
0.0
  0
LINE
  8
0
 62
     0
 10
77.7187
 20
91.0939
 30
0.0
 11
76.9193
 21
91.0939
 31
0.0
  0
LINE
  8
0
 62
     0
 10
76.9193
 20
91.0939
 30
0.0
 11
76.9193
 21
85.2936
 31
0.0
  0
LINE
  8
0
 62
     0
 10
76.9193
 20
85.2936
 30
0.0
 11
77.7187
 21
85.2936
 31
0.0
  0
LINE
  8
0
 62
     0
 10
77.7187
 20
85.2936
 30
0.0
 11
77.7187
 21
82.193
 31
0.0
  0
LINE
  8
0
 62
     0
 10
77.7187
 20
82.193
 30
0.0
 11
76.9193
 21
82.193
 31
0.0
  0
LINE
  8
0
 62
     0
 10
76.9193
 20
63.143
 30
0.0
 11
76.9193
 21
62.1439
 31
0.0
  0
LINE
  8
0
 62
     0
 10
76.9193
 20
62.1439
 30
0.0
 11
62.9186
 21
62.1439
 31
0.0
  0
LINE
  8
0
 62
     0
 10
62.9186
 20
62.1439
 30
0.0
 11
62.9186
 21
63.143
 31
0.0
  0
LINE
  8
0
 62
     0
 10
62.9186
 20
63.143
 30
0.0
 11
62.1192
 21
63.143
 31
0.0
  0
LINE
  8
0
 62
     0
 10
62.1192
 20
63.143
 30
0.0
 11
62.1192
 21
66.2436
 31
0.0
  0
LINE
  8
0
 62
     0
 10
62.1192
 20
66.2436
 30
0.0
 11
62.9186
 21
66.2436
 31
0.0
  0
LINE
  8
0
 62
     0
 10
62.9186
 20
66.2436
 30
0.0
 11
62.9186
 21
72.0439
 31
0.0
  0
LINE
  8
0
 62
     0
 10
62.9186
 20
72.0439
 30
0.0
 11
62.1192
 21
72.0439
 31
0.0
  0
LINE
  8
0
 62
     0
 10
62.1192
 20
72.0439
 30
0.0
 11
62.1192
 21
75.1445
 31
0.0
  0
LINE
  8
0
 62
     0
 10
62.1192
 20
75.1445
 30
0.0
 11
62.9186
 21
75.1445
 31
0.0
  0
LINE
  8
0
 62
     0
 10
62.9186
 20
75.1445
 30
0.0
 11
62.9186
 21
76.1436
 31
0.0
  0
LINE
  8
0
 62
     0
 10
62.9186
 20
76.1436
 30
0.0
 11
76.9193
 21
76.1436
 31
0.0
  0
LINE
  8
0
 62
     0
 10
76.9193
 20
76.1436
 30
0.0
 11
76.9193
 21
75.1445
 31
0.0
  0
LINE
  8
0
 62
     0
 10
76.9193
 20
75.1445
 30
0.0
 11
77.7187
 21
75.1445
 31
0.0
  0
LINE
  8
0
 62
     0
 10
77.7187
 20
75.1445
 30
0.0
 11
77.7187
 21
72.0439
 31
0.0
  0
LINE
  8
0
 62
     0
 10
77.7187
 20
72.0439
 30
0.0
 11
76.9193
 21
72.0439
 31
0.0
  0
LINE
  8
0
 62
     0
 10
76.9193
 20
72.0439
 30
0.0
 11
76.9193
 21
66.2436
 31
0.0
  0
LINE
  8
0
 62
     0
 10
76.9193
 20
66.2436
 30
0.0
 11
77.7187
 21
66.2436
 31
0.0
  0
LINE
  8
0
 62
     0
 10
77.7187
 20
66.2436
 30
0.0
 11
77.7187
 21
63.143
 31
0.0
  0
LINE
  8
0
 62
     0
 10
77.7187
 20
63.143
 30
0.0
 11
76.9193
 21
63.143
 31
0.0
  0
LINE
  8
0
 62
     0
 10
76.9193
 20
44.093
 30
0.0
 11
76.9193
 21
43.0939
 31
0.0
  0
LINE
  8
0
 62
     0
 10
76.9193
 20
43.0939
 30
0.0
 11
62.9186
 21
43.0939
 31
0.0
  0
LINE
  8
0
 62
     0
 10
62.9186
 20
43.0939
 30
0.0
 11
62.9186
 21
44.093
 31
0.0
  0
LINE
  8
0
 62
     0
 10
62.9186
 20
44.093
 30
0.0
 11
62.1192
 21
44.093
 31
0.0
  0
LINE
  8
0
 62
     0
 10
62.1192
 20
44.093
 30
0.0
 11
62.1192
 21
47.1936
 31
0.0
  0
LINE
  8
0
 62
     0
 10
62.1192
 20
47.1936
 30
0.0
 11
62.9186
 21
47.1936
 31
0.0
  0
LINE
  8
0
 62
     0
 10
62.9186
 20
47.1936
 30
0.0
 11
62.9186
 21
52.9939
 31
0.0
  0
LINE
  8
0
 62
     0
 10
62.9186
 20
52.9939
 30
0.0
 11
62.1192
 21
52.9939
 31
0.0
  0
LINE
  8
0
 62
     0
 10
62.1192
 20
52.9939
 30
0.0
 11
62.1192
 21
56.0945
 31
0.0
  0
LINE
  8
0
 62
     0
 10
62.1192
 20
56.0945
 30
0.0
 11
62.9186
 21
56.0945
 31
0.0
  0
LINE
  8
0
 62
     0
 10
62.9186
 20
56.0945
 30
0.0
 11
62.9186
 21
57.0936
 31
0.0
  0
LINE
  8
0
 62
     0
 10
62.9186
 20
57.0936
 30
0.0
 11
76.9193
 21
57.0936
 31
0.0
  0
LINE
  8
0
 62
     0
 10
76.9193
 20
57.0936
 30
0.0
 11
76.9193
 21
56.0945
 31
0.0
  0
LINE
  8
0
 62
     0
 10
76.9193
 20
56.0945
 30
0.0
 11
77.7187
 21
56.0945
 31
0.0
  0
LINE
  8
0
 62
     0
 10
77.7187
 20
56.0945
 30
0.0
 11
77.7187
 21
52.9939
 31
0.0
  0
LINE
  8
0
 62
     0
 10
77.7187
 20
52.9939
 30
0.0
 11
76.9193
 21
52.9939
 31
0.0
  0
LINE
  8
0
 62
     0
 10
76.9193
 20
52.9939
 30
0.0
 11
76.9193
 21
47.1936
 31
0.0
  0
LINE
  8
0
 62
     0
 10
76.9193
 20
47.1936
 30
0.0
 11
77.7187
 21
47.1936
 31
0.0
  0
LINE
  8
0
 62
     0
 10
77.7187
 20
47.1936
 30
0.0
 11
77.7187
 21
44.093
 31
0.0
  0
LINE
  8
0
 62
     0
 10
77.7187
 20
44.093
 30
0.0
 11
76.9193
 21
44.093
 31
0.0
  0
LINE
  8
0
 62
     0
 10
76.9193
 20
25.0431
 30
0.0
 11
76.9193
 21
24.044
 31
0.0
  0
LINE
  8
0
 62
     0
 10
76.9193
 20
24.044
 30
0.0
 11
62.9186
 21
24.044
 31
0.0
  0
LINE
  8
0
 62
     0
 10
62.9186
 20
24.044
 30
0.0
 11
62.9186
 21
25.0431
 31
0.0
  0
LINE
  8
0
 62
     0
 10
62.9186
 20
25.0431
 30
0.0
 11
62.1192
 21
25.0431
 31
0.0
  0
LINE
  8
0
 62
     0
 10
62.1192
 20
25.0431
 30
0.0
 11
62.1192
 21
28.1437
 31
0.0
  0
LINE
  8
0
 62
     0
 10
62.1192
 20
28.1437
 30
0.0
 11
62.9186
 21
28.1437
 31
0.0
  0
LINE
  8
0
 62
     0
 10
62.9186
 20
28.1437
 30
0.0
 11
62.9186
 21
33.9439
 31
0.0
  0
LINE
  8
0
 62
     0
 10
62.9186
 20
33.9439
 30
0.0
 11
62.1192
 21
33.9439
 31
0.0
  0
LINE
  8
0
 62
     0
 10
62.1192
 20
33.9439
 30
0.0
 11
62.1192
 21
37.0445
 31
0.0
  0
LINE
  8
0
 62
     0
 10
62.1192
 20
37.0445
 30
0.0
 11
62.9186
 21
37.0445
 31
0.0
  0
LINE
  8
0
 62
     0
 10
62.9186
 20
37.0445
 30
0.0
 11
62.9186
 21
38.0436
 31
0.0
  0
LINE
  8
0
 62
     0
 10
62.9186
 20
38.0436
 30
0.0
 11
76.9193
 21
38.0436
 31
0.0
  0
LINE
  8
0
 62
     0
 10
76.9193
 20
38.0436
 30
0.0
 11
76.9193
 21
37.0445
 31
0.0
  0
LINE
  8
0
 62
     0
 10
76.9193
 20
37.0445
 30
0.0
 11
77.7187
 21
37.0445
 31
0.0
  0
LINE
  8
0
 62
     0
 10
77.7187
 20
37.0445
 30
0.0
 11
77.7187
 21
33.9439
 31
0.0
  0
LINE
  8
0
 62
     0
 10
77.7187
 20
33.9439
 30
0.0
 11
76.9193
 21
33.9439
 31
0.0
  0
LINE
  8
0
 62
     0
 10
76.9193
 20
33.9439
 30
0.0
 11
76.9193
 21
28.1437
 31
0.0
  0
LINE
  8
0
 62
     0
 10
76.9193
 20
28.1437
 30
0.0
 11
77.7187
 21
28.1437
 31
0.0
  0
LINE
  8
0
 62
     0
 10
77.7187
 20
28.1437
 30
0.0
 11
77.7187
 21
25.0431
 31
0.0
  0
LINE
  8
0
 62
     0
 10
77.7187
 20
25.0431
 30
0.0
 11
76.9193
 21
25.0431
 31
0.0
  0
LINE
  8
0
 62
     0
 10
76.9193
 20
5.99309
 30
0.0
 11
76.9193
 21
4.99403
 31
0.0
  0
LINE
  8
0
 62
     0
 10
76.9193
 20
4.99403
 30
0.0
 11
62.9186
 21
4.99403
 31
0.0
  0
LINE
  8
0
 62
     0
 10
62.9186
 20
4.99403
 30
0.0
 11
62.9186
 21
5.99309
 31
0.0
  0
LINE
  8
0
 62
     0
 10
62.9186
 20
5.99309
 30
0.0
 11
62.1192
 21
5.99309
 31
0.0
  0
LINE
  8
0
 62
     0
 10
62.1192
 20
5.99309
 30
0.0
 11
62.1192
 21
9.09366
 31
0.0
  0
LINE
  8
0
 62
     0
 10
62.1192
 20
9.09366
 30
0.0
 11
62.9186
 21
9.09366
 31
0.0
  0
LINE
  8
0
 62
     0
 10
62.9186
 20
9.09366
 30
0.0
 11
62.9186
 21
14.8939
 31
0.0
  0
LINE
  8
0
 62
     0
 10
62.9186
 20
14.8939
 30
0.0
 11
62.1192
 21
14.8939
 31
0.0
  0
LINE
  8
0
 62
     0
 10
62.1192
 20
14.8939
 30
0.0
 11
62.1192
 21
17.9944
 31
0.0
  0
LINE
  8
0
 62
     0
 10
62.1192
 20
17.9944
 30
0.0
 11
62.9186
 21
17.9944
 31
0.0
  0
LINE
  8
0
 62
     0
 10
62.9186
 20
17.9944
 30
0.0
 11
62.9186
 21
18.9935
 31
0.0
  0
LINE
  8
0
 62
     0
 10
62.9186
 20
18.9935
 30
0.0
 11
76.9193
 21
18.9935
 31
0.0
  0
LINE
  8
0
 62
     0
 10
76.9193
 20
18.9935
 30
0.0
 11
76.9193
 21
17.9944
 31
0.0
  0
LINE
  8
0
 62
     0
 10
76.9193
 20
17.9944
 30
0.0
 11
77.7187
 21
17.9944
 31
0.0
  0
LINE
  8
0
 62
     0
 10
77.7187
 20
17.9944
 30
0.0
 11
77.7187
 21
14.8939
 31
0.0
  0
LINE
  8
0
 62
     0
 10
77.7187
 20
14.8939
 30
0.0
 11
76.9193
 21
14.8939
 31
0.0
  0
LINE
  8
0
 62
     0
 10
76.9193
 20
14.8939
 30
0.0
 11
76.9193
 21
9.09366
 31
0.0
  0
LINE
  8
0
 62
     0
 10
76.9193
 20
9.09366
 30
0.0
 11
77.7187
 21
9.09366
 31
0.0
  0
LINE
  8
0
 62
     0
 10
77.7187
 20
9.09366
 30
0.0
 11
77.7187
 21
5.99309
 31
0.0
  0
LINE
  8
0
 62
     0
 10
77.7187
 20
5.99309
 30
0.0
 11
76.9193
 21
5.99309
 31
0.0
  0
LINE
  8
0
 62
     0
 10
95.9693
 20
82.193
 30
0.0
 11
95.9693
 21
81.1939
 31
0.0
  0
LINE
  8
0
 62
     0
 10
95.9693
 20
81.1939
 30
0.0
 11
81.9686
 21
81.1939
 31
0.0
  0
LINE
  8
0
 62
     0
 10
81.9686
 20
81.1939
 30
0.0
 11
81.9686
 21
82.193
 31
0.0
  0
LINE
  8
0
 62
     0
 10
81.9686
 20
82.193
 30
0.0
 11
81.1692
 21
82.193
 31
0.0
  0
LINE
  8
0
 62
     0
 10
81.1692
 20
82.193
 30
0.0
 11
81.1692
 21
85.2936
 31
0.0
  0
LINE
  8
0
 62
     0
 10
81.1692
 20
85.2936
 30
0.0
 11
81.9686
 21
85.2936
 31
0.0
  0
LINE
  8
0
 62
     0
 10
81.9686
 20
85.2936
 30
0.0
 11
81.9686
 21
91.0939
 31
0.0
  0
LINE
  8
0
 62
     0
 10
81.9686
 20
91.0939
 30
0.0
 11
81.1692
 21
91.0939
 31
0.0
  0
LINE
  8
0
 62
     0
 10
81.1692
 20
91.0939
 30
0.0
 11
81.1692
 21
94.1945
 31
0.0
  0
LINE
  8
0
 62
     0
 10
81.1692
 20
94.1945
 30
0.0
 11
81.9686
 21
94.1945
 31
0.0
  0
LINE
  8
0
 62
     0
 10
81.9686
 20
94.1945
 30
0.0
 11
81.9686
 21
95.1936
 31
0.0
  0
LINE
  8
0
 62
     0
 10
81.9686
 20
95.1936
 30
0.0
 11
95.9693
 21
95.1936
 31
0.0
  0
LINE
  8
0
 62
     0
 10
95.9693
 20
95.1936
 30
0.0
 11
95.9693
 21
94.1945
 31
0.0
  0
LINE
  8
0
 62
     0
 10
95.9693
 20
94.1945
 30
0.0
 11
96.7687
 21
94.1945
 31
0.0
  0
LINE
  8
0
 62
     0
 10
96.7687
 20
94.1945
 30
0.0
 11
96.7687
 21
91.0939
 31
0.0
  0
LINE
  8
0
 62
     0
 10
96.7687
 20
91.0939
 30
0.0
 11
95.9693
 21
91.0939
 31
0.0
  0
LINE
  8
0
 62
     0
 10
95.9693
 20
91.0939
 30
0.0
 11
95.9693
 21
85.2936
 31
0.0
  0
LINE
  8
0
 62
     0
 10
95.9693
 20
85.2936
 30
0.0
 11
96.7687
 21
85.2936
 31
0.0
  0
LINE
  8
0
 62
     0
 10
96.7687
 20
85.2936
 30
0.0
 11
96.7687
 21
82.193
 31
0.0
  0
LINE
  8
0
 62
     0
 10
96.7687
 20
82.193
 30
0.0
 11
95.9693
 21
82.193
 31
0.0
  0
LINE
  8
0
 62
     0
 10
95.9693
 20
63.143
 30
0.0
 11
95.9693
 21
62.1439
 31
0.0
  0
LINE
  8
0
 62
     0
 10
95.9693
 20
62.1439
 30
0.0
 11
81.9686
 21
62.1439
 31
0.0
  0
LINE
  8
0
 62
     0
 10
81.9686
 20
62.1439
 30
0.0
 11
81.9686
 21
63.143
 31
0.0
  0
LINE
  8
0
 62
     0
 10
81.9686
 20
63.143
 30
0.0
 11
81.1692
 21
63.143
 31
0.0
  0
LINE
  8
0
 62
     0
 10
81.1692
 20
63.143
 30
0.0
 11
81.1692
 21
66.2436
 31
0.0
  0
LINE
  8
0
 62
     0
 10
81.1692
 20
66.2436
 30
0.0
 11
81.9686
 21
66.2436
 31
0.0
  0
LINE
  8
0
 62
     0
 10
81.9686
 20
66.2436
 30
0.0
 11
81.9686
 21
72.0439
 31
0.0
  0
LINE
  8
0
 62
     0
 10
81.9686
 20
72.0439
 30
0.0
 11
81.1692
 21
72.0439
 31
0.0
  0
LINE
  8
0
 62
     0
 10
81.1692
 20
72.0439
 30
0.0
 11
81.1692
 21
75.1445
 31
0.0
  0
LINE
  8
0
 62
     0
 10
81.1692
 20
75.1445
 30
0.0
 11
81.9686
 21
75.1445
 31
0.0
  0
LINE
  8
0
 62
     0
 10
81.9686
 20
75.1445
 30
0.0
 11
81.9686
 21
76.1436
 31
0.0
  0
LINE
  8
0
 62
     0
 10
81.9686
 20
76.1436
 30
0.0
 11
95.9693
 21
76.1436
 31
0.0
  0
LINE
  8
0
 62
     0
 10
95.9693
 20
76.1436
 30
0.0
 11
95.9693
 21
75.1445
 31
0.0
  0
LINE
  8
0
 62
     0
 10
95.9693
 20
75.1445
 30
0.0
 11
96.7687
 21
75.1445
 31
0.0
  0
LINE
  8
0
 62
     0
 10
96.7687
 20
75.1445
 30
0.0
 11
96.7687
 21
72.0439
 31
0.0
  0
LINE
  8
0
 62
     0
 10
96.7687
 20
72.0439
 30
0.0
 11
95.9693
 21
72.0439
 31
0.0
  0
LINE
  8
0
 62
     0
 10
95.9693
 20
72.0439
 30
0.0
 11
95.9693
 21
66.2436
 31
0.0
  0
LINE
  8
0
 62
     0
 10
95.9693
 20
66.2436
 30
0.0
 11
96.7687
 21
66.2436
 31
0.0
  0
LINE
  8
0
 62
     0
 10
96.7687
 20
66.2436
 30
0.0
 11
96.7687
 21
63.143
 31
0.0
  0
LINE
  8
0
 62
     0
 10
96.7687
 20
63.143
 30
0.0
 11
95.9693
 21
63.143
 31
0.0
  0
LINE
  8
0
 62
     0
 10
95.9693
 20
44.093
 30
0.0
 11
95.9693
 21
43.0939
 31
0.0
  0
LINE
  8
0
 62
     0
 10
95.9693
 20
43.0939
 30
0.0
 11
81.9686
 21
43.0939
 31
0.0
  0
LINE
  8
0
 62
     0
 10
81.9686
 20
43.0939
 30
0.0
 11
81.9686
 21
44.093
 31
0.0
  0
LINE
  8
0
 62
     0
 10
81.9686
 20
44.093
 30
0.0
 11
81.1692
 21
44.093
 31
0.0
  0
LINE
  8
0
 62
     0
 10
81.1692
 20
44.093
 30
0.0
 11
81.1692
 21
47.1936
 31
0.0
  0
LINE
  8
0
 62
     0
 10
81.1692
 20
47.1936
 30
0.0
 11
81.9686
 21
47.1936
 31
0.0
  0
LINE
  8
0
 62
     0
 10
81.9686
 20
47.1936
 30
0.0
 11
81.9686
 21
52.9939
 31
0.0
  0
LINE
  8
0
 62
     0
 10
81.9686
 20
52.9939
 30
0.0
 11
81.1692
 21
52.9939
 31
0.0
  0
LINE
  8
0
 62
     0
 10
81.1692
 20
52.9939
 30
0.0
 11
81.1692
 21
56.0945
 31
0.0
  0
LINE
  8
0
 62
     0
 10
81.1692
 20
56.0945
 30
0.0
 11
81.9686
 21
56.0945
 31
0.0
  0
LINE
  8
0
 62
     0
 10
81.9686
 20
56.0945
 30
0.0
 11
81.9686
 21
57.0936
 31
0.0
  0
LINE
  8
0
 62
     0
 10
81.9686
 20
57.0936
 30
0.0
 11
95.9693
 21
57.0936
 31
0.0
  0
LINE
  8
0
 62
     0
 10
95.9693
 20
57.0936
 30
0.0
 11
95.9693
 21
56.0945
 31
0.0
  0
LINE
  8
0
 62
     0
 10
95.9693
 20
56.0945
 30
0.0
 11
96.7687
 21
56.0945
 31
0.0
  0
LINE
  8
0
 62
     0
 10
96.7687
 20
56.0945
 30
0.0
 11
96.7687
 21
52.9939
 31
0.0
  0
LINE
  8
0
 62
     0
 10
96.7687
 20
52.9939
 30
0.0
 11
95.9693
 21
52.9939
 31
0.0
  0
LINE
  8
0
 62
     0
 10
95.9693
 20
52.9939
 30
0.0
 11
95.9693
 21
47.1936
 31
0.0
  0
LINE
  8
0
 62
     0
 10
95.9693
 20
47.1936
 30
0.0
 11
96.7687
 21
47.1936
 31
0.0
  0
LINE
  8
0
 62
     0
 10
96.7687
 20
47.1936
 30
0.0
 11
96.7687
 21
44.093
 31
0.0
  0
LINE
  8
0
 62
     0
 10
96.7687
 20
44.093
 30
0.0
 11
95.9693
 21
44.093
 31
0.0
  0
LINE
  8
0
 62
     0
 10
95.9693
 20
25.0431
 30
0.0
 11
95.9693
 21
24.044
 31
0.0
  0
LINE
  8
0
 62
     0
 10
95.9693
 20
24.044
 30
0.0
 11
81.9686
 21
24.044
 31
0.0
  0
LINE
  8
0
 62
     0
 10
81.9686
 20
24.044
 30
0.0
 11
81.9686
 21
25.0431
 31
0.0
  0
LINE
  8
0
 62
     0
 10
81.9686
 20
25.0431
 30
0.0
 11
81.1692
 21
25.0431
 31
0.0
  0
LINE
  8
0
 62
     0
 10
81.1692
 20
25.0431
 30
0.0
 11
81.1692
 21
28.1437
 31
0.0
  0
LINE
  8
0
 62
     0
 10
81.1692
 20
28.1437
 30
0.0
 11
81.9686
 21
28.1437
 31
0.0
  0
LINE
  8
0
 62
     0
 10
81.9686
 20
28.1437
 30
0.0
 11
81.9686
 21
33.9439
 31
0.0
  0
LINE
  8
0
 62
     0
 10
81.9686
 20
33.9439
 30
0.0
 11
81.1692
 21
33.9439
 31
0.0
  0
LINE
  8
0
 62
     0
 10
81.1692
 20
33.9439
 30
0.0
 11
81.1692
 21
37.0445
 31
0.0
  0
LINE
  8
0
 62
     0
 10
81.1692
 20
37.0445
 30
0.0
 11
81.9686
 21
37.0445
 31
0.0
  0
LINE
  8
0
 62
     0
 10
81.9686
 20
37.0445
 30
0.0
 11
81.9686
 21
38.0436
 31
0.0
  0
LINE
  8
0
 62
     0
 10
81.9686
 20
38.0436
 30
0.0
 11
95.9693
 21
38.0436
 31
0.0
  0
LINE
  8
0
 62
     0
 10
95.9693
 20
38.0436
 30
0.0
 11
95.9693
 21
37.0445
 31
0.0
  0
LINE
  8
0
 62
     0
 10
95.9693
 20
37.0445
 30
0.0
 11
96.7687
 21
37.0445
 31
0.0
  0
LINE
  8
0
 62
     0
 10
96.7687
 20
37.0445
 30
0.0
 11
96.7687
 21
33.9439
 31
0.0
  0
LINE
  8
0
 62
     0
 10
96.7687
 20
33.9439
 30
0.0
 11
95.9693
 21
33.9439
 31
0.0
  0
LINE
  8
0
 62
     0
 10
95.9693
 20
33.9439
 30
0.0
 11
95.9693
 21
28.1437
 31
0.0
  0
LINE
  8
0
 62
     0
 10
95.9693
 20
28.1437
 30
0.0
 11
96.7687
 21
28.1437
 31
0.0
  0
LINE
  8
0
 62
     0
 10
96.7687
 20
28.1437
 30
0.0
 11
96.7687
 21
25.0431
 31
0.0
  0
LINE
  8
0
 62
     0
 10
96.7687
 20
25.0431
 30
0.0
 11
95.9693
 21
25.0431
 31
0.0
  0
LINE
  8
0
 62
     0
 10
95.9693
 20
5.99309
 30
0.0
 11
95.9693
 21
4.99403
 31
0.0
  0
LINE
  8
0
 62
     0
 10
95.9693
 20
4.99403
 30
0.0
 11
81.9686
 21
4.99403
 31
0.0
  0
LINE
  8
0
 62
     0
 10
81.9686
 20
4.99403
 30
0.0
 11
81.9686
 21
5.99309
 31
0.0
  0
LINE
  8
0
 62
     0
 10
81.9686
 20
5.99309
 30
0.0
 11
81.1692
 21
5.99309
 31
0.0
  0
LINE
  8
0
 62
     0
 10
81.1692
 20
5.99309
 30
0.0
 11
81.1692
 21
9.09366
 31
0.0
  0
LINE
  8
0
 62
     0
 10
81.1692
 20
9.09366
 30
0.0
 11
81.9686
 21
9.09366
 31
0.0
  0
LINE
  8
0
 62
     0
 10
81.9686
 20
9.09366
 30
0.0
 11
81.9686
 21
14.8939
 31
0.0
  0
LINE
  8
0
 62
     0
 10
81.9686
 20
14.8939
 30
0.0
 11
81.1692
 21
14.8939
 31
0.0
  0
LINE
  8
0
 62
     0
 10
81.1692
 20
14.8939
 30
0.0
 11
81.1692
 21
17.9944
 31
0.0
  0
LINE
  8
0
 62
     0
 10
81.1692
 20
17.9944
 30
0.0
 11
81.9686
 21
17.9944
 31
0.0
  0
LINE
  8
0
 62
     0
 10
81.9686
 20
17.9944
 30
0.0
 11
81.9686
 21
18.9935
 31
0.0
  0
LINE
  8
0
 62
     0
 10
81.9686
 20
18.9935
 30
0.0
 11
95.9693
 21
18.9935
 31
0.0
  0
LINE
  8
0
 62
     0
 10
95.9693
 20
18.9935
 30
0.0
 11
95.9693
 21
17.9944
 31
0.0
  0
LINE
  8
0
 62
     0
 10
95.9693
 20
17.9944
 30
0.0
 11
96.7687
 21
17.9944
 31
0.0
  0
LINE
  8
0
 62
     0
 10
96.7687
 20
17.9944
 30
0.0
 11
96.7687
 21
14.8939
 31
0.0
  0
LINE
  8
0
 62
     0
 10
96.7687
 20
14.8939
 30
0.0
 11
95.9693
 21
14.8939
 31
0.0
  0
LINE
  8
0
 62
     0
 10
95.9693
 20
14.8939
 30
0.0
 11
95.9693
 21
9.09366
 31
0.0
  0
LINE
  8
0
 62
     0
 10
95.9693
 20
9.09366
 30
0.0
 11
96.7687
 21
9.09366
 31
0.0
  0
LINE
  8
0
 62
     0
 10
96.7687
 20
9.09366
 30
0.0
 11
96.7687
 21
5.99309
 31
0.0
  0
LINE
  8
0
 62
     0
 10
96.7687
 20
5.99309
 30
0.0
 11
95.9693
 21
5.99309
 31
0.0
  0
LINE
  8
0
 62
     0
 10
115.019
 20
82.193
 30
0.0
 11
115.019
 21
81.1939
 31
0.0
  0
LINE
  8
0
 62
     0
 10
115.019
 20
81.1939
 30
0.0
 11
101.019
 21
81.1939
 31
0.0
  0
LINE
  8
0
 62
     0
 10
101.019
 20
81.1939
 30
0.0
 11
101.019
 21
82.193
 31
0.0
  0
LINE
  8
0
 62
     0
 10
101.019
 20
82.193
 30
0.0
 11
100.219
 21
82.193
 31
0.0
  0
LINE
  8
0
 62
     0
 10
100.219
 20
82.193
 30
0.0
 11
100.219
 21
85.2936
 31
0.0
  0
LINE
  8
0
 62
     0
 10
100.219
 20
85.2936
 30
0.0
 11
101.019
 21
85.2936
 31
0.0
  0
LINE
  8
0
 62
     0
 10
101.019
 20
85.2936
 30
0.0
 11
101.019
 21
91.0939
 31
0.0
  0
LINE
  8
0
 62
     0
 10
101.019
 20
91.0939
 30
0.0
 11
100.219
 21
91.0939
 31
0.0
  0
LINE
  8
0
 62
     0
 10
100.219
 20
91.0939
 30
0.0
 11
100.219
 21
94.1945
 31
0.0
  0
LINE
  8
0
 62
     0
 10
100.219
 20
94.1945
 30
0.0
 11
101.019
 21
94.1945
 31
0.0
  0
LINE
  8
0
 62
     0
 10
101.019
 20
94.1945
 30
0.0
 11
101.019
 21
95.1936
 31
0.0
  0
LINE
  8
0
 62
     0
 10
101.019
 20
95.1936
 30
0.0
 11
115.019
 21
95.1936
 31
0.0
  0
LINE
  8
0
 62
     0
 10
115.019
 20
95.1936
 30
0.0
 11
115.019
 21
94.1945
 31
0.0
  0
LINE
  8
0
 62
     0
 10
115.019
 20
94.1945
 30
0.0
 11
115.819
 21
94.1945
 31
0.0
  0
LINE
  8
0
 62
     0
 10
115.819
 20
94.1945
 30
0.0
 11
115.819
 21
91.0939
 31
0.0
  0
LINE
  8
0
 62
     0
 10
115.819
 20
91.0939
 30
0.0
 11
115.019
 21
91.0939
 31
0.0
  0
LINE
  8
0
 62
     0
 10
115.019
 20
91.0939
 30
0.0
 11
115.019
 21
85.2936
 31
0.0
  0
LINE
  8
0
 62
     0
 10
115.019
 20
85.2936
 30
0.0
 11
115.819
 21
85.2936
 31
0.0
  0
LINE
  8
0
 62
     0
 10
115.819
 20
85.2936
 30
0.0
 11
115.819
 21
82.193
 31
0.0
  0
LINE
  8
0
 62
     0
 10
115.819
 20
82.193
 30
0.0
 11
115.019
 21
82.193
 31
0.0
  0
LINE
  8
0
 62
     0
 10
115.019
 20
63.143
 30
0.0
 11
115.019
 21
62.1439
 31
0.0
  0
LINE
  8
0
 62
     0
 10
115.019
 20
62.1439
 30
0.0
 11
101.019
 21
62.1439
 31
0.0
  0
LINE
  8
0
 62
     0
 10
101.019
 20
62.1439
 30
0.0
 11
101.019
 21
63.143
 31
0.0
  0
LINE
  8
0
 62
     0
 10
101.019
 20
63.143
 30
0.0
 11
100.219
 21
63.143
 31
0.0
  0
LINE
  8
0
 62
     0
 10
100.219
 20
63.143
 30
0.0
 11
100.219
 21
66.2436
 31
0.0
  0
LINE
  8
0
 62
     0
 10
100.219
 20
66.2436
 30
0.0
 11
101.019
 21
66.2436
 31
0.0
  0
LINE
  8
0
 62
     0
 10
101.019
 20
66.2436
 30
0.0
 11
101.019
 21
72.0439
 31
0.0
  0
LINE
  8
0
 62
     0
 10
101.019
 20
72.0439
 30
0.0
 11
100.219
 21
72.0439
 31
0.0
  0
LINE
  8
0
 62
     0
 10
100.219
 20
72.0439
 30
0.0
 11
100.219
 21
75.1445
 31
0.0
  0
LINE
  8
0
 62
     0
 10
100.219
 20
75.1445
 30
0.0
 11
101.019
 21
75.1445
 31
0.0
  0
LINE
  8
0
 62
     0
 10
101.019
 20
75.1445
 30
0.0
 11
101.019
 21
76.1436
 31
0.0
  0
LINE
  8
0
 62
     0
 10
101.019
 20
76.1436
 30
0.0
 11
115.019
 21
76.1436
 31
0.0
  0
LINE
  8
0
 62
     0
 10
115.019
 20
76.1436
 30
0.0
 11
115.019
 21
75.1445
 31
0.0
  0
LINE
  8
0
 62
     0
 10
115.019
 20
75.1445
 30
0.0
 11
115.819
 21
75.1445
 31
0.0
  0
LINE
  8
0
 62
     0
 10
115.819
 20
75.1445
 30
0.0
 11
115.819
 21
72.0439
 31
0.0
  0
LINE
  8
0
 62
     0
 10
115.819
 20
72.0439
 30
0.0
 11
115.019
 21
72.0439
 31
0.0
  0
LINE
  8
0
 62
     0
 10
115.019
 20
72.0439
 30
0.0
 11
115.019
 21
66.2436
 31
0.0
  0
LINE
  8
0
 62
     0
 10
115.019
 20
66.2436
 30
0.0
 11
115.819
 21
66.2436
 31
0.0
  0
LINE
  8
0
 62
     0
 10
115.819
 20
66.2436
 30
0.0
 11
115.819
 21
63.143
 31
0.0
  0
LINE
  8
0
 62
     0
 10
115.819
 20
63.143
 30
0.0
 11
115.019
 21
63.143
 31
0.0
  0
LINE
  8
0
 62
     0
 10
115.019
 20
44.093
 30
0.0
 11
115.019
 21
43.0939
 31
0.0
  0
LINE
  8
0
 62
     0
 10
115.019
 20
43.0939
 30
0.0
 11
101.019
 21
43.0939
 31
0.0
  0
LINE
  8
0
 62
     0
 10
101.019
 20
43.0939
 30
0.0
 11
101.019
 21
44.093
 31
0.0
  0
LINE
  8
0
 62
     0
 10
101.019
 20
44.093
 30
0.0
 11
100.219
 21
44.093
 31
0.0
  0
LINE
  8
0
 62
     0
 10
100.219
 20
44.093
 30
0.0
 11
100.219
 21
47.1936
 31
0.0
  0
LINE
  8
0
 62
     0
 10
100.219
 20
47.1936
 30
0.0
 11
101.019
 21
47.1936
 31
0.0
  0
LINE
  8
0
 62
     0
 10
101.019
 20
47.1936
 30
0.0
 11
101.019
 21
52.9939
 31
0.0
  0
LINE
  8
0
 62
     0
 10
101.019
 20
52.9939
 30
0.0
 11
100.219
 21
52.9939
 31
0.0
  0
LINE
  8
0
 62
     0
 10
100.219
 20
52.9939
 30
0.0
 11
100.219
 21
56.0945
 31
0.0
  0
LINE
  8
0
 62
     0
 10
100.219
 20
56.0945
 30
0.0
 11
101.019
 21
56.0945
 31
0.0
  0
LINE
  8
0
 62
     0
 10
101.019
 20
56.0945
 30
0.0
 11
101.019
 21
57.0936
 31
0.0
  0
LINE
  8
0
 62
     0
 10
101.019
 20
57.0936
 30
0.0
 11
115.019
 21
57.0936
 31
0.0
  0
LINE
  8
0
 62
     0
 10
115.019
 20
57.0936
 30
0.0
 11
115.019
 21
56.0945
 31
0.0
  0
LINE
  8
0
 62
     0
 10
115.019
 20
56.0945
 30
0.0
 11
115.819
 21
56.0945
 31
0.0
  0
LINE
  8
0
 62
     0
 10
115.819
 20
56.0945
 30
0.0
 11
115.819
 21
52.9939
 31
0.0
  0
LINE
  8
0
 62
     0
 10
115.819
 20
52.9939
 30
0.0
 11
115.019
 21
52.9939
 31
0.0
  0
LINE
  8
0
 62
     0
 10
115.019
 20
52.9939
 30
0.0
 11
115.019
 21
47.1936
 31
0.0
  0
LINE
  8
0
 62
     0
 10
115.019
 20
47.1936
 30
0.0
 11
115.819
 21
47.1936
 31
0.0
  0
LINE
  8
0
 62
     0
 10
115.819
 20
47.1936
 30
0.0
 11
115.819
 21
44.093
 31
0.0
  0
LINE
  8
0
 62
     0
 10
115.819
 20
44.093
 30
0.0
 11
115.019
 21
44.093
 31
0.0
  0
LINE
  8
0
 62
     0
 10
115.019
 20
25.0431
 30
0.0
 11
115.019
 21
24.044
 31
0.0
  0
LINE
  8
0
 62
     0
 10
115.019
 20
24.044
 30
0.0
 11
101.019
 21
24.044
 31
0.0
  0
LINE
  8
0
 62
     0
 10
101.019
 20
24.044
 30
0.0
 11
101.019
 21
25.0431
 31
0.0
  0
LINE
  8
0
 62
     0
 10
101.019
 20
25.0431
 30
0.0
 11
100.219
 21
25.0431
 31
0.0
  0
LINE
  8
0
 62
     0
 10
100.219
 20
25.0431
 30
0.0
 11
100.219
 21
28.1437
 31
0.0
  0
LINE
  8
0
 62
     0
 10
100.219
 20
28.1437
 30
0.0
 11
101.019
 21
28.1437
 31
0.0
  0
LINE
  8
0
 62
     0
 10
101.019
 20
28.1437
 30
0.0
 11
101.019
 21
33.9439
 31
0.0
  0
LINE
  8
0
 62
     0
 10
101.019
 20
33.9439
 30
0.0
 11
100.219
 21
33.9439
 31
0.0
  0
LINE
  8
0
 62
     0
 10
100.219
 20
33.9439
 30
0.0
 11
100.219
 21
37.0445
 31
0.0
  0
LINE
  8
0
 62
     0
 10
100.219
 20
37.0445
 30
0.0
 11
101.019
 21
37.0445
 31
0.0
  0
LINE
  8
0
 62
     0
 10
101.019
 20
37.0445
 30
0.0
 11
101.019
 21
38.0436
 31
0.0
  0
LINE
  8
0
 62
     0
 10
101.019
 20
38.0436
 30
0.0
 11
115.019
 21
38.0436
 31
0.0
  0
LINE
  8
0
 62
     0
 10
115.019
 20
38.0436
 30
0.0
 11
115.019
 21
37.0445
 31
0.0
  0
LINE
  8
0
 62
     0
 10
115.019
 20
37.0445
 30
0.0
 11
115.819
 21
37.0445
 31
0.0
  0
LINE
  8
0
 62
     0
 10
115.819
 20
37.0445
 30
0.0
 11
115.819
 21
33.9439
 31
0.0
  0
LINE
  8
0
 62
     0
 10
115.819
 20
33.9439
 30
0.0
 11
115.019
 21
33.9439
 31
0.0
  0
LINE
  8
0
 62
     0
 10
115.019
 20
33.9439
 30
0.0
 11
115.019
 21
28.1437
 31
0.0
  0
LINE
  8
0
 62
     0
 10
115.019
 20
28.1437
 30
0.0
 11
115.819
 21
28.1437
 31
0.0
  0
LINE
  8
0
 62
     0
 10
115.819
 20
28.1437
 30
0.0
 11
115.819
 21
25.0431
 31
0.0
  0
LINE
  8
0
 62
     0
 10
115.819
 20
25.0431
 30
0.0
 11
115.019
 21
25.0431
 31
0.0
  0
LINE
  8
0
 62
     0
 10
132.769
 20
11.4942
 30
0.0
 11
132.769
 21
5.22415
 31
0.0
  0
LINE
  8
0
 62
     0
 10
132.769
 20
5.22415
 30
0.0
 11
131.144
 21
5.22415
 31
0.0
  0
LINE
  8
0
 62
     0
 10
131.144
 20
5.22415
 30
0.0
 11
131.144
 21
4.24438
 31
0.0
  0
LINE
  8
0
 62
     0
 10
131.144
 20
4.24438
 30
0.0
 11
127.843
 21
4.24438
 31
0.0
  0
LINE
  8
0
 62
     0
 10
127.843
 20
4.24438
 30
0.0
 11
127.843
 21
5.22415
 31
0.0
  0
LINE
  8
0
 62
     0
 10
127.843
 20
5.22415
 30
0.0
 11
126.119
 21
5.22415
 31
0.0
  0
LINE
  8
0
 62
     0
 10
126.119
 20
5.22415
 30
0.0
 11
126.119
 21
6.0234
 31
0.0
  0
LINE
  8
0
 62
     0
 10
126.119
 20
6.0234
 30
0.0
 11
125.344
 21
6.0234
 31
0.0
  0
LINE
  8
0
 62
     0
 10
125.344
 20
6.0234
 30
0.0
 11
125.344
 21
5.99309
 31
0.0
  0
LINE
  8
0
 62
     0
 10
125.344
 20
5.99309
 30
0.0
 11
124.544
 21
5.99309
 31
0.0
  0
LINE
  8
0
 62
     0
 10
124.544
 20
5.99309
 30
0.0
 11
124.544
 21
4.99403
 31
0.0
  0
LINE
  8
0
 62
     0
 10
124.544
 20
4.99403
 30
0.0
 11
110.544
 21
4.99403
 31
0.0
  0
LINE
  8
0
 62
     0
 10
110.544
 20
4.99403
 30
0.0
 11
110.544
 21
5.99309
 31
0.0
  0
LINE
  8
0
 62
     0
 10
110.544
 20
5.99309
 30
0.0
 11
109.744
 21
5.99309
 31
0.0
  0
LINE
  8
0
 62
     0
 10
109.744
 20
5.99309
 30
0.0
 11
109.744
 21
6.0234
 31
0.0
  0
LINE
  8
0
 62
     0
 10
109.744
 20
6.0234
 30
0.0
 11
108.968
 21
6.0234
 31
0.0
  0
LINE
  8
0
 62
     0
 10
108.968
 20
6.0234
 30
0.0
 11
108.968
 21
5.22415
 31
0.0
  0
LINE
  8
0
 62
     0
 10
108.968
 20
5.22415
 30
0.0
 11
107.243
 21
5.22415
 31
0.0
  0
LINE
  8
0
 62
     0
 10
107.243
 20
5.22415
 30
0.0
 11
107.243
 21
4.24438
 31
0.0
  0
LINE
  8
0
 62
     0
 10
107.243
 20
4.24438
 30
0.0
 11
103.944
 21
4.24438
 31
0.0
  0
LINE
  8
0
 62
     0
 10
103.944
 20
4.24438
 30
0.0
 11
103.944
 21
5.22415
 31
0.0
  0
LINE
  8
0
 62
     0
 10
103.944
 20
5.22415
 30
0.0
 11
102.319
 21
5.22415
 31
0.0
  0
LINE
  8
0
 62
     0
 10
102.319
 20
5.22415
 30
0.0
 11
102.319
 21
11.4942
 31
0.0
  0
LINE
  8
0
 62
     0
 10
102.319
 20
11.4942
 30
0.0
 11
101.444
 21
11.4942
 31
0.0
  0
LINE
  8
0
 62
     0
 10
101.444
 20
11.4942
 30
0.0
 11
101.444
 21
14.2944
 31
0.0
  0
LINE
  8
0
 62
     0
 10
101.444
 20
14.2944
 30
0.0
 11
102.319
 21
14.2944
 31
0.0
  0
LINE
  8
0
 62
     0
 10
102.319
 20
14.2944
 30
0.0
 11
102.319
 21
17.5231
 31
0.0
  0
LINE
  8
0
 62
     0
 10
102.319
 20
17.5231
 30
0.0
 11
103.944
 21
17.5231
 31
0.0
  0
LINE
  8
0
 62
     0
 10
103.944
 20
17.5231
 30
0.0
 11
103.944
 21
18.4437
 31
0.0
  0
LINE
  8
0
 62
     0
 10
103.944
 20
18.4437
 30
0.0
 11
107.243
 21
18.4437
 31
0.0
  0
LINE
  8
0
 62
     0
 10
107.243
 20
18.4437
 30
0.0
 11
107.243
 21
17.5231
 31
0.0
  0
LINE
  8
0
 62
     0
 10
107.243
 20
17.5231
 30
0.0
 11
108.968
 21
17.5231
 31
0.0
  0
LINE
  8
0
 62
     0
 10
108.968
 20
17.5231
 30
0.0
 11
108.968
 21
16.7239
 31
0.0
  0
LINE
  8
0
 62
     0
 10
108.968
 20
16.7239
 30
0.0
 11
109.744
 21
16.7239
 31
0.0
  0
LINE
  8
0
 62
     0
 10
109.744
 20
16.7239
 30
0.0
 11
109.744
 21
17.9944
 31
0.0
  0
LINE
  8
0
 62
     0
 10
109.744
 20
17.9944
 30
0.0
 11
110.544
 21
17.9944
 31
0.0
  0
LINE
  8
0
 62
     0
 10
110.544
 20
17.9944
 30
0.0
 11
110.544
 21
18.9935
 31
0.0
  0
LINE
  8
0
 62
     0
 10
110.544
 20
18.9935
 30
0.0
 11
124.544
 21
18.9935
 31
0.0
  0
LINE
  8
0
 62
     0
 10
124.544
 20
18.9935
 30
0.0
 11
124.544
 21
17.9944
 31
0.0
  0
LINE
  8
0
 62
     0
 10
124.544
 20
17.9944
 30
0.0
 11
125.344
 21
17.9944
 31
0.0
  0
LINE
  8
0
 62
     0
 10
125.344
 20
17.9944
 30
0.0
 11
125.344
 21
16.7239
 31
0.0
  0
LINE
  8
0
 62
     0
 10
125.344
 20
16.7239
 30
0.0
 11
126.119
 21
16.7239
 31
0.0
  0
LINE
  8
0
 62
     0
 10
126.119
 20
16.7239
 30
0.0
 11
126.119
 21
17.5231
 31
0.0
  0
LINE
  8
0
 62
     0
 10
126.119
 20
17.5231
 30
0.0
 11
127.843
 21
17.5231
 31
0.0
  0
LINE
  8
0
 62
     0
 10
127.843
 20
17.5231
 30
0.0
 11
127.843
 21
18.4437
 31
0.0
  0
LINE
  8
0
 62
     0
 10
127.843
 20
18.4437
 30
0.0
 11
131.144
 21
18.4437
 31
0.0
  0
LINE
  8
0
 62
     0
 10
131.144
 20
18.4437
 30
0.0
 11
131.144
 21
17.5231
 31
0.0
  0
LINE
  8
0
 62
     0
 10
131.144
 20
17.5231
 30
0.0
 11
132.769
 21
17.5231
 31
0.0
  0
LINE
  8
0
 62
     0
 10
132.769
 20
17.5231
 30
0.0
 11
132.769
 21
14.2944
 31
0.0
  0
LINE
  8
0
 62
     0
 10
132.769
 20
14.2944
 30
0.0
 11
133.644
 21
14.2944
 31
0.0
  0
LINE
  8
0
 62
     0
 10
133.644
 20
14.2944
 30
0.0
 11
133.644
 21
11.4942
 31
0.0
  0
LINE
  8
0
 62
     0
 10
133.644
 20
11.4942
 30
0.0
 11
132.769
 21
11.4942
 31
0.0
  0
LINE
  8
0
 62
     0
 10
134.069
 20
82.193
 30
0.0
 11
134.069
 21
81.1939
 31
0.0
  0
LINE
  8
0
 62
     0
 10
134.069
 20
81.1939
 30
0.0
 11
120.069
 21
81.1939
 31
0.0
  0
LINE
  8
0
 62
     0
 10
120.069
 20
81.1939
 30
0.0
 11
120.069
 21
82.193
 31
0.0
  0
LINE
  8
0
 62
     0
 10
120.069
 20
82.193
 30
0.0
 11
119.269
 21
82.193
 31
0.0
  0
LINE
  8
0
 62
     0
 10
119.269
 20
82.193
 30
0.0
 11
119.269
 21
85.2936
 31
0.0
  0
LINE
  8
0
 62
     0
 10
119.269
 20
85.2936
 30
0.0
 11
120.069
 21
85.2936
 31
0.0
  0
LINE
  8
0
 62
     0
 10
120.069
 20
85.2936
 30
0.0
 11
120.069
 21
91.0939
 31
0.0
  0
LINE
  8
0
 62
     0
 10
120.069
 20
91.0939
 30
0.0
 11
119.269
 21
91.0939
 31
0.0
  0
LINE
  8
0
 62
     0
 10
119.269
 20
91.0939
 30
0.0
 11
119.269
 21
94.1945
 31
0.0
  0
LINE
  8
0
 62
     0
 10
119.269
 20
94.1945
 30
0.0
 11
120.069
 21
94.1945
 31
0.0
  0
LINE
  8
0
 62
     0
 10
120.069
 20
94.1945
 30
0.0
 11
120.069
 21
95.1936
 31
0.0
  0
LINE
  8
0
 62
     0
 10
120.069
 20
95.1936
 30
0.0
 11
134.069
 21
95.1936
 31
0.0
  0
LINE
  8
0
 62
     0
 10
134.069
 20
95.1936
 30
0.0
 11
134.069
 21
94.1945
 31
0.0
  0
LINE
  8
0
 62
     0
 10
134.069
 20
94.1945
 30
0.0
 11
134.869
 21
94.1945
 31
0.0
  0
LINE
  8
0
 62
     0
 10
134.869
 20
94.1945
 30
0.0
 11
134.869
 21
91.0939
 31
0.0
  0
LINE
  8
0
 62
     0
 10
134.869
 20
91.0939
 30
0.0
 11
134.069
 21
91.0939
 31
0.0
  0
LINE
  8
0
 62
     0
 10
134.069
 20
91.0939
 30
0.0
 11
134.069
 21
85.2936
 31
0.0
  0
LINE
  8
0
 62
     0
 10
134.069
 20
85.2936
 30
0.0
 11
134.869
 21
85.2936
 31
0.0
  0
LINE
  8
0
 62
     0
 10
134.869
 20
85.2936
 30
0.0
 11
134.869
 21
82.193
 31
0.0
  0
LINE
  8
0
 62
     0
 10
134.869
 20
82.193
 30
0.0
 11
134.069
 21
82.193
 31
0.0
  0
LINE
  8
0
 62
     0
 10
134.069
 20
63.143
 30
0.0
 11
134.069
 21
62.1439
 31
0.0
  0
LINE
  8
0
 62
     0
 10
134.069
 20
62.1439
 30
0.0
 11
120.069
 21
62.1439
 31
0.0
  0
LINE
  8
0
 62
     0
 10
120.069
 20
62.1439
 30
0.0
 11
120.069
 21
63.143
 31
0.0
  0
LINE
  8
0
 62
     0
 10
120.069
 20
63.143
 30
0.0
 11
119.269
 21
63.143
 31
0.0
  0
LINE
  8
0
 62
     0
 10
119.269
 20
63.143
 30
0.0
 11
119.269
 21
66.2436
 31
0.0
  0
LINE
  8
0
 62
     0
 10
119.269
 20
66.2436
 30
0.0
 11
120.069
 21
66.2436
 31
0.0
  0
LINE
  8
0
 62
     0
 10
120.069
 20
66.2436
 30
0.0
 11
120.069
 21
72.0439
 31
0.0
  0
LINE
  8
0
 62
     0
 10
120.069
 20
72.0439
 30
0.0
 11
119.269
 21
72.0439
 31
0.0
  0
LINE
  8
0
 62
     0
 10
119.269
 20
72.0439
 30
0.0
 11
119.269
 21
75.1445
 31
0.0
  0
LINE
  8
0
 62
     0
 10
119.269
 20
75.1445
 30
0.0
 11
120.069
 21
75.1445
 31
0.0
  0
LINE
  8
0
 62
     0
 10
120.069
 20
75.1445
 30
0.0
 11
120.069
 21
76.1436
 31
0.0
  0
LINE
  8
0
 62
     0
 10
120.069
 20
76.1436
 30
0.0
 11
134.069
 21
76.1436
 31
0.0
  0
LINE
  8
0
 62
     0
 10
134.069
 20
76.1436
 30
0.0
 11
134.069
 21
75.1445
 31
0.0
  0
LINE
  8
0
 62
     0
 10
134.069
 20
75.1445
 30
0.0
 11
134.869
 21
75.1445
 31
0.0
  0
LINE
  8
0
 62
     0
 10
134.869
 20
75.1445
 30
0.0
 11
134.869
 21
72.0439
 31
0.0
  0
LINE
  8
0
 62
     0
 10
134.869
 20
72.0439
 30
0.0
 11
134.069
 21
72.0439
 31
0.0
  0
LINE
  8
0
 62
     0
 10
134.069
 20
72.0439
 30
0.0
 11
134.069
 21
66.2436
 31
0.0
  0
LINE
  8
0
 62
     0
 10
134.069
 20
66.2436
 30
0.0
 11
134.869
 21
66.2436
 31
0.0
  0
LINE
  8
0
 62
     0
 10
134.869
 20
66.2436
 30
0.0
 11
134.869
 21
63.143
 31
0.0
  0
LINE
  8
0
 62
     0
 10
134.869
 20
63.143
 30
0.0
 11
134.069
 21
63.143
 31
0.0
  0
LINE
  8
0
 62
     0
 10
134.069
 20
44.093
 30
0.0
 11
134.069
 21
43.0939
 31
0.0
  0
LINE
  8
0
 62
     0
 10
134.069
 20
43.0939
 30
0.0
 11
120.069
 21
43.0939
 31
0.0
  0
LINE
  8
0
 62
     0
 10
120.069
 20
43.0939
 30
0.0
 11
120.069
 21
44.093
 31
0.0
  0
LINE
  8
0
 62
     0
 10
120.069
 20
44.093
 30
0.0
 11
119.269
 21
44.093
 31
0.0
  0
LINE
  8
0
 62
     0
 10
119.269
 20
44.093
 30
0.0
 11
119.269
 21
47.1936
 31
0.0
  0
LINE
  8
0
 62
     0
 10
119.269
 20
47.1936
 30
0.0
 11
120.069
 21
47.1936
 31
0.0
  0
LINE
  8
0
 62
     0
 10
120.069
 20
47.1936
 30
0.0
 11
120.069
 21
52.9939
 31
0.0
  0
LINE
  8
0
 62
     0
 10
120.069
 20
52.9939
 30
0.0
 11
119.269
 21
52.9939
 31
0.0
  0
LINE
  8
0
 62
     0
 10
119.269
 20
52.9939
 30
0.0
 11
119.269
 21
56.0945
 31
0.0
  0
LINE
  8
0
 62
     0
 10
119.269
 20
56.0945
 30
0.0
 11
120.069
 21
56.0945
 31
0.0
  0
LINE
  8
0
 62
     0
 10
120.069
 20
56.0945
 30
0.0
 11
120.069
 21
57.0936
 31
0.0
  0
LINE
  8
0
 62
     0
 10
120.069
 20
57.0936
 30
0.0
 11
134.069
 21
57.0936
 31
0.0
  0
LINE
  8
0
 62
     0
 10
134.069
 20
57.0936
 30
0.0
 11
134.069
 21
56.0945
 31
0.0
  0
LINE
  8
0
 62
     0
 10
134.069
 20
56.0945
 30
0.0
 11
134.869
 21
56.0945
 31
0.0
  0
LINE
  8
0
 62
     0
 10
134.869
 20
56.0945
 30
0.0
 11
134.869
 21
52.9939
 31
0.0
  0
LINE
  8
0
 62
     0
 10
134.869
 20
52.9939
 30
0.0
 11
134.069
 21
52.9939
 31
0.0
  0
LINE
  8
0
 62
     0
 10
134.069
 20
52.9939
 30
0.0
 11
134.069
 21
47.1936
 31
0.0
  0
LINE
  8
0
 62
     0
 10
134.069
 20
47.1936
 30
0.0
 11
134.869
 21
47.1936
 31
0.0
  0
LINE
  8
0
 62
     0
 10
134.869
 20
47.1936
 30
0.0
 11
134.869
 21
44.093
 31
0.0
  0
LINE
  8
0
 62
     0
 10
134.869
 20
44.093
 30
0.0
 11
134.069
 21
44.093
 31
0.0
  0
LINE
  8
0
 62
     0
 10
134.069
 20
25.0431
 30
0.0
 11
134.069
 21
24.044
 31
0.0
  0
LINE
  8
0
 62
     0
 10
134.069
 20
24.044
 30
0.0
 11
120.069
 21
24.044
 31
0.0
  0
LINE
  8
0
 62
     0
 10
120.069
 20
24.044
 30
0.0
 11
120.069
 21
25.0431
 31
0.0
  0
LINE
  8
0
 62
     0
 10
120.069
 20
25.0431
 30
0.0
 11
119.269
 21
25.0431
 31
0.0
  0
LINE
  8
0
 62
     0
 10
119.269
 20
25.0431
 30
0.0
 11
119.269
 21
28.1437
 31
0.0
  0
LINE
  8
0
 62
     0
 10
119.269
 20
28.1437
 30
0.0
 11
120.069
 21
28.1437
 31
0.0
  0
LINE
  8
0
 62
     0
 10
120.069
 20
28.1437
 30
0.0
 11
120.069
 21
33.9439
 31
0.0
  0
LINE
  8
0
 62
     0
 10
120.069
 20
33.9439
 30
0.0
 11
119.269
 21
33.9439
 31
0.0
  0
LINE
  8
0
 62
     0
 10
119.269
 20
33.9439
 30
0.0
 11
119.269
 21
37.0445
 31
0.0
  0
LINE
  8
0
 62
     0
 10
119.269
 20
37.0445
 30
0.0
 11
120.069
 21
37.0445
 31
0.0
  0
LINE
  8
0
 62
     0
 10
120.069
 20
37.0445
 30
0.0
 11
120.069
 21
38.0436
 31
0.0
  0
LINE
  8
0
 62
     0
 10
120.069
 20
38.0436
 30
0.0
 11
134.069
 21
38.0436
 31
0.0
  0
LINE
  8
0
 62
     0
 10
134.069
 20
38.0436
 30
0.0
 11
134.069
 21
37.0445
 31
0.0
  0
LINE
  8
0
 62
     0
 10
134.069
 20
37.0445
 30
0.0
 11
134.869
 21
37.0445
 31
0.0
  0
LINE
  8
0
 62
     0
 10
134.869
 20
37.0445
 30
0.0
 11
134.869
 21
33.9439
 31
0.0
  0
LINE
  8
0
 62
     0
 10
134.869
 20
33.9439
 30
0.0
 11
134.069
 21
33.9439
 31
0.0
  0
LINE
  8
0
 62
     0
 10
134.069
 20
33.9439
 30
0.0
 11
134.069
 21
28.1437
 31
0.0
  0
LINE
  8
0
 62
     0
 10
134.069
 20
28.1437
 30
0.0
 11
134.869
 21
28.1437
 31
0.0
  0
LINE
  8
0
 62
     0
 10
134.869
 20
28.1437
 30
0.0
 11
134.869
 21
25.0431
 31
0.0
  0
LINE
  8
0
 62
     0
 10
134.869
 20
25.0431
 30
0.0
 11
134.069
 21
25.0431
 31
0.0
  0
LINE
  8
0
 62
     0
 10
153.119
 20
82.193
 30
0.0
 11
153.119
 21
81.1939
 31
0.0
  0
LINE
  8
0
 62
     0
 10
153.119
 20
81.1939
 30
0.0
 11
139.119
 21
81.1939
 31
0.0
  0
LINE
  8
0
 62
     0
 10
139.119
 20
81.1939
 30
0.0
 11
139.119
 21
82.193
 31
0.0
  0
LINE
  8
0
 62
     0
 10
139.119
 20
82.193
 30
0.0
 11
138.319
 21
82.193
 31
0.0
  0
LINE
  8
0
 62
     0
 10
138.319
 20
82.193
 30
0.0
 11
138.319
 21
85.2936
 31
0.0
  0
LINE
  8
0
 62
     0
 10
138.319
 20
85.2936
 30
0.0
 11
139.119
 21
85.2936
 31
0.0
  0
LINE
  8
0
 62
     0
 10
139.119
 20
85.2936
 30
0.0
 11
139.119
 21
91.0939
 31
0.0
  0
LINE
  8
0
 62
     0
 10
139.119
 20
91.0939
 30
0.0
 11
138.319
 21
91.0939
 31
0.0
  0
LINE
  8
0
 62
     0
 10
138.319
 20
91.0939
 30
0.0
 11
138.319
 21
94.1945
 31
0.0
  0
LINE
  8
0
 62
     0
 10
138.319
 20
94.1945
 30
0.0
 11
139.119
 21
94.1945
 31
0.0
  0
LINE
  8
0
 62
     0
 10
139.119
 20
94.1945
 30
0.0
 11
139.119
 21
95.1936
 31
0.0
  0
LINE
  8
0
 62
     0
 10
139.119
 20
95.1936
 30
0.0
 11
153.119
 21
95.1936
 31
0.0
  0
LINE
  8
0
 62
     0
 10
153.119
 20
95.1936
 30
0.0
 11
153.119
 21
94.1945
 31
0.0
  0
LINE
  8
0
 62
     0
 10
153.119
 20
94.1945
 30
0.0
 11
153.919
 21
94.1945
 31
0.0
  0
LINE
  8
0
 62
     0
 10
153.919
 20
94.1945
 30
0.0
 11
153.919
 21
91.0939
 31
0.0
  0
LINE
  8
0
 62
     0
 10
153.919
 20
91.0939
 30
0.0
 11
153.119
 21
91.0939
 31
0.0
  0
LINE
  8
0
 62
     0
 10
153.119
 20
91.0939
 30
0.0
 11
153.119
 21
85.2936
 31
0.0
  0
LINE
  8
0
 62
     0
 10
153.119
 20
85.2936
 30
0.0
 11
153.919
 21
85.2936
 31
0.0
  0
LINE
  8
0
 62
     0
 10
153.919
 20
85.2936
 30
0.0
 11
153.919
 21
82.193
 31
0.0
  0
LINE
  8
0
 62
     0
 10
153.919
 20
82.193
 30
0.0
 11
153.119
 21
82.193
 31
0.0
  0
LINE
  8
0
 62
     0
 10
153.119
 20
63.143
 30
0.0
 11
153.119
 21
62.1439
 31
0.0
  0
LINE
  8
0
 62
     0
 10
153.119
 20
62.1439
 30
0.0
 11
139.119
 21
62.1439
 31
0.0
  0
LINE
  8
0
 62
     0
 10
139.119
 20
62.1439
 30
0.0
 11
139.119
 21
63.143
 31
0.0
  0
LINE
  8
0
 62
     0
 10
139.119
 20
63.143
 30
0.0
 11
138.319
 21
63.143
 31
0.0
  0
LINE
  8
0
 62
     0
 10
138.319
 20
63.143
 30
0.0
 11
138.319
 21
66.2436
 31
0.0
  0
LINE
  8
0
 62
     0
 10
138.319
 20
66.2436
 30
0.0
 11
139.119
 21
66.2436
 31
0.0
  0
LINE
  8
0
 62
     0
 10
139.119
 20
66.2436
 30
0.0
 11
139.119
 21
72.0439
 31
0.0
  0
LINE
  8
0
 62
     0
 10
139.119
 20
72.0439
 30
0.0
 11
138.319
 21
72.0439
 31
0.0
  0
LINE
  8
0
 62
     0
 10
138.319
 20
72.0439
 30
0.0
 11
138.319
 21
75.1445
 31
0.0
  0
LINE
  8
0
 62
     0
 10
138.319
 20
75.1445
 30
0.0
 11
139.119
 21
75.1445
 31
0.0
  0
LINE
  8
0
 62
     0
 10
139.119
 20
75.1445
 30
0.0
 11
139.119
 21
76.1436
 31
0.0
  0
LINE
  8
0
 62
     0
 10
139.119
 20
76.1436
 30
0.0
 11
153.119
 21
76.1436
 31
0.0
  0
LINE
  8
0
 62
     0
 10
153.119
 20
76.1436
 30
0.0
 11
153.119
 21
75.1445
 31
0.0
  0
LINE
  8
0
 62
     0
 10
153.119
 20
75.1445
 30
0.0
 11
153.919
 21
75.1445
 31
0.0
  0
LINE
  8
0
 62
     0
 10
153.919
 20
75.1445
 30
0.0
 11
153.919
 21
72.0439
 31
0.0
  0
LINE
  8
0
 62
     0
 10
153.919
 20
72.0439
 30
0.0
 11
153.119
 21
72.0439
 31
0.0
  0
LINE
  8
0
 62
     0
 10
153.119
 20
72.0439
 30
0.0
 11
153.119
 21
66.2436
 31
0.0
  0
LINE
  8
0
 62
     0
 10
153.119
 20
66.2436
 30
0.0
 11
153.919
 21
66.2436
 31
0.0
  0
LINE
  8
0
 62
     0
 10
153.919
 20
66.2436
 30
0.0
 11
153.919
 21
63.143
 31
0.0
  0
LINE
  8
0
 62
     0
 10
153.919
 20
63.143
 30
0.0
 11
153.119
 21
63.143
 31
0.0
  0
LINE
  8
0
 62
     0
 10
153.119
 20
44.093
 30
0.0
 11
153.119
 21
43.0939
 31
0.0
  0
LINE
  8
0
 62
     0
 10
153.119
 20
43.0939
 30
0.0
 11
139.119
 21
43.0939
 31
0.0
  0
LINE
  8
0
 62
     0
 10
139.119
 20
43.0939
 30
0.0
 11
139.119
 21
44.093
 31
0.0
  0
LINE
  8
0
 62
     0
 10
139.119
 20
44.093
 30
0.0
 11
138.319
 21
44.093
 31
0.0
  0
LINE
  8
0
 62
     0
 10
138.319
 20
44.093
 30
0.0
 11
138.319
 21
47.1936
 31
0.0
  0
LINE
  8
0
 62
     0
 10
138.319
 20
47.1936
 30
0.0
 11
139.119
 21
47.1936
 31
0.0
  0
LINE
  8
0
 62
     0
 10
139.119
 20
47.1936
 30
0.0
 11
139.119
 21
52.9939
 31
0.0
  0
LINE
  8
0
 62
     0
 10
139.119
 20
52.9939
 30
0.0
 11
138.319
 21
52.9939
 31
0.0
  0
LINE
  8
0
 62
     0
 10
138.319
 20
52.9939
 30
0.0
 11
138.319
 21
56.0945
 31
0.0
  0
LINE
  8
0
 62
     0
 10
138.319
 20
56.0945
 30
0.0
 11
139.119
 21
56.0945
 31
0.0
  0
LINE
  8
0
 62
     0
 10
139.119
 20
56.0945
 30
0.0
 11
139.119
 21
57.0936
 31
0.0
  0
LINE
  8
0
 62
     0
 10
139.119
 20
57.0936
 30
0.0
 11
153.119
 21
57.0936
 31
0.0
  0
LINE
  8
0
 62
     0
 10
153.119
 20
57.0936
 30
0.0
 11
153.119
 21
56.0945
 31
0.0
  0
LINE
  8
0
 62
     0
 10
153.119
 20
56.0945
 30
0.0
 11
153.919
 21
56.0945
 31
0.0
  0
LINE
  8
0
 62
     0
 10
153.919
 20
56.0945
 30
0.0
 11
153.919
 21
52.9939
 31
0.0
  0
LINE
  8
0
 62
     0
 10
153.919
 20
52.9939
 30
0.0
 11
153.119
 21
52.9939
 31
0.0
  0
LINE
  8
0
 62
     0
 10
153.119
 20
52.9939
 30
0.0
 11
153.119
 21
47.1936
 31
0.0
  0
LINE
  8
0
 62
     0
 10
153.119
 20
47.1936
 30
0.0
 11
153.919
 21
47.1936
 31
0.0
  0
LINE
  8
0
 62
     0
 10
153.919
 20
47.1936
 30
0.0
 11
153.919
 21
44.093
 31
0.0
  0
LINE
  8
0
 62
     0
 10
153.919
 20
44.093
 30
0.0
 11
153.119
 21
44.093
 31
0.0
  0
LINE
  8
0
 62
     0
 10
153.119
 20
25.0431
 30
0.0
 11
153.119
 21
24.044
 31
0.0
  0
LINE
  8
0
 62
     0
 10
153.119
 20
24.044
 30
0.0
 11
139.119
 21
24.044
 31
0.0
  0
LINE
  8
0
 62
     0
 10
139.119
 20
24.044
 30
0.0
 11
139.119
 21
25.0431
 31
0.0
  0
LINE
  8
0
 62
     0
 10
139.119
 20
25.0431
 30
0.0
 11
138.319
 21
25.0431
 31
0.0
  0
LINE
  8
0
 62
     0
 10
138.319
 20
25.0431
 30
0.0
 11
138.319
 21
28.1437
 31
0.0
  0
LINE
  8
0
 62
     0
 10
138.319
 20
28.1437
 30
0.0
 11
139.119
 21
28.1437
 31
0.0
  0
LINE
  8
0
 62
     0
 10
139.119
 20
28.1437
 30
0.0
 11
139.119
 21
33.9439
 31
0.0
  0
LINE
  8
0
 62
     0
 10
139.119
 20
33.9439
 30
0.0
 11
138.319
 21
33.9439
 31
0.0
  0
LINE
  8
0
 62
     0
 10
138.319
 20
33.9439
 30
0.0
 11
138.319
 21
37.0445
 31
0.0
  0
LINE
  8
0
 62
     0
 10
138.319
 20
37.0445
 30
0.0
 11
139.119
 21
37.0445
 31
0.0
  0
LINE
  8
0
 62
     0
 10
139.119
 20
37.0445
 30
0.0
 11
139.119
 21
38.0436
 31
0.0
  0
LINE
  8
0
 62
     0
 10
139.119
 20
38.0436
 30
0.0
 11
153.119
 21
38.0436
 31
0.0
  0
LINE
  8
0
 62
     0
 10
153.119
 20
38.0436
 30
0.0
 11
153.119
 21
37.0445
 31
0.0
  0
LINE
  8
0
 62
     0
 10
153.119
 20
37.0445
 30
0.0
 11
153.919
 21
37.0445
 31
0.0
  0
LINE
  8
0
 62
     0
 10
153.919
 20
37.0445
 30
0.0
 11
153.919
 21
33.9439
 31
0.0
  0
LINE
  8
0
 62
     0
 10
153.919
 20
33.9439
 30
0.0
 11
153.119
 21
33.9439
 31
0.0
  0
LINE
  8
0
 62
     0
 10
153.119
 20
33.9439
 30
0.0
 11
153.119
 21
28.1437
 31
0.0
  0
LINE
  8
0
 62
     0
 10
153.119
 20
28.1437
 30
0.0
 11
153.919
 21
28.1437
 31
0.0
  0
LINE
  8
0
 62
     0
 10
153.919
 20
28.1437
 30
0.0
 11
153.919
 21
25.0431
 31
0.0
  0
LINE
  8
0
 62
     0
 10
153.919
 20
25.0431
 30
0.0
 11
153.119
 21
25.0431
 31
0.0
  0
LINE
  8
0
 62
     0
 10
170.869
 20
11.4942
 30
0.0
 11
170.869
 21
5.22415
 31
0.0
  0
LINE
  8
0
 62
     0
 10
170.869
 20
5.22415
 30
0.0
 11
169.244
 21
5.22415
 31
0.0
  0
LINE
  8
0
 62
     0
 10
169.244
 20
5.22415
 30
0.0
 11
169.244
 21
4.24438
 31
0.0
  0
LINE
  8
0
 62
     0
 10
169.244
 20
4.24438
 30
0.0
 11
165.943
 21
4.24438
 31
0.0
  0
LINE
  8
0
 62
     0
 10
165.943
 20
4.24438
 30
0.0
 11
165.943
 21
5.22415
 31
0.0
  0
LINE
  8
0
 62
     0
 10
165.943
 20
5.22415
 30
0.0
 11
164.219
 21
5.22415
 31
0.0
  0
LINE
  8
0
 62
     0
 10
164.219
 20
5.22415
 30
0.0
 11
164.219
 21
6.0234
 31
0.0
  0
LINE
  8
0
 62
     0
 10
164.219
 20
6.0234
 30
0.0
 11
163.444
 21
6.0234
 31
0.0
  0
LINE
  8
0
 62
     0
 10
163.444
 20
6.0234
 30
0.0
 11
163.444
 21
5.99309
 31
0.0
  0
LINE
  8
0
 62
     0
 10
163.444
 20
5.99309
 30
0.0
 11
162.644
 21
5.99309
 31
0.0
  0
LINE
  8
0
 62
     0
 10
162.644
 20
5.99309
 30
0.0
 11
162.644
 21
4.99403
 31
0.0
  0
LINE
  8
0
 62
     0
 10
162.644
 20
4.99403
 30
0.0
 11
148.644
 21
4.99403
 31
0.0
  0
LINE
  8
0
 62
     0
 10
148.644
 20
4.99403
 30
0.0
 11
148.644
 21
5.99309
 31
0.0
  0
LINE
  8
0
 62
     0
 10
148.644
 20
5.99309
 30
0.0
 11
147.844
 21
5.99309
 31
0.0
  0
LINE
  8
0
 62
     0
 10
147.844
 20
5.99309
 30
0.0
 11
147.844
 21
6.0234
 31
0.0
  0
LINE
  8
0
 62
     0
 10
147.844
 20
6.0234
 30
0.0
 11
147.068
 21
6.0234
 31
0.0
  0
LINE
  8
0
 62
     0
 10
147.068
 20
6.0234
 30
0.0
 11
147.068
 21
5.22415
 31
0.0
  0
LINE
  8
0
 62
     0
 10
147.068
 20
5.22415
 30
0.0
 11
145.343
 21
5.22415
 31
0.0
  0
LINE
  8
0
 62
     0
 10
145.343
 20
5.22415
 30
0.0
 11
145.343
 21
4.24438
 31
0.0
  0
LINE
  8
0
 62
     0
 10
145.343
 20
4.24438
 30
0.0
 11
142.044
 21
4.24438
 31
0.0
  0
LINE
  8
0
 62
     0
 10
142.044
 20
4.24438
 30
0.0
 11
142.044
 21
5.22415
 31
0.0
  0
LINE
  8
0
 62
     0
 10
142.044
 20
5.22415
 30
0.0
 11
140.419
 21
5.22415
 31
0.0
  0
LINE
  8
0
 62
     0
 10
140.419
 20
5.22415
 30
0.0
 11
140.419
 21
11.4942
 31
0.0
  0
LINE
  8
0
 62
     0
 10
140.419
 20
11.4942
 30
0.0
 11
139.544
 21
11.4942
 31
0.0
  0
LINE
  8
0
 62
     0
 10
139.544
 20
11.4942
 30
0.0
 11
139.544
 21
14.2944
 31
0.0
  0
LINE
  8
0
 62
     0
 10
139.544
 20
14.2944
 30
0.0
 11
140.419
 21
14.2944
 31
0.0
  0
LINE
  8
0
 62
     0
 10
140.419
 20
14.2944
 30
0.0
 11
140.419
 21
17.5231
 31
0.0
  0
LINE
  8
0
 62
     0
 10
140.419
 20
17.5231
 30
0.0
 11
142.044
 21
17.5231
 31
0.0
  0
LINE
  8
0
 62
     0
 10
142.044
 20
17.5231
 30
0.0
 11
142.044
 21
18.4437
 31
0.0
  0
LINE
  8
0
 62
     0
 10
142.044
 20
18.4437
 30
0.0
 11
145.343
 21
18.4437
 31
0.0
  0
LINE
  8
0
 62
     0
 10
145.343
 20
18.4437
 30
0.0
 11
145.343
 21
17.5231
 31
0.0
  0
LINE
  8
0
 62
     0
 10
145.343
 20
17.5231
 30
0.0
 11
147.068
 21
17.5231
 31
0.0
  0
LINE
  8
0
 62
     0
 10
147.068
 20
17.5231
 30
0.0
 11
147.068
 21
16.7239
 31
0.0
  0
LINE
  8
0
 62
     0
 10
147.068
 20
16.7239
 30
0.0
 11
147.844
 21
16.7239
 31
0.0
  0
LINE
  8
0
 62
     0
 10
147.844
 20
16.7239
 30
0.0
 11
147.844
 21
17.9944
 31
0.0
  0
LINE
  8
0
 62
     0
 10
147.844
 20
17.9944
 30
0.0
 11
148.644
 21
17.9944
 31
0.0
  0
LINE
  8
0
 62
     0
 10
148.644
 20
17.9944
 30
0.0
 11
148.644
 21
18.9935
 31
0.0
  0
LINE
  8
0
 62
     0
 10
148.644
 20
18.9935
 30
0.0
 11
162.644
 21
18.9935
 31
0.0
  0
LINE
  8
0
 62
     0
 10
162.644
 20
18.9935
 30
0.0
 11
162.644
 21
17.9944
 31
0.0
  0
LINE
  8
0
 62
     0
 10
162.644
 20
17.9944
 30
0.0
 11
163.444
 21
17.9944
 31
0.0
  0
LINE
  8
0
 62
     0
 10
163.444
 20
17.9944
 30
0.0
 11
163.444
 21
16.7239
 31
0.0
  0
LINE
  8
0
 62
     0
 10
163.444
 20
16.7239
 30
0.0
 11
164.219
 21
16.7239
 31
0.0
  0
LINE
  8
0
 62
     0
 10
164.219
 20
16.7239
 30
0.0
 11
164.219
 21
17.5231
 31
0.0
  0
LINE
  8
0
 62
     0
 10
164.219
 20
17.5231
 30
0.0
 11
165.943
 21
17.5231
 31
0.0
  0
LINE
  8
0
 62
     0
 10
165.943
 20
17.5231
 30
0.0
 11
165.943
 21
18.4437
 31
0.0
  0
LINE
  8
0
 62
     0
 10
165.943
 20
18.4437
 30
0.0
 11
169.244
 21
18.4437
 31
0.0
  0
LINE
  8
0
 62
     0
 10
169.244
 20
18.4437
 30
0.0
 11
169.244
 21
17.5231
 31
0.0
  0
LINE
  8
0
 62
     0
 10
169.244
 20
17.5231
 30
0.0
 11
170.869
 21
17.5231
 31
0.0
  0
LINE
  8
0
 62
     0
 10
170.869
 20
17.5231
 30
0.0
 11
170.869
 21
14.2944
 31
0.0
  0
LINE
  8
0
 62
     0
 10
170.869
 20
14.2944
 30
0.0
 11
171.744
 21
14.2944
 31
0.0
  0
LINE
  8
0
 62
     0
 10
171.744
 20
14.2944
 30
0.0
 11
171.744
 21
11.4942
 31
0.0
  0
LINE
  8
0
 62
     0
 10
171.744
 20
11.4942
 30
0.0
 11
170.869
 21
11.4942
 31
0.0
  0
LINE
  8
0
 62
     0
 10
172.169
 20
82.193
 30
0.0
 11
172.169
 21
81.1939
 31
0.0
  0
LINE
  8
0
 62
     0
 10
172.169
 20
81.1939
 30
0.0
 11
158.169
 21
81.1939
 31
0.0
  0
LINE
  8
0
 62
     0
 10
158.169
 20
81.1939
 30
0.0
 11
158.169
 21
82.193
 31
0.0
  0
LINE
  8
0
 62
     0
 10
158.169
 20
82.193
 30
0.0
 11
157.369
 21
82.193
 31
0.0
  0
LINE
  8
0
 62
     0
 10
157.369
 20
82.193
 30
0.0
 11
157.369
 21
85.2936
 31
0.0
  0
LINE
  8
0
 62
     0
 10
157.369
 20
85.2936
 30
0.0
 11
158.169
 21
85.2936
 31
0.0
  0
LINE
  8
0
 62
     0
 10
158.169
 20
85.2936
 30
0.0
 11
158.169
 21
91.0939
 31
0.0
  0
LINE
  8
0
 62
     0
 10
158.169
 20
91.0939
 30
0.0
 11
157.369
 21
91.0939
 31
0.0
  0
LINE
  8
0
 62
     0
 10
157.369
 20
91.0939
 30
0.0
 11
157.369
 21
94.1945
 31
0.0
  0
LINE
  8
0
 62
     0
 10
157.369
 20
94.1945
 30
0.0
 11
158.169
 21
94.1945
 31
0.0
  0
LINE
  8
0
 62
     0
 10
158.169
 20
94.1945
 30
0.0
 11
158.169
 21
95.1936
 31
0.0
  0
LINE
  8
0
 62
     0
 10
158.169
 20
95.1936
 30
0.0
 11
172.169
 21
95.1936
 31
0.0
  0
LINE
  8
0
 62
     0
 10
172.169
 20
95.1936
 30
0.0
 11
172.169
 21
94.1945
 31
0.0
  0
LINE
  8
0
 62
     0
 10
172.169
 20
94.1945
 30
0.0
 11
172.969
 21
94.1945
 31
0.0
  0
LINE
  8
0
 62
     0
 10
172.969
 20
94.1945
 30
0.0
 11
172.969
 21
91.0939
 31
0.0
  0
LINE
  8
0
 62
     0
 10
172.969
 20
91.0939
 30
0.0
 11
172.169
 21
91.0939
 31
0.0
  0
LINE
  8
0
 62
     0
 10
172.169
 20
91.0939
 30
0.0
 11
172.169
 21
85.2936
 31
0.0
  0
LINE
  8
0
 62
     0
 10
172.169
 20
85.2936
 30
0.0
 11
172.969
 21
85.2936
 31
0.0
  0
LINE
  8
0
 62
     0
 10
172.969
 20
85.2936
 30
0.0
 11
172.969
 21
82.193
 31
0.0
  0
LINE
  8
0
 62
     0
 10
172.969
 20
82.193
 30
0.0
 11
172.169
 21
82.193
 31
0.0
  0
LINE
  8
0
 62
     0
 10
172.169
 20
63.143
 30
0.0
 11
172.169
 21
62.1439
 31
0.0
  0
LINE
  8
0
 62
     0
 10
172.169
 20
62.1439
 30
0.0
 11
158.169
 21
62.1439
 31
0.0
  0
LINE
  8
0
 62
     0
 10
158.169
 20
62.1439
 30
0.0
 11
158.169
 21
63.143
 31
0.0
  0
LINE
  8
0
 62
     0
 10
158.169
 20
63.143
 30
0.0
 11
157.369
 21
63.143
 31
0.0
  0
LINE
  8
0
 62
     0
 10
157.369
 20
63.143
 30
0.0
 11
157.369
 21
66.2436
 31
0.0
  0
LINE
  8
0
 62
     0
 10
157.369
 20
66.2436
 30
0.0
 11
158.169
 21
66.2436
 31
0.0
  0
LINE
  8
0
 62
     0
 10
158.169
 20
66.2436
 30
0.0
 11
158.169
 21
72.0439
 31
0.0
  0
LINE
  8
0
 62
     0
 10
158.169
 20
72.0439
 30
0.0
 11
157.369
 21
72.0439
 31
0.0
  0
LINE
  8
0
 62
     0
 10
157.369
 20
72.0439
 30
0.0
 11
157.369
 21
75.1445
 31
0.0
  0
LINE
  8
0
 62
     0
 10
157.369
 20
75.1445
 30
0.0
 11
158.169
 21
75.1445
 31
0.0
  0
LINE
  8
0
 62
     0
 10
158.169
 20
75.1445
 30
0.0
 11
158.169
 21
76.1436
 31
0.0
  0
LINE
  8
0
 62
     0
 10
158.169
 20
76.1436
 30
0.0
 11
172.169
 21
76.1436
 31
0.0
  0
LINE
  8
0
 62
     0
 10
172.169
 20
76.1436
 30
0.0
 11
172.169
 21
75.1445
 31
0.0
  0
LINE
  8
0
 62
     0
 10
172.169
 20
75.1445
 30
0.0
 11
172.969
 21
75.1445
 31
0.0
  0
LINE
  8
0
 62
     0
 10
172.969
 20
75.1445
 30
0.0
 11
172.969
 21
72.0439
 31
0.0
  0
LINE
  8
0
 62
     0
 10
172.969
 20
72.0439
 30
0.0
 11
172.169
 21
72.0439
 31
0.0
  0
LINE
  8
0
 62
     0
 10
172.169
 20
72.0439
 30
0.0
 11
172.169
 21
66.2436
 31
0.0
  0
LINE
  8
0
 62
     0
 10
172.169
 20
66.2436
 30
0.0
 11
172.969
 21
66.2436
 31
0.0
  0
LINE
  8
0
 62
     0
 10
172.969
 20
66.2436
 30
0.0
 11
172.969
 21
63.143
 31
0.0
  0
LINE
  8
0
 62
     0
 10
172.969
 20
63.143
 30
0.0
 11
172.169
 21
63.143
 31
0.0
  0
LINE
  8
0
 62
     0
 10
172.169
 20
44.093
 30
0.0
 11
172.169
 21
43.0939
 31
0.0
  0
LINE
  8
0
 62
     0
 10
172.169
 20
43.0939
 30
0.0
 11
158.169
 21
43.0939
 31
0.0
  0
LINE
  8
0
 62
     0
 10
158.169
 20
43.0939
 30
0.0
 11
158.169
 21
44.093
 31
0.0
  0
LINE
  8
0
 62
     0
 10
158.169
 20
44.093
 30
0.0
 11
157.369
 21
44.093
 31
0.0
  0
LINE
  8
0
 62
     0
 10
157.369
 20
44.093
 30
0.0
 11
157.369
 21
47.1936
 31
0.0
  0
LINE
  8
0
 62
     0
 10
157.369
 20
47.1936
 30
0.0
 11
158.169
 21
47.1936
 31
0.0
  0
LINE
  8
0
 62
     0
 10
158.169
 20
47.1936
 30
0.0
 11
158.169
 21
52.9939
 31
0.0
  0
LINE
  8
0
 62
     0
 10
158.169
 20
52.9939
 30
0.0
 11
157.369
 21
52.9939
 31
0.0
  0
LINE
  8
0
 62
     0
 10
157.369
 20
52.9939
 30
0.0
 11
157.369
 21
56.0945
 31
0.0
  0
LINE
  8
0
 62
     0
 10
157.369
 20
56.0945
 30
0.0
 11
158.169
 21
56.0945
 31
0.0
  0
LINE
  8
0
 62
     0
 10
158.169
 20
56.0945
 30
0.0
 11
158.169
 21
57.0936
 31
0.0
  0
LINE
  8
0
 62
     0
 10
158.169
 20
57.0936
 30
0.0
 11
172.169
 21
57.0936
 31
0.0
  0
LINE
  8
0
 62
     0
 10
172.169
 20
57.0936
 30
0.0
 11
172.169
 21
56.0945
 31
0.0
  0
LINE
  8
0
 62
     0
 10
172.169
 20
56.0945
 30
0.0
 11
172.969
 21
56.0945
 31
0.0
  0
LINE
  8
0
 62
     0
 10
172.969
 20
56.0945
 30
0.0
 11
172.969
 21
52.9939
 31
0.0
  0
LINE
  8
0
 62
     0
 10
172.969
 20
52.9939
 30
0.0
 11
172.169
 21
52.9939
 31
0.0
  0
LINE
  8
0
 62
     0
 10
172.169
 20
52.9939
 30
0.0
 11
172.169
 21
47.1936
 31
0.0
  0
LINE
  8
0
 62
     0
 10
172.169
 20
47.1936
 30
0.0
 11
172.969
 21
47.1936
 31
0.0
  0
LINE
  8
0
 62
     0
 10
172.969
 20
47.1936
 30
0.0
 11
172.969
 21
44.093
 31
0.0
  0
LINE
  8
0
 62
     0
 10
172.969
 20
44.093
 30
0.0
 11
172.169
 21
44.093
 31
0.0
  0
LINE
  8
0
 62
     0
 10
172.169
 20
25.0431
 30
0.0
 11
172.169
 21
24.044
 31
0.0
  0
LINE
  8
0
 62
     0
 10
172.169
 20
24.044
 30
0.0
 11
158.169
 21
24.044
 31
0.0
  0
LINE
  8
0
 62
     0
 10
158.169
 20
24.044
 30
0.0
 11
158.169
 21
25.0431
 31
0.0
  0
LINE
  8
0
 62
     0
 10
158.169
 20
25.0431
 30
0.0
 11
157.369
 21
25.0431
 31
0.0
  0
LINE
  8
0
 62
     0
 10
157.369
 20
25.0431
 30
0.0
 11
157.369
 21
28.1437
 31
0.0
  0
LINE
  8
0
 62
     0
 10
157.369
 20
28.1437
 30
0.0
 11
158.169
 21
28.1437
 31
0.0
  0
LINE
  8
0
 62
     0
 10
158.169
 20
28.1437
 30
0.0
 11
158.169
 21
33.9439
 31
0.0
  0
LINE
  8
0
 62
     0
 10
158.169
 20
33.9439
 30
0.0
 11
157.369
 21
33.9439
 31
0.0
  0
LINE
  8
0
 62
     0
 10
157.369
 20
33.9439
 30
0.0
 11
157.369
 21
37.0445
 31
0.0
  0
LINE
  8
0
 62
     0
 10
157.369
 20
37.0445
 30
0.0
 11
158.169
 21
37.0445
 31
0.0
  0
LINE
  8
0
 62
     0
 10
158.169
 20
37.0445
 30
0.0
 11
158.169
 21
38.0436
 31
0.0
  0
LINE
  8
0
 62
     0
 10
158.169
 20
38.0436
 30
0.0
 11
172.169
 21
38.0436
 31
0.0
  0
LINE
  8
0
 62
     0
 10
172.169
 20
38.0436
 30
0.0
 11
172.169
 21
37.0445
 31
0.0
  0
LINE
  8
0
 62
     0
 10
172.169
 20
37.0445
 30
0.0
 11
172.969
 21
37.0445
 31
0.0
  0
LINE
  8
0
 62
     0
 10
172.969
 20
37.0445
 30
0.0
 11
172.969
 21
33.9439
 31
0.0
  0
LINE
  8
0
 62
     0
 10
172.969
 20
33.9439
 30
0.0
 11
172.169
 21
33.9439
 31
0.0
  0
LINE
  8
0
 62
     0
 10
172.169
 20
33.9439
 30
0.0
 11
172.169
 21
28.1437
 31
0.0
  0
LINE
  8
0
 62
     0
 10
172.169
 20
28.1437
 30
0.0
 11
172.969
 21
28.1437
 31
0.0
  0
LINE
  8
0
 62
     0
 10
172.969
 20
28.1437
 30
0.0
 11
172.969
 21
25.0431
 31
0.0
  0
LINE
  8
0
 62
     0
 10
172.969
 20
25.0431
 30
0.0
 11
172.169
 21
25.0431
 31
0.0
  0
LINE
  8
0
 62
     0
 10
191.219
 20
5.99309
 30
0.0
 11
191.219
 21
4.99403
 31
0.0
  0
LINE
  8
0
 62
     0
 10
191.219
 20
4.99403
 30
0.0
 11
177.219
 21
4.99403
 31
0.0
  0
LINE
  8
0
 62
     0
 10
177.219
 20
4.99403
 30
0.0
 11
177.219
 21
5.99309
 31
0.0
  0
LINE
  8
0
 62
     0
 10
177.219
 20
5.99309
 30
0.0
 11
176.419
 21
5.99309
 31
0.0
  0
LINE
  8
0
 62
     0
 10
176.419
 20
5.99309
 30
0.0
 11
176.419
 21
9.09366
 31
0.0
  0
LINE
  8
0
 62
     0
 10
176.419
 20
9.09366
 30
0.0
 11
177.219
 21
9.09366
 31
0.0
  0
LINE
  8
0
 62
     0
 10
177.219
 20
9.09366
 30
0.0
 11
177.219
 21
14.8939
 31
0.0
  0
LINE
  8
0
 62
     0
 10
177.219
 20
14.8939
 30
0.0
 11
176.419
 21
14.8939
 31
0.0
  0
LINE
  8
0
 62
     0
 10
176.419
 20
14.8939
 30
0.0
 11
176.419
 21
17.9944
 31
0.0
  0
LINE
  8
0
 62
     0
 10
176.419
 20
17.9944
 30
0.0
 11
177.219
 21
17.9944
 31
0.0
  0
LINE
  8
0
 62
     0
 10
177.219
 20
17.9944
 30
0.0
 11
177.219
 21
18.9935
 31
0.0
  0
LINE
  8
0
 62
     0
 10
177.219
 20
18.9935
 30
0.0
 11
191.219
 21
18.9935
 31
0.0
  0
LINE
  8
0
 62
     0
 10
191.219
 20
18.9935
 30
0.0
 11
191.219
 21
17.9944
 31
0.0
  0
LINE
  8
0
 62
     0
 10
191.219
 20
17.9944
 30
0.0
 11
192.019
 21
17.9944
 31
0.0
  0
LINE
  8
0
 62
     0
 10
192.019
 20
17.9944
 30
0.0
 11
192.019
 21
14.8939
 31
0.0
  0
LINE
  8
0
 62
     0
 10
192.019
 20
14.8939
 30
0.0
 11
191.219
 21
14.8939
 31
0.0
  0
LINE
  8
0
 62
     0
 10
191.219
 20
14.8939
 30
0.0
 11
191.219
 21
9.09366
 31
0.0
  0
LINE
  8
0
 62
     0
 10
191.219
 20
9.09366
 30
0.0
 11
192.019
 21
9.09366
 31
0.0
  0
LINE
  8
0
 62
     0
 10
192.019
 20
9.09366
 30
0.0
 11
192.019
 21
5.99309
 31
0.0
  0
LINE
  8
0
 62
     0
 10
192.019
 20
5.99309
 30
0.0
 11
191.219
 21
5.99309
 31
0.0
  0
LINE
  8
0
 62
     0
 10
191.219
 20
82.193
 30
0.0
 11
191.219
 21
81.1939
 31
0.0
  0
LINE
  8
0
 62
     0
 10
191.219
 20
81.1939
 30
0.0
 11
177.219
 21
81.1939
 31
0.0
  0
LINE
  8
0
 62
     0
 10
177.219
 20
81.1939
 30
0.0
 11
177.219
 21
82.193
 31
0.0
  0
LINE
  8
0
 62
     0
 10
177.219
 20
82.193
 30
0.0
 11
176.419
 21
82.193
 31
0.0
  0
LINE
  8
0
 62
     0
 10
176.419
 20
82.193
 30
0.0
 11
176.419
 21
85.2936
 31
0.0
  0
LINE
  8
0
 62
     0
 10
176.419
 20
85.2936
 30
0.0
 11
177.219
 21
85.2936
 31
0.0
  0
LINE
  8
0
 62
     0
 10
177.219
 20
85.2936
 30
0.0
 11
177.219
 21
91.0939
 31
0.0
  0
LINE
  8
0
 62
     0
 10
177.219
 20
91.0939
 30
0.0
 11
176.419
 21
91.0939
 31
0.0
  0
LINE
  8
0
 62
     0
 10
176.419
 20
91.0939
 30
0.0
 11
176.419
 21
94.1945
 31
0.0
  0
LINE
  8
0
 62
     0
 10
176.419
 20
94.1945
 30
0.0
 11
177.219
 21
94.1945
 31
0.0
  0
LINE
  8
0
 62
     0
 10
177.219
 20
94.1945
 30
0.0
 11
177.219
 21
95.1936
 31
0.0
  0
LINE
  8
0
 62
     0
 10
177.219
 20
95.1936
 30
0.0
 11
191.219
 21
95.1936
 31
0.0
  0
LINE
  8
0
 62
     0
 10
191.219
 20
95.1936
 30
0.0
 11
191.219
 21
94.1945
 31
0.0
  0
LINE
  8
0
 62
     0
 10
191.219
 20
94.1945
 30
0.0
 11
192.019
 21
94.1945
 31
0.0
  0
LINE
  8
0
 62
     0
 10
192.019
 20
94.1945
 30
0.0
 11
192.019
 21
91.0939
 31
0.0
  0
LINE
  8
0
 62
     0
 10
192.019
 20
91.0939
 30
0.0
 11
191.219
 21
91.0939
 31
0.0
  0
LINE
  8
0
 62
     0
 10
191.219
 20
91.0939
 30
0.0
 11
191.219
 21
85.2936
 31
0.0
  0
LINE
  8
0
 62
     0
 10
191.219
 20
85.2936
 30
0.0
 11
192.019
 21
85.2936
 31
0.0
  0
LINE
  8
0
 62
     0
 10
192.019
 20
85.2936
 30
0.0
 11
192.019
 21
82.193
 31
0.0
  0
LINE
  8
0
 62
     0
 10
192.019
 20
82.193
 30
0.0
 11
191.219
 21
82.193
 31
0.0
  0
LINE
  8
0
 62
     0
 10
191.219
 20
63.143
 30
0.0
 11
191.219
 21
62.1439
 31
0.0
  0
LINE
  8
0
 62
     0
 10
191.219
 20
62.1439
 30
0.0
 11
177.219
 21
62.1439
 31
0.0
  0
LINE
  8
0
 62
     0
 10
177.219
 20
62.1439
 30
0.0
 11
177.219
 21
63.143
 31
0.0
  0
LINE
  8
0
 62
     0
 10
177.219
 20
63.143
 30
0.0
 11
176.419
 21
63.143
 31
0.0
  0
LINE
  8
0
 62
     0
 10
176.419
 20
63.143
 30
0.0
 11
176.419
 21
66.2436
 31
0.0
  0
LINE
  8
0
 62
     0
 10
176.419
 20
66.2436
 30
0.0
 11
177.219
 21
66.2436
 31
0.0
  0
LINE
  8
0
 62
     0
 10
177.219
 20
66.2436
 30
0.0
 11
177.219
 21
72.0439
 31
0.0
  0
LINE
  8
0
 62
     0
 10
177.219
 20
72.0439
 30
0.0
 11
176.419
 21
72.0439
 31
0.0
  0
LINE
  8
0
 62
     0
 10
176.419
 20
72.0439
 30
0.0
 11
176.419
 21
75.1445
 31
0.0
  0
LINE
  8
0
 62
     0
 10
176.419
 20
75.1445
 30
0.0
 11
177.219
 21
75.1445
 31
0.0
  0
LINE
  8
0
 62
     0
 10
177.219
 20
75.1445
 30
0.0
 11
177.219
 21
76.1436
 31
0.0
  0
LINE
  8
0
 62
     0
 10
177.219
 20
76.1436
 30
0.0
 11
191.219
 21
76.1436
 31
0.0
  0
LINE
  8
0
 62
     0
 10
191.219
 20
76.1436
 30
0.0
 11
191.219
 21
75.1445
 31
0.0
  0
LINE
  8
0
 62
     0
 10
191.219
 20
75.1445
 30
0.0
 11
192.019
 21
75.1445
 31
0.0
  0
LINE
  8
0
 62
     0
 10
192.019
 20
75.1445
 30
0.0
 11
192.019
 21
72.0439
 31
0.0
  0
LINE
  8
0
 62
     0
 10
192.019
 20
72.0439
 30
0.0
 11
191.219
 21
72.0439
 31
0.0
  0
LINE
  8
0
 62
     0
 10
191.219
 20
72.0439
 30
0.0
 11
191.219
 21
66.2436
 31
0.0
  0
LINE
  8
0
 62
     0
 10
191.219
 20
66.2436
 30
0.0
 11
192.019
 21
66.2436
 31
0.0
  0
LINE
  8
0
 62
     0
 10
192.019
 20
66.2436
 30
0.0
 11
192.019
 21
63.143
 31
0.0
  0
LINE
  8
0
 62
     0
 10
192.019
 20
63.143
 30
0.0
 11
191.219
 21
63.143
 31
0.0
  0
LINE
  8
0
 62
     0
 10
191.219
 20
44.093
 30
0.0
 11
191.219
 21
43.0939
 31
0.0
  0
LINE
  8
0
 62
     0
 10
191.219
 20
43.0939
 30
0.0
 11
177.219
 21
43.0939
 31
0.0
  0
LINE
  8
0
 62
     0
 10
177.219
 20
43.0939
 30
0.0
 11
177.219
 21
44.093
 31
0.0
  0
LINE
  8
0
 62
     0
 10
177.219
 20
44.093
 30
0.0
 11
176.419
 21
44.093
 31
0.0
  0
LINE
  8
0
 62
     0
 10
176.419
 20
44.093
 30
0.0
 11
176.419
 21
47.1936
 31
0.0
  0
LINE
  8
0
 62
     0
 10
176.419
 20
47.1936
 30
0.0
 11
177.219
 21
47.1936
 31
0.0
  0
LINE
  8
0
 62
     0
 10
177.219
 20
47.1936
 30
0.0
 11
177.219
 21
52.9939
 31
0.0
  0
LINE
  8
0
 62
     0
 10
177.219
 20
52.9939
 30
0.0
 11
176.419
 21
52.9939
 31
0.0
  0
LINE
  8
0
 62
     0
 10
176.419
 20
52.9939
 30
0.0
 11
176.419
 21
56.0945
 31
0.0
  0
LINE
  8
0
 62
     0
 10
176.419
 20
56.0945
 30
0.0
 11
177.219
 21
56.0945
 31
0.0
  0
LINE
  8
0
 62
     0
 10
177.219
 20
56.0945
 30
0.0
 11
177.219
 21
57.0936
 31
0.0
  0
LINE
  8
0
 62
     0
 10
177.219
 20
57.0936
 30
0.0
 11
191.219
 21
57.0936
 31
0.0
  0
LINE
  8
0
 62
     0
 10
191.219
 20
57.0936
 30
0.0
 11
191.219
 21
56.0945
 31
0.0
  0
LINE
  8
0
 62
     0
 10
191.219
 20
56.0945
 30
0.0
 11
192.019
 21
56.0945
 31
0.0
  0
LINE
  8
0
 62
     0
 10
192.019
 20
56.0945
 30
0.0
 11
192.019
 21
52.9939
 31
0.0
  0
LINE
  8
0
 62
     0
 10
192.019
 20
52.9939
 30
0.0
 11
191.219
 21
52.9939
 31
0.0
  0
LINE
  8
0
 62
     0
 10
191.219
 20
52.9939
 30
0.0
 11
191.219
 21
47.1936
 31
0.0
  0
LINE
  8
0
 62
     0
 10
191.219
 20
47.1936
 30
0.0
 11
192.019
 21
47.1936
 31
0.0
  0
LINE
  8
0
 62
     0
 10
192.019
 20
47.1936
 30
0.0
 11
192.019
 21
44.093
 31
0.0
  0
LINE
  8
0
 62
     0
 10
192.019
 20
44.093
 30
0.0
 11
191.219
 21
44.093
 31
0.0
  0
LINE
  8
0
 62
     0
 10
191.219
 20
25.0431
 30
0.0
 11
191.219
 21
24.044
 31
0.0
  0
LINE
  8
0
 62
     0
 10
191.219
 20
24.044
 30
0.0
 11
177.219
 21
24.044
 31
0.0
  0
LINE
  8
0
 62
     0
 10
177.219
 20
24.044
 30
0.0
 11
177.219
 21
25.0431
 31
0.0
  0
LINE
  8
0
 62
     0
 10
177.219
 20
25.0431
 30
0.0
 11
176.419
 21
25.0431
 31
0.0
  0
LINE
  8
0
 62
     0
 10
176.419
 20
25.0431
 30
0.0
 11
176.419
 21
28.1437
 31
0.0
  0
LINE
  8
0
 62
     0
 10
176.419
 20
28.1437
 30
0.0
 11
177.219
 21
28.1437
 31
0.0
  0
LINE
  8
0
 62
     0
 10
177.219
 20
28.1437
 30
0.0
 11
177.219
 21
33.9439
 31
0.0
  0
LINE
  8
0
 62
     0
 10
177.219
 20
33.9439
 30
0.0
 11
176.419
 21
33.9439
 31
0.0
  0
LINE
  8
0
 62
     0
 10
176.419
 20
33.9439
 30
0.0
 11
176.419
 21
37.0445
 31
0.0
  0
LINE
  8
0
 62
     0
 10
176.419
 20
37.0445
 30
0.0
 11
177.219
 21
37.0445
 31
0.0
  0
LINE
  8
0
 62
     0
 10
177.219
 20
37.0445
 30
0.0
 11
177.219
 21
38.0436
 31
0.0
  0
LINE
  8
0
 62
     0
 10
177.219
 20
38.0436
 30
0.0
 11
191.219
 21
38.0436
 31
0.0
  0
LINE
  8
0
 62
     0
 10
191.219
 20
38.0436
 30
0.0
 11
191.219
 21
37.0445
 31
0.0
  0
LINE
  8
0
 62
     0
 10
191.219
 20
37.0445
 30
0.0
 11
192.019
 21
37.0445
 31
0.0
  0
LINE
  8
0
 62
     0
 10
192.019
 20
37.0445
 30
0.0
 11
192.019
 21
33.9439
 31
0.0
  0
LINE
  8
0
 62
     0
 10
192.019
 20
33.9439
 30
0.0
 11
191.219
 21
33.9439
 31
0.0
  0
LINE
  8
0
 62
     0
 10
191.219
 20
33.9439
 30
0.0
 11
191.219
 21
28.1437
 31
0.0
  0
LINE
  8
0
 62
     0
 10
191.219
 20
28.1437
 30
0.0
 11
192.019
 21
28.1437
 31
0.0
  0
LINE
  8
0
 62
     0
 10
192.019
 20
28.1437
 30
0.0
 11
192.019
 21
25.0431
 31
0.0
  0
LINE
  8
0
 62
     0
 10
192.019
 20
25.0431
 30
0.0
 11
191.219
 21
25.0431
 31
0.0
  0
LINE
  8
0
 62
     0
 10
210.269
 20
5.99309
 30
0.0
 11
210.269
 21
4.99403
 31
0.0
  0
LINE
  8
0
 62
     0
 10
210.269
 20
4.99403
 30
0.0
 11
196.269
 21
4.99403
 31
0.0
  0
LINE
  8
0
 62
     0
 10
196.269
 20
4.99403
 30
0.0
 11
196.269
 21
5.99309
 31
0.0
  0
LINE
  8
0
 62
     0
 10
196.269
 20
5.99309
 30
0.0
 11
195.469
 21
5.99309
 31
0.0
  0
LINE
  8
0
 62
     0
 10
195.469
 20
5.99309
 30
0.0
 11
195.469
 21
9.09366
 31
0.0
  0
LINE
  8
0
 62
     0
 10
195.469
 20
9.09366
 30
0.0
 11
196.269
 21
9.09366
 31
0.0
  0
LINE
  8
0
 62
     0
 10
196.269
 20
9.09366
 30
0.0
 11
196.269
 21
14.8939
 31
0.0
  0
LINE
  8
0
 62
     0
 10
196.269
 20
14.8939
 30
0.0
 11
195.469
 21
14.8939
 31
0.0
  0
LINE
  8
0
 62
     0
 10
195.469
 20
14.8939
 30
0.0
 11
195.469
 21
17.9944
 31
0.0
  0
LINE
  8
0
 62
     0
 10
195.469
 20
17.9944
 30
0.0
 11
196.269
 21
17.9944
 31
0.0
  0
LINE
  8
0
 62
     0
 10
196.269
 20
17.9944
 30
0.0
 11
196.269
 21
18.9935
 31
0.0
  0
LINE
  8
0
 62
     0
 10
196.269
 20
18.9935
 30
0.0
 11
210.269
 21
18.9935
 31
0.0
  0
LINE
  8
0
 62
     0
 10
210.269
 20
18.9935
 30
0.0
 11
210.269
 21
17.9944
 31
0.0
  0
LINE
  8
0
 62
     0
 10
210.269
 20
17.9944
 30
0.0
 11
211.069
 21
17.9944
 31
0.0
  0
LINE
  8
0
 62
     0
 10
211.069
 20
17.9944
 30
0.0
 11
211.069
 21
14.8939
 31
0.0
  0
LINE
  8
0
 62
     0
 10
211.069
 20
14.8939
 30
0.0
 11
210.269
 21
14.8939
 31
0.0
  0
LINE
  8
0
 62
     0
 10
210.269
 20
14.8939
 30
0.0
 11
210.269
 21
9.09366
 31
0.0
  0
LINE
  8
0
 62
     0
 10
210.269
 20
9.09366
 30
0.0
 11
211.069
 21
9.09366
 31
0.0
  0
LINE
  8
0
 62
     0
 10
211.069
 20
9.09366
 30
0.0
 11
211.069
 21
5.99309
 31
0.0
  0
LINE
  8
0
 62
     0
 10
211.069
 20
5.99309
 30
0.0
 11
210.269
 21
5.99309
 31
0.0
  0
LINE
  8
0
 62
     0
 10
210.269
 20
82.193
 30
0.0
 11
210.269
 21
81.1939
 31
0.0
  0
LINE
  8
0
 62
     0
 10
210.269
 20
81.1939
 30
0.0
 11
196.269
 21
81.1939
 31
0.0
  0
LINE
  8
0
 62
     0
 10
196.269
 20
81.1939
 30
0.0
 11
196.269
 21
82.193
 31
0.0
  0
LINE
  8
0
 62
     0
 10
196.269
 20
82.193
 30
0.0
 11
195.469
 21
82.193
 31
0.0
  0
LINE
  8
0
 62
     0
 10
195.469
 20
82.193
 30
0.0
 11
195.469
 21
85.2936
 31
0.0
  0
LINE
  8
0
 62
     0
 10
195.469
 20
85.2936
 30
0.0
 11
196.269
 21
85.2936
 31
0.0
  0
LINE
  8
0
 62
     0
 10
196.269
 20
85.2936
 30
0.0
 11
196.269
 21
91.0939
 31
0.0
  0
LINE
  8
0
 62
     0
 10
196.269
 20
91.0939
 30
0.0
 11
195.469
 21
91.0939
 31
0.0
  0
LINE
  8
0
 62
     0
 10
195.469
 20
91.0939
 30
0.0
 11
195.469
 21
94.1945
 31
0.0
  0
LINE
  8
0
 62
     0
 10
195.469
 20
94.1945
 30
0.0
 11
196.269
 21
94.1945
 31
0.0
  0
LINE
  8
0
 62
     0
 10
196.269
 20
94.1945
 30
0.0
 11
196.269
 21
95.1936
 31
0.0
  0
LINE
  8
0
 62
     0
 10
196.269
 20
95.1936
 30
0.0
 11
210.269
 21
95.1936
 31
0.0
  0
LINE
  8
0
 62
     0
 10
210.269
 20
95.1936
 30
0.0
 11
210.269
 21
94.1945
 31
0.0
  0
LINE
  8
0
 62
     0
 10
210.269
 20
94.1945
 30
0.0
 11
211.069
 21
94.1945
 31
0.0
  0
LINE
  8
0
 62
     0
 10
211.069
 20
94.1945
 30
0.0
 11
211.069
 21
91.0939
 31
0.0
  0
LINE
  8
0
 62
     0
 10
211.069
 20
91.0939
 30
0.0
 11
210.269
 21
91.0939
 31
0.0
  0
LINE
  8
0
 62
     0
 10
210.269
 20
91.0939
 30
0.0
 11
210.269
 21
85.2936
 31
0.0
  0
LINE
  8
0
 62
     0
 10
210.269
 20
85.2936
 30
0.0
 11
211.069
 21
85.2936
 31
0.0
  0
LINE
  8
0
 62
     0
 10
211.069
 20
85.2936
 30
0.0
 11
211.069
 21
82.193
 31
0.0
  0
LINE
  8
0
 62
     0
 10
211.069
 20
82.193
 30
0.0
 11
210.269
 21
82.193
 31
0.0
  0
LINE
  8
0
 62
     0
 10
210.269
 20
63.143
 30
0.0
 11
210.269
 21
62.1439
 31
0.0
  0
LINE
  8
0
 62
     0
 10
210.269
 20
62.1439
 30
0.0
 11
196.269
 21
62.1439
 31
0.0
  0
LINE
  8
0
 62
     0
 10
196.269
 20
62.1439
 30
0.0
 11
196.269
 21
63.143
 31
0.0
  0
LINE
  8
0
 62
     0
 10
196.269
 20
63.143
 30
0.0
 11
195.469
 21
63.143
 31
0.0
  0
LINE
  8
0
 62
     0
 10
195.469
 20
63.143
 30
0.0
 11
195.469
 21
66.2436
 31
0.0
  0
LINE
  8
0
 62
     0
 10
195.469
 20
66.2436
 30
0.0
 11
196.269
 21
66.2436
 31
0.0
  0
LINE
  8
0
 62
     0
 10
196.269
 20
66.2436
 30
0.0
 11
196.269
 21
72.0439
 31
0.0
  0
LINE
  8
0
 62
     0
 10
196.269
 20
72.0439
 30
0.0
 11
195.469
 21
72.0439
 31
0.0
  0
LINE
  8
0
 62
     0
 10
195.469
 20
72.0439
 30
0.0
 11
195.469
 21
75.1445
 31
0.0
  0
LINE
  8
0
 62
     0
 10
195.469
 20
75.1445
 30
0.0
 11
196.269
 21
75.1445
 31
0.0
  0
LINE
  8
0
 62
     0
 10
196.269
 20
75.1445
 30
0.0
 11
196.269
 21
76.1436
 31
0.0
  0
LINE
  8
0
 62
     0
 10
196.269
 20
76.1436
 30
0.0
 11
210.269
 21
76.1436
 31
0.0
  0
LINE
  8
0
 62
     0
 10
210.269
 20
76.1436
 30
0.0
 11
210.269
 21
75.1445
 31
0.0
  0
LINE
  8
0
 62
     0
 10
210.269
 20
75.1445
 30
0.0
 11
211.069
 21
75.1445
 31
0.0
  0
LINE
  8
0
 62
     0
 10
211.069
 20
75.1445
 30
0.0
 11
211.069
 21
72.0439
 31
0.0
  0
LINE
  8
0
 62
     0
 10
211.069
 20
72.0439
 30
0.0
 11
210.269
 21
72.0439
 31
0.0
  0
LINE
  8
0
 62
     0
 10
210.269
 20
72.0439
 30
0.0
 11
210.269
 21
66.2436
 31
0.0
  0
LINE
  8
0
 62
     0
 10
210.269
 20
66.2436
 30
0.0
 11
211.069
 21
66.2436
 31
0.0
  0
LINE
  8
0
 62
     0
 10
211.069
 20
66.2436
 30
0.0
 11
211.069
 21
63.143
 31
0.0
  0
LINE
  8
0
 62
     0
 10
211.069
 20
63.143
 30
0.0
 11
210.269
 21
63.143
 31
0.0
  0
LINE
  8
0
 62
     0
 10
210.269
 20
44.093
 30
0.0
 11
210.269
 21
43.0939
 31
0.0
  0
LINE
  8
0
 62
     0
 10
210.269
 20
43.0939
 30
0.0
 11
196.269
 21
43.0939
 31
0.0
  0
LINE
  8
0
 62
     0
 10
196.269
 20
43.0939
 30
0.0
 11
196.269
 21
44.093
 31
0.0
  0
LINE
  8
0
 62
     0
 10
196.269
 20
44.093
 30
0.0
 11
195.469
 21
44.093
 31
0.0
  0
LINE
  8
0
 62
     0
 10
195.469
 20
44.093
 30
0.0
 11
195.469
 21
47.1936
 31
0.0
  0
LINE
  8
0
 62
     0
 10
195.469
 20
47.1936
 30
0.0
 11
196.269
 21
47.1936
 31
0.0
  0
LINE
  8
0
 62
     0
 10
196.269
 20
47.1936
 30
0.0
 11
196.269
 21
52.9939
 31
0.0
  0
LINE
  8
0
 62
     0
 10
196.269
 20
52.9939
 30
0.0
 11
195.469
 21
52.9939
 31
0.0
  0
LINE
  8
0
 62
     0
 10
195.469
 20
52.9939
 30
0.0
 11
195.469
 21
56.0945
 31
0.0
  0
LINE
  8
0
 62
     0
 10
195.469
 20
56.0945
 30
0.0
 11
196.269
 21
56.0945
 31
0.0
  0
LINE
  8
0
 62
     0
 10
196.269
 20
56.0945
 30
0.0
 11
196.269
 21
57.0936
 31
0.0
  0
LINE
  8
0
 62
     0
 10
196.269
 20
57.0936
 30
0.0
 11
210.269
 21
57.0936
 31
0.0
  0
LINE
  8
0
 62
     0
 10
210.269
 20
57.0936
 30
0.0
 11
210.269
 21
56.0945
 31
0.0
  0
LINE
  8
0
 62
     0
 10
210.269
 20
56.0945
 30
0.0
 11
211.069
 21
56.0945
 31
0.0
  0
LINE
  8
0
 62
     0
 10
211.069
 20
56.0945
 30
0.0
 11
211.069
 21
52.9939
 31
0.0
  0
LINE
  8
0
 62
     0
 10
211.069
 20
52.9939
 30
0.0
 11
210.269
 21
52.9939
 31
0.0
  0
LINE
  8
0
 62
     0
 10
210.269
 20
52.9939
 30
0.0
 11
210.269
 21
47.1936
 31
0.0
  0
LINE
  8
0
 62
     0
 10
210.269
 20
47.1936
 30
0.0
 11
211.069
 21
47.1936
 31
0.0
  0
LINE
  8
0
 62
     0
 10
211.069
 20
47.1936
 30
0.0
 11
211.069
 21
44.093
 31
0.0
  0
LINE
  8
0
 62
     0
 10
211.069
 20
44.093
 30
0.0
 11
210.269
 21
44.093
 31
0.0
  0
LINE
  8
0
 62
     0
 10
210.269
 20
25.0431
 30
0.0
 11
210.269
 21
24.044
 31
0.0
  0
LINE
  8
0
 62
     0
 10
210.269
 20
24.044
 30
0.0
 11
196.269
 21
24.044
 31
0.0
  0
LINE
  8
0
 62
     0
 10
196.269
 20
24.044
 30
0.0
 11
196.269
 21
25.0431
 31
0.0
  0
LINE
  8
0
 62
     0
 10
196.269
 20
25.0431
 30
0.0
 11
195.469
 21
25.0431
 31
0.0
  0
LINE
  8
0
 62
     0
 10
195.469
 20
25.0431
 30
0.0
 11
195.469
 21
28.1437
 31
0.0
  0
LINE
  8
0
 62
     0
 10
195.469
 20
28.1437
 30
0.0
 11
196.269
 21
28.1437
 31
0.0
  0
LINE
  8
0
 62
     0
 10
196.269
 20
28.1437
 30
0.0
 11
196.269
 21
33.9439
 31
0.0
  0
LINE
  8
0
 62
     0
 10
196.269
 20
33.9439
 30
0.0
 11
195.469
 21
33.9439
 31
0.0
  0
LINE
  8
0
 62
     0
 10
195.469
 20
33.9439
 30
0.0
 11
195.469
 21
37.0445
 31
0.0
  0
LINE
  8
0
 62
     0
 10
195.469
 20
37.0445
 30
0.0
 11
196.269
 21
37.0445
 31
0.0
  0
LINE
  8
0
 62
     0
 10
196.269
 20
37.0445
 30
0.0
 11
196.269
 21
38.0436
 31
0.0
  0
LINE
  8
0
 62
     0
 10
196.269
 20
38.0436
 30
0.0
 11
210.269
 21
38.0436
 31
0.0
  0
LINE
  8
0
 62
     0
 10
210.269
 20
38.0436
 30
0.0
 11
210.269
 21
37.0445
 31
0.0
  0
LINE
  8
0
 62
     0
 10
210.269
 20
37.0445
 30
0.0
 11
211.069
 21
37.0445
 31
0.0
  0
LINE
  8
0
 62
     0
 10
211.069
 20
37.0445
 30
0.0
 11
211.069
 21
33.9439
 31
0.0
  0
LINE
  8
0
 62
     0
 10
211.069
 20
33.9439
 30
0.0
 11
210.269
 21
33.9439
 31
0.0
  0
LINE
  8
0
 62
     0
 10
210.269
 20
33.9439
 30
0.0
 11
210.269
 21
28.1437
 31
0.0
  0
LINE
  8
0
 62
     0
 10
210.269
 20
28.1437
 30
0.0
 11
211.069
 21
28.1437
 31
0.0
  0
LINE
  8
0
 62
     0
 10
211.069
 20
28.1437
 30
0.0
 11
211.069
 21
25.0431
 31
0.0
  0
LINE
  8
0
 62
     0
 10
211.069
 20
25.0431
 30
0.0
 11
210.269
 21
25.0431
 31
0.0
  0
LINE
  8
0
 62
     0
 10
229.319
 20
5.99309
 30
0.0
 11
229.319
 21
4.99403
 31
0.0
  0
LINE
  8
0
 62
     0
 10
229.319
 20
4.99403
 30
0.0
 11
215.319
 21
4.99403
 31
0.0
  0
LINE
  8
0
 62
     0
 10
215.319
 20
4.99403
 30
0.0
 11
215.319
 21
5.99309
 31
0.0
  0
LINE
  8
0
 62
     0
 10
215.319
 20
5.99309
 30
0.0
 11
214.519
 21
5.99309
 31
0.0
  0
LINE
  8
0
 62
     0
 10
214.519
 20
5.99309
 30
0.0
 11
214.519
 21
9.09366
 31
0.0
  0
LINE
  8
0
 62
     0
 10
214.519
 20
9.09366
 30
0.0
 11
215.319
 21
9.09366
 31
0.0
  0
LINE
  8
0
 62
     0
 10
215.319
 20
9.09366
 30
0.0
 11
215.319
 21
14.8939
 31
0.0
  0
LINE
  8
0
 62
     0
 10
215.319
 20
14.8939
 30
0.0
 11
214.519
 21
14.8939
 31
0.0
  0
LINE
  8
0
 62
     0
 10
214.519
 20
14.8939
 30
0.0
 11
214.519
 21
17.9944
 31
0.0
  0
LINE
  8
0
 62
     0
 10
214.519
 20
17.9944
 30
0.0
 11
215.319
 21
17.9944
 31
0.0
  0
LINE
  8
0
 62
     0
 10
215.319
 20
17.9944
 30
0.0
 11
215.319
 21
18.9935
 31
0.0
  0
LINE
  8
0
 62
     0
 10
215.319
 20
18.9935
 30
0.0
 11
229.319
 21
18.9935
 31
0.0
  0
LINE
  8
0
 62
     0
 10
229.319
 20
18.9935
 30
0.0
 11
229.319
 21
17.9944
 31
0.0
  0
LINE
  8
0
 62
     0
 10
229.319
 20
17.9944
 30
0.0
 11
230.119
 21
17.9944
 31
0.0
  0
LINE
  8
0
 62
     0
 10
230.119
 20
17.9944
 30
0.0
 11
230.119
 21
14.8939
 31
0.0
  0
LINE
  8
0
 62
     0
 10
230.119
 20
14.8939
 30
0.0
 11
229.319
 21
14.8939
 31
0.0
  0
LINE
  8
0
 62
     0
 10
229.319
 20
14.8939
 30
0.0
 11
229.319
 21
9.09366
 31
0.0
  0
LINE
  8
0
 62
     0
 10
229.319
 20
9.09366
 30
0.0
 11
230.119
 21
9.09366
 31
0.0
  0
LINE
  8
0
 62
     0
 10
230.119
 20
9.09366
 30
0.0
 11
230.119
 21
5.99309
 31
0.0
  0
LINE
  8
0
 62
     0
 10
230.119
 20
5.99309
 30
0.0
 11
229.319
 21
5.99309
 31
0.0
  0
LINE
  8
0
 62
     0
 10
229.319
 20
82.193
 30
0.0
 11
229.319
 21
81.1939
 31
0.0
  0
LINE
  8
0
 62
     0
 10
229.319
 20
81.1939
 30
0.0
 11
215.319
 21
81.1939
 31
0.0
  0
LINE
  8
0
 62
     0
 10
215.319
 20
81.1939
 30
0.0
 11
215.319
 21
82.193
 31
0.0
  0
LINE
  8
0
 62
     0
 10
215.319
 20
82.193
 30
0.0
 11
214.519
 21
82.193
 31
0.0
  0
LINE
  8
0
 62
     0
 10
214.519
 20
82.193
 30
0.0
 11
214.519
 21
85.2936
 31
0.0
  0
LINE
  8
0
 62
     0
 10
214.519
 20
85.2936
 30
0.0
 11
215.319
 21
85.2936
 31
0.0
  0
LINE
  8
0
 62
     0
 10
215.319
 20
85.2936
 30
0.0
 11
215.319
 21
91.0939
 31
0.0
  0
LINE
  8
0
 62
     0
 10
215.319
 20
91.0939
 30
0.0
 11
214.519
 21
91.0939
 31
0.0
  0
LINE
  8
0
 62
     0
 10
214.519
 20
91.0939
 30
0.0
 11
214.519
 21
94.1945
 31
0.0
  0
LINE
  8
0
 62
     0
 10
214.519
 20
94.1945
 30
0.0
 11
215.319
 21
94.1945
 31
0.0
  0
LINE
  8
0
 62
     0
 10
215.319
 20
94.1945
 30
0.0
 11
215.319
 21
95.1936
 31
0.0
  0
LINE
  8
0
 62
     0
 10
215.319
 20
95.1936
 30
0.0
 11
229.319
 21
95.1936
 31
0.0
  0
LINE
  8
0
 62
     0
 10
229.319
 20
95.1936
 30
0.0
 11
229.319
 21
94.1945
 31
0.0
  0
LINE
  8
0
 62
     0
 10
229.319
 20
94.1945
 30
0.0
 11
230.119
 21
94.1945
 31
0.0
  0
LINE
  8
0
 62
     0
 10
230.119
 20
94.1945
 30
0.0
 11
230.119
 21
91.0939
 31
0.0
  0
LINE
  8
0
 62
     0
 10
230.119
 20
91.0939
 30
0.0
 11
229.319
 21
91.0939
 31
0.0
  0
LINE
  8
0
 62
     0
 10
229.319
 20
91.0939
 30
0.0
 11
229.319
 21
85.2936
 31
0.0
  0
LINE
  8
0
 62
     0
 10
229.319
 20
85.2936
 30
0.0
 11
230.119
 21
85.2936
 31
0.0
  0
LINE
  8
0
 62
     0
 10
230.119
 20
85.2936
 30
0.0
 11
230.119
 21
82.193
 31
0.0
  0
LINE
  8
0
 62
     0
 10
230.119
 20
82.193
 30
0.0
 11
229.319
 21
82.193
 31
0.0
  0
LINE
  8
0
 62
     0
 10
229.319
 20
63.143
 30
0.0
 11
229.319
 21
62.1439
 31
0.0
  0
LINE
  8
0
 62
     0
 10
229.319
 20
62.1439
 30
0.0
 11
215.319
 21
62.1439
 31
0.0
  0
LINE
  8
0
 62
     0
 10
215.319
 20
62.1439
 30
0.0
 11
215.319
 21
63.143
 31
0.0
  0
LINE
  8
0
 62
     0
 10
215.319
 20
63.143
 30
0.0
 11
214.519
 21
63.143
 31
0.0
  0
LINE
  8
0
 62
     0
 10
214.519
 20
63.143
 30
0.0
 11
214.519
 21
66.2436
 31
0.0
  0
LINE
  8
0
 62
     0
 10
214.519
 20
66.2436
 30
0.0
 11
215.319
 21
66.2436
 31
0.0
  0
LINE
  8
0
 62
     0
 10
215.319
 20
66.2436
 30
0.0
 11
215.319
 21
72.0439
 31
0.0
  0
LINE
  8
0
 62
     0
 10
215.319
 20
72.0439
 30
0.0
 11
214.519
 21
72.0439
 31
0.0
  0
LINE
  8
0
 62
     0
 10
214.519
 20
72.0439
 30
0.0
 11
214.519
 21
75.1445
 31
0.0
  0
LINE
  8
0
 62
     0
 10
214.519
 20
75.1445
 30
0.0
 11
215.319
 21
75.1445
 31
0.0
  0
LINE
  8
0
 62
     0
 10
215.319
 20
75.1445
 30
0.0
 11
215.319
 21
76.1436
 31
0.0
  0
LINE
  8
0
 62
     0
 10
215.319
 20
76.1436
 30
0.0
 11
229.319
 21
76.1436
 31
0.0
  0
LINE
  8
0
 62
     0
 10
229.319
 20
76.1436
 30
0.0
 11
229.319
 21
75.1445
 31
0.0
  0
LINE
  8
0
 62
     0
 10
229.319
 20
75.1445
 30
0.0
 11
230.119
 21
75.1445
 31
0.0
  0
LINE
  8
0
 62
     0
 10
230.119
 20
75.1445
 30
0.0
 11
230.119
 21
72.0439
 31
0.0
  0
LINE
  8
0
 62
     0
 10
230.119
 20
72.0439
 30
0.0
 11
229.319
 21
72.0439
 31
0.0
  0
LINE
  8
0
 62
     0
 10
229.319
 20
72.0439
 30
0.0
 11
229.319
 21
66.2436
 31
0.0
  0
LINE
  8
0
 62
     0
 10
229.319
 20
66.2436
 30
0.0
 11
230.119
 21
66.2436
 31
0.0
  0
LINE
  8
0
 62
     0
 10
230.119
 20
66.2436
 30
0.0
 11
230.119
 21
63.143
 31
0.0
  0
LINE
  8
0
 62
     0
 10
230.119
 20
63.143
 30
0.0
 11
229.319
 21
63.143
 31
0.0
  0
LINE
  8
0
 62
     0
 10
229.319
 20
44.093
 30
0.0
 11
229.319
 21
43.0939
 31
0.0
  0
LINE
  8
0
 62
     0
 10
229.319
 20
43.0939
 30
0.0
 11
215.319
 21
43.0939
 31
0.0
  0
LINE
  8
0
 62
     0
 10
215.319
 20
43.0939
 30
0.0
 11
215.319
 21
44.093
 31
0.0
  0
LINE
  8
0
 62
     0
 10
215.319
 20
44.093
 30
0.0
 11
214.519
 21
44.093
 31
0.0
  0
LINE
  8
0
 62
     0
 10
214.519
 20
44.093
 30
0.0
 11
214.519
 21
47.1936
 31
0.0
  0
LINE
  8
0
 62
     0
 10
214.519
 20
47.1936
 30
0.0
 11
215.319
 21
47.1936
 31
0.0
  0
LINE
  8
0
 62
     0
 10
215.319
 20
47.1936
 30
0.0
 11
215.319
 21
52.9939
 31
0.0
  0
LINE
  8
0
 62
     0
 10
215.319
 20
52.9939
 30
0.0
 11
214.519
 21
52.9939
 31
0.0
  0
LINE
  8
0
 62
     0
 10
214.519
 20
52.9939
 30
0.0
 11
214.519
 21
56.0945
 31
0.0
  0
LINE
  8
0
 62
     0
 10
214.519
 20
56.0945
 30
0.0
 11
215.319
 21
56.0945
 31
0.0
  0
LINE
  8
0
 62
     0
 10
215.319
 20
56.0945
 30
0.0
 11
215.319
 21
57.0936
 31
0.0
  0
LINE
  8
0
 62
     0
 10
215.319
 20
57.0936
 30
0.0
 11
229.319
 21
57.0936
 31
0.0
  0
LINE
  8
0
 62
     0
 10
229.319
 20
57.0936
 30
0.0
 11
229.319
 21
56.0945
 31
0.0
  0
LINE
  8
0
 62
     0
 10
229.319
 20
56.0945
 30
0.0
 11
230.119
 21
56.0945
 31
0.0
  0
LINE
  8
0
 62
     0
 10
230.119
 20
56.0945
 30
0.0
 11
230.119
 21
52.9939
 31
0.0
  0
LINE
  8
0
 62
     0
 10
230.119
 20
52.9939
 30
0.0
 11
229.319
 21
52.9939
 31
0.0
  0
LINE
  8
0
 62
     0
 10
229.319
 20
52.9939
 30
0.0
 11
229.319
 21
47.1936
 31
0.0
  0
LINE
  8
0
 62
     0
 10
229.319
 20
47.1936
 30
0.0
 11
230.119
 21
47.1936
 31
0.0
  0
LINE
  8
0
 62
     0
 10
230.119
 20
47.1936
 30
0.0
 11
230.119
 21
44.093
 31
0.0
  0
LINE
  8
0
 62
     0
 10
230.119
 20
44.093
 30
0.0
 11
229.319
 21
44.093
 31
0.0
  0
LINE
  8
0
 62
     0
 10
229.319
 20
25.0431
 30
0.0
 11
229.319
 21
24.044
 31
0.0
  0
LINE
  8
0
 62
     0
 10
229.319
 20
24.044
 30
0.0
 11
215.319
 21
24.044
 31
0.0
  0
LINE
  8
0
 62
     0
 10
215.319
 20
24.044
 30
0.0
 11
215.319
 21
25.0431
 31
0.0
  0
LINE
  8
0
 62
     0
 10
215.319
 20
25.0431
 30
0.0
 11
214.519
 21
25.0431
 31
0.0
  0
LINE
  8
0
 62
     0
 10
214.519
 20
25.0431
 30
0.0
 11
214.519
 21
28.1437
 31
0.0
  0
LINE
  8
0
 62
     0
 10
214.519
 20
28.1437
 30
0.0
 11
215.319
 21
28.1437
 31
0.0
  0
LINE
  8
0
 62
     0
 10
215.319
 20
28.1437
 30
0.0
 11
215.319
 21
33.9439
 31
0.0
  0
LINE
  8
0
 62
     0
 10
215.319
 20
33.9439
 30
0.0
 11
214.519
 21
33.9439
 31
0.0
  0
LINE
  8
0
 62
     0
 10
214.519
 20
33.9439
 30
0.0
 11
214.519
 21
37.0445
 31
0.0
  0
LINE
  8
0
 62
     0
 10
214.519
 20
37.0445
 30
0.0
 11
215.319
 21
37.0445
 31
0.0
  0
LINE
  8
0
 62
     0
 10
215.319
 20
37.0445
 30
0.0
 11
215.319
 21
38.0436
 31
0.0
  0
LINE
  8
0
 62
     0
 10
215.319
 20
38.0436
 30
0.0
 11
229.319
 21
38.0436
 31
0.0
  0
LINE
  8
0
 62
     0
 10
229.319
 20
38.0436
 30
0.0
 11
229.319
 21
37.0445
 31
0.0
  0
LINE
  8
0
 62
     0
 10
229.319
 20
37.0445
 30
0.0
 11
230.119
 21
37.0445
 31
0.0
  0
LINE
  8
0
 62
     0
 10
230.119
 20
37.0445
 30
0.0
 11
230.119
 21
33.9439
 31
0.0
  0
LINE
  8
0
 62
     0
 10
230.119
 20
33.9439
 30
0.0
 11
229.319
 21
33.9439
 31
0.0
  0
LINE
  8
0
 62
     0
 10
229.319
 20
33.9439
 30
0.0
 11
229.319
 21
28.1437
 31
0.0
  0
LINE
  8
0
 62
     0
 10
229.319
 20
28.1437
 30
0.0
 11
230.119
 21
28.1437
 31
0.0
  0
LINE
  8
0
 62
     0
 10
230.119
 20
28.1437
 30
0.0
 11
230.119
 21
25.0431
 31
0.0
  0
LINE
  8
0
 62
     0
 10
230.119
 20
25.0431
 30
0.0
 11
229.319
 21
25.0431
 31
0.0
  0
LINE
  8
0
 62
     0
 10
248.369
 20
5.99309
 30
0.0
 11
248.369
 21
4.99403
 31
0.0
  0
LINE
  8
0
 62
     0
 10
248.369
 20
4.99403
 30
0.0
 11
234.369
 21
4.99403
 31
0.0
  0
LINE
  8
0
 62
     0
 10
234.369
 20
4.99403
 30
0.0
 11
234.369
 21
5.99309
 31
0.0
  0
LINE
  8
0
 62
     0
 10
234.369
 20
5.99309
 30
0.0
 11
233.569
 21
5.99309
 31
0.0
  0
LINE
  8
0
 62
     0
 10
233.569
 20
5.99309
 30
0.0
 11
233.569
 21
9.09366
 31
0.0
  0
LINE
  8
0
 62
     0
 10
233.569
 20
9.09366
 30
0.0
 11
234.369
 21
9.09366
 31
0.0
  0
LINE
  8
0
 62
     0
 10
234.369
 20
9.09366
 30
0.0
 11
234.369
 21
14.8939
 31
0.0
  0
LINE
  8
0
 62
     0
 10
234.369
 20
14.8939
 30
0.0
 11
233.569
 21
14.8939
 31
0.0
  0
LINE
  8
0
 62
     0
 10
233.569
 20
14.8939
 30
0.0
 11
233.569
 21
17.9944
 31
0.0
  0
LINE
  8
0
 62
     0
 10
233.569
 20
17.9944
 30
0.0
 11
234.369
 21
17.9944
 31
0.0
  0
LINE
  8
0
 62
     0
 10
234.369
 20
17.9944
 30
0.0
 11
234.369
 21
18.9935
 31
0.0
  0
LINE
  8
0
 62
     0
 10
234.369
 20
18.9935
 30
0.0
 11
248.369
 21
18.9935
 31
0.0
  0
LINE
  8
0
 62
     0
 10
248.369
 20
18.9935
 30
0.0
 11
248.369
 21
17.9944
 31
0.0
  0
LINE
  8
0
 62
     0
 10
248.369
 20
17.9944
 30
0.0
 11
249.169
 21
17.9944
 31
0.0
  0
LINE
  8
0
 62
     0
 10
249.169
 20
17.9944
 30
0.0
 11
249.169
 21
14.8939
 31
0.0
  0
LINE
  8
0
 62
     0
 10
249.169
 20
14.8939
 30
0.0
 11
248.369
 21
14.8939
 31
0.0
  0
LINE
  8
0
 62
     0
 10
248.369
 20
14.8939
 30
0.0
 11
248.369
 21
9.09366
 31
0.0
  0
LINE
  8
0
 62
     0
 10
248.369
 20
9.09366
 30
0.0
 11
249.169
 21
9.09366
 31
0.0
  0
LINE
  8
0
 62
     0
 10
249.169
 20
9.09366
 30
0.0
 11
249.169
 21
5.99309
 31
0.0
  0
LINE
  8
0
 62
     0
 10
249.169
 20
5.99309
 30
0.0
 11
248.369
 21
5.99309
 31
0.0
  0
LINE
  8
0
 62
     0
 10
248.369
 20
82.193
 30
0.0
 11
248.369
 21
81.1939
 31
0.0
  0
LINE
  8
0
 62
     0
 10
248.369
 20
81.1939
 30
0.0
 11
234.369
 21
81.1939
 31
0.0
  0
LINE
  8
0
 62
     0
 10
234.369
 20
81.1939
 30
0.0
 11
234.369
 21
82.193
 31
0.0
  0
LINE
  8
0
 62
     0
 10
234.369
 20
82.193
 30
0.0
 11
233.569
 21
82.193
 31
0.0
  0
LINE
  8
0
 62
     0
 10
233.569
 20
82.193
 30
0.0
 11
233.569
 21
85.2936
 31
0.0
  0
LINE
  8
0
 62
     0
 10
233.569
 20
85.2936
 30
0.0
 11
234.369
 21
85.2936
 31
0.0
  0
LINE
  8
0
 62
     0
 10
234.369
 20
85.2936
 30
0.0
 11
234.369
 21
91.0939
 31
0.0
  0
LINE
  8
0
 62
     0
 10
234.369
 20
91.0939
 30
0.0
 11
233.569
 21
91.0939
 31
0.0
  0
LINE
  8
0
 62
     0
 10
233.569
 20
91.0939
 30
0.0
 11
233.569
 21
94.1945
 31
0.0
  0
LINE
  8
0
 62
     0
 10
233.569
 20
94.1945
 30
0.0
 11
234.369
 21
94.1945
 31
0.0
  0
LINE
  8
0
 62
     0
 10
234.369
 20
94.1945
 30
0.0
 11
234.369
 21
95.1936
 31
0.0
  0
LINE
  8
0
 62
     0
 10
234.369
 20
95.1936
 30
0.0
 11
248.369
 21
95.1936
 31
0.0
  0
LINE
  8
0
 62
     0
 10
248.369
 20
95.1936
 30
0.0
 11
248.369
 21
94.1945
 31
0.0
  0
LINE
  8
0
 62
     0
 10
248.369
 20
94.1945
 30
0.0
 11
249.169
 21
94.1945
 31
0.0
  0
LINE
  8
0
 62
     0
 10
249.169
 20
94.1945
 30
0.0
 11
249.169
 21
91.0939
 31
0.0
  0
LINE
  8
0
 62
     0
 10
249.169
 20
91.0939
 30
0.0
 11
248.369
 21
91.0939
 31
0.0
  0
LINE
  8
0
 62
     0
 10
248.369
 20
91.0939
 30
0.0
 11
248.369
 21
85.2936
 31
0.0
  0
LINE
  8
0
 62
     0
 10
248.369
 20
85.2936
 30
0.0
 11
249.169
 21
85.2936
 31
0.0
  0
LINE
  8
0
 62
     0
 10
249.169
 20
85.2936
 30
0.0
 11
249.169
 21
82.193
 31
0.0
  0
LINE
  8
0
 62
     0
 10
249.169
 20
82.193
 30
0.0
 11
248.369
 21
82.193
 31
0.0
  0
LINE
  8
0
 62
     0
 10
248.369
 20
63.143
 30
0.0
 11
248.369
 21
62.1439
 31
0.0
  0
LINE
  8
0
 62
     0
 10
248.369
 20
62.1439
 30
0.0
 11
234.369
 21
62.1439
 31
0.0
  0
LINE
  8
0
 62
     0
 10
234.369
 20
62.1439
 30
0.0
 11
234.369
 21
63.143
 31
0.0
  0
LINE
  8
0
 62
     0
 10
234.369
 20
63.143
 30
0.0
 11
233.569
 21
63.143
 31
0.0
  0
LINE
  8
0
 62
     0
 10
233.569
 20
63.143
 30
0.0
 11
233.569
 21
66.2436
 31
0.0
  0
LINE
  8
0
 62
     0
 10
233.569
 20
66.2436
 30
0.0
 11
234.369
 21
66.2436
 31
0.0
  0
LINE
  8
0
 62
     0
 10
234.369
 20
66.2436
 30
0.0
 11
234.369
 21
72.0439
 31
0.0
  0
LINE
  8
0
 62
     0
 10
234.369
 20
72.0439
 30
0.0
 11
233.569
 21
72.0439
 31
0.0
  0
LINE
  8
0
 62
     0
 10
233.569
 20
72.0439
 30
0.0
 11
233.569
 21
75.1445
 31
0.0
  0
LINE
  8
0
 62
     0
 10
233.569
 20
75.1445
 30
0.0
 11
234.369
 21
75.1445
 31
0.0
  0
LINE
  8
0
 62
     0
 10
234.369
 20
75.1445
 30
0.0
 11
234.369
 21
76.1436
 31
0.0
  0
LINE
  8
0
 62
     0
 10
234.369
 20
76.1436
 30
0.0
 11
248.369
 21
76.1436
 31
0.0
  0
LINE
  8
0
 62
     0
 10
248.369
 20
76.1436
 30
0.0
 11
248.369
 21
75.1445
 31
0.0
  0
LINE
  8
0
 62
     0
 10
248.369
 20
75.1445
 30
0.0
 11
249.169
 21
75.1445
 31
0.0
  0
LINE
  8
0
 62
     0
 10
249.169
 20
75.1445
 30
0.0
 11
249.169
 21
72.0439
 31
0.0
  0
LINE
  8
0
 62
     0
 10
249.169
 20
72.0439
 30
0.0
 11
248.369
 21
72.0439
 31
0.0
  0
LINE
  8
0
 62
     0
 10
248.369
 20
72.0439
 30
0.0
 11
248.369
 21
66.2436
 31
0.0
  0
LINE
  8
0
 62
     0
 10
248.369
 20
66.2436
 30
0.0
 11
249.169
 21
66.2436
 31
0.0
  0
LINE
  8
0
 62
     0
 10
249.169
 20
66.2436
 30
0.0
 11
249.169
 21
63.143
 31
0.0
  0
LINE
  8
0
 62
     0
 10
249.169
 20
63.143
 30
0.0
 11
248.369
 21
63.143
 31
0.0
  0
LINE
  8
0
 62
     0
 10
248.369
 20
44.093
 30
0.0
 11
248.369
 21
43.0939
 31
0.0
  0
LINE
  8
0
 62
     0
 10
248.369
 20
43.0939
 30
0.0
 11
234.369
 21
43.0939
 31
0.0
  0
LINE
  8
0
 62
     0
 10
234.369
 20
43.0939
 30
0.0
 11
234.369
 21
44.093
 31
0.0
  0
LINE
  8
0
 62
     0
 10
234.369
 20
44.093
 30
0.0
 11
233.569
 21
44.093
 31
0.0
  0
LINE
  8
0
 62
     0
 10
233.569
 20
44.093
 30
0.0
 11
233.569
 21
47.1936
 31
0.0
  0
LINE
  8
0
 62
     0
 10
233.569
 20
47.1936
 30
0.0
 11
234.369
 21
47.1936
 31
0.0
  0
LINE
  8
0
 62
     0
 10
234.369
 20
47.1936
 30
0.0
 11
234.369
 21
52.9939
 31
0.0
  0
LINE
  8
0
 62
     0
 10
234.369
 20
52.9939
 30
0.0
 11
233.569
 21
52.9939
 31
0.0
  0
LINE
  8
0
 62
     0
 10
233.569
 20
52.9939
 30
0.0
 11
233.569
 21
56.0945
 31
0.0
  0
LINE
  8
0
 62
     0
 10
233.569
 20
56.0945
 30
0.0
 11
234.369
 21
56.0945
 31
0.0
  0
LINE
  8
0
 62
     0
 10
234.369
 20
56.0945
 30
0.0
 11
234.369
 21
57.0936
 31
0.0
  0
LINE
  8
0
 62
     0
 10
234.369
 20
57.0936
 30
0.0
 11
248.369
 21
57.0936
 31
0.0
  0
LINE
  8
0
 62
     0
 10
248.369
 20
57.0936
 30
0.0
 11
248.369
 21
56.0945
 31
0.0
  0
LINE
  8
0
 62
     0
 10
248.369
 20
56.0945
 30
0.0
 11
249.169
 21
56.0945
 31
0.0
  0
LINE
  8
0
 62
     0
 10
249.169
 20
56.0945
 30
0.0
 11
249.169
 21
52.9939
 31
0.0
  0
LINE
  8
0
 62
     0
 10
249.169
 20
52.9939
 30
0.0
 11
248.369
 21
52.9939
 31
0.0
  0
LINE
  8
0
 62
     0
 10
248.369
 20
52.9939
 30
0.0
 11
248.369
 21
47.1936
 31
0.0
  0
LINE
  8
0
 62
     0
 10
248.369
 20
47.1936
 30
0.0
 11
249.169
 21
47.1936
 31
0.0
  0
LINE
  8
0
 62
     0
 10
249.169
 20
47.1936
 30
0.0
 11
249.169
 21
44.093
 31
0.0
  0
LINE
  8
0
 62
     0
 10
249.169
 20
44.093
 30
0.0
 11
248.369
 21
44.093
 31
0.0
  0
LINE
  8
0
 62
     0
 10
248.369
 20
25.0431
 30
0.0
 11
248.369
 21
24.044
 31
0.0
  0
LINE
  8
0
 62
     0
 10
248.369
 20
24.044
 30
0.0
 11
234.369
 21
24.044
 31
0.0
  0
LINE
  8
0
 62
     0
 10
234.369
 20
24.044
 30
0.0
 11
234.369
 21
25.0431
 31
0.0
  0
LINE
  8
0
 62
     0
 10
234.369
 20
25.0431
 30
0.0
 11
233.569
 21
25.0431
 31
0.0
  0
LINE
  8
0
 62
     0
 10
233.569
 20
25.0431
 30
0.0
 11
233.569
 21
28.1437
 31
0.0
  0
LINE
  8
0
 62
     0
 10
233.569
 20
28.1437
 30
0.0
 11
234.369
 21
28.1437
 31
0.0
  0
LINE
  8
0
 62
     0
 10
234.369
 20
28.1437
 30
0.0
 11
234.369
 21
33.9439
 31
0.0
  0
LINE
  8
0
 62
     0
 10
234.369
 20
33.9439
 30
0.0
 11
233.569
 21
33.9439
 31
0.0
  0
LINE
  8
0
 62
     0
 10
233.569
 20
33.9439
 30
0.0
 11
233.569
 21
37.0445
 31
0.0
  0
LINE
  8
0
 62
     0
 10
233.569
 20
37.0445
 30
0.0
 11
234.369
 21
37.0445
 31
0.0
  0
LINE
  8
0
 62
     0
 10
234.369
 20
37.0445
 30
0.0
 11
234.369
 21
38.0436
 31
0.0
  0
LINE
  8
0
 62
     0
 10
234.369
 20
38.0436
 30
0.0
 11
248.369
 21
38.0436
 31
0.0
  0
LINE
  8
0
 62
     0
 10
248.369
 20
38.0436
 30
0.0
 11
248.369
 21
37.0445
 31
0.0
  0
LINE
  8
0
 62
     0
 10
248.369
 20
37.0445
 30
0.0
 11
249.169
 21
37.0445
 31
0.0
  0
LINE
  8
0
 62
     0
 10
249.169
 20
37.0445
 30
0.0
 11
249.169
 21
33.9439
 31
0.0
  0
LINE
  8
0
 62
     0
 10
249.169
 20
33.9439
 30
0.0
 11
248.369
 21
33.9439
 31
0.0
  0
LINE
  8
0
 62
     0
 10
248.369
 20
33.9439
 30
0.0
 11
248.369
 21
28.1437
 31
0.0
  0
LINE
  8
0
 62
     0
 10
248.369
 20
28.1437
 30
0.0
 11
249.169
 21
28.1437
 31
0.0
  0
LINE
  8
0
 62
     0
 10
249.169
 20
28.1437
 30
0.0
 11
249.169
 21
25.0431
 31
0.0
  0
LINE
  8
0
 62
     0
 10
249.169
 20
25.0431
 30
0.0
 11
248.369
 21
25.0431
 31
0.0
  0
LINE
  8
0
 62
     0
 10
267.419
 20
82.193
 30
0.0
 11
267.419
 21
81.1939
 31
0.0
  0
LINE
  8
0
 62
     0
 10
267.419
 20
81.1939
 30
0.0
 11
253.419
 21
81.1939
 31
0.0
  0
LINE
  8
0
 62
     0
 10
253.419
 20
81.1939
 30
0.0
 11
253.419
 21
82.193
 31
0.0
  0
LINE
  8
0
 62
     0
 10
253.419
 20
82.193
 30
0.0
 11
252.619
 21
82.193
 31
0.0
  0
LINE
  8
0
 62
     0
 10
252.619
 20
82.193
 30
0.0
 11
252.619
 21
85.2936
 31
0.0
  0
LINE
  8
0
 62
     0
 10
252.619
 20
85.2936
 30
0.0
 11
253.419
 21
85.2936
 31
0.0
  0
LINE
  8
0
 62
     0
 10
253.419
 20
85.2936
 30
0.0
 11
253.419
 21
91.0939
 31
0.0
  0
LINE
  8
0
 62
     0
 10
253.419
 20
91.0939
 30
0.0
 11
252.619
 21
91.0939
 31
0.0
  0
LINE
  8
0
 62
     0
 10
252.619
 20
91.0939
 30
0.0
 11
252.619
 21
94.1945
 31
0.0
  0
LINE
  8
0
 62
     0
 10
252.619
 20
94.1945
 30
0.0
 11
253.419
 21
94.1945
 31
0.0
  0
LINE
  8
0
 62
     0
 10
253.419
 20
94.1945
 30
0.0
 11
253.419
 21
95.1936
 31
0.0
  0
LINE
  8
0
 62
     0
 10
253.419
 20
95.1936
 30
0.0
 11
267.419
 21
95.1936
 31
0.0
  0
LINE
  8
0
 62
     0
 10
267.419
 20
95.1936
 30
0.0
 11
267.419
 21
94.1945
 31
0.0
  0
LINE
  8
0
 62
     0
 10
267.419
 20
94.1945
 30
0.0
 11
268.219
 21
94.1945
 31
0.0
  0
LINE
  8
0
 62
     0
 10
268.219
 20
94.1945
 30
0.0
 11
268.219
 21
91.0939
 31
0.0
  0
LINE
  8
0
 62
     0
 10
268.219
 20
91.0939
 30
0.0
 11
267.419
 21
91.0939
 31
0.0
  0
LINE
  8
0
 62
     0
 10
267.419
 20
91.0939
 30
0.0
 11
267.419
 21
85.2936
 31
0.0
  0
LINE
  8
0
 62
     0
 10
267.419
 20
85.2936
 30
0.0
 11
268.219
 21
85.2936
 31
0.0
  0
LINE
  8
0
 62
     0
 10
268.219
 20
85.2936
 30
0.0
 11
268.219
 21
82.193
 31
0.0
  0
LINE
  8
0
 62
     0
 10
268.219
 20
82.193
 30
0.0
 11
267.419
 21
82.193
 31
0.0
  0
LINE
  8
0
 62
     0
 10
267.419
 20
63.143
 30
0.0
 11
267.419
 21
62.1439
 31
0.0
  0
LINE
  8
0
 62
     0
 10
267.419
 20
62.1439
 30
0.0
 11
253.419
 21
62.1439
 31
0.0
  0
LINE
  8
0
 62
     0
 10
253.419
 20
62.1439
 30
0.0
 11
253.419
 21
63.143
 31
0.0
  0
LINE
  8
0
 62
     0
 10
253.419
 20
63.143
 30
0.0
 11
252.619
 21
63.143
 31
0.0
  0
LINE
  8
0
 62
     0
 10
252.619
 20
63.143
 30
0.0
 11
252.619
 21
66.2436
 31
0.0
  0
LINE
  8
0
 62
     0
 10
252.619
 20
66.2436
 30
0.0
 11
253.419
 21
66.2436
 31
0.0
  0
LINE
  8
0
 62
     0
 10
253.419
 20
66.2436
 30
0.0
 11
253.419
 21
72.0439
 31
0.0
  0
LINE
  8
0
 62
     0
 10
253.419
 20
72.0439
 30
0.0
 11
252.619
 21
72.0439
 31
0.0
  0
LINE
  8
0
 62
     0
 10
252.619
 20
72.0439
 30
0.0
 11
252.619
 21
75.1445
 31
0.0
  0
LINE
  8
0
 62
     0
 10
252.619
 20
75.1445
 30
0.0
 11
253.419
 21
75.1445
 31
0.0
  0
LINE
  8
0
 62
     0
 10
253.419
 20
75.1445
 30
0.0
 11
253.419
 21
76.1436
 31
0.0
  0
LINE
  8
0
 62
     0
 10
253.419
 20
76.1436
 30
0.0
 11
267.419
 21
76.1436
 31
0.0
  0
LINE
  8
0
 62
     0
 10
267.419
 20
76.1436
 30
0.0
 11
267.419
 21
75.1445
 31
0.0
  0
LINE
  8
0
 62
     0
 10
267.419
 20
75.1445
 30
0.0
 11
268.219
 21
75.1445
 31
0.0
  0
LINE
  8
0
 62
     0
 10
268.219
 20
75.1445
 30
0.0
 11
268.219
 21
72.0439
 31
0.0
  0
LINE
  8
0
 62
     0
 10
268.219
 20
72.0439
 30
0.0
 11
267.419
 21
72.0439
 31
0.0
  0
LINE
  8
0
 62
     0
 10
267.419
 20
72.0439
 30
0.0
 11
267.419
 21
66.2436
 31
0.0
  0
LINE
  8
0
 62
     0
 10
267.419
 20
66.2436
 30
0.0
 11
268.219
 21
66.2436
 31
0.0
  0
LINE
  8
0
 62
     0
 10
268.219
 20
66.2436
 30
0.0
 11
268.219
 21
63.143
 31
0.0
  0
LINE
  8
0
 62
     0
 10
268.219
 20
63.143
 30
0.0
 11
267.419
 21
63.143
 31
0.0
  0
LINE
  8
0
 62
     0
 10
267.419
 20
44.093
 30
0.0
 11
267.419
 21
43.0939
 31
0.0
  0
LINE
  8
0
 62
     0
 10
267.419
 20
43.0939
 30
0.0
 11
253.419
 21
43.0939
 31
0.0
  0
LINE
  8
0
 62
     0
 10
253.419
 20
43.0939
 30
0.0
 11
253.419
 21
44.093
 31
0.0
  0
LINE
  8
0
 62
     0
 10
253.419
 20
44.093
 30
0.0
 11
252.619
 21
44.093
 31
0.0
  0
LINE
  8
0
 62
     0
 10
252.619
 20
44.093
 30
0.0
 11
252.619
 21
47.1936
 31
0.0
  0
LINE
  8
0
 62
     0
 10
252.619
 20
47.1936
 30
0.0
 11
253.419
 21
47.1936
 31
0.0
  0
LINE
  8
0
 62
     0
 10
253.419
 20
47.1936
 30
0.0
 11
253.419
 21
52.9939
 31
0.0
  0
LINE
  8
0
 62
     0
 10
253.419
 20
52.9939
 30
0.0
 11
252.619
 21
52.9939
 31
0.0
  0
LINE
  8
0
 62
     0
 10
252.619
 20
52.9939
 30
0.0
 11
252.619
 21
56.0945
 31
0.0
  0
LINE
  8
0
 62
     0
 10
252.619
 20
56.0945
 30
0.0
 11
253.419
 21
56.0945
 31
0.0
  0
LINE
  8
0
 62
     0
 10
253.419
 20
56.0945
 30
0.0
 11
253.419
 21
57.0936
 31
0.0
  0
LINE
  8
0
 62
     0
 10
253.419
 20
57.0936
 30
0.0
 11
267.419
 21
57.0936
 31
0.0
  0
LINE
  8
0
 62
     0
 10
267.419
 20
57.0936
 30
0.0
 11
267.419
 21
56.0945
 31
0.0
  0
LINE
  8
0
 62
     0
 10
267.419
 20
56.0945
 30
0.0
 11
268.219
 21
56.0945
 31
0.0
  0
LINE
  8
0
 62
     0
 10
268.219
 20
56.0945
 30
0.0
 11
268.219
 21
52.9939
 31
0.0
  0
LINE
  8
0
 62
     0
 10
268.219
 20
52.9939
 30
0.0
 11
267.419
 21
52.9939
 31
0.0
  0
LINE
  8
0
 62
     0
 10
267.419
 20
52.9939
 30
0.0
 11
267.419
 21
47.1936
 31
0.0
  0
LINE
  8
0
 62
     0
 10
267.419
 20
47.1936
 30
0.0
 11
268.219
 21
47.1936
 31
0.0
  0
LINE
  8
0
 62
     0
 10
268.219
 20
47.1936
 30
0.0
 11
268.219
 21
44.093
 31
0.0
  0
LINE
  8
0
 62
     0
 10
268.219
 20
44.093
 30
0.0
 11
267.419
 21
44.093
 31
0.0
  0
LINE
  8
0
 62
     0
 10
267.419
 20
25.0431
 30
0.0
 11
267.419
 21
24.044
 31
0.0
  0
LINE
  8
0
 62
     0
 10
267.419
 20
24.044
 30
0.0
 11
253.419
 21
24.044
 31
0.0
  0
LINE
  8
0
 62
     0
 10
253.419
 20
24.044
 30
0.0
 11
253.419
 21
25.0431
 31
0.0
  0
LINE
  8
0
 62
     0
 10
253.419
 20
25.0431
 30
0.0
 11
252.619
 21
25.0431
 31
0.0
  0
LINE
  8
0
 62
     0
 10
252.619
 20
25.0431
 30
0.0
 11
252.619
 21
28.1437
 31
0.0
  0
LINE
  8
0
 62
     0
 10
252.619
 20
28.1437
 30
0.0
 11
253.419
 21
28.1437
 31
0.0
  0
LINE
  8
0
 62
     0
 10
253.419
 20
28.1437
 30
0.0
 11
253.419
 21
33.9439
 31
0.0
  0
LINE
  8
0
 62
     0
 10
253.419
 20
33.9439
 30
0.0
 11
252.619
 21
33.9439
 31
0.0
  0
LINE
  8
0
 62
     0
 10
252.619
 20
33.9439
 30
0.0
 11
252.619
 21
37.0445
 31
0.0
  0
LINE
  8
0
 62
     0
 10
252.619
 20
37.0445
 30
0.0
 11
253.419
 21
37.0445
 31
0.0
  0
LINE
  8
0
 62
     0
 10
253.419
 20
37.0445
 30
0.0
 11
253.419
 21
38.0436
 31
0.0
  0
LINE
  8
0
 62
     0
 10
253.419
 20
38.0436
 30
0.0
 11
267.419
 21
38.0436
 31
0.0
  0
LINE
  8
0
 62
     0
 10
267.419
 20
38.0436
 30
0.0
 11
267.419
 21
37.0445
 31
0.0
  0
LINE
  8
0
 62
     0
 10
267.419
 20
37.0445
 30
0.0
 11
268.219
 21
37.0445
 31
0.0
  0
LINE
  8
0
 62
     0
 10
268.219
 20
37.0445
 30
0.0
 11
268.219
 21
33.9439
 31
0.0
  0
LINE
  8
0
 62
     0
 10
268.219
 20
33.9439
 30
0.0
 11
267.419
 21
33.9439
 31
0.0
  0
LINE
  8
0
 62
     0
 10
267.419
 20
33.9439
 30
0.0
 11
267.419
 21
28.1437
 31
0.0
  0
LINE
  8
0
 62
     0
 10
267.419
 20
28.1437
 30
0.0
 11
268.219
 21
28.1437
 31
0.0
  0
LINE
  8
0
 62
     0
 10
268.219
 20
28.1437
 30
0.0
 11
268.219
 21
25.0431
 31
0.0
  0
LINE
  8
0
 62
     0
 10
268.219
 20
25.0431
 30
0.0
 11
267.419
 21
25.0431
 31
0.0
  0
LINE
  8
0
 62
     0
 10
267.419
 20
5.99309
 30
0.0
 11
267.419
 21
4.99403
 31
0.0
  0
LINE
  8
0
 62
     0
 10
267.419
 20
4.99403
 30
0.0
 11
253.419
 21
4.99403
 31
0.0
  0
LINE
  8
0
 62
     0
 10
253.419
 20
4.99403
 30
0.0
 11
253.419
 21
5.99309
 31
0.0
  0
LINE
  8
0
 62
     0
 10
253.419
 20
5.99309
 30
0.0
 11
252.619
 21
5.99309
 31
0.0
  0
LINE
  8
0
 62
     0
 10
252.619
 20
5.99309
 30
0.0
 11
252.619
 21
9.09366
 31
0.0
  0
LINE
  8
0
 62
     0
 10
252.619
 20
9.09366
 30
0.0
 11
253.419
 21
9.09366
 31
0.0
  0
LINE
  8
0
 62
     0
 10
253.419
 20
9.09366
 30
0.0
 11
253.419
 21
14.8939
 31
0.0
  0
LINE
  8
0
 62
     0
 10
253.419
 20
14.8939
 30
0.0
 11
252.619
 21
14.8939
 31
0.0
  0
LINE
  8
0
 62
     0
 10
252.619
 20
14.8939
 30
0.0
 11
252.619
 21
17.9944
 31
0.0
  0
LINE
  8
0
 62
     0
 10
252.619
 20
17.9944
 30
0.0
 11
253.419
 21
17.9944
 31
0.0
  0
LINE
  8
0
 62
     0
 10
253.419
 20
17.9944
 30
0.0
 11
253.419
 21
18.9935
 31
0.0
  0
LINE
  8
0
 62
     0
 10
253.419
 20
18.9935
 30
0.0
 11
267.419
 21
18.9935
 31
0.0
  0
LINE
  8
0
 62
     0
 10
267.419
 20
18.9935
 30
0.0
 11
267.419
 21
17.9944
 31
0.0
  0
LINE
  8
0
 62
     0
 10
267.419
 20
17.9944
 30
0.0
 11
268.219
 21
17.9944
 31
0.0
  0
LINE
  8
0
 62
     0
 10
268.219
 20
17.9944
 30
0.0
 11
268.219
 21
14.8939
 31
0.0
  0
LINE
  8
0
 62
     0
 10
268.219
 20
14.8939
 30
0.0
 11
267.419
 21
14.8939
 31
0.0
  0
LINE
  8
0
 62
     0
 10
267.419
 20
14.8939
 30
0.0
 11
267.419
 21
9.09366
 31
0.0
  0
LINE
  8
0
 62
     0
 10
267.419
 20
9.09366
 30
0.0
 11
268.219
 21
9.09366
 31
0.0
  0
LINE
  8
0
 62
     0
 10
268.219
 20
9.09366
 30
0.0
 11
268.219
 21
5.99309
 31
0.0
  0
LINE
  8
0
 62
     0
 10
268.219
 20
5.99309
 30
0.0
 11
267.419
 21
5.99309
 31
0.0
  0
ENDSEC
  0
EOF
