G04 #@! TF.FileFunction,Other,ECO2*
%FSLAX46Y46*%
G04 Gerber Fmt 4.6, Leading zero omitted, Abs format (unit mm)*
G04 Created by KiCad (PCBNEW 4.0.1-stable) date 4/18/2016 2:02:23 AM*
%MOMM*%
G01*
G04 APERTURE LIST*
%ADD10C,0.100000*%
%ADD11C,0.152400*%
G04 APERTURE END LIST*
D10*
D11*
X205015000Y-53015000D02*
X218985000Y-53015000D01*
X218985000Y-53015000D02*
X218985000Y-66985000D01*
X218985000Y-66985000D02*
X205015000Y-66985000D01*
X205015000Y-66985000D02*
X205015000Y-53015000D01*
X224015000Y-34015000D02*
X237985000Y-34015000D01*
X237985000Y-34015000D02*
X237985000Y-47985000D01*
X237985000Y-47985000D02*
X224015000Y-47985000D01*
X224015000Y-47985000D02*
X224015000Y-34015000D01*
X262015000Y-53015000D02*
X275985000Y-53015000D01*
X275985000Y-53015000D02*
X275985000Y-66985000D01*
X275985000Y-66985000D02*
X262015000Y-66985000D01*
X262015000Y-66985000D02*
X262015000Y-53015000D01*
X262015000Y-15015000D02*
X275985000Y-15015000D01*
X275985000Y-15015000D02*
X275985000Y-28985000D01*
X275985000Y-28985000D02*
X262015000Y-28985000D01*
X262015000Y-28985000D02*
X262015000Y-15015000D01*
X262015000Y-72015000D02*
X275985000Y-72015000D01*
X275985000Y-72015000D02*
X275985000Y-85985000D01*
X275985000Y-85985000D02*
X262015000Y-85985000D01*
X262015000Y-85985000D02*
X262015000Y-72015000D01*
X262015000Y-91015000D02*
X275985000Y-91015000D01*
X275985000Y-91015000D02*
X275985000Y-104985000D01*
X275985000Y-104985000D02*
X262015000Y-104985000D01*
X262015000Y-104985000D02*
X262015000Y-91015000D01*
X262015000Y-34015000D02*
X275985000Y-34015000D01*
X275985000Y-34015000D02*
X275985000Y-47985000D01*
X275985000Y-47985000D02*
X262015000Y-47985000D01*
X262015000Y-47985000D02*
X262015000Y-34015000D01*
X224015000Y-53015000D02*
X237985000Y-53015000D01*
X237985000Y-53015000D02*
X237985000Y-66985000D01*
X237985000Y-66985000D02*
X224015000Y-66985000D01*
X224015000Y-66985000D02*
X224015000Y-53015000D01*
X224015000Y-72015000D02*
X237985000Y-72015000D01*
X237985000Y-72015000D02*
X237985000Y-85985000D01*
X237985000Y-85985000D02*
X224015000Y-85985000D01*
X224015000Y-85985000D02*
X224015000Y-72015000D01*
X224015000Y-91015000D02*
X237985000Y-91015000D01*
X237985000Y-91015000D02*
X237985000Y-104985000D01*
X237985000Y-104985000D02*
X224015000Y-104985000D01*
X224015000Y-104985000D02*
X224015000Y-91015000D01*
X243015000Y-34015000D02*
X256985000Y-34015000D01*
X256985000Y-34015000D02*
X256985000Y-47985000D01*
X256985000Y-47985000D02*
X243015000Y-47985000D01*
X243015000Y-47985000D02*
X243015000Y-34015000D01*
X243015000Y-91015000D02*
X256985000Y-91015000D01*
X256985000Y-91015000D02*
X256985000Y-104985000D01*
X256985000Y-104985000D02*
X243015000Y-104985000D01*
X243015000Y-104985000D02*
X243015000Y-91015000D01*
X243015000Y-72015000D02*
X256985000Y-72015000D01*
X256985000Y-72015000D02*
X256985000Y-85985000D01*
X256985000Y-85985000D02*
X243015000Y-85985000D01*
X243015000Y-85985000D02*
X243015000Y-72015000D01*
X243015000Y-15015000D02*
X256985000Y-15015000D01*
X256985000Y-15015000D02*
X256985000Y-28985000D01*
X256985000Y-28985000D02*
X243015000Y-28985000D01*
X243015000Y-28985000D02*
X243015000Y-15015000D01*
X243015000Y-53015000D02*
X256985000Y-53015000D01*
X256985000Y-53015000D02*
X256985000Y-66985000D01*
X256985000Y-66985000D02*
X243015000Y-66985000D01*
X243015000Y-66985000D02*
X243015000Y-53015000D01*
X224015000Y-15015000D02*
X237985000Y-15015000D01*
X237985000Y-15015000D02*
X237985000Y-28985000D01*
X237985000Y-28985000D02*
X224015000Y-28985000D01*
X224015000Y-28985000D02*
X224015000Y-15015000D01*
X110015000Y-53015000D02*
X123985000Y-53015000D01*
X123985000Y-53015000D02*
X123985000Y-66985000D01*
X123985000Y-66985000D02*
X110015000Y-66985000D01*
X110015000Y-66985000D02*
X110015000Y-53015000D01*
X110015000Y-15015000D02*
X123985000Y-15015000D01*
X123985000Y-15015000D02*
X123985000Y-28985000D01*
X123985000Y-28985000D02*
X110015000Y-28985000D01*
X110015000Y-28985000D02*
X110015000Y-15015000D01*
X110015000Y-72015000D02*
X123985000Y-72015000D01*
X123985000Y-72015000D02*
X123985000Y-85985000D01*
X123985000Y-85985000D02*
X110015000Y-85985000D01*
X110015000Y-85985000D02*
X110015000Y-72015000D01*
X123985000Y-91015000D02*
X123985000Y-104985000D01*
X123985000Y-104985000D02*
X110015000Y-104985000D01*
X110015000Y-104985000D02*
X110015000Y-91015000D01*
X110015000Y-91015000D02*
X123985000Y-91015000D01*
X110015000Y-34015000D02*
X123985000Y-34015000D01*
X123985000Y-34015000D02*
X123985000Y-47985000D01*
X123985000Y-47985000D02*
X110015000Y-47985000D01*
X110015000Y-47985000D02*
X110015000Y-34015000D01*
X129015000Y-34015000D02*
X142985000Y-34015000D01*
X142985000Y-34015000D02*
X142985000Y-47985000D01*
X142985000Y-47985000D02*
X129015000Y-47985000D01*
X129015000Y-47985000D02*
X129015000Y-34015000D01*
X129015000Y-91015000D02*
X142985000Y-91015000D01*
X142985000Y-91015000D02*
X142985000Y-104985000D01*
X142985000Y-104985000D02*
X129015000Y-104985000D01*
X129015000Y-104985000D02*
X129015000Y-91015000D01*
X129015000Y-72015000D02*
X142985000Y-72015000D01*
X142985000Y-72015000D02*
X142985000Y-85985000D01*
X142985000Y-85985000D02*
X129015000Y-85985000D01*
X129015000Y-85985000D02*
X129015000Y-72015000D01*
X148015000Y-15015000D02*
X161985000Y-15015000D01*
X161985000Y-15015000D02*
X161985000Y-28985000D01*
X161985000Y-28985000D02*
X148015000Y-28985000D01*
X148015000Y-28985000D02*
X148015000Y-15015000D01*
X129015000Y-15015000D02*
X142985000Y-15015000D01*
X142985000Y-15015000D02*
X142985000Y-28985000D01*
X142985000Y-28985000D02*
X129015000Y-28985000D01*
X129015000Y-28985000D02*
X129015000Y-15015000D01*
X148015000Y-34015000D02*
X161985000Y-34015000D01*
X161985000Y-34015000D02*
X161985000Y-47985000D01*
X161985000Y-47985000D02*
X148015000Y-47985000D01*
X148015000Y-47985000D02*
X148015000Y-34015000D01*
X129015000Y-53015000D02*
X142985000Y-53015000D01*
X142985000Y-53015000D02*
X142985000Y-66985000D01*
X142985000Y-66985000D02*
X129015000Y-66985000D01*
X129015000Y-66985000D02*
X129015000Y-53015000D01*
X167015000Y-34015000D02*
X180985000Y-34015000D01*
X180985000Y-34015000D02*
X180985000Y-47985000D01*
X180985000Y-47985000D02*
X167015000Y-47985000D01*
X167015000Y-47985000D02*
X167015000Y-34015000D01*
X167015000Y-15015000D02*
X180985000Y-15015000D01*
X180985000Y-15015000D02*
X180985000Y-28985000D01*
X180985000Y-28985000D02*
X167015000Y-28985000D01*
X167015000Y-28985000D02*
X167015000Y-15015000D01*
X186015000Y-34015000D02*
X199985000Y-34015000D01*
X199985000Y-34015000D02*
X199985000Y-47985000D01*
X199985000Y-47985000D02*
X186015000Y-47985000D01*
X186015000Y-47985000D02*
X186015000Y-34015000D01*
X186015000Y-15015000D02*
X199985000Y-15015000D01*
X199985000Y-15015000D02*
X199985000Y-28985000D01*
X199985000Y-28985000D02*
X186015000Y-28985000D01*
X186015000Y-28985000D02*
X186015000Y-15015000D01*
X205015000Y-15015000D02*
X218985000Y-15015000D01*
X218985000Y-15015000D02*
X218985000Y-28985000D01*
X218985000Y-28985000D02*
X205015000Y-28985000D01*
X205015000Y-28985000D02*
X205015000Y-15015000D01*
X205015000Y-72015000D02*
X218985000Y-72015000D01*
X218985000Y-72015000D02*
X218985000Y-85985000D01*
X218985000Y-85985000D02*
X205015000Y-85985000D01*
X205015000Y-85985000D02*
X205015000Y-72015000D01*
X205015000Y-91015000D02*
X218985000Y-91015000D01*
X218985000Y-91015000D02*
X218985000Y-104985000D01*
X218985000Y-104985000D02*
X205015000Y-104985000D01*
X205015000Y-104985000D02*
X205015000Y-91015000D01*
X205015000Y-34015000D02*
X218985000Y-34015000D01*
X218985000Y-34015000D02*
X218985000Y-47985000D01*
X218985000Y-47985000D02*
X205015000Y-47985000D01*
X205015000Y-47985000D02*
X205015000Y-34015000D01*
X148015000Y-53015000D02*
X161985000Y-53015000D01*
X161985000Y-53015000D02*
X161985000Y-66985000D01*
X161985000Y-66985000D02*
X148015000Y-66985000D01*
X148015000Y-66985000D02*
X148015000Y-53015000D01*
X148015000Y-72015000D02*
X161985000Y-72015000D01*
X161985000Y-72015000D02*
X161985000Y-85985000D01*
X161985000Y-85985000D02*
X148015000Y-85985000D01*
X148015000Y-85985000D02*
X148015000Y-72015000D01*
X148015000Y-91015000D02*
X161985000Y-91015000D01*
X161985000Y-91015000D02*
X161985000Y-104985000D01*
X161985000Y-104985000D02*
X148015000Y-104985000D01*
X148015000Y-104985000D02*
X148015000Y-91015000D01*
X186015000Y-91015000D02*
X199985000Y-91015000D01*
X199985000Y-91015000D02*
X199985000Y-104985000D01*
X199985000Y-104985000D02*
X186015000Y-104985000D01*
X186015000Y-104985000D02*
X186015000Y-91015000D01*
X186015000Y-72015000D02*
X199985000Y-72015000D01*
X199985000Y-72015000D02*
X199985000Y-85985000D01*
X199985000Y-85985000D02*
X186015000Y-85985000D01*
X186015000Y-85985000D02*
X186015000Y-72015000D01*
X186015000Y-53015000D02*
X199985000Y-53015000D01*
X199985000Y-53015000D02*
X199985000Y-66985000D01*
X199985000Y-66985000D02*
X186015000Y-66985000D01*
X186015000Y-66985000D02*
X186015000Y-53015000D01*
X167015000Y-53015000D02*
X180985000Y-53015000D01*
X180985000Y-53015000D02*
X180985000Y-66985000D01*
X180985000Y-66985000D02*
X167015000Y-66985000D01*
X167015000Y-66985000D02*
X167015000Y-53015000D01*
X167015000Y-72015000D02*
X180985000Y-72015000D01*
X180985000Y-72015000D02*
X180985000Y-85985000D01*
X180985000Y-85985000D02*
X167015000Y-85985000D01*
X167015000Y-85985000D02*
X167015000Y-72015000D01*
X167015000Y-104985000D02*
X167015000Y-91015000D01*
X167015000Y-91015000D02*
X180985000Y-91015000D01*
X180985000Y-91015000D02*
X180985000Y-104985000D01*
X180985000Y-104985000D02*
X167015000Y-104985000D01*
X53015000Y-91015000D02*
X66985000Y-91015000D01*
X66985000Y-91015000D02*
X66985000Y-104985000D01*
X66985000Y-104985000D02*
X53015000Y-104985000D01*
X53015000Y-104985000D02*
X53015000Y-91015000D01*
X53015000Y-72015000D02*
X66985000Y-72015000D01*
X66985000Y-72015000D02*
X66985000Y-85985000D01*
X66985000Y-85985000D02*
X53015000Y-85985000D01*
X53015000Y-85985000D02*
X53015000Y-72015000D01*
X53015000Y-53015000D02*
X66985000Y-53015000D01*
X66985000Y-53015000D02*
X66985000Y-66985000D01*
X66985000Y-66985000D02*
X53015000Y-66985000D01*
X53015000Y-66985000D02*
X53015000Y-53015000D01*
X72015000Y-53015000D02*
X85985000Y-53015000D01*
X85985000Y-53015000D02*
X85985000Y-66985000D01*
X85985000Y-66985000D02*
X72015000Y-66985000D01*
X72015000Y-66985000D02*
X72015000Y-53015000D01*
X72015000Y-72015000D02*
X85985000Y-72015000D01*
X85985000Y-72015000D02*
X85985000Y-85985000D01*
X85985000Y-85985000D02*
X72015000Y-85985000D01*
X72015000Y-85985000D02*
X72015000Y-72015000D01*
X72015000Y-91015000D02*
X85985000Y-91015000D01*
X85985000Y-91015000D02*
X85985000Y-104985000D01*
X85985000Y-104985000D02*
X72015000Y-104985000D01*
X72015000Y-104985000D02*
X72015000Y-91015000D01*
X34015000Y-91015000D02*
X47985000Y-91015000D01*
X47985000Y-91015000D02*
X47985000Y-104985000D01*
X47985000Y-104985000D02*
X34015000Y-104985000D01*
X34015000Y-104985000D02*
X34015000Y-91015000D01*
X34015000Y-72015000D02*
X47985000Y-72015000D01*
X47985000Y-72015000D02*
X47985000Y-85985000D01*
X47985000Y-85985000D02*
X34015000Y-85985000D01*
X34015000Y-85985000D02*
X34015000Y-72015000D01*
X34015000Y-53015000D02*
X47985000Y-53015000D01*
X47985000Y-53015000D02*
X47985000Y-66985000D01*
X47985000Y-66985000D02*
X34015000Y-66985000D01*
X34015000Y-66985000D02*
X34015000Y-53015000D01*
X91015000Y-34015000D02*
X104985000Y-34015000D01*
X104985000Y-34015000D02*
X104985000Y-47985000D01*
X104985000Y-47985000D02*
X91015000Y-47985000D01*
X91015000Y-47985000D02*
X91015000Y-34015000D01*
X91015000Y-91015000D02*
X104985000Y-91015000D01*
X104985000Y-91015000D02*
X104985000Y-104985000D01*
X104985000Y-104985000D02*
X91015000Y-104985000D01*
X91015000Y-104985000D02*
X91015000Y-91015000D01*
X91015000Y-72015000D02*
X104985000Y-72015000D01*
X104985000Y-72015000D02*
X104985000Y-85985000D01*
X104985000Y-85985000D02*
X91015000Y-85985000D01*
X91015000Y-85985000D02*
X91015000Y-72015000D01*
X91015000Y-15015000D02*
X104985000Y-15015000D01*
X104985000Y-15015000D02*
X104985000Y-28985000D01*
X104985000Y-28985000D02*
X91015000Y-28985000D01*
X91015000Y-28985000D02*
X91015000Y-15015000D01*
X91015000Y-53015000D02*
X104985000Y-53015000D01*
X104985000Y-53015000D02*
X104985000Y-66985000D01*
X104985000Y-66985000D02*
X91015000Y-66985000D01*
X91015000Y-66985000D02*
X91015000Y-53015000D01*
X72015000Y-15015000D02*
X85985000Y-15015000D01*
X85985000Y-15015000D02*
X85985000Y-28985000D01*
X85985000Y-28985000D02*
X72015000Y-28985000D01*
X72015000Y-28985000D02*
X72015000Y-15015000D01*
X72015000Y-34015000D02*
X85985000Y-34015000D01*
X85985000Y-34015000D02*
X85985000Y-47985000D01*
X85985000Y-47985000D02*
X72015000Y-47985000D01*
X72015000Y-47985000D02*
X72015000Y-34015000D01*
X53015000Y-15015000D02*
X66985000Y-15015000D01*
X66985000Y-15015000D02*
X66985000Y-28985000D01*
X66985000Y-28985000D02*
X53015000Y-28985000D01*
X53015000Y-28985000D02*
X53015000Y-15015000D01*
X53015000Y-34015000D02*
X66985000Y-34015000D01*
X66985000Y-34015000D02*
X66985000Y-47985000D01*
X66985000Y-47985000D02*
X53015000Y-47985000D01*
X53015000Y-47985000D02*
X53015000Y-34015000D01*
X15015000Y-53015000D02*
X28985000Y-53015000D01*
X28985000Y-53015000D02*
X28985000Y-66985000D01*
X28985000Y-66985000D02*
X15015000Y-66985000D01*
X15015000Y-66985000D02*
X15015000Y-53015000D01*
X34015000Y-34015000D02*
X47985000Y-34015000D01*
X47985000Y-34015000D02*
X47985000Y-47985000D01*
X47985000Y-47985000D02*
X34015000Y-47985000D01*
X34015000Y-47985000D02*
X34015000Y-34015000D01*
X15015000Y-15015000D02*
X28985000Y-15015000D01*
X28985000Y-15015000D02*
X28985000Y-28985000D01*
X28985000Y-28985000D02*
X15015000Y-28985000D01*
X15015000Y-28985000D02*
X15015000Y-15015000D01*
X34015000Y-15015000D02*
X47985000Y-15015000D01*
X47985000Y-15015000D02*
X47985000Y-28985000D01*
X47985000Y-28985000D02*
X34015000Y-28985000D01*
X34015000Y-28985000D02*
X34015000Y-15015000D01*
X15015000Y-72015000D02*
X28985000Y-72015000D01*
X28985000Y-72015000D02*
X28985000Y-85985000D01*
X28985000Y-85985000D02*
X15015000Y-85985000D01*
X15015000Y-85985000D02*
X15015000Y-72015000D01*
X15015000Y-91015000D02*
X28985000Y-91015000D01*
X28985000Y-91015000D02*
X28985000Y-104985000D01*
X28985000Y-104985000D02*
X15015000Y-104985000D01*
X15015000Y-104985000D02*
X15015000Y-91015000D01*
X15015000Y-34015000D02*
X28985000Y-34015000D01*
X28985000Y-34015000D02*
X28985000Y-47985000D01*
X28985000Y-47985000D02*
X15015000Y-47985000D01*
X15015000Y-47985000D02*
X15015000Y-34015000D01*
M02*
