G04 #@! TF.FileFunction,Soldermask,Top*
%FSLAX46Y46*%
G04 Gerber Fmt 4.6, Leading zero omitted, Abs format (unit mm)*
G04 Created by KiCad (PCBNEW 4.0.1-stable) date 5/16/2016 11:07:44 PM*
%MOMM*%
G01*
G04 APERTURE LIST*
%ADD10C,0.100000*%
%ADD11R,1.289000X1.797000*%
%ADD12C,2.686000*%
%ADD13C,1.400000*%
%ADD14C,1.800000*%
%ADD15O,1.800000X2.900000*%
%ADD16O,1.499820X2.051000*%
%ADD17O,2.305000X2.559000*%
%ADD18R,2.305000X2.559000*%
%ADD19C,2.900000*%
G04 APERTURE END LIST*
D10*
D11*
X195117500Y-97640000D03*
X197022500Y-97640000D03*
D12*
X224540000Y-83670000D03*
X218190000Y-86210000D03*
X200460000Y-150830000D03*
X206810000Y-148290000D03*
X148540000Y-140670000D03*
X142190000Y-143210000D03*
X190960000Y-150830000D03*
X197310000Y-148290000D03*
X228960000Y-150830000D03*
X235310000Y-148290000D03*
X338540000Y-64670000D03*
X332190000Y-67210000D03*
X338540000Y-102670000D03*
X332190000Y-105210000D03*
X281540000Y-102670000D03*
X275190000Y-105210000D03*
X300540000Y-83670000D03*
X294190000Y-86210000D03*
X338540000Y-121670000D03*
X332190000Y-124210000D03*
X338540000Y-140670000D03*
X332190000Y-143210000D03*
X338540000Y-83670000D03*
X332190000Y-86210000D03*
X300540000Y-102670000D03*
X294190000Y-105210000D03*
X300540000Y-121670000D03*
X294190000Y-124210000D03*
X300540000Y-140670000D03*
X294190000Y-143210000D03*
X319540000Y-83670000D03*
X313190000Y-86210000D03*
X319540000Y-140670000D03*
X313190000Y-143210000D03*
X319540000Y-121670000D03*
X313190000Y-124210000D03*
X319540000Y-64670000D03*
X313190000Y-67210000D03*
X319540000Y-102670000D03*
X313190000Y-105210000D03*
X300540000Y-64670000D03*
X294190000Y-67210000D03*
X186540000Y-102670000D03*
X180190000Y-105210000D03*
X186540000Y-64670000D03*
X180190000Y-67210000D03*
X186540000Y-121670000D03*
X180190000Y-124210000D03*
X186540000Y-140670000D03*
X180190000Y-143210000D03*
X186540000Y-83670000D03*
X180190000Y-86210000D03*
X205540000Y-83670000D03*
X199190000Y-86210000D03*
X205540000Y-121670000D03*
X199190000Y-124210000D03*
X224540000Y-64670000D03*
X218190000Y-67210000D03*
X205540000Y-64670000D03*
X199190000Y-67210000D03*
X205540000Y-102670000D03*
X199190000Y-105210000D03*
X243540000Y-83670000D03*
X237190000Y-86210000D03*
X243540000Y-64670000D03*
X237190000Y-67210000D03*
X262540000Y-83670000D03*
X256190000Y-86210000D03*
X262540000Y-64670000D03*
X256190000Y-67210000D03*
X281540000Y-64670000D03*
X275190000Y-67210000D03*
X281540000Y-121670000D03*
X275190000Y-124210000D03*
X281540000Y-140670000D03*
X275190000Y-143210000D03*
X281540000Y-83670000D03*
X275190000Y-86210000D03*
X224540000Y-102670000D03*
X218190000Y-105210000D03*
X224540000Y-121670000D03*
X218190000Y-124210000D03*
X224540000Y-140670000D03*
X218190000Y-143210000D03*
X262540000Y-140670000D03*
X256190000Y-143210000D03*
X262540000Y-121670000D03*
X256190000Y-124210000D03*
X262540000Y-102670000D03*
X256190000Y-105210000D03*
X243540000Y-102670000D03*
X237190000Y-105210000D03*
X243540000Y-121670000D03*
X237190000Y-124210000D03*
X238460000Y-150830000D03*
X244810000Y-148290000D03*
X129540000Y-140670000D03*
X123190000Y-143210000D03*
X129540000Y-121670000D03*
X123190000Y-124210000D03*
X129540000Y-102670000D03*
X123190000Y-105210000D03*
X148540000Y-102670000D03*
X142190000Y-105210000D03*
X148540000Y-121670000D03*
X142190000Y-124210000D03*
X110540000Y-140670000D03*
X104190000Y-143210000D03*
X110540000Y-121670000D03*
X104190000Y-124210000D03*
X110540000Y-102670000D03*
X104190000Y-105210000D03*
X167540000Y-83670000D03*
X161190000Y-86210000D03*
X167540000Y-140670000D03*
X161190000Y-143210000D03*
X167540000Y-121670000D03*
X161190000Y-124210000D03*
X167540000Y-64670000D03*
X161190000Y-67210000D03*
X167540000Y-102670000D03*
X161190000Y-105210000D03*
X148540000Y-64670000D03*
X142190000Y-67210000D03*
X148540000Y-83670000D03*
X142190000Y-86210000D03*
X129540000Y-64670000D03*
X123190000Y-67210000D03*
X129540000Y-83670000D03*
X123190000Y-86210000D03*
X91540000Y-102670000D03*
X85190000Y-105210000D03*
X110540000Y-83670000D03*
X104190000Y-86210000D03*
X91540000Y-64670000D03*
X85190000Y-67210000D03*
X110540000Y-64670000D03*
X104190000Y-67210000D03*
X91540000Y-121670000D03*
X85190000Y-124210000D03*
X91540000Y-140670000D03*
X85190000Y-143210000D03*
X91540000Y-83670000D03*
X85190000Y-86210000D03*
D13*
X81250000Y-62000000D03*
X343750000Y-62000000D03*
X343750000Y-153500000D03*
X81250000Y-153500000D03*
D14*
X216200780Y-61758020D03*
X216195700Y-62283800D03*
X216200780Y-62763860D03*
D15*
X216200780Y-62260940D03*
D16*
X210899800Y-67551760D03*
X211699900Y-65949020D03*
X212500000Y-67551760D03*
X213300100Y-65949020D03*
X214100200Y-67551760D03*
D15*
X208850020Y-62299040D03*
D14*
X208852560Y-62796880D03*
X208857640Y-62293960D03*
X208852560Y-61796120D03*
D17*
X334730000Y-150830000D03*
D18*
X337270000Y-150830000D03*
D17*
X144730000Y-150840000D03*
D18*
X147270000Y-150840000D03*
D17*
X87730000Y-112830000D03*
D18*
X90270000Y-112830000D03*
D19*
X117500000Y-117240000D03*
X155500000Y-79250000D03*
X269500000Y-136250000D03*
X307500000Y-98250000D03*
M02*
