G04 #@! TF.FileFunction,Soldermask,Top*
%FSLAX46Y46*%
G04 Gerber Fmt 4.6, Leading zero omitted, Abs format (unit mm)*
G04 Created by KiCad (PCBNEW 4.0.1-stable) date 4/2/2017 1:31:36 AM*
%MOMM*%
G01*
G04 APERTURE LIST*
%ADD10C,0.100000*%
%ADD11C,0.150000*%
%ADD12C,4.400000*%
%ADD13C,2.686000*%
%ADD14C,1.300000*%
%ADD15O,2.305000X2.559000*%
%ADD16R,2.305000X2.559000*%
%ADD17C,1.400000*%
G04 APERTURE END LIST*
D10*
D11*
X1250000Y94000000D02*
X263750000Y94000000D01*
X0Y1250000D02*
X0Y92750000D01*
X263750000Y0D02*
X1250000Y0D01*
X265000000Y92750000D02*
X265000000Y1250000D01*
X263750000Y0D02*
G75*
G03X265000000Y1250000I0J1250000D01*
G01*
X265000000Y92750000D02*
G75*
G03X263750000Y94000000I-1250000J0D01*
G01*
X1250000Y94000000D02*
G75*
G03X0Y92750000I0J-1250000D01*
G01*
X0Y1250000D02*
G75*
G03X1250000Y0I1250000J0D01*
G01*
D12*
X37500000Y37510000D03*
X75500000Y75500000D03*
X189500000Y18500000D03*
X227500000Y56500000D03*
D13*
X106465000Y52080000D03*
X100115000Y49540000D03*
X125515000Y52080000D03*
X119165000Y49540000D03*
X87415000Y90180000D03*
X81065000Y87640000D03*
X258865000Y33030000D03*
X252515000Y30490000D03*
X120435000Y80020000D03*
X126785000Y82560000D03*
X139485000Y80020000D03*
X145835000Y82560000D03*
X106465000Y90180000D03*
X100115000Y87640000D03*
X68365000Y90180000D03*
X62015000Y87640000D03*
X49315000Y90180000D03*
X42965000Y87640000D03*
X30265000Y90180000D03*
X23915000Y87640000D03*
X11215000Y90180000D03*
X4865000Y87640000D03*
X125515000Y71130000D03*
X119165000Y68590000D03*
X106465000Y71130000D03*
X100115000Y68590000D03*
X87415000Y71130000D03*
X81065000Y68590000D03*
X68365000Y71130000D03*
X62015000Y68590000D03*
X49315000Y71130000D03*
X42965000Y68590000D03*
X30265000Y71130000D03*
X23915000Y68590000D03*
X11215000Y71130000D03*
X4865000Y68590000D03*
X87415000Y52080000D03*
X81065000Y49540000D03*
X68365000Y52080000D03*
X62015000Y49540000D03*
X49315000Y52080000D03*
X42965000Y49540000D03*
X30265000Y52080000D03*
X23915000Y49540000D03*
X11215000Y52080000D03*
X4865000Y49540000D03*
X125515000Y33030000D03*
X119165000Y30490000D03*
X106465000Y33030000D03*
X100115000Y30490000D03*
X87415000Y33030000D03*
X81065000Y30490000D03*
X68365000Y33030000D03*
X62015000Y30490000D03*
X49315000Y33030000D03*
X42965000Y30490000D03*
X30265000Y33030000D03*
X23915000Y30490000D03*
X11215000Y33030000D03*
X4865000Y30490000D03*
X68365000Y13980000D03*
X62015000Y11440000D03*
X49315000Y13980000D03*
X42965000Y11440000D03*
X30265000Y13980000D03*
X23915000Y11440000D03*
X11215000Y13980000D03*
X4865000Y11440000D03*
X163615000Y90180000D03*
X157265000Y87640000D03*
X182665000Y90180000D03*
X176315000Y87640000D03*
X201715000Y90180000D03*
X195365000Y87640000D03*
X220765000Y90180000D03*
X214415000Y87640000D03*
X239815000Y90180000D03*
X233465000Y87640000D03*
X144565000Y71130000D03*
X138215000Y68590000D03*
X163615000Y71130000D03*
X157265000Y68590000D03*
X182665000Y71130000D03*
X176315000Y68590000D03*
X201715000Y71130000D03*
X195365000Y68590000D03*
X220765000Y71130000D03*
X214415000Y68590000D03*
X239815000Y71130000D03*
X233465000Y68590000D03*
X258865000Y71130000D03*
X252515000Y68590000D03*
X144565000Y52080000D03*
X138215000Y49540000D03*
X163615000Y52080000D03*
X157265000Y49540000D03*
X182665000Y52080000D03*
X176315000Y49540000D03*
X201715000Y52080000D03*
X195365000Y49540000D03*
X220765000Y52080000D03*
X214415000Y49540000D03*
X239815000Y52080000D03*
X233465000Y49540000D03*
X258865000Y52080000D03*
X252515000Y49540000D03*
X144565000Y33030000D03*
X138215000Y30490000D03*
X163615000Y33030000D03*
X157265000Y30490000D03*
X182665000Y33030000D03*
X176315000Y30490000D03*
X201715000Y33030000D03*
X195365000Y30490000D03*
X220765000Y33030000D03*
X214415000Y30490000D03*
X239815000Y33030000D03*
X233465000Y30490000D03*
X182665000Y13980000D03*
X176315000Y11440000D03*
X201715000Y13980000D03*
X195365000Y11440000D03*
X220765000Y13980000D03*
X214415000Y11440000D03*
X239815000Y13980000D03*
X233465000Y11440000D03*
X258865000Y13980000D03*
X252515000Y11440000D03*
X258865000Y90180000D03*
X252515000Y87640000D03*
X87415000Y13980000D03*
X81065000Y11440000D03*
D14*
X130000000Y90300000D03*
X134400000Y90300000D03*
D13*
X149010000Y3970000D03*
X155360000Y6510000D03*
X110910000Y3945000D03*
X117260000Y6485000D03*
D15*
X143295000Y90180000D03*
D16*
X140755000Y90180000D03*
D15*
X124245000Y90180000D03*
D16*
X121705000Y90180000D03*
D15*
X121705000Y60970000D03*
D16*
X124245000Y60970000D03*
D15*
X140755000Y60970000D03*
D16*
X143295000Y60970000D03*
D15*
X159805000Y60970000D03*
D16*
X162345000Y60970000D03*
D15*
X159805000Y80020000D03*
D16*
X162345000Y80020000D03*
D15*
X178855000Y80020000D03*
D16*
X181395000Y80020000D03*
D15*
X178855000Y60970000D03*
D16*
X181395000Y60970000D03*
D15*
X197905000Y60970000D03*
D16*
X200445000Y60970000D03*
D15*
X197905000Y80020000D03*
D16*
X200445000Y80020000D03*
D15*
X216955000Y80020000D03*
D16*
X219495000Y80020000D03*
D15*
X236005000Y80020000D03*
D16*
X238545000Y80020000D03*
D15*
X236005000Y60970000D03*
D16*
X238545000Y60970000D03*
D15*
X216955000Y60970000D03*
D16*
X219495000Y60970000D03*
D15*
X216955000Y41920000D03*
D16*
X219495000Y41920000D03*
D15*
X236005000Y41920000D03*
D16*
X238545000Y41920000D03*
D15*
X255055000Y41920000D03*
D16*
X257595000Y41920000D03*
D15*
X255055000Y22870000D03*
D16*
X257595000Y22870000D03*
D15*
X236005000Y22870000D03*
D16*
X238545000Y22870000D03*
D15*
X236005000Y3820000D03*
D16*
X238545000Y3820000D03*
D15*
X216955000Y3820000D03*
D16*
X219495000Y3820000D03*
D15*
X197905000Y3820000D03*
D16*
X200445000Y3820000D03*
D15*
X178855000Y3820000D03*
D16*
X181395000Y3820000D03*
D15*
X159805000Y22870000D03*
D16*
X162345000Y22870000D03*
D15*
X216955000Y22870000D03*
D16*
X219495000Y22870000D03*
D15*
X197905000Y22870000D03*
D16*
X200445000Y22870000D03*
D15*
X178855000Y22870000D03*
D16*
X181395000Y22870000D03*
D15*
X197905000Y41920000D03*
D16*
X200445000Y41920000D03*
D15*
X178855000Y41920000D03*
D16*
X181395000Y41920000D03*
D15*
X159805000Y41920000D03*
D16*
X162345000Y41920000D03*
D15*
X140755000Y41920000D03*
D16*
X143295000Y41920000D03*
D15*
X121705000Y41920000D03*
D16*
X124245000Y41920000D03*
D15*
X102655000Y22870000D03*
D16*
X105195000Y22870000D03*
D15*
X121705000Y22870000D03*
D16*
X124245000Y22870000D03*
D15*
X140755000Y22870000D03*
D16*
X143295000Y22870000D03*
D15*
X152820000Y14130000D03*
D16*
X150280000Y14130000D03*
D15*
X114720000Y14105000D03*
D16*
X112180000Y14105000D03*
D15*
X83605000Y3820000D03*
D16*
X86145000Y3820000D03*
D15*
X7405000Y3820000D03*
D16*
X9945000Y3820000D03*
D15*
X26455000Y3820000D03*
D16*
X28995000Y3820000D03*
D15*
X45505000Y3820000D03*
D16*
X48045000Y3820000D03*
D15*
X83605000Y22870000D03*
D16*
X86145000Y22870000D03*
D15*
X64555000Y22870000D03*
D16*
X67095000Y22870000D03*
D15*
X45505000Y22870000D03*
D16*
X48045000Y22870000D03*
D15*
X26455000Y22870000D03*
D16*
X28995000Y22870000D03*
D15*
X7405000Y22870000D03*
D16*
X9945000Y22870000D03*
D15*
X45505000Y60970000D03*
D16*
X48045000Y60970000D03*
D15*
X45505000Y41920000D03*
D16*
X48045000Y41920000D03*
D15*
X102655000Y41920000D03*
D16*
X105195000Y41920000D03*
D15*
X83605000Y41920000D03*
D16*
X86145000Y41920000D03*
D15*
X64555000Y41920000D03*
D16*
X67095000Y41920000D03*
D15*
X64555000Y60970000D03*
D16*
X67095000Y60970000D03*
D15*
X83605000Y60970000D03*
D16*
X86145000Y60970000D03*
D15*
X102655000Y60970000D03*
D16*
X105195000Y60970000D03*
D15*
X102655000Y80020000D03*
D16*
X105195000Y80020000D03*
D15*
X83605000Y80020000D03*
D16*
X86145000Y80020000D03*
D15*
X64555000Y80020000D03*
D16*
X67095000Y80020000D03*
D15*
X45505000Y80020000D03*
D16*
X48045000Y80020000D03*
D15*
X26455000Y80020000D03*
D16*
X28995000Y80020000D03*
D15*
X26455000Y60970000D03*
D16*
X28995000Y60970000D03*
D15*
X26455000Y41920000D03*
D16*
X28995000Y41920000D03*
D15*
X255055000Y60970000D03*
D16*
X257595000Y60970000D03*
D15*
X255055000Y80020000D03*
D16*
X257595000Y80020000D03*
D15*
X7405000Y80020000D03*
D16*
X9945000Y80020000D03*
D15*
X7405000Y60970000D03*
D16*
X9945000Y60970000D03*
D15*
X255055000Y3820000D03*
D16*
X257595000Y3820000D03*
D15*
X64555000Y3820000D03*
D16*
X67095000Y3820000D03*
D15*
X7405000Y41920000D03*
D16*
X9945000Y41920000D03*
D17*
X1250000Y1250000D03*
X263750000Y1250000D03*
X1250000Y92750000D03*
X263750000Y92750000D03*
M02*
