G04 #@! TF.FileFunction,Soldermask,Top*
%FSLAX46Y46*%
G04 Gerber Fmt 4.6, Leading zero omitted, Abs format (unit mm)*
G04 Created by KiCad (PCBNEW 4.0.1-stable) date 4/18/2016 2:15:21 AM*
%MOMM*%
G01*
G04 APERTURE LIST*
%ADD10C,0.100000*%
%ADD11C,2.686000*%
%ADD12C,2.099260*%
%ADD13R,2.099260X2.099260*%
%ADD14C,2.305000*%
%ADD15R,2.305000X2.305000*%
%ADD16C,1.299160*%
G04 APERTURE END LIST*
D10*
D11*
X214540000Y-54920000D03*
X208190000Y-57460000D03*
D12*
X165997460Y-84160520D03*
D13*
X165997460Y-74000520D03*
D12*
X146997460Y-84160520D03*
D13*
X146997460Y-74000520D03*
D12*
X144497460Y-84160520D03*
D13*
X144497460Y-74000520D03*
D12*
X125497460Y-84160520D03*
D13*
X125497460Y-74000520D03*
D12*
X106497460Y-84660520D03*
D13*
X106497460Y-74500520D03*
D12*
X87497460Y-84160520D03*
D13*
X87497460Y-74000520D03*
D12*
X67997460Y-84660520D03*
D13*
X67997460Y-74500520D03*
D12*
X49497460Y-84660520D03*
D13*
X49497460Y-74500520D03*
D12*
X30497460Y-84160520D03*
D13*
X30497460Y-74000520D03*
D12*
X30497460Y-103160520D03*
D13*
X30497460Y-93000520D03*
D12*
X49497460Y-103160520D03*
D13*
X49497460Y-93000520D03*
D12*
X68497460Y-103160520D03*
D13*
X68497460Y-93000520D03*
D12*
X86997460Y-103160520D03*
D13*
X86997460Y-93000520D03*
D12*
X105997460Y-103160520D03*
D13*
X105997460Y-93000520D03*
D12*
X108497460Y-103160520D03*
D13*
X108497460Y-93000520D03*
D12*
X143997460Y-103160520D03*
D13*
X143997460Y-93000520D03*
D12*
X146997460Y-103160520D03*
D13*
X146997460Y-93000520D03*
D12*
X181997460Y-103660520D03*
D13*
X181997460Y-93500520D03*
D12*
X184997460Y-103660520D03*
D13*
X184997460Y-93500520D03*
D12*
X184997460Y-84160520D03*
D13*
X184997460Y-74000520D03*
D12*
X222997460Y-84160520D03*
D13*
X222997460Y-74000520D03*
D12*
X203497460Y-84160520D03*
D13*
X203497460Y-74000520D03*
D12*
X203997460Y-103660520D03*
D13*
X203997460Y-93500520D03*
D12*
X222997460Y-103660520D03*
D13*
X222997460Y-93500520D03*
D12*
X260997460Y-103660520D03*
D13*
X260997460Y-93500520D03*
D12*
X241997460Y-103660520D03*
D13*
X241997460Y-93500520D03*
D12*
X241997460Y-84660520D03*
D13*
X241997460Y-74500520D03*
D12*
X260997460Y-84660520D03*
D13*
X260997460Y-74500520D03*
D12*
X260997460Y-64660520D03*
D13*
X260997460Y-54500520D03*
D12*
X241997460Y-64660520D03*
D13*
X241997460Y-54500520D03*
D12*
X222997460Y-65160520D03*
D13*
X222997460Y-55000520D03*
D12*
X203997460Y-64660520D03*
D13*
X203997460Y-54500520D03*
D12*
X184997460Y-67660520D03*
D13*
X184997460Y-57500520D03*
D12*
X165997460Y-64660520D03*
D13*
X165997460Y-54500520D03*
D12*
X162160520Y-68002540D03*
D13*
X152000520Y-68002540D03*
D12*
X130839480Y-67997460D03*
D13*
X140999480Y-67997460D03*
D12*
X125497460Y-65160520D03*
D13*
X125497460Y-55000520D03*
D12*
X105997460Y-65160520D03*
D13*
X105997460Y-55000520D03*
D12*
X86997460Y-65160520D03*
D13*
X86997460Y-55000520D03*
D12*
X67997460Y-65160520D03*
D13*
X67997460Y-55000520D03*
D12*
X49497460Y-65160520D03*
D13*
X49497460Y-55000520D03*
D12*
X30497460Y-65660520D03*
D13*
X30497460Y-55500520D03*
D12*
X30172460Y-46035520D03*
D13*
X30172460Y-35875520D03*
D12*
X49222460Y-46035520D03*
D13*
X49222460Y-35875520D03*
D12*
X68222460Y-46035520D03*
D13*
X68222460Y-35875520D03*
D12*
X86997460Y-45985520D03*
D13*
X86997460Y-35825520D03*
D12*
X106222460Y-45935520D03*
D13*
X106222460Y-35775520D03*
D12*
X125172460Y-45985520D03*
D13*
X125172460Y-35825520D03*
D12*
X127897460Y-45985520D03*
D13*
X127897460Y-35825520D03*
D12*
X163222460Y-45985520D03*
D13*
X163222460Y-35825520D03*
D12*
X165897460Y-46035520D03*
D13*
X165897460Y-35875520D03*
D12*
X184997460Y-41160520D03*
D13*
X184997460Y-31000520D03*
D12*
X203897460Y-45985520D03*
D13*
X203897460Y-35825520D03*
D12*
X222897460Y-46035520D03*
D13*
X222897460Y-35875520D03*
D12*
X241897460Y-46035520D03*
D13*
X241897460Y-35875520D03*
D12*
X260997460Y-46210520D03*
D13*
X260997460Y-36050520D03*
D12*
X260972460Y-27010520D03*
D13*
X260972460Y-16850520D03*
D12*
X241997460Y-27010520D03*
D13*
X241997460Y-16850520D03*
D12*
X222997460Y-26935520D03*
D13*
X222997460Y-16775520D03*
D12*
X203872460Y-26935520D03*
D13*
X203872460Y-16775520D03*
D12*
X185022460Y-26960520D03*
D13*
X185022460Y-16800520D03*
D12*
X165997460Y-26935520D03*
D13*
X165997460Y-16775520D03*
D12*
X163247460Y-26935520D03*
D13*
X163247460Y-16775520D03*
D12*
X128022460Y-27060520D03*
D13*
X128022460Y-16900520D03*
D12*
X125472460Y-27035520D03*
D13*
X125472460Y-16875520D03*
D12*
X106497460Y-27085520D03*
D13*
X106497460Y-16925520D03*
D12*
X87497460Y-27035520D03*
D13*
X87497460Y-16875520D03*
D12*
X67972460Y-27085520D03*
D13*
X67972460Y-16925520D03*
D12*
X49247460Y-27085520D03*
D13*
X49247460Y-16925520D03*
D14*
X267730000Y-103080000D03*
D15*
X270270000Y-103080000D03*
D11*
X233540000Y-35920000D03*
X227190000Y-38460000D03*
X271540000Y-54920000D03*
X265190000Y-57460000D03*
X271540000Y-16920000D03*
X265190000Y-19460000D03*
X271540000Y-73920000D03*
X265190000Y-76460000D03*
X271540000Y-92920000D03*
X265190000Y-95460000D03*
X271540000Y-35920000D03*
X265190000Y-38460000D03*
X233540000Y-54920000D03*
X227190000Y-57460000D03*
X233540000Y-73920000D03*
X227190000Y-76460000D03*
X233540000Y-92920000D03*
X227190000Y-95460000D03*
X252540000Y-35920000D03*
X246190000Y-38460000D03*
X252540000Y-92920000D03*
X246190000Y-95460000D03*
X252540000Y-73920000D03*
X246190000Y-76460000D03*
X252540000Y-16920000D03*
X246190000Y-19460000D03*
X252540000Y-54920000D03*
X246190000Y-57460000D03*
X233540000Y-16920000D03*
X227190000Y-19460000D03*
X119540000Y-54920000D03*
X113190000Y-57460000D03*
X119540000Y-16920000D03*
X113190000Y-19460000D03*
X119540000Y-73920000D03*
X113190000Y-76460000D03*
X122080000Y-100540000D03*
X119540000Y-94190000D03*
X119540000Y-35920000D03*
X113190000Y-38460000D03*
X138540000Y-35920000D03*
X132190000Y-38460000D03*
X138540000Y-92920000D03*
X132190000Y-95460000D03*
X138540000Y-73920000D03*
X132190000Y-76460000D03*
X157540000Y-16920000D03*
X151190000Y-19460000D03*
X138540000Y-16920000D03*
X132190000Y-19460000D03*
X157540000Y-35920000D03*
X151190000Y-38460000D03*
X138540000Y-54920000D03*
X132190000Y-57460000D03*
X176540000Y-35920000D03*
X170190000Y-38460000D03*
X176540000Y-16920000D03*
X170190000Y-19460000D03*
X195540000Y-35920000D03*
X189190000Y-38460000D03*
X195540000Y-16920000D03*
X189190000Y-19460000D03*
X214540000Y-16920000D03*
X208190000Y-19460000D03*
X214540000Y-73920000D03*
X208190000Y-76460000D03*
X214540000Y-92920000D03*
X208190000Y-95460000D03*
X214540000Y-35920000D03*
X208190000Y-38460000D03*
X157540000Y-54920000D03*
X151190000Y-57460000D03*
X157540000Y-73920000D03*
X151190000Y-76460000D03*
X157540000Y-92920000D03*
X151190000Y-95460000D03*
X195540000Y-92920000D03*
X189190000Y-95460000D03*
X195540000Y-73920000D03*
X189190000Y-76460000D03*
X195540000Y-54920000D03*
X189190000Y-57460000D03*
X176540000Y-54920000D03*
X170190000Y-57460000D03*
X176540000Y-73920000D03*
X170190000Y-76460000D03*
X168920000Y-95460000D03*
X171460000Y-101810000D03*
X62540000Y-92920000D03*
X56190000Y-95460000D03*
X62540000Y-73920000D03*
X56190000Y-76460000D03*
X62540000Y-54920000D03*
X56190000Y-57460000D03*
X81540000Y-54920000D03*
X75190000Y-57460000D03*
X81540000Y-73920000D03*
X75190000Y-76460000D03*
X81540000Y-92920000D03*
X75190000Y-95460000D03*
X43540000Y-92920000D03*
X37190000Y-95460000D03*
X43540000Y-73920000D03*
X37190000Y-76460000D03*
X43540000Y-54920000D03*
X37190000Y-57460000D03*
X100540000Y-35920000D03*
X94190000Y-38460000D03*
X100540000Y-92920000D03*
X94190000Y-95460000D03*
X100540000Y-73920000D03*
X94190000Y-76460000D03*
X100540000Y-16920000D03*
X94190000Y-19460000D03*
X100540000Y-54920000D03*
X94190000Y-57460000D03*
X81540000Y-16920000D03*
X75190000Y-19460000D03*
X81540000Y-35920000D03*
X75190000Y-38460000D03*
X62540000Y-16920000D03*
X56190000Y-19460000D03*
X62540000Y-35920000D03*
X56190000Y-38460000D03*
X24540000Y-54920000D03*
X18190000Y-57460000D03*
X43540000Y-35920000D03*
X37190000Y-38460000D03*
X24540000Y-16920000D03*
X18190000Y-19460000D03*
X43540000Y-16920000D03*
X37190000Y-19460000D03*
X24540000Y-73920000D03*
X18190000Y-76460000D03*
X24540000Y-92920000D03*
X18190000Y-95460000D03*
X24540000Y-35920000D03*
X18190000Y-38460000D03*
D14*
X77730000Y-103080000D03*
D15*
X80270000Y-103080000D03*
D16*
X143800360Y-11850900D03*
X148199640Y-11850900D03*
D12*
X30322460Y-27085520D03*
D13*
X30322460Y-16925520D03*
M02*
