G04 #@! TF.FileFunction,Other,Fab,Bot*
%FSLAX46Y46*%
G04 Gerber Fmt 4.6, Leading zero omitted, Abs format (unit mm)*
G04 Created by KiCad (PCBNEW 4.0.1-stable) date 4/18/2016 2:15:21 AM*
%MOMM*%
G01*
G04 APERTURE LIST*
%ADD10C,0.100000*%
%ADD11C,0.150000*%
G04 APERTURE END LIST*
D10*
D11*
X143095238Y-67052381D02*
X143666667Y-67052381D01*
X143380953Y-67052381D02*
X143380953Y-66052381D01*
X143476191Y-66195238D01*
X143571429Y-66290476D01*
X143666667Y-66338095D01*
X142238095Y-66385714D02*
X142238095Y-67052381D01*
X142666667Y-66385714D02*
X142666667Y-66909524D01*
X142619048Y-67004762D01*
X142523810Y-67052381D01*
X142380952Y-67052381D01*
X142285714Y-67004762D01*
X142238095Y-66957143D01*
X141428571Y-66528571D02*
X141761905Y-66528571D01*
X141761905Y-67052381D02*
X141761905Y-66052381D01*
X141285714Y-66052381D01*
X140595238Y-27552381D02*
X141166667Y-27552381D01*
X140880953Y-27552381D02*
X140880953Y-26552381D01*
X140976191Y-26695238D01*
X141071429Y-26790476D01*
X141166667Y-26838095D01*
X139738095Y-26885714D02*
X139738095Y-27552381D01*
X140166667Y-26885714D02*
X140166667Y-27409524D01*
X140119048Y-27504762D01*
X140023810Y-27552381D01*
X139880952Y-27552381D01*
X139785714Y-27504762D01*
X139738095Y-27457143D01*
X138928571Y-27028571D02*
X139261905Y-27028571D01*
X139261905Y-27552381D02*
X139261905Y-26552381D01*
X138785714Y-26552381D01*
X162052381Y-54357143D02*
X162052381Y-54452382D01*
X162100000Y-54547620D01*
X162147619Y-54595239D01*
X162242857Y-54642858D01*
X162433333Y-54690477D01*
X162671429Y-54690477D01*
X162861905Y-54642858D01*
X162957143Y-54595239D01*
X163004762Y-54547620D01*
X163052381Y-54452382D01*
X163052381Y-54357143D01*
X163004762Y-54261905D01*
X162957143Y-54214286D01*
X162861905Y-54166667D01*
X162671429Y-54119048D01*
X162433333Y-54119048D01*
X162242857Y-54166667D01*
X162147619Y-54214286D01*
X162100000Y-54261905D01*
X162052381Y-54357143D01*
X162957143Y-55119048D02*
X163004762Y-55166667D01*
X163052381Y-55119048D01*
X163004762Y-55071429D01*
X162957143Y-55119048D01*
X163052381Y-55119048D01*
X163052381Y-56119048D02*
X163052381Y-55547619D01*
X163052381Y-55833333D02*
X162052381Y-55833333D01*
X162195238Y-55738095D01*
X162290476Y-55642857D01*
X162338095Y-55547619D01*
X162385714Y-56976191D02*
X163052381Y-56976191D01*
X162385714Y-56547619D02*
X162909524Y-56547619D01*
X163004762Y-56595238D01*
X163052381Y-56690476D01*
X163052381Y-56833334D01*
X163004762Y-56928572D01*
X162957143Y-56976191D01*
X162528571Y-57785715D02*
X162528571Y-57452381D01*
X163052381Y-57452381D02*
X162052381Y-57452381D01*
X162052381Y-57928572D01*
X143095238Y-65052381D02*
X143666667Y-65052381D01*
X143380953Y-65052381D02*
X143380953Y-64052381D01*
X143476191Y-64195238D01*
X143571429Y-64290476D01*
X143666667Y-64338095D01*
X142238095Y-64385714D02*
X142238095Y-65052381D01*
X142666667Y-64385714D02*
X142666667Y-64909524D01*
X142619048Y-65004762D01*
X142523810Y-65052381D01*
X142380952Y-65052381D01*
X142285714Y-65004762D01*
X142238095Y-64957143D01*
X141428571Y-64528571D02*
X141761905Y-64528571D01*
X141761905Y-65052381D02*
X141761905Y-64052381D01*
X141285714Y-64052381D01*
X141642857Y-28552381D02*
X141547618Y-28552381D01*
X141452380Y-28600000D01*
X141404761Y-28647619D01*
X141357142Y-28742857D01*
X141309523Y-28933333D01*
X141309523Y-29171429D01*
X141357142Y-29361905D01*
X141404761Y-29457143D01*
X141452380Y-29504762D01*
X141547618Y-29552381D01*
X141642857Y-29552381D01*
X141738095Y-29504762D01*
X141785714Y-29457143D01*
X141833333Y-29361905D01*
X141880952Y-29171429D01*
X141880952Y-28933333D01*
X141833333Y-28742857D01*
X141785714Y-28647619D01*
X141738095Y-28600000D01*
X141642857Y-28552381D01*
X140880952Y-29457143D02*
X140833333Y-29504762D01*
X140880952Y-29552381D01*
X140928571Y-29504762D01*
X140880952Y-29457143D01*
X140880952Y-29552381D01*
X139880952Y-29552381D02*
X140452381Y-29552381D01*
X140166667Y-29552381D02*
X140166667Y-28552381D01*
X140261905Y-28695238D01*
X140357143Y-28790476D01*
X140452381Y-28838095D01*
X139023809Y-28885714D02*
X139023809Y-29552381D01*
X139452381Y-28885714D02*
X139452381Y-29409524D01*
X139404762Y-29504762D01*
X139309524Y-29552381D01*
X139166666Y-29552381D01*
X139071428Y-29504762D01*
X139023809Y-29457143D01*
X138214285Y-29028571D02*
X138547619Y-29028571D01*
X138547619Y-29552381D02*
X138547619Y-28552381D01*
X138071428Y-28552381D01*
X120071428Y-50852381D02*
X120642857Y-50852381D01*
X120357143Y-50852381D02*
X120357143Y-49852381D01*
X120452381Y-49995238D01*
X120547619Y-50090476D01*
X120642857Y-50138095D01*
X119452381Y-49852381D02*
X119357142Y-49852381D01*
X119261904Y-49900000D01*
X119214285Y-49947619D01*
X119166666Y-50042857D01*
X119119047Y-50233333D01*
X119119047Y-50471429D01*
X119166666Y-50661905D01*
X119214285Y-50757143D01*
X119261904Y-50804762D01*
X119357142Y-50852381D01*
X119452381Y-50852381D01*
X119547619Y-50804762D01*
X119595238Y-50757143D01*
X119642857Y-50661905D01*
X119690476Y-50471429D01*
X119690476Y-50233333D01*
X119642857Y-50042857D01*
X119595238Y-49947619D01*
X119547619Y-49900000D01*
X119452381Y-49852381D01*
X118690476Y-50185714D02*
X118690476Y-51185714D01*
X118690476Y-50233333D02*
X118595238Y-50185714D01*
X118404761Y-50185714D01*
X118309523Y-50233333D01*
X118261904Y-50280952D01*
X118214285Y-50376190D01*
X118214285Y-50661905D01*
X118261904Y-50757143D01*
X118309523Y-50804762D01*
X118404761Y-50852381D01*
X118595238Y-50852381D01*
X118690476Y-50804762D01*
X117452380Y-50328571D02*
X117785714Y-50328571D01*
X117785714Y-50852381D02*
X117785714Y-49852381D01*
X117309523Y-49852381D01*
X120071428Y-48852381D02*
X120642857Y-48852381D01*
X120357143Y-48852381D02*
X120357143Y-47852381D01*
X120452381Y-47995238D01*
X120547619Y-48090476D01*
X120642857Y-48138095D01*
X119452381Y-47852381D02*
X119357142Y-47852381D01*
X119261904Y-47900000D01*
X119214285Y-47947619D01*
X119166666Y-48042857D01*
X119119047Y-48233333D01*
X119119047Y-48471429D01*
X119166666Y-48661905D01*
X119214285Y-48757143D01*
X119261904Y-48804762D01*
X119357142Y-48852381D01*
X119452381Y-48852381D01*
X119547619Y-48804762D01*
X119595238Y-48757143D01*
X119642857Y-48661905D01*
X119690476Y-48471429D01*
X119690476Y-48233333D01*
X119642857Y-48042857D01*
X119595238Y-47947619D01*
X119547619Y-47900000D01*
X119452381Y-47852381D01*
X118690476Y-48185714D02*
X118690476Y-49185714D01*
X118690476Y-48233333D02*
X118595238Y-48185714D01*
X118404761Y-48185714D01*
X118309523Y-48233333D01*
X118261904Y-48280952D01*
X118214285Y-48376190D01*
X118214285Y-48661905D01*
X118261904Y-48757143D01*
X118309523Y-48804762D01*
X118404761Y-48852381D01*
X118595238Y-48852381D01*
X118690476Y-48804762D01*
X117452380Y-48328571D02*
X117785714Y-48328571D01*
X117785714Y-48852381D02*
X117785714Y-47852381D01*
X117309523Y-47852381D01*
X155119047Y-47052381D02*
X155690476Y-47052381D01*
X155404762Y-47052381D02*
X155404762Y-46052381D01*
X155500000Y-46195238D01*
X155595238Y-46290476D01*
X155690476Y-46338095D01*
X154690476Y-47052381D02*
X154690476Y-46052381D01*
X154595238Y-46671429D02*
X154309523Y-47052381D01*
X154309523Y-46385714D02*
X154690476Y-46766667D01*
X86052381Y-99261905D02*
X85576190Y-98928571D01*
X86052381Y-98690476D02*
X85052381Y-98690476D01*
X85052381Y-99071429D01*
X85100000Y-99166667D01*
X85147619Y-99214286D01*
X85242857Y-99261905D01*
X85385714Y-99261905D01*
X85480952Y-99214286D01*
X85528571Y-99166667D01*
X85576190Y-99071429D01*
X85576190Y-98690476D01*
X85528571Y-99690476D02*
X85528571Y-100023810D01*
X86052381Y-100166667D02*
X86052381Y-99690476D01*
X85052381Y-99690476D01*
X85052381Y-100166667D01*
X86004762Y-100547619D02*
X86052381Y-100690476D01*
X86052381Y-100928572D01*
X86004762Y-101023810D01*
X85957143Y-101071429D01*
X85861905Y-101119048D01*
X85766667Y-101119048D01*
X85671429Y-101071429D01*
X85623810Y-101023810D01*
X85576190Y-100928572D01*
X85528571Y-100738095D01*
X85480952Y-100642857D01*
X85433333Y-100595238D01*
X85338095Y-100547619D01*
X85242857Y-100547619D01*
X85147619Y-100595238D01*
X85100000Y-100642857D01*
X85052381Y-100738095D01*
X85052381Y-100976191D01*
X85100000Y-101119048D01*
X86052381Y-101547619D02*
X85052381Y-101547619D01*
X86004762Y-101976190D02*
X86052381Y-102119047D01*
X86052381Y-102357143D01*
X86004762Y-102452381D01*
X85957143Y-102500000D01*
X85861905Y-102547619D01*
X85766667Y-102547619D01*
X85671429Y-102500000D01*
X85623810Y-102452381D01*
X85576190Y-102357143D01*
X85528571Y-102166666D01*
X85480952Y-102071428D01*
X85433333Y-102023809D01*
X85338095Y-101976190D01*
X85242857Y-101976190D01*
X85147619Y-102023809D01*
X85100000Y-102071428D01*
X85052381Y-102166666D01*
X85052381Y-102404762D01*
X85100000Y-102547619D01*
X85052381Y-102833333D02*
X85052381Y-103404762D01*
X86052381Y-103119047D02*
X85052381Y-103119047D01*
X85052381Y-103928571D02*
X85052381Y-104119048D01*
X85100000Y-104214286D01*
X85195238Y-104309524D01*
X85385714Y-104357143D01*
X85719048Y-104357143D01*
X85909524Y-104309524D01*
X86004762Y-104214286D01*
X86052381Y-104119048D01*
X86052381Y-103928571D01*
X86004762Y-103833333D01*
X85909524Y-103738095D01*
X85719048Y-103690476D01*
X85385714Y-103690476D01*
X85195238Y-103738095D01*
X85100000Y-103833333D01*
X85052381Y-103928571D01*
X86052381Y-105357143D02*
X85576190Y-105023809D01*
X86052381Y-104785714D02*
X85052381Y-104785714D01*
X85052381Y-105166667D01*
X85100000Y-105261905D01*
X85147619Y-105309524D01*
X85242857Y-105357143D01*
X85385714Y-105357143D01*
X85480952Y-105309524D01*
X85528571Y-105261905D01*
X85576190Y-105166667D01*
X85576190Y-104785714D01*
X275552381Y-99261905D02*
X275076190Y-98928571D01*
X275552381Y-98690476D02*
X274552381Y-98690476D01*
X274552381Y-99071429D01*
X274600000Y-99166667D01*
X274647619Y-99214286D01*
X274742857Y-99261905D01*
X274885714Y-99261905D01*
X274980952Y-99214286D01*
X275028571Y-99166667D01*
X275076190Y-99071429D01*
X275076190Y-98690476D01*
X275028571Y-99690476D02*
X275028571Y-100023810D01*
X275552381Y-100166667D02*
X275552381Y-99690476D01*
X274552381Y-99690476D01*
X274552381Y-100166667D01*
X275504762Y-100547619D02*
X275552381Y-100690476D01*
X275552381Y-100928572D01*
X275504762Y-101023810D01*
X275457143Y-101071429D01*
X275361905Y-101119048D01*
X275266667Y-101119048D01*
X275171429Y-101071429D01*
X275123810Y-101023810D01*
X275076190Y-100928572D01*
X275028571Y-100738095D01*
X274980952Y-100642857D01*
X274933333Y-100595238D01*
X274838095Y-100547619D01*
X274742857Y-100547619D01*
X274647619Y-100595238D01*
X274600000Y-100642857D01*
X274552381Y-100738095D01*
X274552381Y-100976191D01*
X274600000Y-101119048D01*
X275552381Y-101547619D02*
X274552381Y-101547619D01*
X275504762Y-101976190D02*
X275552381Y-102119047D01*
X275552381Y-102357143D01*
X275504762Y-102452381D01*
X275457143Y-102500000D01*
X275361905Y-102547619D01*
X275266667Y-102547619D01*
X275171429Y-102500000D01*
X275123810Y-102452381D01*
X275076190Y-102357143D01*
X275028571Y-102166666D01*
X274980952Y-102071428D01*
X274933333Y-102023809D01*
X274838095Y-101976190D01*
X274742857Y-101976190D01*
X274647619Y-102023809D01*
X274600000Y-102071428D01*
X274552381Y-102166666D01*
X274552381Y-102404762D01*
X274600000Y-102547619D01*
X274552381Y-102833333D02*
X274552381Y-103404762D01*
X275552381Y-103119047D02*
X274552381Y-103119047D01*
X274552381Y-103928571D02*
X274552381Y-104119048D01*
X274600000Y-104214286D01*
X274695238Y-104309524D01*
X274885714Y-104357143D01*
X275219048Y-104357143D01*
X275409524Y-104309524D01*
X275504762Y-104214286D01*
X275552381Y-104119048D01*
X275552381Y-103928571D01*
X275504762Y-103833333D01*
X275409524Y-103738095D01*
X275219048Y-103690476D01*
X274885714Y-103690476D01*
X274695238Y-103738095D01*
X274600000Y-103833333D01*
X274552381Y-103928571D01*
X275552381Y-105357143D02*
X275076190Y-105023809D01*
X275552381Y-104785714D02*
X274552381Y-104785714D01*
X274552381Y-105166667D01*
X274600000Y-105261905D01*
X274647619Y-105309524D01*
X274742857Y-105357143D01*
X274885714Y-105357143D01*
X274980952Y-105309524D01*
X275028571Y-105261905D01*
X275076190Y-105166667D01*
X275076190Y-104785714D01*
X162893841Y-76438330D02*
X161893841Y-76438330D01*
X161893841Y-76676425D01*
X161941460Y-76819283D01*
X162036698Y-76914521D01*
X162131936Y-76962140D01*
X162322412Y-77009759D01*
X162465270Y-77009759D01*
X162655746Y-76962140D01*
X162750984Y-76914521D01*
X162846222Y-76819283D01*
X162893841Y-76676425D01*
X162893841Y-76438330D01*
X162893841Y-77438330D02*
X161893841Y-77438330D01*
X161893841Y-78104996D02*
X161893841Y-78295473D01*
X161941460Y-78390711D01*
X162036698Y-78485949D01*
X162227174Y-78533568D01*
X162560508Y-78533568D01*
X162750984Y-78485949D01*
X162846222Y-78390711D01*
X162893841Y-78295473D01*
X162893841Y-78104996D01*
X162846222Y-78009758D01*
X162750984Y-77914520D01*
X162560508Y-77866901D01*
X162227174Y-77866901D01*
X162036698Y-77914520D01*
X161941460Y-78009758D01*
X161893841Y-78104996D01*
X162893841Y-78962139D02*
X161893841Y-78962139D01*
X161893841Y-79200234D01*
X161941460Y-79343092D01*
X162036698Y-79438330D01*
X162131936Y-79485949D01*
X162322412Y-79533568D01*
X162465270Y-79533568D01*
X162655746Y-79485949D01*
X162750984Y-79438330D01*
X162846222Y-79343092D01*
X162893841Y-79200234D01*
X162893841Y-78962139D01*
X162370031Y-79962139D02*
X162370031Y-80295473D01*
X162893841Y-80438330D02*
X162893841Y-79962139D01*
X161893841Y-79962139D01*
X161893841Y-80438330D01*
X143893841Y-76438330D02*
X142893841Y-76438330D01*
X142893841Y-76676425D01*
X142941460Y-76819283D01*
X143036698Y-76914521D01*
X143131936Y-76962140D01*
X143322412Y-77009759D01*
X143465270Y-77009759D01*
X143655746Y-76962140D01*
X143750984Y-76914521D01*
X143846222Y-76819283D01*
X143893841Y-76676425D01*
X143893841Y-76438330D01*
X143893841Y-77438330D02*
X142893841Y-77438330D01*
X142893841Y-78104996D02*
X142893841Y-78295473D01*
X142941460Y-78390711D01*
X143036698Y-78485949D01*
X143227174Y-78533568D01*
X143560508Y-78533568D01*
X143750984Y-78485949D01*
X143846222Y-78390711D01*
X143893841Y-78295473D01*
X143893841Y-78104996D01*
X143846222Y-78009758D01*
X143750984Y-77914520D01*
X143560508Y-77866901D01*
X143227174Y-77866901D01*
X143036698Y-77914520D01*
X142941460Y-78009758D01*
X142893841Y-78104996D01*
X143893841Y-78962139D02*
X142893841Y-78962139D01*
X142893841Y-79200234D01*
X142941460Y-79343092D01*
X143036698Y-79438330D01*
X143131936Y-79485949D01*
X143322412Y-79533568D01*
X143465270Y-79533568D01*
X143655746Y-79485949D01*
X143750984Y-79438330D01*
X143846222Y-79343092D01*
X143893841Y-79200234D01*
X143893841Y-78962139D01*
X143370031Y-79962139D02*
X143370031Y-80295473D01*
X143893841Y-80438330D02*
X143893841Y-79962139D01*
X142893841Y-79962139D01*
X142893841Y-80438330D01*
X141393841Y-76438330D02*
X140393841Y-76438330D01*
X140393841Y-76676425D01*
X140441460Y-76819283D01*
X140536698Y-76914521D01*
X140631936Y-76962140D01*
X140822412Y-77009759D01*
X140965270Y-77009759D01*
X141155746Y-76962140D01*
X141250984Y-76914521D01*
X141346222Y-76819283D01*
X141393841Y-76676425D01*
X141393841Y-76438330D01*
X141393841Y-77438330D02*
X140393841Y-77438330D01*
X140393841Y-78104996D02*
X140393841Y-78295473D01*
X140441460Y-78390711D01*
X140536698Y-78485949D01*
X140727174Y-78533568D01*
X141060508Y-78533568D01*
X141250984Y-78485949D01*
X141346222Y-78390711D01*
X141393841Y-78295473D01*
X141393841Y-78104996D01*
X141346222Y-78009758D01*
X141250984Y-77914520D01*
X141060508Y-77866901D01*
X140727174Y-77866901D01*
X140536698Y-77914520D01*
X140441460Y-78009758D01*
X140393841Y-78104996D01*
X141393841Y-78962139D02*
X140393841Y-78962139D01*
X140393841Y-79200234D01*
X140441460Y-79343092D01*
X140536698Y-79438330D01*
X140631936Y-79485949D01*
X140822412Y-79533568D01*
X140965270Y-79533568D01*
X141155746Y-79485949D01*
X141250984Y-79438330D01*
X141346222Y-79343092D01*
X141393841Y-79200234D01*
X141393841Y-78962139D01*
X140870031Y-79962139D02*
X140870031Y-80295473D01*
X141393841Y-80438330D02*
X141393841Y-79962139D01*
X140393841Y-79962139D01*
X140393841Y-80438330D01*
X122393841Y-76438330D02*
X121393841Y-76438330D01*
X121393841Y-76676425D01*
X121441460Y-76819283D01*
X121536698Y-76914521D01*
X121631936Y-76962140D01*
X121822412Y-77009759D01*
X121965270Y-77009759D01*
X122155746Y-76962140D01*
X122250984Y-76914521D01*
X122346222Y-76819283D01*
X122393841Y-76676425D01*
X122393841Y-76438330D01*
X122393841Y-77438330D02*
X121393841Y-77438330D01*
X121393841Y-78104996D02*
X121393841Y-78295473D01*
X121441460Y-78390711D01*
X121536698Y-78485949D01*
X121727174Y-78533568D01*
X122060508Y-78533568D01*
X122250984Y-78485949D01*
X122346222Y-78390711D01*
X122393841Y-78295473D01*
X122393841Y-78104996D01*
X122346222Y-78009758D01*
X122250984Y-77914520D01*
X122060508Y-77866901D01*
X121727174Y-77866901D01*
X121536698Y-77914520D01*
X121441460Y-78009758D01*
X121393841Y-78104996D01*
X122393841Y-78962139D02*
X121393841Y-78962139D01*
X121393841Y-79200234D01*
X121441460Y-79343092D01*
X121536698Y-79438330D01*
X121631936Y-79485949D01*
X121822412Y-79533568D01*
X121965270Y-79533568D01*
X122155746Y-79485949D01*
X122250984Y-79438330D01*
X122346222Y-79343092D01*
X122393841Y-79200234D01*
X122393841Y-78962139D01*
X121870031Y-79962139D02*
X121870031Y-80295473D01*
X122393841Y-80438330D02*
X122393841Y-79962139D01*
X121393841Y-79962139D01*
X121393841Y-80438330D01*
X103393841Y-76938330D02*
X102393841Y-76938330D01*
X102393841Y-77176425D01*
X102441460Y-77319283D01*
X102536698Y-77414521D01*
X102631936Y-77462140D01*
X102822412Y-77509759D01*
X102965270Y-77509759D01*
X103155746Y-77462140D01*
X103250984Y-77414521D01*
X103346222Y-77319283D01*
X103393841Y-77176425D01*
X103393841Y-76938330D01*
X103393841Y-77938330D02*
X102393841Y-77938330D01*
X102393841Y-78604996D02*
X102393841Y-78795473D01*
X102441460Y-78890711D01*
X102536698Y-78985949D01*
X102727174Y-79033568D01*
X103060508Y-79033568D01*
X103250984Y-78985949D01*
X103346222Y-78890711D01*
X103393841Y-78795473D01*
X103393841Y-78604996D01*
X103346222Y-78509758D01*
X103250984Y-78414520D01*
X103060508Y-78366901D01*
X102727174Y-78366901D01*
X102536698Y-78414520D01*
X102441460Y-78509758D01*
X102393841Y-78604996D01*
X103393841Y-79462139D02*
X102393841Y-79462139D01*
X102393841Y-79700234D01*
X102441460Y-79843092D01*
X102536698Y-79938330D01*
X102631936Y-79985949D01*
X102822412Y-80033568D01*
X102965270Y-80033568D01*
X103155746Y-79985949D01*
X103250984Y-79938330D01*
X103346222Y-79843092D01*
X103393841Y-79700234D01*
X103393841Y-79462139D01*
X102870031Y-80462139D02*
X102870031Y-80795473D01*
X103393841Y-80938330D02*
X103393841Y-80462139D01*
X102393841Y-80462139D01*
X102393841Y-80938330D01*
X84393841Y-76438330D02*
X83393841Y-76438330D01*
X83393841Y-76676425D01*
X83441460Y-76819283D01*
X83536698Y-76914521D01*
X83631936Y-76962140D01*
X83822412Y-77009759D01*
X83965270Y-77009759D01*
X84155746Y-76962140D01*
X84250984Y-76914521D01*
X84346222Y-76819283D01*
X84393841Y-76676425D01*
X84393841Y-76438330D01*
X84393841Y-77438330D02*
X83393841Y-77438330D01*
X83393841Y-78104996D02*
X83393841Y-78295473D01*
X83441460Y-78390711D01*
X83536698Y-78485949D01*
X83727174Y-78533568D01*
X84060508Y-78533568D01*
X84250984Y-78485949D01*
X84346222Y-78390711D01*
X84393841Y-78295473D01*
X84393841Y-78104996D01*
X84346222Y-78009758D01*
X84250984Y-77914520D01*
X84060508Y-77866901D01*
X83727174Y-77866901D01*
X83536698Y-77914520D01*
X83441460Y-78009758D01*
X83393841Y-78104996D01*
X84393841Y-78962139D02*
X83393841Y-78962139D01*
X83393841Y-79200234D01*
X83441460Y-79343092D01*
X83536698Y-79438330D01*
X83631936Y-79485949D01*
X83822412Y-79533568D01*
X83965270Y-79533568D01*
X84155746Y-79485949D01*
X84250984Y-79438330D01*
X84346222Y-79343092D01*
X84393841Y-79200234D01*
X84393841Y-78962139D01*
X83870031Y-79962139D02*
X83870031Y-80295473D01*
X84393841Y-80438330D02*
X84393841Y-79962139D01*
X83393841Y-79962139D01*
X83393841Y-80438330D01*
X64893841Y-76938330D02*
X63893841Y-76938330D01*
X63893841Y-77176425D01*
X63941460Y-77319283D01*
X64036698Y-77414521D01*
X64131936Y-77462140D01*
X64322412Y-77509759D01*
X64465270Y-77509759D01*
X64655746Y-77462140D01*
X64750984Y-77414521D01*
X64846222Y-77319283D01*
X64893841Y-77176425D01*
X64893841Y-76938330D01*
X64893841Y-77938330D02*
X63893841Y-77938330D01*
X63893841Y-78604996D02*
X63893841Y-78795473D01*
X63941460Y-78890711D01*
X64036698Y-78985949D01*
X64227174Y-79033568D01*
X64560508Y-79033568D01*
X64750984Y-78985949D01*
X64846222Y-78890711D01*
X64893841Y-78795473D01*
X64893841Y-78604996D01*
X64846222Y-78509758D01*
X64750984Y-78414520D01*
X64560508Y-78366901D01*
X64227174Y-78366901D01*
X64036698Y-78414520D01*
X63941460Y-78509758D01*
X63893841Y-78604996D01*
X64893841Y-79462139D02*
X63893841Y-79462139D01*
X63893841Y-79700234D01*
X63941460Y-79843092D01*
X64036698Y-79938330D01*
X64131936Y-79985949D01*
X64322412Y-80033568D01*
X64465270Y-80033568D01*
X64655746Y-79985949D01*
X64750984Y-79938330D01*
X64846222Y-79843092D01*
X64893841Y-79700234D01*
X64893841Y-79462139D01*
X64370031Y-80462139D02*
X64370031Y-80795473D01*
X64893841Y-80938330D02*
X64893841Y-80462139D01*
X63893841Y-80462139D01*
X63893841Y-80938330D01*
X46393841Y-76938330D02*
X45393841Y-76938330D01*
X45393841Y-77176425D01*
X45441460Y-77319283D01*
X45536698Y-77414521D01*
X45631936Y-77462140D01*
X45822412Y-77509759D01*
X45965270Y-77509759D01*
X46155746Y-77462140D01*
X46250984Y-77414521D01*
X46346222Y-77319283D01*
X46393841Y-77176425D01*
X46393841Y-76938330D01*
X46393841Y-77938330D02*
X45393841Y-77938330D01*
X45393841Y-78604996D02*
X45393841Y-78795473D01*
X45441460Y-78890711D01*
X45536698Y-78985949D01*
X45727174Y-79033568D01*
X46060508Y-79033568D01*
X46250984Y-78985949D01*
X46346222Y-78890711D01*
X46393841Y-78795473D01*
X46393841Y-78604996D01*
X46346222Y-78509758D01*
X46250984Y-78414520D01*
X46060508Y-78366901D01*
X45727174Y-78366901D01*
X45536698Y-78414520D01*
X45441460Y-78509758D01*
X45393841Y-78604996D01*
X46393841Y-79462139D02*
X45393841Y-79462139D01*
X45393841Y-79700234D01*
X45441460Y-79843092D01*
X45536698Y-79938330D01*
X45631936Y-79985949D01*
X45822412Y-80033568D01*
X45965270Y-80033568D01*
X46155746Y-79985949D01*
X46250984Y-79938330D01*
X46346222Y-79843092D01*
X46393841Y-79700234D01*
X46393841Y-79462139D01*
X45870031Y-80462139D02*
X45870031Y-80795473D01*
X46393841Y-80938330D02*
X46393841Y-80462139D01*
X45393841Y-80462139D01*
X45393841Y-80938330D01*
X27393841Y-76438330D02*
X26393841Y-76438330D01*
X26393841Y-76676425D01*
X26441460Y-76819283D01*
X26536698Y-76914521D01*
X26631936Y-76962140D01*
X26822412Y-77009759D01*
X26965270Y-77009759D01*
X27155746Y-76962140D01*
X27250984Y-76914521D01*
X27346222Y-76819283D01*
X27393841Y-76676425D01*
X27393841Y-76438330D01*
X27393841Y-77438330D02*
X26393841Y-77438330D01*
X26393841Y-78104996D02*
X26393841Y-78295473D01*
X26441460Y-78390711D01*
X26536698Y-78485949D01*
X26727174Y-78533568D01*
X27060508Y-78533568D01*
X27250984Y-78485949D01*
X27346222Y-78390711D01*
X27393841Y-78295473D01*
X27393841Y-78104996D01*
X27346222Y-78009758D01*
X27250984Y-77914520D01*
X27060508Y-77866901D01*
X26727174Y-77866901D01*
X26536698Y-77914520D01*
X26441460Y-78009758D01*
X26393841Y-78104996D01*
X27393841Y-78962139D02*
X26393841Y-78962139D01*
X26393841Y-79200234D01*
X26441460Y-79343092D01*
X26536698Y-79438330D01*
X26631936Y-79485949D01*
X26822412Y-79533568D01*
X26965270Y-79533568D01*
X27155746Y-79485949D01*
X27250984Y-79438330D01*
X27346222Y-79343092D01*
X27393841Y-79200234D01*
X27393841Y-78962139D01*
X26870031Y-79962139D02*
X26870031Y-80295473D01*
X27393841Y-80438330D02*
X27393841Y-79962139D01*
X26393841Y-79962139D01*
X26393841Y-80438330D01*
X27393841Y-95438330D02*
X26393841Y-95438330D01*
X26393841Y-95676425D01*
X26441460Y-95819283D01*
X26536698Y-95914521D01*
X26631936Y-95962140D01*
X26822412Y-96009759D01*
X26965270Y-96009759D01*
X27155746Y-95962140D01*
X27250984Y-95914521D01*
X27346222Y-95819283D01*
X27393841Y-95676425D01*
X27393841Y-95438330D01*
X27393841Y-96438330D02*
X26393841Y-96438330D01*
X26393841Y-97104996D02*
X26393841Y-97295473D01*
X26441460Y-97390711D01*
X26536698Y-97485949D01*
X26727174Y-97533568D01*
X27060508Y-97533568D01*
X27250984Y-97485949D01*
X27346222Y-97390711D01*
X27393841Y-97295473D01*
X27393841Y-97104996D01*
X27346222Y-97009758D01*
X27250984Y-96914520D01*
X27060508Y-96866901D01*
X26727174Y-96866901D01*
X26536698Y-96914520D01*
X26441460Y-97009758D01*
X26393841Y-97104996D01*
X27393841Y-97962139D02*
X26393841Y-97962139D01*
X26393841Y-98200234D01*
X26441460Y-98343092D01*
X26536698Y-98438330D01*
X26631936Y-98485949D01*
X26822412Y-98533568D01*
X26965270Y-98533568D01*
X27155746Y-98485949D01*
X27250984Y-98438330D01*
X27346222Y-98343092D01*
X27393841Y-98200234D01*
X27393841Y-97962139D01*
X26870031Y-98962139D02*
X26870031Y-99295473D01*
X27393841Y-99438330D02*
X27393841Y-98962139D01*
X26393841Y-98962139D01*
X26393841Y-99438330D01*
X46393841Y-95438330D02*
X45393841Y-95438330D01*
X45393841Y-95676425D01*
X45441460Y-95819283D01*
X45536698Y-95914521D01*
X45631936Y-95962140D01*
X45822412Y-96009759D01*
X45965270Y-96009759D01*
X46155746Y-95962140D01*
X46250984Y-95914521D01*
X46346222Y-95819283D01*
X46393841Y-95676425D01*
X46393841Y-95438330D01*
X46393841Y-96438330D02*
X45393841Y-96438330D01*
X45393841Y-97104996D02*
X45393841Y-97295473D01*
X45441460Y-97390711D01*
X45536698Y-97485949D01*
X45727174Y-97533568D01*
X46060508Y-97533568D01*
X46250984Y-97485949D01*
X46346222Y-97390711D01*
X46393841Y-97295473D01*
X46393841Y-97104996D01*
X46346222Y-97009758D01*
X46250984Y-96914520D01*
X46060508Y-96866901D01*
X45727174Y-96866901D01*
X45536698Y-96914520D01*
X45441460Y-97009758D01*
X45393841Y-97104996D01*
X46393841Y-97962139D02*
X45393841Y-97962139D01*
X45393841Y-98200234D01*
X45441460Y-98343092D01*
X45536698Y-98438330D01*
X45631936Y-98485949D01*
X45822412Y-98533568D01*
X45965270Y-98533568D01*
X46155746Y-98485949D01*
X46250984Y-98438330D01*
X46346222Y-98343092D01*
X46393841Y-98200234D01*
X46393841Y-97962139D01*
X45870031Y-98962139D02*
X45870031Y-99295473D01*
X46393841Y-99438330D02*
X46393841Y-98962139D01*
X45393841Y-98962139D01*
X45393841Y-99438330D01*
X65393841Y-95438330D02*
X64393841Y-95438330D01*
X64393841Y-95676425D01*
X64441460Y-95819283D01*
X64536698Y-95914521D01*
X64631936Y-95962140D01*
X64822412Y-96009759D01*
X64965270Y-96009759D01*
X65155746Y-95962140D01*
X65250984Y-95914521D01*
X65346222Y-95819283D01*
X65393841Y-95676425D01*
X65393841Y-95438330D01*
X65393841Y-96438330D02*
X64393841Y-96438330D01*
X64393841Y-97104996D02*
X64393841Y-97295473D01*
X64441460Y-97390711D01*
X64536698Y-97485949D01*
X64727174Y-97533568D01*
X65060508Y-97533568D01*
X65250984Y-97485949D01*
X65346222Y-97390711D01*
X65393841Y-97295473D01*
X65393841Y-97104996D01*
X65346222Y-97009758D01*
X65250984Y-96914520D01*
X65060508Y-96866901D01*
X64727174Y-96866901D01*
X64536698Y-96914520D01*
X64441460Y-97009758D01*
X64393841Y-97104996D01*
X65393841Y-97962139D02*
X64393841Y-97962139D01*
X64393841Y-98200234D01*
X64441460Y-98343092D01*
X64536698Y-98438330D01*
X64631936Y-98485949D01*
X64822412Y-98533568D01*
X64965270Y-98533568D01*
X65155746Y-98485949D01*
X65250984Y-98438330D01*
X65346222Y-98343092D01*
X65393841Y-98200234D01*
X65393841Y-97962139D01*
X64870031Y-98962139D02*
X64870031Y-99295473D01*
X65393841Y-99438330D02*
X65393841Y-98962139D01*
X64393841Y-98962139D01*
X64393841Y-99438330D01*
X83893841Y-95438330D02*
X82893841Y-95438330D01*
X82893841Y-95676425D01*
X82941460Y-95819283D01*
X83036698Y-95914521D01*
X83131936Y-95962140D01*
X83322412Y-96009759D01*
X83465270Y-96009759D01*
X83655746Y-95962140D01*
X83750984Y-95914521D01*
X83846222Y-95819283D01*
X83893841Y-95676425D01*
X83893841Y-95438330D01*
X83893841Y-96438330D02*
X82893841Y-96438330D01*
X82893841Y-97104996D02*
X82893841Y-97295473D01*
X82941460Y-97390711D01*
X83036698Y-97485949D01*
X83227174Y-97533568D01*
X83560508Y-97533568D01*
X83750984Y-97485949D01*
X83846222Y-97390711D01*
X83893841Y-97295473D01*
X83893841Y-97104996D01*
X83846222Y-97009758D01*
X83750984Y-96914520D01*
X83560508Y-96866901D01*
X83227174Y-96866901D01*
X83036698Y-96914520D01*
X82941460Y-97009758D01*
X82893841Y-97104996D01*
X83893841Y-97962139D02*
X82893841Y-97962139D01*
X82893841Y-98200234D01*
X82941460Y-98343092D01*
X83036698Y-98438330D01*
X83131936Y-98485949D01*
X83322412Y-98533568D01*
X83465270Y-98533568D01*
X83655746Y-98485949D01*
X83750984Y-98438330D01*
X83846222Y-98343092D01*
X83893841Y-98200234D01*
X83893841Y-97962139D01*
X83370031Y-98962139D02*
X83370031Y-99295473D01*
X83893841Y-99438330D02*
X83893841Y-98962139D01*
X82893841Y-98962139D01*
X82893841Y-99438330D01*
X102893841Y-95438330D02*
X101893841Y-95438330D01*
X101893841Y-95676425D01*
X101941460Y-95819283D01*
X102036698Y-95914521D01*
X102131936Y-95962140D01*
X102322412Y-96009759D01*
X102465270Y-96009759D01*
X102655746Y-95962140D01*
X102750984Y-95914521D01*
X102846222Y-95819283D01*
X102893841Y-95676425D01*
X102893841Y-95438330D01*
X102893841Y-96438330D02*
X101893841Y-96438330D01*
X101893841Y-97104996D02*
X101893841Y-97295473D01*
X101941460Y-97390711D01*
X102036698Y-97485949D01*
X102227174Y-97533568D01*
X102560508Y-97533568D01*
X102750984Y-97485949D01*
X102846222Y-97390711D01*
X102893841Y-97295473D01*
X102893841Y-97104996D01*
X102846222Y-97009758D01*
X102750984Y-96914520D01*
X102560508Y-96866901D01*
X102227174Y-96866901D01*
X102036698Y-96914520D01*
X101941460Y-97009758D01*
X101893841Y-97104996D01*
X102893841Y-97962139D02*
X101893841Y-97962139D01*
X101893841Y-98200234D01*
X101941460Y-98343092D01*
X102036698Y-98438330D01*
X102131936Y-98485949D01*
X102322412Y-98533568D01*
X102465270Y-98533568D01*
X102655746Y-98485949D01*
X102750984Y-98438330D01*
X102846222Y-98343092D01*
X102893841Y-98200234D01*
X102893841Y-97962139D01*
X102370031Y-98962139D02*
X102370031Y-99295473D01*
X102893841Y-99438330D02*
X102893841Y-98962139D01*
X101893841Y-98962139D01*
X101893841Y-99438330D01*
X105393841Y-95438330D02*
X104393841Y-95438330D01*
X104393841Y-95676425D01*
X104441460Y-95819283D01*
X104536698Y-95914521D01*
X104631936Y-95962140D01*
X104822412Y-96009759D01*
X104965270Y-96009759D01*
X105155746Y-95962140D01*
X105250984Y-95914521D01*
X105346222Y-95819283D01*
X105393841Y-95676425D01*
X105393841Y-95438330D01*
X105393841Y-96438330D02*
X104393841Y-96438330D01*
X104393841Y-97104996D02*
X104393841Y-97295473D01*
X104441460Y-97390711D01*
X104536698Y-97485949D01*
X104727174Y-97533568D01*
X105060508Y-97533568D01*
X105250984Y-97485949D01*
X105346222Y-97390711D01*
X105393841Y-97295473D01*
X105393841Y-97104996D01*
X105346222Y-97009758D01*
X105250984Y-96914520D01*
X105060508Y-96866901D01*
X104727174Y-96866901D01*
X104536698Y-96914520D01*
X104441460Y-97009758D01*
X104393841Y-97104996D01*
X105393841Y-97962139D02*
X104393841Y-97962139D01*
X104393841Y-98200234D01*
X104441460Y-98343092D01*
X104536698Y-98438330D01*
X104631936Y-98485949D01*
X104822412Y-98533568D01*
X104965270Y-98533568D01*
X105155746Y-98485949D01*
X105250984Y-98438330D01*
X105346222Y-98343092D01*
X105393841Y-98200234D01*
X105393841Y-97962139D01*
X104870031Y-98962139D02*
X104870031Y-99295473D01*
X105393841Y-99438330D02*
X105393841Y-98962139D01*
X104393841Y-98962139D01*
X104393841Y-99438330D01*
X140893841Y-95438330D02*
X139893841Y-95438330D01*
X139893841Y-95676425D01*
X139941460Y-95819283D01*
X140036698Y-95914521D01*
X140131936Y-95962140D01*
X140322412Y-96009759D01*
X140465270Y-96009759D01*
X140655746Y-95962140D01*
X140750984Y-95914521D01*
X140846222Y-95819283D01*
X140893841Y-95676425D01*
X140893841Y-95438330D01*
X140893841Y-96438330D02*
X139893841Y-96438330D01*
X139893841Y-97104996D02*
X139893841Y-97295473D01*
X139941460Y-97390711D01*
X140036698Y-97485949D01*
X140227174Y-97533568D01*
X140560508Y-97533568D01*
X140750984Y-97485949D01*
X140846222Y-97390711D01*
X140893841Y-97295473D01*
X140893841Y-97104996D01*
X140846222Y-97009758D01*
X140750984Y-96914520D01*
X140560508Y-96866901D01*
X140227174Y-96866901D01*
X140036698Y-96914520D01*
X139941460Y-97009758D01*
X139893841Y-97104996D01*
X140893841Y-97962139D02*
X139893841Y-97962139D01*
X139893841Y-98200234D01*
X139941460Y-98343092D01*
X140036698Y-98438330D01*
X140131936Y-98485949D01*
X140322412Y-98533568D01*
X140465270Y-98533568D01*
X140655746Y-98485949D01*
X140750984Y-98438330D01*
X140846222Y-98343092D01*
X140893841Y-98200234D01*
X140893841Y-97962139D01*
X140370031Y-98962139D02*
X140370031Y-99295473D01*
X140893841Y-99438330D02*
X140893841Y-98962139D01*
X139893841Y-98962139D01*
X139893841Y-99438330D01*
X143893841Y-95438330D02*
X142893841Y-95438330D01*
X142893841Y-95676425D01*
X142941460Y-95819283D01*
X143036698Y-95914521D01*
X143131936Y-95962140D01*
X143322412Y-96009759D01*
X143465270Y-96009759D01*
X143655746Y-95962140D01*
X143750984Y-95914521D01*
X143846222Y-95819283D01*
X143893841Y-95676425D01*
X143893841Y-95438330D01*
X143893841Y-96438330D02*
X142893841Y-96438330D01*
X142893841Y-97104996D02*
X142893841Y-97295473D01*
X142941460Y-97390711D01*
X143036698Y-97485949D01*
X143227174Y-97533568D01*
X143560508Y-97533568D01*
X143750984Y-97485949D01*
X143846222Y-97390711D01*
X143893841Y-97295473D01*
X143893841Y-97104996D01*
X143846222Y-97009758D01*
X143750984Y-96914520D01*
X143560508Y-96866901D01*
X143227174Y-96866901D01*
X143036698Y-96914520D01*
X142941460Y-97009758D01*
X142893841Y-97104996D01*
X143893841Y-97962139D02*
X142893841Y-97962139D01*
X142893841Y-98200234D01*
X142941460Y-98343092D01*
X143036698Y-98438330D01*
X143131936Y-98485949D01*
X143322412Y-98533568D01*
X143465270Y-98533568D01*
X143655746Y-98485949D01*
X143750984Y-98438330D01*
X143846222Y-98343092D01*
X143893841Y-98200234D01*
X143893841Y-97962139D01*
X143370031Y-98962139D02*
X143370031Y-99295473D01*
X143893841Y-99438330D02*
X143893841Y-98962139D01*
X142893841Y-98962139D01*
X142893841Y-99438330D01*
X178893841Y-95938330D02*
X177893841Y-95938330D01*
X177893841Y-96176425D01*
X177941460Y-96319283D01*
X178036698Y-96414521D01*
X178131936Y-96462140D01*
X178322412Y-96509759D01*
X178465270Y-96509759D01*
X178655746Y-96462140D01*
X178750984Y-96414521D01*
X178846222Y-96319283D01*
X178893841Y-96176425D01*
X178893841Y-95938330D01*
X178893841Y-96938330D02*
X177893841Y-96938330D01*
X177893841Y-97604996D02*
X177893841Y-97795473D01*
X177941460Y-97890711D01*
X178036698Y-97985949D01*
X178227174Y-98033568D01*
X178560508Y-98033568D01*
X178750984Y-97985949D01*
X178846222Y-97890711D01*
X178893841Y-97795473D01*
X178893841Y-97604996D01*
X178846222Y-97509758D01*
X178750984Y-97414520D01*
X178560508Y-97366901D01*
X178227174Y-97366901D01*
X178036698Y-97414520D01*
X177941460Y-97509758D01*
X177893841Y-97604996D01*
X178893841Y-98462139D02*
X177893841Y-98462139D01*
X177893841Y-98700234D01*
X177941460Y-98843092D01*
X178036698Y-98938330D01*
X178131936Y-98985949D01*
X178322412Y-99033568D01*
X178465270Y-99033568D01*
X178655746Y-98985949D01*
X178750984Y-98938330D01*
X178846222Y-98843092D01*
X178893841Y-98700234D01*
X178893841Y-98462139D01*
X178370031Y-99462139D02*
X178370031Y-99795473D01*
X178893841Y-99938330D02*
X178893841Y-99462139D01*
X177893841Y-99462139D01*
X177893841Y-99938330D01*
X181893841Y-95938330D02*
X180893841Y-95938330D01*
X180893841Y-96176425D01*
X180941460Y-96319283D01*
X181036698Y-96414521D01*
X181131936Y-96462140D01*
X181322412Y-96509759D01*
X181465270Y-96509759D01*
X181655746Y-96462140D01*
X181750984Y-96414521D01*
X181846222Y-96319283D01*
X181893841Y-96176425D01*
X181893841Y-95938330D01*
X181893841Y-96938330D02*
X180893841Y-96938330D01*
X180893841Y-97604996D02*
X180893841Y-97795473D01*
X180941460Y-97890711D01*
X181036698Y-97985949D01*
X181227174Y-98033568D01*
X181560508Y-98033568D01*
X181750984Y-97985949D01*
X181846222Y-97890711D01*
X181893841Y-97795473D01*
X181893841Y-97604996D01*
X181846222Y-97509758D01*
X181750984Y-97414520D01*
X181560508Y-97366901D01*
X181227174Y-97366901D01*
X181036698Y-97414520D01*
X180941460Y-97509758D01*
X180893841Y-97604996D01*
X181893841Y-98462139D02*
X180893841Y-98462139D01*
X180893841Y-98700234D01*
X180941460Y-98843092D01*
X181036698Y-98938330D01*
X181131936Y-98985949D01*
X181322412Y-99033568D01*
X181465270Y-99033568D01*
X181655746Y-98985949D01*
X181750984Y-98938330D01*
X181846222Y-98843092D01*
X181893841Y-98700234D01*
X181893841Y-98462139D01*
X181370031Y-99462139D02*
X181370031Y-99795473D01*
X181893841Y-99938330D02*
X181893841Y-99462139D01*
X180893841Y-99462139D01*
X180893841Y-99938330D01*
X181893841Y-76438330D02*
X180893841Y-76438330D01*
X180893841Y-76676425D01*
X180941460Y-76819283D01*
X181036698Y-76914521D01*
X181131936Y-76962140D01*
X181322412Y-77009759D01*
X181465270Y-77009759D01*
X181655746Y-76962140D01*
X181750984Y-76914521D01*
X181846222Y-76819283D01*
X181893841Y-76676425D01*
X181893841Y-76438330D01*
X181893841Y-77438330D02*
X180893841Y-77438330D01*
X180893841Y-78104996D02*
X180893841Y-78295473D01*
X180941460Y-78390711D01*
X181036698Y-78485949D01*
X181227174Y-78533568D01*
X181560508Y-78533568D01*
X181750984Y-78485949D01*
X181846222Y-78390711D01*
X181893841Y-78295473D01*
X181893841Y-78104996D01*
X181846222Y-78009758D01*
X181750984Y-77914520D01*
X181560508Y-77866901D01*
X181227174Y-77866901D01*
X181036698Y-77914520D01*
X180941460Y-78009758D01*
X180893841Y-78104996D01*
X181893841Y-78962139D02*
X180893841Y-78962139D01*
X180893841Y-79200234D01*
X180941460Y-79343092D01*
X181036698Y-79438330D01*
X181131936Y-79485949D01*
X181322412Y-79533568D01*
X181465270Y-79533568D01*
X181655746Y-79485949D01*
X181750984Y-79438330D01*
X181846222Y-79343092D01*
X181893841Y-79200234D01*
X181893841Y-78962139D01*
X181370031Y-79962139D02*
X181370031Y-80295473D01*
X181893841Y-80438330D02*
X181893841Y-79962139D01*
X180893841Y-79962139D01*
X180893841Y-80438330D01*
X219893841Y-76438330D02*
X218893841Y-76438330D01*
X218893841Y-76676425D01*
X218941460Y-76819283D01*
X219036698Y-76914521D01*
X219131936Y-76962140D01*
X219322412Y-77009759D01*
X219465270Y-77009759D01*
X219655746Y-76962140D01*
X219750984Y-76914521D01*
X219846222Y-76819283D01*
X219893841Y-76676425D01*
X219893841Y-76438330D01*
X219893841Y-77438330D02*
X218893841Y-77438330D01*
X218893841Y-78104996D02*
X218893841Y-78295473D01*
X218941460Y-78390711D01*
X219036698Y-78485949D01*
X219227174Y-78533568D01*
X219560508Y-78533568D01*
X219750984Y-78485949D01*
X219846222Y-78390711D01*
X219893841Y-78295473D01*
X219893841Y-78104996D01*
X219846222Y-78009758D01*
X219750984Y-77914520D01*
X219560508Y-77866901D01*
X219227174Y-77866901D01*
X219036698Y-77914520D01*
X218941460Y-78009758D01*
X218893841Y-78104996D01*
X219893841Y-78962139D02*
X218893841Y-78962139D01*
X218893841Y-79200234D01*
X218941460Y-79343092D01*
X219036698Y-79438330D01*
X219131936Y-79485949D01*
X219322412Y-79533568D01*
X219465270Y-79533568D01*
X219655746Y-79485949D01*
X219750984Y-79438330D01*
X219846222Y-79343092D01*
X219893841Y-79200234D01*
X219893841Y-78962139D01*
X219370031Y-79962139D02*
X219370031Y-80295473D01*
X219893841Y-80438330D02*
X219893841Y-79962139D01*
X218893841Y-79962139D01*
X218893841Y-80438330D01*
X200393841Y-76438330D02*
X199393841Y-76438330D01*
X199393841Y-76676425D01*
X199441460Y-76819283D01*
X199536698Y-76914521D01*
X199631936Y-76962140D01*
X199822412Y-77009759D01*
X199965270Y-77009759D01*
X200155746Y-76962140D01*
X200250984Y-76914521D01*
X200346222Y-76819283D01*
X200393841Y-76676425D01*
X200393841Y-76438330D01*
X200393841Y-77438330D02*
X199393841Y-77438330D01*
X199393841Y-78104996D02*
X199393841Y-78295473D01*
X199441460Y-78390711D01*
X199536698Y-78485949D01*
X199727174Y-78533568D01*
X200060508Y-78533568D01*
X200250984Y-78485949D01*
X200346222Y-78390711D01*
X200393841Y-78295473D01*
X200393841Y-78104996D01*
X200346222Y-78009758D01*
X200250984Y-77914520D01*
X200060508Y-77866901D01*
X199727174Y-77866901D01*
X199536698Y-77914520D01*
X199441460Y-78009758D01*
X199393841Y-78104996D01*
X200393841Y-78962139D02*
X199393841Y-78962139D01*
X199393841Y-79200234D01*
X199441460Y-79343092D01*
X199536698Y-79438330D01*
X199631936Y-79485949D01*
X199822412Y-79533568D01*
X199965270Y-79533568D01*
X200155746Y-79485949D01*
X200250984Y-79438330D01*
X200346222Y-79343092D01*
X200393841Y-79200234D01*
X200393841Y-78962139D01*
X199870031Y-79962139D02*
X199870031Y-80295473D01*
X200393841Y-80438330D02*
X200393841Y-79962139D01*
X199393841Y-79962139D01*
X199393841Y-80438330D01*
X200893841Y-95938330D02*
X199893841Y-95938330D01*
X199893841Y-96176425D01*
X199941460Y-96319283D01*
X200036698Y-96414521D01*
X200131936Y-96462140D01*
X200322412Y-96509759D01*
X200465270Y-96509759D01*
X200655746Y-96462140D01*
X200750984Y-96414521D01*
X200846222Y-96319283D01*
X200893841Y-96176425D01*
X200893841Y-95938330D01*
X200893841Y-96938330D02*
X199893841Y-96938330D01*
X199893841Y-97604996D02*
X199893841Y-97795473D01*
X199941460Y-97890711D01*
X200036698Y-97985949D01*
X200227174Y-98033568D01*
X200560508Y-98033568D01*
X200750984Y-97985949D01*
X200846222Y-97890711D01*
X200893841Y-97795473D01*
X200893841Y-97604996D01*
X200846222Y-97509758D01*
X200750984Y-97414520D01*
X200560508Y-97366901D01*
X200227174Y-97366901D01*
X200036698Y-97414520D01*
X199941460Y-97509758D01*
X199893841Y-97604996D01*
X200893841Y-98462139D02*
X199893841Y-98462139D01*
X199893841Y-98700234D01*
X199941460Y-98843092D01*
X200036698Y-98938330D01*
X200131936Y-98985949D01*
X200322412Y-99033568D01*
X200465270Y-99033568D01*
X200655746Y-98985949D01*
X200750984Y-98938330D01*
X200846222Y-98843092D01*
X200893841Y-98700234D01*
X200893841Y-98462139D01*
X200370031Y-99462139D02*
X200370031Y-99795473D01*
X200893841Y-99938330D02*
X200893841Y-99462139D01*
X199893841Y-99462139D01*
X199893841Y-99938330D01*
X219893841Y-95938330D02*
X218893841Y-95938330D01*
X218893841Y-96176425D01*
X218941460Y-96319283D01*
X219036698Y-96414521D01*
X219131936Y-96462140D01*
X219322412Y-96509759D01*
X219465270Y-96509759D01*
X219655746Y-96462140D01*
X219750984Y-96414521D01*
X219846222Y-96319283D01*
X219893841Y-96176425D01*
X219893841Y-95938330D01*
X219893841Y-96938330D02*
X218893841Y-96938330D01*
X218893841Y-97604996D02*
X218893841Y-97795473D01*
X218941460Y-97890711D01*
X219036698Y-97985949D01*
X219227174Y-98033568D01*
X219560508Y-98033568D01*
X219750984Y-97985949D01*
X219846222Y-97890711D01*
X219893841Y-97795473D01*
X219893841Y-97604996D01*
X219846222Y-97509758D01*
X219750984Y-97414520D01*
X219560508Y-97366901D01*
X219227174Y-97366901D01*
X219036698Y-97414520D01*
X218941460Y-97509758D01*
X218893841Y-97604996D01*
X219893841Y-98462139D02*
X218893841Y-98462139D01*
X218893841Y-98700234D01*
X218941460Y-98843092D01*
X219036698Y-98938330D01*
X219131936Y-98985949D01*
X219322412Y-99033568D01*
X219465270Y-99033568D01*
X219655746Y-98985949D01*
X219750984Y-98938330D01*
X219846222Y-98843092D01*
X219893841Y-98700234D01*
X219893841Y-98462139D01*
X219370031Y-99462139D02*
X219370031Y-99795473D01*
X219893841Y-99938330D02*
X219893841Y-99462139D01*
X218893841Y-99462139D01*
X218893841Y-99938330D01*
X257893841Y-95938330D02*
X256893841Y-95938330D01*
X256893841Y-96176425D01*
X256941460Y-96319283D01*
X257036698Y-96414521D01*
X257131936Y-96462140D01*
X257322412Y-96509759D01*
X257465270Y-96509759D01*
X257655746Y-96462140D01*
X257750984Y-96414521D01*
X257846222Y-96319283D01*
X257893841Y-96176425D01*
X257893841Y-95938330D01*
X257893841Y-96938330D02*
X256893841Y-96938330D01*
X256893841Y-97604996D02*
X256893841Y-97795473D01*
X256941460Y-97890711D01*
X257036698Y-97985949D01*
X257227174Y-98033568D01*
X257560508Y-98033568D01*
X257750984Y-97985949D01*
X257846222Y-97890711D01*
X257893841Y-97795473D01*
X257893841Y-97604996D01*
X257846222Y-97509758D01*
X257750984Y-97414520D01*
X257560508Y-97366901D01*
X257227174Y-97366901D01*
X257036698Y-97414520D01*
X256941460Y-97509758D01*
X256893841Y-97604996D01*
X257893841Y-98462139D02*
X256893841Y-98462139D01*
X256893841Y-98700234D01*
X256941460Y-98843092D01*
X257036698Y-98938330D01*
X257131936Y-98985949D01*
X257322412Y-99033568D01*
X257465270Y-99033568D01*
X257655746Y-98985949D01*
X257750984Y-98938330D01*
X257846222Y-98843092D01*
X257893841Y-98700234D01*
X257893841Y-98462139D01*
X257370031Y-99462139D02*
X257370031Y-99795473D01*
X257893841Y-99938330D02*
X257893841Y-99462139D01*
X256893841Y-99462139D01*
X256893841Y-99938330D01*
X238893841Y-95938330D02*
X237893841Y-95938330D01*
X237893841Y-96176425D01*
X237941460Y-96319283D01*
X238036698Y-96414521D01*
X238131936Y-96462140D01*
X238322412Y-96509759D01*
X238465270Y-96509759D01*
X238655746Y-96462140D01*
X238750984Y-96414521D01*
X238846222Y-96319283D01*
X238893841Y-96176425D01*
X238893841Y-95938330D01*
X238893841Y-96938330D02*
X237893841Y-96938330D01*
X237893841Y-97604996D02*
X237893841Y-97795473D01*
X237941460Y-97890711D01*
X238036698Y-97985949D01*
X238227174Y-98033568D01*
X238560508Y-98033568D01*
X238750984Y-97985949D01*
X238846222Y-97890711D01*
X238893841Y-97795473D01*
X238893841Y-97604996D01*
X238846222Y-97509758D01*
X238750984Y-97414520D01*
X238560508Y-97366901D01*
X238227174Y-97366901D01*
X238036698Y-97414520D01*
X237941460Y-97509758D01*
X237893841Y-97604996D01*
X238893841Y-98462139D02*
X237893841Y-98462139D01*
X237893841Y-98700234D01*
X237941460Y-98843092D01*
X238036698Y-98938330D01*
X238131936Y-98985949D01*
X238322412Y-99033568D01*
X238465270Y-99033568D01*
X238655746Y-98985949D01*
X238750984Y-98938330D01*
X238846222Y-98843092D01*
X238893841Y-98700234D01*
X238893841Y-98462139D01*
X238370031Y-99462139D02*
X238370031Y-99795473D01*
X238893841Y-99938330D02*
X238893841Y-99462139D01*
X237893841Y-99462139D01*
X237893841Y-99938330D01*
X238893841Y-76938330D02*
X237893841Y-76938330D01*
X237893841Y-77176425D01*
X237941460Y-77319283D01*
X238036698Y-77414521D01*
X238131936Y-77462140D01*
X238322412Y-77509759D01*
X238465270Y-77509759D01*
X238655746Y-77462140D01*
X238750984Y-77414521D01*
X238846222Y-77319283D01*
X238893841Y-77176425D01*
X238893841Y-76938330D01*
X238893841Y-77938330D02*
X237893841Y-77938330D01*
X237893841Y-78604996D02*
X237893841Y-78795473D01*
X237941460Y-78890711D01*
X238036698Y-78985949D01*
X238227174Y-79033568D01*
X238560508Y-79033568D01*
X238750984Y-78985949D01*
X238846222Y-78890711D01*
X238893841Y-78795473D01*
X238893841Y-78604996D01*
X238846222Y-78509758D01*
X238750984Y-78414520D01*
X238560508Y-78366901D01*
X238227174Y-78366901D01*
X238036698Y-78414520D01*
X237941460Y-78509758D01*
X237893841Y-78604996D01*
X238893841Y-79462139D02*
X237893841Y-79462139D01*
X237893841Y-79700234D01*
X237941460Y-79843092D01*
X238036698Y-79938330D01*
X238131936Y-79985949D01*
X238322412Y-80033568D01*
X238465270Y-80033568D01*
X238655746Y-79985949D01*
X238750984Y-79938330D01*
X238846222Y-79843092D01*
X238893841Y-79700234D01*
X238893841Y-79462139D01*
X238370031Y-80462139D02*
X238370031Y-80795473D01*
X238893841Y-80938330D02*
X238893841Y-80462139D01*
X237893841Y-80462139D01*
X237893841Y-80938330D01*
X257893841Y-76938330D02*
X256893841Y-76938330D01*
X256893841Y-77176425D01*
X256941460Y-77319283D01*
X257036698Y-77414521D01*
X257131936Y-77462140D01*
X257322412Y-77509759D01*
X257465270Y-77509759D01*
X257655746Y-77462140D01*
X257750984Y-77414521D01*
X257846222Y-77319283D01*
X257893841Y-77176425D01*
X257893841Y-76938330D01*
X257893841Y-77938330D02*
X256893841Y-77938330D01*
X256893841Y-78604996D02*
X256893841Y-78795473D01*
X256941460Y-78890711D01*
X257036698Y-78985949D01*
X257227174Y-79033568D01*
X257560508Y-79033568D01*
X257750984Y-78985949D01*
X257846222Y-78890711D01*
X257893841Y-78795473D01*
X257893841Y-78604996D01*
X257846222Y-78509758D01*
X257750984Y-78414520D01*
X257560508Y-78366901D01*
X257227174Y-78366901D01*
X257036698Y-78414520D01*
X256941460Y-78509758D01*
X256893841Y-78604996D01*
X257893841Y-79462139D02*
X256893841Y-79462139D01*
X256893841Y-79700234D01*
X256941460Y-79843092D01*
X257036698Y-79938330D01*
X257131936Y-79985949D01*
X257322412Y-80033568D01*
X257465270Y-80033568D01*
X257655746Y-79985949D01*
X257750984Y-79938330D01*
X257846222Y-79843092D01*
X257893841Y-79700234D01*
X257893841Y-79462139D01*
X257370031Y-80462139D02*
X257370031Y-80795473D01*
X257893841Y-80938330D02*
X257893841Y-80462139D01*
X256893841Y-80462139D01*
X256893841Y-80938330D01*
X257893841Y-56938330D02*
X256893841Y-56938330D01*
X256893841Y-57176425D01*
X256941460Y-57319283D01*
X257036698Y-57414521D01*
X257131936Y-57462140D01*
X257322412Y-57509759D01*
X257465270Y-57509759D01*
X257655746Y-57462140D01*
X257750984Y-57414521D01*
X257846222Y-57319283D01*
X257893841Y-57176425D01*
X257893841Y-56938330D01*
X257893841Y-57938330D02*
X256893841Y-57938330D01*
X256893841Y-58604996D02*
X256893841Y-58795473D01*
X256941460Y-58890711D01*
X257036698Y-58985949D01*
X257227174Y-59033568D01*
X257560508Y-59033568D01*
X257750984Y-58985949D01*
X257846222Y-58890711D01*
X257893841Y-58795473D01*
X257893841Y-58604996D01*
X257846222Y-58509758D01*
X257750984Y-58414520D01*
X257560508Y-58366901D01*
X257227174Y-58366901D01*
X257036698Y-58414520D01*
X256941460Y-58509758D01*
X256893841Y-58604996D01*
X257893841Y-59462139D02*
X256893841Y-59462139D01*
X256893841Y-59700234D01*
X256941460Y-59843092D01*
X257036698Y-59938330D01*
X257131936Y-59985949D01*
X257322412Y-60033568D01*
X257465270Y-60033568D01*
X257655746Y-59985949D01*
X257750984Y-59938330D01*
X257846222Y-59843092D01*
X257893841Y-59700234D01*
X257893841Y-59462139D01*
X257370031Y-60462139D02*
X257370031Y-60795473D01*
X257893841Y-60938330D02*
X257893841Y-60462139D01*
X256893841Y-60462139D01*
X256893841Y-60938330D01*
X238893841Y-56938330D02*
X237893841Y-56938330D01*
X237893841Y-57176425D01*
X237941460Y-57319283D01*
X238036698Y-57414521D01*
X238131936Y-57462140D01*
X238322412Y-57509759D01*
X238465270Y-57509759D01*
X238655746Y-57462140D01*
X238750984Y-57414521D01*
X238846222Y-57319283D01*
X238893841Y-57176425D01*
X238893841Y-56938330D01*
X238893841Y-57938330D02*
X237893841Y-57938330D01*
X237893841Y-58604996D02*
X237893841Y-58795473D01*
X237941460Y-58890711D01*
X238036698Y-58985949D01*
X238227174Y-59033568D01*
X238560508Y-59033568D01*
X238750984Y-58985949D01*
X238846222Y-58890711D01*
X238893841Y-58795473D01*
X238893841Y-58604996D01*
X238846222Y-58509758D01*
X238750984Y-58414520D01*
X238560508Y-58366901D01*
X238227174Y-58366901D01*
X238036698Y-58414520D01*
X237941460Y-58509758D01*
X237893841Y-58604996D01*
X238893841Y-59462139D02*
X237893841Y-59462139D01*
X237893841Y-59700234D01*
X237941460Y-59843092D01*
X238036698Y-59938330D01*
X238131936Y-59985949D01*
X238322412Y-60033568D01*
X238465270Y-60033568D01*
X238655746Y-59985949D01*
X238750984Y-59938330D01*
X238846222Y-59843092D01*
X238893841Y-59700234D01*
X238893841Y-59462139D01*
X238370031Y-60462139D02*
X238370031Y-60795473D01*
X238893841Y-60938330D02*
X238893841Y-60462139D01*
X237893841Y-60462139D01*
X237893841Y-60938330D01*
X219893841Y-57438330D02*
X218893841Y-57438330D01*
X218893841Y-57676425D01*
X218941460Y-57819283D01*
X219036698Y-57914521D01*
X219131936Y-57962140D01*
X219322412Y-58009759D01*
X219465270Y-58009759D01*
X219655746Y-57962140D01*
X219750984Y-57914521D01*
X219846222Y-57819283D01*
X219893841Y-57676425D01*
X219893841Y-57438330D01*
X219893841Y-58438330D02*
X218893841Y-58438330D01*
X218893841Y-59104996D02*
X218893841Y-59295473D01*
X218941460Y-59390711D01*
X219036698Y-59485949D01*
X219227174Y-59533568D01*
X219560508Y-59533568D01*
X219750984Y-59485949D01*
X219846222Y-59390711D01*
X219893841Y-59295473D01*
X219893841Y-59104996D01*
X219846222Y-59009758D01*
X219750984Y-58914520D01*
X219560508Y-58866901D01*
X219227174Y-58866901D01*
X219036698Y-58914520D01*
X218941460Y-59009758D01*
X218893841Y-59104996D01*
X219893841Y-59962139D02*
X218893841Y-59962139D01*
X218893841Y-60200234D01*
X218941460Y-60343092D01*
X219036698Y-60438330D01*
X219131936Y-60485949D01*
X219322412Y-60533568D01*
X219465270Y-60533568D01*
X219655746Y-60485949D01*
X219750984Y-60438330D01*
X219846222Y-60343092D01*
X219893841Y-60200234D01*
X219893841Y-59962139D01*
X219370031Y-60962139D02*
X219370031Y-61295473D01*
X219893841Y-61438330D02*
X219893841Y-60962139D01*
X218893841Y-60962139D01*
X218893841Y-61438330D01*
X200893841Y-56938330D02*
X199893841Y-56938330D01*
X199893841Y-57176425D01*
X199941460Y-57319283D01*
X200036698Y-57414521D01*
X200131936Y-57462140D01*
X200322412Y-57509759D01*
X200465270Y-57509759D01*
X200655746Y-57462140D01*
X200750984Y-57414521D01*
X200846222Y-57319283D01*
X200893841Y-57176425D01*
X200893841Y-56938330D01*
X200893841Y-57938330D02*
X199893841Y-57938330D01*
X199893841Y-58604996D02*
X199893841Y-58795473D01*
X199941460Y-58890711D01*
X200036698Y-58985949D01*
X200227174Y-59033568D01*
X200560508Y-59033568D01*
X200750984Y-58985949D01*
X200846222Y-58890711D01*
X200893841Y-58795473D01*
X200893841Y-58604996D01*
X200846222Y-58509758D01*
X200750984Y-58414520D01*
X200560508Y-58366901D01*
X200227174Y-58366901D01*
X200036698Y-58414520D01*
X199941460Y-58509758D01*
X199893841Y-58604996D01*
X200893841Y-59462139D02*
X199893841Y-59462139D01*
X199893841Y-59700234D01*
X199941460Y-59843092D01*
X200036698Y-59938330D01*
X200131936Y-59985949D01*
X200322412Y-60033568D01*
X200465270Y-60033568D01*
X200655746Y-59985949D01*
X200750984Y-59938330D01*
X200846222Y-59843092D01*
X200893841Y-59700234D01*
X200893841Y-59462139D01*
X200370031Y-60462139D02*
X200370031Y-60795473D01*
X200893841Y-60938330D02*
X200893841Y-60462139D01*
X199893841Y-60462139D01*
X199893841Y-60938330D01*
X181893841Y-59938330D02*
X180893841Y-59938330D01*
X180893841Y-60176425D01*
X180941460Y-60319283D01*
X181036698Y-60414521D01*
X181131936Y-60462140D01*
X181322412Y-60509759D01*
X181465270Y-60509759D01*
X181655746Y-60462140D01*
X181750984Y-60414521D01*
X181846222Y-60319283D01*
X181893841Y-60176425D01*
X181893841Y-59938330D01*
X181893841Y-60938330D02*
X180893841Y-60938330D01*
X180893841Y-61604996D02*
X180893841Y-61795473D01*
X180941460Y-61890711D01*
X181036698Y-61985949D01*
X181227174Y-62033568D01*
X181560508Y-62033568D01*
X181750984Y-61985949D01*
X181846222Y-61890711D01*
X181893841Y-61795473D01*
X181893841Y-61604996D01*
X181846222Y-61509758D01*
X181750984Y-61414520D01*
X181560508Y-61366901D01*
X181227174Y-61366901D01*
X181036698Y-61414520D01*
X180941460Y-61509758D01*
X180893841Y-61604996D01*
X181893841Y-62462139D02*
X180893841Y-62462139D01*
X180893841Y-62700234D01*
X180941460Y-62843092D01*
X181036698Y-62938330D01*
X181131936Y-62985949D01*
X181322412Y-63033568D01*
X181465270Y-63033568D01*
X181655746Y-62985949D01*
X181750984Y-62938330D01*
X181846222Y-62843092D01*
X181893841Y-62700234D01*
X181893841Y-62462139D01*
X181370031Y-63462139D02*
X181370031Y-63795473D01*
X181893841Y-63938330D02*
X181893841Y-63462139D01*
X180893841Y-63462139D01*
X180893841Y-63938330D01*
X162893841Y-56938330D02*
X161893841Y-56938330D01*
X161893841Y-57176425D01*
X161941460Y-57319283D01*
X162036698Y-57414521D01*
X162131936Y-57462140D01*
X162322412Y-57509759D01*
X162465270Y-57509759D01*
X162655746Y-57462140D01*
X162750984Y-57414521D01*
X162846222Y-57319283D01*
X162893841Y-57176425D01*
X162893841Y-56938330D01*
X162893841Y-57938330D02*
X161893841Y-57938330D01*
X161893841Y-58604996D02*
X161893841Y-58795473D01*
X161941460Y-58890711D01*
X162036698Y-58985949D01*
X162227174Y-59033568D01*
X162560508Y-59033568D01*
X162750984Y-58985949D01*
X162846222Y-58890711D01*
X162893841Y-58795473D01*
X162893841Y-58604996D01*
X162846222Y-58509758D01*
X162750984Y-58414520D01*
X162560508Y-58366901D01*
X162227174Y-58366901D01*
X162036698Y-58414520D01*
X161941460Y-58509758D01*
X161893841Y-58604996D01*
X162893841Y-59462139D02*
X161893841Y-59462139D01*
X161893841Y-59700234D01*
X161941460Y-59843092D01*
X162036698Y-59938330D01*
X162131936Y-59985949D01*
X162322412Y-60033568D01*
X162465270Y-60033568D01*
X162655746Y-59985949D01*
X162750984Y-59938330D01*
X162846222Y-59843092D01*
X162893841Y-59700234D01*
X162893841Y-59462139D01*
X162370031Y-60462139D02*
X162370031Y-60795473D01*
X162893841Y-60938330D02*
X162893841Y-60462139D01*
X161893841Y-60462139D01*
X161893841Y-60938330D01*
X158390710Y-72010921D02*
X158390710Y-71010921D01*
X158152615Y-71010921D01*
X158009757Y-71058540D01*
X157914519Y-71153778D01*
X157866900Y-71249016D01*
X157819281Y-71439492D01*
X157819281Y-71582350D01*
X157866900Y-71772826D01*
X157914519Y-71868064D01*
X158009757Y-71963302D01*
X158152615Y-72010921D01*
X158390710Y-72010921D01*
X157390710Y-72010921D02*
X157390710Y-71010921D01*
X156724044Y-71010921D02*
X156533567Y-71010921D01*
X156438329Y-71058540D01*
X156343091Y-71153778D01*
X156295472Y-71344254D01*
X156295472Y-71677588D01*
X156343091Y-71868064D01*
X156438329Y-71963302D01*
X156533567Y-72010921D01*
X156724044Y-72010921D01*
X156819282Y-71963302D01*
X156914520Y-71868064D01*
X156962139Y-71677588D01*
X156962139Y-71344254D01*
X156914520Y-71153778D01*
X156819282Y-71058540D01*
X156724044Y-71010921D01*
X155866901Y-72010921D02*
X155866901Y-71010921D01*
X155628806Y-71010921D01*
X155485948Y-71058540D01*
X155390710Y-71153778D01*
X155343091Y-71249016D01*
X155295472Y-71439492D01*
X155295472Y-71582350D01*
X155343091Y-71772826D01*
X155390710Y-71868064D01*
X155485948Y-71963302D01*
X155628806Y-72010921D01*
X155866901Y-72010921D01*
X154866901Y-71487111D02*
X154533567Y-71487111D01*
X154390710Y-72010921D02*
X154866901Y-72010921D01*
X154866901Y-71010921D01*
X154390710Y-71010921D01*
X138561670Y-64893841D02*
X138561670Y-63893841D01*
X138323575Y-63893841D01*
X138180717Y-63941460D01*
X138085479Y-64036698D01*
X138037860Y-64131936D01*
X137990241Y-64322412D01*
X137990241Y-64465270D01*
X138037860Y-64655746D01*
X138085479Y-64750984D01*
X138180717Y-64846222D01*
X138323575Y-64893841D01*
X138561670Y-64893841D01*
X137561670Y-64893841D02*
X137561670Y-63893841D01*
X136895004Y-63893841D02*
X136704527Y-63893841D01*
X136609289Y-63941460D01*
X136514051Y-64036698D01*
X136466432Y-64227174D01*
X136466432Y-64560508D01*
X136514051Y-64750984D01*
X136609289Y-64846222D01*
X136704527Y-64893841D01*
X136895004Y-64893841D01*
X136990242Y-64846222D01*
X137085480Y-64750984D01*
X137133099Y-64560508D01*
X137133099Y-64227174D01*
X137085480Y-64036698D01*
X136990242Y-63941460D01*
X136895004Y-63893841D01*
X136037861Y-64893841D02*
X136037861Y-63893841D01*
X135799766Y-63893841D01*
X135656908Y-63941460D01*
X135561670Y-64036698D01*
X135514051Y-64131936D01*
X135466432Y-64322412D01*
X135466432Y-64465270D01*
X135514051Y-64655746D01*
X135561670Y-64750984D01*
X135656908Y-64846222D01*
X135799766Y-64893841D01*
X136037861Y-64893841D01*
X135037861Y-64370031D02*
X134704527Y-64370031D01*
X134561670Y-64893841D02*
X135037861Y-64893841D01*
X135037861Y-63893841D01*
X134561670Y-63893841D01*
X122393841Y-57438330D02*
X121393841Y-57438330D01*
X121393841Y-57676425D01*
X121441460Y-57819283D01*
X121536698Y-57914521D01*
X121631936Y-57962140D01*
X121822412Y-58009759D01*
X121965270Y-58009759D01*
X122155746Y-57962140D01*
X122250984Y-57914521D01*
X122346222Y-57819283D01*
X122393841Y-57676425D01*
X122393841Y-57438330D01*
X122393841Y-58438330D02*
X121393841Y-58438330D01*
X121393841Y-59104996D02*
X121393841Y-59295473D01*
X121441460Y-59390711D01*
X121536698Y-59485949D01*
X121727174Y-59533568D01*
X122060508Y-59533568D01*
X122250984Y-59485949D01*
X122346222Y-59390711D01*
X122393841Y-59295473D01*
X122393841Y-59104996D01*
X122346222Y-59009758D01*
X122250984Y-58914520D01*
X122060508Y-58866901D01*
X121727174Y-58866901D01*
X121536698Y-58914520D01*
X121441460Y-59009758D01*
X121393841Y-59104996D01*
X122393841Y-59962139D02*
X121393841Y-59962139D01*
X121393841Y-60200234D01*
X121441460Y-60343092D01*
X121536698Y-60438330D01*
X121631936Y-60485949D01*
X121822412Y-60533568D01*
X121965270Y-60533568D01*
X122155746Y-60485949D01*
X122250984Y-60438330D01*
X122346222Y-60343092D01*
X122393841Y-60200234D01*
X122393841Y-59962139D01*
X121870031Y-60962139D02*
X121870031Y-61295473D01*
X122393841Y-61438330D02*
X122393841Y-60962139D01*
X121393841Y-60962139D01*
X121393841Y-61438330D01*
X102893841Y-57438330D02*
X101893841Y-57438330D01*
X101893841Y-57676425D01*
X101941460Y-57819283D01*
X102036698Y-57914521D01*
X102131936Y-57962140D01*
X102322412Y-58009759D01*
X102465270Y-58009759D01*
X102655746Y-57962140D01*
X102750984Y-57914521D01*
X102846222Y-57819283D01*
X102893841Y-57676425D01*
X102893841Y-57438330D01*
X102893841Y-58438330D02*
X101893841Y-58438330D01*
X101893841Y-59104996D02*
X101893841Y-59295473D01*
X101941460Y-59390711D01*
X102036698Y-59485949D01*
X102227174Y-59533568D01*
X102560508Y-59533568D01*
X102750984Y-59485949D01*
X102846222Y-59390711D01*
X102893841Y-59295473D01*
X102893841Y-59104996D01*
X102846222Y-59009758D01*
X102750984Y-58914520D01*
X102560508Y-58866901D01*
X102227174Y-58866901D01*
X102036698Y-58914520D01*
X101941460Y-59009758D01*
X101893841Y-59104996D01*
X102893841Y-59962139D02*
X101893841Y-59962139D01*
X101893841Y-60200234D01*
X101941460Y-60343092D01*
X102036698Y-60438330D01*
X102131936Y-60485949D01*
X102322412Y-60533568D01*
X102465270Y-60533568D01*
X102655746Y-60485949D01*
X102750984Y-60438330D01*
X102846222Y-60343092D01*
X102893841Y-60200234D01*
X102893841Y-59962139D01*
X102370031Y-60962139D02*
X102370031Y-61295473D01*
X102893841Y-61438330D02*
X102893841Y-60962139D01*
X101893841Y-60962139D01*
X101893841Y-61438330D01*
X83893841Y-57438330D02*
X82893841Y-57438330D01*
X82893841Y-57676425D01*
X82941460Y-57819283D01*
X83036698Y-57914521D01*
X83131936Y-57962140D01*
X83322412Y-58009759D01*
X83465270Y-58009759D01*
X83655746Y-57962140D01*
X83750984Y-57914521D01*
X83846222Y-57819283D01*
X83893841Y-57676425D01*
X83893841Y-57438330D01*
X83893841Y-58438330D02*
X82893841Y-58438330D01*
X82893841Y-59104996D02*
X82893841Y-59295473D01*
X82941460Y-59390711D01*
X83036698Y-59485949D01*
X83227174Y-59533568D01*
X83560508Y-59533568D01*
X83750984Y-59485949D01*
X83846222Y-59390711D01*
X83893841Y-59295473D01*
X83893841Y-59104996D01*
X83846222Y-59009758D01*
X83750984Y-58914520D01*
X83560508Y-58866901D01*
X83227174Y-58866901D01*
X83036698Y-58914520D01*
X82941460Y-59009758D01*
X82893841Y-59104996D01*
X83893841Y-59962139D02*
X82893841Y-59962139D01*
X82893841Y-60200234D01*
X82941460Y-60343092D01*
X83036698Y-60438330D01*
X83131936Y-60485949D01*
X83322412Y-60533568D01*
X83465270Y-60533568D01*
X83655746Y-60485949D01*
X83750984Y-60438330D01*
X83846222Y-60343092D01*
X83893841Y-60200234D01*
X83893841Y-59962139D01*
X83370031Y-60962139D02*
X83370031Y-61295473D01*
X83893841Y-61438330D02*
X83893841Y-60962139D01*
X82893841Y-60962139D01*
X82893841Y-61438330D01*
X64893841Y-57438330D02*
X63893841Y-57438330D01*
X63893841Y-57676425D01*
X63941460Y-57819283D01*
X64036698Y-57914521D01*
X64131936Y-57962140D01*
X64322412Y-58009759D01*
X64465270Y-58009759D01*
X64655746Y-57962140D01*
X64750984Y-57914521D01*
X64846222Y-57819283D01*
X64893841Y-57676425D01*
X64893841Y-57438330D01*
X64893841Y-58438330D02*
X63893841Y-58438330D01*
X63893841Y-59104996D02*
X63893841Y-59295473D01*
X63941460Y-59390711D01*
X64036698Y-59485949D01*
X64227174Y-59533568D01*
X64560508Y-59533568D01*
X64750984Y-59485949D01*
X64846222Y-59390711D01*
X64893841Y-59295473D01*
X64893841Y-59104996D01*
X64846222Y-59009758D01*
X64750984Y-58914520D01*
X64560508Y-58866901D01*
X64227174Y-58866901D01*
X64036698Y-58914520D01*
X63941460Y-59009758D01*
X63893841Y-59104996D01*
X64893841Y-59962139D02*
X63893841Y-59962139D01*
X63893841Y-60200234D01*
X63941460Y-60343092D01*
X64036698Y-60438330D01*
X64131936Y-60485949D01*
X64322412Y-60533568D01*
X64465270Y-60533568D01*
X64655746Y-60485949D01*
X64750984Y-60438330D01*
X64846222Y-60343092D01*
X64893841Y-60200234D01*
X64893841Y-59962139D01*
X64370031Y-60962139D02*
X64370031Y-61295473D01*
X64893841Y-61438330D02*
X64893841Y-60962139D01*
X63893841Y-60962139D01*
X63893841Y-61438330D01*
X46393841Y-57438330D02*
X45393841Y-57438330D01*
X45393841Y-57676425D01*
X45441460Y-57819283D01*
X45536698Y-57914521D01*
X45631936Y-57962140D01*
X45822412Y-58009759D01*
X45965270Y-58009759D01*
X46155746Y-57962140D01*
X46250984Y-57914521D01*
X46346222Y-57819283D01*
X46393841Y-57676425D01*
X46393841Y-57438330D01*
X46393841Y-58438330D02*
X45393841Y-58438330D01*
X45393841Y-59104996D02*
X45393841Y-59295473D01*
X45441460Y-59390711D01*
X45536698Y-59485949D01*
X45727174Y-59533568D01*
X46060508Y-59533568D01*
X46250984Y-59485949D01*
X46346222Y-59390711D01*
X46393841Y-59295473D01*
X46393841Y-59104996D01*
X46346222Y-59009758D01*
X46250984Y-58914520D01*
X46060508Y-58866901D01*
X45727174Y-58866901D01*
X45536698Y-58914520D01*
X45441460Y-59009758D01*
X45393841Y-59104996D01*
X46393841Y-59962139D02*
X45393841Y-59962139D01*
X45393841Y-60200234D01*
X45441460Y-60343092D01*
X45536698Y-60438330D01*
X45631936Y-60485949D01*
X45822412Y-60533568D01*
X45965270Y-60533568D01*
X46155746Y-60485949D01*
X46250984Y-60438330D01*
X46346222Y-60343092D01*
X46393841Y-60200234D01*
X46393841Y-59962139D01*
X45870031Y-60962139D02*
X45870031Y-61295473D01*
X46393841Y-61438330D02*
X46393841Y-60962139D01*
X45393841Y-60962139D01*
X45393841Y-61438330D01*
X27393841Y-57938330D02*
X26393841Y-57938330D01*
X26393841Y-58176425D01*
X26441460Y-58319283D01*
X26536698Y-58414521D01*
X26631936Y-58462140D01*
X26822412Y-58509759D01*
X26965270Y-58509759D01*
X27155746Y-58462140D01*
X27250984Y-58414521D01*
X27346222Y-58319283D01*
X27393841Y-58176425D01*
X27393841Y-57938330D01*
X27393841Y-58938330D02*
X26393841Y-58938330D01*
X26393841Y-59604996D02*
X26393841Y-59795473D01*
X26441460Y-59890711D01*
X26536698Y-59985949D01*
X26727174Y-60033568D01*
X27060508Y-60033568D01*
X27250984Y-59985949D01*
X27346222Y-59890711D01*
X27393841Y-59795473D01*
X27393841Y-59604996D01*
X27346222Y-59509758D01*
X27250984Y-59414520D01*
X27060508Y-59366901D01*
X26727174Y-59366901D01*
X26536698Y-59414520D01*
X26441460Y-59509758D01*
X26393841Y-59604996D01*
X27393841Y-60462139D02*
X26393841Y-60462139D01*
X26393841Y-60700234D01*
X26441460Y-60843092D01*
X26536698Y-60938330D01*
X26631936Y-60985949D01*
X26822412Y-61033568D01*
X26965270Y-61033568D01*
X27155746Y-60985949D01*
X27250984Y-60938330D01*
X27346222Y-60843092D01*
X27393841Y-60700234D01*
X27393841Y-60462139D01*
X26870031Y-61462139D02*
X26870031Y-61795473D01*
X27393841Y-61938330D02*
X27393841Y-61462139D01*
X26393841Y-61462139D01*
X26393841Y-61938330D01*
X27068841Y-38313330D02*
X26068841Y-38313330D01*
X26068841Y-38551425D01*
X26116460Y-38694283D01*
X26211698Y-38789521D01*
X26306936Y-38837140D01*
X26497412Y-38884759D01*
X26640270Y-38884759D01*
X26830746Y-38837140D01*
X26925984Y-38789521D01*
X27021222Y-38694283D01*
X27068841Y-38551425D01*
X27068841Y-38313330D01*
X27068841Y-39313330D02*
X26068841Y-39313330D01*
X26068841Y-39979996D02*
X26068841Y-40170473D01*
X26116460Y-40265711D01*
X26211698Y-40360949D01*
X26402174Y-40408568D01*
X26735508Y-40408568D01*
X26925984Y-40360949D01*
X27021222Y-40265711D01*
X27068841Y-40170473D01*
X27068841Y-39979996D01*
X27021222Y-39884758D01*
X26925984Y-39789520D01*
X26735508Y-39741901D01*
X26402174Y-39741901D01*
X26211698Y-39789520D01*
X26116460Y-39884758D01*
X26068841Y-39979996D01*
X27068841Y-40837139D02*
X26068841Y-40837139D01*
X26068841Y-41075234D01*
X26116460Y-41218092D01*
X26211698Y-41313330D01*
X26306936Y-41360949D01*
X26497412Y-41408568D01*
X26640270Y-41408568D01*
X26830746Y-41360949D01*
X26925984Y-41313330D01*
X27021222Y-41218092D01*
X27068841Y-41075234D01*
X27068841Y-40837139D01*
X26545031Y-41837139D02*
X26545031Y-42170473D01*
X27068841Y-42313330D02*
X27068841Y-41837139D01*
X26068841Y-41837139D01*
X26068841Y-42313330D01*
X46118841Y-38313330D02*
X45118841Y-38313330D01*
X45118841Y-38551425D01*
X45166460Y-38694283D01*
X45261698Y-38789521D01*
X45356936Y-38837140D01*
X45547412Y-38884759D01*
X45690270Y-38884759D01*
X45880746Y-38837140D01*
X45975984Y-38789521D01*
X46071222Y-38694283D01*
X46118841Y-38551425D01*
X46118841Y-38313330D01*
X46118841Y-39313330D02*
X45118841Y-39313330D01*
X45118841Y-39979996D02*
X45118841Y-40170473D01*
X45166460Y-40265711D01*
X45261698Y-40360949D01*
X45452174Y-40408568D01*
X45785508Y-40408568D01*
X45975984Y-40360949D01*
X46071222Y-40265711D01*
X46118841Y-40170473D01*
X46118841Y-39979996D01*
X46071222Y-39884758D01*
X45975984Y-39789520D01*
X45785508Y-39741901D01*
X45452174Y-39741901D01*
X45261698Y-39789520D01*
X45166460Y-39884758D01*
X45118841Y-39979996D01*
X46118841Y-40837139D02*
X45118841Y-40837139D01*
X45118841Y-41075234D01*
X45166460Y-41218092D01*
X45261698Y-41313330D01*
X45356936Y-41360949D01*
X45547412Y-41408568D01*
X45690270Y-41408568D01*
X45880746Y-41360949D01*
X45975984Y-41313330D01*
X46071222Y-41218092D01*
X46118841Y-41075234D01*
X46118841Y-40837139D01*
X45595031Y-41837139D02*
X45595031Y-42170473D01*
X46118841Y-42313330D02*
X46118841Y-41837139D01*
X45118841Y-41837139D01*
X45118841Y-42313330D01*
X65118841Y-38313330D02*
X64118841Y-38313330D01*
X64118841Y-38551425D01*
X64166460Y-38694283D01*
X64261698Y-38789521D01*
X64356936Y-38837140D01*
X64547412Y-38884759D01*
X64690270Y-38884759D01*
X64880746Y-38837140D01*
X64975984Y-38789521D01*
X65071222Y-38694283D01*
X65118841Y-38551425D01*
X65118841Y-38313330D01*
X65118841Y-39313330D02*
X64118841Y-39313330D01*
X64118841Y-39979996D02*
X64118841Y-40170473D01*
X64166460Y-40265711D01*
X64261698Y-40360949D01*
X64452174Y-40408568D01*
X64785508Y-40408568D01*
X64975984Y-40360949D01*
X65071222Y-40265711D01*
X65118841Y-40170473D01*
X65118841Y-39979996D01*
X65071222Y-39884758D01*
X64975984Y-39789520D01*
X64785508Y-39741901D01*
X64452174Y-39741901D01*
X64261698Y-39789520D01*
X64166460Y-39884758D01*
X64118841Y-39979996D01*
X65118841Y-40837139D02*
X64118841Y-40837139D01*
X64118841Y-41075234D01*
X64166460Y-41218092D01*
X64261698Y-41313330D01*
X64356936Y-41360949D01*
X64547412Y-41408568D01*
X64690270Y-41408568D01*
X64880746Y-41360949D01*
X64975984Y-41313330D01*
X65071222Y-41218092D01*
X65118841Y-41075234D01*
X65118841Y-40837139D01*
X64595031Y-41837139D02*
X64595031Y-42170473D01*
X65118841Y-42313330D02*
X65118841Y-41837139D01*
X64118841Y-41837139D01*
X64118841Y-42313330D01*
X83893841Y-38263330D02*
X82893841Y-38263330D01*
X82893841Y-38501425D01*
X82941460Y-38644283D01*
X83036698Y-38739521D01*
X83131936Y-38787140D01*
X83322412Y-38834759D01*
X83465270Y-38834759D01*
X83655746Y-38787140D01*
X83750984Y-38739521D01*
X83846222Y-38644283D01*
X83893841Y-38501425D01*
X83893841Y-38263330D01*
X83893841Y-39263330D02*
X82893841Y-39263330D01*
X82893841Y-39929996D02*
X82893841Y-40120473D01*
X82941460Y-40215711D01*
X83036698Y-40310949D01*
X83227174Y-40358568D01*
X83560508Y-40358568D01*
X83750984Y-40310949D01*
X83846222Y-40215711D01*
X83893841Y-40120473D01*
X83893841Y-39929996D01*
X83846222Y-39834758D01*
X83750984Y-39739520D01*
X83560508Y-39691901D01*
X83227174Y-39691901D01*
X83036698Y-39739520D01*
X82941460Y-39834758D01*
X82893841Y-39929996D01*
X83893841Y-40787139D02*
X82893841Y-40787139D01*
X82893841Y-41025234D01*
X82941460Y-41168092D01*
X83036698Y-41263330D01*
X83131936Y-41310949D01*
X83322412Y-41358568D01*
X83465270Y-41358568D01*
X83655746Y-41310949D01*
X83750984Y-41263330D01*
X83846222Y-41168092D01*
X83893841Y-41025234D01*
X83893841Y-40787139D01*
X83370031Y-41787139D02*
X83370031Y-42120473D01*
X83893841Y-42263330D02*
X83893841Y-41787139D01*
X82893841Y-41787139D01*
X82893841Y-42263330D01*
X103118841Y-38213330D02*
X102118841Y-38213330D01*
X102118841Y-38451425D01*
X102166460Y-38594283D01*
X102261698Y-38689521D01*
X102356936Y-38737140D01*
X102547412Y-38784759D01*
X102690270Y-38784759D01*
X102880746Y-38737140D01*
X102975984Y-38689521D01*
X103071222Y-38594283D01*
X103118841Y-38451425D01*
X103118841Y-38213330D01*
X103118841Y-39213330D02*
X102118841Y-39213330D01*
X102118841Y-39879996D02*
X102118841Y-40070473D01*
X102166460Y-40165711D01*
X102261698Y-40260949D01*
X102452174Y-40308568D01*
X102785508Y-40308568D01*
X102975984Y-40260949D01*
X103071222Y-40165711D01*
X103118841Y-40070473D01*
X103118841Y-39879996D01*
X103071222Y-39784758D01*
X102975984Y-39689520D01*
X102785508Y-39641901D01*
X102452174Y-39641901D01*
X102261698Y-39689520D01*
X102166460Y-39784758D01*
X102118841Y-39879996D01*
X103118841Y-40737139D02*
X102118841Y-40737139D01*
X102118841Y-40975234D01*
X102166460Y-41118092D01*
X102261698Y-41213330D01*
X102356936Y-41260949D01*
X102547412Y-41308568D01*
X102690270Y-41308568D01*
X102880746Y-41260949D01*
X102975984Y-41213330D01*
X103071222Y-41118092D01*
X103118841Y-40975234D01*
X103118841Y-40737139D01*
X102595031Y-41737139D02*
X102595031Y-42070473D01*
X103118841Y-42213330D02*
X103118841Y-41737139D01*
X102118841Y-41737139D01*
X102118841Y-42213330D01*
X122068841Y-38263330D02*
X121068841Y-38263330D01*
X121068841Y-38501425D01*
X121116460Y-38644283D01*
X121211698Y-38739521D01*
X121306936Y-38787140D01*
X121497412Y-38834759D01*
X121640270Y-38834759D01*
X121830746Y-38787140D01*
X121925984Y-38739521D01*
X122021222Y-38644283D01*
X122068841Y-38501425D01*
X122068841Y-38263330D01*
X122068841Y-39263330D02*
X121068841Y-39263330D01*
X121068841Y-39929996D02*
X121068841Y-40120473D01*
X121116460Y-40215711D01*
X121211698Y-40310949D01*
X121402174Y-40358568D01*
X121735508Y-40358568D01*
X121925984Y-40310949D01*
X122021222Y-40215711D01*
X122068841Y-40120473D01*
X122068841Y-39929996D01*
X122021222Y-39834758D01*
X121925984Y-39739520D01*
X121735508Y-39691901D01*
X121402174Y-39691901D01*
X121211698Y-39739520D01*
X121116460Y-39834758D01*
X121068841Y-39929996D01*
X122068841Y-40787139D02*
X121068841Y-40787139D01*
X121068841Y-41025234D01*
X121116460Y-41168092D01*
X121211698Y-41263330D01*
X121306936Y-41310949D01*
X121497412Y-41358568D01*
X121640270Y-41358568D01*
X121830746Y-41310949D01*
X121925984Y-41263330D01*
X122021222Y-41168092D01*
X122068841Y-41025234D01*
X122068841Y-40787139D01*
X121545031Y-41787139D02*
X121545031Y-42120473D01*
X122068841Y-42263330D02*
X122068841Y-41787139D01*
X121068841Y-41787139D01*
X121068841Y-42263330D01*
X124793841Y-38263330D02*
X123793841Y-38263330D01*
X123793841Y-38501425D01*
X123841460Y-38644283D01*
X123936698Y-38739521D01*
X124031936Y-38787140D01*
X124222412Y-38834759D01*
X124365270Y-38834759D01*
X124555746Y-38787140D01*
X124650984Y-38739521D01*
X124746222Y-38644283D01*
X124793841Y-38501425D01*
X124793841Y-38263330D01*
X124793841Y-39263330D02*
X123793841Y-39263330D01*
X123793841Y-39929996D02*
X123793841Y-40120473D01*
X123841460Y-40215711D01*
X123936698Y-40310949D01*
X124127174Y-40358568D01*
X124460508Y-40358568D01*
X124650984Y-40310949D01*
X124746222Y-40215711D01*
X124793841Y-40120473D01*
X124793841Y-39929996D01*
X124746222Y-39834758D01*
X124650984Y-39739520D01*
X124460508Y-39691901D01*
X124127174Y-39691901D01*
X123936698Y-39739520D01*
X123841460Y-39834758D01*
X123793841Y-39929996D01*
X124793841Y-40787139D02*
X123793841Y-40787139D01*
X123793841Y-41025234D01*
X123841460Y-41168092D01*
X123936698Y-41263330D01*
X124031936Y-41310949D01*
X124222412Y-41358568D01*
X124365270Y-41358568D01*
X124555746Y-41310949D01*
X124650984Y-41263330D01*
X124746222Y-41168092D01*
X124793841Y-41025234D01*
X124793841Y-40787139D01*
X124270031Y-41787139D02*
X124270031Y-42120473D01*
X124793841Y-42263330D02*
X124793841Y-41787139D01*
X123793841Y-41787139D01*
X123793841Y-42263330D01*
X160118841Y-38263330D02*
X159118841Y-38263330D01*
X159118841Y-38501425D01*
X159166460Y-38644283D01*
X159261698Y-38739521D01*
X159356936Y-38787140D01*
X159547412Y-38834759D01*
X159690270Y-38834759D01*
X159880746Y-38787140D01*
X159975984Y-38739521D01*
X160071222Y-38644283D01*
X160118841Y-38501425D01*
X160118841Y-38263330D01*
X160118841Y-39263330D02*
X159118841Y-39263330D01*
X159118841Y-39929996D02*
X159118841Y-40120473D01*
X159166460Y-40215711D01*
X159261698Y-40310949D01*
X159452174Y-40358568D01*
X159785508Y-40358568D01*
X159975984Y-40310949D01*
X160071222Y-40215711D01*
X160118841Y-40120473D01*
X160118841Y-39929996D01*
X160071222Y-39834758D01*
X159975984Y-39739520D01*
X159785508Y-39691901D01*
X159452174Y-39691901D01*
X159261698Y-39739520D01*
X159166460Y-39834758D01*
X159118841Y-39929996D01*
X160118841Y-40787139D02*
X159118841Y-40787139D01*
X159118841Y-41025234D01*
X159166460Y-41168092D01*
X159261698Y-41263330D01*
X159356936Y-41310949D01*
X159547412Y-41358568D01*
X159690270Y-41358568D01*
X159880746Y-41310949D01*
X159975984Y-41263330D01*
X160071222Y-41168092D01*
X160118841Y-41025234D01*
X160118841Y-40787139D01*
X159595031Y-41787139D02*
X159595031Y-42120473D01*
X160118841Y-42263330D02*
X160118841Y-41787139D01*
X159118841Y-41787139D01*
X159118841Y-42263330D01*
X162793841Y-38313330D02*
X161793841Y-38313330D01*
X161793841Y-38551425D01*
X161841460Y-38694283D01*
X161936698Y-38789521D01*
X162031936Y-38837140D01*
X162222412Y-38884759D01*
X162365270Y-38884759D01*
X162555746Y-38837140D01*
X162650984Y-38789521D01*
X162746222Y-38694283D01*
X162793841Y-38551425D01*
X162793841Y-38313330D01*
X162793841Y-39313330D02*
X161793841Y-39313330D01*
X161793841Y-39979996D02*
X161793841Y-40170473D01*
X161841460Y-40265711D01*
X161936698Y-40360949D01*
X162127174Y-40408568D01*
X162460508Y-40408568D01*
X162650984Y-40360949D01*
X162746222Y-40265711D01*
X162793841Y-40170473D01*
X162793841Y-39979996D01*
X162746222Y-39884758D01*
X162650984Y-39789520D01*
X162460508Y-39741901D01*
X162127174Y-39741901D01*
X161936698Y-39789520D01*
X161841460Y-39884758D01*
X161793841Y-39979996D01*
X162793841Y-40837139D02*
X161793841Y-40837139D01*
X161793841Y-41075234D01*
X161841460Y-41218092D01*
X161936698Y-41313330D01*
X162031936Y-41360949D01*
X162222412Y-41408568D01*
X162365270Y-41408568D01*
X162555746Y-41360949D01*
X162650984Y-41313330D01*
X162746222Y-41218092D01*
X162793841Y-41075234D01*
X162793841Y-40837139D01*
X162270031Y-41837139D02*
X162270031Y-42170473D01*
X162793841Y-42313330D02*
X162793841Y-41837139D01*
X161793841Y-41837139D01*
X161793841Y-42313330D01*
X181893841Y-33438330D02*
X180893841Y-33438330D01*
X180893841Y-33676425D01*
X180941460Y-33819283D01*
X181036698Y-33914521D01*
X181131936Y-33962140D01*
X181322412Y-34009759D01*
X181465270Y-34009759D01*
X181655746Y-33962140D01*
X181750984Y-33914521D01*
X181846222Y-33819283D01*
X181893841Y-33676425D01*
X181893841Y-33438330D01*
X181893841Y-34438330D02*
X180893841Y-34438330D01*
X180893841Y-35104996D02*
X180893841Y-35295473D01*
X180941460Y-35390711D01*
X181036698Y-35485949D01*
X181227174Y-35533568D01*
X181560508Y-35533568D01*
X181750984Y-35485949D01*
X181846222Y-35390711D01*
X181893841Y-35295473D01*
X181893841Y-35104996D01*
X181846222Y-35009758D01*
X181750984Y-34914520D01*
X181560508Y-34866901D01*
X181227174Y-34866901D01*
X181036698Y-34914520D01*
X180941460Y-35009758D01*
X180893841Y-35104996D01*
X181893841Y-35962139D02*
X180893841Y-35962139D01*
X180893841Y-36200234D01*
X180941460Y-36343092D01*
X181036698Y-36438330D01*
X181131936Y-36485949D01*
X181322412Y-36533568D01*
X181465270Y-36533568D01*
X181655746Y-36485949D01*
X181750984Y-36438330D01*
X181846222Y-36343092D01*
X181893841Y-36200234D01*
X181893841Y-35962139D01*
X181370031Y-36962139D02*
X181370031Y-37295473D01*
X181893841Y-37438330D02*
X181893841Y-36962139D01*
X180893841Y-36962139D01*
X180893841Y-37438330D01*
X200793841Y-38263330D02*
X199793841Y-38263330D01*
X199793841Y-38501425D01*
X199841460Y-38644283D01*
X199936698Y-38739521D01*
X200031936Y-38787140D01*
X200222412Y-38834759D01*
X200365270Y-38834759D01*
X200555746Y-38787140D01*
X200650984Y-38739521D01*
X200746222Y-38644283D01*
X200793841Y-38501425D01*
X200793841Y-38263330D01*
X200793841Y-39263330D02*
X199793841Y-39263330D01*
X199793841Y-39929996D02*
X199793841Y-40120473D01*
X199841460Y-40215711D01*
X199936698Y-40310949D01*
X200127174Y-40358568D01*
X200460508Y-40358568D01*
X200650984Y-40310949D01*
X200746222Y-40215711D01*
X200793841Y-40120473D01*
X200793841Y-39929996D01*
X200746222Y-39834758D01*
X200650984Y-39739520D01*
X200460508Y-39691901D01*
X200127174Y-39691901D01*
X199936698Y-39739520D01*
X199841460Y-39834758D01*
X199793841Y-39929996D01*
X200793841Y-40787139D02*
X199793841Y-40787139D01*
X199793841Y-41025234D01*
X199841460Y-41168092D01*
X199936698Y-41263330D01*
X200031936Y-41310949D01*
X200222412Y-41358568D01*
X200365270Y-41358568D01*
X200555746Y-41310949D01*
X200650984Y-41263330D01*
X200746222Y-41168092D01*
X200793841Y-41025234D01*
X200793841Y-40787139D01*
X200270031Y-41787139D02*
X200270031Y-42120473D01*
X200793841Y-42263330D02*
X200793841Y-41787139D01*
X199793841Y-41787139D01*
X199793841Y-42263330D01*
X219793841Y-38313330D02*
X218793841Y-38313330D01*
X218793841Y-38551425D01*
X218841460Y-38694283D01*
X218936698Y-38789521D01*
X219031936Y-38837140D01*
X219222412Y-38884759D01*
X219365270Y-38884759D01*
X219555746Y-38837140D01*
X219650984Y-38789521D01*
X219746222Y-38694283D01*
X219793841Y-38551425D01*
X219793841Y-38313330D01*
X219793841Y-39313330D02*
X218793841Y-39313330D01*
X218793841Y-39979996D02*
X218793841Y-40170473D01*
X218841460Y-40265711D01*
X218936698Y-40360949D01*
X219127174Y-40408568D01*
X219460508Y-40408568D01*
X219650984Y-40360949D01*
X219746222Y-40265711D01*
X219793841Y-40170473D01*
X219793841Y-39979996D01*
X219746222Y-39884758D01*
X219650984Y-39789520D01*
X219460508Y-39741901D01*
X219127174Y-39741901D01*
X218936698Y-39789520D01*
X218841460Y-39884758D01*
X218793841Y-39979996D01*
X219793841Y-40837139D02*
X218793841Y-40837139D01*
X218793841Y-41075234D01*
X218841460Y-41218092D01*
X218936698Y-41313330D01*
X219031936Y-41360949D01*
X219222412Y-41408568D01*
X219365270Y-41408568D01*
X219555746Y-41360949D01*
X219650984Y-41313330D01*
X219746222Y-41218092D01*
X219793841Y-41075234D01*
X219793841Y-40837139D01*
X219270031Y-41837139D02*
X219270031Y-42170473D01*
X219793841Y-42313330D02*
X219793841Y-41837139D01*
X218793841Y-41837139D01*
X218793841Y-42313330D01*
X238793841Y-38313330D02*
X237793841Y-38313330D01*
X237793841Y-38551425D01*
X237841460Y-38694283D01*
X237936698Y-38789521D01*
X238031936Y-38837140D01*
X238222412Y-38884759D01*
X238365270Y-38884759D01*
X238555746Y-38837140D01*
X238650984Y-38789521D01*
X238746222Y-38694283D01*
X238793841Y-38551425D01*
X238793841Y-38313330D01*
X238793841Y-39313330D02*
X237793841Y-39313330D01*
X237793841Y-39979996D02*
X237793841Y-40170473D01*
X237841460Y-40265711D01*
X237936698Y-40360949D01*
X238127174Y-40408568D01*
X238460508Y-40408568D01*
X238650984Y-40360949D01*
X238746222Y-40265711D01*
X238793841Y-40170473D01*
X238793841Y-39979996D01*
X238746222Y-39884758D01*
X238650984Y-39789520D01*
X238460508Y-39741901D01*
X238127174Y-39741901D01*
X237936698Y-39789520D01*
X237841460Y-39884758D01*
X237793841Y-39979996D01*
X238793841Y-40837139D02*
X237793841Y-40837139D01*
X237793841Y-41075234D01*
X237841460Y-41218092D01*
X237936698Y-41313330D01*
X238031936Y-41360949D01*
X238222412Y-41408568D01*
X238365270Y-41408568D01*
X238555746Y-41360949D01*
X238650984Y-41313330D01*
X238746222Y-41218092D01*
X238793841Y-41075234D01*
X238793841Y-40837139D01*
X238270031Y-41837139D02*
X238270031Y-42170473D01*
X238793841Y-42313330D02*
X238793841Y-41837139D01*
X237793841Y-41837139D01*
X237793841Y-42313330D01*
X257893841Y-38488330D02*
X256893841Y-38488330D01*
X256893841Y-38726425D01*
X256941460Y-38869283D01*
X257036698Y-38964521D01*
X257131936Y-39012140D01*
X257322412Y-39059759D01*
X257465270Y-39059759D01*
X257655746Y-39012140D01*
X257750984Y-38964521D01*
X257846222Y-38869283D01*
X257893841Y-38726425D01*
X257893841Y-38488330D01*
X257893841Y-39488330D02*
X256893841Y-39488330D01*
X256893841Y-40154996D02*
X256893841Y-40345473D01*
X256941460Y-40440711D01*
X257036698Y-40535949D01*
X257227174Y-40583568D01*
X257560508Y-40583568D01*
X257750984Y-40535949D01*
X257846222Y-40440711D01*
X257893841Y-40345473D01*
X257893841Y-40154996D01*
X257846222Y-40059758D01*
X257750984Y-39964520D01*
X257560508Y-39916901D01*
X257227174Y-39916901D01*
X257036698Y-39964520D01*
X256941460Y-40059758D01*
X256893841Y-40154996D01*
X257893841Y-41012139D02*
X256893841Y-41012139D01*
X256893841Y-41250234D01*
X256941460Y-41393092D01*
X257036698Y-41488330D01*
X257131936Y-41535949D01*
X257322412Y-41583568D01*
X257465270Y-41583568D01*
X257655746Y-41535949D01*
X257750984Y-41488330D01*
X257846222Y-41393092D01*
X257893841Y-41250234D01*
X257893841Y-41012139D01*
X257370031Y-42012139D02*
X257370031Y-42345473D01*
X257893841Y-42488330D02*
X257893841Y-42012139D01*
X256893841Y-42012139D01*
X256893841Y-42488330D01*
X257868841Y-19288330D02*
X256868841Y-19288330D01*
X256868841Y-19526425D01*
X256916460Y-19669283D01*
X257011698Y-19764521D01*
X257106936Y-19812140D01*
X257297412Y-19859759D01*
X257440270Y-19859759D01*
X257630746Y-19812140D01*
X257725984Y-19764521D01*
X257821222Y-19669283D01*
X257868841Y-19526425D01*
X257868841Y-19288330D01*
X257868841Y-20288330D02*
X256868841Y-20288330D01*
X256868841Y-20954996D02*
X256868841Y-21145473D01*
X256916460Y-21240711D01*
X257011698Y-21335949D01*
X257202174Y-21383568D01*
X257535508Y-21383568D01*
X257725984Y-21335949D01*
X257821222Y-21240711D01*
X257868841Y-21145473D01*
X257868841Y-20954996D01*
X257821222Y-20859758D01*
X257725984Y-20764520D01*
X257535508Y-20716901D01*
X257202174Y-20716901D01*
X257011698Y-20764520D01*
X256916460Y-20859758D01*
X256868841Y-20954996D01*
X257868841Y-21812139D02*
X256868841Y-21812139D01*
X256868841Y-22050234D01*
X256916460Y-22193092D01*
X257011698Y-22288330D01*
X257106936Y-22335949D01*
X257297412Y-22383568D01*
X257440270Y-22383568D01*
X257630746Y-22335949D01*
X257725984Y-22288330D01*
X257821222Y-22193092D01*
X257868841Y-22050234D01*
X257868841Y-21812139D01*
X257345031Y-22812139D02*
X257345031Y-23145473D01*
X257868841Y-23288330D02*
X257868841Y-22812139D01*
X256868841Y-22812139D01*
X256868841Y-23288330D01*
X238893841Y-19288330D02*
X237893841Y-19288330D01*
X237893841Y-19526425D01*
X237941460Y-19669283D01*
X238036698Y-19764521D01*
X238131936Y-19812140D01*
X238322412Y-19859759D01*
X238465270Y-19859759D01*
X238655746Y-19812140D01*
X238750984Y-19764521D01*
X238846222Y-19669283D01*
X238893841Y-19526425D01*
X238893841Y-19288330D01*
X238893841Y-20288330D02*
X237893841Y-20288330D01*
X237893841Y-20954996D02*
X237893841Y-21145473D01*
X237941460Y-21240711D01*
X238036698Y-21335949D01*
X238227174Y-21383568D01*
X238560508Y-21383568D01*
X238750984Y-21335949D01*
X238846222Y-21240711D01*
X238893841Y-21145473D01*
X238893841Y-20954996D01*
X238846222Y-20859758D01*
X238750984Y-20764520D01*
X238560508Y-20716901D01*
X238227174Y-20716901D01*
X238036698Y-20764520D01*
X237941460Y-20859758D01*
X237893841Y-20954996D01*
X238893841Y-21812139D02*
X237893841Y-21812139D01*
X237893841Y-22050234D01*
X237941460Y-22193092D01*
X238036698Y-22288330D01*
X238131936Y-22335949D01*
X238322412Y-22383568D01*
X238465270Y-22383568D01*
X238655746Y-22335949D01*
X238750984Y-22288330D01*
X238846222Y-22193092D01*
X238893841Y-22050234D01*
X238893841Y-21812139D01*
X238370031Y-22812139D02*
X238370031Y-23145473D01*
X238893841Y-23288330D02*
X238893841Y-22812139D01*
X237893841Y-22812139D01*
X237893841Y-23288330D01*
X219893841Y-19213330D02*
X218893841Y-19213330D01*
X218893841Y-19451425D01*
X218941460Y-19594283D01*
X219036698Y-19689521D01*
X219131936Y-19737140D01*
X219322412Y-19784759D01*
X219465270Y-19784759D01*
X219655746Y-19737140D01*
X219750984Y-19689521D01*
X219846222Y-19594283D01*
X219893841Y-19451425D01*
X219893841Y-19213330D01*
X219893841Y-20213330D02*
X218893841Y-20213330D01*
X218893841Y-20879996D02*
X218893841Y-21070473D01*
X218941460Y-21165711D01*
X219036698Y-21260949D01*
X219227174Y-21308568D01*
X219560508Y-21308568D01*
X219750984Y-21260949D01*
X219846222Y-21165711D01*
X219893841Y-21070473D01*
X219893841Y-20879996D01*
X219846222Y-20784758D01*
X219750984Y-20689520D01*
X219560508Y-20641901D01*
X219227174Y-20641901D01*
X219036698Y-20689520D01*
X218941460Y-20784758D01*
X218893841Y-20879996D01*
X219893841Y-21737139D02*
X218893841Y-21737139D01*
X218893841Y-21975234D01*
X218941460Y-22118092D01*
X219036698Y-22213330D01*
X219131936Y-22260949D01*
X219322412Y-22308568D01*
X219465270Y-22308568D01*
X219655746Y-22260949D01*
X219750984Y-22213330D01*
X219846222Y-22118092D01*
X219893841Y-21975234D01*
X219893841Y-21737139D01*
X219370031Y-22737139D02*
X219370031Y-23070473D01*
X219893841Y-23213330D02*
X219893841Y-22737139D01*
X218893841Y-22737139D01*
X218893841Y-23213330D01*
X200768841Y-19213330D02*
X199768841Y-19213330D01*
X199768841Y-19451425D01*
X199816460Y-19594283D01*
X199911698Y-19689521D01*
X200006936Y-19737140D01*
X200197412Y-19784759D01*
X200340270Y-19784759D01*
X200530746Y-19737140D01*
X200625984Y-19689521D01*
X200721222Y-19594283D01*
X200768841Y-19451425D01*
X200768841Y-19213330D01*
X200768841Y-20213330D02*
X199768841Y-20213330D01*
X199768841Y-20879996D02*
X199768841Y-21070473D01*
X199816460Y-21165711D01*
X199911698Y-21260949D01*
X200102174Y-21308568D01*
X200435508Y-21308568D01*
X200625984Y-21260949D01*
X200721222Y-21165711D01*
X200768841Y-21070473D01*
X200768841Y-20879996D01*
X200721222Y-20784758D01*
X200625984Y-20689520D01*
X200435508Y-20641901D01*
X200102174Y-20641901D01*
X199911698Y-20689520D01*
X199816460Y-20784758D01*
X199768841Y-20879996D01*
X200768841Y-21737139D02*
X199768841Y-21737139D01*
X199768841Y-21975234D01*
X199816460Y-22118092D01*
X199911698Y-22213330D01*
X200006936Y-22260949D01*
X200197412Y-22308568D01*
X200340270Y-22308568D01*
X200530746Y-22260949D01*
X200625984Y-22213330D01*
X200721222Y-22118092D01*
X200768841Y-21975234D01*
X200768841Y-21737139D01*
X200245031Y-22737139D02*
X200245031Y-23070473D01*
X200768841Y-23213330D02*
X200768841Y-22737139D01*
X199768841Y-22737139D01*
X199768841Y-23213330D01*
X181918841Y-19238330D02*
X180918841Y-19238330D01*
X180918841Y-19476425D01*
X180966460Y-19619283D01*
X181061698Y-19714521D01*
X181156936Y-19762140D01*
X181347412Y-19809759D01*
X181490270Y-19809759D01*
X181680746Y-19762140D01*
X181775984Y-19714521D01*
X181871222Y-19619283D01*
X181918841Y-19476425D01*
X181918841Y-19238330D01*
X181918841Y-20238330D02*
X180918841Y-20238330D01*
X180918841Y-20904996D02*
X180918841Y-21095473D01*
X180966460Y-21190711D01*
X181061698Y-21285949D01*
X181252174Y-21333568D01*
X181585508Y-21333568D01*
X181775984Y-21285949D01*
X181871222Y-21190711D01*
X181918841Y-21095473D01*
X181918841Y-20904996D01*
X181871222Y-20809758D01*
X181775984Y-20714520D01*
X181585508Y-20666901D01*
X181252174Y-20666901D01*
X181061698Y-20714520D01*
X180966460Y-20809758D01*
X180918841Y-20904996D01*
X181918841Y-21762139D02*
X180918841Y-21762139D01*
X180918841Y-22000234D01*
X180966460Y-22143092D01*
X181061698Y-22238330D01*
X181156936Y-22285949D01*
X181347412Y-22333568D01*
X181490270Y-22333568D01*
X181680746Y-22285949D01*
X181775984Y-22238330D01*
X181871222Y-22143092D01*
X181918841Y-22000234D01*
X181918841Y-21762139D01*
X181395031Y-22762139D02*
X181395031Y-23095473D01*
X181918841Y-23238330D02*
X181918841Y-22762139D01*
X180918841Y-22762139D01*
X180918841Y-23238330D01*
X162893841Y-19213330D02*
X161893841Y-19213330D01*
X161893841Y-19451425D01*
X161941460Y-19594283D01*
X162036698Y-19689521D01*
X162131936Y-19737140D01*
X162322412Y-19784759D01*
X162465270Y-19784759D01*
X162655746Y-19737140D01*
X162750984Y-19689521D01*
X162846222Y-19594283D01*
X162893841Y-19451425D01*
X162893841Y-19213330D01*
X162893841Y-20213330D02*
X161893841Y-20213330D01*
X161893841Y-20879996D02*
X161893841Y-21070473D01*
X161941460Y-21165711D01*
X162036698Y-21260949D01*
X162227174Y-21308568D01*
X162560508Y-21308568D01*
X162750984Y-21260949D01*
X162846222Y-21165711D01*
X162893841Y-21070473D01*
X162893841Y-20879996D01*
X162846222Y-20784758D01*
X162750984Y-20689520D01*
X162560508Y-20641901D01*
X162227174Y-20641901D01*
X162036698Y-20689520D01*
X161941460Y-20784758D01*
X161893841Y-20879996D01*
X162893841Y-21737139D02*
X161893841Y-21737139D01*
X161893841Y-21975234D01*
X161941460Y-22118092D01*
X162036698Y-22213330D01*
X162131936Y-22260949D01*
X162322412Y-22308568D01*
X162465270Y-22308568D01*
X162655746Y-22260949D01*
X162750984Y-22213330D01*
X162846222Y-22118092D01*
X162893841Y-21975234D01*
X162893841Y-21737139D01*
X162370031Y-22737139D02*
X162370031Y-23070473D01*
X162893841Y-23213330D02*
X162893841Y-22737139D01*
X161893841Y-22737139D01*
X161893841Y-23213330D01*
X160143841Y-19213330D02*
X159143841Y-19213330D01*
X159143841Y-19451425D01*
X159191460Y-19594283D01*
X159286698Y-19689521D01*
X159381936Y-19737140D01*
X159572412Y-19784759D01*
X159715270Y-19784759D01*
X159905746Y-19737140D01*
X160000984Y-19689521D01*
X160096222Y-19594283D01*
X160143841Y-19451425D01*
X160143841Y-19213330D01*
X160143841Y-20213330D02*
X159143841Y-20213330D01*
X159143841Y-20879996D02*
X159143841Y-21070473D01*
X159191460Y-21165711D01*
X159286698Y-21260949D01*
X159477174Y-21308568D01*
X159810508Y-21308568D01*
X160000984Y-21260949D01*
X160096222Y-21165711D01*
X160143841Y-21070473D01*
X160143841Y-20879996D01*
X160096222Y-20784758D01*
X160000984Y-20689520D01*
X159810508Y-20641901D01*
X159477174Y-20641901D01*
X159286698Y-20689520D01*
X159191460Y-20784758D01*
X159143841Y-20879996D01*
X160143841Y-21737139D02*
X159143841Y-21737139D01*
X159143841Y-21975234D01*
X159191460Y-22118092D01*
X159286698Y-22213330D01*
X159381936Y-22260949D01*
X159572412Y-22308568D01*
X159715270Y-22308568D01*
X159905746Y-22260949D01*
X160000984Y-22213330D01*
X160096222Y-22118092D01*
X160143841Y-21975234D01*
X160143841Y-21737139D01*
X159620031Y-22737139D02*
X159620031Y-23070473D01*
X160143841Y-23213330D02*
X160143841Y-22737139D01*
X159143841Y-22737139D01*
X159143841Y-23213330D01*
X124918841Y-19338330D02*
X123918841Y-19338330D01*
X123918841Y-19576425D01*
X123966460Y-19719283D01*
X124061698Y-19814521D01*
X124156936Y-19862140D01*
X124347412Y-19909759D01*
X124490270Y-19909759D01*
X124680746Y-19862140D01*
X124775984Y-19814521D01*
X124871222Y-19719283D01*
X124918841Y-19576425D01*
X124918841Y-19338330D01*
X124918841Y-20338330D02*
X123918841Y-20338330D01*
X123918841Y-21004996D02*
X123918841Y-21195473D01*
X123966460Y-21290711D01*
X124061698Y-21385949D01*
X124252174Y-21433568D01*
X124585508Y-21433568D01*
X124775984Y-21385949D01*
X124871222Y-21290711D01*
X124918841Y-21195473D01*
X124918841Y-21004996D01*
X124871222Y-20909758D01*
X124775984Y-20814520D01*
X124585508Y-20766901D01*
X124252174Y-20766901D01*
X124061698Y-20814520D01*
X123966460Y-20909758D01*
X123918841Y-21004996D01*
X124918841Y-21862139D02*
X123918841Y-21862139D01*
X123918841Y-22100234D01*
X123966460Y-22243092D01*
X124061698Y-22338330D01*
X124156936Y-22385949D01*
X124347412Y-22433568D01*
X124490270Y-22433568D01*
X124680746Y-22385949D01*
X124775984Y-22338330D01*
X124871222Y-22243092D01*
X124918841Y-22100234D01*
X124918841Y-21862139D01*
X124395031Y-22862139D02*
X124395031Y-23195473D01*
X124918841Y-23338330D02*
X124918841Y-22862139D01*
X123918841Y-22862139D01*
X123918841Y-23338330D01*
X122368841Y-19313330D02*
X121368841Y-19313330D01*
X121368841Y-19551425D01*
X121416460Y-19694283D01*
X121511698Y-19789521D01*
X121606936Y-19837140D01*
X121797412Y-19884759D01*
X121940270Y-19884759D01*
X122130746Y-19837140D01*
X122225984Y-19789521D01*
X122321222Y-19694283D01*
X122368841Y-19551425D01*
X122368841Y-19313330D01*
X122368841Y-20313330D02*
X121368841Y-20313330D01*
X121368841Y-20979996D02*
X121368841Y-21170473D01*
X121416460Y-21265711D01*
X121511698Y-21360949D01*
X121702174Y-21408568D01*
X122035508Y-21408568D01*
X122225984Y-21360949D01*
X122321222Y-21265711D01*
X122368841Y-21170473D01*
X122368841Y-20979996D01*
X122321222Y-20884758D01*
X122225984Y-20789520D01*
X122035508Y-20741901D01*
X121702174Y-20741901D01*
X121511698Y-20789520D01*
X121416460Y-20884758D01*
X121368841Y-20979996D01*
X122368841Y-21837139D02*
X121368841Y-21837139D01*
X121368841Y-22075234D01*
X121416460Y-22218092D01*
X121511698Y-22313330D01*
X121606936Y-22360949D01*
X121797412Y-22408568D01*
X121940270Y-22408568D01*
X122130746Y-22360949D01*
X122225984Y-22313330D01*
X122321222Y-22218092D01*
X122368841Y-22075234D01*
X122368841Y-21837139D01*
X121845031Y-22837139D02*
X121845031Y-23170473D01*
X122368841Y-23313330D02*
X122368841Y-22837139D01*
X121368841Y-22837139D01*
X121368841Y-23313330D01*
X103393841Y-19363330D02*
X102393841Y-19363330D01*
X102393841Y-19601425D01*
X102441460Y-19744283D01*
X102536698Y-19839521D01*
X102631936Y-19887140D01*
X102822412Y-19934759D01*
X102965270Y-19934759D01*
X103155746Y-19887140D01*
X103250984Y-19839521D01*
X103346222Y-19744283D01*
X103393841Y-19601425D01*
X103393841Y-19363330D01*
X103393841Y-20363330D02*
X102393841Y-20363330D01*
X102393841Y-21029996D02*
X102393841Y-21220473D01*
X102441460Y-21315711D01*
X102536698Y-21410949D01*
X102727174Y-21458568D01*
X103060508Y-21458568D01*
X103250984Y-21410949D01*
X103346222Y-21315711D01*
X103393841Y-21220473D01*
X103393841Y-21029996D01*
X103346222Y-20934758D01*
X103250984Y-20839520D01*
X103060508Y-20791901D01*
X102727174Y-20791901D01*
X102536698Y-20839520D01*
X102441460Y-20934758D01*
X102393841Y-21029996D01*
X103393841Y-21887139D02*
X102393841Y-21887139D01*
X102393841Y-22125234D01*
X102441460Y-22268092D01*
X102536698Y-22363330D01*
X102631936Y-22410949D01*
X102822412Y-22458568D01*
X102965270Y-22458568D01*
X103155746Y-22410949D01*
X103250984Y-22363330D01*
X103346222Y-22268092D01*
X103393841Y-22125234D01*
X103393841Y-21887139D01*
X102870031Y-22887139D02*
X102870031Y-23220473D01*
X103393841Y-23363330D02*
X103393841Y-22887139D01*
X102393841Y-22887139D01*
X102393841Y-23363330D01*
X84393841Y-19313330D02*
X83393841Y-19313330D01*
X83393841Y-19551425D01*
X83441460Y-19694283D01*
X83536698Y-19789521D01*
X83631936Y-19837140D01*
X83822412Y-19884759D01*
X83965270Y-19884759D01*
X84155746Y-19837140D01*
X84250984Y-19789521D01*
X84346222Y-19694283D01*
X84393841Y-19551425D01*
X84393841Y-19313330D01*
X84393841Y-20313330D02*
X83393841Y-20313330D01*
X83393841Y-20979996D02*
X83393841Y-21170473D01*
X83441460Y-21265711D01*
X83536698Y-21360949D01*
X83727174Y-21408568D01*
X84060508Y-21408568D01*
X84250984Y-21360949D01*
X84346222Y-21265711D01*
X84393841Y-21170473D01*
X84393841Y-20979996D01*
X84346222Y-20884758D01*
X84250984Y-20789520D01*
X84060508Y-20741901D01*
X83727174Y-20741901D01*
X83536698Y-20789520D01*
X83441460Y-20884758D01*
X83393841Y-20979996D01*
X84393841Y-21837139D02*
X83393841Y-21837139D01*
X83393841Y-22075234D01*
X83441460Y-22218092D01*
X83536698Y-22313330D01*
X83631936Y-22360949D01*
X83822412Y-22408568D01*
X83965270Y-22408568D01*
X84155746Y-22360949D01*
X84250984Y-22313330D01*
X84346222Y-22218092D01*
X84393841Y-22075234D01*
X84393841Y-21837139D01*
X83870031Y-22837139D02*
X83870031Y-23170473D01*
X84393841Y-23313330D02*
X84393841Y-22837139D01*
X83393841Y-22837139D01*
X83393841Y-23313330D01*
X64868841Y-19363330D02*
X63868841Y-19363330D01*
X63868841Y-19601425D01*
X63916460Y-19744283D01*
X64011698Y-19839521D01*
X64106936Y-19887140D01*
X64297412Y-19934759D01*
X64440270Y-19934759D01*
X64630746Y-19887140D01*
X64725984Y-19839521D01*
X64821222Y-19744283D01*
X64868841Y-19601425D01*
X64868841Y-19363330D01*
X64868841Y-20363330D02*
X63868841Y-20363330D01*
X63868841Y-21029996D02*
X63868841Y-21220473D01*
X63916460Y-21315711D01*
X64011698Y-21410949D01*
X64202174Y-21458568D01*
X64535508Y-21458568D01*
X64725984Y-21410949D01*
X64821222Y-21315711D01*
X64868841Y-21220473D01*
X64868841Y-21029996D01*
X64821222Y-20934758D01*
X64725984Y-20839520D01*
X64535508Y-20791901D01*
X64202174Y-20791901D01*
X64011698Y-20839520D01*
X63916460Y-20934758D01*
X63868841Y-21029996D01*
X64868841Y-21887139D02*
X63868841Y-21887139D01*
X63868841Y-22125234D01*
X63916460Y-22268092D01*
X64011698Y-22363330D01*
X64106936Y-22410949D01*
X64297412Y-22458568D01*
X64440270Y-22458568D01*
X64630746Y-22410949D01*
X64725984Y-22363330D01*
X64821222Y-22268092D01*
X64868841Y-22125234D01*
X64868841Y-21887139D01*
X64345031Y-22887139D02*
X64345031Y-23220473D01*
X64868841Y-23363330D02*
X64868841Y-22887139D01*
X63868841Y-22887139D01*
X63868841Y-23363330D01*
X46143841Y-19363330D02*
X45143841Y-19363330D01*
X45143841Y-19601425D01*
X45191460Y-19744283D01*
X45286698Y-19839521D01*
X45381936Y-19887140D01*
X45572412Y-19934759D01*
X45715270Y-19934759D01*
X45905746Y-19887140D01*
X46000984Y-19839521D01*
X46096222Y-19744283D01*
X46143841Y-19601425D01*
X46143841Y-19363330D01*
X46143841Y-20363330D02*
X45143841Y-20363330D01*
X45143841Y-21029996D02*
X45143841Y-21220473D01*
X45191460Y-21315711D01*
X45286698Y-21410949D01*
X45477174Y-21458568D01*
X45810508Y-21458568D01*
X46000984Y-21410949D01*
X46096222Y-21315711D01*
X46143841Y-21220473D01*
X46143841Y-21029996D01*
X46096222Y-20934758D01*
X46000984Y-20839520D01*
X45810508Y-20791901D01*
X45477174Y-20791901D01*
X45286698Y-20839520D01*
X45191460Y-20934758D01*
X45143841Y-21029996D01*
X46143841Y-21887139D02*
X45143841Y-21887139D01*
X45143841Y-22125234D01*
X45191460Y-22268092D01*
X45286698Y-22363330D01*
X45381936Y-22410949D01*
X45572412Y-22458568D01*
X45715270Y-22458568D01*
X45905746Y-22410949D01*
X46000984Y-22363330D01*
X46096222Y-22268092D01*
X46143841Y-22125234D01*
X46143841Y-21887139D01*
X45620031Y-22887139D02*
X45620031Y-23220473D01*
X46143841Y-23363330D02*
X46143841Y-22887139D01*
X45143841Y-22887139D01*
X45143841Y-23363330D01*
X134142857Y-22352381D02*
X134047618Y-22352381D01*
X133952380Y-22400000D01*
X133904761Y-22447619D01*
X133857142Y-22542857D01*
X133809523Y-22733333D01*
X133809523Y-22971429D01*
X133857142Y-23161905D01*
X133904761Y-23257143D01*
X133952380Y-23304762D01*
X134047618Y-23352381D01*
X134142857Y-23352381D01*
X134238095Y-23304762D01*
X134285714Y-23257143D01*
X134333333Y-23161905D01*
X134380952Y-22971429D01*
X134380952Y-22733333D01*
X134333333Y-22542857D01*
X134285714Y-22447619D01*
X134238095Y-22400000D01*
X134142857Y-22352381D01*
X133380952Y-23257143D02*
X133333333Y-23304762D01*
X133380952Y-23352381D01*
X133428571Y-23304762D01*
X133380952Y-23257143D01*
X133380952Y-23352381D01*
X132380952Y-23352381D02*
X132952381Y-23352381D01*
X132666667Y-23352381D02*
X132666667Y-22352381D01*
X132761905Y-22495238D01*
X132857143Y-22590476D01*
X132952381Y-22638095D01*
X131523809Y-22685714D02*
X131523809Y-23352381D01*
X131952381Y-22685714D02*
X131952381Y-23209524D01*
X131904762Y-23304762D01*
X131809524Y-23352381D01*
X131666666Y-23352381D01*
X131571428Y-23304762D01*
X131523809Y-23257143D01*
X130714285Y-22828571D02*
X131047619Y-22828571D01*
X131047619Y-23352381D02*
X131047619Y-22352381D01*
X130571428Y-22352381D01*
X153647619Y-25238095D02*
X153600000Y-25285714D01*
X153552381Y-25380952D01*
X153552381Y-25619048D01*
X153600000Y-25714286D01*
X153647619Y-25761905D01*
X153742857Y-25809524D01*
X153838095Y-25809524D01*
X153980952Y-25761905D01*
X154552381Y-25190476D01*
X154552381Y-25809524D01*
X153647619Y-26190476D02*
X153600000Y-26238095D01*
X153552381Y-26333333D01*
X153552381Y-26571429D01*
X153600000Y-26666667D01*
X153647619Y-26714286D01*
X153742857Y-26761905D01*
X153838095Y-26761905D01*
X153980952Y-26714286D01*
X154552381Y-26142857D01*
X154552381Y-26761905D01*
X138353081Y-7952381D02*
X139162605Y-7952381D01*
X139257843Y-8000000D01*
X139305462Y-8047619D01*
X139353081Y-8142857D01*
X139353081Y-8333334D01*
X139305462Y-8428572D01*
X139257843Y-8476191D01*
X139162605Y-8523810D01*
X138353081Y-8523810D01*
X139305462Y-8952381D02*
X139353081Y-9095238D01*
X139353081Y-9333334D01*
X139305462Y-9428572D01*
X139257843Y-9476191D01*
X139162605Y-9523810D01*
X139067367Y-9523810D01*
X138972129Y-9476191D01*
X138924510Y-9428572D01*
X138876890Y-9333334D01*
X138829271Y-9142857D01*
X138781652Y-9047619D01*
X138734033Y-9000000D01*
X138638795Y-8952381D01*
X138543557Y-8952381D01*
X138448319Y-9000000D01*
X138400700Y-9047619D01*
X138353081Y-9142857D01*
X138353081Y-9380953D01*
X138400700Y-9523810D01*
X138829271Y-10285715D02*
X138876890Y-10428572D01*
X138924510Y-10476191D01*
X139019748Y-10523810D01*
X139162605Y-10523810D01*
X139257843Y-10476191D01*
X139305462Y-10428572D01*
X139353081Y-10333334D01*
X139353081Y-9952381D01*
X138353081Y-9952381D01*
X138353081Y-10285715D01*
X138400700Y-10380953D01*
X138448319Y-10428572D01*
X138543557Y-10476191D01*
X138638795Y-10476191D01*
X138734033Y-10428572D01*
X138781652Y-10380953D01*
X138829271Y-10285715D01*
X138829271Y-9952381D01*
X139448319Y-10714286D02*
X139448319Y-11476191D01*
X138353081Y-11904762D02*
X138353081Y-12095239D01*
X138400700Y-12190477D01*
X138495938Y-12285715D01*
X138686414Y-12333334D01*
X139019748Y-12333334D01*
X139210224Y-12285715D01*
X139305462Y-12190477D01*
X139353081Y-12095239D01*
X139353081Y-11904762D01*
X139305462Y-11809524D01*
X139210224Y-11714286D01*
X139019748Y-11666667D01*
X138686414Y-11666667D01*
X138495938Y-11714286D01*
X138400700Y-11809524D01*
X138353081Y-11904762D01*
X138353081Y-12619048D02*
X138353081Y-13190477D01*
X139353081Y-12904762D02*
X138353081Y-12904762D01*
X138400700Y-14047620D02*
X138353081Y-13952382D01*
X138353081Y-13809525D01*
X138400700Y-13666667D01*
X138495938Y-13571429D01*
X138591176Y-13523810D01*
X138781652Y-13476191D01*
X138924510Y-13476191D01*
X139114986Y-13523810D01*
X139210224Y-13571429D01*
X139305462Y-13666667D01*
X139353081Y-13809525D01*
X139353081Y-13904763D01*
X139305462Y-14047620D01*
X139257843Y-14095239D01*
X138924510Y-14095239D01*
X138924510Y-13904763D01*
X147166667Y-43658571D02*
X147166667Y-44134762D01*
X147452381Y-43563333D02*
X146452381Y-43896666D01*
X147452381Y-44230000D01*
X146452381Y-44420476D02*
X146452381Y-44991905D01*
X147452381Y-44706190D02*
X146452381Y-44706190D01*
X147452381Y-45325238D02*
X146785714Y-45325238D01*
X146880952Y-45325238D02*
X146833333Y-45372857D01*
X146785714Y-45468095D01*
X146785714Y-45610953D01*
X146833333Y-45706191D01*
X146928571Y-45753810D01*
X147452381Y-45753810D01*
X146928571Y-45753810D02*
X146833333Y-45801429D01*
X146785714Y-45896667D01*
X146785714Y-46039524D01*
X146833333Y-46134762D01*
X146928571Y-46182381D01*
X147452381Y-46182381D01*
X147404762Y-47039524D02*
X147452381Y-46944286D01*
X147452381Y-46753809D01*
X147404762Y-46658571D01*
X147309524Y-46610952D01*
X146928571Y-46610952D01*
X146833333Y-46658571D01*
X146785714Y-46753809D01*
X146785714Y-46944286D01*
X146833333Y-47039524D01*
X146928571Y-47087143D01*
X147023810Y-47087143D01*
X147119048Y-46610952D01*
X146785714Y-47944286D02*
X147595238Y-47944286D01*
X147690476Y-47896667D01*
X147738095Y-47849048D01*
X147785714Y-47753809D01*
X147785714Y-47610952D01*
X147738095Y-47515714D01*
X147404762Y-47944286D02*
X147452381Y-47849048D01*
X147452381Y-47658571D01*
X147404762Y-47563333D01*
X147357143Y-47515714D01*
X147261905Y-47468095D01*
X146976190Y-47468095D01*
X146880952Y-47515714D01*
X146833333Y-47563333D01*
X146785714Y-47658571D01*
X146785714Y-47849048D01*
X146833333Y-47944286D01*
X147452381Y-48849048D02*
X146928571Y-48849048D01*
X146833333Y-48801429D01*
X146785714Y-48706191D01*
X146785714Y-48515714D01*
X146833333Y-48420476D01*
X147404762Y-48849048D02*
X147452381Y-48753810D01*
X147452381Y-48515714D01*
X147404762Y-48420476D01*
X147309524Y-48372857D01*
X147214286Y-48372857D01*
X147119048Y-48420476D01*
X147071429Y-48515714D01*
X147071429Y-48753810D01*
X147023810Y-48849048D01*
X146452381Y-49230000D02*
X146452381Y-49849048D01*
X146833333Y-49515714D01*
X146833333Y-49658572D01*
X146880952Y-49753810D01*
X146928571Y-49801429D01*
X147023810Y-49849048D01*
X147261905Y-49849048D01*
X147357143Y-49801429D01*
X147404762Y-49753810D01*
X147452381Y-49658572D01*
X147452381Y-49372857D01*
X147404762Y-49277619D01*
X147357143Y-49230000D01*
X146547619Y-50230000D02*
X146500000Y-50277619D01*
X146452381Y-50372857D01*
X146452381Y-50610953D01*
X146500000Y-50706191D01*
X146547619Y-50753810D01*
X146642857Y-50801429D01*
X146738095Y-50801429D01*
X146880952Y-50753810D01*
X147452381Y-50182381D01*
X147452381Y-50801429D01*
X146452381Y-51230000D02*
X147261905Y-51230000D01*
X147357143Y-51277619D01*
X147404762Y-51325238D01*
X147452381Y-51420476D01*
X147452381Y-51610953D01*
X147404762Y-51706191D01*
X147357143Y-51753810D01*
X147261905Y-51801429D01*
X146452381Y-51801429D01*
X146785714Y-52706191D02*
X147452381Y-52706191D01*
X146404762Y-52468095D02*
X147119048Y-52230000D01*
X147119048Y-52849048D01*
X151647619Y-25238095D02*
X151600000Y-25285714D01*
X151552381Y-25380952D01*
X151552381Y-25619048D01*
X151600000Y-25714286D01*
X151647619Y-25761905D01*
X151742857Y-25809524D01*
X151838095Y-25809524D01*
X151980952Y-25761905D01*
X152552381Y-25190476D01*
X152552381Y-25809524D01*
X151647619Y-26190476D02*
X151600000Y-26238095D01*
X151552381Y-26333333D01*
X151552381Y-26571429D01*
X151600000Y-26666667D01*
X151647619Y-26714286D01*
X151742857Y-26761905D01*
X151838095Y-26761905D01*
X151980952Y-26714286D01*
X152552381Y-26142857D01*
X152552381Y-26761905D01*
X117952381Y-50809524D02*
X117952381Y-50238095D01*
X117952381Y-50523809D02*
X116952381Y-50523809D01*
X117095238Y-50428571D01*
X117190476Y-50333333D01*
X117238095Y-50238095D01*
X116952381Y-51666667D02*
X116952381Y-51476190D01*
X117000000Y-51380952D01*
X117047619Y-51333333D01*
X117190476Y-51238095D01*
X117380952Y-51190476D01*
X117761905Y-51190476D01*
X117857143Y-51238095D01*
X117904762Y-51285714D01*
X117952381Y-51380952D01*
X117952381Y-51571429D01*
X117904762Y-51666667D01*
X117857143Y-51714286D01*
X117761905Y-51761905D01*
X117523810Y-51761905D01*
X117428571Y-51714286D01*
X117380952Y-51666667D01*
X117333333Y-51571429D01*
X117333333Y-51380952D01*
X117380952Y-51285714D01*
X117428571Y-51238095D01*
X117523810Y-51190476D01*
X117952381Y-52190476D02*
X116952381Y-52190476D01*
X117666667Y-52523810D01*
X116952381Y-52857143D01*
X117952381Y-52857143D01*
X117952381Y-53333333D02*
X116952381Y-53333333D01*
X117428571Y-53333333D02*
X117428571Y-53904762D01*
X117952381Y-53904762D02*
X116952381Y-53904762D01*
X117285714Y-54285714D02*
X117285714Y-54809524D01*
X117952381Y-54285714D01*
X117952381Y-54809524D01*
X134142857Y-24352381D02*
X134047618Y-24352381D01*
X133952380Y-24400000D01*
X133904761Y-24447619D01*
X133857142Y-24542857D01*
X133809523Y-24733333D01*
X133809523Y-24971429D01*
X133857142Y-25161905D01*
X133904761Y-25257143D01*
X133952380Y-25304762D01*
X134047618Y-25352381D01*
X134142857Y-25352381D01*
X134238095Y-25304762D01*
X134285714Y-25257143D01*
X134333333Y-25161905D01*
X134380952Y-24971429D01*
X134380952Y-24733333D01*
X134333333Y-24542857D01*
X134285714Y-24447619D01*
X134238095Y-24400000D01*
X134142857Y-24352381D01*
X133380952Y-25257143D02*
X133333333Y-25304762D01*
X133380952Y-25352381D01*
X133428571Y-25304762D01*
X133380952Y-25257143D01*
X133380952Y-25352381D01*
X132380952Y-25352381D02*
X132952381Y-25352381D01*
X132666667Y-25352381D02*
X132666667Y-24352381D01*
X132761905Y-24495238D01*
X132857143Y-24590476D01*
X132952381Y-24638095D01*
X131523809Y-24685714D02*
X131523809Y-25352381D01*
X131952381Y-24685714D02*
X131952381Y-25209524D01*
X131904762Y-25304762D01*
X131809524Y-25352381D01*
X131666666Y-25352381D01*
X131571428Y-25304762D01*
X131523809Y-25257143D01*
X130714285Y-24828571D02*
X131047619Y-24828571D01*
X131047619Y-25352381D02*
X131047619Y-24352381D01*
X130571428Y-24352381D01*
X27218841Y-19363330D02*
X26218841Y-19363330D01*
X26218841Y-19601425D01*
X26266460Y-19744283D01*
X26361698Y-19839521D01*
X26456936Y-19887140D01*
X26647412Y-19934759D01*
X26790270Y-19934759D01*
X26980746Y-19887140D01*
X27075984Y-19839521D01*
X27171222Y-19744283D01*
X27218841Y-19601425D01*
X27218841Y-19363330D01*
X27218841Y-20363330D02*
X26218841Y-20363330D01*
X26218841Y-21029996D02*
X26218841Y-21220473D01*
X26266460Y-21315711D01*
X26361698Y-21410949D01*
X26552174Y-21458568D01*
X26885508Y-21458568D01*
X27075984Y-21410949D01*
X27171222Y-21315711D01*
X27218841Y-21220473D01*
X27218841Y-21029996D01*
X27171222Y-20934758D01*
X27075984Y-20839520D01*
X26885508Y-20791901D01*
X26552174Y-20791901D01*
X26361698Y-20839520D01*
X26266460Y-20934758D01*
X26218841Y-21029996D01*
X27218841Y-21887139D02*
X26218841Y-21887139D01*
X26218841Y-22125234D01*
X26266460Y-22268092D01*
X26361698Y-22363330D01*
X26456936Y-22410949D01*
X26647412Y-22458568D01*
X26790270Y-22458568D01*
X26980746Y-22410949D01*
X27075984Y-22363330D01*
X27171222Y-22268092D01*
X27218841Y-22125234D01*
X27218841Y-21887139D01*
X26695031Y-22887139D02*
X26695031Y-23220473D01*
X27218841Y-23363330D02*
X27218841Y-22887139D01*
X26218841Y-22887139D01*
X26218841Y-23363330D01*
X120361905Y-65854762D02*
X120219048Y-65902381D01*
X119980952Y-65902381D01*
X119885714Y-65854762D01*
X119838095Y-65807143D01*
X119790476Y-65711905D01*
X119790476Y-65616667D01*
X119838095Y-65521429D01*
X119885714Y-65473810D01*
X119980952Y-65426190D01*
X120171429Y-65378571D01*
X120266667Y-65330952D01*
X120314286Y-65283333D01*
X120361905Y-65188095D01*
X120361905Y-65092857D01*
X120314286Y-64997619D01*
X120266667Y-64950000D01*
X120171429Y-64902381D01*
X119933333Y-64902381D01*
X119790476Y-64950000D01*
X119457143Y-64902381D02*
X119219048Y-65902381D01*
X119028571Y-65188095D01*
X118838095Y-65902381D01*
X118600000Y-64902381D01*
X118457143Y-65997619D02*
X117695238Y-65997619D01*
X117457143Y-65902381D02*
X117457143Y-64902381D01*
X117076190Y-64902381D01*
X116980952Y-64950000D01*
X116933333Y-64997619D01*
X116885714Y-65092857D01*
X116885714Y-65235714D01*
X116933333Y-65330952D01*
X116980952Y-65378571D01*
X117076190Y-65426190D01*
X117457143Y-65426190D01*
X116457143Y-64902381D02*
X116457143Y-65711905D01*
X116409524Y-65807143D01*
X116361905Y-65854762D01*
X116266667Y-65902381D01*
X116076190Y-65902381D01*
X115980952Y-65854762D01*
X115933333Y-65807143D01*
X115885714Y-65711905D01*
X115885714Y-64902381D01*
X115457143Y-65854762D02*
X115314286Y-65902381D01*
X115076190Y-65902381D01*
X114980952Y-65854762D01*
X114933333Y-65807143D01*
X114885714Y-65711905D01*
X114885714Y-65616667D01*
X114933333Y-65521429D01*
X114980952Y-65473810D01*
X115076190Y-65426190D01*
X115266667Y-65378571D01*
X115361905Y-65330952D01*
X115409524Y-65283333D01*
X115457143Y-65188095D01*
X115457143Y-65092857D01*
X115409524Y-64997619D01*
X115361905Y-64950000D01*
X115266667Y-64902381D01*
X115028571Y-64902381D01*
X114885714Y-64950000D01*
X114457143Y-65902381D02*
X114457143Y-64902381D01*
X114457143Y-65378571D02*
X113885714Y-65378571D01*
X113885714Y-65902381D02*
X113885714Y-64902381D01*
M02*
