G04 #@! TF.FileFunction,Legend,Bot*
%FSLAX46Y46*%
G04 Gerber Fmt 4.6, Leading zero omitted, Abs format (unit mm)*
G04 Created by KiCad (PCBNEW 4.0.1-stable) date 5/16/2016 11:07:44 PM*
%MOMM*%
G01*
G04 APERTURE LIST*
%ADD10C,0.100000*%
%ADD11C,0.300000*%
%ADD12C,0.150000*%
%ADD13C,0.127000*%
%ADD14C,0.101600*%
%ADD15C,0.304800*%
%ADD16C,0.203200*%
%ADD17C,0.200660*%
%ADD18C,0.381000*%
%ADD19C,0.158800*%
G04 APERTURE END LIST*
D10*
D11*
X202377000Y-99456000D02*
X203501000Y-99456000D01*
X203501000Y-99456000D02*
X203501000Y-97424000D01*
X203501000Y-97424000D02*
X202377000Y-97424000D01*
X201296000Y-99456000D02*
X200199000Y-99456000D01*
X200199000Y-99456000D02*
X200199000Y-97424000D01*
X200199000Y-97424000D02*
X201296000Y-97424000D01*
X219025775Y-89698934D02*
X218230987Y-88904146D01*
X218230987Y-88904146D02*
X216794146Y-90340987D01*
X216794146Y-90340987D02*
X217588934Y-91135775D01*
X219790158Y-90463317D02*
X220565854Y-91239013D01*
X220565854Y-91239013D02*
X219129013Y-92675854D01*
X219129013Y-92675854D02*
X218353317Y-91900158D01*
X203566000Y-94753000D02*
X203566000Y-93629000D01*
X203566000Y-93629000D02*
X201534000Y-93629000D01*
X201534000Y-93629000D02*
X201534000Y-94753000D01*
X203566000Y-95834000D02*
X203566000Y-96931000D01*
X203566000Y-96931000D02*
X201534000Y-96931000D01*
X201534000Y-96931000D02*
X201534000Y-95834000D01*
X225833000Y-96674000D02*
X224709000Y-96674000D01*
X224709000Y-96674000D02*
X224709000Y-98706000D01*
X224709000Y-98706000D02*
X225833000Y-98706000D01*
X226914000Y-96674000D02*
X228011000Y-96674000D01*
X228011000Y-96674000D02*
X228011000Y-98706000D01*
X228011000Y-98706000D02*
X226914000Y-98706000D01*
X225893000Y-99154000D02*
X224769000Y-99154000D01*
X224769000Y-99154000D02*
X224769000Y-101186000D01*
X224769000Y-101186000D02*
X225893000Y-101186000D01*
X226974000Y-99154000D02*
X228071000Y-99154000D01*
X228071000Y-99154000D02*
X228071000Y-101186000D01*
X228071000Y-101186000D02*
X226974000Y-101186000D01*
X222366000Y-99193000D02*
X222366000Y-98069000D01*
X222366000Y-98069000D02*
X220334000Y-98069000D01*
X220334000Y-98069000D02*
X220334000Y-99193000D01*
X222366000Y-100274000D02*
X222366000Y-101371000D01*
X222366000Y-101371000D02*
X220334000Y-101371000D01*
X220334000Y-101371000D02*
X220334000Y-100274000D01*
X248127000Y-81296000D02*
X249251000Y-81296000D01*
X249251000Y-81296000D02*
X249251000Y-79264000D01*
X249251000Y-79264000D02*
X248127000Y-79264000D01*
X247046000Y-81296000D02*
X245949000Y-81296000D01*
X245949000Y-81296000D02*
X245949000Y-79264000D01*
X245949000Y-79264000D02*
X247046000Y-79264000D01*
X142256000Y-149363000D02*
X142256000Y-148239000D01*
X142256000Y-148239000D02*
X140224000Y-148239000D01*
X140224000Y-148239000D02*
X140224000Y-149363000D01*
X142256000Y-150444000D02*
X142256000Y-151541000D01*
X142256000Y-151541000D02*
X140224000Y-151541000D01*
X140224000Y-151541000D02*
X140224000Y-150444000D01*
X209283000Y-80354000D02*
X208159000Y-80354000D01*
X208159000Y-80354000D02*
X208159000Y-82386000D01*
X208159000Y-82386000D02*
X209283000Y-82386000D01*
X210364000Y-80354000D02*
X211461000Y-80354000D01*
X211461000Y-80354000D02*
X211461000Y-82386000D01*
X211461000Y-82386000D02*
X210364000Y-82386000D01*
X209343000Y-85094000D02*
X208219000Y-85094000D01*
X208219000Y-85094000D02*
X208219000Y-87126000D01*
X208219000Y-87126000D02*
X209343000Y-87126000D01*
X210424000Y-85094000D02*
X211521000Y-85094000D01*
X211521000Y-85094000D02*
X211521000Y-87126000D01*
X211521000Y-87126000D02*
X210424000Y-87126000D01*
X200916000Y-94753000D02*
X200916000Y-93629000D01*
X200916000Y-93629000D02*
X198884000Y-93629000D01*
X198884000Y-93629000D02*
X198884000Y-94753000D01*
X200916000Y-95834000D02*
X200916000Y-96931000D01*
X200916000Y-96931000D02*
X198884000Y-96931000D01*
X198884000Y-96931000D02*
X198884000Y-95834000D01*
D12*
X330877500Y-64730000D02*
X331258500Y-64730000D01*
X329861500Y-64730000D02*
X330242500Y-64730000D01*
X330242500Y-64730000D02*
X330877500Y-65111000D01*
X330877500Y-65111000D02*
X330877500Y-64349000D01*
X330877500Y-64349000D02*
X330242500Y-64730000D01*
X330242500Y-65238000D02*
X330242500Y-64222000D01*
X328560000Y-63830000D02*
X332100000Y-63830000D01*
X328560000Y-65630000D02*
X332100000Y-65630000D01*
X311857500Y-64730000D02*
X312238500Y-64730000D01*
X310841500Y-64730000D02*
X311222500Y-64730000D01*
X311222500Y-64730000D02*
X311857500Y-65111000D01*
X311857500Y-65111000D02*
X311857500Y-64349000D01*
X311857500Y-64349000D02*
X311222500Y-64730000D01*
X311222500Y-65238000D02*
X311222500Y-64222000D01*
X309540000Y-63830000D02*
X313080000Y-63830000D01*
X309540000Y-65630000D02*
X313080000Y-65630000D01*
X292847500Y-64690000D02*
X293228500Y-64690000D01*
X291831500Y-64690000D02*
X292212500Y-64690000D01*
X292212500Y-64690000D02*
X292847500Y-65071000D01*
X292847500Y-65071000D02*
X292847500Y-64309000D01*
X292847500Y-64309000D02*
X292212500Y-64690000D01*
X292212500Y-65198000D02*
X292212500Y-64182000D01*
X290530000Y-63790000D02*
X294070000Y-63790000D01*
X290530000Y-65590000D02*
X294070000Y-65590000D01*
X273877500Y-64620000D02*
X274258500Y-64620000D01*
X272861500Y-64620000D02*
X273242500Y-64620000D01*
X273242500Y-64620000D02*
X273877500Y-65001000D01*
X273877500Y-65001000D02*
X273877500Y-64239000D01*
X273877500Y-64239000D02*
X273242500Y-64620000D01*
X273242500Y-65128000D02*
X273242500Y-64112000D01*
X271560000Y-63720000D02*
X275100000Y-63720000D01*
X271560000Y-65520000D02*
X275100000Y-65520000D01*
X254867500Y-64690000D02*
X255248500Y-64690000D01*
X253851500Y-64690000D02*
X254232500Y-64690000D01*
X254232500Y-64690000D02*
X254867500Y-65071000D01*
X254867500Y-65071000D02*
X254867500Y-64309000D01*
X254867500Y-64309000D02*
X254232500Y-64690000D01*
X254232500Y-65198000D02*
X254232500Y-64182000D01*
X252550000Y-63790000D02*
X256090000Y-63790000D01*
X252550000Y-65590000D02*
X256090000Y-65590000D01*
X235847500Y-64690000D02*
X236228500Y-64690000D01*
X234831500Y-64690000D02*
X235212500Y-64690000D01*
X235212500Y-64690000D02*
X235847500Y-65071000D01*
X235847500Y-65071000D02*
X235847500Y-64309000D01*
X235847500Y-64309000D02*
X235212500Y-64690000D01*
X235212500Y-65198000D02*
X235212500Y-64182000D01*
X233530000Y-63790000D02*
X237070000Y-63790000D01*
X233530000Y-65590000D02*
X237070000Y-65590000D01*
X219502500Y-64770000D02*
X219121500Y-64770000D01*
X220518500Y-64770000D02*
X220137500Y-64770000D01*
X220137500Y-64770000D02*
X219502500Y-64389000D01*
X219502500Y-64389000D02*
X219502500Y-65151000D01*
X219502500Y-65151000D02*
X220137500Y-64770000D01*
X220137500Y-64262000D02*
X220137500Y-65278000D01*
X221820000Y-65670000D02*
X218280000Y-65670000D01*
X221820000Y-63870000D02*
X218280000Y-63870000D01*
X197867500Y-64540000D02*
X198248500Y-64540000D01*
X196851500Y-64540000D02*
X197232500Y-64540000D01*
X197232500Y-64540000D02*
X197867500Y-64921000D01*
X197867500Y-64921000D02*
X197867500Y-64159000D01*
X197867500Y-64159000D02*
X197232500Y-64540000D01*
X197232500Y-65048000D02*
X197232500Y-64032000D01*
X195550000Y-63640000D02*
X199090000Y-63640000D01*
X195550000Y-65440000D02*
X199090000Y-65440000D01*
X178857500Y-64620000D02*
X179238500Y-64620000D01*
X177841500Y-64620000D02*
X178222500Y-64620000D01*
X178222500Y-64620000D02*
X178857500Y-65001000D01*
X178857500Y-65001000D02*
X178857500Y-64239000D01*
X178857500Y-64239000D02*
X178222500Y-64620000D01*
X178222500Y-65128000D02*
X178222500Y-64112000D01*
X176540000Y-63720000D02*
X180080000Y-63720000D01*
X176540000Y-65520000D02*
X180080000Y-65520000D01*
X159877500Y-64580000D02*
X160258500Y-64580000D01*
X158861500Y-64580000D02*
X159242500Y-64580000D01*
X159242500Y-64580000D02*
X159877500Y-64961000D01*
X159877500Y-64961000D02*
X159877500Y-64199000D01*
X159877500Y-64199000D02*
X159242500Y-64580000D01*
X159242500Y-65088000D02*
X159242500Y-64072000D01*
X157560000Y-63680000D02*
X161100000Y-63680000D01*
X157560000Y-65480000D02*
X161100000Y-65480000D01*
X140867500Y-64620000D02*
X141248500Y-64620000D01*
X139851500Y-64620000D02*
X140232500Y-64620000D01*
X140232500Y-64620000D02*
X140867500Y-65001000D01*
X140867500Y-65001000D02*
X140867500Y-64239000D01*
X140867500Y-64239000D02*
X140232500Y-64620000D01*
X140232500Y-65128000D02*
X140232500Y-64112000D01*
X138550000Y-63720000D02*
X142090000Y-63720000D01*
X138550000Y-65520000D02*
X142090000Y-65520000D01*
X121857500Y-64540000D02*
X122238500Y-64540000D01*
X120841500Y-64540000D02*
X121222500Y-64540000D01*
X121222500Y-64540000D02*
X121857500Y-64921000D01*
X121857500Y-64921000D02*
X121857500Y-64159000D01*
X121857500Y-64159000D02*
X121222500Y-64540000D01*
X121222500Y-65048000D02*
X121222500Y-64032000D01*
X119540000Y-63640000D02*
X123080000Y-63640000D01*
X119540000Y-65440000D02*
X123080000Y-65440000D01*
X102887500Y-64580000D02*
X103268500Y-64580000D01*
X101871500Y-64580000D02*
X102252500Y-64580000D01*
X102252500Y-64580000D02*
X102887500Y-64961000D01*
X102887500Y-64961000D02*
X102887500Y-64199000D01*
X102887500Y-64199000D02*
X102252500Y-64580000D01*
X102252500Y-65088000D02*
X102252500Y-64072000D01*
X100570000Y-63680000D02*
X104110000Y-63680000D01*
X100570000Y-65480000D02*
X104110000Y-65480000D01*
X330907500Y-83540000D02*
X331288500Y-83540000D01*
X329891500Y-83540000D02*
X330272500Y-83540000D01*
X330272500Y-83540000D02*
X330907500Y-83921000D01*
X330907500Y-83921000D02*
X330907500Y-83159000D01*
X330907500Y-83159000D02*
X330272500Y-83540000D01*
X330272500Y-84048000D02*
X330272500Y-83032000D01*
X328590000Y-82640000D02*
X332130000Y-82640000D01*
X328590000Y-84440000D02*
X332130000Y-84440000D01*
X311857500Y-83550000D02*
X312238500Y-83550000D01*
X310841500Y-83550000D02*
X311222500Y-83550000D01*
X311222500Y-83550000D02*
X311857500Y-83931000D01*
X311857500Y-83931000D02*
X311857500Y-83169000D01*
X311857500Y-83169000D02*
X311222500Y-83550000D01*
X311222500Y-84058000D02*
X311222500Y-83042000D01*
X309540000Y-82650000D02*
X313080000Y-82650000D01*
X309540000Y-84450000D02*
X313080000Y-84450000D01*
X292847500Y-83520000D02*
X293228500Y-83520000D01*
X291831500Y-83520000D02*
X292212500Y-83520000D01*
X292212500Y-83520000D02*
X292847500Y-83901000D01*
X292847500Y-83901000D02*
X292847500Y-83139000D01*
X292847500Y-83139000D02*
X292212500Y-83520000D01*
X292212500Y-84028000D02*
X292212500Y-83012000D01*
X290530000Y-82620000D02*
X294070000Y-82620000D01*
X290530000Y-84420000D02*
X294070000Y-84420000D01*
X273877500Y-83630000D02*
X274258500Y-83630000D01*
X272861500Y-83630000D02*
X273242500Y-83630000D01*
X273242500Y-83630000D02*
X273877500Y-84011000D01*
X273877500Y-84011000D02*
X273877500Y-83249000D01*
X273877500Y-83249000D02*
X273242500Y-83630000D01*
X273242500Y-84138000D02*
X273242500Y-83122000D01*
X271560000Y-82730000D02*
X275100000Y-82730000D01*
X271560000Y-84530000D02*
X275100000Y-84530000D01*
X254867500Y-83630000D02*
X255248500Y-83630000D01*
X253851500Y-83630000D02*
X254232500Y-83630000D01*
X254232500Y-83630000D02*
X254867500Y-84011000D01*
X254867500Y-84011000D02*
X254867500Y-83249000D01*
X254867500Y-83249000D02*
X254232500Y-83630000D01*
X254232500Y-84138000D02*
X254232500Y-83122000D01*
X252550000Y-82730000D02*
X256090000Y-82730000D01*
X252550000Y-84530000D02*
X256090000Y-84530000D01*
X235847500Y-83670000D02*
X236228500Y-83670000D01*
X234831500Y-83670000D02*
X235212500Y-83670000D01*
X235212500Y-83670000D02*
X235847500Y-84051000D01*
X235847500Y-84051000D02*
X235847500Y-83289000D01*
X235847500Y-83289000D02*
X235212500Y-83670000D01*
X235212500Y-84178000D02*
X235212500Y-83162000D01*
X233530000Y-82770000D02*
X237070000Y-82770000D01*
X233530000Y-84570000D02*
X237070000Y-84570000D01*
X219462500Y-83590000D02*
X219081500Y-83590000D01*
X220478500Y-83590000D02*
X220097500Y-83590000D01*
X220097500Y-83590000D02*
X219462500Y-83209000D01*
X219462500Y-83209000D02*
X219462500Y-83971000D01*
X219462500Y-83971000D02*
X220097500Y-83590000D01*
X220097500Y-83082000D02*
X220097500Y-84098000D01*
X221780000Y-84490000D02*
X218240000Y-84490000D01*
X221780000Y-82690000D02*
X218240000Y-82690000D01*
X197867500Y-83520000D02*
X198248500Y-83520000D01*
X196851500Y-83520000D02*
X197232500Y-83520000D01*
X197232500Y-83520000D02*
X197867500Y-83901000D01*
X197867500Y-83901000D02*
X197867500Y-83139000D01*
X197867500Y-83139000D02*
X197232500Y-83520000D01*
X197232500Y-84028000D02*
X197232500Y-83012000D01*
X195550000Y-82620000D02*
X199090000Y-82620000D01*
X195550000Y-84420000D02*
X199090000Y-84420000D01*
X178857500Y-83670000D02*
X179238500Y-83670000D01*
X177841500Y-83670000D02*
X178222500Y-83670000D01*
X178222500Y-83670000D02*
X178857500Y-84051000D01*
X178857500Y-84051000D02*
X178857500Y-83289000D01*
X178857500Y-83289000D02*
X178222500Y-83670000D01*
X178222500Y-84178000D02*
X178222500Y-83162000D01*
X176540000Y-82770000D02*
X180080000Y-82770000D01*
X176540000Y-84570000D02*
X180080000Y-84570000D01*
X159877500Y-83520000D02*
X160258500Y-83520000D01*
X158861500Y-83520000D02*
X159242500Y-83520000D01*
X159242500Y-83520000D02*
X159877500Y-83901000D01*
X159877500Y-83901000D02*
X159877500Y-83139000D01*
X159877500Y-83139000D02*
X159242500Y-83520000D01*
X159242500Y-84028000D02*
X159242500Y-83012000D01*
X157560000Y-82620000D02*
X161100000Y-82620000D01*
X157560000Y-84420000D02*
X161100000Y-84420000D01*
X140867500Y-83550000D02*
X141248500Y-83550000D01*
X139851500Y-83550000D02*
X140232500Y-83550000D01*
X140232500Y-83550000D02*
X140867500Y-83931000D01*
X140867500Y-83931000D02*
X140867500Y-83169000D01*
X140867500Y-83169000D02*
X140232500Y-83550000D01*
X140232500Y-84058000D02*
X140232500Y-83042000D01*
X138550000Y-82650000D02*
X142090000Y-82650000D01*
X138550000Y-84450000D02*
X142090000Y-84450000D01*
X121857500Y-83520000D02*
X122238500Y-83520000D01*
X120841500Y-83520000D02*
X121222500Y-83520000D01*
X121222500Y-83520000D02*
X121857500Y-83901000D01*
X121857500Y-83901000D02*
X121857500Y-83139000D01*
X121857500Y-83139000D02*
X121222500Y-83520000D01*
X121222500Y-84028000D02*
X121222500Y-83012000D01*
X119540000Y-82620000D02*
X123080000Y-82620000D01*
X119540000Y-84420000D02*
X123080000Y-84420000D01*
X102857500Y-83570000D02*
X103238500Y-83570000D01*
X101841500Y-83570000D02*
X102222500Y-83570000D01*
X102222500Y-83570000D02*
X102857500Y-83951000D01*
X102857500Y-83951000D02*
X102857500Y-83189000D01*
X102857500Y-83189000D02*
X102222500Y-83570000D01*
X102222500Y-84078000D02*
X102222500Y-83062000D01*
X100540000Y-82670000D02*
X104080000Y-82670000D01*
X100540000Y-84470000D02*
X104080000Y-84470000D01*
X330847500Y-102700000D02*
X331228500Y-102700000D01*
X329831500Y-102700000D02*
X330212500Y-102700000D01*
X330212500Y-102700000D02*
X330847500Y-103081000D01*
X330847500Y-103081000D02*
X330847500Y-102319000D01*
X330847500Y-102319000D02*
X330212500Y-102700000D01*
X330212500Y-103208000D02*
X330212500Y-102192000D01*
X328530000Y-101800000D02*
X332070000Y-101800000D01*
X328530000Y-103600000D02*
X332070000Y-103600000D01*
X311867500Y-102760000D02*
X312248500Y-102760000D01*
X310851500Y-102760000D02*
X311232500Y-102760000D01*
X311232500Y-102760000D02*
X311867500Y-103141000D01*
X311867500Y-103141000D02*
X311867500Y-102379000D01*
X311867500Y-102379000D02*
X311232500Y-102760000D01*
X311232500Y-103268000D02*
X311232500Y-102252000D01*
X309550000Y-101860000D02*
X313090000Y-101860000D01*
X309550000Y-103660000D02*
X313090000Y-103660000D01*
X292867500Y-102740000D02*
X293248500Y-102740000D01*
X291851500Y-102740000D02*
X292232500Y-102740000D01*
X292232500Y-102740000D02*
X292867500Y-103121000D01*
X292867500Y-103121000D02*
X292867500Y-102359000D01*
X292867500Y-102359000D02*
X292232500Y-102740000D01*
X292232500Y-103248000D02*
X292232500Y-102232000D01*
X290550000Y-101840000D02*
X294090000Y-101840000D01*
X290550000Y-103640000D02*
X294090000Y-103640000D01*
X273867500Y-102680000D02*
X274248500Y-102680000D01*
X272851500Y-102680000D02*
X273232500Y-102680000D01*
X273232500Y-102680000D02*
X273867500Y-103061000D01*
X273867500Y-103061000D02*
X273867500Y-102299000D01*
X273867500Y-102299000D02*
X273232500Y-102680000D01*
X273232500Y-103188000D02*
X273232500Y-102172000D01*
X271550000Y-101780000D02*
X275090000Y-101780000D01*
X271550000Y-103580000D02*
X275090000Y-103580000D01*
X254867500Y-102660000D02*
X255248500Y-102660000D01*
X253851500Y-102660000D02*
X254232500Y-102660000D01*
X254232500Y-102660000D02*
X254867500Y-103041000D01*
X254867500Y-103041000D02*
X254867500Y-102279000D01*
X254867500Y-102279000D02*
X254232500Y-102660000D01*
X254232500Y-103168000D02*
X254232500Y-102152000D01*
X252550000Y-101760000D02*
X256090000Y-101760000D01*
X252550000Y-103560000D02*
X256090000Y-103560000D01*
X235877500Y-102710000D02*
X236258500Y-102710000D01*
X234861500Y-102710000D02*
X235242500Y-102710000D01*
X235242500Y-102710000D02*
X235877500Y-103091000D01*
X235877500Y-103091000D02*
X235877500Y-102329000D01*
X235877500Y-102329000D02*
X235242500Y-102710000D01*
X235242500Y-103218000D02*
X235242500Y-102202000D01*
X233560000Y-101810000D02*
X237100000Y-101810000D01*
X233560000Y-103610000D02*
X237100000Y-103610000D01*
X219512500Y-111200000D02*
X219131500Y-111200000D01*
X220528500Y-111200000D02*
X220147500Y-111200000D01*
X220147500Y-111200000D02*
X219512500Y-110819000D01*
X219512500Y-110819000D02*
X219512500Y-111581000D01*
X219512500Y-111581000D02*
X220147500Y-111200000D01*
X220147500Y-110692000D02*
X220147500Y-111708000D01*
X221830000Y-112100000D02*
X218290000Y-112100000D01*
X221830000Y-110300000D02*
X218290000Y-110300000D01*
X197907500Y-102680000D02*
X198288500Y-102680000D01*
X196891500Y-102680000D02*
X197272500Y-102680000D01*
X197272500Y-102680000D02*
X197907500Y-103061000D01*
X197907500Y-103061000D02*
X197907500Y-102299000D01*
X197907500Y-102299000D02*
X197272500Y-102680000D01*
X197272500Y-103188000D02*
X197272500Y-102172000D01*
X195590000Y-101780000D02*
X199130000Y-101780000D01*
X195590000Y-103580000D02*
X199130000Y-103580000D01*
X178877500Y-102650000D02*
X179258500Y-102650000D01*
X177861500Y-102650000D02*
X178242500Y-102650000D01*
X178242500Y-102650000D02*
X178877500Y-103031000D01*
X178877500Y-103031000D02*
X178877500Y-102269000D01*
X178877500Y-102269000D02*
X178242500Y-102650000D01*
X178242500Y-103158000D02*
X178242500Y-102142000D01*
X176560000Y-101750000D02*
X180100000Y-101750000D01*
X176560000Y-103550000D02*
X180100000Y-103550000D01*
X159857500Y-102680000D02*
X160238500Y-102680000D01*
X158841500Y-102680000D02*
X159222500Y-102680000D01*
X159222500Y-102680000D02*
X159857500Y-103061000D01*
X159857500Y-103061000D02*
X159857500Y-102299000D01*
X159857500Y-102299000D02*
X159222500Y-102680000D01*
X159222500Y-103188000D02*
X159222500Y-102172000D01*
X157540000Y-101780000D02*
X161080000Y-101780000D01*
X157540000Y-103580000D02*
X161080000Y-103580000D01*
X140857500Y-102680000D02*
X141238500Y-102680000D01*
X139841500Y-102680000D02*
X140222500Y-102680000D01*
X140222500Y-102680000D02*
X140857500Y-103061000D01*
X140857500Y-103061000D02*
X140857500Y-102299000D01*
X140857500Y-102299000D02*
X140222500Y-102680000D01*
X140222500Y-103188000D02*
X140222500Y-102172000D01*
X138540000Y-101780000D02*
X142080000Y-101780000D01*
X138540000Y-103580000D02*
X142080000Y-103580000D01*
X121857500Y-102650000D02*
X122238500Y-102650000D01*
X120841500Y-102650000D02*
X121222500Y-102650000D01*
X121222500Y-102650000D02*
X121857500Y-103031000D01*
X121857500Y-103031000D02*
X121857500Y-102269000D01*
X121857500Y-102269000D02*
X121222500Y-102650000D01*
X121222500Y-103158000D02*
X121222500Y-102142000D01*
X119540000Y-101750000D02*
X123080000Y-101750000D01*
X119540000Y-103550000D02*
X123080000Y-103550000D01*
X102857500Y-102510000D02*
X103238500Y-102510000D01*
X101841500Y-102510000D02*
X102222500Y-102510000D01*
X102222500Y-102510000D02*
X102857500Y-102891000D01*
X102857500Y-102891000D02*
X102857500Y-102129000D01*
X102857500Y-102129000D02*
X102222500Y-102510000D01*
X102222500Y-103018000D02*
X102222500Y-102002000D01*
X100540000Y-101610000D02*
X104080000Y-101610000D01*
X100540000Y-103410000D02*
X104080000Y-103410000D01*
X330837500Y-121540000D02*
X331218500Y-121540000D01*
X329821500Y-121540000D02*
X330202500Y-121540000D01*
X330202500Y-121540000D02*
X330837500Y-121921000D01*
X330837500Y-121921000D02*
X330837500Y-121159000D01*
X330837500Y-121159000D02*
X330202500Y-121540000D01*
X330202500Y-122048000D02*
X330202500Y-121032000D01*
X328520000Y-120640000D02*
X332060000Y-120640000D01*
X328520000Y-122440000D02*
X332060000Y-122440000D01*
X311857500Y-121620000D02*
X312238500Y-121620000D01*
X310841500Y-121620000D02*
X311222500Y-121620000D01*
X311222500Y-121620000D02*
X311857500Y-122001000D01*
X311857500Y-122001000D02*
X311857500Y-121239000D01*
X311857500Y-121239000D02*
X311222500Y-121620000D01*
X311222500Y-122128000D02*
X311222500Y-121112000D01*
X309540000Y-120720000D02*
X313080000Y-120720000D01*
X309540000Y-122520000D02*
X313080000Y-122520000D01*
X292847500Y-121580000D02*
X293228500Y-121580000D01*
X291831500Y-121580000D02*
X292212500Y-121580000D01*
X292212500Y-121580000D02*
X292847500Y-121961000D01*
X292847500Y-121961000D02*
X292847500Y-121199000D01*
X292847500Y-121199000D02*
X292212500Y-121580000D01*
X292212500Y-122088000D02*
X292212500Y-121072000D01*
X290530000Y-120680000D02*
X294070000Y-120680000D01*
X290530000Y-122480000D02*
X294070000Y-122480000D01*
X273877500Y-121650000D02*
X274258500Y-121650000D01*
X272861500Y-121650000D02*
X273242500Y-121650000D01*
X273242500Y-121650000D02*
X273877500Y-122031000D01*
X273877500Y-122031000D02*
X273877500Y-121269000D01*
X273877500Y-121269000D02*
X273242500Y-121650000D01*
X273242500Y-122158000D02*
X273242500Y-121142000D01*
X271560000Y-120750000D02*
X275100000Y-120750000D01*
X271560000Y-122550000D02*
X275100000Y-122550000D01*
X254867500Y-121620000D02*
X255248500Y-121620000D01*
X253851500Y-121620000D02*
X254232500Y-121620000D01*
X254232500Y-121620000D02*
X254867500Y-122001000D01*
X254867500Y-122001000D02*
X254867500Y-121239000D01*
X254867500Y-121239000D02*
X254232500Y-121620000D01*
X254232500Y-122128000D02*
X254232500Y-121112000D01*
X252550000Y-120720000D02*
X256090000Y-120720000D01*
X252550000Y-122520000D02*
X256090000Y-122520000D01*
X235887500Y-121540000D02*
X236268500Y-121540000D01*
X234871500Y-121540000D02*
X235252500Y-121540000D01*
X235252500Y-121540000D02*
X235887500Y-121921000D01*
X235887500Y-121921000D02*
X235887500Y-121159000D01*
X235887500Y-121159000D02*
X235252500Y-121540000D01*
X235252500Y-122048000D02*
X235252500Y-121032000D01*
X233570000Y-120640000D02*
X237110000Y-120640000D01*
X233570000Y-122440000D02*
X237110000Y-122440000D01*
X216877500Y-121540000D02*
X217258500Y-121540000D01*
X215861500Y-121540000D02*
X216242500Y-121540000D01*
X216242500Y-121540000D02*
X216877500Y-121921000D01*
X216877500Y-121921000D02*
X216877500Y-121159000D01*
X216877500Y-121159000D02*
X216242500Y-121540000D01*
X216242500Y-122048000D02*
X216242500Y-121032000D01*
X214560000Y-120640000D02*
X218100000Y-120640000D01*
X214560000Y-122440000D02*
X218100000Y-122440000D01*
X197867500Y-121580000D02*
X198248500Y-121580000D01*
X196851500Y-121580000D02*
X197232500Y-121580000D01*
X197232500Y-121580000D02*
X197867500Y-121961000D01*
X197867500Y-121961000D02*
X197867500Y-121199000D01*
X197867500Y-121199000D02*
X197232500Y-121580000D01*
X197232500Y-122088000D02*
X197232500Y-121072000D01*
X195550000Y-120680000D02*
X199090000Y-120680000D01*
X195550000Y-122480000D02*
X199090000Y-122480000D01*
X178857500Y-121580000D02*
X179238500Y-121580000D01*
X177841500Y-121580000D02*
X178222500Y-121580000D01*
X178222500Y-121580000D02*
X178857500Y-121961000D01*
X178857500Y-121961000D02*
X178857500Y-121199000D01*
X178857500Y-121199000D02*
X178222500Y-121580000D01*
X178222500Y-122088000D02*
X178222500Y-121072000D01*
X176540000Y-120680000D02*
X180080000Y-120680000D01*
X176540000Y-122480000D02*
X180080000Y-122480000D01*
X159877500Y-121580000D02*
X160258500Y-121580000D01*
X158861500Y-121580000D02*
X159242500Y-121580000D01*
X159242500Y-121580000D02*
X159877500Y-121961000D01*
X159877500Y-121961000D02*
X159877500Y-121199000D01*
X159877500Y-121199000D02*
X159242500Y-121580000D01*
X159242500Y-122088000D02*
X159242500Y-121072000D01*
X157560000Y-120680000D02*
X161100000Y-120680000D01*
X157560000Y-122480000D02*
X161100000Y-122480000D01*
X140867500Y-121540000D02*
X141248500Y-121540000D01*
X139851500Y-121540000D02*
X140232500Y-121540000D01*
X140232500Y-121540000D02*
X140867500Y-121921000D01*
X140867500Y-121921000D02*
X140867500Y-121159000D01*
X140867500Y-121159000D02*
X140232500Y-121540000D01*
X140232500Y-122048000D02*
X140232500Y-121032000D01*
X138550000Y-120640000D02*
X142090000Y-120640000D01*
X138550000Y-122440000D02*
X142090000Y-122440000D01*
X121857500Y-121620000D02*
X122238500Y-121620000D01*
X120841500Y-121620000D02*
X121222500Y-121620000D01*
X121222500Y-121620000D02*
X121857500Y-122001000D01*
X121857500Y-122001000D02*
X121857500Y-121239000D01*
X121857500Y-121239000D02*
X121222500Y-121620000D01*
X121222500Y-122128000D02*
X121222500Y-121112000D01*
X119540000Y-120720000D02*
X123080000Y-120720000D01*
X119540000Y-122520000D02*
X123080000Y-122520000D01*
X102879500Y-121530000D02*
X103260500Y-121530000D01*
X101863500Y-121530000D02*
X102244500Y-121530000D01*
X102244500Y-121530000D02*
X102879500Y-121911000D01*
X102879500Y-121911000D02*
X102879500Y-121149000D01*
X102879500Y-121149000D02*
X102244500Y-121530000D01*
X102244500Y-122038000D02*
X102244500Y-121022000D01*
X100562000Y-120630000D02*
X104102000Y-120630000D01*
X100562000Y-122430000D02*
X104102000Y-122430000D01*
X330877500Y-140590000D02*
X331258500Y-140590000D01*
X329861500Y-140590000D02*
X330242500Y-140590000D01*
X330242500Y-140590000D02*
X330877500Y-140971000D01*
X330877500Y-140971000D02*
X330877500Y-140209000D01*
X330877500Y-140209000D02*
X330242500Y-140590000D01*
X330242500Y-141098000D02*
X330242500Y-140082000D01*
X328560000Y-139690000D02*
X332100000Y-139690000D01*
X328560000Y-141490000D02*
X332100000Y-141490000D01*
X311857500Y-140590000D02*
X312238500Y-140590000D01*
X310841500Y-140590000D02*
X311222500Y-140590000D01*
X311222500Y-140590000D02*
X311857500Y-140971000D01*
X311857500Y-140971000D02*
X311857500Y-140209000D01*
X311857500Y-140209000D02*
X311222500Y-140590000D01*
X311222500Y-141098000D02*
X311222500Y-140082000D01*
X309540000Y-139690000D02*
X313080000Y-139690000D01*
X309540000Y-141490000D02*
X313080000Y-141490000D01*
X292847500Y-140590000D02*
X293228500Y-140590000D01*
X291831500Y-140590000D02*
X292212500Y-140590000D01*
X292212500Y-140590000D02*
X292847500Y-140971000D01*
X292847500Y-140971000D02*
X292847500Y-140209000D01*
X292847500Y-140209000D02*
X292212500Y-140590000D01*
X292212500Y-141098000D02*
X292212500Y-140082000D01*
X290530000Y-139690000D02*
X294070000Y-139690000D01*
X290530000Y-141490000D02*
X294070000Y-141490000D01*
X273877500Y-140630000D02*
X274258500Y-140630000D01*
X272861500Y-140630000D02*
X273242500Y-140630000D01*
X273242500Y-140630000D02*
X273877500Y-141011000D01*
X273877500Y-141011000D02*
X273877500Y-140249000D01*
X273877500Y-140249000D02*
X273242500Y-140630000D01*
X273242500Y-141138000D02*
X273242500Y-140122000D01*
X271560000Y-139730000D02*
X275100000Y-139730000D01*
X271560000Y-141530000D02*
X275100000Y-141530000D01*
X254867500Y-140590000D02*
X255248500Y-140590000D01*
X253851500Y-140590000D02*
X254232500Y-140590000D01*
X254232500Y-140590000D02*
X254867500Y-140971000D01*
X254867500Y-140971000D02*
X254867500Y-140209000D01*
X254867500Y-140209000D02*
X254232500Y-140590000D01*
X254232500Y-141098000D02*
X254232500Y-140082000D01*
X252550000Y-139690000D02*
X256090000Y-139690000D01*
X252550000Y-141490000D02*
X256090000Y-141490000D01*
X235847500Y-140510000D02*
X236228500Y-140510000D01*
X234831500Y-140510000D02*
X235212500Y-140510000D01*
X235212500Y-140510000D02*
X235847500Y-140891000D01*
X235847500Y-140891000D02*
X235847500Y-140129000D01*
X235847500Y-140129000D02*
X235212500Y-140510000D01*
X235212500Y-141018000D02*
X235212500Y-140002000D01*
X233530000Y-139610000D02*
X237070000Y-139610000D01*
X233530000Y-141410000D02*
X237070000Y-141410000D01*
X216877500Y-140590000D02*
X217258500Y-140590000D01*
X215861500Y-140590000D02*
X216242500Y-140590000D01*
X216242500Y-140590000D02*
X216877500Y-140971000D01*
X216877500Y-140971000D02*
X216877500Y-140209000D01*
X216877500Y-140209000D02*
X216242500Y-140590000D01*
X216242500Y-141098000D02*
X216242500Y-140082000D01*
X214560000Y-139690000D02*
X218100000Y-139690000D01*
X214560000Y-141490000D02*
X218100000Y-141490000D01*
X197937500Y-140510000D02*
X198318500Y-140510000D01*
X196921500Y-140510000D02*
X197302500Y-140510000D01*
X197302500Y-140510000D02*
X197937500Y-140891000D01*
X197937500Y-140891000D02*
X197937500Y-140129000D01*
X197937500Y-140129000D02*
X197302500Y-140510000D01*
X197302500Y-141018000D02*
X197302500Y-140002000D01*
X195620000Y-139610000D02*
X199160000Y-139610000D01*
X195620000Y-141410000D02*
X199160000Y-141410000D01*
X178857500Y-140630000D02*
X179238500Y-140630000D01*
X177841500Y-140630000D02*
X178222500Y-140630000D01*
X178222500Y-140630000D02*
X178857500Y-141011000D01*
X178857500Y-141011000D02*
X178857500Y-140249000D01*
X178857500Y-140249000D02*
X178222500Y-140630000D01*
X178222500Y-141138000D02*
X178222500Y-140122000D01*
X176540000Y-139730000D02*
X180080000Y-139730000D01*
X176540000Y-141530000D02*
X180080000Y-141530000D01*
X159877500Y-140590000D02*
X160258500Y-140590000D01*
X158861500Y-140590000D02*
X159242500Y-140590000D01*
X159242500Y-140590000D02*
X159877500Y-140971000D01*
X159877500Y-140971000D02*
X159877500Y-140209000D01*
X159877500Y-140209000D02*
X159242500Y-140590000D01*
X159242500Y-141098000D02*
X159242500Y-140082000D01*
X157560000Y-139690000D02*
X161100000Y-139690000D01*
X157560000Y-141490000D02*
X161100000Y-141490000D01*
X140867500Y-140590000D02*
X141248500Y-140590000D01*
X139851500Y-140590000D02*
X140232500Y-140590000D01*
X140232500Y-140590000D02*
X140867500Y-140971000D01*
X140867500Y-140971000D02*
X140867500Y-140209000D01*
X140867500Y-140209000D02*
X140232500Y-140590000D01*
X140232500Y-141098000D02*
X140232500Y-140082000D01*
X138550000Y-139690000D02*
X142090000Y-139690000D01*
X138550000Y-141490000D02*
X142090000Y-141490000D01*
X121857500Y-140590000D02*
X122238500Y-140590000D01*
X120841500Y-140590000D02*
X121222500Y-140590000D01*
X121222500Y-140590000D02*
X121857500Y-140971000D01*
X121857500Y-140971000D02*
X121857500Y-140209000D01*
X121857500Y-140209000D02*
X121222500Y-140590000D01*
X121222500Y-141098000D02*
X121222500Y-140082000D01*
X119540000Y-139690000D02*
X123080000Y-139690000D01*
X119540000Y-141490000D02*
X123080000Y-141490000D01*
X102887500Y-140590000D02*
X103268500Y-140590000D01*
X101871500Y-140590000D02*
X102252500Y-140590000D01*
X102252500Y-140590000D02*
X102887500Y-140971000D01*
X102887500Y-140971000D02*
X102887500Y-140209000D01*
X102887500Y-140209000D02*
X102252500Y-140590000D01*
X102252500Y-141098000D02*
X102252500Y-140082000D01*
X100570000Y-139690000D02*
X104110000Y-139690000D01*
X100570000Y-141490000D02*
X104110000Y-141490000D01*
X83867500Y-64540000D02*
X84248500Y-64540000D01*
X82851500Y-64540000D02*
X83232500Y-64540000D01*
X83232500Y-64540000D02*
X83867500Y-64921000D01*
X83867500Y-64921000D02*
X83867500Y-64159000D01*
X83867500Y-64159000D02*
X83232500Y-64540000D01*
X83232500Y-65048000D02*
X83232500Y-64032000D01*
X81550000Y-63640000D02*
X85090000Y-63640000D01*
X81550000Y-65440000D02*
X85090000Y-65440000D01*
X83867500Y-83480000D02*
X84248500Y-83480000D01*
X82851500Y-83480000D02*
X83232500Y-83480000D01*
X83232500Y-83480000D02*
X83867500Y-83861000D01*
X83867500Y-83861000D02*
X83867500Y-83099000D01*
X83867500Y-83099000D02*
X83232500Y-83480000D01*
X83232500Y-83988000D02*
X83232500Y-82972000D01*
X81550000Y-82580000D02*
X85090000Y-82580000D01*
X81550000Y-84380000D02*
X85090000Y-84380000D01*
X83857500Y-102510000D02*
X84238500Y-102510000D01*
X82841500Y-102510000D02*
X83222500Y-102510000D01*
X83222500Y-102510000D02*
X83857500Y-102891000D01*
X83857500Y-102891000D02*
X83857500Y-102129000D01*
X83857500Y-102129000D02*
X83222500Y-102510000D01*
X83222500Y-103018000D02*
X83222500Y-102002000D01*
X81540000Y-101610000D02*
X85080000Y-101610000D01*
X81540000Y-103410000D02*
X85080000Y-103410000D01*
X83857500Y-121480000D02*
X84238500Y-121480000D01*
X82841500Y-121480000D02*
X83222500Y-121480000D01*
X83222500Y-121480000D02*
X83857500Y-121861000D01*
X83857500Y-121861000D02*
X83857500Y-121099000D01*
X83857500Y-121099000D02*
X83222500Y-121480000D01*
X83222500Y-121988000D02*
X83222500Y-120972000D01*
X81540000Y-120580000D02*
X85080000Y-120580000D01*
X81540000Y-122380000D02*
X85080000Y-122380000D01*
X83857500Y-140510000D02*
X84238500Y-140510000D01*
X82841500Y-140510000D02*
X83222500Y-140510000D01*
X83222500Y-140510000D02*
X83857500Y-140891000D01*
X83857500Y-140891000D02*
X83857500Y-140129000D01*
X83857500Y-140129000D02*
X83222500Y-140510000D01*
X83222500Y-141018000D02*
X83222500Y-140002000D01*
X81540000Y-139610000D02*
X85080000Y-139610000D01*
X81540000Y-141410000D02*
X85080000Y-141410000D01*
D13*
X208626500Y-62550500D02*
X208626500Y-60645500D01*
X208626500Y-60645500D02*
X216437000Y-60645500D01*
X216437000Y-60645500D02*
X216437000Y-63122000D01*
X216437000Y-64887300D02*
X216437000Y-62786720D01*
X216437000Y-63167720D02*
X216437000Y-67767660D01*
D14*
X209477400Y-63955120D02*
X209685680Y-61204300D01*
X210673740Y-61204300D02*
X210932820Y-63955120D01*
X210932820Y-63955120D02*
X210724540Y-63955120D01*
X210724540Y-63955120D02*
X210465460Y-61567520D01*
X210465460Y-61567520D02*
X209944760Y-61567520D01*
X209944760Y-61567520D02*
X209685680Y-63955120D01*
X209685680Y-63955120D02*
X209477400Y-63955120D01*
X211191900Y-61204300D02*
X211400180Y-65253060D01*
X211400180Y-60996020D02*
X211400180Y-60996020D01*
X211605920Y-61204300D02*
X211814200Y-64630760D01*
X215393060Y-63955120D02*
X215187320Y-61204300D01*
X214199260Y-61204300D02*
X213940180Y-63955120D01*
X213940180Y-63955120D02*
X214148460Y-63955120D01*
X214148460Y-63955120D02*
X214407540Y-61567520D01*
X214407540Y-61567520D02*
X214925700Y-61567520D01*
X214925700Y-61567520D02*
X215187320Y-63955120D01*
X215187320Y-63955120D02*
X215393060Y-63955120D01*
X213681100Y-61204300D02*
X213472820Y-65253060D01*
X213264540Y-65461340D02*
X211605920Y-65461340D01*
X213264540Y-61204300D02*
X213058800Y-64630760D01*
X213058800Y-64630760D02*
X211814200Y-64630760D01*
D13*
X208626500Y-63078820D02*
X208626500Y-67777820D01*
D14*
X209751720Y-67744800D02*
X209751720Y-66995500D01*
X209751720Y-66995500D02*
X215248280Y-66995500D01*
X215248280Y-67008200D02*
X215248280Y-67757500D01*
X210252100Y-66667840D02*
X210252100Y-65918540D01*
X210252100Y-65918540D02*
X209500260Y-65918540D01*
X209500260Y-65918540D02*
X209500260Y-66667840D01*
X209500260Y-66667840D02*
X210252100Y-66667840D01*
X215499740Y-66667840D02*
X214747900Y-66667840D01*
X214747900Y-66667840D02*
X214747900Y-65918540D01*
X214747900Y-65918540D02*
X215499740Y-65918540D01*
X215499740Y-65918540D02*
X215499740Y-66667840D01*
D13*
X208626500Y-62568280D02*
X208626500Y-65268300D01*
X208626500Y-67793060D02*
X210427360Y-67793060D01*
X214598040Y-67767660D02*
X216398900Y-67767660D01*
D14*
X209686307Y-61204693D02*
G75*
G02X209893960Y-60945220I294013J-22467D01*
G01*
X209896542Y-60943654D02*
G75*
G02X210465460Y-60945220I281898J-931206D01*
G01*
X210465323Y-60944493D02*
G75*
G02X210673740Y-61204300I-86223J-282667D01*
G01*
X211607273Y-65458875D02*
G75*
G02X211400180Y-65253060I11347J218515D01*
G01*
X211191900Y-61204300D02*
G75*
G02X211400180Y-60996020I208280J0D01*
G01*
X211400180Y-60998560D02*
G75*
G02X211605920Y-61204300I0J-205740D01*
G01*
X214978903Y-60944493D02*
G75*
G02X215187320Y-61204300I-86223J-282667D01*
G01*
X214410557Y-60945074D02*
G75*
G02X214979040Y-60945220I284003J-929786D01*
G01*
X214199887Y-61204693D02*
G75*
G02X214407540Y-60945220I294013J-22467D01*
G01*
X213475140Y-65254510D02*
G75*
G02X213264540Y-65461340I-220760J14150D01*
G01*
X213472820Y-60996020D02*
G75*
G02X213681100Y-61204300I0J-208280D01*
G01*
X213264540Y-61204300D02*
G75*
G02X213472820Y-60996020I208280J0D01*
G01*
D15*
X205063558Y-96850000D02*
X212140000Y-103926442D01*
X212140000Y-103926442D02*
X219216442Y-96850000D01*
X212481250Y-90114808D02*
X219216442Y-96850000D01*
X211798750Y-90114808D02*
X205063558Y-96850000D01*
X212481250Y-90114808D02*
X211798750Y-90114808D01*
D16*
X212775000Y-91461846D02*
G75*
G03X212775000Y-91461846I-635000J0D01*
G01*
D12*
X213025000Y-72350000D02*
X213025000Y-73550000D01*
X214775000Y-73550000D02*
X214775000Y-72350000D01*
X210225000Y-72350000D02*
X210225000Y-73550000D01*
X211975000Y-73550000D02*
X211975000Y-72350000D01*
D11*
X209313000Y-82724000D02*
X208189000Y-82724000D01*
X208189000Y-82724000D02*
X208189000Y-84756000D01*
X208189000Y-84756000D02*
X209313000Y-84756000D01*
X210394000Y-82724000D02*
X211491000Y-82724000D01*
X211491000Y-82724000D02*
X211491000Y-84756000D01*
X211491000Y-84756000D02*
X210394000Y-84756000D01*
X332156000Y-149343000D02*
X332156000Y-148219000D01*
X332156000Y-148219000D02*
X330124000Y-148219000D01*
X330124000Y-148219000D02*
X330124000Y-149343000D01*
X332156000Y-150424000D02*
X332156000Y-151521000D01*
X332156000Y-151521000D02*
X330124000Y-151521000D01*
X330124000Y-151521000D02*
X330124000Y-150424000D01*
X232520000Y-101090000D02*
X232520000Y-96730000D01*
X232521000Y-96728000D02*
X229219000Y-96728000D01*
X229219000Y-96730000D02*
X229219000Y-101090000D01*
X229219000Y-101092000D02*
X232521000Y-101092000D01*
D17*
X233001140Y-79250000D02*
G75*
G03X233001140Y-79250000I-1501140J0D01*
G01*
X228401200Y-81599500D02*
X227900820Y-81599500D01*
X227900820Y-81599500D02*
X227900820Y-80901000D01*
X227900820Y-80901000D02*
X228401200Y-80901000D01*
X227900820Y-76900500D02*
X228401200Y-76900500D01*
X227900820Y-77599000D02*
X227900820Y-76900500D01*
X228401200Y-77599000D02*
X227900820Y-77599000D01*
X234598800Y-77599000D02*
X235099180Y-77599000D01*
X235099180Y-77599000D02*
X235099180Y-76900500D01*
X235099180Y-76900500D02*
X234598800Y-76900500D01*
X234598800Y-81599500D02*
X235099180Y-81599500D01*
X235099180Y-81599500D02*
X235099180Y-80901000D01*
X235099180Y-80901000D02*
X234598800Y-80901000D01*
D18*
X228700920Y-76151200D02*
X234299080Y-76151200D01*
X228700920Y-82348800D02*
X234299080Y-82348800D01*
X228401200Y-82249740D02*
X234598800Y-82249740D01*
X234598800Y-82249740D02*
X234598800Y-76250260D01*
X234598800Y-76250260D02*
X228401200Y-76250260D01*
X228401200Y-76250260D02*
X228401200Y-82249740D01*
D12*
X251250000Y-77650000D02*
X251250000Y-80350000D01*
X249750000Y-77650000D02*
X249750000Y-80350000D01*
X250650000Y-79150000D02*
X250400000Y-79150000D01*
X250400000Y-79150000D02*
X250550000Y-79000000D01*
X250150000Y-78900000D02*
X250850000Y-78900000D01*
X250500000Y-79250000D02*
X250500000Y-79600000D01*
X250500000Y-78900000D02*
X250150000Y-79250000D01*
X250150000Y-79250000D02*
X250850000Y-79250000D01*
X250850000Y-79250000D02*
X250500000Y-78900000D01*
D19*
X201878833Y-96957976D02*
X202190500Y-96512738D01*
X202413119Y-96957976D02*
X202413119Y-96022976D01*
X202056928Y-96022976D01*
X201967881Y-96067500D01*
X201923357Y-96112024D01*
X201878833Y-96201071D01*
X201878833Y-96334643D01*
X201923357Y-96423690D01*
X201967881Y-96468214D01*
X202056928Y-96512738D01*
X202413119Y-96512738D01*
X201077405Y-96022976D02*
X201255500Y-96022976D01*
X201344548Y-96067500D01*
X201389071Y-96112024D01*
X201478119Y-96245595D01*
X201522643Y-96423690D01*
X201522643Y-96779881D01*
X201478119Y-96868929D01*
X201433595Y-96913452D01*
X201344548Y-96957976D01*
X201166452Y-96957976D01*
X201077405Y-96913452D01*
X201032881Y-96868929D01*
X200988357Y-96779881D01*
X200988357Y-96557262D01*
X201032881Y-96468214D01*
X201077405Y-96423690D01*
X201166452Y-96379167D01*
X201344548Y-96379167D01*
X201433595Y-96423690D01*
X201478119Y-96468214D01*
X201522643Y-96557262D01*
X217296831Y-92573155D02*
X217296832Y-92636121D01*
X217359798Y-92762053D01*
X217422764Y-92825019D01*
X217548697Y-92887986D01*
X217674628Y-92887986D01*
X217769078Y-92856503D01*
X217926493Y-92762054D01*
X218020943Y-92667604D01*
X218115392Y-92510189D01*
X218146875Y-92415740D01*
X218146875Y-92289807D01*
X218083909Y-92163875D01*
X218020942Y-92100908D01*
X217895010Y-92037942D01*
X217832044Y-92037942D01*
X217674629Y-91754595D02*
X217265349Y-91345314D01*
X217233865Y-91817561D01*
X217139416Y-91723112D01*
X217044967Y-91691628D01*
X216982001Y-91691628D01*
X216887551Y-91723112D01*
X216730136Y-91880527D01*
X216698653Y-91974977D01*
X216698653Y-92037942D01*
X216730136Y-92132391D01*
X216919035Y-92321290D01*
X217013484Y-92352773D01*
X217076450Y-92352774D01*
X200978929Y-95251167D02*
X201023452Y-95206643D01*
X201067976Y-95073072D01*
X201067976Y-94984024D01*
X201023452Y-94850452D01*
X200934405Y-94761405D01*
X200845357Y-94716881D01*
X200667262Y-94672357D01*
X200533690Y-94672357D01*
X200355595Y-94716881D01*
X200266548Y-94761405D01*
X200177500Y-94850452D01*
X200132976Y-94984024D01*
X200132976Y-95073072D01*
X200177500Y-95206643D01*
X200222024Y-95251167D01*
X200132976Y-96052595D02*
X200132976Y-95874500D01*
X200177500Y-95785452D01*
X200222024Y-95740929D01*
X200355595Y-95651881D01*
X200533690Y-95607357D01*
X200889881Y-95607357D01*
X200978929Y-95651881D01*
X201023452Y-95696405D01*
X201067976Y-95785452D01*
X201067976Y-95963548D01*
X201023452Y-96052595D01*
X200978929Y-96097119D01*
X200889881Y-96141643D01*
X200667262Y-96141643D01*
X200578214Y-96097119D01*
X200533690Y-96052595D01*
X200489167Y-95963548D01*
X200489167Y-95785452D01*
X200533690Y-95696405D01*
X200578214Y-95651881D01*
X200667262Y-95607357D01*
X226642833Y-99928929D02*
X226687357Y-99973452D01*
X226820928Y-100017976D01*
X226909976Y-100017976D01*
X227043548Y-99973452D01*
X227132595Y-99884405D01*
X227177119Y-99795357D01*
X227221643Y-99617262D01*
X227221643Y-99483690D01*
X227177119Y-99305595D01*
X227132595Y-99216548D01*
X227043548Y-99127500D01*
X226909976Y-99082976D01*
X226820928Y-99082976D01*
X226687357Y-99127500D01*
X226642833Y-99172024D01*
X226286643Y-99172024D02*
X226242119Y-99127500D01*
X226153071Y-99082976D01*
X225930452Y-99082976D01*
X225841405Y-99127500D01*
X225796881Y-99172024D01*
X225752357Y-99261071D01*
X225752357Y-99350119D01*
X225796881Y-99483690D01*
X226331167Y-100017976D01*
X225752357Y-100017976D01*
X226702833Y-102408929D02*
X226747357Y-102453452D01*
X226880928Y-102497976D01*
X226969976Y-102497976D01*
X227103548Y-102453452D01*
X227192595Y-102364405D01*
X227237119Y-102275357D01*
X227281643Y-102097262D01*
X227281643Y-101963690D01*
X227237119Y-101785595D01*
X227192595Y-101696548D01*
X227103548Y-101607500D01*
X226969976Y-101562976D01*
X226880928Y-101562976D01*
X226747357Y-101607500D01*
X226702833Y-101652024D01*
X225812357Y-102497976D02*
X226346643Y-102497976D01*
X226079500Y-102497976D02*
X226079500Y-101562976D01*
X226168548Y-101696548D01*
X226257595Y-101785595D01*
X226346643Y-101830119D01*
X219867976Y-99691167D02*
X219422738Y-99379500D01*
X219867976Y-99156881D02*
X218932976Y-99156881D01*
X218932976Y-99513072D01*
X218977500Y-99602119D01*
X219022024Y-99646643D01*
X219111071Y-99691167D01*
X219244643Y-99691167D01*
X219333690Y-99646643D01*
X219378214Y-99602119D01*
X219422738Y-99513072D01*
X219422738Y-99156881D01*
X218932976Y-100537119D02*
X218932976Y-100091881D01*
X219378214Y-100047357D01*
X219333690Y-100091881D01*
X219289167Y-100180929D01*
X219289167Y-100403548D01*
X219333690Y-100492595D01*
X219378214Y-100537119D01*
X219467262Y-100581643D01*
X219689881Y-100581643D01*
X219778929Y-100537119D01*
X219823452Y-100492595D01*
X219867976Y-100403548D01*
X219867976Y-100180929D01*
X219823452Y-100091881D01*
X219778929Y-100047357D01*
X247628833Y-78797976D02*
X247940500Y-78352738D01*
X248163119Y-78797976D02*
X248163119Y-77862976D01*
X247806928Y-77862976D01*
X247717881Y-77907500D01*
X247673357Y-77952024D01*
X247628833Y-78041071D01*
X247628833Y-78174643D01*
X247673357Y-78263690D01*
X247717881Y-78308214D01*
X247806928Y-78352738D01*
X248163119Y-78352738D01*
X247317167Y-77862976D02*
X246693833Y-77862976D01*
X247094548Y-78797976D01*
X139757976Y-149861167D02*
X139312738Y-149549500D01*
X139757976Y-149326881D02*
X138822976Y-149326881D01*
X138822976Y-149683072D01*
X138867500Y-149772119D01*
X138912024Y-149816643D01*
X139001071Y-149861167D01*
X139134643Y-149861167D01*
X139223690Y-149816643D01*
X139268214Y-149772119D01*
X139312738Y-149683072D01*
X139312738Y-149326881D01*
X138912024Y-150217357D02*
X138867500Y-150261881D01*
X138822976Y-150350929D01*
X138822976Y-150573548D01*
X138867500Y-150662595D01*
X138912024Y-150707119D01*
X139001071Y-150751643D01*
X139090119Y-150751643D01*
X139223690Y-150707119D01*
X139757976Y-150172833D01*
X139757976Y-150751643D01*
X210092833Y-83608929D02*
X210137357Y-83653452D01*
X210270928Y-83697976D01*
X210359976Y-83697976D01*
X210493548Y-83653452D01*
X210582595Y-83564405D01*
X210627119Y-83475357D01*
X210671643Y-83297262D01*
X210671643Y-83163690D01*
X210627119Y-82985595D01*
X210582595Y-82896548D01*
X210493548Y-82807500D01*
X210359976Y-82762976D01*
X210270928Y-82762976D01*
X210137357Y-82807500D01*
X210092833Y-82852024D01*
X209291405Y-83074643D02*
X209291405Y-83697976D01*
X209514024Y-82718452D02*
X209736643Y-83386310D01*
X209157833Y-83386310D01*
X210152833Y-88348929D02*
X210197357Y-88393452D01*
X210330928Y-88437976D01*
X210419976Y-88437976D01*
X210553548Y-88393452D01*
X210642595Y-88304405D01*
X210687119Y-88215357D01*
X210731643Y-88037262D01*
X210731643Y-87903690D01*
X210687119Y-87725595D01*
X210642595Y-87636548D01*
X210553548Y-87547500D01*
X210419976Y-87502976D01*
X210330928Y-87502976D01*
X210197357Y-87547500D01*
X210152833Y-87592024D01*
X209841167Y-87502976D02*
X209217833Y-87502976D01*
X209618548Y-88437976D01*
X198328929Y-95251167D02*
X198373452Y-95206643D01*
X198417976Y-95073072D01*
X198417976Y-94984024D01*
X198373452Y-94850452D01*
X198284405Y-94761405D01*
X198195357Y-94716881D01*
X198017262Y-94672357D01*
X197883690Y-94672357D01*
X197705595Y-94716881D01*
X197616548Y-94761405D01*
X197527500Y-94850452D01*
X197482976Y-94984024D01*
X197482976Y-95073072D01*
X197527500Y-95206643D01*
X197572024Y-95251167D01*
X197883690Y-95785452D02*
X197839167Y-95696405D01*
X197794643Y-95651881D01*
X197705595Y-95607357D01*
X197661071Y-95607357D01*
X197572024Y-95651881D01*
X197527500Y-95696405D01*
X197482976Y-95785452D01*
X197482976Y-95963548D01*
X197527500Y-96052595D01*
X197572024Y-96097119D01*
X197661071Y-96141643D01*
X197705595Y-96141643D01*
X197794643Y-96097119D01*
X197839167Y-96052595D01*
X197883690Y-95963548D01*
X197883690Y-95785452D01*
X197928214Y-95696405D01*
X197972738Y-95651881D01*
X198061786Y-95607357D01*
X198239881Y-95607357D01*
X198328929Y-95651881D01*
X198373452Y-95696405D01*
X198417976Y-95785452D01*
X198417976Y-95963548D01*
X198373452Y-96052595D01*
X198328929Y-96097119D01*
X198239881Y-96141643D01*
X198061786Y-96141643D01*
X197972738Y-96097119D01*
X197928214Y-96052595D01*
X197883690Y-95963548D01*
D12*
X332488571Y-67182381D02*
X332488571Y-66182381D01*
X332250476Y-66182381D01*
X332107618Y-66230000D01*
X332012380Y-66325238D01*
X331964761Y-66420476D01*
X331917142Y-66610952D01*
X331917142Y-66753810D01*
X331964761Y-66944286D01*
X332012380Y-67039524D01*
X332107618Y-67134762D01*
X332250476Y-67182381D01*
X332488571Y-67182381D01*
X331059999Y-66515714D02*
X331059999Y-67182381D01*
X331298095Y-66134762D02*
X331536190Y-66849048D01*
X330917142Y-66849048D01*
X330536190Y-67087143D02*
X330488571Y-67134762D01*
X330536190Y-67182381D01*
X330583809Y-67134762D01*
X330536190Y-67087143D01*
X330536190Y-67182381D01*
X330536190Y-66563333D02*
X330488571Y-66610952D01*
X330536190Y-66658571D01*
X330583809Y-66610952D01*
X330536190Y-66563333D01*
X330536190Y-66658571D01*
X329536190Y-67182381D02*
X330107619Y-67182381D01*
X329821905Y-67182381D02*
X329821905Y-66182381D01*
X329917143Y-66325238D01*
X330012381Y-66420476D01*
X330107619Y-66468095D01*
X329202857Y-66182381D02*
X328583809Y-66182381D01*
X328917143Y-66563333D01*
X328774285Y-66563333D01*
X328679047Y-66610952D01*
X328631428Y-66658571D01*
X328583809Y-66753810D01*
X328583809Y-66991905D01*
X328631428Y-67087143D01*
X328679047Y-67134762D01*
X328774285Y-67182381D01*
X329060000Y-67182381D01*
X329155238Y-67134762D01*
X329202857Y-67087143D01*
X313468571Y-67182381D02*
X313468571Y-66182381D01*
X313230476Y-66182381D01*
X313087618Y-66230000D01*
X312992380Y-66325238D01*
X312944761Y-66420476D01*
X312897142Y-66610952D01*
X312897142Y-66753810D01*
X312944761Y-66944286D01*
X312992380Y-67039524D01*
X313087618Y-67134762D01*
X313230476Y-67182381D01*
X313468571Y-67182381D01*
X312039999Y-66515714D02*
X312039999Y-67182381D01*
X312278095Y-66134762D02*
X312516190Y-66849048D01*
X311897142Y-66849048D01*
X311516190Y-67087143D02*
X311468571Y-67134762D01*
X311516190Y-67182381D01*
X311563809Y-67134762D01*
X311516190Y-67087143D01*
X311516190Y-67182381D01*
X311516190Y-66563333D02*
X311468571Y-66610952D01*
X311516190Y-66658571D01*
X311563809Y-66610952D01*
X311516190Y-66563333D01*
X311516190Y-66658571D01*
X310516190Y-67182381D02*
X311087619Y-67182381D01*
X310801905Y-67182381D02*
X310801905Y-66182381D01*
X310897143Y-66325238D01*
X310992381Y-66420476D01*
X311087619Y-66468095D01*
X310135238Y-66277619D02*
X310087619Y-66230000D01*
X309992381Y-66182381D01*
X309754285Y-66182381D01*
X309659047Y-66230000D01*
X309611428Y-66277619D01*
X309563809Y-66372857D01*
X309563809Y-66468095D01*
X309611428Y-66610952D01*
X310182857Y-67182381D01*
X309563809Y-67182381D01*
X294458571Y-67142381D02*
X294458571Y-66142381D01*
X294220476Y-66142381D01*
X294077618Y-66190000D01*
X293982380Y-66285238D01*
X293934761Y-66380476D01*
X293887142Y-66570952D01*
X293887142Y-66713810D01*
X293934761Y-66904286D01*
X293982380Y-66999524D01*
X294077618Y-67094762D01*
X294220476Y-67142381D01*
X294458571Y-67142381D01*
X293029999Y-66475714D02*
X293029999Y-67142381D01*
X293268095Y-66094762D02*
X293506190Y-66809048D01*
X292887142Y-66809048D01*
X292506190Y-67047143D02*
X292458571Y-67094762D01*
X292506190Y-67142381D01*
X292553809Y-67094762D01*
X292506190Y-67047143D01*
X292506190Y-67142381D01*
X292506190Y-66523333D02*
X292458571Y-66570952D01*
X292506190Y-66618571D01*
X292553809Y-66570952D01*
X292506190Y-66523333D01*
X292506190Y-66618571D01*
X291506190Y-67142381D02*
X292077619Y-67142381D01*
X291791905Y-67142381D02*
X291791905Y-66142381D01*
X291887143Y-66285238D01*
X291982381Y-66380476D01*
X292077619Y-66428095D01*
X290553809Y-67142381D02*
X291125238Y-67142381D01*
X290839524Y-67142381D02*
X290839524Y-66142381D01*
X290934762Y-66285238D01*
X291030000Y-66380476D01*
X291125238Y-66428095D01*
X275488571Y-67072381D02*
X275488571Y-66072381D01*
X275250476Y-66072381D01*
X275107618Y-66120000D01*
X275012380Y-66215238D01*
X274964761Y-66310476D01*
X274917142Y-66500952D01*
X274917142Y-66643810D01*
X274964761Y-66834286D01*
X275012380Y-66929524D01*
X275107618Y-67024762D01*
X275250476Y-67072381D01*
X275488571Y-67072381D01*
X274059999Y-66405714D02*
X274059999Y-67072381D01*
X274298095Y-66024762D02*
X274536190Y-66739048D01*
X273917142Y-66739048D01*
X273536190Y-66977143D02*
X273488571Y-67024762D01*
X273536190Y-67072381D01*
X273583809Y-67024762D01*
X273536190Y-66977143D01*
X273536190Y-67072381D01*
X273536190Y-66453333D02*
X273488571Y-66500952D01*
X273536190Y-66548571D01*
X273583809Y-66500952D01*
X273536190Y-66453333D01*
X273536190Y-66548571D01*
X272536190Y-67072381D02*
X273107619Y-67072381D01*
X272821905Y-67072381D02*
X272821905Y-66072381D01*
X272917143Y-66215238D01*
X273012381Y-66310476D01*
X273107619Y-66358095D01*
X271917143Y-66072381D02*
X271821904Y-66072381D01*
X271726666Y-66120000D01*
X271679047Y-66167619D01*
X271631428Y-66262857D01*
X271583809Y-66453333D01*
X271583809Y-66691429D01*
X271631428Y-66881905D01*
X271679047Y-66977143D01*
X271726666Y-67024762D01*
X271821904Y-67072381D01*
X271917143Y-67072381D01*
X272012381Y-67024762D01*
X272060000Y-66977143D01*
X272107619Y-66881905D01*
X272155238Y-66691429D01*
X272155238Y-66453333D01*
X272107619Y-66262857D01*
X272060000Y-66167619D01*
X272012381Y-66120000D01*
X271917143Y-66072381D01*
X256002381Y-67142381D02*
X256002381Y-66142381D01*
X255764286Y-66142381D01*
X255621428Y-66190000D01*
X255526190Y-66285238D01*
X255478571Y-66380476D01*
X255430952Y-66570952D01*
X255430952Y-66713810D01*
X255478571Y-66904286D01*
X255526190Y-66999524D01*
X255621428Y-67094762D01*
X255764286Y-67142381D01*
X256002381Y-67142381D01*
X254573809Y-66475714D02*
X254573809Y-67142381D01*
X254811905Y-66094762D02*
X255050000Y-66809048D01*
X254430952Y-66809048D01*
X254050000Y-67047143D02*
X254002381Y-67094762D01*
X254050000Y-67142381D01*
X254097619Y-67094762D01*
X254050000Y-67047143D01*
X254050000Y-67142381D01*
X254050000Y-66523333D02*
X254002381Y-66570952D01*
X254050000Y-66618571D01*
X254097619Y-66570952D01*
X254050000Y-66523333D01*
X254050000Y-66618571D01*
X253526191Y-67142381D02*
X253335715Y-67142381D01*
X253240476Y-67094762D01*
X253192857Y-67047143D01*
X253097619Y-66904286D01*
X253050000Y-66713810D01*
X253050000Y-66332857D01*
X253097619Y-66237619D01*
X253145238Y-66190000D01*
X253240476Y-66142381D01*
X253430953Y-66142381D01*
X253526191Y-66190000D01*
X253573810Y-66237619D01*
X253621429Y-66332857D01*
X253621429Y-66570952D01*
X253573810Y-66666190D01*
X253526191Y-66713810D01*
X253430953Y-66761429D01*
X253240476Y-66761429D01*
X253145238Y-66713810D01*
X253097619Y-66666190D01*
X253050000Y-66570952D01*
X236982381Y-67142381D02*
X236982381Y-66142381D01*
X236744286Y-66142381D01*
X236601428Y-66190000D01*
X236506190Y-66285238D01*
X236458571Y-66380476D01*
X236410952Y-66570952D01*
X236410952Y-66713810D01*
X236458571Y-66904286D01*
X236506190Y-66999524D01*
X236601428Y-67094762D01*
X236744286Y-67142381D01*
X236982381Y-67142381D01*
X235553809Y-66475714D02*
X235553809Y-67142381D01*
X235791905Y-66094762D02*
X236030000Y-66809048D01*
X235410952Y-66809048D01*
X235030000Y-67047143D02*
X234982381Y-67094762D01*
X235030000Y-67142381D01*
X235077619Y-67094762D01*
X235030000Y-67047143D01*
X235030000Y-67142381D01*
X235030000Y-66523333D02*
X234982381Y-66570952D01*
X235030000Y-66618571D01*
X235077619Y-66570952D01*
X235030000Y-66523333D01*
X235030000Y-66618571D01*
X234410953Y-66570952D02*
X234506191Y-66523333D01*
X234553810Y-66475714D01*
X234601429Y-66380476D01*
X234601429Y-66332857D01*
X234553810Y-66237619D01*
X234506191Y-66190000D01*
X234410953Y-66142381D01*
X234220476Y-66142381D01*
X234125238Y-66190000D01*
X234077619Y-66237619D01*
X234030000Y-66332857D01*
X234030000Y-66380476D01*
X234077619Y-66475714D01*
X234125238Y-66523333D01*
X234220476Y-66570952D01*
X234410953Y-66570952D01*
X234506191Y-66618571D01*
X234553810Y-66666190D01*
X234601429Y-66761429D01*
X234601429Y-66951905D01*
X234553810Y-67047143D01*
X234506191Y-67094762D01*
X234410953Y-67142381D01*
X234220476Y-67142381D01*
X234125238Y-67094762D01*
X234077619Y-67047143D01*
X234030000Y-66951905D01*
X234030000Y-66761429D01*
X234077619Y-66666190D01*
X234125238Y-66618571D01*
X234220476Y-66570952D01*
X221272381Y-63222381D02*
X221272381Y-62222381D01*
X221034286Y-62222381D01*
X220891428Y-62270000D01*
X220796190Y-62365238D01*
X220748571Y-62460476D01*
X220700952Y-62650952D01*
X220700952Y-62793810D01*
X220748571Y-62984286D01*
X220796190Y-63079524D01*
X220891428Y-63174762D01*
X221034286Y-63222381D01*
X221272381Y-63222381D01*
X219843809Y-62555714D02*
X219843809Y-63222381D01*
X220081905Y-62174762D02*
X220320000Y-62889048D01*
X219700952Y-62889048D01*
X219320000Y-63127143D02*
X219272381Y-63174762D01*
X219320000Y-63222381D01*
X219367619Y-63174762D01*
X219320000Y-63127143D01*
X219320000Y-63222381D01*
X219320000Y-62603333D02*
X219272381Y-62650952D01*
X219320000Y-62698571D01*
X219367619Y-62650952D01*
X219320000Y-62603333D01*
X219320000Y-62698571D01*
X218939048Y-62222381D02*
X218272381Y-62222381D01*
X218700953Y-63222381D01*
X199002381Y-66992381D02*
X199002381Y-65992381D01*
X198764286Y-65992381D01*
X198621428Y-66040000D01*
X198526190Y-66135238D01*
X198478571Y-66230476D01*
X198430952Y-66420952D01*
X198430952Y-66563810D01*
X198478571Y-66754286D01*
X198526190Y-66849524D01*
X198621428Y-66944762D01*
X198764286Y-66992381D01*
X199002381Y-66992381D01*
X197573809Y-66325714D02*
X197573809Y-66992381D01*
X197811905Y-65944762D02*
X198050000Y-66659048D01*
X197430952Y-66659048D01*
X197050000Y-66897143D02*
X197002381Y-66944762D01*
X197050000Y-66992381D01*
X197097619Y-66944762D01*
X197050000Y-66897143D01*
X197050000Y-66992381D01*
X197050000Y-66373333D02*
X197002381Y-66420952D01*
X197050000Y-66468571D01*
X197097619Y-66420952D01*
X197050000Y-66373333D01*
X197050000Y-66468571D01*
X196145238Y-65992381D02*
X196335715Y-65992381D01*
X196430953Y-66040000D01*
X196478572Y-66087619D01*
X196573810Y-66230476D01*
X196621429Y-66420952D01*
X196621429Y-66801905D01*
X196573810Y-66897143D01*
X196526191Y-66944762D01*
X196430953Y-66992381D01*
X196240476Y-66992381D01*
X196145238Y-66944762D01*
X196097619Y-66897143D01*
X196050000Y-66801905D01*
X196050000Y-66563810D01*
X196097619Y-66468571D01*
X196145238Y-66420952D01*
X196240476Y-66373333D01*
X196430953Y-66373333D01*
X196526191Y-66420952D01*
X196573810Y-66468571D01*
X196621429Y-66563810D01*
X179992381Y-67072381D02*
X179992381Y-66072381D01*
X179754286Y-66072381D01*
X179611428Y-66120000D01*
X179516190Y-66215238D01*
X179468571Y-66310476D01*
X179420952Y-66500952D01*
X179420952Y-66643810D01*
X179468571Y-66834286D01*
X179516190Y-66929524D01*
X179611428Y-67024762D01*
X179754286Y-67072381D01*
X179992381Y-67072381D01*
X178563809Y-66405714D02*
X178563809Y-67072381D01*
X178801905Y-66024762D02*
X179040000Y-66739048D01*
X178420952Y-66739048D01*
X178040000Y-66977143D02*
X177992381Y-67024762D01*
X178040000Y-67072381D01*
X178087619Y-67024762D01*
X178040000Y-66977143D01*
X178040000Y-67072381D01*
X178040000Y-66453333D02*
X177992381Y-66500952D01*
X178040000Y-66548571D01*
X178087619Y-66500952D01*
X178040000Y-66453333D01*
X178040000Y-66548571D01*
X177087619Y-66072381D02*
X177563810Y-66072381D01*
X177611429Y-66548571D01*
X177563810Y-66500952D01*
X177468572Y-66453333D01*
X177230476Y-66453333D01*
X177135238Y-66500952D01*
X177087619Y-66548571D01*
X177040000Y-66643810D01*
X177040000Y-66881905D01*
X177087619Y-66977143D01*
X177135238Y-67024762D01*
X177230476Y-67072381D01*
X177468572Y-67072381D01*
X177563810Y-67024762D01*
X177611429Y-66977143D01*
X161012381Y-67032381D02*
X161012381Y-66032381D01*
X160774286Y-66032381D01*
X160631428Y-66080000D01*
X160536190Y-66175238D01*
X160488571Y-66270476D01*
X160440952Y-66460952D01*
X160440952Y-66603810D01*
X160488571Y-66794286D01*
X160536190Y-66889524D01*
X160631428Y-66984762D01*
X160774286Y-67032381D01*
X161012381Y-67032381D01*
X159583809Y-66365714D02*
X159583809Y-67032381D01*
X159821905Y-65984762D02*
X160060000Y-66699048D01*
X159440952Y-66699048D01*
X159060000Y-66937143D02*
X159012381Y-66984762D01*
X159060000Y-67032381D01*
X159107619Y-66984762D01*
X159060000Y-66937143D01*
X159060000Y-67032381D01*
X159060000Y-66413333D02*
X159012381Y-66460952D01*
X159060000Y-66508571D01*
X159107619Y-66460952D01*
X159060000Y-66413333D01*
X159060000Y-66508571D01*
X158155238Y-66365714D02*
X158155238Y-67032381D01*
X158393334Y-65984762D02*
X158631429Y-66699048D01*
X158012381Y-66699048D01*
X142002381Y-67072381D02*
X142002381Y-66072381D01*
X141764286Y-66072381D01*
X141621428Y-66120000D01*
X141526190Y-66215238D01*
X141478571Y-66310476D01*
X141430952Y-66500952D01*
X141430952Y-66643810D01*
X141478571Y-66834286D01*
X141526190Y-66929524D01*
X141621428Y-67024762D01*
X141764286Y-67072381D01*
X142002381Y-67072381D01*
X140573809Y-66405714D02*
X140573809Y-67072381D01*
X140811905Y-66024762D02*
X141050000Y-66739048D01*
X140430952Y-66739048D01*
X140050000Y-66977143D02*
X140002381Y-67024762D01*
X140050000Y-67072381D01*
X140097619Y-67024762D01*
X140050000Y-66977143D01*
X140050000Y-67072381D01*
X140050000Y-66453333D02*
X140002381Y-66500952D01*
X140050000Y-66548571D01*
X140097619Y-66500952D01*
X140050000Y-66453333D01*
X140050000Y-66548571D01*
X139669048Y-66072381D02*
X139050000Y-66072381D01*
X139383334Y-66453333D01*
X139240476Y-66453333D01*
X139145238Y-66500952D01*
X139097619Y-66548571D01*
X139050000Y-66643810D01*
X139050000Y-66881905D01*
X139097619Y-66977143D01*
X139145238Y-67024762D01*
X139240476Y-67072381D01*
X139526191Y-67072381D01*
X139621429Y-67024762D01*
X139669048Y-66977143D01*
X122992381Y-66992381D02*
X122992381Y-65992381D01*
X122754286Y-65992381D01*
X122611428Y-66040000D01*
X122516190Y-66135238D01*
X122468571Y-66230476D01*
X122420952Y-66420952D01*
X122420952Y-66563810D01*
X122468571Y-66754286D01*
X122516190Y-66849524D01*
X122611428Y-66944762D01*
X122754286Y-66992381D01*
X122992381Y-66992381D01*
X121563809Y-66325714D02*
X121563809Y-66992381D01*
X121801905Y-65944762D02*
X122040000Y-66659048D01*
X121420952Y-66659048D01*
X121040000Y-66897143D02*
X120992381Y-66944762D01*
X121040000Y-66992381D01*
X121087619Y-66944762D01*
X121040000Y-66897143D01*
X121040000Y-66992381D01*
X121040000Y-66373333D02*
X120992381Y-66420952D01*
X121040000Y-66468571D01*
X121087619Y-66420952D01*
X121040000Y-66373333D01*
X121040000Y-66468571D01*
X120611429Y-66087619D02*
X120563810Y-66040000D01*
X120468572Y-65992381D01*
X120230476Y-65992381D01*
X120135238Y-66040000D01*
X120087619Y-66087619D01*
X120040000Y-66182857D01*
X120040000Y-66278095D01*
X120087619Y-66420952D01*
X120659048Y-66992381D01*
X120040000Y-66992381D01*
X104022381Y-67032381D02*
X104022381Y-66032381D01*
X103784286Y-66032381D01*
X103641428Y-66080000D01*
X103546190Y-66175238D01*
X103498571Y-66270476D01*
X103450952Y-66460952D01*
X103450952Y-66603810D01*
X103498571Y-66794286D01*
X103546190Y-66889524D01*
X103641428Y-66984762D01*
X103784286Y-67032381D01*
X104022381Y-67032381D01*
X102593809Y-66365714D02*
X102593809Y-67032381D01*
X102831905Y-65984762D02*
X103070000Y-66699048D01*
X102450952Y-66699048D01*
X102070000Y-66937143D02*
X102022381Y-66984762D01*
X102070000Y-67032381D01*
X102117619Y-66984762D01*
X102070000Y-66937143D01*
X102070000Y-67032381D01*
X102070000Y-66413333D02*
X102022381Y-66460952D01*
X102070000Y-66508571D01*
X102117619Y-66460952D01*
X102070000Y-66413333D01*
X102070000Y-66508571D01*
X101070000Y-67032381D02*
X101641429Y-67032381D01*
X101355715Y-67032381D02*
X101355715Y-66032381D01*
X101450953Y-66175238D01*
X101546191Y-66270476D01*
X101641429Y-66318095D01*
X332518571Y-85992381D02*
X332518571Y-84992381D01*
X332280476Y-84992381D01*
X332137618Y-85040000D01*
X332042380Y-85135238D01*
X331994761Y-85230476D01*
X331947142Y-85420952D01*
X331947142Y-85563810D01*
X331994761Y-85754286D01*
X332042380Y-85849524D01*
X332137618Y-85944762D01*
X332280476Y-85992381D01*
X332518571Y-85992381D01*
X331613809Y-84992381D02*
X330994761Y-84992381D01*
X331328095Y-85373333D01*
X331185237Y-85373333D01*
X331089999Y-85420952D01*
X331042380Y-85468571D01*
X330994761Y-85563810D01*
X330994761Y-85801905D01*
X331042380Y-85897143D01*
X331089999Y-85944762D01*
X331185237Y-85992381D01*
X331470952Y-85992381D01*
X331566190Y-85944762D01*
X331613809Y-85897143D01*
X330566190Y-85897143D02*
X330518571Y-85944762D01*
X330566190Y-85992381D01*
X330613809Y-85944762D01*
X330566190Y-85897143D01*
X330566190Y-85992381D01*
X330566190Y-85373333D02*
X330518571Y-85420952D01*
X330566190Y-85468571D01*
X330613809Y-85420952D01*
X330566190Y-85373333D01*
X330566190Y-85468571D01*
X329566190Y-85992381D02*
X330137619Y-85992381D01*
X329851905Y-85992381D02*
X329851905Y-84992381D01*
X329947143Y-85135238D01*
X330042381Y-85230476D01*
X330137619Y-85278095D01*
X329232857Y-84992381D02*
X328613809Y-84992381D01*
X328947143Y-85373333D01*
X328804285Y-85373333D01*
X328709047Y-85420952D01*
X328661428Y-85468571D01*
X328613809Y-85563810D01*
X328613809Y-85801905D01*
X328661428Y-85897143D01*
X328709047Y-85944762D01*
X328804285Y-85992381D01*
X329090000Y-85992381D01*
X329185238Y-85944762D01*
X329232857Y-85897143D01*
X313468571Y-86002381D02*
X313468571Y-85002381D01*
X313230476Y-85002381D01*
X313087618Y-85050000D01*
X312992380Y-85145238D01*
X312944761Y-85240476D01*
X312897142Y-85430952D01*
X312897142Y-85573810D01*
X312944761Y-85764286D01*
X312992380Y-85859524D01*
X313087618Y-85954762D01*
X313230476Y-86002381D01*
X313468571Y-86002381D01*
X312563809Y-85002381D02*
X311944761Y-85002381D01*
X312278095Y-85383333D01*
X312135237Y-85383333D01*
X312039999Y-85430952D01*
X311992380Y-85478571D01*
X311944761Y-85573810D01*
X311944761Y-85811905D01*
X311992380Y-85907143D01*
X312039999Y-85954762D01*
X312135237Y-86002381D01*
X312420952Y-86002381D01*
X312516190Y-85954762D01*
X312563809Y-85907143D01*
X311516190Y-85907143D02*
X311468571Y-85954762D01*
X311516190Y-86002381D01*
X311563809Y-85954762D01*
X311516190Y-85907143D01*
X311516190Y-86002381D01*
X311516190Y-85383333D02*
X311468571Y-85430952D01*
X311516190Y-85478571D01*
X311563809Y-85430952D01*
X311516190Y-85383333D01*
X311516190Y-85478571D01*
X310516190Y-86002381D02*
X311087619Y-86002381D01*
X310801905Y-86002381D02*
X310801905Y-85002381D01*
X310897143Y-85145238D01*
X310992381Y-85240476D01*
X311087619Y-85288095D01*
X310135238Y-85097619D02*
X310087619Y-85050000D01*
X309992381Y-85002381D01*
X309754285Y-85002381D01*
X309659047Y-85050000D01*
X309611428Y-85097619D01*
X309563809Y-85192857D01*
X309563809Y-85288095D01*
X309611428Y-85430952D01*
X310182857Y-86002381D01*
X309563809Y-86002381D01*
X294458571Y-85972381D02*
X294458571Y-84972381D01*
X294220476Y-84972381D01*
X294077618Y-85020000D01*
X293982380Y-85115238D01*
X293934761Y-85210476D01*
X293887142Y-85400952D01*
X293887142Y-85543810D01*
X293934761Y-85734286D01*
X293982380Y-85829524D01*
X294077618Y-85924762D01*
X294220476Y-85972381D01*
X294458571Y-85972381D01*
X293553809Y-84972381D02*
X292934761Y-84972381D01*
X293268095Y-85353333D01*
X293125237Y-85353333D01*
X293029999Y-85400952D01*
X292982380Y-85448571D01*
X292934761Y-85543810D01*
X292934761Y-85781905D01*
X292982380Y-85877143D01*
X293029999Y-85924762D01*
X293125237Y-85972381D01*
X293410952Y-85972381D01*
X293506190Y-85924762D01*
X293553809Y-85877143D01*
X292506190Y-85877143D02*
X292458571Y-85924762D01*
X292506190Y-85972381D01*
X292553809Y-85924762D01*
X292506190Y-85877143D01*
X292506190Y-85972381D01*
X292506190Y-85353333D02*
X292458571Y-85400952D01*
X292506190Y-85448571D01*
X292553809Y-85400952D01*
X292506190Y-85353333D01*
X292506190Y-85448571D01*
X291506190Y-85972381D02*
X292077619Y-85972381D01*
X291791905Y-85972381D02*
X291791905Y-84972381D01*
X291887143Y-85115238D01*
X291982381Y-85210476D01*
X292077619Y-85258095D01*
X290553809Y-85972381D02*
X291125238Y-85972381D01*
X290839524Y-85972381D02*
X290839524Y-84972381D01*
X290934762Y-85115238D01*
X291030000Y-85210476D01*
X291125238Y-85258095D01*
X275488571Y-86082381D02*
X275488571Y-85082381D01*
X275250476Y-85082381D01*
X275107618Y-85130000D01*
X275012380Y-85225238D01*
X274964761Y-85320476D01*
X274917142Y-85510952D01*
X274917142Y-85653810D01*
X274964761Y-85844286D01*
X275012380Y-85939524D01*
X275107618Y-86034762D01*
X275250476Y-86082381D01*
X275488571Y-86082381D01*
X274583809Y-85082381D02*
X273964761Y-85082381D01*
X274298095Y-85463333D01*
X274155237Y-85463333D01*
X274059999Y-85510952D01*
X274012380Y-85558571D01*
X273964761Y-85653810D01*
X273964761Y-85891905D01*
X274012380Y-85987143D01*
X274059999Y-86034762D01*
X274155237Y-86082381D01*
X274440952Y-86082381D01*
X274536190Y-86034762D01*
X274583809Y-85987143D01*
X273536190Y-85987143D02*
X273488571Y-86034762D01*
X273536190Y-86082381D01*
X273583809Y-86034762D01*
X273536190Y-85987143D01*
X273536190Y-86082381D01*
X273536190Y-85463333D02*
X273488571Y-85510952D01*
X273536190Y-85558571D01*
X273583809Y-85510952D01*
X273536190Y-85463333D01*
X273536190Y-85558571D01*
X272536190Y-86082381D02*
X273107619Y-86082381D01*
X272821905Y-86082381D02*
X272821905Y-85082381D01*
X272917143Y-85225238D01*
X273012381Y-85320476D01*
X273107619Y-85368095D01*
X271917143Y-85082381D02*
X271821904Y-85082381D01*
X271726666Y-85130000D01*
X271679047Y-85177619D01*
X271631428Y-85272857D01*
X271583809Y-85463333D01*
X271583809Y-85701429D01*
X271631428Y-85891905D01*
X271679047Y-85987143D01*
X271726666Y-86034762D01*
X271821904Y-86082381D01*
X271917143Y-86082381D01*
X272012381Y-86034762D01*
X272060000Y-85987143D01*
X272107619Y-85891905D01*
X272155238Y-85701429D01*
X272155238Y-85463333D01*
X272107619Y-85272857D01*
X272060000Y-85177619D01*
X272012381Y-85130000D01*
X271917143Y-85082381D01*
X256002381Y-86082381D02*
X256002381Y-85082381D01*
X255764286Y-85082381D01*
X255621428Y-85130000D01*
X255526190Y-85225238D01*
X255478571Y-85320476D01*
X255430952Y-85510952D01*
X255430952Y-85653810D01*
X255478571Y-85844286D01*
X255526190Y-85939524D01*
X255621428Y-86034762D01*
X255764286Y-86082381D01*
X256002381Y-86082381D01*
X255097619Y-85082381D02*
X254478571Y-85082381D01*
X254811905Y-85463333D01*
X254669047Y-85463333D01*
X254573809Y-85510952D01*
X254526190Y-85558571D01*
X254478571Y-85653810D01*
X254478571Y-85891905D01*
X254526190Y-85987143D01*
X254573809Y-86034762D01*
X254669047Y-86082381D01*
X254954762Y-86082381D01*
X255050000Y-86034762D01*
X255097619Y-85987143D01*
X254050000Y-85987143D02*
X254002381Y-86034762D01*
X254050000Y-86082381D01*
X254097619Y-86034762D01*
X254050000Y-85987143D01*
X254050000Y-86082381D01*
X254050000Y-85463333D02*
X254002381Y-85510952D01*
X254050000Y-85558571D01*
X254097619Y-85510952D01*
X254050000Y-85463333D01*
X254050000Y-85558571D01*
X253526191Y-86082381D02*
X253335715Y-86082381D01*
X253240476Y-86034762D01*
X253192857Y-85987143D01*
X253097619Y-85844286D01*
X253050000Y-85653810D01*
X253050000Y-85272857D01*
X253097619Y-85177619D01*
X253145238Y-85130000D01*
X253240476Y-85082381D01*
X253430953Y-85082381D01*
X253526191Y-85130000D01*
X253573810Y-85177619D01*
X253621429Y-85272857D01*
X253621429Y-85510952D01*
X253573810Y-85606190D01*
X253526191Y-85653810D01*
X253430953Y-85701429D01*
X253240476Y-85701429D01*
X253145238Y-85653810D01*
X253097619Y-85606190D01*
X253050000Y-85510952D01*
X236982381Y-86122381D02*
X236982381Y-85122381D01*
X236744286Y-85122381D01*
X236601428Y-85170000D01*
X236506190Y-85265238D01*
X236458571Y-85360476D01*
X236410952Y-85550952D01*
X236410952Y-85693810D01*
X236458571Y-85884286D01*
X236506190Y-85979524D01*
X236601428Y-86074762D01*
X236744286Y-86122381D01*
X236982381Y-86122381D01*
X236077619Y-85122381D02*
X235458571Y-85122381D01*
X235791905Y-85503333D01*
X235649047Y-85503333D01*
X235553809Y-85550952D01*
X235506190Y-85598571D01*
X235458571Y-85693810D01*
X235458571Y-85931905D01*
X235506190Y-86027143D01*
X235553809Y-86074762D01*
X235649047Y-86122381D01*
X235934762Y-86122381D01*
X236030000Y-86074762D01*
X236077619Y-86027143D01*
X235030000Y-86027143D02*
X234982381Y-86074762D01*
X235030000Y-86122381D01*
X235077619Y-86074762D01*
X235030000Y-86027143D01*
X235030000Y-86122381D01*
X235030000Y-85503333D02*
X234982381Y-85550952D01*
X235030000Y-85598571D01*
X235077619Y-85550952D01*
X235030000Y-85503333D01*
X235030000Y-85598571D01*
X234410953Y-85550952D02*
X234506191Y-85503333D01*
X234553810Y-85455714D01*
X234601429Y-85360476D01*
X234601429Y-85312857D01*
X234553810Y-85217619D01*
X234506191Y-85170000D01*
X234410953Y-85122381D01*
X234220476Y-85122381D01*
X234125238Y-85170000D01*
X234077619Y-85217619D01*
X234030000Y-85312857D01*
X234030000Y-85360476D01*
X234077619Y-85455714D01*
X234125238Y-85503333D01*
X234220476Y-85550952D01*
X234410953Y-85550952D01*
X234506191Y-85598571D01*
X234553810Y-85646190D01*
X234601429Y-85741429D01*
X234601429Y-85931905D01*
X234553810Y-86027143D01*
X234506191Y-86074762D01*
X234410953Y-86122381D01*
X234220476Y-86122381D01*
X234125238Y-86074762D01*
X234077619Y-86027143D01*
X234030000Y-85931905D01*
X234030000Y-85741429D01*
X234077619Y-85646190D01*
X234125238Y-85598571D01*
X234220476Y-85550952D01*
X221232381Y-82042381D02*
X221232381Y-81042381D01*
X220994286Y-81042381D01*
X220851428Y-81090000D01*
X220756190Y-81185238D01*
X220708571Y-81280476D01*
X220660952Y-81470952D01*
X220660952Y-81613810D01*
X220708571Y-81804286D01*
X220756190Y-81899524D01*
X220851428Y-81994762D01*
X220994286Y-82042381D01*
X221232381Y-82042381D01*
X220327619Y-81042381D02*
X219708571Y-81042381D01*
X220041905Y-81423333D01*
X219899047Y-81423333D01*
X219803809Y-81470952D01*
X219756190Y-81518571D01*
X219708571Y-81613810D01*
X219708571Y-81851905D01*
X219756190Y-81947143D01*
X219803809Y-81994762D01*
X219899047Y-82042381D01*
X220184762Y-82042381D01*
X220280000Y-81994762D01*
X220327619Y-81947143D01*
X219280000Y-81947143D02*
X219232381Y-81994762D01*
X219280000Y-82042381D01*
X219327619Y-81994762D01*
X219280000Y-81947143D01*
X219280000Y-82042381D01*
X219280000Y-81423333D02*
X219232381Y-81470952D01*
X219280000Y-81518571D01*
X219327619Y-81470952D01*
X219280000Y-81423333D01*
X219280000Y-81518571D01*
X218899048Y-81042381D02*
X218232381Y-81042381D01*
X218660953Y-82042381D01*
X199002381Y-85972381D02*
X199002381Y-84972381D01*
X198764286Y-84972381D01*
X198621428Y-85020000D01*
X198526190Y-85115238D01*
X198478571Y-85210476D01*
X198430952Y-85400952D01*
X198430952Y-85543810D01*
X198478571Y-85734286D01*
X198526190Y-85829524D01*
X198621428Y-85924762D01*
X198764286Y-85972381D01*
X199002381Y-85972381D01*
X198097619Y-84972381D02*
X197478571Y-84972381D01*
X197811905Y-85353333D01*
X197669047Y-85353333D01*
X197573809Y-85400952D01*
X197526190Y-85448571D01*
X197478571Y-85543810D01*
X197478571Y-85781905D01*
X197526190Y-85877143D01*
X197573809Y-85924762D01*
X197669047Y-85972381D01*
X197954762Y-85972381D01*
X198050000Y-85924762D01*
X198097619Y-85877143D01*
X197050000Y-85877143D02*
X197002381Y-85924762D01*
X197050000Y-85972381D01*
X197097619Y-85924762D01*
X197050000Y-85877143D01*
X197050000Y-85972381D01*
X197050000Y-85353333D02*
X197002381Y-85400952D01*
X197050000Y-85448571D01*
X197097619Y-85400952D01*
X197050000Y-85353333D01*
X197050000Y-85448571D01*
X196145238Y-84972381D02*
X196335715Y-84972381D01*
X196430953Y-85020000D01*
X196478572Y-85067619D01*
X196573810Y-85210476D01*
X196621429Y-85400952D01*
X196621429Y-85781905D01*
X196573810Y-85877143D01*
X196526191Y-85924762D01*
X196430953Y-85972381D01*
X196240476Y-85972381D01*
X196145238Y-85924762D01*
X196097619Y-85877143D01*
X196050000Y-85781905D01*
X196050000Y-85543810D01*
X196097619Y-85448571D01*
X196145238Y-85400952D01*
X196240476Y-85353333D01*
X196430953Y-85353333D01*
X196526191Y-85400952D01*
X196573810Y-85448571D01*
X196621429Y-85543810D01*
X179992381Y-86122381D02*
X179992381Y-85122381D01*
X179754286Y-85122381D01*
X179611428Y-85170000D01*
X179516190Y-85265238D01*
X179468571Y-85360476D01*
X179420952Y-85550952D01*
X179420952Y-85693810D01*
X179468571Y-85884286D01*
X179516190Y-85979524D01*
X179611428Y-86074762D01*
X179754286Y-86122381D01*
X179992381Y-86122381D01*
X179087619Y-85122381D02*
X178468571Y-85122381D01*
X178801905Y-85503333D01*
X178659047Y-85503333D01*
X178563809Y-85550952D01*
X178516190Y-85598571D01*
X178468571Y-85693810D01*
X178468571Y-85931905D01*
X178516190Y-86027143D01*
X178563809Y-86074762D01*
X178659047Y-86122381D01*
X178944762Y-86122381D01*
X179040000Y-86074762D01*
X179087619Y-86027143D01*
X178040000Y-86027143D02*
X177992381Y-86074762D01*
X178040000Y-86122381D01*
X178087619Y-86074762D01*
X178040000Y-86027143D01*
X178040000Y-86122381D01*
X178040000Y-85503333D02*
X177992381Y-85550952D01*
X178040000Y-85598571D01*
X178087619Y-85550952D01*
X178040000Y-85503333D01*
X178040000Y-85598571D01*
X177087619Y-85122381D02*
X177563810Y-85122381D01*
X177611429Y-85598571D01*
X177563810Y-85550952D01*
X177468572Y-85503333D01*
X177230476Y-85503333D01*
X177135238Y-85550952D01*
X177087619Y-85598571D01*
X177040000Y-85693810D01*
X177040000Y-85931905D01*
X177087619Y-86027143D01*
X177135238Y-86074762D01*
X177230476Y-86122381D01*
X177468572Y-86122381D01*
X177563810Y-86074762D01*
X177611429Y-86027143D01*
X161012381Y-85972381D02*
X161012381Y-84972381D01*
X160774286Y-84972381D01*
X160631428Y-85020000D01*
X160536190Y-85115238D01*
X160488571Y-85210476D01*
X160440952Y-85400952D01*
X160440952Y-85543810D01*
X160488571Y-85734286D01*
X160536190Y-85829524D01*
X160631428Y-85924762D01*
X160774286Y-85972381D01*
X161012381Y-85972381D01*
X160107619Y-84972381D02*
X159488571Y-84972381D01*
X159821905Y-85353333D01*
X159679047Y-85353333D01*
X159583809Y-85400952D01*
X159536190Y-85448571D01*
X159488571Y-85543810D01*
X159488571Y-85781905D01*
X159536190Y-85877143D01*
X159583809Y-85924762D01*
X159679047Y-85972381D01*
X159964762Y-85972381D01*
X160060000Y-85924762D01*
X160107619Y-85877143D01*
X159060000Y-85877143D02*
X159012381Y-85924762D01*
X159060000Y-85972381D01*
X159107619Y-85924762D01*
X159060000Y-85877143D01*
X159060000Y-85972381D01*
X159060000Y-85353333D02*
X159012381Y-85400952D01*
X159060000Y-85448571D01*
X159107619Y-85400952D01*
X159060000Y-85353333D01*
X159060000Y-85448571D01*
X158155238Y-85305714D02*
X158155238Y-85972381D01*
X158393334Y-84924762D02*
X158631429Y-85639048D01*
X158012381Y-85639048D01*
X142002381Y-86002381D02*
X142002381Y-85002381D01*
X141764286Y-85002381D01*
X141621428Y-85050000D01*
X141526190Y-85145238D01*
X141478571Y-85240476D01*
X141430952Y-85430952D01*
X141430952Y-85573810D01*
X141478571Y-85764286D01*
X141526190Y-85859524D01*
X141621428Y-85954762D01*
X141764286Y-86002381D01*
X142002381Y-86002381D01*
X141097619Y-85002381D02*
X140478571Y-85002381D01*
X140811905Y-85383333D01*
X140669047Y-85383333D01*
X140573809Y-85430952D01*
X140526190Y-85478571D01*
X140478571Y-85573810D01*
X140478571Y-85811905D01*
X140526190Y-85907143D01*
X140573809Y-85954762D01*
X140669047Y-86002381D01*
X140954762Y-86002381D01*
X141050000Y-85954762D01*
X141097619Y-85907143D01*
X140050000Y-85907143D02*
X140002381Y-85954762D01*
X140050000Y-86002381D01*
X140097619Y-85954762D01*
X140050000Y-85907143D01*
X140050000Y-86002381D01*
X140050000Y-85383333D02*
X140002381Y-85430952D01*
X140050000Y-85478571D01*
X140097619Y-85430952D01*
X140050000Y-85383333D01*
X140050000Y-85478571D01*
X139669048Y-85002381D02*
X139050000Y-85002381D01*
X139383334Y-85383333D01*
X139240476Y-85383333D01*
X139145238Y-85430952D01*
X139097619Y-85478571D01*
X139050000Y-85573810D01*
X139050000Y-85811905D01*
X139097619Y-85907143D01*
X139145238Y-85954762D01*
X139240476Y-86002381D01*
X139526191Y-86002381D01*
X139621429Y-85954762D01*
X139669048Y-85907143D01*
X122992381Y-85972381D02*
X122992381Y-84972381D01*
X122754286Y-84972381D01*
X122611428Y-85020000D01*
X122516190Y-85115238D01*
X122468571Y-85210476D01*
X122420952Y-85400952D01*
X122420952Y-85543810D01*
X122468571Y-85734286D01*
X122516190Y-85829524D01*
X122611428Y-85924762D01*
X122754286Y-85972381D01*
X122992381Y-85972381D01*
X122087619Y-84972381D02*
X121468571Y-84972381D01*
X121801905Y-85353333D01*
X121659047Y-85353333D01*
X121563809Y-85400952D01*
X121516190Y-85448571D01*
X121468571Y-85543810D01*
X121468571Y-85781905D01*
X121516190Y-85877143D01*
X121563809Y-85924762D01*
X121659047Y-85972381D01*
X121944762Y-85972381D01*
X122040000Y-85924762D01*
X122087619Y-85877143D01*
X121040000Y-85877143D02*
X120992381Y-85924762D01*
X121040000Y-85972381D01*
X121087619Y-85924762D01*
X121040000Y-85877143D01*
X121040000Y-85972381D01*
X121040000Y-85353333D02*
X120992381Y-85400952D01*
X121040000Y-85448571D01*
X121087619Y-85400952D01*
X121040000Y-85353333D01*
X121040000Y-85448571D01*
X120611429Y-85067619D02*
X120563810Y-85020000D01*
X120468572Y-84972381D01*
X120230476Y-84972381D01*
X120135238Y-85020000D01*
X120087619Y-85067619D01*
X120040000Y-85162857D01*
X120040000Y-85258095D01*
X120087619Y-85400952D01*
X120659048Y-85972381D01*
X120040000Y-85972381D01*
X103992381Y-86022381D02*
X103992381Y-85022381D01*
X103754286Y-85022381D01*
X103611428Y-85070000D01*
X103516190Y-85165238D01*
X103468571Y-85260476D01*
X103420952Y-85450952D01*
X103420952Y-85593810D01*
X103468571Y-85784286D01*
X103516190Y-85879524D01*
X103611428Y-85974762D01*
X103754286Y-86022381D01*
X103992381Y-86022381D01*
X103087619Y-85022381D02*
X102468571Y-85022381D01*
X102801905Y-85403333D01*
X102659047Y-85403333D01*
X102563809Y-85450952D01*
X102516190Y-85498571D01*
X102468571Y-85593810D01*
X102468571Y-85831905D01*
X102516190Y-85927143D01*
X102563809Y-85974762D01*
X102659047Y-86022381D01*
X102944762Y-86022381D01*
X103040000Y-85974762D01*
X103087619Y-85927143D01*
X102040000Y-85927143D02*
X101992381Y-85974762D01*
X102040000Y-86022381D01*
X102087619Y-85974762D01*
X102040000Y-85927143D01*
X102040000Y-86022381D01*
X102040000Y-85403333D02*
X101992381Y-85450952D01*
X102040000Y-85498571D01*
X102087619Y-85450952D01*
X102040000Y-85403333D01*
X102040000Y-85498571D01*
X101040000Y-86022381D02*
X101611429Y-86022381D01*
X101325715Y-86022381D02*
X101325715Y-85022381D01*
X101420953Y-85165238D01*
X101516191Y-85260476D01*
X101611429Y-85308095D01*
X332458571Y-105152381D02*
X332458571Y-104152381D01*
X332220476Y-104152381D01*
X332077618Y-104200000D01*
X331982380Y-104295238D01*
X331934761Y-104390476D01*
X331887142Y-104580952D01*
X331887142Y-104723810D01*
X331934761Y-104914286D01*
X331982380Y-105009524D01*
X332077618Y-105104762D01*
X332220476Y-105152381D01*
X332458571Y-105152381D01*
X331506190Y-104247619D02*
X331458571Y-104200000D01*
X331363333Y-104152381D01*
X331125237Y-104152381D01*
X331029999Y-104200000D01*
X330982380Y-104247619D01*
X330934761Y-104342857D01*
X330934761Y-104438095D01*
X330982380Y-104580952D01*
X331553809Y-105152381D01*
X330934761Y-105152381D01*
X330506190Y-105057143D02*
X330458571Y-105104762D01*
X330506190Y-105152381D01*
X330553809Y-105104762D01*
X330506190Y-105057143D01*
X330506190Y-105152381D01*
X330506190Y-104533333D02*
X330458571Y-104580952D01*
X330506190Y-104628571D01*
X330553809Y-104580952D01*
X330506190Y-104533333D01*
X330506190Y-104628571D01*
X329506190Y-105152381D02*
X330077619Y-105152381D01*
X329791905Y-105152381D02*
X329791905Y-104152381D01*
X329887143Y-104295238D01*
X329982381Y-104390476D01*
X330077619Y-104438095D01*
X329172857Y-104152381D02*
X328553809Y-104152381D01*
X328887143Y-104533333D01*
X328744285Y-104533333D01*
X328649047Y-104580952D01*
X328601428Y-104628571D01*
X328553809Y-104723810D01*
X328553809Y-104961905D01*
X328601428Y-105057143D01*
X328649047Y-105104762D01*
X328744285Y-105152381D01*
X329030000Y-105152381D01*
X329125238Y-105104762D01*
X329172857Y-105057143D01*
X313478571Y-105212381D02*
X313478571Y-104212381D01*
X313240476Y-104212381D01*
X313097618Y-104260000D01*
X313002380Y-104355238D01*
X312954761Y-104450476D01*
X312907142Y-104640952D01*
X312907142Y-104783810D01*
X312954761Y-104974286D01*
X313002380Y-105069524D01*
X313097618Y-105164762D01*
X313240476Y-105212381D01*
X313478571Y-105212381D01*
X312526190Y-104307619D02*
X312478571Y-104260000D01*
X312383333Y-104212381D01*
X312145237Y-104212381D01*
X312049999Y-104260000D01*
X312002380Y-104307619D01*
X311954761Y-104402857D01*
X311954761Y-104498095D01*
X312002380Y-104640952D01*
X312573809Y-105212381D01*
X311954761Y-105212381D01*
X311526190Y-105117143D02*
X311478571Y-105164762D01*
X311526190Y-105212381D01*
X311573809Y-105164762D01*
X311526190Y-105117143D01*
X311526190Y-105212381D01*
X311526190Y-104593333D02*
X311478571Y-104640952D01*
X311526190Y-104688571D01*
X311573809Y-104640952D01*
X311526190Y-104593333D01*
X311526190Y-104688571D01*
X310526190Y-105212381D02*
X311097619Y-105212381D01*
X310811905Y-105212381D02*
X310811905Y-104212381D01*
X310907143Y-104355238D01*
X311002381Y-104450476D01*
X311097619Y-104498095D01*
X310145238Y-104307619D02*
X310097619Y-104260000D01*
X310002381Y-104212381D01*
X309764285Y-104212381D01*
X309669047Y-104260000D01*
X309621428Y-104307619D01*
X309573809Y-104402857D01*
X309573809Y-104498095D01*
X309621428Y-104640952D01*
X310192857Y-105212381D01*
X309573809Y-105212381D01*
X294478571Y-105192381D02*
X294478571Y-104192381D01*
X294240476Y-104192381D01*
X294097618Y-104240000D01*
X294002380Y-104335238D01*
X293954761Y-104430476D01*
X293907142Y-104620952D01*
X293907142Y-104763810D01*
X293954761Y-104954286D01*
X294002380Y-105049524D01*
X294097618Y-105144762D01*
X294240476Y-105192381D01*
X294478571Y-105192381D01*
X293526190Y-104287619D02*
X293478571Y-104240000D01*
X293383333Y-104192381D01*
X293145237Y-104192381D01*
X293049999Y-104240000D01*
X293002380Y-104287619D01*
X292954761Y-104382857D01*
X292954761Y-104478095D01*
X293002380Y-104620952D01*
X293573809Y-105192381D01*
X292954761Y-105192381D01*
X292526190Y-105097143D02*
X292478571Y-105144762D01*
X292526190Y-105192381D01*
X292573809Y-105144762D01*
X292526190Y-105097143D01*
X292526190Y-105192381D01*
X292526190Y-104573333D02*
X292478571Y-104620952D01*
X292526190Y-104668571D01*
X292573809Y-104620952D01*
X292526190Y-104573333D01*
X292526190Y-104668571D01*
X291526190Y-105192381D02*
X292097619Y-105192381D01*
X291811905Y-105192381D02*
X291811905Y-104192381D01*
X291907143Y-104335238D01*
X292002381Y-104430476D01*
X292097619Y-104478095D01*
X290573809Y-105192381D02*
X291145238Y-105192381D01*
X290859524Y-105192381D02*
X290859524Y-104192381D01*
X290954762Y-104335238D01*
X291050000Y-104430476D01*
X291145238Y-104478095D01*
X275478571Y-105132381D02*
X275478571Y-104132381D01*
X275240476Y-104132381D01*
X275097618Y-104180000D01*
X275002380Y-104275238D01*
X274954761Y-104370476D01*
X274907142Y-104560952D01*
X274907142Y-104703810D01*
X274954761Y-104894286D01*
X275002380Y-104989524D01*
X275097618Y-105084762D01*
X275240476Y-105132381D01*
X275478571Y-105132381D01*
X274526190Y-104227619D02*
X274478571Y-104180000D01*
X274383333Y-104132381D01*
X274145237Y-104132381D01*
X274049999Y-104180000D01*
X274002380Y-104227619D01*
X273954761Y-104322857D01*
X273954761Y-104418095D01*
X274002380Y-104560952D01*
X274573809Y-105132381D01*
X273954761Y-105132381D01*
X273526190Y-105037143D02*
X273478571Y-105084762D01*
X273526190Y-105132381D01*
X273573809Y-105084762D01*
X273526190Y-105037143D01*
X273526190Y-105132381D01*
X273526190Y-104513333D02*
X273478571Y-104560952D01*
X273526190Y-104608571D01*
X273573809Y-104560952D01*
X273526190Y-104513333D01*
X273526190Y-104608571D01*
X272526190Y-105132381D02*
X273097619Y-105132381D01*
X272811905Y-105132381D02*
X272811905Y-104132381D01*
X272907143Y-104275238D01*
X273002381Y-104370476D01*
X273097619Y-104418095D01*
X271907143Y-104132381D02*
X271811904Y-104132381D01*
X271716666Y-104180000D01*
X271669047Y-104227619D01*
X271621428Y-104322857D01*
X271573809Y-104513333D01*
X271573809Y-104751429D01*
X271621428Y-104941905D01*
X271669047Y-105037143D01*
X271716666Y-105084762D01*
X271811904Y-105132381D01*
X271907143Y-105132381D01*
X272002381Y-105084762D01*
X272050000Y-105037143D01*
X272097619Y-104941905D01*
X272145238Y-104751429D01*
X272145238Y-104513333D01*
X272097619Y-104322857D01*
X272050000Y-104227619D01*
X272002381Y-104180000D01*
X271907143Y-104132381D01*
X256002381Y-105112381D02*
X256002381Y-104112381D01*
X255764286Y-104112381D01*
X255621428Y-104160000D01*
X255526190Y-104255238D01*
X255478571Y-104350476D01*
X255430952Y-104540952D01*
X255430952Y-104683810D01*
X255478571Y-104874286D01*
X255526190Y-104969524D01*
X255621428Y-105064762D01*
X255764286Y-105112381D01*
X256002381Y-105112381D01*
X255050000Y-104207619D02*
X255002381Y-104160000D01*
X254907143Y-104112381D01*
X254669047Y-104112381D01*
X254573809Y-104160000D01*
X254526190Y-104207619D01*
X254478571Y-104302857D01*
X254478571Y-104398095D01*
X254526190Y-104540952D01*
X255097619Y-105112381D01*
X254478571Y-105112381D01*
X254050000Y-105017143D02*
X254002381Y-105064762D01*
X254050000Y-105112381D01*
X254097619Y-105064762D01*
X254050000Y-105017143D01*
X254050000Y-105112381D01*
X254050000Y-104493333D02*
X254002381Y-104540952D01*
X254050000Y-104588571D01*
X254097619Y-104540952D01*
X254050000Y-104493333D01*
X254050000Y-104588571D01*
X253526191Y-105112381D02*
X253335715Y-105112381D01*
X253240476Y-105064762D01*
X253192857Y-105017143D01*
X253097619Y-104874286D01*
X253050000Y-104683810D01*
X253050000Y-104302857D01*
X253097619Y-104207619D01*
X253145238Y-104160000D01*
X253240476Y-104112381D01*
X253430953Y-104112381D01*
X253526191Y-104160000D01*
X253573810Y-104207619D01*
X253621429Y-104302857D01*
X253621429Y-104540952D01*
X253573810Y-104636190D01*
X253526191Y-104683810D01*
X253430953Y-104731429D01*
X253240476Y-104731429D01*
X253145238Y-104683810D01*
X253097619Y-104636190D01*
X253050000Y-104540952D01*
X237012381Y-105162381D02*
X237012381Y-104162381D01*
X236774286Y-104162381D01*
X236631428Y-104210000D01*
X236536190Y-104305238D01*
X236488571Y-104400476D01*
X236440952Y-104590952D01*
X236440952Y-104733810D01*
X236488571Y-104924286D01*
X236536190Y-105019524D01*
X236631428Y-105114762D01*
X236774286Y-105162381D01*
X237012381Y-105162381D01*
X236060000Y-104257619D02*
X236012381Y-104210000D01*
X235917143Y-104162381D01*
X235679047Y-104162381D01*
X235583809Y-104210000D01*
X235536190Y-104257619D01*
X235488571Y-104352857D01*
X235488571Y-104448095D01*
X235536190Y-104590952D01*
X236107619Y-105162381D01*
X235488571Y-105162381D01*
X235060000Y-105067143D02*
X235012381Y-105114762D01*
X235060000Y-105162381D01*
X235107619Y-105114762D01*
X235060000Y-105067143D01*
X235060000Y-105162381D01*
X235060000Y-104543333D02*
X235012381Y-104590952D01*
X235060000Y-104638571D01*
X235107619Y-104590952D01*
X235060000Y-104543333D01*
X235060000Y-104638571D01*
X234440953Y-104590952D02*
X234536191Y-104543333D01*
X234583810Y-104495714D01*
X234631429Y-104400476D01*
X234631429Y-104352857D01*
X234583810Y-104257619D01*
X234536191Y-104210000D01*
X234440953Y-104162381D01*
X234250476Y-104162381D01*
X234155238Y-104210000D01*
X234107619Y-104257619D01*
X234060000Y-104352857D01*
X234060000Y-104400476D01*
X234107619Y-104495714D01*
X234155238Y-104543333D01*
X234250476Y-104590952D01*
X234440953Y-104590952D01*
X234536191Y-104638571D01*
X234583810Y-104686190D01*
X234631429Y-104781429D01*
X234631429Y-104971905D01*
X234583810Y-105067143D01*
X234536191Y-105114762D01*
X234440953Y-105162381D01*
X234250476Y-105162381D01*
X234155238Y-105114762D01*
X234107619Y-105067143D01*
X234060000Y-104971905D01*
X234060000Y-104781429D01*
X234107619Y-104686190D01*
X234155238Y-104638571D01*
X234250476Y-104590952D01*
X221282381Y-109652381D02*
X221282381Y-108652381D01*
X221044286Y-108652381D01*
X220901428Y-108700000D01*
X220806190Y-108795238D01*
X220758571Y-108890476D01*
X220710952Y-109080952D01*
X220710952Y-109223810D01*
X220758571Y-109414286D01*
X220806190Y-109509524D01*
X220901428Y-109604762D01*
X221044286Y-109652381D01*
X221282381Y-109652381D01*
X220330000Y-108747619D02*
X220282381Y-108700000D01*
X220187143Y-108652381D01*
X219949047Y-108652381D01*
X219853809Y-108700000D01*
X219806190Y-108747619D01*
X219758571Y-108842857D01*
X219758571Y-108938095D01*
X219806190Y-109080952D01*
X220377619Y-109652381D01*
X219758571Y-109652381D01*
X219330000Y-109557143D02*
X219282381Y-109604762D01*
X219330000Y-109652381D01*
X219377619Y-109604762D01*
X219330000Y-109557143D01*
X219330000Y-109652381D01*
X219330000Y-109033333D02*
X219282381Y-109080952D01*
X219330000Y-109128571D01*
X219377619Y-109080952D01*
X219330000Y-109033333D01*
X219330000Y-109128571D01*
X218949048Y-108652381D02*
X218282381Y-108652381D01*
X218710953Y-109652381D01*
X199042381Y-105132381D02*
X199042381Y-104132381D01*
X198804286Y-104132381D01*
X198661428Y-104180000D01*
X198566190Y-104275238D01*
X198518571Y-104370476D01*
X198470952Y-104560952D01*
X198470952Y-104703810D01*
X198518571Y-104894286D01*
X198566190Y-104989524D01*
X198661428Y-105084762D01*
X198804286Y-105132381D01*
X199042381Y-105132381D01*
X198090000Y-104227619D02*
X198042381Y-104180000D01*
X197947143Y-104132381D01*
X197709047Y-104132381D01*
X197613809Y-104180000D01*
X197566190Y-104227619D01*
X197518571Y-104322857D01*
X197518571Y-104418095D01*
X197566190Y-104560952D01*
X198137619Y-105132381D01*
X197518571Y-105132381D01*
X197090000Y-105037143D02*
X197042381Y-105084762D01*
X197090000Y-105132381D01*
X197137619Y-105084762D01*
X197090000Y-105037143D01*
X197090000Y-105132381D01*
X197090000Y-104513333D02*
X197042381Y-104560952D01*
X197090000Y-104608571D01*
X197137619Y-104560952D01*
X197090000Y-104513333D01*
X197090000Y-104608571D01*
X196185238Y-104132381D02*
X196375715Y-104132381D01*
X196470953Y-104180000D01*
X196518572Y-104227619D01*
X196613810Y-104370476D01*
X196661429Y-104560952D01*
X196661429Y-104941905D01*
X196613810Y-105037143D01*
X196566191Y-105084762D01*
X196470953Y-105132381D01*
X196280476Y-105132381D01*
X196185238Y-105084762D01*
X196137619Y-105037143D01*
X196090000Y-104941905D01*
X196090000Y-104703810D01*
X196137619Y-104608571D01*
X196185238Y-104560952D01*
X196280476Y-104513333D01*
X196470953Y-104513333D01*
X196566191Y-104560952D01*
X196613810Y-104608571D01*
X196661429Y-104703810D01*
X180012381Y-105102381D02*
X180012381Y-104102381D01*
X179774286Y-104102381D01*
X179631428Y-104150000D01*
X179536190Y-104245238D01*
X179488571Y-104340476D01*
X179440952Y-104530952D01*
X179440952Y-104673810D01*
X179488571Y-104864286D01*
X179536190Y-104959524D01*
X179631428Y-105054762D01*
X179774286Y-105102381D01*
X180012381Y-105102381D01*
X179060000Y-104197619D02*
X179012381Y-104150000D01*
X178917143Y-104102381D01*
X178679047Y-104102381D01*
X178583809Y-104150000D01*
X178536190Y-104197619D01*
X178488571Y-104292857D01*
X178488571Y-104388095D01*
X178536190Y-104530952D01*
X179107619Y-105102381D01*
X178488571Y-105102381D01*
X178060000Y-105007143D02*
X178012381Y-105054762D01*
X178060000Y-105102381D01*
X178107619Y-105054762D01*
X178060000Y-105007143D01*
X178060000Y-105102381D01*
X178060000Y-104483333D02*
X178012381Y-104530952D01*
X178060000Y-104578571D01*
X178107619Y-104530952D01*
X178060000Y-104483333D01*
X178060000Y-104578571D01*
X177107619Y-104102381D02*
X177583810Y-104102381D01*
X177631429Y-104578571D01*
X177583810Y-104530952D01*
X177488572Y-104483333D01*
X177250476Y-104483333D01*
X177155238Y-104530952D01*
X177107619Y-104578571D01*
X177060000Y-104673810D01*
X177060000Y-104911905D01*
X177107619Y-105007143D01*
X177155238Y-105054762D01*
X177250476Y-105102381D01*
X177488572Y-105102381D01*
X177583810Y-105054762D01*
X177631429Y-105007143D01*
X160992381Y-105132381D02*
X160992381Y-104132381D01*
X160754286Y-104132381D01*
X160611428Y-104180000D01*
X160516190Y-104275238D01*
X160468571Y-104370476D01*
X160420952Y-104560952D01*
X160420952Y-104703810D01*
X160468571Y-104894286D01*
X160516190Y-104989524D01*
X160611428Y-105084762D01*
X160754286Y-105132381D01*
X160992381Y-105132381D01*
X160040000Y-104227619D02*
X159992381Y-104180000D01*
X159897143Y-104132381D01*
X159659047Y-104132381D01*
X159563809Y-104180000D01*
X159516190Y-104227619D01*
X159468571Y-104322857D01*
X159468571Y-104418095D01*
X159516190Y-104560952D01*
X160087619Y-105132381D01*
X159468571Y-105132381D01*
X159040000Y-105037143D02*
X158992381Y-105084762D01*
X159040000Y-105132381D01*
X159087619Y-105084762D01*
X159040000Y-105037143D01*
X159040000Y-105132381D01*
X159040000Y-104513333D02*
X158992381Y-104560952D01*
X159040000Y-104608571D01*
X159087619Y-104560952D01*
X159040000Y-104513333D01*
X159040000Y-104608571D01*
X158135238Y-104465714D02*
X158135238Y-105132381D01*
X158373334Y-104084762D02*
X158611429Y-104799048D01*
X157992381Y-104799048D01*
X141992381Y-105132381D02*
X141992381Y-104132381D01*
X141754286Y-104132381D01*
X141611428Y-104180000D01*
X141516190Y-104275238D01*
X141468571Y-104370476D01*
X141420952Y-104560952D01*
X141420952Y-104703810D01*
X141468571Y-104894286D01*
X141516190Y-104989524D01*
X141611428Y-105084762D01*
X141754286Y-105132381D01*
X141992381Y-105132381D01*
X141040000Y-104227619D02*
X140992381Y-104180000D01*
X140897143Y-104132381D01*
X140659047Y-104132381D01*
X140563809Y-104180000D01*
X140516190Y-104227619D01*
X140468571Y-104322857D01*
X140468571Y-104418095D01*
X140516190Y-104560952D01*
X141087619Y-105132381D01*
X140468571Y-105132381D01*
X140040000Y-105037143D02*
X139992381Y-105084762D01*
X140040000Y-105132381D01*
X140087619Y-105084762D01*
X140040000Y-105037143D01*
X140040000Y-105132381D01*
X140040000Y-104513333D02*
X139992381Y-104560952D01*
X140040000Y-104608571D01*
X140087619Y-104560952D01*
X140040000Y-104513333D01*
X140040000Y-104608571D01*
X139659048Y-104132381D02*
X139040000Y-104132381D01*
X139373334Y-104513333D01*
X139230476Y-104513333D01*
X139135238Y-104560952D01*
X139087619Y-104608571D01*
X139040000Y-104703810D01*
X139040000Y-104941905D01*
X139087619Y-105037143D01*
X139135238Y-105084762D01*
X139230476Y-105132381D01*
X139516191Y-105132381D01*
X139611429Y-105084762D01*
X139659048Y-105037143D01*
X122992381Y-105102381D02*
X122992381Y-104102381D01*
X122754286Y-104102381D01*
X122611428Y-104150000D01*
X122516190Y-104245238D01*
X122468571Y-104340476D01*
X122420952Y-104530952D01*
X122420952Y-104673810D01*
X122468571Y-104864286D01*
X122516190Y-104959524D01*
X122611428Y-105054762D01*
X122754286Y-105102381D01*
X122992381Y-105102381D01*
X122040000Y-104197619D02*
X121992381Y-104150000D01*
X121897143Y-104102381D01*
X121659047Y-104102381D01*
X121563809Y-104150000D01*
X121516190Y-104197619D01*
X121468571Y-104292857D01*
X121468571Y-104388095D01*
X121516190Y-104530952D01*
X122087619Y-105102381D01*
X121468571Y-105102381D01*
X121040000Y-105007143D02*
X120992381Y-105054762D01*
X121040000Y-105102381D01*
X121087619Y-105054762D01*
X121040000Y-105007143D01*
X121040000Y-105102381D01*
X121040000Y-104483333D02*
X120992381Y-104530952D01*
X121040000Y-104578571D01*
X121087619Y-104530952D01*
X121040000Y-104483333D01*
X121040000Y-104578571D01*
X120611429Y-104197619D02*
X120563810Y-104150000D01*
X120468572Y-104102381D01*
X120230476Y-104102381D01*
X120135238Y-104150000D01*
X120087619Y-104197619D01*
X120040000Y-104292857D01*
X120040000Y-104388095D01*
X120087619Y-104530952D01*
X120659048Y-105102381D01*
X120040000Y-105102381D01*
X103992381Y-104962381D02*
X103992381Y-103962381D01*
X103754286Y-103962381D01*
X103611428Y-104010000D01*
X103516190Y-104105238D01*
X103468571Y-104200476D01*
X103420952Y-104390952D01*
X103420952Y-104533810D01*
X103468571Y-104724286D01*
X103516190Y-104819524D01*
X103611428Y-104914762D01*
X103754286Y-104962381D01*
X103992381Y-104962381D01*
X103040000Y-104057619D02*
X102992381Y-104010000D01*
X102897143Y-103962381D01*
X102659047Y-103962381D01*
X102563809Y-104010000D01*
X102516190Y-104057619D01*
X102468571Y-104152857D01*
X102468571Y-104248095D01*
X102516190Y-104390952D01*
X103087619Y-104962381D01*
X102468571Y-104962381D01*
X102040000Y-104867143D02*
X101992381Y-104914762D01*
X102040000Y-104962381D01*
X102087619Y-104914762D01*
X102040000Y-104867143D01*
X102040000Y-104962381D01*
X102040000Y-104343333D02*
X101992381Y-104390952D01*
X102040000Y-104438571D01*
X102087619Y-104390952D01*
X102040000Y-104343333D01*
X102040000Y-104438571D01*
X101040000Y-104962381D02*
X101611429Y-104962381D01*
X101325715Y-104962381D02*
X101325715Y-103962381D01*
X101420953Y-104105238D01*
X101516191Y-104200476D01*
X101611429Y-104248095D01*
X332448571Y-123992381D02*
X332448571Y-122992381D01*
X332210476Y-122992381D01*
X332067618Y-123040000D01*
X331972380Y-123135238D01*
X331924761Y-123230476D01*
X331877142Y-123420952D01*
X331877142Y-123563810D01*
X331924761Y-123754286D01*
X331972380Y-123849524D01*
X332067618Y-123944762D01*
X332210476Y-123992381D01*
X332448571Y-123992381D01*
X330924761Y-123992381D02*
X331496190Y-123992381D01*
X331210476Y-123992381D02*
X331210476Y-122992381D01*
X331305714Y-123135238D01*
X331400952Y-123230476D01*
X331496190Y-123278095D01*
X330496190Y-123897143D02*
X330448571Y-123944762D01*
X330496190Y-123992381D01*
X330543809Y-123944762D01*
X330496190Y-123897143D01*
X330496190Y-123992381D01*
X330496190Y-123373333D02*
X330448571Y-123420952D01*
X330496190Y-123468571D01*
X330543809Y-123420952D01*
X330496190Y-123373333D01*
X330496190Y-123468571D01*
X329496190Y-123992381D02*
X330067619Y-123992381D01*
X329781905Y-123992381D02*
X329781905Y-122992381D01*
X329877143Y-123135238D01*
X329972381Y-123230476D01*
X330067619Y-123278095D01*
X329162857Y-122992381D02*
X328543809Y-122992381D01*
X328877143Y-123373333D01*
X328734285Y-123373333D01*
X328639047Y-123420952D01*
X328591428Y-123468571D01*
X328543809Y-123563810D01*
X328543809Y-123801905D01*
X328591428Y-123897143D01*
X328639047Y-123944762D01*
X328734285Y-123992381D01*
X329020000Y-123992381D01*
X329115238Y-123944762D01*
X329162857Y-123897143D01*
X313468571Y-124072381D02*
X313468571Y-123072381D01*
X313230476Y-123072381D01*
X313087618Y-123120000D01*
X312992380Y-123215238D01*
X312944761Y-123310476D01*
X312897142Y-123500952D01*
X312897142Y-123643810D01*
X312944761Y-123834286D01*
X312992380Y-123929524D01*
X313087618Y-124024762D01*
X313230476Y-124072381D01*
X313468571Y-124072381D01*
X311944761Y-124072381D02*
X312516190Y-124072381D01*
X312230476Y-124072381D02*
X312230476Y-123072381D01*
X312325714Y-123215238D01*
X312420952Y-123310476D01*
X312516190Y-123358095D01*
X311516190Y-123977143D02*
X311468571Y-124024762D01*
X311516190Y-124072381D01*
X311563809Y-124024762D01*
X311516190Y-123977143D01*
X311516190Y-124072381D01*
X311516190Y-123453333D02*
X311468571Y-123500952D01*
X311516190Y-123548571D01*
X311563809Y-123500952D01*
X311516190Y-123453333D01*
X311516190Y-123548571D01*
X310516190Y-124072381D02*
X311087619Y-124072381D01*
X310801905Y-124072381D02*
X310801905Y-123072381D01*
X310897143Y-123215238D01*
X310992381Y-123310476D01*
X311087619Y-123358095D01*
X310135238Y-123167619D02*
X310087619Y-123120000D01*
X309992381Y-123072381D01*
X309754285Y-123072381D01*
X309659047Y-123120000D01*
X309611428Y-123167619D01*
X309563809Y-123262857D01*
X309563809Y-123358095D01*
X309611428Y-123500952D01*
X310182857Y-124072381D01*
X309563809Y-124072381D01*
X294458571Y-124032381D02*
X294458571Y-123032381D01*
X294220476Y-123032381D01*
X294077618Y-123080000D01*
X293982380Y-123175238D01*
X293934761Y-123270476D01*
X293887142Y-123460952D01*
X293887142Y-123603810D01*
X293934761Y-123794286D01*
X293982380Y-123889524D01*
X294077618Y-123984762D01*
X294220476Y-124032381D01*
X294458571Y-124032381D01*
X292934761Y-124032381D02*
X293506190Y-124032381D01*
X293220476Y-124032381D02*
X293220476Y-123032381D01*
X293315714Y-123175238D01*
X293410952Y-123270476D01*
X293506190Y-123318095D01*
X292506190Y-123937143D02*
X292458571Y-123984762D01*
X292506190Y-124032381D01*
X292553809Y-123984762D01*
X292506190Y-123937143D01*
X292506190Y-124032381D01*
X292506190Y-123413333D02*
X292458571Y-123460952D01*
X292506190Y-123508571D01*
X292553809Y-123460952D01*
X292506190Y-123413333D01*
X292506190Y-123508571D01*
X291506190Y-124032381D02*
X292077619Y-124032381D01*
X291791905Y-124032381D02*
X291791905Y-123032381D01*
X291887143Y-123175238D01*
X291982381Y-123270476D01*
X292077619Y-123318095D01*
X290553809Y-124032381D02*
X291125238Y-124032381D01*
X290839524Y-124032381D02*
X290839524Y-123032381D01*
X290934762Y-123175238D01*
X291030000Y-123270476D01*
X291125238Y-123318095D01*
X275488571Y-124102381D02*
X275488571Y-123102381D01*
X275250476Y-123102381D01*
X275107618Y-123150000D01*
X275012380Y-123245238D01*
X274964761Y-123340476D01*
X274917142Y-123530952D01*
X274917142Y-123673810D01*
X274964761Y-123864286D01*
X275012380Y-123959524D01*
X275107618Y-124054762D01*
X275250476Y-124102381D01*
X275488571Y-124102381D01*
X273964761Y-124102381D02*
X274536190Y-124102381D01*
X274250476Y-124102381D02*
X274250476Y-123102381D01*
X274345714Y-123245238D01*
X274440952Y-123340476D01*
X274536190Y-123388095D01*
X273536190Y-124007143D02*
X273488571Y-124054762D01*
X273536190Y-124102381D01*
X273583809Y-124054762D01*
X273536190Y-124007143D01*
X273536190Y-124102381D01*
X273536190Y-123483333D02*
X273488571Y-123530952D01*
X273536190Y-123578571D01*
X273583809Y-123530952D01*
X273536190Y-123483333D01*
X273536190Y-123578571D01*
X272536190Y-124102381D02*
X273107619Y-124102381D01*
X272821905Y-124102381D02*
X272821905Y-123102381D01*
X272917143Y-123245238D01*
X273012381Y-123340476D01*
X273107619Y-123388095D01*
X271917143Y-123102381D02*
X271821904Y-123102381D01*
X271726666Y-123150000D01*
X271679047Y-123197619D01*
X271631428Y-123292857D01*
X271583809Y-123483333D01*
X271583809Y-123721429D01*
X271631428Y-123911905D01*
X271679047Y-124007143D01*
X271726666Y-124054762D01*
X271821904Y-124102381D01*
X271917143Y-124102381D01*
X272012381Y-124054762D01*
X272060000Y-124007143D01*
X272107619Y-123911905D01*
X272155238Y-123721429D01*
X272155238Y-123483333D01*
X272107619Y-123292857D01*
X272060000Y-123197619D01*
X272012381Y-123150000D01*
X271917143Y-123102381D01*
X256002381Y-124072381D02*
X256002381Y-123072381D01*
X255764286Y-123072381D01*
X255621428Y-123120000D01*
X255526190Y-123215238D01*
X255478571Y-123310476D01*
X255430952Y-123500952D01*
X255430952Y-123643810D01*
X255478571Y-123834286D01*
X255526190Y-123929524D01*
X255621428Y-124024762D01*
X255764286Y-124072381D01*
X256002381Y-124072381D01*
X254478571Y-124072381D02*
X255050000Y-124072381D01*
X254764286Y-124072381D02*
X254764286Y-123072381D01*
X254859524Y-123215238D01*
X254954762Y-123310476D01*
X255050000Y-123358095D01*
X254050000Y-123977143D02*
X254002381Y-124024762D01*
X254050000Y-124072381D01*
X254097619Y-124024762D01*
X254050000Y-123977143D01*
X254050000Y-124072381D01*
X254050000Y-123453333D02*
X254002381Y-123500952D01*
X254050000Y-123548571D01*
X254097619Y-123500952D01*
X254050000Y-123453333D01*
X254050000Y-123548571D01*
X253526191Y-124072381D02*
X253335715Y-124072381D01*
X253240476Y-124024762D01*
X253192857Y-123977143D01*
X253097619Y-123834286D01*
X253050000Y-123643810D01*
X253050000Y-123262857D01*
X253097619Y-123167619D01*
X253145238Y-123120000D01*
X253240476Y-123072381D01*
X253430953Y-123072381D01*
X253526191Y-123120000D01*
X253573810Y-123167619D01*
X253621429Y-123262857D01*
X253621429Y-123500952D01*
X253573810Y-123596190D01*
X253526191Y-123643810D01*
X253430953Y-123691429D01*
X253240476Y-123691429D01*
X253145238Y-123643810D01*
X253097619Y-123596190D01*
X253050000Y-123500952D01*
X237022381Y-123992381D02*
X237022381Y-122992381D01*
X236784286Y-122992381D01*
X236641428Y-123040000D01*
X236546190Y-123135238D01*
X236498571Y-123230476D01*
X236450952Y-123420952D01*
X236450952Y-123563810D01*
X236498571Y-123754286D01*
X236546190Y-123849524D01*
X236641428Y-123944762D01*
X236784286Y-123992381D01*
X237022381Y-123992381D01*
X235498571Y-123992381D02*
X236070000Y-123992381D01*
X235784286Y-123992381D02*
X235784286Y-122992381D01*
X235879524Y-123135238D01*
X235974762Y-123230476D01*
X236070000Y-123278095D01*
X235070000Y-123897143D02*
X235022381Y-123944762D01*
X235070000Y-123992381D01*
X235117619Y-123944762D01*
X235070000Y-123897143D01*
X235070000Y-123992381D01*
X235070000Y-123373333D02*
X235022381Y-123420952D01*
X235070000Y-123468571D01*
X235117619Y-123420952D01*
X235070000Y-123373333D01*
X235070000Y-123468571D01*
X234450953Y-123420952D02*
X234546191Y-123373333D01*
X234593810Y-123325714D01*
X234641429Y-123230476D01*
X234641429Y-123182857D01*
X234593810Y-123087619D01*
X234546191Y-123040000D01*
X234450953Y-122992381D01*
X234260476Y-122992381D01*
X234165238Y-123040000D01*
X234117619Y-123087619D01*
X234070000Y-123182857D01*
X234070000Y-123230476D01*
X234117619Y-123325714D01*
X234165238Y-123373333D01*
X234260476Y-123420952D01*
X234450953Y-123420952D01*
X234546191Y-123468571D01*
X234593810Y-123516190D01*
X234641429Y-123611429D01*
X234641429Y-123801905D01*
X234593810Y-123897143D01*
X234546191Y-123944762D01*
X234450953Y-123992381D01*
X234260476Y-123992381D01*
X234165238Y-123944762D01*
X234117619Y-123897143D01*
X234070000Y-123801905D01*
X234070000Y-123611429D01*
X234117619Y-123516190D01*
X234165238Y-123468571D01*
X234260476Y-123420952D01*
X218012381Y-123992381D02*
X218012381Y-122992381D01*
X217774286Y-122992381D01*
X217631428Y-123040000D01*
X217536190Y-123135238D01*
X217488571Y-123230476D01*
X217440952Y-123420952D01*
X217440952Y-123563810D01*
X217488571Y-123754286D01*
X217536190Y-123849524D01*
X217631428Y-123944762D01*
X217774286Y-123992381D01*
X218012381Y-123992381D01*
X216488571Y-123992381D02*
X217060000Y-123992381D01*
X216774286Y-123992381D02*
X216774286Y-122992381D01*
X216869524Y-123135238D01*
X216964762Y-123230476D01*
X217060000Y-123278095D01*
X216060000Y-123897143D02*
X216012381Y-123944762D01*
X216060000Y-123992381D01*
X216107619Y-123944762D01*
X216060000Y-123897143D01*
X216060000Y-123992381D01*
X216060000Y-123373333D02*
X216012381Y-123420952D01*
X216060000Y-123468571D01*
X216107619Y-123420952D01*
X216060000Y-123373333D01*
X216060000Y-123468571D01*
X215679048Y-122992381D02*
X215012381Y-122992381D01*
X215440953Y-123992381D01*
X199002381Y-124032381D02*
X199002381Y-123032381D01*
X198764286Y-123032381D01*
X198621428Y-123080000D01*
X198526190Y-123175238D01*
X198478571Y-123270476D01*
X198430952Y-123460952D01*
X198430952Y-123603810D01*
X198478571Y-123794286D01*
X198526190Y-123889524D01*
X198621428Y-123984762D01*
X198764286Y-124032381D01*
X199002381Y-124032381D01*
X197478571Y-124032381D02*
X198050000Y-124032381D01*
X197764286Y-124032381D02*
X197764286Y-123032381D01*
X197859524Y-123175238D01*
X197954762Y-123270476D01*
X198050000Y-123318095D01*
X197050000Y-123937143D02*
X197002381Y-123984762D01*
X197050000Y-124032381D01*
X197097619Y-123984762D01*
X197050000Y-123937143D01*
X197050000Y-124032381D01*
X197050000Y-123413333D02*
X197002381Y-123460952D01*
X197050000Y-123508571D01*
X197097619Y-123460952D01*
X197050000Y-123413333D01*
X197050000Y-123508571D01*
X196145238Y-123032381D02*
X196335715Y-123032381D01*
X196430953Y-123080000D01*
X196478572Y-123127619D01*
X196573810Y-123270476D01*
X196621429Y-123460952D01*
X196621429Y-123841905D01*
X196573810Y-123937143D01*
X196526191Y-123984762D01*
X196430953Y-124032381D01*
X196240476Y-124032381D01*
X196145238Y-123984762D01*
X196097619Y-123937143D01*
X196050000Y-123841905D01*
X196050000Y-123603810D01*
X196097619Y-123508571D01*
X196145238Y-123460952D01*
X196240476Y-123413333D01*
X196430953Y-123413333D01*
X196526191Y-123460952D01*
X196573810Y-123508571D01*
X196621429Y-123603810D01*
X179992381Y-124032381D02*
X179992381Y-123032381D01*
X179754286Y-123032381D01*
X179611428Y-123080000D01*
X179516190Y-123175238D01*
X179468571Y-123270476D01*
X179420952Y-123460952D01*
X179420952Y-123603810D01*
X179468571Y-123794286D01*
X179516190Y-123889524D01*
X179611428Y-123984762D01*
X179754286Y-124032381D01*
X179992381Y-124032381D01*
X178468571Y-124032381D02*
X179040000Y-124032381D01*
X178754286Y-124032381D02*
X178754286Y-123032381D01*
X178849524Y-123175238D01*
X178944762Y-123270476D01*
X179040000Y-123318095D01*
X178040000Y-123937143D02*
X177992381Y-123984762D01*
X178040000Y-124032381D01*
X178087619Y-123984762D01*
X178040000Y-123937143D01*
X178040000Y-124032381D01*
X178040000Y-123413333D02*
X177992381Y-123460952D01*
X178040000Y-123508571D01*
X178087619Y-123460952D01*
X178040000Y-123413333D01*
X178040000Y-123508571D01*
X177087619Y-123032381D02*
X177563810Y-123032381D01*
X177611429Y-123508571D01*
X177563810Y-123460952D01*
X177468572Y-123413333D01*
X177230476Y-123413333D01*
X177135238Y-123460952D01*
X177087619Y-123508571D01*
X177040000Y-123603810D01*
X177040000Y-123841905D01*
X177087619Y-123937143D01*
X177135238Y-123984762D01*
X177230476Y-124032381D01*
X177468572Y-124032381D01*
X177563810Y-123984762D01*
X177611429Y-123937143D01*
X161012381Y-124032381D02*
X161012381Y-123032381D01*
X160774286Y-123032381D01*
X160631428Y-123080000D01*
X160536190Y-123175238D01*
X160488571Y-123270476D01*
X160440952Y-123460952D01*
X160440952Y-123603810D01*
X160488571Y-123794286D01*
X160536190Y-123889524D01*
X160631428Y-123984762D01*
X160774286Y-124032381D01*
X161012381Y-124032381D01*
X159488571Y-124032381D02*
X160060000Y-124032381D01*
X159774286Y-124032381D02*
X159774286Y-123032381D01*
X159869524Y-123175238D01*
X159964762Y-123270476D01*
X160060000Y-123318095D01*
X159060000Y-123937143D02*
X159012381Y-123984762D01*
X159060000Y-124032381D01*
X159107619Y-123984762D01*
X159060000Y-123937143D01*
X159060000Y-124032381D01*
X159060000Y-123413333D02*
X159012381Y-123460952D01*
X159060000Y-123508571D01*
X159107619Y-123460952D01*
X159060000Y-123413333D01*
X159060000Y-123508571D01*
X158155238Y-123365714D02*
X158155238Y-124032381D01*
X158393334Y-122984762D02*
X158631429Y-123699048D01*
X158012381Y-123699048D01*
X142002381Y-123992381D02*
X142002381Y-122992381D01*
X141764286Y-122992381D01*
X141621428Y-123040000D01*
X141526190Y-123135238D01*
X141478571Y-123230476D01*
X141430952Y-123420952D01*
X141430952Y-123563810D01*
X141478571Y-123754286D01*
X141526190Y-123849524D01*
X141621428Y-123944762D01*
X141764286Y-123992381D01*
X142002381Y-123992381D01*
X140478571Y-123992381D02*
X141050000Y-123992381D01*
X140764286Y-123992381D02*
X140764286Y-122992381D01*
X140859524Y-123135238D01*
X140954762Y-123230476D01*
X141050000Y-123278095D01*
X140050000Y-123897143D02*
X140002381Y-123944762D01*
X140050000Y-123992381D01*
X140097619Y-123944762D01*
X140050000Y-123897143D01*
X140050000Y-123992381D01*
X140050000Y-123373333D02*
X140002381Y-123420952D01*
X140050000Y-123468571D01*
X140097619Y-123420952D01*
X140050000Y-123373333D01*
X140050000Y-123468571D01*
X139669048Y-122992381D02*
X139050000Y-122992381D01*
X139383334Y-123373333D01*
X139240476Y-123373333D01*
X139145238Y-123420952D01*
X139097619Y-123468571D01*
X139050000Y-123563810D01*
X139050000Y-123801905D01*
X139097619Y-123897143D01*
X139145238Y-123944762D01*
X139240476Y-123992381D01*
X139526191Y-123992381D01*
X139621429Y-123944762D01*
X139669048Y-123897143D01*
X122992381Y-124072381D02*
X122992381Y-123072381D01*
X122754286Y-123072381D01*
X122611428Y-123120000D01*
X122516190Y-123215238D01*
X122468571Y-123310476D01*
X122420952Y-123500952D01*
X122420952Y-123643810D01*
X122468571Y-123834286D01*
X122516190Y-123929524D01*
X122611428Y-124024762D01*
X122754286Y-124072381D01*
X122992381Y-124072381D01*
X121468571Y-124072381D02*
X122040000Y-124072381D01*
X121754286Y-124072381D02*
X121754286Y-123072381D01*
X121849524Y-123215238D01*
X121944762Y-123310476D01*
X122040000Y-123358095D01*
X121040000Y-123977143D02*
X120992381Y-124024762D01*
X121040000Y-124072381D01*
X121087619Y-124024762D01*
X121040000Y-123977143D01*
X121040000Y-124072381D01*
X121040000Y-123453333D02*
X120992381Y-123500952D01*
X121040000Y-123548571D01*
X121087619Y-123500952D01*
X121040000Y-123453333D01*
X121040000Y-123548571D01*
X120611429Y-123167619D02*
X120563810Y-123120000D01*
X120468572Y-123072381D01*
X120230476Y-123072381D01*
X120135238Y-123120000D01*
X120087619Y-123167619D01*
X120040000Y-123262857D01*
X120040000Y-123358095D01*
X120087619Y-123500952D01*
X120659048Y-124072381D01*
X120040000Y-124072381D01*
X104014381Y-123982381D02*
X104014381Y-122982381D01*
X103776286Y-122982381D01*
X103633428Y-123030000D01*
X103538190Y-123125238D01*
X103490571Y-123220476D01*
X103442952Y-123410952D01*
X103442952Y-123553810D01*
X103490571Y-123744286D01*
X103538190Y-123839524D01*
X103633428Y-123934762D01*
X103776286Y-123982381D01*
X104014381Y-123982381D01*
X102490571Y-123982381D02*
X103062000Y-123982381D01*
X102776286Y-123982381D02*
X102776286Y-122982381D01*
X102871524Y-123125238D01*
X102966762Y-123220476D01*
X103062000Y-123268095D01*
X102062000Y-123887143D02*
X102014381Y-123934762D01*
X102062000Y-123982381D01*
X102109619Y-123934762D01*
X102062000Y-123887143D01*
X102062000Y-123982381D01*
X102062000Y-123363333D02*
X102014381Y-123410952D01*
X102062000Y-123458571D01*
X102109619Y-123410952D01*
X102062000Y-123363333D01*
X102062000Y-123458571D01*
X101062000Y-123982381D02*
X101633429Y-123982381D01*
X101347715Y-123982381D02*
X101347715Y-122982381D01*
X101442953Y-123125238D01*
X101538191Y-123220476D01*
X101633429Y-123268095D01*
X332488571Y-143042381D02*
X332488571Y-142042381D01*
X332250476Y-142042381D01*
X332107618Y-142090000D01*
X332012380Y-142185238D01*
X331964761Y-142280476D01*
X331917142Y-142470952D01*
X331917142Y-142613810D01*
X331964761Y-142804286D01*
X332012380Y-142899524D01*
X332107618Y-142994762D01*
X332250476Y-143042381D01*
X332488571Y-143042381D01*
X331298095Y-142042381D02*
X331202856Y-142042381D01*
X331107618Y-142090000D01*
X331059999Y-142137619D01*
X331012380Y-142232857D01*
X330964761Y-142423333D01*
X330964761Y-142661429D01*
X331012380Y-142851905D01*
X331059999Y-142947143D01*
X331107618Y-142994762D01*
X331202856Y-143042381D01*
X331298095Y-143042381D01*
X331393333Y-142994762D01*
X331440952Y-142947143D01*
X331488571Y-142851905D01*
X331536190Y-142661429D01*
X331536190Y-142423333D01*
X331488571Y-142232857D01*
X331440952Y-142137619D01*
X331393333Y-142090000D01*
X331298095Y-142042381D01*
X330536190Y-142947143D02*
X330488571Y-142994762D01*
X330536190Y-143042381D01*
X330583809Y-142994762D01*
X330536190Y-142947143D01*
X330536190Y-143042381D01*
X330536190Y-142423333D02*
X330488571Y-142470952D01*
X330536190Y-142518571D01*
X330583809Y-142470952D01*
X330536190Y-142423333D01*
X330536190Y-142518571D01*
X329536190Y-143042381D02*
X330107619Y-143042381D01*
X329821905Y-143042381D02*
X329821905Y-142042381D01*
X329917143Y-142185238D01*
X330012381Y-142280476D01*
X330107619Y-142328095D01*
X329202857Y-142042381D02*
X328583809Y-142042381D01*
X328917143Y-142423333D01*
X328774285Y-142423333D01*
X328679047Y-142470952D01*
X328631428Y-142518571D01*
X328583809Y-142613810D01*
X328583809Y-142851905D01*
X328631428Y-142947143D01*
X328679047Y-142994762D01*
X328774285Y-143042381D01*
X329060000Y-143042381D01*
X329155238Y-142994762D01*
X329202857Y-142947143D01*
X313468571Y-143042381D02*
X313468571Y-142042381D01*
X313230476Y-142042381D01*
X313087618Y-142090000D01*
X312992380Y-142185238D01*
X312944761Y-142280476D01*
X312897142Y-142470952D01*
X312897142Y-142613810D01*
X312944761Y-142804286D01*
X312992380Y-142899524D01*
X313087618Y-142994762D01*
X313230476Y-143042381D01*
X313468571Y-143042381D01*
X312278095Y-142042381D02*
X312182856Y-142042381D01*
X312087618Y-142090000D01*
X312039999Y-142137619D01*
X311992380Y-142232857D01*
X311944761Y-142423333D01*
X311944761Y-142661429D01*
X311992380Y-142851905D01*
X312039999Y-142947143D01*
X312087618Y-142994762D01*
X312182856Y-143042381D01*
X312278095Y-143042381D01*
X312373333Y-142994762D01*
X312420952Y-142947143D01*
X312468571Y-142851905D01*
X312516190Y-142661429D01*
X312516190Y-142423333D01*
X312468571Y-142232857D01*
X312420952Y-142137619D01*
X312373333Y-142090000D01*
X312278095Y-142042381D01*
X311516190Y-142947143D02*
X311468571Y-142994762D01*
X311516190Y-143042381D01*
X311563809Y-142994762D01*
X311516190Y-142947143D01*
X311516190Y-143042381D01*
X311516190Y-142423333D02*
X311468571Y-142470952D01*
X311516190Y-142518571D01*
X311563809Y-142470952D01*
X311516190Y-142423333D01*
X311516190Y-142518571D01*
X310516190Y-143042381D02*
X311087619Y-143042381D01*
X310801905Y-143042381D02*
X310801905Y-142042381D01*
X310897143Y-142185238D01*
X310992381Y-142280476D01*
X311087619Y-142328095D01*
X310135238Y-142137619D02*
X310087619Y-142090000D01*
X309992381Y-142042381D01*
X309754285Y-142042381D01*
X309659047Y-142090000D01*
X309611428Y-142137619D01*
X309563809Y-142232857D01*
X309563809Y-142328095D01*
X309611428Y-142470952D01*
X310182857Y-143042381D01*
X309563809Y-143042381D01*
X294458571Y-143042381D02*
X294458571Y-142042381D01*
X294220476Y-142042381D01*
X294077618Y-142090000D01*
X293982380Y-142185238D01*
X293934761Y-142280476D01*
X293887142Y-142470952D01*
X293887142Y-142613810D01*
X293934761Y-142804286D01*
X293982380Y-142899524D01*
X294077618Y-142994762D01*
X294220476Y-143042381D01*
X294458571Y-143042381D01*
X293268095Y-142042381D02*
X293172856Y-142042381D01*
X293077618Y-142090000D01*
X293029999Y-142137619D01*
X292982380Y-142232857D01*
X292934761Y-142423333D01*
X292934761Y-142661429D01*
X292982380Y-142851905D01*
X293029999Y-142947143D01*
X293077618Y-142994762D01*
X293172856Y-143042381D01*
X293268095Y-143042381D01*
X293363333Y-142994762D01*
X293410952Y-142947143D01*
X293458571Y-142851905D01*
X293506190Y-142661429D01*
X293506190Y-142423333D01*
X293458571Y-142232857D01*
X293410952Y-142137619D01*
X293363333Y-142090000D01*
X293268095Y-142042381D01*
X292506190Y-142947143D02*
X292458571Y-142994762D01*
X292506190Y-143042381D01*
X292553809Y-142994762D01*
X292506190Y-142947143D01*
X292506190Y-143042381D01*
X292506190Y-142423333D02*
X292458571Y-142470952D01*
X292506190Y-142518571D01*
X292553809Y-142470952D01*
X292506190Y-142423333D01*
X292506190Y-142518571D01*
X291506190Y-143042381D02*
X292077619Y-143042381D01*
X291791905Y-143042381D02*
X291791905Y-142042381D01*
X291887143Y-142185238D01*
X291982381Y-142280476D01*
X292077619Y-142328095D01*
X290553809Y-143042381D02*
X291125238Y-143042381D01*
X290839524Y-143042381D02*
X290839524Y-142042381D01*
X290934762Y-142185238D01*
X291030000Y-142280476D01*
X291125238Y-142328095D01*
X275488571Y-143082381D02*
X275488571Y-142082381D01*
X275250476Y-142082381D01*
X275107618Y-142130000D01*
X275012380Y-142225238D01*
X274964761Y-142320476D01*
X274917142Y-142510952D01*
X274917142Y-142653810D01*
X274964761Y-142844286D01*
X275012380Y-142939524D01*
X275107618Y-143034762D01*
X275250476Y-143082381D01*
X275488571Y-143082381D01*
X274298095Y-142082381D02*
X274202856Y-142082381D01*
X274107618Y-142130000D01*
X274059999Y-142177619D01*
X274012380Y-142272857D01*
X273964761Y-142463333D01*
X273964761Y-142701429D01*
X274012380Y-142891905D01*
X274059999Y-142987143D01*
X274107618Y-143034762D01*
X274202856Y-143082381D01*
X274298095Y-143082381D01*
X274393333Y-143034762D01*
X274440952Y-142987143D01*
X274488571Y-142891905D01*
X274536190Y-142701429D01*
X274536190Y-142463333D01*
X274488571Y-142272857D01*
X274440952Y-142177619D01*
X274393333Y-142130000D01*
X274298095Y-142082381D01*
X273536190Y-142987143D02*
X273488571Y-143034762D01*
X273536190Y-143082381D01*
X273583809Y-143034762D01*
X273536190Y-142987143D01*
X273536190Y-143082381D01*
X273536190Y-142463333D02*
X273488571Y-142510952D01*
X273536190Y-142558571D01*
X273583809Y-142510952D01*
X273536190Y-142463333D01*
X273536190Y-142558571D01*
X272536190Y-143082381D02*
X273107619Y-143082381D01*
X272821905Y-143082381D02*
X272821905Y-142082381D01*
X272917143Y-142225238D01*
X273012381Y-142320476D01*
X273107619Y-142368095D01*
X271917143Y-142082381D02*
X271821904Y-142082381D01*
X271726666Y-142130000D01*
X271679047Y-142177619D01*
X271631428Y-142272857D01*
X271583809Y-142463333D01*
X271583809Y-142701429D01*
X271631428Y-142891905D01*
X271679047Y-142987143D01*
X271726666Y-143034762D01*
X271821904Y-143082381D01*
X271917143Y-143082381D01*
X272012381Y-143034762D01*
X272060000Y-142987143D01*
X272107619Y-142891905D01*
X272155238Y-142701429D01*
X272155238Y-142463333D01*
X272107619Y-142272857D01*
X272060000Y-142177619D01*
X272012381Y-142130000D01*
X271917143Y-142082381D01*
X256002381Y-143042381D02*
X256002381Y-142042381D01*
X255764286Y-142042381D01*
X255621428Y-142090000D01*
X255526190Y-142185238D01*
X255478571Y-142280476D01*
X255430952Y-142470952D01*
X255430952Y-142613810D01*
X255478571Y-142804286D01*
X255526190Y-142899524D01*
X255621428Y-142994762D01*
X255764286Y-143042381D01*
X256002381Y-143042381D01*
X254811905Y-142042381D02*
X254716666Y-142042381D01*
X254621428Y-142090000D01*
X254573809Y-142137619D01*
X254526190Y-142232857D01*
X254478571Y-142423333D01*
X254478571Y-142661429D01*
X254526190Y-142851905D01*
X254573809Y-142947143D01*
X254621428Y-142994762D01*
X254716666Y-143042381D01*
X254811905Y-143042381D01*
X254907143Y-142994762D01*
X254954762Y-142947143D01*
X255002381Y-142851905D01*
X255050000Y-142661429D01*
X255050000Y-142423333D01*
X255002381Y-142232857D01*
X254954762Y-142137619D01*
X254907143Y-142090000D01*
X254811905Y-142042381D01*
X254050000Y-142947143D02*
X254002381Y-142994762D01*
X254050000Y-143042381D01*
X254097619Y-142994762D01*
X254050000Y-142947143D01*
X254050000Y-143042381D01*
X254050000Y-142423333D02*
X254002381Y-142470952D01*
X254050000Y-142518571D01*
X254097619Y-142470952D01*
X254050000Y-142423333D01*
X254050000Y-142518571D01*
X253526191Y-143042381D02*
X253335715Y-143042381D01*
X253240476Y-142994762D01*
X253192857Y-142947143D01*
X253097619Y-142804286D01*
X253050000Y-142613810D01*
X253050000Y-142232857D01*
X253097619Y-142137619D01*
X253145238Y-142090000D01*
X253240476Y-142042381D01*
X253430953Y-142042381D01*
X253526191Y-142090000D01*
X253573810Y-142137619D01*
X253621429Y-142232857D01*
X253621429Y-142470952D01*
X253573810Y-142566190D01*
X253526191Y-142613810D01*
X253430953Y-142661429D01*
X253240476Y-142661429D01*
X253145238Y-142613810D01*
X253097619Y-142566190D01*
X253050000Y-142470952D01*
X236982381Y-142962381D02*
X236982381Y-141962381D01*
X236744286Y-141962381D01*
X236601428Y-142010000D01*
X236506190Y-142105238D01*
X236458571Y-142200476D01*
X236410952Y-142390952D01*
X236410952Y-142533810D01*
X236458571Y-142724286D01*
X236506190Y-142819524D01*
X236601428Y-142914762D01*
X236744286Y-142962381D01*
X236982381Y-142962381D01*
X235791905Y-141962381D02*
X235696666Y-141962381D01*
X235601428Y-142010000D01*
X235553809Y-142057619D01*
X235506190Y-142152857D01*
X235458571Y-142343333D01*
X235458571Y-142581429D01*
X235506190Y-142771905D01*
X235553809Y-142867143D01*
X235601428Y-142914762D01*
X235696666Y-142962381D01*
X235791905Y-142962381D01*
X235887143Y-142914762D01*
X235934762Y-142867143D01*
X235982381Y-142771905D01*
X236030000Y-142581429D01*
X236030000Y-142343333D01*
X235982381Y-142152857D01*
X235934762Y-142057619D01*
X235887143Y-142010000D01*
X235791905Y-141962381D01*
X235030000Y-142867143D02*
X234982381Y-142914762D01*
X235030000Y-142962381D01*
X235077619Y-142914762D01*
X235030000Y-142867143D01*
X235030000Y-142962381D01*
X235030000Y-142343333D02*
X234982381Y-142390952D01*
X235030000Y-142438571D01*
X235077619Y-142390952D01*
X235030000Y-142343333D01*
X235030000Y-142438571D01*
X234410953Y-142390952D02*
X234506191Y-142343333D01*
X234553810Y-142295714D01*
X234601429Y-142200476D01*
X234601429Y-142152857D01*
X234553810Y-142057619D01*
X234506191Y-142010000D01*
X234410953Y-141962381D01*
X234220476Y-141962381D01*
X234125238Y-142010000D01*
X234077619Y-142057619D01*
X234030000Y-142152857D01*
X234030000Y-142200476D01*
X234077619Y-142295714D01*
X234125238Y-142343333D01*
X234220476Y-142390952D01*
X234410953Y-142390952D01*
X234506191Y-142438571D01*
X234553810Y-142486190D01*
X234601429Y-142581429D01*
X234601429Y-142771905D01*
X234553810Y-142867143D01*
X234506191Y-142914762D01*
X234410953Y-142962381D01*
X234220476Y-142962381D01*
X234125238Y-142914762D01*
X234077619Y-142867143D01*
X234030000Y-142771905D01*
X234030000Y-142581429D01*
X234077619Y-142486190D01*
X234125238Y-142438571D01*
X234220476Y-142390952D01*
X218012381Y-143042381D02*
X218012381Y-142042381D01*
X217774286Y-142042381D01*
X217631428Y-142090000D01*
X217536190Y-142185238D01*
X217488571Y-142280476D01*
X217440952Y-142470952D01*
X217440952Y-142613810D01*
X217488571Y-142804286D01*
X217536190Y-142899524D01*
X217631428Y-142994762D01*
X217774286Y-143042381D01*
X218012381Y-143042381D01*
X216821905Y-142042381D02*
X216726666Y-142042381D01*
X216631428Y-142090000D01*
X216583809Y-142137619D01*
X216536190Y-142232857D01*
X216488571Y-142423333D01*
X216488571Y-142661429D01*
X216536190Y-142851905D01*
X216583809Y-142947143D01*
X216631428Y-142994762D01*
X216726666Y-143042381D01*
X216821905Y-143042381D01*
X216917143Y-142994762D01*
X216964762Y-142947143D01*
X217012381Y-142851905D01*
X217060000Y-142661429D01*
X217060000Y-142423333D01*
X217012381Y-142232857D01*
X216964762Y-142137619D01*
X216917143Y-142090000D01*
X216821905Y-142042381D01*
X216060000Y-142947143D02*
X216012381Y-142994762D01*
X216060000Y-143042381D01*
X216107619Y-142994762D01*
X216060000Y-142947143D01*
X216060000Y-143042381D01*
X216060000Y-142423333D02*
X216012381Y-142470952D01*
X216060000Y-142518571D01*
X216107619Y-142470952D01*
X216060000Y-142423333D01*
X216060000Y-142518571D01*
X215679048Y-142042381D02*
X215012381Y-142042381D01*
X215440953Y-143042381D01*
X199072381Y-142962381D02*
X199072381Y-141962381D01*
X198834286Y-141962381D01*
X198691428Y-142010000D01*
X198596190Y-142105238D01*
X198548571Y-142200476D01*
X198500952Y-142390952D01*
X198500952Y-142533810D01*
X198548571Y-142724286D01*
X198596190Y-142819524D01*
X198691428Y-142914762D01*
X198834286Y-142962381D01*
X199072381Y-142962381D01*
X197881905Y-141962381D02*
X197786666Y-141962381D01*
X197691428Y-142010000D01*
X197643809Y-142057619D01*
X197596190Y-142152857D01*
X197548571Y-142343333D01*
X197548571Y-142581429D01*
X197596190Y-142771905D01*
X197643809Y-142867143D01*
X197691428Y-142914762D01*
X197786666Y-142962381D01*
X197881905Y-142962381D01*
X197977143Y-142914762D01*
X198024762Y-142867143D01*
X198072381Y-142771905D01*
X198120000Y-142581429D01*
X198120000Y-142343333D01*
X198072381Y-142152857D01*
X198024762Y-142057619D01*
X197977143Y-142010000D01*
X197881905Y-141962381D01*
X197120000Y-142867143D02*
X197072381Y-142914762D01*
X197120000Y-142962381D01*
X197167619Y-142914762D01*
X197120000Y-142867143D01*
X197120000Y-142962381D01*
X197120000Y-142343333D02*
X197072381Y-142390952D01*
X197120000Y-142438571D01*
X197167619Y-142390952D01*
X197120000Y-142343333D01*
X197120000Y-142438571D01*
X196215238Y-141962381D02*
X196405715Y-141962381D01*
X196500953Y-142010000D01*
X196548572Y-142057619D01*
X196643810Y-142200476D01*
X196691429Y-142390952D01*
X196691429Y-142771905D01*
X196643810Y-142867143D01*
X196596191Y-142914762D01*
X196500953Y-142962381D01*
X196310476Y-142962381D01*
X196215238Y-142914762D01*
X196167619Y-142867143D01*
X196120000Y-142771905D01*
X196120000Y-142533810D01*
X196167619Y-142438571D01*
X196215238Y-142390952D01*
X196310476Y-142343333D01*
X196500953Y-142343333D01*
X196596191Y-142390952D01*
X196643810Y-142438571D01*
X196691429Y-142533810D01*
X179992381Y-143082381D02*
X179992381Y-142082381D01*
X179754286Y-142082381D01*
X179611428Y-142130000D01*
X179516190Y-142225238D01*
X179468571Y-142320476D01*
X179420952Y-142510952D01*
X179420952Y-142653810D01*
X179468571Y-142844286D01*
X179516190Y-142939524D01*
X179611428Y-143034762D01*
X179754286Y-143082381D01*
X179992381Y-143082381D01*
X178801905Y-142082381D02*
X178706666Y-142082381D01*
X178611428Y-142130000D01*
X178563809Y-142177619D01*
X178516190Y-142272857D01*
X178468571Y-142463333D01*
X178468571Y-142701429D01*
X178516190Y-142891905D01*
X178563809Y-142987143D01*
X178611428Y-143034762D01*
X178706666Y-143082381D01*
X178801905Y-143082381D01*
X178897143Y-143034762D01*
X178944762Y-142987143D01*
X178992381Y-142891905D01*
X179040000Y-142701429D01*
X179040000Y-142463333D01*
X178992381Y-142272857D01*
X178944762Y-142177619D01*
X178897143Y-142130000D01*
X178801905Y-142082381D01*
X178040000Y-142987143D02*
X177992381Y-143034762D01*
X178040000Y-143082381D01*
X178087619Y-143034762D01*
X178040000Y-142987143D01*
X178040000Y-143082381D01*
X178040000Y-142463333D02*
X177992381Y-142510952D01*
X178040000Y-142558571D01*
X178087619Y-142510952D01*
X178040000Y-142463333D01*
X178040000Y-142558571D01*
X177087619Y-142082381D02*
X177563810Y-142082381D01*
X177611429Y-142558571D01*
X177563810Y-142510952D01*
X177468572Y-142463333D01*
X177230476Y-142463333D01*
X177135238Y-142510952D01*
X177087619Y-142558571D01*
X177040000Y-142653810D01*
X177040000Y-142891905D01*
X177087619Y-142987143D01*
X177135238Y-143034762D01*
X177230476Y-143082381D01*
X177468572Y-143082381D01*
X177563810Y-143034762D01*
X177611429Y-142987143D01*
X161012381Y-143042381D02*
X161012381Y-142042381D01*
X160774286Y-142042381D01*
X160631428Y-142090000D01*
X160536190Y-142185238D01*
X160488571Y-142280476D01*
X160440952Y-142470952D01*
X160440952Y-142613810D01*
X160488571Y-142804286D01*
X160536190Y-142899524D01*
X160631428Y-142994762D01*
X160774286Y-143042381D01*
X161012381Y-143042381D01*
X159821905Y-142042381D02*
X159726666Y-142042381D01*
X159631428Y-142090000D01*
X159583809Y-142137619D01*
X159536190Y-142232857D01*
X159488571Y-142423333D01*
X159488571Y-142661429D01*
X159536190Y-142851905D01*
X159583809Y-142947143D01*
X159631428Y-142994762D01*
X159726666Y-143042381D01*
X159821905Y-143042381D01*
X159917143Y-142994762D01*
X159964762Y-142947143D01*
X160012381Y-142851905D01*
X160060000Y-142661429D01*
X160060000Y-142423333D01*
X160012381Y-142232857D01*
X159964762Y-142137619D01*
X159917143Y-142090000D01*
X159821905Y-142042381D01*
X159060000Y-142947143D02*
X159012381Y-142994762D01*
X159060000Y-143042381D01*
X159107619Y-142994762D01*
X159060000Y-142947143D01*
X159060000Y-143042381D01*
X159060000Y-142423333D02*
X159012381Y-142470952D01*
X159060000Y-142518571D01*
X159107619Y-142470952D01*
X159060000Y-142423333D01*
X159060000Y-142518571D01*
X158155238Y-142375714D02*
X158155238Y-143042381D01*
X158393334Y-141994762D02*
X158631429Y-142709048D01*
X158012381Y-142709048D01*
X142002381Y-143042381D02*
X142002381Y-142042381D01*
X141764286Y-142042381D01*
X141621428Y-142090000D01*
X141526190Y-142185238D01*
X141478571Y-142280476D01*
X141430952Y-142470952D01*
X141430952Y-142613810D01*
X141478571Y-142804286D01*
X141526190Y-142899524D01*
X141621428Y-142994762D01*
X141764286Y-143042381D01*
X142002381Y-143042381D01*
X140811905Y-142042381D02*
X140716666Y-142042381D01*
X140621428Y-142090000D01*
X140573809Y-142137619D01*
X140526190Y-142232857D01*
X140478571Y-142423333D01*
X140478571Y-142661429D01*
X140526190Y-142851905D01*
X140573809Y-142947143D01*
X140621428Y-142994762D01*
X140716666Y-143042381D01*
X140811905Y-143042381D01*
X140907143Y-142994762D01*
X140954762Y-142947143D01*
X141002381Y-142851905D01*
X141050000Y-142661429D01*
X141050000Y-142423333D01*
X141002381Y-142232857D01*
X140954762Y-142137619D01*
X140907143Y-142090000D01*
X140811905Y-142042381D01*
X140050000Y-142947143D02*
X140002381Y-142994762D01*
X140050000Y-143042381D01*
X140097619Y-142994762D01*
X140050000Y-142947143D01*
X140050000Y-143042381D01*
X140050000Y-142423333D02*
X140002381Y-142470952D01*
X140050000Y-142518571D01*
X140097619Y-142470952D01*
X140050000Y-142423333D01*
X140050000Y-142518571D01*
X139669048Y-142042381D02*
X139050000Y-142042381D01*
X139383334Y-142423333D01*
X139240476Y-142423333D01*
X139145238Y-142470952D01*
X139097619Y-142518571D01*
X139050000Y-142613810D01*
X139050000Y-142851905D01*
X139097619Y-142947143D01*
X139145238Y-142994762D01*
X139240476Y-143042381D01*
X139526191Y-143042381D01*
X139621429Y-142994762D01*
X139669048Y-142947143D01*
X122992381Y-143042381D02*
X122992381Y-142042381D01*
X122754286Y-142042381D01*
X122611428Y-142090000D01*
X122516190Y-142185238D01*
X122468571Y-142280476D01*
X122420952Y-142470952D01*
X122420952Y-142613810D01*
X122468571Y-142804286D01*
X122516190Y-142899524D01*
X122611428Y-142994762D01*
X122754286Y-143042381D01*
X122992381Y-143042381D01*
X121801905Y-142042381D02*
X121706666Y-142042381D01*
X121611428Y-142090000D01*
X121563809Y-142137619D01*
X121516190Y-142232857D01*
X121468571Y-142423333D01*
X121468571Y-142661429D01*
X121516190Y-142851905D01*
X121563809Y-142947143D01*
X121611428Y-142994762D01*
X121706666Y-143042381D01*
X121801905Y-143042381D01*
X121897143Y-142994762D01*
X121944762Y-142947143D01*
X121992381Y-142851905D01*
X122040000Y-142661429D01*
X122040000Y-142423333D01*
X121992381Y-142232857D01*
X121944762Y-142137619D01*
X121897143Y-142090000D01*
X121801905Y-142042381D01*
X121040000Y-142947143D02*
X120992381Y-142994762D01*
X121040000Y-143042381D01*
X121087619Y-142994762D01*
X121040000Y-142947143D01*
X121040000Y-143042381D01*
X121040000Y-142423333D02*
X120992381Y-142470952D01*
X121040000Y-142518571D01*
X121087619Y-142470952D01*
X121040000Y-142423333D01*
X121040000Y-142518571D01*
X120611429Y-142137619D02*
X120563810Y-142090000D01*
X120468572Y-142042381D01*
X120230476Y-142042381D01*
X120135238Y-142090000D01*
X120087619Y-142137619D01*
X120040000Y-142232857D01*
X120040000Y-142328095D01*
X120087619Y-142470952D01*
X120659048Y-143042381D01*
X120040000Y-143042381D01*
X104022381Y-143042381D02*
X104022381Y-142042381D01*
X103784286Y-142042381D01*
X103641428Y-142090000D01*
X103546190Y-142185238D01*
X103498571Y-142280476D01*
X103450952Y-142470952D01*
X103450952Y-142613810D01*
X103498571Y-142804286D01*
X103546190Y-142899524D01*
X103641428Y-142994762D01*
X103784286Y-143042381D01*
X104022381Y-143042381D01*
X102831905Y-142042381D02*
X102736666Y-142042381D01*
X102641428Y-142090000D01*
X102593809Y-142137619D01*
X102546190Y-142232857D01*
X102498571Y-142423333D01*
X102498571Y-142661429D01*
X102546190Y-142851905D01*
X102593809Y-142947143D01*
X102641428Y-142994762D01*
X102736666Y-143042381D01*
X102831905Y-143042381D01*
X102927143Y-142994762D01*
X102974762Y-142947143D01*
X103022381Y-142851905D01*
X103070000Y-142661429D01*
X103070000Y-142423333D01*
X103022381Y-142232857D01*
X102974762Y-142137619D01*
X102927143Y-142090000D01*
X102831905Y-142042381D01*
X102070000Y-142947143D02*
X102022381Y-142994762D01*
X102070000Y-143042381D01*
X102117619Y-142994762D01*
X102070000Y-142947143D01*
X102070000Y-143042381D01*
X102070000Y-142423333D02*
X102022381Y-142470952D01*
X102070000Y-142518571D01*
X102117619Y-142470952D01*
X102070000Y-142423333D01*
X102070000Y-142518571D01*
X101070000Y-143042381D02*
X101641429Y-143042381D01*
X101355715Y-143042381D02*
X101355715Y-142042381D01*
X101450953Y-142185238D01*
X101546191Y-142280476D01*
X101641429Y-142328095D01*
X85002381Y-66992381D02*
X85002381Y-65992381D01*
X84764286Y-65992381D01*
X84621428Y-66040000D01*
X84526190Y-66135238D01*
X84478571Y-66230476D01*
X84430952Y-66420952D01*
X84430952Y-66563810D01*
X84478571Y-66754286D01*
X84526190Y-66849524D01*
X84621428Y-66944762D01*
X84764286Y-66992381D01*
X85002381Y-66992381D01*
X83573809Y-66325714D02*
X83573809Y-66992381D01*
X83811905Y-65944762D02*
X84050000Y-66659048D01*
X83430952Y-66659048D01*
X83050000Y-66897143D02*
X83002381Y-66944762D01*
X83050000Y-66992381D01*
X83097619Y-66944762D01*
X83050000Y-66897143D01*
X83050000Y-66992381D01*
X83050000Y-66373333D02*
X83002381Y-66420952D01*
X83050000Y-66468571D01*
X83097619Y-66420952D01*
X83050000Y-66373333D01*
X83050000Y-66468571D01*
X82383334Y-65992381D02*
X82288095Y-65992381D01*
X82192857Y-66040000D01*
X82145238Y-66087619D01*
X82097619Y-66182857D01*
X82050000Y-66373333D01*
X82050000Y-66611429D01*
X82097619Y-66801905D01*
X82145238Y-66897143D01*
X82192857Y-66944762D01*
X82288095Y-66992381D01*
X82383334Y-66992381D01*
X82478572Y-66944762D01*
X82526191Y-66897143D01*
X82573810Y-66801905D01*
X82621429Y-66611429D01*
X82621429Y-66373333D01*
X82573810Y-66182857D01*
X82526191Y-66087619D01*
X82478572Y-66040000D01*
X82383334Y-65992381D01*
X85002381Y-85932381D02*
X85002381Y-84932381D01*
X84764286Y-84932381D01*
X84621428Y-84980000D01*
X84526190Y-85075238D01*
X84478571Y-85170476D01*
X84430952Y-85360952D01*
X84430952Y-85503810D01*
X84478571Y-85694286D01*
X84526190Y-85789524D01*
X84621428Y-85884762D01*
X84764286Y-85932381D01*
X85002381Y-85932381D01*
X84097619Y-84932381D02*
X83478571Y-84932381D01*
X83811905Y-85313333D01*
X83669047Y-85313333D01*
X83573809Y-85360952D01*
X83526190Y-85408571D01*
X83478571Y-85503810D01*
X83478571Y-85741905D01*
X83526190Y-85837143D01*
X83573809Y-85884762D01*
X83669047Y-85932381D01*
X83954762Y-85932381D01*
X84050000Y-85884762D01*
X84097619Y-85837143D01*
X83050000Y-85837143D02*
X83002381Y-85884762D01*
X83050000Y-85932381D01*
X83097619Y-85884762D01*
X83050000Y-85837143D01*
X83050000Y-85932381D01*
X83050000Y-85313333D02*
X83002381Y-85360952D01*
X83050000Y-85408571D01*
X83097619Y-85360952D01*
X83050000Y-85313333D01*
X83050000Y-85408571D01*
X82383334Y-84932381D02*
X82288095Y-84932381D01*
X82192857Y-84980000D01*
X82145238Y-85027619D01*
X82097619Y-85122857D01*
X82050000Y-85313333D01*
X82050000Y-85551429D01*
X82097619Y-85741905D01*
X82145238Y-85837143D01*
X82192857Y-85884762D01*
X82288095Y-85932381D01*
X82383334Y-85932381D01*
X82478572Y-85884762D01*
X82526191Y-85837143D01*
X82573810Y-85741905D01*
X82621429Y-85551429D01*
X82621429Y-85313333D01*
X82573810Y-85122857D01*
X82526191Y-85027619D01*
X82478572Y-84980000D01*
X82383334Y-84932381D01*
X84992381Y-104962381D02*
X84992381Y-103962381D01*
X84754286Y-103962381D01*
X84611428Y-104010000D01*
X84516190Y-104105238D01*
X84468571Y-104200476D01*
X84420952Y-104390952D01*
X84420952Y-104533810D01*
X84468571Y-104724286D01*
X84516190Y-104819524D01*
X84611428Y-104914762D01*
X84754286Y-104962381D01*
X84992381Y-104962381D01*
X84040000Y-104057619D02*
X83992381Y-104010000D01*
X83897143Y-103962381D01*
X83659047Y-103962381D01*
X83563809Y-104010000D01*
X83516190Y-104057619D01*
X83468571Y-104152857D01*
X83468571Y-104248095D01*
X83516190Y-104390952D01*
X84087619Y-104962381D01*
X83468571Y-104962381D01*
X83040000Y-104867143D02*
X82992381Y-104914762D01*
X83040000Y-104962381D01*
X83087619Y-104914762D01*
X83040000Y-104867143D01*
X83040000Y-104962381D01*
X83040000Y-104343333D02*
X82992381Y-104390952D01*
X83040000Y-104438571D01*
X83087619Y-104390952D01*
X83040000Y-104343333D01*
X83040000Y-104438571D01*
X82373334Y-103962381D02*
X82278095Y-103962381D01*
X82182857Y-104010000D01*
X82135238Y-104057619D01*
X82087619Y-104152857D01*
X82040000Y-104343333D01*
X82040000Y-104581429D01*
X82087619Y-104771905D01*
X82135238Y-104867143D01*
X82182857Y-104914762D01*
X82278095Y-104962381D01*
X82373334Y-104962381D01*
X82468572Y-104914762D01*
X82516191Y-104867143D01*
X82563810Y-104771905D01*
X82611429Y-104581429D01*
X82611429Y-104343333D01*
X82563810Y-104152857D01*
X82516191Y-104057619D01*
X82468572Y-104010000D01*
X82373334Y-103962381D01*
X84992381Y-123932381D02*
X84992381Y-122932381D01*
X84754286Y-122932381D01*
X84611428Y-122980000D01*
X84516190Y-123075238D01*
X84468571Y-123170476D01*
X84420952Y-123360952D01*
X84420952Y-123503810D01*
X84468571Y-123694286D01*
X84516190Y-123789524D01*
X84611428Y-123884762D01*
X84754286Y-123932381D01*
X84992381Y-123932381D01*
X83468571Y-123932381D02*
X84040000Y-123932381D01*
X83754286Y-123932381D02*
X83754286Y-122932381D01*
X83849524Y-123075238D01*
X83944762Y-123170476D01*
X84040000Y-123218095D01*
X83040000Y-123837143D02*
X82992381Y-123884762D01*
X83040000Y-123932381D01*
X83087619Y-123884762D01*
X83040000Y-123837143D01*
X83040000Y-123932381D01*
X83040000Y-123313333D02*
X82992381Y-123360952D01*
X83040000Y-123408571D01*
X83087619Y-123360952D01*
X83040000Y-123313333D01*
X83040000Y-123408571D01*
X82373334Y-122932381D02*
X82278095Y-122932381D01*
X82182857Y-122980000D01*
X82135238Y-123027619D01*
X82087619Y-123122857D01*
X82040000Y-123313333D01*
X82040000Y-123551429D01*
X82087619Y-123741905D01*
X82135238Y-123837143D01*
X82182857Y-123884762D01*
X82278095Y-123932381D01*
X82373334Y-123932381D01*
X82468572Y-123884762D01*
X82516191Y-123837143D01*
X82563810Y-123741905D01*
X82611429Y-123551429D01*
X82611429Y-123313333D01*
X82563810Y-123122857D01*
X82516191Y-123027619D01*
X82468572Y-122980000D01*
X82373334Y-122932381D01*
X84992381Y-142962381D02*
X84992381Y-141962381D01*
X84754286Y-141962381D01*
X84611428Y-142010000D01*
X84516190Y-142105238D01*
X84468571Y-142200476D01*
X84420952Y-142390952D01*
X84420952Y-142533810D01*
X84468571Y-142724286D01*
X84516190Y-142819524D01*
X84611428Y-142914762D01*
X84754286Y-142962381D01*
X84992381Y-142962381D01*
X83801905Y-141962381D02*
X83706666Y-141962381D01*
X83611428Y-142010000D01*
X83563809Y-142057619D01*
X83516190Y-142152857D01*
X83468571Y-142343333D01*
X83468571Y-142581429D01*
X83516190Y-142771905D01*
X83563809Y-142867143D01*
X83611428Y-142914762D01*
X83706666Y-142962381D01*
X83801905Y-142962381D01*
X83897143Y-142914762D01*
X83944762Y-142867143D01*
X83992381Y-142771905D01*
X84040000Y-142581429D01*
X84040000Y-142343333D01*
X83992381Y-142152857D01*
X83944762Y-142057619D01*
X83897143Y-142010000D01*
X83801905Y-141962381D01*
X83040000Y-142867143D02*
X82992381Y-142914762D01*
X83040000Y-142962381D01*
X83087619Y-142914762D01*
X83040000Y-142867143D01*
X83040000Y-142962381D01*
X83040000Y-142343333D02*
X82992381Y-142390952D01*
X83040000Y-142438571D01*
X83087619Y-142390952D01*
X83040000Y-142343333D01*
X83040000Y-142438571D01*
X82373334Y-141962381D02*
X82278095Y-141962381D01*
X82182857Y-142010000D01*
X82135238Y-142057619D01*
X82087619Y-142152857D01*
X82040000Y-142343333D01*
X82040000Y-142581429D01*
X82087619Y-142771905D01*
X82135238Y-142867143D01*
X82182857Y-142914762D01*
X82278095Y-142962381D01*
X82373334Y-142962381D01*
X82468572Y-142914762D01*
X82516191Y-142867143D01*
X82563810Y-142771905D01*
X82611429Y-142581429D01*
X82611429Y-142343333D01*
X82563810Y-142152857D01*
X82516191Y-142057619D01*
X82468572Y-142010000D01*
X82373334Y-141962381D01*
D13*
X337557263Y-153149262D02*
X337859644Y-153149262D01*
X337859644Y-152514262D01*
X337496786Y-153209738D02*
X337012976Y-153209738D01*
X336498928Y-153088786D02*
X336529166Y-153119024D01*
X336619881Y-153149262D01*
X336680357Y-153149262D01*
X336771071Y-153119024D01*
X336831547Y-153058548D01*
X336861786Y-152998071D01*
X336892024Y-152877119D01*
X336892024Y-152786405D01*
X336861786Y-152665452D01*
X336831547Y-152604976D01*
X336771071Y-152544500D01*
X336680357Y-152514262D01*
X336619881Y-152514262D01*
X336529166Y-152544500D01*
X336498928Y-152574738D01*
X336257024Y-152967833D02*
X335954643Y-152967833D01*
X336317500Y-153149262D02*
X336105833Y-152514262D01*
X335894166Y-153149262D01*
X335682500Y-153149262D02*
X335682500Y-152514262D01*
X335440595Y-152514262D01*
X335380119Y-152544500D01*
X335349880Y-152574738D01*
X335319642Y-152635214D01*
X335319642Y-152725929D01*
X335349880Y-152786405D01*
X335380119Y-152816643D01*
X335440595Y-152846881D01*
X335682500Y-152846881D01*
X335077738Y-153119024D02*
X334987023Y-153149262D01*
X334835833Y-153149262D01*
X334775357Y-153119024D01*
X334745119Y-153088786D01*
X334714880Y-153028310D01*
X334714880Y-152967833D01*
X334745119Y-152907357D01*
X334775357Y-152877119D01*
X334835833Y-152846881D01*
X334956785Y-152816643D01*
X335017261Y-152786405D01*
X335047500Y-152756167D01*
X335077738Y-152695690D01*
X335077738Y-152635214D01*
X335047500Y-152574738D01*
X335017261Y-152544500D01*
X334956785Y-152514262D01*
X334805595Y-152514262D01*
X334714880Y-152544500D01*
X334110118Y-153149262D02*
X334472976Y-153149262D01*
X334291547Y-153149262D02*
X334291547Y-152514262D01*
X334352023Y-152604976D01*
X334412499Y-152665452D01*
X334472976Y-152695690D01*
X146952501Y-153159262D02*
X147254882Y-153159262D01*
X147254882Y-152524262D01*
X146892024Y-153219738D02*
X146408214Y-153219738D01*
X146045357Y-152826643D02*
X146257024Y-152826643D01*
X146257024Y-153159262D02*
X146257024Y-152524262D01*
X145954643Y-152524262D01*
X145712738Y-153159262D02*
X145712738Y-152524262D01*
X145349880Y-153159262D01*
X145349880Y-152524262D01*
X144714880Y-153159262D02*
X145077738Y-153159262D01*
X144896309Y-153159262D02*
X144896309Y-152524262D01*
X144956785Y-152614976D01*
X145017261Y-152675452D01*
X145077738Y-152705690D01*
X90557263Y-115149262D02*
X90859644Y-115149262D01*
X90859644Y-114514262D01*
X90496786Y-115209738D02*
X90012976Y-115209738D01*
X89498928Y-115088786D02*
X89529166Y-115119024D01*
X89619881Y-115149262D01*
X89680357Y-115149262D01*
X89771071Y-115119024D01*
X89831547Y-115058548D01*
X89861786Y-114998071D01*
X89892024Y-114877119D01*
X89892024Y-114786405D01*
X89861786Y-114665452D01*
X89831547Y-114604976D01*
X89771071Y-114544500D01*
X89680357Y-114514262D01*
X89619881Y-114514262D01*
X89529166Y-114544500D01*
X89498928Y-114574738D01*
X89257024Y-114967833D02*
X88954643Y-114967833D01*
X89317500Y-115149262D02*
X89105833Y-114514262D01*
X88894166Y-115149262D01*
X88682500Y-115149262D02*
X88682500Y-114514262D01*
X88440595Y-114514262D01*
X88380119Y-114544500D01*
X88349880Y-114574738D01*
X88319642Y-114635214D01*
X88319642Y-114725929D01*
X88349880Y-114786405D01*
X88380119Y-114816643D01*
X88440595Y-114846881D01*
X88682500Y-114846881D01*
X88077738Y-115119024D02*
X87987023Y-115149262D01*
X87835833Y-115149262D01*
X87775357Y-115119024D01*
X87745119Y-115088786D01*
X87714880Y-115028310D01*
X87714880Y-114967833D01*
X87745119Y-114907357D01*
X87775357Y-114877119D01*
X87835833Y-114846881D01*
X87956785Y-114816643D01*
X88017261Y-114786405D01*
X88047500Y-114756167D01*
X88077738Y-114695690D01*
X88077738Y-114635214D01*
X88047500Y-114574738D01*
X88017261Y-114544500D01*
X87956785Y-114514262D01*
X87805595Y-114514262D01*
X87714880Y-114544500D01*
X87472976Y-114574738D02*
X87442738Y-114544500D01*
X87382261Y-114514262D01*
X87231071Y-114514262D01*
X87170595Y-114544500D01*
X87140357Y-114574738D01*
X87110118Y-114635214D01*
X87110118Y-114695690D01*
X87140357Y-114786405D01*
X87503214Y-115149262D01*
X87110118Y-115149262D01*
D16*
X220718283Y-98586183D02*
X221590651Y-99458551D01*
X221659072Y-99595393D01*
X221676177Y-99680919D01*
X221659072Y-99800656D01*
X221522230Y-99937498D01*
X221402493Y-99954603D01*
X221316967Y-99937498D01*
X221180125Y-99869077D01*
X220307757Y-98996709D01*
X220666968Y-100792760D02*
X221077493Y-100382235D01*
X220872230Y-100587498D02*
X219794599Y-99509867D01*
X220016967Y-99595393D01*
X220188020Y-99629604D01*
X220307757Y-99612498D01*
X216950851Y-95092435D02*
X216608746Y-95434540D01*
X217327167Y-95331909D02*
X216010062Y-94493752D01*
X216848220Y-95810856D01*
X215633747Y-94870067D02*
X215223221Y-95280593D01*
X216506115Y-96152961D02*
X215428484Y-95075331D01*
X216061378Y-96597698D02*
X215342958Y-95879277D01*
X215445589Y-95981908D02*
X215360063Y-95964803D01*
X215240326Y-95981909D01*
X215137695Y-96084540D01*
X215120590Y-96204276D01*
X215189011Y-96341118D01*
X215753484Y-96905592D01*
X215189011Y-96341118D02*
X215052169Y-96272697D01*
X214932432Y-96289803D01*
X214829801Y-96392434D01*
X214812695Y-96512171D01*
X214881116Y-96649013D01*
X215445589Y-97213486D01*
X214778484Y-97777959D02*
X214898222Y-97760854D01*
X215035063Y-97624013D01*
X215052168Y-97504276D01*
X214983747Y-97367433D01*
X214573221Y-96956908D01*
X214436379Y-96888487D01*
X214316643Y-96905592D01*
X214179801Y-97042434D01*
X214162695Y-97162170D01*
X214231117Y-97299012D01*
X214333748Y-97401644D01*
X214778484Y-97162171D01*
X213461381Y-97760854D02*
X214333748Y-98633222D01*
X214470590Y-98701643D01*
X214556116Y-98718748D01*
X214675853Y-98701644D01*
X214778484Y-98599012D01*
X214795589Y-98479275D01*
X214128485Y-98427959D02*
X214248222Y-98410854D01*
X214385064Y-98274012D01*
X214402169Y-98154275D01*
X214385064Y-98068749D01*
X214316643Y-97931907D01*
X214008748Y-97624012D01*
X213871906Y-97555591D01*
X213786380Y-97538486D01*
X213666643Y-97555592D01*
X213529802Y-97692433D01*
X213512696Y-97812170D01*
X213529802Y-99129274D02*
X212965328Y-98564801D01*
X212896907Y-98427959D01*
X212914013Y-98308222D01*
X213050854Y-98171381D01*
X213170591Y-98154275D01*
X213478486Y-99077958D02*
X213598223Y-99060853D01*
X213769275Y-98889801D01*
X213786380Y-98770064D01*
X213717959Y-98633222D01*
X213615327Y-98530590D01*
X213478486Y-98462170D01*
X213358748Y-98479275D01*
X213187696Y-98650327D01*
X213067960Y-98667432D01*
X212178487Y-98325328D02*
X211733750Y-98770064D01*
X212383749Y-98941117D01*
X212281118Y-99043747D01*
X212264013Y-99163484D01*
X212281118Y-99249011D01*
X212349539Y-99385853D01*
X212606118Y-99642431D01*
X212742960Y-99710853D01*
X212828486Y-99727957D01*
X212948223Y-99710853D01*
X213153486Y-99505590D01*
X213170591Y-99385853D01*
X213153486Y-99300327D01*
X211562697Y-99146379D02*
X211477171Y-99129274D01*
X211357435Y-99146380D01*
X211186383Y-99317432D01*
X211169277Y-99437168D01*
X211186382Y-99522694D01*
X211254803Y-99659536D01*
X211357435Y-99762168D01*
X211545592Y-99881904D01*
X212571907Y-100087168D01*
X212127171Y-100531905D01*
X210741646Y-99762169D02*
X211614013Y-100634536D01*
X211682434Y-100771378D01*
X211699539Y-100856904D01*
X211682434Y-100976642D01*
X211545593Y-101113483D01*
X211425856Y-101130588D01*
X211340330Y-101113483D01*
X211203488Y-101045062D01*
X210331120Y-100172694D01*
X210040331Y-101181904D02*
X210758751Y-101900325D01*
X209800856Y-100600326D02*
X210741646Y-101199010D01*
X210296909Y-101643746D01*
D12*
X216452381Y-72783334D02*
X215976190Y-72450000D01*
X216452381Y-72211905D02*
X215452381Y-72211905D01*
X215452381Y-72592858D01*
X215500000Y-72688096D01*
X215547619Y-72735715D01*
X215642857Y-72783334D01*
X215785714Y-72783334D01*
X215880952Y-72735715D01*
X215928571Y-72688096D01*
X215976190Y-72592858D01*
X215976190Y-72211905D01*
X215452381Y-73116667D02*
X215452381Y-73735715D01*
X215833333Y-73402381D01*
X215833333Y-73545239D01*
X215880952Y-73640477D01*
X215928571Y-73688096D01*
X216023810Y-73735715D01*
X216261905Y-73735715D01*
X216357143Y-73688096D01*
X216404762Y-73640477D01*
X216452381Y-73545239D01*
X216452381Y-73259524D01*
X216404762Y-73164286D01*
X216357143Y-73116667D01*
X213652381Y-72783334D02*
X213176190Y-72450000D01*
X213652381Y-72211905D02*
X212652381Y-72211905D01*
X212652381Y-72592858D01*
X212700000Y-72688096D01*
X212747619Y-72735715D01*
X212842857Y-72783334D01*
X212985714Y-72783334D01*
X213080952Y-72735715D01*
X213128571Y-72688096D01*
X213176190Y-72592858D01*
X213176190Y-72211905D01*
X212985714Y-73640477D02*
X213652381Y-73640477D01*
X212604762Y-73402381D02*
X213319048Y-73164286D01*
X213319048Y-73783334D01*
D19*
X210122833Y-85978929D02*
X210167357Y-86023452D01*
X210300928Y-86067976D01*
X210389976Y-86067976D01*
X210523548Y-86023452D01*
X210612595Y-85934405D01*
X210657119Y-85845357D01*
X210701643Y-85667262D01*
X210701643Y-85533690D01*
X210657119Y-85355595D01*
X210612595Y-85266548D01*
X210523548Y-85177500D01*
X210389976Y-85132976D01*
X210300928Y-85132976D01*
X210167357Y-85177500D01*
X210122833Y-85222024D01*
X209276881Y-85132976D02*
X209722119Y-85132976D01*
X209766643Y-85578214D01*
X209722119Y-85533690D01*
X209633071Y-85489167D01*
X209410452Y-85489167D01*
X209321405Y-85533690D01*
X209276881Y-85578214D01*
X209232357Y-85667262D01*
X209232357Y-85889881D01*
X209276881Y-85978929D01*
X209321405Y-86023452D01*
X209410452Y-86067976D01*
X209633071Y-86067976D01*
X209722119Y-86023452D01*
X209766643Y-85978929D01*
X329657976Y-149841167D02*
X329212738Y-149529500D01*
X329657976Y-149306881D02*
X328722976Y-149306881D01*
X328722976Y-149663072D01*
X328767500Y-149752119D01*
X328812024Y-149796643D01*
X328901071Y-149841167D01*
X329034643Y-149841167D01*
X329123690Y-149796643D01*
X329168214Y-149752119D01*
X329212738Y-149663072D01*
X329212738Y-149306881D01*
X329123690Y-150375452D02*
X329079167Y-150286405D01*
X329034643Y-150241881D01*
X328945595Y-150197357D01*
X328901071Y-150197357D01*
X328812024Y-150241881D01*
X328767500Y-150286405D01*
X328722976Y-150375452D01*
X328722976Y-150553548D01*
X328767500Y-150642595D01*
X328812024Y-150687119D01*
X328901071Y-150731643D01*
X328945595Y-150731643D01*
X329034643Y-150687119D01*
X329079167Y-150642595D01*
X329123690Y-150553548D01*
X329123690Y-150375452D01*
X329168214Y-150286405D01*
X329212738Y-150241881D01*
X329301786Y-150197357D01*
X329479881Y-150197357D01*
X329568929Y-150241881D01*
X329613452Y-150286405D01*
X329657976Y-150375452D01*
X329657976Y-150553548D01*
X329613452Y-150642595D01*
X329568929Y-150687119D01*
X329479881Y-150731643D01*
X329301786Y-150731643D01*
X329212738Y-150687119D01*
X329168214Y-150642595D01*
X329123690Y-150553548D01*
D10*
X232741429Y-98424285D02*
X233341429Y-98824285D01*
X232741429Y-98824285D02*
X233341429Y-98424285D01*
X233341429Y-99367143D02*
X233341429Y-99024286D01*
X233341429Y-99195714D02*
X232741429Y-99195714D01*
X232827143Y-99138571D01*
X232884286Y-99081429D01*
X232912857Y-99024286D01*
X228784286Y-96152857D02*
X228812857Y-96124286D01*
X228841429Y-96038572D01*
X228841429Y-95981429D01*
X228812857Y-95895714D01*
X228755714Y-95838572D01*
X228698571Y-95810000D01*
X228584286Y-95781429D01*
X228498571Y-95781429D01*
X228384286Y-95810000D01*
X228327143Y-95838572D01*
X228270000Y-95895714D01*
X228241429Y-95981429D01*
X228241429Y-96038572D01*
X228270000Y-96124286D01*
X228298571Y-96152857D01*
X228841429Y-96752857D02*
X228555714Y-96552857D01*
X228841429Y-96410000D02*
X228241429Y-96410000D01*
X228241429Y-96638572D01*
X228270000Y-96695714D01*
X228298571Y-96724286D01*
X228355714Y-96752857D01*
X228441429Y-96752857D01*
X228498571Y-96724286D01*
X228527143Y-96695714D01*
X228555714Y-96638572D01*
X228555714Y-96410000D01*
X228555714Y-97124286D02*
X228841429Y-97124286D01*
X228241429Y-96924286D02*
X228555714Y-97124286D01*
X228241429Y-97324286D01*
X228812857Y-97495715D02*
X228841429Y-97581429D01*
X228841429Y-97724286D01*
X228812857Y-97781429D01*
X228784286Y-97810000D01*
X228727143Y-97838572D01*
X228670000Y-97838572D01*
X228612857Y-97810000D01*
X228584286Y-97781429D01*
X228555714Y-97724286D01*
X228527143Y-97610000D01*
X228498571Y-97552858D01*
X228470000Y-97524286D01*
X228412857Y-97495715D01*
X228355714Y-97495715D01*
X228298571Y-97524286D01*
X228270000Y-97552858D01*
X228241429Y-97610000D01*
X228241429Y-97752858D01*
X228270000Y-97838572D01*
X228241429Y-98010001D02*
X228241429Y-98352858D01*
X228841429Y-98181429D02*
X228241429Y-98181429D01*
X228670000Y-98524287D02*
X228670000Y-98810001D01*
X228841429Y-98467144D02*
X228241429Y-98667144D01*
X228841429Y-98867144D01*
X228841429Y-99352858D02*
X228841429Y-99067144D01*
X228241429Y-99067144D01*
X229070000Y-99724287D02*
X229041429Y-99695715D01*
X228955714Y-99638572D01*
X228898571Y-99610001D01*
X228812857Y-99581430D01*
X228670000Y-99552858D01*
X228555714Y-99552858D01*
X228412857Y-99581430D01*
X228327143Y-99610001D01*
X228270000Y-99638572D01*
X228184286Y-99695715D01*
X228155714Y-99724287D01*
X228441429Y-100210001D02*
X228841429Y-100210001D01*
X228212857Y-100067144D02*
X228641429Y-99924287D01*
X228641429Y-100295715D01*
X228441429Y-100524287D02*
X229041429Y-100524287D01*
X228470000Y-100524287D02*
X228441429Y-100581430D01*
X228441429Y-100695716D01*
X228470000Y-100752859D01*
X228498571Y-100781430D01*
X228555714Y-100810001D01*
X228727143Y-100810001D01*
X228784286Y-100781430D01*
X228812857Y-100752859D01*
X228841429Y-100695716D01*
X228841429Y-100581430D01*
X228812857Y-100524287D01*
X228841429Y-101067144D02*
X228441429Y-101067144D01*
X228241429Y-101067144D02*
X228270000Y-101038573D01*
X228298571Y-101067144D01*
X228270000Y-101095716D01*
X228241429Y-101067144D01*
X228298571Y-101067144D01*
X228441429Y-101352858D02*
X228841429Y-101352858D01*
X228498571Y-101352858D02*
X228470000Y-101381430D01*
X228441429Y-101438572D01*
X228441429Y-101524287D01*
X228470000Y-101581430D01*
X228527143Y-101610001D01*
X228841429Y-101610001D01*
X229070000Y-101838572D02*
X229041429Y-101867144D01*
X228955714Y-101924287D01*
X228898571Y-101952858D01*
X228812857Y-101981429D01*
X228670000Y-102010001D01*
X228555714Y-102010001D01*
X228412857Y-101981429D01*
X228327143Y-101952858D01*
X228270000Y-101924287D01*
X228184286Y-101867144D01*
X228155714Y-101838572D01*
D15*
X235409060Y-84667457D02*
X235191346Y-84740029D01*
X234828489Y-84740029D01*
X234683346Y-84667457D01*
X234610775Y-84594886D01*
X234538203Y-84449743D01*
X234538203Y-84304600D01*
X234610775Y-84159457D01*
X234683346Y-84086886D01*
X234828489Y-84014314D01*
X235118775Y-83941743D01*
X235263917Y-83869171D01*
X235336489Y-83796600D01*
X235409060Y-83651457D01*
X235409060Y-83506314D01*
X235336489Y-83361171D01*
X235263917Y-83288600D01*
X235118775Y-83216029D01*
X234755917Y-83216029D01*
X234538203Y-83288600D01*
X234247917Y-84885171D02*
X233086774Y-84885171D01*
X231853060Y-84740029D02*
X232361060Y-84014314D01*
X232723917Y-84740029D02*
X232723917Y-83216029D01*
X232143345Y-83216029D01*
X231998203Y-83288600D01*
X231925631Y-83361171D01*
X231853060Y-83506314D01*
X231853060Y-83724029D01*
X231925631Y-83869171D01*
X231998203Y-83941743D01*
X232143345Y-84014314D01*
X232723917Y-84014314D01*
X231272488Y-84667457D02*
X231054774Y-84740029D01*
X230691917Y-84740029D01*
X230546774Y-84667457D01*
X230474203Y-84594886D01*
X230401631Y-84449743D01*
X230401631Y-84304600D01*
X230474203Y-84159457D01*
X230546774Y-84086886D01*
X230691917Y-84014314D01*
X230982203Y-83941743D01*
X231127345Y-83869171D01*
X231199917Y-83796600D01*
X231272488Y-83651457D01*
X231272488Y-83506314D01*
X231199917Y-83361171D01*
X231127345Y-83288600D01*
X230982203Y-83216029D01*
X230619345Y-83216029D01*
X230401631Y-83288600D01*
X229966202Y-83216029D02*
X229095345Y-83216029D01*
X229530774Y-84740029D02*
X229530774Y-83216029D01*
X227789059Y-84740029D02*
X228659916Y-84740029D01*
X228224488Y-84740029D02*
X228224488Y-83216029D01*
X228369631Y-83433743D01*
X228514773Y-83578886D01*
X228659916Y-83651457D01*
X236570202Y-75066257D02*
X236352488Y-75138829D01*
X235989631Y-75138829D01*
X235844488Y-75066257D01*
X235771917Y-74993686D01*
X235699345Y-74848543D01*
X235699345Y-74703400D01*
X235771917Y-74558257D01*
X235844488Y-74485686D01*
X235989631Y-74413114D01*
X236279917Y-74340543D01*
X236425059Y-74267971D01*
X236497631Y-74195400D01*
X236570202Y-74050257D01*
X236570202Y-73905114D01*
X236497631Y-73759971D01*
X236425059Y-73687400D01*
X236279917Y-73614829D01*
X235917059Y-73614829D01*
X235699345Y-73687400D01*
X235191345Y-73614829D02*
X234828488Y-75138829D01*
X234538202Y-74050257D01*
X234247916Y-75138829D01*
X233885059Y-73614829D01*
X233667345Y-75283971D02*
X232506202Y-75283971D01*
X232143345Y-75138829D02*
X232143345Y-73614829D01*
X231562773Y-73614829D01*
X231417631Y-73687400D01*
X231345059Y-73759971D01*
X231272488Y-73905114D01*
X231272488Y-74122829D01*
X231345059Y-74267971D01*
X231417631Y-74340543D01*
X231562773Y-74413114D01*
X232143345Y-74413114D01*
X230619345Y-73614829D02*
X230619345Y-74848543D01*
X230546773Y-74993686D01*
X230474202Y-75066257D01*
X230329059Y-75138829D01*
X230038773Y-75138829D01*
X229893631Y-75066257D01*
X229821059Y-74993686D01*
X229748488Y-74848543D01*
X229748488Y-73614829D01*
X229095345Y-75066257D02*
X228877631Y-75138829D01*
X228514774Y-75138829D01*
X228369631Y-75066257D01*
X228297060Y-74993686D01*
X228224488Y-74848543D01*
X228224488Y-74703400D01*
X228297060Y-74558257D01*
X228369631Y-74485686D01*
X228514774Y-74413114D01*
X228805060Y-74340543D01*
X228950202Y-74267971D01*
X229022774Y-74195400D01*
X229095345Y-74050257D01*
X229095345Y-73905114D01*
X229022774Y-73759971D01*
X228950202Y-73687400D01*
X228805060Y-73614829D01*
X228442202Y-73614829D01*
X228224488Y-73687400D01*
X227571345Y-75138829D02*
X227571345Y-73614829D01*
X227571345Y-74340543D02*
X226700488Y-74340543D01*
X226700488Y-75138829D02*
X226700488Y-73614829D01*
D12*
X249202381Y-77130953D02*
X249202381Y-76654762D01*
X248202381Y-76654762D01*
X249297619Y-77226191D02*
X249297619Y-77988096D01*
X249202381Y-78226191D02*
X248202381Y-78226191D01*
X248202381Y-78607144D01*
X248250000Y-78702382D01*
X248297619Y-78750001D01*
X248392857Y-78797620D01*
X248535714Y-78797620D01*
X248630952Y-78750001D01*
X248678571Y-78702382D01*
X248726190Y-78607144D01*
X248726190Y-78226191D01*
X248202381Y-79130953D02*
X249202381Y-79369048D01*
X248488095Y-79559525D01*
X249202381Y-79750001D01*
X248202381Y-79988096D01*
X249202381Y-80940477D02*
X248726190Y-80607143D01*
X249202381Y-80369048D02*
X248202381Y-80369048D01*
X248202381Y-80750001D01*
X248250000Y-80845239D01*
X248297619Y-80892858D01*
X248392857Y-80940477D01*
X248535714Y-80940477D01*
X248630952Y-80892858D01*
X248678571Y-80845239D01*
X248726190Y-80750001D01*
X248726190Y-80369048D01*
X249202381Y-81892858D02*
X249202381Y-81321429D01*
X249202381Y-81607143D02*
X248202381Y-81607143D01*
X248345238Y-81511905D01*
X248440476Y-81416667D01*
X248488095Y-81321429D01*
M02*
