M48
;DRILL file {KiCad 4.0.1-stable} date 4/2/2017 1:31:38 AM
;FORMAT={-:-/ absolute / metric / decimal}
FMAT,2
METRIC,TZ
T1C0.400
T2C0.900
T3C0.991
T4C1.499
%
G90
G05
M71
T1
X1.25Y92.75
X1.25Y1.25
X2.9Y53.25
X21.9Y53.15
X27.6Y20.15
X41.3Y72.85
X46.7Y20.25
X60.1Y72.75
X65.5Y20.25
X78.9Y72.15
X84.8Y20.25
X94.875Y9.5
X98.1Y72.15
X113.4Y19.05
X113.9Y84.35
X114.Y39.65
X114.8Y62.35
X115.2Y35.05
X116.6Y75.15
X116.6Y61.15
X116.6Y54.75
X116.6Y53.75
X117.5Y75.35
X117.5Y20.75
X117.5Y17.95
X118.3Y20.25
X118.7Y76.15
X119.2Y18.95
X119.4Y65.25
X119.5Y76.75
X119.5Y73.85
X119.6Y64.25
X121.Y53.35
X121.8Y70.45
X122.4Y79.35
X122.8Y56.85
X122.9Y53.95
X125.1Y81.85
X126.5Y46.35
X127.7Y49.55
X128.2Y18.15
X128.35Y38.16
X128.93Y36.52
X129.Y54.75
X129.4Y64.65
X129.61Y39.06
X130.Y78.25
X130.1Y53.85
X130.5Y23.15
X130.6Y56.15
X130.9Y33.85
X131.5Y47.95
X131.6Y24.35
X131.8Y72.25
X131.8Y32.05
X132.3Y48.65
X132.5Y47.05
X132.6Y64.15
X133.3Y61.15
X133.3Y23.15
X133.4Y46.85
X133.9Y32.95
X134.Y66.15
X134.1Y60.45
X134.1Y22.25
X134.4Y78.95
X134.4Y58.95
X134.4Y30.35
X134.45Y37.36
X134.7Y32.25
X135.Y66.65
X135.1Y56.15
X135.2Y48.85
X135.2Y19.85
X135.4Y65.75
X135.5Y39.25
X135.75Y15.85
X136.Y72.05
X136.3Y49.75
X136.7Y50.65
X136.9Y17.35
X137.2Y58.95
X137.6Y58.15
X137.7Y57.25
X137.7Y56.25
X138.2Y62.15
X138.4Y64.75
X138.6Y11.65
X138.6Y9.95
X138.7Y23.95
X139.9Y38.55
X140.1Y44.65
X140.3Y50.15
X140.5Y57.75
X140.9Y20.75
X141.6Y20.05
X141.8Y75.75
X142.3Y53.35
X142.5Y51.55
X142.8Y72.35
X143.2Y31.25
X144.7Y46.65
X145.15Y18.5
X145.3Y38.25
X145.7Y47.55
X146.6Y63.35
X146.6Y58.25
X147.6Y48.95
X148.3Y55.85
X148.4Y41.95
X148.5Y46.05
X148.5Y45.05
X148.5Y42.85
X148.5Y22.15
X148.6Y75.35
X148.7Y53.15
X148.8Y54.85
X148.9Y60.75
X149.4Y87.95
X149.9Y28.55
X150.Y59.85
X150.Y44.65
X150.6Y51.25
X150.9Y44.25
X151.Y43.35
X153.3Y69.55
X153.4Y54.65
X154.2Y12.95
X157.Y59.95
X157.2Y61.05
X158.6Y59.85
X160.8Y75.85
X162.9Y76.55
X172.Y50.95
X173.7Y83.45
X178.2Y20.35
X179.5Y38.35
X187.45Y20.4
X191.2Y50.65
X191.7Y20.2
X197.2Y20.35
X210.Y50.65
X216.4Y20.25
X228.7Y50.65
X235.2Y20.75
X248.4Y58.45
X263.75Y92.75
X263.75Y1.25
T2
X130.Y90.3
X134.4Y90.3
T3
X7.405Y80.02
X7.405Y60.97
X7.405Y41.92
X7.405Y22.87
X7.405Y3.82
X9.945Y80.02
X9.945Y60.97
X9.945Y41.92
X9.945Y22.87
X9.945Y3.82
X26.455Y80.02
X26.455Y60.97
X26.455Y41.92
X26.455Y22.87
X26.455Y3.82
X28.995Y80.02
X28.995Y60.97
X28.995Y41.92
X28.995Y22.87
X28.995Y3.82
X45.505Y80.02
X45.505Y60.97
X45.505Y41.92
X45.505Y22.87
X45.505Y3.82
X48.045Y80.02
X48.045Y60.97
X48.045Y41.92
X48.045Y22.87
X48.045Y3.82
X64.555Y80.02
X64.555Y60.97
X64.555Y41.92
X64.555Y22.87
X64.555Y3.82
X67.095Y80.02
X67.095Y60.97
X67.095Y41.92
X67.095Y22.87
X67.095Y3.82
X83.605Y80.02
X83.605Y60.97
X83.605Y41.92
X83.605Y22.87
X83.605Y3.82
X86.145Y80.02
X86.145Y60.97
X86.145Y41.92
X86.145Y22.87
X86.145Y3.82
X102.655Y80.02
X102.655Y60.97
X102.655Y41.92
X102.655Y22.87
X105.195Y80.02
X105.195Y60.97
X105.195Y41.92
X105.195Y22.87
X112.18Y14.105
X114.72Y14.105
X121.705Y90.18
X121.705Y60.97
X121.705Y41.92
X121.705Y22.87
X124.245Y90.18
X124.245Y60.97
X124.245Y41.92
X124.245Y22.87
X140.755Y90.18
X140.755Y60.97
X140.755Y41.92
X140.755Y22.87
X143.295Y90.18
X143.295Y60.97
X143.295Y41.92
X143.295Y22.87
X150.28Y14.13
X152.82Y14.13
X159.805Y80.02
X159.805Y60.97
X159.805Y41.92
X159.805Y22.87
X162.345Y80.02
X162.345Y60.97
X162.345Y41.92
X162.345Y22.87
X178.855Y80.02
X178.855Y60.97
X178.855Y41.92
X178.855Y22.87
X178.855Y3.82
X181.395Y80.02
X181.395Y60.97
X181.395Y41.92
X181.395Y22.87
X181.395Y3.82
X197.905Y80.02
X197.905Y60.97
X197.905Y41.92
X197.905Y22.87
X197.905Y3.82
X200.445Y80.02
X200.445Y60.97
X200.445Y41.92
X200.445Y22.87
X200.445Y3.82
X216.955Y80.02
X216.955Y60.97
X216.955Y41.92
X216.955Y22.87
X216.955Y3.82
X219.495Y80.02
X219.495Y60.97
X219.495Y41.92
X219.495Y22.87
X219.495Y3.82
X236.005Y80.02
X236.005Y60.97
X236.005Y41.92
X236.005Y22.87
X236.005Y3.82
X238.545Y80.02
X238.545Y60.97
X238.545Y41.92
X238.545Y22.87
X238.545Y3.82
X255.055Y80.02
X255.055Y60.97
X255.055Y41.92
X255.055Y22.87
X255.055Y3.82
X257.595Y80.02
X257.595Y60.97
X257.595Y41.92
X257.595Y22.87
X257.595Y3.82
T4
X4.865Y87.64
X4.865Y68.59
X4.865Y49.54
X4.865Y30.49
X4.865Y11.44
X11.215Y90.18
X11.215Y71.13
X11.215Y52.08
X11.215Y33.03
X11.215Y13.98
X23.915Y87.64
X23.915Y68.59
X23.915Y49.54
X23.915Y30.49
X23.915Y11.44
X30.265Y90.18
X30.265Y71.13
X30.265Y52.08
X30.265Y33.03
X30.265Y13.98
X42.965Y87.64
X42.965Y68.59
X42.965Y49.54
X42.965Y30.49
X42.965Y11.44
X49.315Y90.18
X49.315Y71.13
X49.315Y52.08
X49.315Y33.03
X49.315Y13.98
X62.015Y87.64
X62.015Y68.59
X62.015Y49.54
X62.015Y30.49
X62.015Y11.44
X68.365Y90.18
X68.365Y71.13
X68.365Y52.08
X68.365Y33.03
X68.365Y13.98
X81.065Y87.64
X81.065Y68.59
X81.065Y49.54
X81.065Y30.49
X81.065Y11.44
X87.415Y90.18
X87.415Y71.13
X87.415Y52.08
X87.415Y33.03
X87.415Y13.98
X100.115Y87.64
X100.115Y68.59
X100.115Y49.54
X100.115Y30.49
X106.465Y90.18
X106.465Y71.13
X106.465Y52.08
X106.465Y33.03
X110.91Y3.945
X117.26Y6.485
X119.165Y68.59
X119.165Y49.54
X119.165Y30.49
X120.435Y80.02
X125.515Y71.13
X125.515Y52.08
X125.515Y33.03
X126.785Y82.56
X138.215Y68.59
X138.215Y49.54
X138.215Y30.49
X139.485Y80.02
X144.565Y71.13
X144.565Y52.08
X144.565Y33.03
X145.835Y82.56
X149.01Y3.97
X155.36Y6.51
X157.265Y87.64
X157.265Y68.59
X157.265Y49.54
X157.265Y30.49
X163.615Y90.18
X163.615Y71.13
X163.615Y52.08
X163.615Y33.03
X176.315Y87.64
X176.315Y68.59
X176.315Y49.54
X176.315Y30.49
X176.315Y11.44
X182.665Y90.18
X182.665Y71.13
X182.665Y52.08
X182.665Y33.03
X182.665Y13.98
X195.365Y87.64
X195.365Y68.59
X195.365Y49.54
X195.365Y30.49
X195.365Y11.44
X201.715Y90.18
X201.715Y71.13
X201.715Y52.08
X201.715Y33.03
X201.715Y13.98
X214.415Y87.64
X214.415Y68.59
X214.415Y49.54
X214.415Y30.49
X214.415Y11.44
X220.765Y90.18
X220.765Y71.13
X220.765Y52.08
X220.765Y33.03
X220.765Y13.98
X233.465Y87.64
X233.465Y68.59
X233.465Y49.54
X233.465Y30.49
X233.465Y11.44
X239.815Y90.18
X239.815Y71.13
X239.815Y52.08
X239.815Y33.03
X239.815Y13.98
X252.515Y87.64
X252.515Y68.59
X252.515Y49.54
X252.515Y30.49
X252.515Y11.44
X258.865Y90.18
X258.865Y71.13
X258.865Y52.08
X258.865Y33.03
X258.865Y13.98
T0
M30
