G04 #@! TF.FileFunction,Legend,Bot*
%FSLAX46Y46*%
G04 Gerber Fmt 4.6, Leading zero omitted, Abs format (unit mm)*
G04 Created by KiCad (PCBNEW 4.0.1-stable) date 4/18/2016 2:02:23 AM*
%MOMM*%
G01*
G04 APERTURE LIST*
%ADD10C,0.100000*%
%ADD11C,0.150000*%
%ADD12C,0.203200*%
G04 APERTURE END LIST*
D10*
D11*
X142000000Y-63650000D02*
X143000000Y-63650000D01*
X143000000Y-65350000D02*
X142000000Y-65350000D01*
X139500000Y-24150000D02*
X140500000Y-24150000D01*
X140500000Y-25850000D02*
X139500000Y-25850000D01*
X159650000Y-56500000D02*
X159650000Y-55500000D01*
X161350000Y-55500000D02*
X161350000Y-56500000D01*
X142000000Y-61650000D02*
X143000000Y-61650000D01*
X143000000Y-63350000D02*
X142000000Y-63350000D01*
X139500000Y-26150000D02*
X140500000Y-26150000D01*
X140500000Y-27850000D02*
X139500000Y-27850000D01*
X119500000Y-53350000D02*
X118500000Y-53350000D01*
X118500000Y-51650000D02*
X119500000Y-51650000D01*
X119500000Y-51350000D02*
X118500000Y-51350000D01*
X118500000Y-49650000D02*
X119500000Y-49650000D01*
X154400000Y-45375000D02*
X155600000Y-45375000D01*
X155600000Y-43625000D02*
X154400000Y-43625000D01*
X84375000Y-102600000D02*
X84375000Y-101400000D01*
X82625000Y-101400000D02*
X82625000Y-102600000D01*
X273875000Y-102600000D02*
X273875000Y-101400000D01*
X272125000Y-101400000D02*
X272125000Y-102600000D01*
X165997460Y-81366520D02*
X165997460Y-82763520D01*
X165997460Y-76921520D02*
X165997460Y-75397520D01*
X165235460Y-77302520D02*
X166759460Y-77302520D01*
X165235460Y-77048520D02*
X166759460Y-77048520D01*
X165997460Y-76794520D02*
X166759460Y-76794520D01*
X166759460Y-76794520D02*
X166759460Y-81366520D01*
X166759460Y-81366520D02*
X165235460Y-81366520D01*
X165235460Y-81366520D02*
X165235460Y-76794520D01*
X165235460Y-76794520D02*
X165997460Y-76794520D01*
X146997460Y-81366520D02*
X146997460Y-82763520D01*
X146997460Y-76921520D02*
X146997460Y-75397520D01*
X146235460Y-77302520D02*
X147759460Y-77302520D01*
X146235460Y-77048520D02*
X147759460Y-77048520D01*
X146997460Y-76794520D02*
X147759460Y-76794520D01*
X147759460Y-76794520D02*
X147759460Y-81366520D01*
X147759460Y-81366520D02*
X146235460Y-81366520D01*
X146235460Y-81366520D02*
X146235460Y-76794520D01*
X146235460Y-76794520D02*
X146997460Y-76794520D01*
X144497460Y-81366520D02*
X144497460Y-82763520D01*
X144497460Y-76921520D02*
X144497460Y-75397520D01*
X143735460Y-77302520D02*
X145259460Y-77302520D01*
X143735460Y-77048520D02*
X145259460Y-77048520D01*
X144497460Y-76794520D02*
X145259460Y-76794520D01*
X145259460Y-76794520D02*
X145259460Y-81366520D01*
X145259460Y-81366520D02*
X143735460Y-81366520D01*
X143735460Y-81366520D02*
X143735460Y-76794520D01*
X143735460Y-76794520D02*
X144497460Y-76794520D01*
X125497460Y-81366520D02*
X125497460Y-82763520D01*
X125497460Y-76921520D02*
X125497460Y-75397520D01*
X124735460Y-77302520D02*
X126259460Y-77302520D01*
X124735460Y-77048520D02*
X126259460Y-77048520D01*
X125497460Y-76794520D02*
X126259460Y-76794520D01*
X126259460Y-76794520D02*
X126259460Y-81366520D01*
X126259460Y-81366520D02*
X124735460Y-81366520D01*
X124735460Y-81366520D02*
X124735460Y-76794520D01*
X124735460Y-76794520D02*
X125497460Y-76794520D01*
X106497460Y-81866520D02*
X106497460Y-83263520D01*
X106497460Y-77421520D02*
X106497460Y-75897520D01*
X105735460Y-77802520D02*
X107259460Y-77802520D01*
X105735460Y-77548520D02*
X107259460Y-77548520D01*
X106497460Y-77294520D02*
X107259460Y-77294520D01*
X107259460Y-77294520D02*
X107259460Y-81866520D01*
X107259460Y-81866520D02*
X105735460Y-81866520D01*
X105735460Y-81866520D02*
X105735460Y-77294520D01*
X105735460Y-77294520D02*
X106497460Y-77294520D01*
X87497460Y-81366520D02*
X87497460Y-82763520D01*
X87497460Y-76921520D02*
X87497460Y-75397520D01*
X86735460Y-77302520D02*
X88259460Y-77302520D01*
X86735460Y-77048520D02*
X88259460Y-77048520D01*
X87497460Y-76794520D02*
X88259460Y-76794520D01*
X88259460Y-76794520D02*
X88259460Y-81366520D01*
X88259460Y-81366520D02*
X86735460Y-81366520D01*
X86735460Y-81366520D02*
X86735460Y-76794520D01*
X86735460Y-76794520D02*
X87497460Y-76794520D01*
X67997460Y-81866520D02*
X67997460Y-83263520D01*
X67997460Y-77421520D02*
X67997460Y-75897520D01*
X67235460Y-77802520D02*
X68759460Y-77802520D01*
X67235460Y-77548520D02*
X68759460Y-77548520D01*
X67997460Y-77294520D02*
X68759460Y-77294520D01*
X68759460Y-77294520D02*
X68759460Y-81866520D01*
X68759460Y-81866520D02*
X67235460Y-81866520D01*
X67235460Y-81866520D02*
X67235460Y-77294520D01*
X67235460Y-77294520D02*
X67997460Y-77294520D01*
X49497460Y-81866520D02*
X49497460Y-83263520D01*
X49497460Y-77421520D02*
X49497460Y-75897520D01*
X48735460Y-77802520D02*
X50259460Y-77802520D01*
X48735460Y-77548520D02*
X50259460Y-77548520D01*
X49497460Y-77294520D02*
X50259460Y-77294520D01*
X50259460Y-77294520D02*
X50259460Y-81866520D01*
X50259460Y-81866520D02*
X48735460Y-81866520D01*
X48735460Y-81866520D02*
X48735460Y-77294520D01*
X48735460Y-77294520D02*
X49497460Y-77294520D01*
X30497460Y-81366520D02*
X30497460Y-82763520D01*
X30497460Y-76921520D02*
X30497460Y-75397520D01*
X29735460Y-77302520D02*
X31259460Y-77302520D01*
X29735460Y-77048520D02*
X31259460Y-77048520D01*
X30497460Y-76794520D02*
X31259460Y-76794520D01*
X31259460Y-76794520D02*
X31259460Y-81366520D01*
X31259460Y-81366520D02*
X29735460Y-81366520D01*
X29735460Y-81366520D02*
X29735460Y-76794520D01*
X29735460Y-76794520D02*
X30497460Y-76794520D01*
X30497460Y-100366520D02*
X30497460Y-101763520D01*
X30497460Y-95921520D02*
X30497460Y-94397520D01*
X29735460Y-96302520D02*
X31259460Y-96302520D01*
X29735460Y-96048520D02*
X31259460Y-96048520D01*
X30497460Y-95794520D02*
X31259460Y-95794520D01*
X31259460Y-95794520D02*
X31259460Y-100366520D01*
X31259460Y-100366520D02*
X29735460Y-100366520D01*
X29735460Y-100366520D02*
X29735460Y-95794520D01*
X29735460Y-95794520D02*
X30497460Y-95794520D01*
X49497460Y-100366520D02*
X49497460Y-101763520D01*
X49497460Y-95921520D02*
X49497460Y-94397520D01*
X48735460Y-96302520D02*
X50259460Y-96302520D01*
X48735460Y-96048520D02*
X50259460Y-96048520D01*
X49497460Y-95794520D02*
X50259460Y-95794520D01*
X50259460Y-95794520D02*
X50259460Y-100366520D01*
X50259460Y-100366520D02*
X48735460Y-100366520D01*
X48735460Y-100366520D02*
X48735460Y-95794520D01*
X48735460Y-95794520D02*
X49497460Y-95794520D01*
X68497460Y-100366520D02*
X68497460Y-101763520D01*
X68497460Y-95921520D02*
X68497460Y-94397520D01*
X67735460Y-96302520D02*
X69259460Y-96302520D01*
X67735460Y-96048520D02*
X69259460Y-96048520D01*
X68497460Y-95794520D02*
X69259460Y-95794520D01*
X69259460Y-95794520D02*
X69259460Y-100366520D01*
X69259460Y-100366520D02*
X67735460Y-100366520D01*
X67735460Y-100366520D02*
X67735460Y-95794520D01*
X67735460Y-95794520D02*
X68497460Y-95794520D01*
X86997460Y-100366520D02*
X86997460Y-101763520D01*
X86997460Y-95921520D02*
X86997460Y-94397520D01*
X86235460Y-96302520D02*
X87759460Y-96302520D01*
X86235460Y-96048520D02*
X87759460Y-96048520D01*
X86997460Y-95794520D02*
X87759460Y-95794520D01*
X87759460Y-95794520D02*
X87759460Y-100366520D01*
X87759460Y-100366520D02*
X86235460Y-100366520D01*
X86235460Y-100366520D02*
X86235460Y-95794520D01*
X86235460Y-95794520D02*
X86997460Y-95794520D01*
X105997460Y-100366520D02*
X105997460Y-101763520D01*
X105997460Y-95921520D02*
X105997460Y-94397520D01*
X105235460Y-96302520D02*
X106759460Y-96302520D01*
X105235460Y-96048520D02*
X106759460Y-96048520D01*
X105997460Y-95794520D02*
X106759460Y-95794520D01*
X106759460Y-95794520D02*
X106759460Y-100366520D01*
X106759460Y-100366520D02*
X105235460Y-100366520D01*
X105235460Y-100366520D02*
X105235460Y-95794520D01*
X105235460Y-95794520D02*
X105997460Y-95794520D01*
X108497460Y-100366520D02*
X108497460Y-101763520D01*
X108497460Y-95921520D02*
X108497460Y-94397520D01*
X107735460Y-96302520D02*
X109259460Y-96302520D01*
X107735460Y-96048520D02*
X109259460Y-96048520D01*
X108497460Y-95794520D02*
X109259460Y-95794520D01*
X109259460Y-95794520D02*
X109259460Y-100366520D01*
X109259460Y-100366520D02*
X107735460Y-100366520D01*
X107735460Y-100366520D02*
X107735460Y-95794520D01*
X107735460Y-95794520D02*
X108497460Y-95794520D01*
X143997460Y-100366520D02*
X143997460Y-101763520D01*
X143997460Y-95921520D02*
X143997460Y-94397520D01*
X143235460Y-96302520D02*
X144759460Y-96302520D01*
X143235460Y-96048520D02*
X144759460Y-96048520D01*
X143997460Y-95794520D02*
X144759460Y-95794520D01*
X144759460Y-95794520D02*
X144759460Y-100366520D01*
X144759460Y-100366520D02*
X143235460Y-100366520D01*
X143235460Y-100366520D02*
X143235460Y-95794520D01*
X143235460Y-95794520D02*
X143997460Y-95794520D01*
X146997460Y-100366520D02*
X146997460Y-101763520D01*
X146997460Y-95921520D02*
X146997460Y-94397520D01*
X146235460Y-96302520D02*
X147759460Y-96302520D01*
X146235460Y-96048520D02*
X147759460Y-96048520D01*
X146997460Y-95794520D02*
X147759460Y-95794520D01*
X147759460Y-95794520D02*
X147759460Y-100366520D01*
X147759460Y-100366520D02*
X146235460Y-100366520D01*
X146235460Y-100366520D02*
X146235460Y-95794520D01*
X146235460Y-95794520D02*
X146997460Y-95794520D01*
X181997460Y-100866520D02*
X181997460Y-102263520D01*
X181997460Y-96421520D02*
X181997460Y-94897520D01*
X181235460Y-96802520D02*
X182759460Y-96802520D01*
X181235460Y-96548520D02*
X182759460Y-96548520D01*
X181997460Y-96294520D02*
X182759460Y-96294520D01*
X182759460Y-96294520D02*
X182759460Y-100866520D01*
X182759460Y-100866520D02*
X181235460Y-100866520D01*
X181235460Y-100866520D02*
X181235460Y-96294520D01*
X181235460Y-96294520D02*
X181997460Y-96294520D01*
X184997460Y-100866520D02*
X184997460Y-102263520D01*
X184997460Y-96421520D02*
X184997460Y-94897520D01*
X184235460Y-96802520D02*
X185759460Y-96802520D01*
X184235460Y-96548520D02*
X185759460Y-96548520D01*
X184997460Y-96294520D02*
X185759460Y-96294520D01*
X185759460Y-96294520D02*
X185759460Y-100866520D01*
X185759460Y-100866520D02*
X184235460Y-100866520D01*
X184235460Y-100866520D02*
X184235460Y-96294520D01*
X184235460Y-96294520D02*
X184997460Y-96294520D01*
X184997460Y-81366520D02*
X184997460Y-82763520D01*
X184997460Y-76921520D02*
X184997460Y-75397520D01*
X184235460Y-77302520D02*
X185759460Y-77302520D01*
X184235460Y-77048520D02*
X185759460Y-77048520D01*
X184997460Y-76794520D02*
X185759460Y-76794520D01*
X185759460Y-76794520D02*
X185759460Y-81366520D01*
X185759460Y-81366520D02*
X184235460Y-81366520D01*
X184235460Y-81366520D02*
X184235460Y-76794520D01*
X184235460Y-76794520D02*
X184997460Y-76794520D01*
X222997460Y-81366520D02*
X222997460Y-82763520D01*
X222997460Y-76921520D02*
X222997460Y-75397520D01*
X222235460Y-77302520D02*
X223759460Y-77302520D01*
X222235460Y-77048520D02*
X223759460Y-77048520D01*
X222997460Y-76794520D02*
X223759460Y-76794520D01*
X223759460Y-76794520D02*
X223759460Y-81366520D01*
X223759460Y-81366520D02*
X222235460Y-81366520D01*
X222235460Y-81366520D02*
X222235460Y-76794520D01*
X222235460Y-76794520D02*
X222997460Y-76794520D01*
X203497460Y-81366520D02*
X203497460Y-82763520D01*
X203497460Y-76921520D02*
X203497460Y-75397520D01*
X202735460Y-77302520D02*
X204259460Y-77302520D01*
X202735460Y-77048520D02*
X204259460Y-77048520D01*
X203497460Y-76794520D02*
X204259460Y-76794520D01*
X204259460Y-76794520D02*
X204259460Y-81366520D01*
X204259460Y-81366520D02*
X202735460Y-81366520D01*
X202735460Y-81366520D02*
X202735460Y-76794520D01*
X202735460Y-76794520D02*
X203497460Y-76794520D01*
X203997460Y-100866520D02*
X203997460Y-102263520D01*
X203997460Y-96421520D02*
X203997460Y-94897520D01*
X203235460Y-96802520D02*
X204759460Y-96802520D01*
X203235460Y-96548520D02*
X204759460Y-96548520D01*
X203997460Y-96294520D02*
X204759460Y-96294520D01*
X204759460Y-96294520D02*
X204759460Y-100866520D01*
X204759460Y-100866520D02*
X203235460Y-100866520D01*
X203235460Y-100866520D02*
X203235460Y-96294520D01*
X203235460Y-96294520D02*
X203997460Y-96294520D01*
X222997460Y-100866520D02*
X222997460Y-102263520D01*
X222997460Y-96421520D02*
X222997460Y-94897520D01*
X222235460Y-96802520D02*
X223759460Y-96802520D01*
X222235460Y-96548520D02*
X223759460Y-96548520D01*
X222997460Y-96294520D02*
X223759460Y-96294520D01*
X223759460Y-96294520D02*
X223759460Y-100866520D01*
X223759460Y-100866520D02*
X222235460Y-100866520D01*
X222235460Y-100866520D02*
X222235460Y-96294520D01*
X222235460Y-96294520D02*
X222997460Y-96294520D01*
X260997460Y-100866520D02*
X260997460Y-102263520D01*
X260997460Y-96421520D02*
X260997460Y-94897520D01*
X260235460Y-96802520D02*
X261759460Y-96802520D01*
X260235460Y-96548520D02*
X261759460Y-96548520D01*
X260997460Y-96294520D02*
X261759460Y-96294520D01*
X261759460Y-96294520D02*
X261759460Y-100866520D01*
X261759460Y-100866520D02*
X260235460Y-100866520D01*
X260235460Y-100866520D02*
X260235460Y-96294520D01*
X260235460Y-96294520D02*
X260997460Y-96294520D01*
X241997460Y-100866520D02*
X241997460Y-102263520D01*
X241997460Y-96421520D02*
X241997460Y-94897520D01*
X241235460Y-96802520D02*
X242759460Y-96802520D01*
X241235460Y-96548520D02*
X242759460Y-96548520D01*
X241997460Y-96294520D02*
X242759460Y-96294520D01*
X242759460Y-96294520D02*
X242759460Y-100866520D01*
X242759460Y-100866520D02*
X241235460Y-100866520D01*
X241235460Y-100866520D02*
X241235460Y-96294520D01*
X241235460Y-96294520D02*
X241997460Y-96294520D01*
X241997460Y-81866520D02*
X241997460Y-83263520D01*
X241997460Y-77421520D02*
X241997460Y-75897520D01*
X241235460Y-77802520D02*
X242759460Y-77802520D01*
X241235460Y-77548520D02*
X242759460Y-77548520D01*
X241997460Y-77294520D02*
X242759460Y-77294520D01*
X242759460Y-77294520D02*
X242759460Y-81866520D01*
X242759460Y-81866520D02*
X241235460Y-81866520D01*
X241235460Y-81866520D02*
X241235460Y-77294520D01*
X241235460Y-77294520D02*
X241997460Y-77294520D01*
X260997460Y-81866520D02*
X260997460Y-83263520D01*
X260997460Y-77421520D02*
X260997460Y-75897520D01*
X260235460Y-77802520D02*
X261759460Y-77802520D01*
X260235460Y-77548520D02*
X261759460Y-77548520D01*
X260997460Y-77294520D02*
X261759460Y-77294520D01*
X261759460Y-77294520D02*
X261759460Y-81866520D01*
X261759460Y-81866520D02*
X260235460Y-81866520D01*
X260235460Y-81866520D02*
X260235460Y-77294520D01*
X260235460Y-77294520D02*
X260997460Y-77294520D01*
X260997460Y-61866520D02*
X260997460Y-63263520D01*
X260997460Y-57421520D02*
X260997460Y-55897520D01*
X260235460Y-57802520D02*
X261759460Y-57802520D01*
X260235460Y-57548520D02*
X261759460Y-57548520D01*
X260997460Y-57294520D02*
X261759460Y-57294520D01*
X261759460Y-57294520D02*
X261759460Y-61866520D01*
X261759460Y-61866520D02*
X260235460Y-61866520D01*
X260235460Y-61866520D02*
X260235460Y-57294520D01*
X260235460Y-57294520D02*
X260997460Y-57294520D01*
X241997460Y-61866520D02*
X241997460Y-63263520D01*
X241997460Y-57421520D02*
X241997460Y-55897520D01*
X241235460Y-57802520D02*
X242759460Y-57802520D01*
X241235460Y-57548520D02*
X242759460Y-57548520D01*
X241997460Y-57294520D02*
X242759460Y-57294520D01*
X242759460Y-57294520D02*
X242759460Y-61866520D01*
X242759460Y-61866520D02*
X241235460Y-61866520D01*
X241235460Y-61866520D02*
X241235460Y-57294520D01*
X241235460Y-57294520D02*
X241997460Y-57294520D01*
X222997460Y-62366520D02*
X222997460Y-63763520D01*
X222997460Y-57921520D02*
X222997460Y-56397520D01*
X222235460Y-58302520D02*
X223759460Y-58302520D01*
X222235460Y-58048520D02*
X223759460Y-58048520D01*
X222997460Y-57794520D02*
X223759460Y-57794520D01*
X223759460Y-57794520D02*
X223759460Y-62366520D01*
X223759460Y-62366520D02*
X222235460Y-62366520D01*
X222235460Y-62366520D02*
X222235460Y-57794520D01*
X222235460Y-57794520D02*
X222997460Y-57794520D01*
X203997460Y-61866520D02*
X203997460Y-63263520D01*
X203997460Y-57421520D02*
X203997460Y-55897520D01*
X203235460Y-57802520D02*
X204759460Y-57802520D01*
X203235460Y-57548520D02*
X204759460Y-57548520D01*
X203997460Y-57294520D02*
X204759460Y-57294520D01*
X204759460Y-57294520D02*
X204759460Y-61866520D01*
X204759460Y-61866520D02*
X203235460Y-61866520D01*
X203235460Y-61866520D02*
X203235460Y-57294520D01*
X203235460Y-57294520D02*
X203997460Y-57294520D01*
X184997460Y-64866520D02*
X184997460Y-66263520D01*
X184997460Y-60421520D02*
X184997460Y-58897520D01*
X184235460Y-60802520D02*
X185759460Y-60802520D01*
X184235460Y-60548520D02*
X185759460Y-60548520D01*
X184997460Y-60294520D02*
X185759460Y-60294520D01*
X185759460Y-60294520D02*
X185759460Y-64866520D01*
X185759460Y-64866520D02*
X184235460Y-64866520D01*
X184235460Y-64866520D02*
X184235460Y-60294520D01*
X184235460Y-60294520D02*
X184997460Y-60294520D01*
X165997460Y-61866520D02*
X165997460Y-63263520D01*
X165997460Y-57421520D02*
X165997460Y-55897520D01*
X165235460Y-57802520D02*
X166759460Y-57802520D01*
X165235460Y-57548520D02*
X166759460Y-57548520D01*
X165997460Y-57294520D02*
X166759460Y-57294520D01*
X166759460Y-57294520D02*
X166759460Y-61866520D01*
X166759460Y-61866520D02*
X165235460Y-61866520D01*
X165235460Y-61866520D02*
X165235460Y-57294520D01*
X165235460Y-57294520D02*
X165997460Y-57294520D01*
X159366520Y-68002540D02*
X160763520Y-68002540D01*
X154921520Y-68002540D02*
X153397520Y-68002540D01*
X155302520Y-68764540D02*
X155302520Y-67240540D01*
X155048520Y-68764540D02*
X155048520Y-67240540D01*
X154794520Y-68002540D02*
X154794520Y-67240540D01*
X154794520Y-67240540D02*
X159366520Y-67240540D01*
X159366520Y-67240540D02*
X159366520Y-68764540D01*
X159366520Y-68764540D02*
X154794520Y-68764540D01*
X154794520Y-68764540D02*
X154794520Y-68002540D01*
X133633480Y-67997460D02*
X132236480Y-67997460D01*
X138078480Y-67997460D02*
X139602480Y-67997460D01*
X137697480Y-67235460D02*
X137697480Y-68759460D01*
X137951480Y-67235460D02*
X137951480Y-68759460D01*
X138205480Y-67997460D02*
X138205480Y-68759460D01*
X138205480Y-68759460D02*
X133633480Y-68759460D01*
X133633480Y-68759460D02*
X133633480Y-67235460D01*
X133633480Y-67235460D02*
X138205480Y-67235460D01*
X138205480Y-67235460D02*
X138205480Y-67997460D01*
X125497460Y-62366520D02*
X125497460Y-63763520D01*
X125497460Y-57921520D02*
X125497460Y-56397520D01*
X124735460Y-58302520D02*
X126259460Y-58302520D01*
X124735460Y-58048520D02*
X126259460Y-58048520D01*
X125497460Y-57794520D02*
X126259460Y-57794520D01*
X126259460Y-57794520D02*
X126259460Y-62366520D01*
X126259460Y-62366520D02*
X124735460Y-62366520D01*
X124735460Y-62366520D02*
X124735460Y-57794520D01*
X124735460Y-57794520D02*
X125497460Y-57794520D01*
X105997460Y-62366520D02*
X105997460Y-63763520D01*
X105997460Y-57921520D02*
X105997460Y-56397520D01*
X105235460Y-58302520D02*
X106759460Y-58302520D01*
X105235460Y-58048520D02*
X106759460Y-58048520D01*
X105997460Y-57794520D02*
X106759460Y-57794520D01*
X106759460Y-57794520D02*
X106759460Y-62366520D01*
X106759460Y-62366520D02*
X105235460Y-62366520D01*
X105235460Y-62366520D02*
X105235460Y-57794520D01*
X105235460Y-57794520D02*
X105997460Y-57794520D01*
X86997460Y-62366520D02*
X86997460Y-63763520D01*
X86997460Y-57921520D02*
X86997460Y-56397520D01*
X86235460Y-58302520D02*
X87759460Y-58302520D01*
X86235460Y-58048520D02*
X87759460Y-58048520D01*
X86997460Y-57794520D02*
X87759460Y-57794520D01*
X87759460Y-57794520D02*
X87759460Y-62366520D01*
X87759460Y-62366520D02*
X86235460Y-62366520D01*
X86235460Y-62366520D02*
X86235460Y-57794520D01*
X86235460Y-57794520D02*
X86997460Y-57794520D01*
X67997460Y-62366520D02*
X67997460Y-63763520D01*
X67997460Y-57921520D02*
X67997460Y-56397520D01*
X67235460Y-58302520D02*
X68759460Y-58302520D01*
X67235460Y-58048520D02*
X68759460Y-58048520D01*
X67997460Y-57794520D02*
X68759460Y-57794520D01*
X68759460Y-57794520D02*
X68759460Y-62366520D01*
X68759460Y-62366520D02*
X67235460Y-62366520D01*
X67235460Y-62366520D02*
X67235460Y-57794520D01*
X67235460Y-57794520D02*
X67997460Y-57794520D01*
X49497460Y-62366520D02*
X49497460Y-63763520D01*
X49497460Y-57921520D02*
X49497460Y-56397520D01*
X48735460Y-58302520D02*
X50259460Y-58302520D01*
X48735460Y-58048520D02*
X50259460Y-58048520D01*
X49497460Y-57794520D02*
X50259460Y-57794520D01*
X50259460Y-57794520D02*
X50259460Y-62366520D01*
X50259460Y-62366520D02*
X48735460Y-62366520D01*
X48735460Y-62366520D02*
X48735460Y-57794520D01*
X48735460Y-57794520D02*
X49497460Y-57794520D01*
X30497460Y-62866520D02*
X30497460Y-64263520D01*
X30497460Y-58421520D02*
X30497460Y-56897520D01*
X29735460Y-58802520D02*
X31259460Y-58802520D01*
X29735460Y-58548520D02*
X31259460Y-58548520D01*
X30497460Y-58294520D02*
X31259460Y-58294520D01*
X31259460Y-58294520D02*
X31259460Y-62866520D01*
X31259460Y-62866520D02*
X29735460Y-62866520D01*
X29735460Y-62866520D02*
X29735460Y-58294520D01*
X29735460Y-58294520D02*
X30497460Y-58294520D01*
X30172460Y-43241520D02*
X30172460Y-44638520D01*
X30172460Y-38796520D02*
X30172460Y-37272520D01*
X29410460Y-39177520D02*
X30934460Y-39177520D01*
X29410460Y-38923520D02*
X30934460Y-38923520D01*
X30172460Y-38669520D02*
X30934460Y-38669520D01*
X30934460Y-38669520D02*
X30934460Y-43241520D01*
X30934460Y-43241520D02*
X29410460Y-43241520D01*
X29410460Y-43241520D02*
X29410460Y-38669520D01*
X29410460Y-38669520D02*
X30172460Y-38669520D01*
X49222460Y-43241520D02*
X49222460Y-44638520D01*
X49222460Y-38796520D02*
X49222460Y-37272520D01*
X48460460Y-39177520D02*
X49984460Y-39177520D01*
X48460460Y-38923520D02*
X49984460Y-38923520D01*
X49222460Y-38669520D02*
X49984460Y-38669520D01*
X49984460Y-38669520D02*
X49984460Y-43241520D01*
X49984460Y-43241520D02*
X48460460Y-43241520D01*
X48460460Y-43241520D02*
X48460460Y-38669520D01*
X48460460Y-38669520D02*
X49222460Y-38669520D01*
X68222460Y-43241520D02*
X68222460Y-44638520D01*
X68222460Y-38796520D02*
X68222460Y-37272520D01*
X67460460Y-39177520D02*
X68984460Y-39177520D01*
X67460460Y-38923520D02*
X68984460Y-38923520D01*
X68222460Y-38669520D02*
X68984460Y-38669520D01*
X68984460Y-38669520D02*
X68984460Y-43241520D01*
X68984460Y-43241520D02*
X67460460Y-43241520D01*
X67460460Y-43241520D02*
X67460460Y-38669520D01*
X67460460Y-38669520D02*
X68222460Y-38669520D01*
X86997460Y-43191520D02*
X86997460Y-44588520D01*
X86997460Y-38746520D02*
X86997460Y-37222520D01*
X86235460Y-39127520D02*
X87759460Y-39127520D01*
X86235460Y-38873520D02*
X87759460Y-38873520D01*
X86997460Y-38619520D02*
X87759460Y-38619520D01*
X87759460Y-38619520D02*
X87759460Y-43191520D01*
X87759460Y-43191520D02*
X86235460Y-43191520D01*
X86235460Y-43191520D02*
X86235460Y-38619520D01*
X86235460Y-38619520D02*
X86997460Y-38619520D01*
X106222460Y-43141520D02*
X106222460Y-44538520D01*
X106222460Y-38696520D02*
X106222460Y-37172520D01*
X105460460Y-39077520D02*
X106984460Y-39077520D01*
X105460460Y-38823520D02*
X106984460Y-38823520D01*
X106222460Y-38569520D02*
X106984460Y-38569520D01*
X106984460Y-38569520D02*
X106984460Y-43141520D01*
X106984460Y-43141520D02*
X105460460Y-43141520D01*
X105460460Y-43141520D02*
X105460460Y-38569520D01*
X105460460Y-38569520D02*
X106222460Y-38569520D01*
X125172460Y-43191520D02*
X125172460Y-44588520D01*
X125172460Y-38746520D02*
X125172460Y-37222520D01*
X124410460Y-39127520D02*
X125934460Y-39127520D01*
X124410460Y-38873520D02*
X125934460Y-38873520D01*
X125172460Y-38619520D02*
X125934460Y-38619520D01*
X125934460Y-38619520D02*
X125934460Y-43191520D01*
X125934460Y-43191520D02*
X124410460Y-43191520D01*
X124410460Y-43191520D02*
X124410460Y-38619520D01*
X124410460Y-38619520D02*
X125172460Y-38619520D01*
X127897460Y-43191520D02*
X127897460Y-44588520D01*
X127897460Y-38746520D02*
X127897460Y-37222520D01*
X127135460Y-39127520D02*
X128659460Y-39127520D01*
X127135460Y-38873520D02*
X128659460Y-38873520D01*
X127897460Y-38619520D02*
X128659460Y-38619520D01*
X128659460Y-38619520D02*
X128659460Y-43191520D01*
X128659460Y-43191520D02*
X127135460Y-43191520D01*
X127135460Y-43191520D02*
X127135460Y-38619520D01*
X127135460Y-38619520D02*
X127897460Y-38619520D01*
X163222460Y-43191520D02*
X163222460Y-44588520D01*
X163222460Y-38746520D02*
X163222460Y-37222520D01*
X162460460Y-39127520D02*
X163984460Y-39127520D01*
X162460460Y-38873520D02*
X163984460Y-38873520D01*
X163222460Y-38619520D02*
X163984460Y-38619520D01*
X163984460Y-38619520D02*
X163984460Y-43191520D01*
X163984460Y-43191520D02*
X162460460Y-43191520D01*
X162460460Y-43191520D02*
X162460460Y-38619520D01*
X162460460Y-38619520D02*
X163222460Y-38619520D01*
X165897460Y-43241520D02*
X165897460Y-44638520D01*
X165897460Y-38796520D02*
X165897460Y-37272520D01*
X165135460Y-39177520D02*
X166659460Y-39177520D01*
X165135460Y-38923520D02*
X166659460Y-38923520D01*
X165897460Y-38669520D02*
X166659460Y-38669520D01*
X166659460Y-38669520D02*
X166659460Y-43241520D01*
X166659460Y-43241520D02*
X165135460Y-43241520D01*
X165135460Y-43241520D02*
X165135460Y-38669520D01*
X165135460Y-38669520D02*
X165897460Y-38669520D01*
X184997460Y-38366520D02*
X184997460Y-39763520D01*
X184997460Y-33921520D02*
X184997460Y-32397520D01*
X184235460Y-34302520D02*
X185759460Y-34302520D01*
X184235460Y-34048520D02*
X185759460Y-34048520D01*
X184997460Y-33794520D02*
X185759460Y-33794520D01*
X185759460Y-33794520D02*
X185759460Y-38366520D01*
X185759460Y-38366520D02*
X184235460Y-38366520D01*
X184235460Y-38366520D02*
X184235460Y-33794520D01*
X184235460Y-33794520D02*
X184997460Y-33794520D01*
X203897460Y-43191520D02*
X203897460Y-44588520D01*
X203897460Y-38746520D02*
X203897460Y-37222520D01*
X203135460Y-39127520D02*
X204659460Y-39127520D01*
X203135460Y-38873520D02*
X204659460Y-38873520D01*
X203897460Y-38619520D02*
X204659460Y-38619520D01*
X204659460Y-38619520D02*
X204659460Y-43191520D01*
X204659460Y-43191520D02*
X203135460Y-43191520D01*
X203135460Y-43191520D02*
X203135460Y-38619520D01*
X203135460Y-38619520D02*
X203897460Y-38619520D01*
X222897460Y-43241520D02*
X222897460Y-44638520D01*
X222897460Y-38796520D02*
X222897460Y-37272520D01*
X222135460Y-39177520D02*
X223659460Y-39177520D01*
X222135460Y-38923520D02*
X223659460Y-38923520D01*
X222897460Y-38669520D02*
X223659460Y-38669520D01*
X223659460Y-38669520D02*
X223659460Y-43241520D01*
X223659460Y-43241520D02*
X222135460Y-43241520D01*
X222135460Y-43241520D02*
X222135460Y-38669520D01*
X222135460Y-38669520D02*
X222897460Y-38669520D01*
X241897460Y-43241520D02*
X241897460Y-44638520D01*
X241897460Y-38796520D02*
X241897460Y-37272520D01*
X241135460Y-39177520D02*
X242659460Y-39177520D01*
X241135460Y-38923520D02*
X242659460Y-38923520D01*
X241897460Y-38669520D02*
X242659460Y-38669520D01*
X242659460Y-38669520D02*
X242659460Y-43241520D01*
X242659460Y-43241520D02*
X241135460Y-43241520D01*
X241135460Y-43241520D02*
X241135460Y-38669520D01*
X241135460Y-38669520D02*
X241897460Y-38669520D01*
X260997460Y-43416520D02*
X260997460Y-44813520D01*
X260997460Y-38971520D02*
X260997460Y-37447520D01*
X260235460Y-39352520D02*
X261759460Y-39352520D01*
X260235460Y-39098520D02*
X261759460Y-39098520D01*
X260997460Y-38844520D02*
X261759460Y-38844520D01*
X261759460Y-38844520D02*
X261759460Y-43416520D01*
X261759460Y-43416520D02*
X260235460Y-43416520D01*
X260235460Y-43416520D02*
X260235460Y-38844520D01*
X260235460Y-38844520D02*
X260997460Y-38844520D01*
X260972460Y-24216520D02*
X260972460Y-25613520D01*
X260972460Y-19771520D02*
X260972460Y-18247520D01*
X260210460Y-20152520D02*
X261734460Y-20152520D01*
X260210460Y-19898520D02*
X261734460Y-19898520D01*
X260972460Y-19644520D02*
X261734460Y-19644520D01*
X261734460Y-19644520D02*
X261734460Y-24216520D01*
X261734460Y-24216520D02*
X260210460Y-24216520D01*
X260210460Y-24216520D02*
X260210460Y-19644520D01*
X260210460Y-19644520D02*
X260972460Y-19644520D01*
X241997460Y-24216520D02*
X241997460Y-25613520D01*
X241997460Y-19771520D02*
X241997460Y-18247520D01*
X241235460Y-20152520D02*
X242759460Y-20152520D01*
X241235460Y-19898520D02*
X242759460Y-19898520D01*
X241997460Y-19644520D02*
X242759460Y-19644520D01*
X242759460Y-19644520D02*
X242759460Y-24216520D01*
X242759460Y-24216520D02*
X241235460Y-24216520D01*
X241235460Y-24216520D02*
X241235460Y-19644520D01*
X241235460Y-19644520D02*
X241997460Y-19644520D01*
X222997460Y-24141520D02*
X222997460Y-25538520D01*
X222997460Y-19696520D02*
X222997460Y-18172520D01*
X222235460Y-20077520D02*
X223759460Y-20077520D01*
X222235460Y-19823520D02*
X223759460Y-19823520D01*
X222997460Y-19569520D02*
X223759460Y-19569520D01*
X223759460Y-19569520D02*
X223759460Y-24141520D01*
X223759460Y-24141520D02*
X222235460Y-24141520D01*
X222235460Y-24141520D02*
X222235460Y-19569520D01*
X222235460Y-19569520D02*
X222997460Y-19569520D01*
X203872460Y-24141520D02*
X203872460Y-25538520D01*
X203872460Y-19696520D02*
X203872460Y-18172520D01*
X203110460Y-20077520D02*
X204634460Y-20077520D01*
X203110460Y-19823520D02*
X204634460Y-19823520D01*
X203872460Y-19569520D02*
X204634460Y-19569520D01*
X204634460Y-19569520D02*
X204634460Y-24141520D01*
X204634460Y-24141520D02*
X203110460Y-24141520D01*
X203110460Y-24141520D02*
X203110460Y-19569520D01*
X203110460Y-19569520D02*
X203872460Y-19569520D01*
X185022460Y-24166520D02*
X185022460Y-25563520D01*
X185022460Y-19721520D02*
X185022460Y-18197520D01*
X184260460Y-20102520D02*
X185784460Y-20102520D01*
X184260460Y-19848520D02*
X185784460Y-19848520D01*
X185022460Y-19594520D02*
X185784460Y-19594520D01*
X185784460Y-19594520D02*
X185784460Y-24166520D01*
X185784460Y-24166520D02*
X184260460Y-24166520D01*
X184260460Y-24166520D02*
X184260460Y-19594520D01*
X184260460Y-19594520D02*
X185022460Y-19594520D01*
X165997460Y-24141520D02*
X165997460Y-25538520D01*
X165997460Y-19696520D02*
X165997460Y-18172520D01*
X165235460Y-20077520D02*
X166759460Y-20077520D01*
X165235460Y-19823520D02*
X166759460Y-19823520D01*
X165997460Y-19569520D02*
X166759460Y-19569520D01*
X166759460Y-19569520D02*
X166759460Y-24141520D01*
X166759460Y-24141520D02*
X165235460Y-24141520D01*
X165235460Y-24141520D02*
X165235460Y-19569520D01*
X165235460Y-19569520D02*
X165997460Y-19569520D01*
X163247460Y-24141520D02*
X163247460Y-25538520D01*
X163247460Y-19696520D02*
X163247460Y-18172520D01*
X162485460Y-20077520D02*
X164009460Y-20077520D01*
X162485460Y-19823520D02*
X164009460Y-19823520D01*
X163247460Y-19569520D02*
X164009460Y-19569520D01*
X164009460Y-19569520D02*
X164009460Y-24141520D01*
X164009460Y-24141520D02*
X162485460Y-24141520D01*
X162485460Y-24141520D02*
X162485460Y-19569520D01*
X162485460Y-19569520D02*
X163247460Y-19569520D01*
X128022460Y-24266520D02*
X128022460Y-25663520D01*
X128022460Y-19821520D02*
X128022460Y-18297520D01*
X127260460Y-20202520D02*
X128784460Y-20202520D01*
X127260460Y-19948520D02*
X128784460Y-19948520D01*
X128022460Y-19694520D02*
X128784460Y-19694520D01*
X128784460Y-19694520D02*
X128784460Y-24266520D01*
X128784460Y-24266520D02*
X127260460Y-24266520D01*
X127260460Y-24266520D02*
X127260460Y-19694520D01*
X127260460Y-19694520D02*
X128022460Y-19694520D01*
X125472460Y-24241520D02*
X125472460Y-25638520D01*
X125472460Y-19796520D02*
X125472460Y-18272520D01*
X124710460Y-20177520D02*
X126234460Y-20177520D01*
X124710460Y-19923520D02*
X126234460Y-19923520D01*
X125472460Y-19669520D02*
X126234460Y-19669520D01*
X126234460Y-19669520D02*
X126234460Y-24241520D01*
X126234460Y-24241520D02*
X124710460Y-24241520D01*
X124710460Y-24241520D02*
X124710460Y-19669520D01*
X124710460Y-19669520D02*
X125472460Y-19669520D01*
X106497460Y-24291520D02*
X106497460Y-25688520D01*
X106497460Y-19846520D02*
X106497460Y-18322520D01*
X105735460Y-20227520D02*
X107259460Y-20227520D01*
X105735460Y-19973520D02*
X107259460Y-19973520D01*
X106497460Y-19719520D02*
X107259460Y-19719520D01*
X107259460Y-19719520D02*
X107259460Y-24291520D01*
X107259460Y-24291520D02*
X105735460Y-24291520D01*
X105735460Y-24291520D02*
X105735460Y-19719520D01*
X105735460Y-19719520D02*
X106497460Y-19719520D01*
X87497460Y-24241520D02*
X87497460Y-25638520D01*
X87497460Y-19796520D02*
X87497460Y-18272520D01*
X86735460Y-20177520D02*
X88259460Y-20177520D01*
X86735460Y-19923520D02*
X88259460Y-19923520D01*
X87497460Y-19669520D02*
X88259460Y-19669520D01*
X88259460Y-19669520D02*
X88259460Y-24241520D01*
X88259460Y-24241520D02*
X86735460Y-24241520D01*
X86735460Y-24241520D02*
X86735460Y-19669520D01*
X86735460Y-19669520D02*
X87497460Y-19669520D01*
X67972460Y-24291520D02*
X67972460Y-25688520D01*
X67972460Y-19846520D02*
X67972460Y-18322520D01*
X67210460Y-20227520D02*
X68734460Y-20227520D01*
X67210460Y-19973520D02*
X68734460Y-19973520D01*
X67972460Y-19719520D02*
X68734460Y-19719520D01*
X68734460Y-19719520D02*
X68734460Y-24291520D01*
X68734460Y-24291520D02*
X67210460Y-24291520D01*
X67210460Y-24291520D02*
X67210460Y-19719520D01*
X67210460Y-19719520D02*
X67972460Y-19719520D01*
X49247460Y-24291520D02*
X49247460Y-25688520D01*
X49247460Y-19846520D02*
X49247460Y-18322520D01*
X48485460Y-20227520D02*
X50009460Y-20227520D01*
X48485460Y-19973520D02*
X50009460Y-19973520D01*
X49247460Y-19719520D02*
X50009460Y-19719520D01*
X50009460Y-19719520D02*
X50009460Y-24291520D01*
X50009460Y-24291520D02*
X48485460Y-24291520D01*
X48485460Y-24291520D02*
X48485460Y-19719520D01*
X48485460Y-19719520D02*
X49247460Y-19719520D01*
X133000000Y-25850000D02*
X132000000Y-25850000D01*
X132000000Y-24150000D02*
X133000000Y-24150000D01*
X152875000Y-26600000D02*
X152875000Y-25400000D01*
X151125000Y-25400000D02*
X151125000Y-26600000D01*
X142149360Y-7400820D02*
X149850640Y-7400820D01*
X142149360Y-6400060D02*
X149850640Y-6400060D01*
X149850640Y-6400060D02*
X149850640Y-15599940D01*
X149850640Y-15599940D02*
X142149360Y-15599940D01*
X142149360Y-15599940D02*
X142149360Y-6400060D01*
X149374900Y-52997580D02*
X149374900Y-52499740D01*
X149374900Y-52499740D02*
X149623820Y-52499740D01*
X149623820Y-52997580D02*
X149623820Y-52499740D01*
X149374900Y-52997580D02*
X149623820Y-52997580D01*
X148874520Y-52997580D02*
X148874520Y-52499740D01*
X148874520Y-52499740D02*
X149123440Y-52499740D01*
X149123440Y-52997580D02*
X149123440Y-52499740D01*
X148874520Y-52997580D02*
X149123440Y-52997580D01*
X148374140Y-52997580D02*
X148374140Y-52499740D01*
X148374140Y-52499740D02*
X148623060Y-52499740D01*
X148623060Y-52997580D02*
X148623060Y-52499740D01*
X148374140Y-52997580D02*
X148623060Y-52997580D01*
X147873760Y-52997580D02*
X147873760Y-52499740D01*
X147873760Y-52499740D02*
X148122680Y-52499740D01*
X148122680Y-52997580D02*
X148122680Y-52499740D01*
X147873760Y-52997580D02*
X148122680Y-52997580D01*
X147373380Y-52997580D02*
X147373380Y-52499740D01*
X147373380Y-52499740D02*
X147624840Y-52499740D01*
X147624840Y-52997580D02*
X147624840Y-52499740D01*
X147373380Y-52997580D02*
X147624840Y-52997580D01*
X146875540Y-52997580D02*
X146875540Y-52499740D01*
X146875540Y-52499740D02*
X147124460Y-52499740D01*
X147124460Y-52997580D02*
X147124460Y-52499740D01*
X146875540Y-52997580D02*
X147124460Y-52997580D01*
X146375160Y-52997580D02*
X146375160Y-52499740D01*
X146375160Y-52499740D02*
X146626620Y-52499740D01*
X146626620Y-52997580D02*
X146626620Y-52499740D01*
X146375160Y-52997580D02*
X146626620Y-52997580D01*
X145877320Y-52997580D02*
X145877320Y-52499740D01*
X145877320Y-52499740D02*
X146126240Y-52499740D01*
X146126240Y-52997580D02*
X146126240Y-52499740D01*
X145877320Y-52997580D02*
X146126240Y-52997580D01*
X145376940Y-52997580D02*
X145376940Y-52499740D01*
X145376940Y-52499740D02*
X145625860Y-52499740D01*
X145625860Y-52997580D02*
X145625860Y-52499740D01*
X145376940Y-52997580D02*
X145625860Y-52997580D01*
X144876560Y-52997580D02*
X144876560Y-52499740D01*
X144876560Y-52499740D02*
X145125480Y-52499740D01*
X145125480Y-52997580D02*
X145125480Y-52499740D01*
X144876560Y-52997580D02*
X145125480Y-52997580D01*
X144376180Y-52997580D02*
X144376180Y-52499740D01*
X144376180Y-52499740D02*
X144625100Y-52499740D01*
X144625100Y-52997580D02*
X144625100Y-52499740D01*
X144376180Y-52997580D02*
X144625100Y-52997580D01*
X143502420Y-52123820D02*
X143502420Y-51874900D01*
X143502420Y-51874900D02*
X144000260Y-51874900D01*
X144000260Y-52123820D02*
X144000260Y-51874900D01*
X143502420Y-52123820D02*
X144000260Y-52123820D01*
X143502420Y-51623440D02*
X143502420Y-51374520D01*
X143502420Y-51374520D02*
X144000260Y-51374520D01*
X144000260Y-51623440D02*
X144000260Y-51374520D01*
X143502420Y-51623440D02*
X144000260Y-51623440D01*
X143502420Y-51123060D02*
X143502420Y-50874140D01*
X143502420Y-50874140D02*
X144000260Y-50874140D01*
X144000260Y-51123060D02*
X144000260Y-50874140D01*
X143502420Y-51123060D02*
X144000260Y-51123060D01*
X143502420Y-50622680D02*
X143502420Y-50373760D01*
X143502420Y-50373760D02*
X144000260Y-50373760D01*
X144000260Y-50622680D02*
X144000260Y-50373760D01*
X143502420Y-50622680D02*
X144000260Y-50622680D01*
X143502420Y-50124840D02*
X143502420Y-49873380D01*
X143502420Y-49873380D02*
X144000260Y-49873380D01*
X144000260Y-50124840D02*
X144000260Y-49873380D01*
X143502420Y-50124840D02*
X144000260Y-50124840D01*
X143502420Y-49624460D02*
X143502420Y-49375540D01*
X143502420Y-49375540D02*
X144000260Y-49375540D01*
X144000260Y-49624460D02*
X144000260Y-49375540D01*
X143502420Y-49624460D02*
X144000260Y-49624460D01*
X143502420Y-49126620D02*
X143502420Y-48875160D01*
X143502420Y-48875160D02*
X144000260Y-48875160D01*
X144000260Y-49126620D02*
X144000260Y-48875160D01*
X143502420Y-49126620D02*
X144000260Y-49126620D01*
X143502420Y-48626240D02*
X143502420Y-48377320D01*
X143502420Y-48377320D02*
X144000260Y-48377320D01*
X144000260Y-48626240D02*
X144000260Y-48377320D01*
X143502420Y-48626240D02*
X144000260Y-48626240D01*
X143502420Y-48125860D02*
X143502420Y-47876940D01*
X143502420Y-47876940D02*
X144000260Y-47876940D01*
X144000260Y-48125860D02*
X144000260Y-47876940D01*
X143502420Y-48125860D02*
X144000260Y-48125860D01*
X143502420Y-47625480D02*
X143502420Y-47376560D01*
X143502420Y-47376560D02*
X144000260Y-47376560D01*
X144000260Y-47625480D02*
X144000260Y-47376560D01*
X143502420Y-47625480D02*
X144000260Y-47625480D01*
X143502420Y-47125100D02*
X143502420Y-46876180D01*
X143502420Y-46876180D02*
X144000260Y-46876180D01*
X144000260Y-47125100D02*
X144000260Y-46876180D01*
X143502420Y-47125100D02*
X144000260Y-47125100D01*
X144376180Y-46500260D02*
X144376180Y-46002420D01*
X144376180Y-46002420D02*
X144625100Y-46002420D01*
X144625100Y-46500260D02*
X144625100Y-46002420D01*
X144376180Y-46500260D02*
X144625100Y-46500260D01*
X144876560Y-46500260D02*
X144876560Y-46002420D01*
X144876560Y-46002420D02*
X145125480Y-46002420D01*
X145125480Y-46500260D02*
X145125480Y-46002420D01*
X144876560Y-46500260D02*
X145125480Y-46500260D01*
X145376940Y-46500260D02*
X145376940Y-46002420D01*
X145376940Y-46002420D02*
X145625860Y-46002420D01*
X145625860Y-46500260D02*
X145625860Y-46002420D01*
X145376940Y-46500260D02*
X145625860Y-46500260D01*
X145877320Y-46500260D02*
X145877320Y-46002420D01*
X145877320Y-46002420D02*
X146126240Y-46002420D01*
X146126240Y-46500260D02*
X146126240Y-46002420D01*
X145877320Y-46500260D02*
X146126240Y-46500260D01*
X146375160Y-46500260D02*
X146375160Y-46002420D01*
X146375160Y-46002420D02*
X146626620Y-46002420D01*
X146626620Y-46500260D02*
X146626620Y-46002420D01*
X146375160Y-46500260D02*
X146626620Y-46500260D01*
X146875540Y-46500260D02*
X146875540Y-46002420D01*
X146875540Y-46002420D02*
X147124460Y-46002420D01*
X147124460Y-46500260D02*
X147124460Y-46002420D01*
X146875540Y-46500260D02*
X147124460Y-46500260D01*
X147373380Y-46500260D02*
X147373380Y-46002420D01*
X147373380Y-46002420D02*
X147624840Y-46002420D01*
X147624840Y-46500260D02*
X147624840Y-46002420D01*
X147373380Y-46500260D02*
X147624840Y-46500260D01*
X147873760Y-46500260D02*
X147873760Y-46002420D01*
X147873760Y-46002420D02*
X148122680Y-46002420D01*
X148122680Y-46500260D02*
X148122680Y-46002420D01*
X147873760Y-46500260D02*
X148122680Y-46500260D01*
X148374140Y-46500260D02*
X148374140Y-46002420D01*
X148374140Y-46002420D02*
X148623060Y-46002420D01*
X148623060Y-46500260D02*
X148623060Y-46002420D01*
X148374140Y-46500260D02*
X148623060Y-46500260D01*
X148874520Y-46500260D02*
X148874520Y-46002420D01*
X148874520Y-46002420D02*
X149123440Y-46002420D01*
X149123440Y-46500260D02*
X149123440Y-46002420D01*
X148874520Y-46500260D02*
X149123440Y-46500260D01*
X149374900Y-46500260D02*
X149374900Y-46002420D01*
X149374900Y-46002420D02*
X149623820Y-46002420D01*
X149623820Y-46500260D02*
X149623820Y-46002420D01*
X149374900Y-46500260D02*
X149623820Y-46500260D01*
X149999740Y-47125100D02*
X149999740Y-46876180D01*
X149999740Y-46876180D02*
X150497580Y-46876180D01*
X150497580Y-47125100D02*
X150497580Y-46876180D01*
X149999740Y-47125100D02*
X150497580Y-47125100D01*
X149999740Y-47625480D02*
X149999740Y-47376560D01*
X149999740Y-47376560D02*
X150497580Y-47376560D01*
X150497580Y-47625480D02*
X150497580Y-47376560D01*
X149999740Y-47625480D02*
X150497580Y-47625480D01*
X149999740Y-48125860D02*
X149999740Y-47876940D01*
X149999740Y-47876940D02*
X150497580Y-47876940D01*
X150497580Y-48125860D02*
X150497580Y-47876940D01*
X149999740Y-48125860D02*
X150497580Y-48125860D01*
X149999740Y-48626240D02*
X149999740Y-48377320D01*
X149999740Y-48377320D02*
X150497580Y-48377320D01*
X150497580Y-48626240D02*
X150497580Y-48377320D01*
X149999740Y-48626240D02*
X150497580Y-48626240D01*
X149999740Y-49126620D02*
X149999740Y-48875160D01*
X149999740Y-48875160D02*
X150497580Y-48875160D01*
X150497580Y-49126620D02*
X150497580Y-48875160D01*
X149999740Y-49126620D02*
X150497580Y-49126620D01*
X149999740Y-49624460D02*
X149999740Y-49375540D01*
X149999740Y-49375540D02*
X150497580Y-49375540D01*
X150497580Y-49624460D02*
X150497580Y-49375540D01*
X149999740Y-49624460D02*
X150497580Y-49624460D01*
X149999740Y-50124840D02*
X149999740Y-49873380D01*
X149999740Y-49873380D02*
X150497580Y-49873380D01*
X150497580Y-50124840D02*
X150497580Y-49873380D01*
X149999740Y-50124840D02*
X150497580Y-50124840D01*
X149999740Y-50622680D02*
X149999740Y-50373760D01*
X149999740Y-50373760D02*
X150497580Y-50373760D01*
X150497580Y-50622680D02*
X150497580Y-50373760D01*
X149999740Y-50622680D02*
X150497580Y-50622680D01*
X149999740Y-51123060D02*
X149999740Y-50874140D01*
X149999740Y-50874140D02*
X150497580Y-50874140D01*
X150497580Y-51123060D02*
X150497580Y-50874140D01*
X149999740Y-51123060D02*
X150497580Y-51123060D01*
X149999740Y-51623440D02*
X149999740Y-51374520D01*
X149999740Y-51374520D02*
X150497580Y-51374520D01*
X150497580Y-51623440D02*
X150497580Y-51374520D01*
X149999740Y-51623440D02*
X150497580Y-51623440D01*
X149999740Y-52123820D02*
X149999740Y-51874900D01*
X149999740Y-51874900D02*
X150497580Y-51874900D01*
X150497580Y-52123820D02*
X150497580Y-51874900D01*
X149999740Y-52123820D02*
X150497580Y-52123820D01*
X149799080Y-52898520D02*
X150398520Y-52299080D01*
X150398520Y-52299080D02*
X150398520Y-46700920D01*
X150398520Y-46700920D02*
X149799080Y-46101480D01*
X149799080Y-46101480D02*
X144200920Y-46101480D01*
X144200920Y-46101480D02*
X143601480Y-46700920D01*
X143601480Y-46700920D02*
X143601480Y-52299080D01*
X143601480Y-52299080D02*
X144200920Y-52898520D01*
X144200920Y-52898520D02*
X149799080Y-52898520D01*
X149606071Y-52001900D02*
G75*
G03X149606071Y-52001900I-104171J0D01*
G01*
X150875000Y-26600000D02*
X150875000Y-25400000D01*
X149125000Y-25400000D02*
X149125000Y-26600000D01*
X116200000Y-55100000D02*
X115900000Y-55100000D01*
X116200000Y-49900000D02*
X115900000Y-49900000D01*
X112800000Y-49900000D02*
X113100000Y-49900000D01*
X112800000Y-55100000D02*
X113100000Y-55100000D01*
X112800000Y-49900000D02*
X112800000Y-55100000D01*
X116200000Y-49900000D02*
X116200000Y-55100000D01*
X133000000Y-27850000D02*
X132000000Y-27850000D01*
X132000000Y-26150000D02*
X133000000Y-26150000D01*
X30322460Y-24291520D02*
X30322460Y-25688520D01*
X30322460Y-19846520D02*
X30322460Y-18322520D01*
X29560460Y-20227520D02*
X31084460Y-20227520D01*
X29560460Y-19973520D02*
X31084460Y-19973520D01*
X30322460Y-19719520D02*
X31084460Y-19719520D01*
X31084460Y-19719520D02*
X31084460Y-24291520D01*
X31084460Y-24291520D02*
X29560460Y-24291520D01*
X29560460Y-24291520D02*
X29560460Y-19719520D01*
X29560460Y-19719520D02*
X30322460Y-19719520D01*
X118800714Y-66250000D02*
G75*
G03X118800714Y-66250000I-1750714J0D01*
G01*
X120275000Y-69475000D02*
X120275000Y-69350000D01*
X120275000Y-63025000D02*
X120275000Y-63150000D01*
X113825000Y-63025000D02*
X113825000Y-63150000D01*
X113825000Y-69350000D02*
X113825000Y-69475000D01*
X120275000Y-67650000D02*
X120275000Y-64850000D01*
X113825000Y-69475000D02*
X120275000Y-69475000D01*
X113825000Y-67650000D02*
X113825000Y-64850000D01*
X113825000Y-63025000D02*
X120275000Y-63025000D01*
X142666666Y-62757143D02*
X142714285Y-62804762D01*
X142857142Y-62852381D01*
X142952380Y-62852381D01*
X143095238Y-62804762D01*
X143190476Y-62709524D01*
X143238095Y-62614286D01*
X143285714Y-62423810D01*
X143285714Y-62280952D01*
X143238095Y-62090476D01*
X143190476Y-61995238D01*
X143095238Y-61900000D01*
X142952380Y-61852381D01*
X142857142Y-61852381D01*
X142714285Y-61900000D01*
X142666666Y-61947619D01*
X142333333Y-61852381D02*
X141666666Y-61852381D01*
X142095238Y-62852381D01*
X140166666Y-23257143D02*
X140214285Y-23304762D01*
X140357142Y-23352381D01*
X140452380Y-23352381D01*
X140595238Y-23304762D01*
X140690476Y-23209524D01*
X140738095Y-23114286D01*
X140785714Y-22923810D01*
X140785714Y-22780952D01*
X140738095Y-22590476D01*
X140690476Y-22495238D01*
X140595238Y-22400000D01*
X140452380Y-22352381D01*
X140357142Y-22352381D01*
X140214285Y-22400000D01*
X140166666Y-22447619D01*
X139785714Y-22447619D02*
X139738095Y-22400000D01*
X139642857Y-22352381D01*
X139404761Y-22352381D01*
X139309523Y-22400000D01*
X139261904Y-22447619D01*
X139214285Y-22542857D01*
X139214285Y-22638095D01*
X139261904Y-22780952D01*
X139833333Y-23352381D01*
X139214285Y-23352381D01*
X158757143Y-55833334D02*
X158804762Y-55785715D01*
X158852381Y-55642858D01*
X158852381Y-55547620D01*
X158804762Y-55404762D01*
X158709524Y-55309524D01*
X158614286Y-55261905D01*
X158423810Y-55214286D01*
X158280952Y-55214286D01*
X158090476Y-55261905D01*
X157995238Y-55309524D01*
X157900000Y-55404762D01*
X157852381Y-55547620D01*
X157852381Y-55642858D01*
X157900000Y-55785715D01*
X157947619Y-55833334D01*
X157852381Y-56166667D02*
X157852381Y-56785715D01*
X158233333Y-56452381D01*
X158233333Y-56595239D01*
X158280952Y-56690477D01*
X158328571Y-56738096D01*
X158423810Y-56785715D01*
X158661905Y-56785715D01*
X158757143Y-56738096D01*
X158804762Y-56690477D01*
X158852381Y-56595239D01*
X158852381Y-56309524D01*
X158804762Y-56214286D01*
X158757143Y-56166667D01*
X142666666Y-60757143D02*
X142714285Y-60804762D01*
X142857142Y-60852381D01*
X142952380Y-60852381D01*
X143095238Y-60804762D01*
X143190476Y-60709524D01*
X143238095Y-60614286D01*
X143285714Y-60423810D01*
X143285714Y-60280952D01*
X143238095Y-60090476D01*
X143190476Y-59995238D01*
X143095238Y-59900000D01*
X142952380Y-59852381D01*
X142857142Y-59852381D01*
X142714285Y-59900000D01*
X142666666Y-59947619D01*
X141714285Y-60852381D02*
X142285714Y-60852381D01*
X142000000Y-60852381D02*
X142000000Y-59852381D01*
X142095238Y-59995238D01*
X142190476Y-60090476D01*
X142285714Y-60138095D01*
X140166666Y-25257143D02*
X140214285Y-25304762D01*
X140357142Y-25352381D01*
X140452380Y-25352381D01*
X140595238Y-25304762D01*
X140690476Y-25209524D01*
X140738095Y-25114286D01*
X140785714Y-24923810D01*
X140785714Y-24780952D01*
X140738095Y-24590476D01*
X140690476Y-24495238D01*
X140595238Y-24400000D01*
X140452380Y-24352381D01*
X140357142Y-24352381D01*
X140214285Y-24400000D01*
X140166666Y-24447619D01*
X139309523Y-24352381D02*
X139500000Y-24352381D01*
X139595238Y-24400000D01*
X139642857Y-24447619D01*
X139738095Y-24590476D01*
X139785714Y-24780952D01*
X139785714Y-25161905D01*
X139738095Y-25257143D01*
X139690476Y-25304762D01*
X139595238Y-25352381D01*
X139404761Y-25352381D01*
X139309523Y-25304762D01*
X139261904Y-25257143D01*
X139214285Y-25161905D01*
X139214285Y-24923810D01*
X139261904Y-24828571D01*
X139309523Y-24780952D01*
X139404761Y-24733333D01*
X139595238Y-24733333D01*
X139690476Y-24780952D01*
X139738095Y-24828571D01*
X139785714Y-24923810D01*
X119166666Y-54957143D02*
X119214285Y-55004762D01*
X119357142Y-55052381D01*
X119452380Y-55052381D01*
X119595238Y-55004762D01*
X119690476Y-54909524D01*
X119738095Y-54814286D01*
X119785714Y-54623810D01*
X119785714Y-54480952D01*
X119738095Y-54290476D01*
X119690476Y-54195238D01*
X119595238Y-54100000D01*
X119452380Y-54052381D01*
X119357142Y-54052381D01*
X119214285Y-54100000D01*
X119166666Y-54147619D01*
X118595238Y-54480952D02*
X118690476Y-54433333D01*
X118738095Y-54385714D01*
X118785714Y-54290476D01*
X118785714Y-54242857D01*
X118738095Y-54147619D01*
X118690476Y-54100000D01*
X118595238Y-54052381D01*
X118404761Y-54052381D01*
X118309523Y-54100000D01*
X118261904Y-54147619D01*
X118214285Y-54242857D01*
X118214285Y-54290476D01*
X118261904Y-54385714D01*
X118309523Y-54433333D01*
X118404761Y-54480952D01*
X118595238Y-54480952D01*
X118690476Y-54528571D01*
X118738095Y-54576190D01*
X118785714Y-54671429D01*
X118785714Y-54861905D01*
X118738095Y-54957143D01*
X118690476Y-55004762D01*
X118595238Y-55052381D01*
X118404761Y-55052381D01*
X118309523Y-55004762D01*
X118261904Y-54957143D01*
X118214285Y-54861905D01*
X118214285Y-54671429D01*
X118261904Y-54576190D01*
X118309523Y-54528571D01*
X118404761Y-54480952D01*
X119166666Y-52957143D02*
X119214285Y-53004762D01*
X119357142Y-53052381D01*
X119452380Y-53052381D01*
X119595238Y-53004762D01*
X119690476Y-52909524D01*
X119738095Y-52814286D01*
X119785714Y-52623810D01*
X119785714Y-52480952D01*
X119738095Y-52290476D01*
X119690476Y-52195238D01*
X119595238Y-52100000D01*
X119452380Y-52052381D01*
X119357142Y-52052381D01*
X119214285Y-52100000D01*
X119166666Y-52147619D01*
X118690476Y-53052381D02*
X118500000Y-53052381D01*
X118404761Y-53004762D01*
X118357142Y-52957143D01*
X118261904Y-52814286D01*
X118214285Y-52623810D01*
X118214285Y-52242857D01*
X118261904Y-52147619D01*
X118309523Y-52100000D01*
X118404761Y-52052381D01*
X118595238Y-52052381D01*
X118690476Y-52100000D01*
X118738095Y-52147619D01*
X118785714Y-52242857D01*
X118785714Y-52480952D01*
X118738095Y-52576190D01*
X118690476Y-52623810D01*
X118595238Y-52671429D01*
X118404761Y-52671429D01*
X118309523Y-52623810D01*
X118261904Y-52576190D01*
X118214285Y-52480952D01*
X155166666Y-42852381D02*
X155500000Y-42376190D01*
X155738095Y-42852381D02*
X155738095Y-41852381D01*
X155357142Y-41852381D01*
X155261904Y-41900000D01*
X155214285Y-41947619D01*
X155166666Y-42042857D01*
X155166666Y-42185714D01*
X155214285Y-42280952D01*
X155261904Y-42328571D01*
X155357142Y-42376190D01*
X155738095Y-42376190D01*
X154261904Y-41852381D02*
X154738095Y-41852381D01*
X154785714Y-42328571D01*
X154738095Y-42280952D01*
X154642857Y-42233333D01*
X154404761Y-42233333D01*
X154309523Y-42280952D01*
X154261904Y-42328571D01*
X154214285Y-42423810D01*
X154214285Y-42661905D01*
X154261904Y-42757143D01*
X154309523Y-42804762D01*
X154404761Y-42852381D01*
X154642857Y-42852381D01*
X154738095Y-42804762D01*
X154785714Y-42757143D01*
X81852381Y-100500000D02*
X81376190Y-100166666D01*
X81852381Y-99928571D02*
X80852381Y-99928571D01*
X80852381Y-100309524D01*
X80900000Y-100404762D01*
X80947619Y-100452381D01*
X81042857Y-100500000D01*
X81185714Y-100500000D01*
X81280952Y-100452381D01*
X81328571Y-100404762D01*
X81376190Y-100309524D01*
X81376190Y-99928571D01*
X81947619Y-100690476D02*
X81947619Y-101452381D01*
X81328571Y-102023810D02*
X81328571Y-101690476D01*
X81852381Y-101690476D02*
X80852381Y-101690476D01*
X80852381Y-102166667D01*
X81852381Y-102547619D02*
X80852381Y-102547619D01*
X81852381Y-103119048D01*
X80852381Y-103119048D01*
X81852381Y-104119048D02*
X81852381Y-103547619D01*
X81852381Y-103833333D02*
X80852381Y-103833333D01*
X80995238Y-103738095D01*
X81090476Y-103642857D01*
X81138095Y-103547619D01*
X271352381Y-99547619D02*
X270876190Y-99214285D01*
X271352381Y-98976190D02*
X270352381Y-98976190D01*
X270352381Y-99357143D01*
X270400000Y-99452381D01*
X270447619Y-99500000D01*
X270542857Y-99547619D01*
X270685714Y-99547619D01*
X270780952Y-99500000D01*
X270828571Y-99452381D01*
X270876190Y-99357143D01*
X270876190Y-98976190D01*
X271447619Y-99738095D02*
X271447619Y-100500000D01*
X271257143Y-101309524D02*
X271304762Y-101261905D01*
X271352381Y-101119048D01*
X271352381Y-101023810D01*
X271304762Y-100880952D01*
X271209524Y-100785714D01*
X271114286Y-100738095D01*
X270923810Y-100690476D01*
X270780952Y-100690476D01*
X270590476Y-100738095D01*
X270495238Y-100785714D01*
X270400000Y-100880952D01*
X270352381Y-101023810D01*
X270352381Y-101119048D01*
X270400000Y-101261905D01*
X270447619Y-101309524D01*
X271066667Y-101690476D02*
X271066667Y-102166667D01*
X271352381Y-101595238D02*
X270352381Y-101928571D01*
X271352381Y-102261905D01*
X271352381Y-102595238D02*
X270352381Y-102595238D01*
X270352381Y-102976191D01*
X270400000Y-103071429D01*
X270447619Y-103119048D01*
X270542857Y-103166667D01*
X270685714Y-103166667D01*
X270780952Y-103119048D01*
X270828571Y-103071429D01*
X270876190Y-102976191D01*
X270876190Y-102595238D01*
X271304762Y-103547619D02*
X271352381Y-103690476D01*
X271352381Y-103928572D01*
X271304762Y-104023810D01*
X271257143Y-104071429D01*
X271161905Y-104119048D01*
X271066667Y-104119048D01*
X270971429Y-104071429D01*
X270923810Y-104023810D01*
X270876190Y-103928572D01*
X270828571Y-103738095D01*
X270780952Y-103642857D01*
X270733333Y-103595238D01*
X270638095Y-103547619D01*
X270542857Y-103547619D01*
X270447619Y-103595238D01*
X270400000Y-103642857D01*
X270352381Y-103738095D01*
X270352381Y-103976191D01*
X270400000Y-104119048D01*
X271352381Y-105071429D02*
X271352381Y-104500000D01*
X271352381Y-104785714D02*
X270352381Y-104785714D01*
X270495238Y-104690476D01*
X270590476Y-104595238D01*
X270638095Y-104500000D01*
X168989841Y-77978139D02*
X167989841Y-77978139D01*
X167989841Y-78216234D01*
X168037460Y-78359092D01*
X168132698Y-78454330D01*
X168227936Y-78501949D01*
X168418412Y-78549568D01*
X168561270Y-78549568D01*
X168751746Y-78501949D01*
X168846984Y-78454330D01*
X168942222Y-78359092D01*
X168989841Y-78216234D01*
X168989841Y-77978139D01*
X168989841Y-79501949D02*
X168989841Y-78930520D01*
X168989841Y-79216234D02*
X167989841Y-79216234D01*
X168132698Y-79120996D01*
X168227936Y-79025758D01*
X168275555Y-78930520D01*
X168894603Y-79930520D02*
X168942222Y-79978139D01*
X168989841Y-79930520D01*
X168942222Y-79882901D01*
X168894603Y-79930520D01*
X168989841Y-79930520D01*
X168370793Y-79930520D02*
X168418412Y-79978139D01*
X168466031Y-79930520D01*
X168418412Y-79882901D01*
X168370793Y-79930520D01*
X168466031Y-79930520D01*
X168418412Y-80549567D02*
X168370793Y-80454329D01*
X168323174Y-80406710D01*
X168227936Y-80359091D01*
X168180317Y-80359091D01*
X168085079Y-80406710D01*
X168037460Y-80454329D01*
X167989841Y-80549567D01*
X167989841Y-80740044D01*
X168037460Y-80835282D01*
X168085079Y-80882901D01*
X168180317Y-80930520D01*
X168227936Y-80930520D01*
X168323174Y-80882901D01*
X168370793Y-80835282D01*
X168418412Y-80740044D01*
X168418412Y-80549567D01*
X168466031Y-80454329D01*
X168513650Y-80406710D01*
X168608889Y-80359091D01*
X168799365Y-80359091D01*
X168894603Y-80406710D01*
X168942222Y-80454329D01*
X168989841Y-80549567D01*
X168989841Y-80740044D01*
X168942222Y-80835282D01*
X168894603Y-80882901D01*
X168799365Y-80930520D01*
X168608889Y-80930520D01*
X168513650Y-80882901D01*
X168466031Y-80835282D01*
X168418412Y-80740044D01*
X149989841Y-77978139D02*
X148989841Y-77978139D01*
X148989841Y-78216234D01*
X149037460Y-78359092D01*
X149132698Y-78454330D01*
X149227936Y-78501949D01*
X149418412Y-78549568D01*
X149561270Y-78549568D01*
X149751746Y-78501949D01*
X149846984Y-78454330D01*
X149942222Y-78359092D01*
X149989841Y-78216234D01*
X149989841Y-77978139D01*
X149989841Y-79501949D02*
X149989841Y-78930520D01*
X149989841Y-79216234D02*
X148989841Y-79216234D01*
X149132698Y-79120996D01*
X149227936Y-79025758D01*
X149275555Y-78930520D01*
X149894603Y-79930520D02*
X149942222Y-79978139D01*
X149989841Y-79930520D01*
X149942222Y-79882901D01*
X149894603Y-79930520D01*
X149989841Y-79930520D01*
X149370793Y-79930520D02*
X149418412Y-79978139D01*
X149466031Y-79930520D01*
X149418412Y-79882901D01*
X149370793Y-79930520D01*
X149466031Y-79930520D01*
X148989841Y-80311472D02*
X148989841Y-80978139D01*
X149989841Y-80549567D01*
X147489841Y-77978139D02*
X146489841Y-77978139D01*
X146489841Y-78216234D01*
X146537460Y-78359092D01*
X146632698Y-78454330D01*
X146727936Y-78501949D01*
X146918412Y-78549568D01*
X147061270Y-78549568D01*
X147251746Y-78501949D01*
X147346984Y-78454330D01*
X147442222Y-78359092D01*
X147489841Y-78216234D01*
X147489841Y-77978139D01*
X147489841Y-79501949D02*
X147489841Y-78930520D01*
X147489841Y-79216234D02*
X146489841Y-79216234D01*
X146632698Y-79120996D01*
X146727936Y-79025758D01*
X146775555Y-78930520D01*
X147394603Y-79930520D02*
X147442222Y-79978139D01*
X147489841Y-79930520D01*
X147442222Y-79882901D01*
X147394603Y-79930520D01*
X147489841Y-79930520D01*
X146870793Y-79930520D02*
X146918412Y-79978139D01*
X146966031Y-79930520D01*
X146918412Y-79882901D01*
X146870793Y-79930520D01*
X146966031Y-79930520D01*
X146489841Y-80835282D02*
X146489841Y-80644805D01*
X146537460Y-80549567D01*
X146585079Y-80501948D01*
X146727936Y-80406710D01*
X146918412Y-80359091D01*
X147299365Y-80359091D01*
X147394603Y-80406710D01*
X147442222Y-80454329D01*
X147489841Y-80549567D01*
X147489841Y-80740044D01*
X147442222Y-80835282D01*
X147394603Y-80882901D01*
X147299365Y-80930520D01*
X147061270Y-80930520D01*
X146966031Y-80882901D01*
X146918412Y-80835282D01*
X146870793Y-80740044D01*
X146870793Y-80549567D01*
X146918412Y-80454329D01*
X146966031Y-80406710D01*
X147061270Y-80359091D01*
X128489841Y-77978139D02*
X127489841Y-77978139D01*
X127489841Y-78216234D01*
X127537460Y-78359092D01*
X127632698Y-78454330D01*
X127727936Y-78501949D01*
X127918412Y-78549568D01*
X128061270Y-78549568D01*
X128251746Y-78501949D01*
X128346984Y-78454330D01*
X128442222Y-78359092D01*
X128489841Y-78216234D01*
X128489841Y-77978139D01*
X128489841Y-79501949D02*
X128489841Y-78930520D01*
X128489841Y-79216234D02*
X127489841Y-79216234D01*
X127632698Y-79120996D01*
X127727936Y-79025758D01*
X127775555Y-78930520D01*
X128394603Y-79930520D02*
X128442222Y-79978139D01*
X128489841Y-79930520D01*
X128442222Y-79882901D01*
X128394603Y-79930520D01*
X128489841Y-79930520D01*
X127870793Y-79930520D02*
X127918412Y-79978139D01*
X127966031Y-79930520D01*
X127918412Y-79882901D01*
X127870793Y-79930520D01*
X127966031Y-79930520D01*
X127489841Y-80882901D02*
X127489841Y-80406710D01*
X127966031Y-80359091D01*
X127918412Y-80406710D01*
X127870793Y-80501948D01*
X127870793Y-80740044D01*
X127918412Y-80835282D01*
X127966031Y-80882901D01*
X128061270Y-80930520D01*
X128299365Y-80930520D01*
X128394603Y-80882901D01*
X128442222Y-80835282D01*
X128489841Y-80740044D01*
X128489841Y-80501948D01*
X128442222Y-80406710D01*
X128394603Y-80359091D01*
X109489841Y-78478139D02*
X108489841Y-78478139D01*
X108489841Y-78716234D01*
X108537460Y-78859092D01*
X108632698Y-78954330D01*
X108727936Y-79001949D01*
X108918412Y-79049568D01*
X109061270Y-79049568D01*
X109251746Y-79001949D01*
X109346984Y-78954330D01*
X109442222Y-78859092D01*
X109489841Y-78716234D01*
X109489841Y-78478139D01*
X109489841Y-80001949D02*
X109489841Y-79430520D01*
X109489841Y-79716234D02*
X108489841Y-79716234D01*
X108632698Y-79620996D01*
X108727936Y-79525758D01*
X108775555Y-79430520D01*
X109394603Y-80430520D02*
X109442222Y-80478139D01*
X109489841Y-80430520D01*
X109442222Y-80382901D01*
X109394603Y-80430520D01*
X109489841Y-80430520D01*
X108870793Y-80430520D02*
X108918412Y-80478139D01*
X108966031Y-80430520D01*
X108918412Y-80382901D01*
X108870793Y-80430520D01*
X108966031Y-80430520D01*
X108823174Y-81335282D02*
X109489841Y-81335282D01*
X108442222Y-81097186D02*
X109156508Y-80859091D01*
X109156508Y-81478139D01*
X90489841Y-77978139D02*
X89489841Y-77978139D01*
X89489841Y-78216234D01*
X89537460Y-78359092D01*
X89632698Y-78454330D01*
X89727936Y-78501949D01*
X89918412Y-78549568D01*
X90061270Y-78549568D01*
X90251746Y-78501949D01*
X90346984Y-78454330D01*
X90442222Y-78359092D01*
X90489841Y-78216234D01*
X90489841Y-77978139D01*
X90489841Y-79501949D02*
X90489841Y-78930520D01*
X90489841Y-79216234D02*
X89489841Y-79216234D01*
X89632698Y-79120996D01*
X89727936Y-79025758D01*
X89775555Y-78930520D01*
X90394603Y-79930520D02*
X90442222Y-79978139D01*
X90489841Y-79930520D01*
X90442222Y-79882901D01*
X90394603Y-79930520D01*
X90489841Y-79930520D01*
X89870793Y-79930520D02*
X89918412Y-79978139D01*
X89966031Y-79930520D01*
X89918412Y-79882901D01*
X89870793Y-79930520D01*
X89966031Y-79930520D01*
X89489841Y-80311472D02*
X89489841Y-80930520D01*
X89870793Y-80597186D01*
X89870793Y-80740044D01*
X89918412Y-80835282D01*
X89966031Y-80882901D01*
X90061270Y-80930520D01*
X90299365Y-80930520D01*
X90394603Y-80882901D01*
X90442222Y-80835282D01*
X90489841Y-80740044D01*
X90489841Y-80454329D01*
X90442222Y-80359091D01*
X90394603Y-80311472D01*
X70989841Y-78478139D02*
X69989841Y-78478139D01*
X69989841Y-78716234D01*
X70037460Y-78859092D01*
X70132698Y-78954330D01*
X70227936Y-79001949D01*
X70418412Y-79049568D01*
X70561270Y-79049568D01*
X70751746Y-79001949D01*
X70846984Y-78954330D01*
X70942222Y-78859092D01*
X70989841Y-78716234D01*
X70989841Y-78478139D01*
X70989841Y-80001949D02*
X70989841Y-79430520D01*
X70989841Y-79716234D02*
X69989841Y-79716234D01*
X70132698Y-79620996D01*
X70227936Y-79525758D01*
X70275555Y-79430520D01*
X70894603Y-80430520D02*
X70942222Y-80478139D01*
X70989841Y-80430520D01*
X70942222Y-80382901D01*
X70894603Y-80430520D01*
X70989841Y-80430520D01*
X70370793Y-80430520D02*
X70418412Y-80478139D01*
X70466031Y-80430520D01*
X70418412Y-80382901D01*
X70370793Y-80430520D01*
X70466031Y-80430520D01*
X70085079Y-80859091D02*
X70037460Y-80906710D01*
X69989841Y-81001948D01*
X69989841Y-81240044D01*
X70037460Y-81335282D01*
X70085079Y-81382901D01*
X70180317Y-81430520D01*
X70275555Y-81430520D01*
X70418412Y-81382901D01*
X70989841Y-80811472D01*
X70989841Y-81430520D01*
X52489841Y-78478139D02*
X51489841Y-78478139D01*
X51489841Y-78716234D01*
X51537460Y-78859092D01*
X51632698Y-78954330D01*
X51727936Y-79001949D01*
X51918412Y-79049568D01*
X52061270Y-79049568D01*
X52251746Y-79001949D01*
X52346984Y-78954330D01*
X52442222Y-78859092D01*
X52489841Y-78716234D01*
X52489841Y-78478139D01*
X52489841Y-80001949D02*
X52489841Y-79430520D01*
X52489841Y-79716234D02*
X51489841Y-79716234D01*
X51632698Y-79620996D01*
X51727936Y-79525758D01*
X51775555Y-79430520D01*
X52394603Y-80430520D02*
X52442222Y-80478139D01*
X52489841Y-80430520D01*
X52442222Y-80382901D01*
X52394603Y-80430520D01*
X52489841Y-80430520D01*
X51870793Y-80430520D02*
X51918412Y-80478139D01*
X51966031Y-80430520D01*
X51918412Y-80382901D01*
X51870793Y-80430520D01*
X51966031Y-80430520D01*
X52489841Y-81430520D02*
X52489841Y-80859091D01*
X52489841Y-81144805D02*
X51489841Y-81144805D01*
X51632698Y-81049567D01*
X51727936Y-80954329D01*
X51775555Y-80859091D01*
X33489841Y-77978139D02*
X32489841Y-77978139D01*
X32489841Y-78216234D01*
X32537460Y-78359092D01*
X32632698Y-78454330D01*
X32727936Y-78501949D01*
X32918412Y-78549568D01*
X33061270Y-78549568D01*
X33251746Y-78501949D01*
X33346984Y-78454330D01*
X33442222Y-78359092D01*
X33489841Y-78216234D01*
X33489841Y-77978139D01*
X33489841Y-79501949D02*
X33489841Y-78930520D01*
X33489841Y-79216234D02*
X32489841Y-79216234D01*
X32632698Y-79120996D01*
X32727936Y-79025758D01*
X32775555Y-78930520D01*
X33394603Y-79930520D02*
X33442222Y-79978139D01*
X33489841Y-79930520D01*
X33442222Y-79882901D01*
X33394603Y-79930520D01*
X33489841Y-79930520D01*
X32870793Y-79930520D02*
X32918412Y-79978139D01*
X32966031Y-79930520D01*
X32918412Y-79882901D01*
X32870793Y-79930520D01*
X32966031Y-79930520D01*
X32489841Y-80597186D02*
X32489841Y-80692425D01*
X32537460Y-80787663D01*
X32585079Y-80835282D01*
X32680317Y-80882901D01*
X32870793Y-80930520D01*
X33108889Y-80930520D01*
X33299365Y-80882901D01*
X33394603Y-80835282D01*
X33442222Y-80787663D01*
X33489841Y-80692425D01*
X33489841Y-80597186D01*
X33442222Y-80501948D01*
X33394603Y-80454329D01*
X33299365Y-80406710D01*
X33108889Y-80359091D01*
X32870793Y-80359091D01*
X32680317Y-80406710D01*
X32585079Y-80454329D01*
X32537460Y-80501948D01*
X32489841Y-80597186D01*
X33489841Y-96978139D02*
X32489841Y-96978139D01*
X32489841Y-97216234D01*
X32537460Y-97359092D01*
X32632698Y-97454330D01*
X32727936Y-97501949D01*
X32918412Y-97549568D01*
X33061270Y-97549568D01*
X33251746Y-97501949D01*
X33346984Y-97454330D01*
X33442222Y-97359092D01*
X33489841Y-97216234D01*
X33489841Y-96978139D01*
X32489841Y-98168615D02*
X32489841Y-98263854D01*
X32537460Y-98359092D01*
X32585079Y-98406711D01*
X32680317Y-98454330D01*
X32870793Y-98501949D01*
X33108889Y-98501949D01*
X33299365Y-98454330D01*
X33394603Y-98406711D01*
X33442222Y-98359092D01*
X33489841Y-98263854D01*
X33489841Y-98168615D01*
X33442222Y-98073377D01*
X33394603Y-98025758D01*
X33299365Y-97978139D01*
X33108889Y-97930520D01*
X32870793Y-97930520D01*
X32680317Y-97978139D01*
X32585079Y-98025758D01*
X32537460Y-98073377D01*
X32489841Y-98168615D01*
X33394603Y-98930520D02*
X33442222Y-98978139D01*
X33489841Y-98930520D01*
X33442222Y-98882901D01*
X33394603Y-98930520D01*
X33489841Y-98930520D01*
X32870793Y-98930520D02*
X32918412Y-98978139D01*
X32966031Y-98930520D01*
X32918412Y-98882901D01*
X32870793Y-98930520D01*
X32966031Y-98930520D01*
X32489841Y-99597186D02*
X32489841Y-99692425D01*
X32537460Y-99787663D01*
X32585079Y-99835282D01*
X32680317Y-99882901D01*
X32870793Y-99930520D01*
X33108889Y-99930520D01*
X33299365Y-99882901D01*
X33394603Y-99835282D01*
X33442222Y-99787663D01*
X33489841Y-99692425D01*
X33489841Y-99597186D01*
X33442222Y-99501948D01*
X33394603Y-99454329D01*
X33299365Y-99406710D01*
X33108889Y-99359091D01*
X32870793Y-99359091D01*
X32680317Y-99406710D01*
X32585079Y-99454329D01*
X32537460Y-99501948D01*
X32489841Y-99597186D01*
X52489841Y-96978139D02*
X51489841Y-96978139D01*
X51489841Y-97216234D01*
X51537460Y-97359092D01*
X51632698Y-97454330D01*
X51727936Y-97501949D01*
X51918412Y-97549568D01*
X52061270Y-97549568D01*
X52251746Y-97501949D01*
X52346984Y-97454330D01*
X52442222Y-97359092D01*
X52489841Y-97216234D01*
X52489841Y-96978139D01*
X51489841Y-98168615D02*
X51489841Y-98263854D01*
X51537460Y-98359092D01*
X51585079Y-98406711D01*
X51680317Y-98454330D01*
X51870793Y-98501949D01*
X52108889Y-98501949D01*
X52299365Y-98454330D01*
X52394603Y-98406711D01*
X52442222Y-98359092D01*
X52489841Y-98263854D01*
X52489841Y-98168615D01*
X52442222Y-98073377D01*
X52394603Y-98025758D01*
X52299365Y-97978139D01*
X52108889Y-97930520D01*
X51870793Y-97930520D01*
X51680317Y-97978139D01*
X51585079Y-98025758D01*
X51537460Y-98073377D01*
X51489841Y-98168615D01*
X52394603Y-98930520D02*
X52442222Y-98978139D01*
X52489841Y-98930520D01*
X52442222Y-98882901D01*
X52394603Y-98930520D01*
X52489841Y-98930520D01*
X51870793Y-98930520D02*
X51918412Y-98978139D01*
X51966031Y-98930520D01*
X51918412Y-98882901D01*
X51870793Y-98930520D01*
X51966031Y-98930520D01*
X52489841Y-99930520D02*
X52489841Y-99359091D01*
X52489841Y-99644805D02*
X51489841Y-99644805D01*
X51632698Y-99549567D01*
X51727936Y-99454329D01*
X51775555Y-99359091D01*
X71489841Y-96978139D02*
X70489841Y-96978139D01*
X70489841Y-97216234D01*
X70537460Y-97359092D01*
X70632698Y-97454330D01*
X70727936Y-97501949D01*
X70918412Y-97549568D01*
X71061270Y-97549568D01*
X71251746Y-97501949D01*
X71346984Y-97454330D01*
X71442222Y-97359092D01*
X71489841Y-97216234D01*
X71489841Y-96978139D01*
X70489841Y-98168615D02*
X70489841Y-98263854D01*
X70537460Y-98359092D01*
X70585079Y-98406711D01*
X70680317Y-98454330D01*
X70870793Y-98501949D01*
X71108889Y-98501949D01*
X71299365Y-98454330D01*
X71394603Y-98406711D01*
X71442222Y-98359092D01*
X71489841Y-98263854D01*
X71489841Y-98168615D01*
X71442222Y-98073377D01*
X71394603Y-98025758D01*
X71299365Y-97978139D01*
X71108889Y-97930520D01*
X70870793Y-97930520D01*
X70680317Y-97978139D01*
X70585079Y-98025758D01*
X70537460Y-98073377D01*
X70489841Y-98168615D01*
X71394603Y-98930520D02*
X71442222Y-98978139D01*
X71489841Y-98930520D01*
X71442222Y-98882901D01*
X71394603Y-98930520D01*
X71489841Y-98930520D01*
X70870793Y-98930520D02*
X70918412Y-98978139D01*
X70966031Y-98930520D01*
X70918412Y-98882901D01*
X70870793Y-98930520D01*
X70966031Y-98930520D01*
X70585079Y-99359091D02*
X70537460Y-99406710D01*
X70489841Y-99501948D01*
X70489841Y-99740044D01*
X70537460Y-99835282D01*
X70585079Y-99882901D01*
X70680317Y-99930520D01*
X70775555Y-99930520D01*
X70918412Y-99882901D01*
X71489841Y-99311472D01*
X71489841Y-99930520D01*
X89989841Y-96978139D02*
X88989841Y-96978139D01*
X88989841Y-97216234D01*
X89037460Y-97359092D01*
X89132698Y-97454330D01*
X89227936Y-97501949D01*
X89418412Y-97549568D01*
X89561270Y-97549568D01*
X89751746Y-97501949D01*
X89846984Y-97454330D01*
X89942222Y-97359092D01*
X89989841Y-97216234D01*
X89989841Y-96978139D01*
X88989841Y-98168615D02*
X88989841Y-98263854D01*
X89037460Y-98359092D01*
X89085079Y-98406711D01*
X89180317Y-98454330D01*
X89370793Y-98501949D01*
X89608889Y-98501949D01*
X89799365Y-98454330D01*
X89894603Y-98406711D01*
X89942222Y-98359092D01*
X89989841Y-98263854D01*
X89989841Y-98168615D01*
X89942222Y-98073377D01*
X89894603Y-98025758D01*
X89799365Y-97978139D01*
X89608889Y-97930520D01*
X89370793Y-97930520D01*
X89180317Y-97978139D01*
X89085079Y-98025758D01*
X89037460Y-98073377D01*
X88989841Y-98168615D01*
X89894603Y-98930520D02*
X89942222Y-98978139D01*
X89989841Y-98930520D01*
X89942222Y-98882901D01*
X89894603Y-98930520D01*
X89989841Y-98930520D01*
X89370793Y-98930520D02*
X89418412Y-98978139D01*
X89466031Y-98930520D01*
X89418412Y-98882901D01*
X89370793Y-98930520D01*
X89466031Y-98930520D01*
X88989841Y-99311472D02*
X88989841Y-99930520D01*
X89370793Y-99597186D01*
X89370793Y-99740044D01*
X89418412Y-99835282D01*
X89466031Y-99882901D01*
X89561270Y-99930520D01*
X89799365Y-99930520D01*
X89894603Y-99882901D01*
X89942222Y-99835282D01*
X89989841Y-99740044D01*
X89989841Y-99454329D01*
X89942222Y-99359091D01*
X89894603Y-99311472D01*
X108989841Y-96978139D02*
X107989841Y-96978139D01*
X107989841Y-97216234D01*
X108037460Y-97359092D01*
X108132698Y-97454330D01*
X108227936Y-97501949D01*
X108418412Y-97549568D01*
X108561270Y-97549568D01*
X108751746Y-97501949D01*
X108846984Y-97454330D01*
X108942222Y-97359092D01*
X108989841Y-97216234D01*
X108989841Y-96978139D01*
X107989841Y-98168615D02*
X107989841Y-98263854D01*
X108037460Y-98359092D01*
X108085079Y-98406711D01*
X108180317Y-98454330D01*
X108370793Y-98501949D01*
X108608889Y-98501949D01*
X108799365Y-98454330D01*
X108894603Y-98406711D01*
X108942222Y-98359092D01*
X108989841Y-98263854D01*
X108989841Y-98168615D01*
X108942222Y-98073377D01*
X108894603Y-98025758D01*
X108799365Y-97978139D01*
X108608889Y-97930520D01*
X108370793Y-97930520D01*
X108180317Y-97978139D01*
X108085079Y-98025758D01*
X108037460Y-98073377D01*
X107989841Y-98168615D01*
X108894603Y-98930520D02*
X108942222Y-98978139D01*
X108989841Y-98930520D01*
X108942222Y-98882901D01*
X108894603Y-98930520D01*
X108989841Y-98930520D01*
X108370793Y-98930520D02*
X108418412Y-98978139D01*
X108466031Y-98930520D01*
X108418412Y-98882901D01*
X108370793Y-98930520D01*
X108466031Y-98930520D01*
X108323174Y-99835282D02*
X108989841Y-99835282D01*
X107942222Y-99597186D02*
X108656508Y-99359091D01*
X108656508Y-99978139D01*
X111489841Y-96978139D02*
X110489841Y-96978139D01*
X110489841Y-97216234D01*
X110537460Y-97359092D01*
X110632698Y-97454330D01*
X110727936Y-97501949D01*
X110918412Y-97549568D01*
X111061270Y-97549568D01*
X111251746Y-97501949D01*
X111346984Y-97454330D01*
X111442222Y-97359092D01*
X111489841Y-97216234D01*
X111489841Y-96978139D01*
X110489841Y-98168615D02*
X110489841Y-98263854D01*
X110537460Y-98359092D01*
X110585079Y-98406711D01*
X110680317Y-98454330D01*
X110870793Y-98501949D01*
X111108889Y-98501949D01*
X111299365Y-98454330D01*
X111394603Y-98406711D01*
X111442222Y-98359092D01*
X111489841Y-98263854D01*
X111489841Y-98168615D01*
X111442222Y-98073377D01*
X111394603Y-98025758D01*
X111299365Y-97978139D01*
X111108889Y-97930520D01*
X110870793Y-97930520D01*
X110680317Y-97978139D01*
X110585079Y-98025758D01*
X110537460Y-98073377D01*
X110489841Y-98168615D01*
X111394603Y-98930520D02*
X111442222Y-98978139D01*
X111489841Y-98930520D01*
X111442222Y-98882901D01*
X111394603Y-98930520D01*
X111489841Y-98930520D01*
X110870793Y-98930520D02*
X110918412Y-98978139D01*
X110966031Y-98930520D01*
X110918412Y-98882901D01*
X110870793Y-98930520D01*
X110966031Y-98930520D01*
X110489841Y-99882901D02*
X110489841Y-99406710D01*
X110966031Y-99359091D01*
X110918412Y-99406710D01*
X110870793Y-99501948D01*
X110870793Y-99740044D01*
X110918412Y-99835282D01*
X110966031Y-99882901D01*
X111061270Y-99930520D01*
X111299365Y-99930520D01*
X111394603Y-99882901D01*
X111442222Y-99835282D01*
X111489841Y-99740044D01*
X111489841Y-99501948D01*
X111442222Y-99406710D01*
X111394603Y-99359091D01*
X146989841Y-96978139D02*
X145989841Y-96978139D01*
X145989841Y-97216234D01*
X146037460Y-97359092D01*
X146132698Y-97454330D01*
X146227936Y-97501949D01*
X146418412Y-97549568D01*
X146561270Y-97549568D01*
X146751746Y-97501949D01*
X146846984Y-97454330D01*
X146942222Y-97359092D01*
X146989841Y-97216234D01*
X146989841Y-96978139D01*
X145989841Y-98168615D02*
X145989841Y-98263854D01*
X146037460Y-98359092D01*
X146085079Y-98406711D01*
X146180317Y-98454330D01*
X146370793Y-98501949D01*
X146608889Y-98501949D01*
X146799365Y-98454330D01*
X146894603Y-98406711D01*
X146942222Y-98359092D01*
X146989841Y-98263854D01*
X146989841Y-98168615D01*
X146942222Y-98073377D01*
X146894603Y-98025758D01*
X146799365Y-97978139D01*
X146608889Y-97930520D01*
X146370793Y-97930520D01*
X146180317Y-97978139D01*
X146085079Y-98025758D01*
X146037460Y-98073377D01*
X145989841Y-98168615D01*
X146894603Y-98930520D02*
X146942222Y-98978139D01*
X146989841Y-98930520D01*
X146942222Y-98882901D01*
X146894603Y-98930520D01*
X146989841Y-98930520D01*
X146370793Y-98930520D02*
X146418412Y-98978139D01*
X146466031Y-98930520D01*
X146418412Y-98882901D01*
X146370793Y-98930520D01*
X146466031Y-98930520D01*
X145989841Y-99835282D02*
X145989841Y-99644805D01*
X146037460Y-99549567D01*
X146085079Y-99501948D01*
X146227936Y-99406710D01*
X146418412Y-99359091D01*
X146799365Y-99359091D01*
X146894603Y-99406710D01*
X146942222Y-99454329D01*
X146989841Y-99549567D01*
X146989841Y-99740044D01*
X146942222Y-99835282D01*
X146894603Y-99882901D01*
X146799365Y-99930520D01*
X146561270Y-99930520D01*
X146466031Y-99882901D01*
X146418412Y-99835282D01*
X146370793Y-99740044D01*
X146370793Y-99549567D01*
X146418412Y-99454329D01*
X146466031Y-99406710D01*
X146561270Y-99359091D01*
X149989841Y-96978139D02*
X148989841Y-96978139D01*
X148989841Y-97216234D01*
X149037460Y-97359092D01*
X149132698Y-97454330D01*
X149227936Y-97501949D01*
X149418412Y-97549568D01*
X149561270Y-97549568D01*
X149751746Y-97501949D01*
X149846984Y-97454330D01*
X149942222Y-97359092D01*
X149989841Y-97216234D01*
X149989841Y-96978139D01*
X148989841Y-98168615D02*
X148989841Y-98263854D01*
X149037460Y-98359092D01*
X149085079Y-98406711D01*
X149180317Y-98454330D01*
X149370793Y-98501949D01*
X149608889Y-98501949D01*
X149799365Y-98454330D01*
X149894603Y-98406711D01*
X149942222Y-98359092D01*
X149989841Y-98263854D01*
X149989841Y-98168615D01*
X149942222Y-98073377D01*
X149894603Y-98025758D01*
X149799365Y-97978139D01*
X149608889Y-97930520D01*
X149370793Y-97930520D01*
X149180317Y-97978139D01*
X149085079Y-98025758D01*
X149037460Y-98073377D01*
X148989841Y-98168615D01*
X149894603Y-98930520D02*
X149942222Y-98978139D01*
X149989841Y-98930520D01*
X149942222Y-98882901D01*
X149894603Y-98930520D01*
X149989841Y-98930520D01*
X149370793Y-98930520D02*
X149418412Y-98978139D01*
X149466031Y-98930520D01*
X149418412Y-98882901D01*
X149370793Y-98930520D01*
X149466031Y-98930520D01*
X148989841Y-99311472D02*
X148989841Y-99978139D01*
X149989841Y-99549567D01*
X184989841Y-97478139D02*
X183989841Y-97478139D01*
X183989841Y-97716234D01*
X184037460Y-97859092D01*
X184132698Y-97954330D01*
X184227936Y-98001949D01*
X184418412Y-98049568D01*
X184561270Y-98049568D01*
X184751746Y-98001949D01*
X184846984Y-97954330D01*
X184942222Y-97859092D01*
X184989841Y-97716234D01*
X184989841Y-97478139D01*
X183989841Y-98668615D02*
X183989841Y-98763854D01*
X184037460Y-98859092D01*
X184085079Y-98906711D01*
X184180317Y-98954330D01*
X184370793Y-99001949D01*
X184608889Y-99001949D01*
X184799365Y-98954330D01*
X184894603Y-98906711D01*
X184942222Y-98859092D01*
X184989841Y-98763854D01*
X184989841Y-98668615D01*
X184942222Y-98573377D01*
X184894603Y-98525758D01*
X184799365Y-98478139D01*
X184608889Y-98430520D01*
X184370793Y-98430520D01*
X184180317Y-98478139D01*
X184085079Y-98525758D01*
X184037460Y-98573377D01*
X183989841Y-98668615D01*
X184894603Y-99430520D02*
X184942222Y-99478139D01*
X184989841Y-99430520D01*
X184942222Y-99382901D01*
X184894603Y-99430520D01*
X184989841Y-99430520D01*
X184370793Y-99430520D02*
X184418412Y-99478139D01*
X184466031Y-99430520D01*
X184418412Y-99382901D01*
X184370793Y-99430520D01*
X184466031Y-99430520D01*
X184418412Y-100049567D02*
X184370793Y-99954329D01*
X184323174Y-99906710D01*
X184227936Y-99859091D01*
X184180317Y-99859091D01*
X184085079Y-99906710D01*
X184037460Y-99954329D01*
X183989841Y-100049567D01*
X183989841Y-100240044D01*
X184037460Y-100335282D01*
X184085079Y-100382901D01*
X184180317Y-100430520D01*
X184227936Y-100430520D01*
X184323174Y-100382901D01*
X184370793Y-100335282D01*
X184418412Y-100240044D01*
X184418412Y-100049567D01*
X184466031Y-99954329D01*
X184513650Y-99906710D01*
X184608889Y-99859091D01*
X184799365Y-99859091D01*
X184894603Y-99906710D01*
X184942222Y-99954329D01*
X184989841Y-100049567D01*
X184989841Y-100240044D01*
X184942222Y-100335282D01*
X184894603Y-100382901D01*
X184799365Y-100430520D01*
X184608889Y-100430520D01*
X184513650Y-100382901D01*
X184466031Y-100335282D01*
X184418412Y-100240044D01*
X187989841Y-97478139D02*
X186989841Y-97478139D01*
X186989841Y-97716234D01*
X187037460Y-97859092D01*
X187132698Y-97954330D01*
X187227936Y-98001949D01*
X187418412Y-98049568D01*
X187561270Y-98049568D01*
X187751746Y-98001949D01*
X187846984Y-97954330D01*
X187942222Y-97859092D01*
X187989841Y-97716234D01*
X187989841Y-97478139D01*
X186989841Y-98668615D02*
X186989841Y-98763854D01*
X187037460Y-98859092D01*
X187085079Y-98906711D01*
X187180317Y-98954330D01*
X187370793Y-99001949D01*
X187608889Y-99001949D01*
X187799365Y-98954330D01*
X187894603Y-98906711D01*
X187942222Y-98859092D01*
X187989841Y-98763854D01*
X187989841Y-98668615D01*
X187942222Y-98573377D01*
X187894603Y-98525758D01*
X187799365Y-98478139D01*
X187608889Y-98430520D01*
X187370793Y-98430520D01*
X187180317Y-98478139D01*
X187085079Y-98525758D01*
X187037460Y-98573377D01*
X186989841Y-98668615D01*
X187894603Y-99430520D02*
X187942222Y-99478139D01*
X187989841Y-99430520D01*
X187942222Y-99382901D01*
X187894603Y-99430520D01*
X187989841Y-99430520D01*
X187370793Y-99430520D02*
X187418412Y-99478139D01*
X187466031Y-99430520D01*
X187418412Y-99382901D01*
X187370793Y-99430520D01*
X187466031Y-99430520D01*
X187989841Y-99954329D02*
X187989841Y-100144805D01*
X187942222Y-100240044D01*
X187894603Y-100287663D01*
X187751746Y-100382901D01*
X187561270Y-100430520D01*
X187180317Y-100430520D01*
X187085079Y-100382901D01*
X187037460Y-100335282D01*
X186989841Y-100240044D01*
X186989841Y-100049567D01*
X187037460Y-99954329D01*
X187085079Y-99906710D01*
X187180317Y-99859091D01*
X187418412Y-99859091D01*
X187513650Y-99906710D01*
X187561270Y-99954329D01*
X187608889Y-100049567D01*
X187608889Y-100240044D01*
X187561270Y-100335282D01*
X187513650Y-100382901D01*
X187418412Y-100430520D01*
X187989841Y-77978139D02*
X186989841Y-77978139D01*
X186989841Y-78216234D01*
X187037460Y-78359092D01*
X187132698Y-78454330D01*
X187227936Y-78501949D01*
X187418412Y-78549568D01*
X187561270Y-78549568D01*
X187751746Y-78501949D01*
X187846984Y-78454330D01*
X187942222Y-78359092D01*
X187989841Y-78216234D01*
X187989841Y-77978139D01*
X187989841Y-79501949D02*
X187989841Y-78930520D01*
X187989841Y-79216234D02*
X186989841Y-79216234D01*
X187132698Y-79120996D01*
X187227936Y-79025758D01*
X187275555Y-78930520D01*
X187894603Y-79930520D02*
X187942222Y-79978139D01*
X187989841Y-79930520D01*
X187942222Y-79882901D01*
X187894603Y-79930520D01*
X187989841Y-79930520D01*
X187370793Y-79930520D02*
X187418412Y-79978139D01*
X187466031Y-79930520D01*
X187418412Y-79882901D01*
X187370793Y-79930520D01*
X187466031Y-79930520D01*
X187989841Y-80454329D02*
X187989841Y-80644805D01*
X187942222Y-80740044D01*
X187894603Y-80787663D01*
X187751746Y-80882901D01*
X187561270Y-80930520D01*
X187180317Y-80930520D01*
X187085079Y-80882901D01*
X187037460Y-80835282D01*
X186989841Y-80740044D01*
X186989841Y-80549567D01*
X187037460Y-80454329D01*
X187085079Y-80406710D01*
X187180317Y-80359091D01*
X187418412Y-80359091D01*
X187513650Y-80406710D01*
X187561270Y-80454329D01*
X187608889Y-80549567D01*
X187608889Y-80740044D01*
X187561270Y-80835282D01*
X187513650Y-80882901D01*
X187418412Y-80930520D01*
X225989841Y-77501949D02*
X224989841Y-77501949D01*
X224989841Y-77740044D01*
X225037460Y-77882902D01*
X225132698Y-77978140D01*
X225227936Y-78025759D01*
X225418412Y-78073378D01*
X225561270Y-78073378D01*
X225751746Y-78025759D01*
X225846984Y-77978140D01*
X225942222Y-77882902D01*
X225989841Y-77740044D01*
X225989841Y-77501949D01*
X225989841Y-79025759D02*
X225989841Y-78454330D01*
X225989841Y-78740044D02*
X224989841Y-78740044D01*
X225132698Y-78644806D01*
X225227936Y-78549568D01*
X225275555Y-78454330D01*
X225894603Y-79454330D02*
X225942222Y-79501949D01*
X225989841Y-79454330D01*
X225942222Y-79406711D01*
X225894603Y-79454330D01*
X225989841Y-79454330D01*
X225370793Y-79454330D02*
X225418412Y-79501949D01*
X225466031Y-79454330D01*
X225418412Y-79406711D01*
X225370793Y-79454330D01*
X225466031Y-79454330D01*
X225989841Y-80454330D02*
X225989841Y-79882901D01*
X225989841Y-80168615D02*
X224989841Y-80168615D01*
X225132698Y-80073377D01*
X225227936Y-79978139D01*
X225275555Y-79882901D01*
X225989841Y-81406711D02*
X225989841Y-80835282D01*
X225989841Y-81120996D02*
X224989841Y-81120996D01*
X225132698Y-81025758D01*
X225227936Y-80930520D01*
X225275555Y-80835282D01*
X206489841Y-77501949D02*
X205489841Y-77501949D01*
X205489841Y-77740044D01*
X205537460Y-77882902D01*
X205632698Y-77978140D01*
X205727936Y-78025759D01*
X205918412Y-78073378D01*
X206061270Y-78073378D01*
X206251746Y-78025759D01*
X206346984Y-77978140D01*
X206442222Y-77882902D01*
X206489841Y-77740044D01*
X206489841Y-77501949D01*
X206489841Y-79025759D02*
X206489841Y-78454330D01*
X206489841Y-78740044D02*
X205489841Y-78740044D01*
X205632698Y-78644806D01*
X205727936Y-78549568D01*
X205775555Y-78454330D01*
X206394603Y-79454330D02*
X206442222Y-79501949D01*
X206489841Y-79454330D01*
X206442222Y-79406711D01*
X206394603Y-79454330D01*
X206489841Y-79454330D01*
X205870793Y-79454330D02*
X205918412Y-79501949D01*
X205966031Y-79454330D01*
X205918412Y-79406711D01*
X205870793Y-79454330D01*
X205966031Y-79454330D01*
X206489841Y-80454330D02*
X206489841Y-79882901D01*
X206489841Y-80168615D02*
X205489841Y-80168615D01*
X205632698Y-80073377D01*
X205727936Y-79978139D01*
X205775555Y-79882901D01*
X205489841Y-81073377D02*
X205489841Y-81168616D01*
X205537460Y-81263854D01*
X205585079Y-81311473D01*
X205680317Y-81359092D01*
X205870793Y-81406711D01*
X206108889Y-81406711D01*
X206299365Y-81359092D01*
X206394603Y-81311473D01*
X206442222Y-81263854D01*
X206489841Y-81168616D01*
X206489841Y-81073377D01*
X206442222Y-80978139D01*
X206394603Y-80930520D01*
X206299365Y-80882901D01*
X206108889Y-80835282D01*
X205870793Y-80835282D01*
X205680317Y-80882901D01*
X205585079Y-80930520D01*
X205537460Y-80978139D01*
X205489841Y-81073377D01*
X206989841Y-97001949D02*
X205989841Y-97001949D01*
X205989841Y-97240044D01*
X206037460Y-97382902D01*
X206132698Y-97478140D01*
X206227936Y-97525759D01*
X206418412Y-97573378D01*
X206561270Y-97573378D01*
X206751746Y-97525759D01*
X206846984Y-97478140D01*
X206942222Y-97382902D01*
X206989841Y-97240044D01*
X206989841Y-97001949D01*
X205989841Y-98192425D02*
X205989841Y-98287664D01*
X206037460Y-98382902D01*
X206085079Y-98430521D01*
X206180317Y-98478140D01*
X206370793Y-98525759D01*
X206608889Y-98525759D01*
X206799365Y-98478140D01*
X206894603Y-98430521D01*
X206942222Y-98382902D01*
X206989841Y-98287664D01*
X206989841Y-98192425D01*
X206942222Y-98097187D01*
X206894603Y-98049568D01*
X206799365Y-98001949D01*
X206608889Y-97954330D01*
X206370793Y-97954330D01*
X206180317Y-98001949D01*
X206085079Y-98049568D01*
X206037460Y-98097187D01*
X205989841Y-98192425D01*
X206894603Y-98954330D02*
X206942222Y-99001949D01*
X206989841Y-98954330D01*
X206942222Y-98906711D01*
X206894603Y-98954330D01*
X206989841Y-98954330D01*
X206370793Y-98954330D02*
X206418412Y-99001949D01*
X206466031Y-98954330D01*
X206418412Y-98906711D01*
X206370793Y-98954330D01*
X206466031Y-98954330D01*
X206989841Y-99954330D02*
X206989841Y-99382901D01*
X206989841Y-99668615D02*
X205989841Y-99668615D01*
X206132698Y-99573377D01*
X206227936Y-99478139D01*
X206275555Y-99382901D01*
X205989841Y-100573377D02*
X205989841Y-100668616D01*
X206037460Y-100763854D01*
X206085079Y-100811473D01*
X206180317Y-100859092D01*
X206370793Y-100906711D01*
X206608889Y-100906711D01*
X206799365Y-100859092D01*
X206894603Y-100811473D01*
X206942222Y-100763854D01*
X206989841Y-100668616D01*
X206989841Y-100573377D01*
X206942222Y-100478139D01*
X206894603Y-100430520D01*
X206799365Y-100382901D01*
X206608889Y-100335282D01*
X206370793Y-100335282D01*
X206180317Y-100382901D01*
X206085079Y-100430520D01*
X206037460Y-100478139D01*
X205989841Y-100573377D01*
X225989841Y-97001949D02*
X224989841Y-97001949D01*
X224989841Y-97240044D01*
X225037460Y-97382902D01*
X225132698Y-97478140D01*
X225227936Y-97525759D01*
X225418412Y-97573378D01*
X225561270Y-97573378D01*
X225751746Y-97525759D01*
X225846984Y-97478140D01*
X225942222Y-97382902D01*
X225989841Y-97240044D01*
X225989841Y-97001949D01*
X224989841Y-98192425D02*
X224989841Y-98287664D01*
X225037460Y-98382902D01*
X225085079Y-98430521D01*
X225180317Y-98478140D01*
X225370793Y-98525759D01*
X225608889Y-98525759D01*
X225799365Y-98478140D01*
X225894603Y-98430521D01*
X225942222Y-98382902D01*
X225989841Y-98287664D01*
X225989841Y-98192425D01*
X225942222Y-98097187D01*
X225894603Y-98049568D01*
X225799365Y-98001949D01*
X225608889Y-97954330D01*
X225370793Y-97954330D01*
X225180317Y-98001949D01*
X225085079Y-98049568D01*
X225037460Y-98097187D01*
X224989841Y-98192425D01*
X225894603Y-98954330D02*
X225942222Y-99001949D01*
X225989841Y-98954330D01*
X225942222Y-98906711D01*
X225894603Y-98954330D01*
X225989841Y-98954330D01*
X225370793Y-98954330D02*
X225418412Y-99001949D01*
X225466031Y-98954330D01*
X225418412Y-98906711D01*
X225370793Y-98954330D01*
X225466031Y-98954330D01*
X225989841Y-99954330D02*
X225989841Y-99382901D01*
X225989841Y-99668615D02*
X224989841Y-99668615D01*
X225132698Y-99573377D01*
X225227936Y-99478139D01*
X225275555Y-99382901D01*
X225989841Y-100906711D02*
X225989841Y-100335282D01*
X225989841Y-100620996D02*
X224989841Y-100620996D01*
X225132698Y-100525758D01*
X225227936Y-100430520D01*
X225275555Y-100335282D01*
X263989841Y-97001949D02*
X262989841Y-97001949D01*
X262989841Y-97240044D01*
X263037460Y-97382902D01*
X263132698Y-97478140D01*
X263227936Y-97525759D01*
X263418412Y-97573378D01*
X263561270Y-97573378D01*
X263751746Y-97525759D01*
X263846984Y-97478140D01*
X263942222Y-97382902D01*
X263989841Y-97240044D01*
X263989841Y-97001949D01*
X262989841Y-98192425D02*
X262989841Y-98287664D01*
X263037460Y-98382902D01*
X263085079Y-98430521D01*
X263180317Y-98478140D01*
X263370793Y-98525759D01*
X263608889Y-98525759D01*
X263799365Y-98478140D01*
X263894603Y-98430521D01*
X263942222Y-98382902D01*
X263989841Y-98287664D01*
X263989841Y-98192425D01*
X263942222Y-98097187D01*
X263894603Y-98049568D01*
X263799365Y-98001949D01*
X263608889Y-97954330D01*
X263370793Y-97954330D01*
X263180317Y-98001949D01*
X263085079Y-98049568D01*
X263037460Y-98097187D01*
X262989841Y-98192425D01*
X263894603Y-98954330D02*
X263942222Y-99001949D01*
X263989841Y-98954330D01*
X263942222Y-98906711D01*
X263894603Y-98954330D01*
X263989841Y-98954330D01*
X263370793Y-98954330D02*
X263418412Y-99001949D01*
X263466031Y-98954330D01*
X263418412Y-98906711D01*
X263370793Y-98954330D01*
X263466031Y-98954330D01*
X263989841Y-99954330D02*
X263989841Y-99382901D01*
X263989841Y-99668615D02*
X262989841Y-99668615D01*
X263132698Y-99573377D01*
X263227936Y-99478139D01*
X263275555Y-99382901D01*
X262989841Y-100287663D02*
X262989841Y-100906711D01*
X263370793Y-100573377D01*
X263370793Y-100716235D01*
X263418412Y-100811473D01*
X263466031Y-100859092D01*
X263561270Y-100906711D01*
X263799365Y-100906711D01*
X263894603Y-100859092D01*
X263942222Y-100811473D01*
X263989841Y-100716235D01*
X263989841Y-100430520D01*
X263942222Y-100335282D01*
X263894603Y-100287663D01*
X244989841Y-97001949D02*
X243989841Y-97001949D01*
X243989841Y-97240044D01*
X244037460Y-97382902D01*
X244132698Y-97478140D01*
X244227936Y-97525759D01*
X244418412Y-97573378D01*
X244561270Y-97573378D01*
X244751746Y-97525759D01*
X244846984Y-97478140D01*
X244942222Y-97382902D01*
X244989841Y-97240044D01*
X244989841Y-97001949D01*
X243989841Y-98192425D02*
X243989841Y-98287664D01*
X244037460Y-98382902D01*
X244085079Y-98430521D01*
X244180317Y-98478140D01*
X244370793Y-98525759D01*
X244608889Y-98525759D01*
X244799365Y-98478140D01*
X244894603Y-98430521D01*
X244942222Y-98382902D01*
X244989841Y-98287664D01*
X244989841Y-98192425D01*
X244942222Y-98097187D01*
X244894603Y-98049568D01*
X244799365Y-98001949D01*
X244608889Y-97954330D01*
X244370793Y-97954330D01*
X244180317Y-98001949D01*
X244085079Y-98049568D01*
X244037460Y-98097187D01*
X243989841Y-98192425D01*
X244894603Y-98954330D02*
X244942222Y-99001949D01*
X244989841Y-98954330D01*
X244942222Y-98906711D01*
X244894603Y-98954330D01*
X244989841Y-98954330D01*
X244370793Y-98954330D02*
X244418412Y-99001949D01*
X244466031Y-98954330D01*
X244418412Y-98906711D01*
X244370793Y-98954330D01*
X244466031Y-98954330D01*
X244989841Y-99954330D02*
X244989841Y-99382901D01*
X244989841Y-99668615D02*
X243989841Y-99668615D01*
X244132698Y-99573377D01*
X244227936Y-99478139D01*
X244275555Y-99382901D01*
X244085079Y-100335282D02*
X244037460Y-100382901D01*
X243989841Y-100478139D01*
X243989841Y-100716235D01*
X244037460Y-100811473D01*
X244085079Y-100859092D01*
X244180317Y-100906711D01*
X244275555Y-100906711D01*
X244418412Y-100859092D01*
X244989841Y-100287663D01*
X244989841Y-100906711D01*
X244989841Y-78001949D02*
X243989841Y-78001949D01*
X243989841Y-78240044D01*
X244037460Y-78382902D01*
X244132698Y-78478140D01*
X244227936Y-78525759D01*
X244418412Y-78573378D01*
X244561270Y-78573378D01*
X244751746Y-78525759D01*
X244846984Y-78478140D01*
X244942222Y-78382902D01*
X244989841Y-78240044D01*
X244989841Y-78001949D01*
X244989841Y-79525759D02*
X244989841Y-78954330D01*
X244989841Y-79240044D02*
X243989841Y-79240044D01*
X244132698Y-79144806D01*
X244227936Y-79049568D01*
X244275555Y-78954330D01*
X244894603Y-79954330D02*
X244942222Y-80001949D01*
X244989841Y-79954330D01*
X244942222Y-79906711D01*
X244894603Y-79954330D01*
X244989841Y-79954330D01*
X244370793Y-79954330D02*
X244418412Y-80001949D01*
X244466031Y-79954330D01*
X244418412Y-79906711D01*
X244370793Y-79954330D01*
X244466031Y-79954330D01*
X244989841Y-80954330D02*
X244989841Y-80382901D01*
X244989841Y-80668615D02*
X243989841Y-80668615D01*
X244132698Y-80573377D01*
X244227936Y-80478139D01*
X244275555Y-80382901D01*
X244085079Y-81335282D02*
X244037460Y-81382901D01*
X243989841Y-81478139D01*
X243989841Y-81716235D01*
X244037460Y-81811473D01*
X244085079Y-81859092D01*
X244180317Y-81906711D01*
X244275555Y-81906711D01*
X244418412Y-81859092D01*
X244989841Y-81287663D01*
X244989841Y-81906711D01*
X263989841Y-78001949D02*
X262989841Y-78001949D01*
X262989841Y-78240044D01*
X263037460Y-78382902D01*
X263132698Y-78478140D01*
X263227936Y-78525759D01*
X263418412Y-78573378D01*
X263561270Y-78573378D01*
X263751746Y-78525759D01*
X263846984Y-78478140D01*
X263942222Y-78382902D01*
X263989841Y-78240044D01*
X263989841Y-78001949D01*
X263989841Y-79525759D02*
X263989841Y-78954330D01*
X263989841Y-79240044D02*
X262989841Y-79240044D01*
X263132698Y-79144806D01*
X263227936Y-79049568D01*
X263275555Y-78954330D01*
X263894603Y-79954330D02*
X263942222Y-80001949D01*
X263989841Y-79954330D01*
X263942222Y-79906711D01*
X263894603Y-79954330D01*
X263989841Y-79954330D01*
X263370793Y-79954330D02*
X263418412Y-80001949D01*
X263466031Y-79954330D01*
X263418412Y-79906711D01*
X263370793Y-79954330D01*
X263466031Y-79954330D01*
X263989841Y-80954330D02*
X263989841Y-80382901D01*
X263989841Y-80668615D02*
X262989841Y-80668615D01*
X263132698Y-80573377D01*
X263227936Y-80478139D01*
X263275555Y-80382901D01*
X262989841Y-81287663D02*
X262989841Y-81906711D01*
X263370793Y-81573377D01*
X263370793Y-81716235D01*
X263418412Y-81811473D01*
X263466031Y-81859092D01*
X263561270Y-81906711D01*
X263799365Y-81906711D01*
X263894603Y-81859092D01*
X263942222Y-81811473D01*
X263989841Y-81716235D01*
X263989841Y-81430520D01*
X263942222Y-81335282D01*
X263894603Y-81287663D01*
X263989841Y-58001949D02*
X262989841Y-58001949D01*
X262989841Y-58240044D01*
X263037460Y-58382902D01*
X263132698Y-58478140D01*
X263227936Y-58525759D01*
X263418412Y-58573378D01*
X263561270Y-58573378D01*
X263751746Y-58525759D01*
X263846984Y-58478140D01*
X263942222Y-58382902D01*
X263989841Y-58240044D01*
X263989841Y-58001949D01*
X263085079Y-58954330D02*
X263037460Y-59001949D01*
X262989841Y-59097187D01*
X262989841Y-59335283D01*
X263037460Y-59430521D01*
X263085079Y-59478140D01*
X263180317Y-59525759D01*
X263275555Y-59525759D01*
X263418412Y-59478140D01*
X263989841Y-58906711D01*
X263989841Y-59525759D01*
X263894603Y-59954330D02*
X263942222Y-60001949D01*
X263989841Y-59954330D01*
X263942222Y-59906711D01*
X263894603Y-59954330D01*
X263989841Y-59954330D01*
X263370793Y-59954330D02*
X263418412Y-60001949D01*
X263466031Y-59954330D01*
X263418412Y-59906711D01*
X263370793Y-59954330D01*
X263466031Y-59954330D01*
X263989841Y-60954330D02*
X263989841Y-60382901D01*
X263989841Y-60668615D02*
X262989841Y-60668615D01*
X263132698Y-60573377D01*
X263227936Y-60478139D01*
X263275555Y-60382901D01*
X262989841Y-61287663D02*
X262989841Y-61906711D01*
X263370793Y-61573377D01*
X263370793Y-61716235D01*
X263418412Y-61811473D01*
X263466031Y-61859092D01*
X263561270Y-61906711D01*
X263799365Y-61906711D01*
X263894603Y-61859092D01*
X263942222Y-61811473D01*
X263989841Y-61716235D01*
X263989841Y-61430520D01*
X263942222Y-61335282D01*
X263894603Y-61287663D01*
X244989841Y-58001949D02*
X243989841Y-58001949D01*
X243989841Y-58240044D01*
X244037460Y-58382902D01*
X244132698Y-58478140D01*
X244227936Y-58525759D01*
X244418412Y-58573378D01*
X244561270Y-58573378D01*
X244751746Y-58525759D01*
X244846984Y-58478140D01*
X244942222Y-58382902D01*
X244989841Y-58240044D01*
X244989841Y-58001949D01*
X244085079Y-58954330D02*
X244037460Y-59001949D01*
X243989841Y-59097187D01*
X243989841Y-59335283D01*
X244037460Y-59430521D01*
X244085079Y-59478140D01*
X244180317Y-59525759D01*
X244275555Y-59525759D01*
X244418412Y-59478140D01*
X244989841Y-58906711D01*
X244989841Y-59525759D01*
X244894603Y-59954330D02*
X244942222Y-60001949D01*
X244989841Y-59954330D01*
X244942222Y-59906711D01*
X244894603Y-59954330D01*
X244989841Y-59954330D01*
X244370793Y-59954330D02*
X244418412Y-60001949D01*
X244466031Y-59954330D01*
X244418412Y-59906711D01*
X244370793Y-59954330D01*
X244466031Y-59954330D01*
X244989841Y-60954330D02*
X244989841Y-60382901D01*
X244989841Y-60668615D02*
X243989841Y-60668615D01*
X244132698Y-60573377D01*
X244227936Y-60478139D01*
X244275555Y-60382901D01*
X244085079Y-61335282D02*
X244037460Y-61382901D01*
X243989841Y-61478139D01*
X243989841Y-61716235D01*
X244037460Y-61811473D01*
X244085079Y-61859092D01*
X244180317Y-61906711D01*
X244275555Y-61906711D01*
X244418412Y-61859092D01*
X244989841Y-61287663D01*
X244989841Y-61906711D01*
X225989841Y-58501949D02*
X224989841Y-58501949D01*
X224989841Y-58740044D01*
X225037460Y-58882902D01*
X225132698Y-58978140D01*
X225227936Y-59025759D01*
X225418412Y-59073378D01*
X225561270Y-59073378D01*
X225751746Y-59025759D01*
X225846984Y-58978140D01*
X225942222Y-58882902D01*
X225989841Y-58740044D01*
X225989841Y-58501949D01*
X225085079Y-59454330D02*
X225037460Y-59501949D01*
X224989841Y-59597187D01*
X224989841Y-59835283D01*
X225037460Y-59930521D01*
X225085079Y-59978140D01*
X225180317Y-60025759D01*
X225275555Y-60025759D01*
X225418412Y-59978140D01*
X225989841Y-59406711D01*
X225989841Y-60025759D01*
X225894603Y-60454330D02*
X225942222Y-60501949D01*
X225989841Y-60454330D01*
X225942222Y-60406711D01*
X225894603Y-60454330D01*
X225989841Y-60454330D01*
X225370793Y-60454330D02*
X225418412Y-60501949D01*
X225466031Y-60454330D01*
X225418412Y-60406711D01*
X225370793Y-60454330D01*
X225466031Y-60454330D01*
X225989841Y-61454330D02*
X225989841Y-60882901D01*
X225989841Y-61168615D02*
X224989841Y-61168615D01*
X225132698Y-61073377D01*
X225227936Y-60978139D01*
X225275555Y-60882901D01*
X225989841Y-62406711D02*
X225989841Y-61835282D01*
X225989841Y-62120996D02*
X224989841Y-62120996D01*
X225132698Y-62025758D01*
X225227936Y-61930520D01*
X225275555Y-61835282D01*
X206989841Y-58001949D02*
X205989841Y-58001949D01*
X205989841Y-58240044D01*
X206037460Y-58382902D01*
X206132698Y-58478140D01*
X206227936Y-58525759D01*
X206418412Y-58573378D01*
X206561270Y-58573378D01*
X206751746Y-58525759D01*
X206846984Y-58478140D01*
X206942222Y-58382902D01*
X206989841Y-58240044D01*
X206989841Y-58001949D01*
X206085079Y-58954330D02*
X206037460Y-59001949D01*
X205989841Y-59097187D01*
X205989841Y-59335283D01*
X206037460Y-59430521D01*
X206085079Y-59478140D01*
X206180317Y-59525759D01*
X206275555Y-59525759D01*
X206418412Y-59478140D01*
X206989841Y-58906711D01*
X206989841Y-59525759D01*
X206894603Y-59954330D02*
X206942222Y-60001949D01*
X206989841Y-59954330D01*
X206942222Y-59906711D01*
X206894603Y-59954330D01*
X206989841Y-59954330D01*
X206370793Y-59954330D02*
X206418412Y-60001949D01*
X206466031Y-59954330D01*
X206418412Y-59906711D01*
X206370793Y-59954330D01*
X206466031Y-59954330D01*
X206989841Y-60954330D02*
X206989841Y-60382901D01*
X206989841Y-60668615D02*
X205989841Y-60668615D01*
X206132698Y-60573377D01*
X206227936Y-60478139D01*
X206275555Y-60382901D01*
X205989841Y-61573377D02*
X205989841Y-61668616D01*
X206037460Y-61763854D01*
X206085079Y-61811473D01*
X206180317Y-61859092D01*
X206370793Y-61906711D01*
X206608889Y-61906711D01*
X206799365Y-61859092D01*
X206894603Y-61811473D01*
X206942222Y-61763854D01*
X206989841Y-61668616D01*
X206989841Y-61573377D01*
X206942222Y-61478139D01*
X206894603Y-61430520D01*
X206799365Y-61382901D01*
X206608889Y-61335282D01*
X206370793Y-61335282D01*
X206180317Y-61382901D01*
X206085079Y-61430520D01*
X206037460Y-61478139D01*
X205989841Y-61573377D01*
X187989841Y-61478139D02*
X186989841Y-61478139D01*
X186989841Y-61716234D01*
X187037460Y-61859092D01*
X187132698Y-61954330D01*
X187227936Y-62001949D01*
X187418412Y-62049568D01*
X187561270Y-62049568D01*
X187751746Y-62001949D01*
X187846984Y-61954330D01*
X187942222Y-61859092D01*
X187989841Y-61716234D01*
X187989841Y-61478139D01*
X187085079Y-62430520D02*
X187037460Y-62478139D01*
X186989841Y-62573377D01*
X186989841Y-62811473D01*
X187037460Y-62906711D01*
X187085079Y-62954330D01*
X187180317Y-63001949D01*
X187275555Y-63001949D01*
X187418412Y-62954330D01*
X187989841Y-62382901D01*
X187989841Y-63001949D01*
X187894603Y-63430520D02*
X187942222Y-63478139D01*
X187989841Y-63430520D01*
X187942222Y-63382901D01*
X187894603Y-63430520D01*
X187989841Y-63430520D01*
X187370793Y-63430520D02*
X187418412Y-63478139D01*
X187466031Y-63430520D01*
X187418412Y-63382901D01*
X187370793Y-63430520D01*
X187466031Y-63430520D01*
X187989841Y-63954329D02*
X187989841Y-64144805D01*
X187942222Y-64240044D01*
X187894603Y-64287663D01*
X187751746Y-64382901D01*
X187561270Y-64430520D01*
X187180317Y-64430520D01*
X187085079Y-64382901D01*
X187037460Y-64335282D01*
X186989841Y-64240044D01*
X186989841Y-64049567D01*
X187037460Y-63954329D01*
X187085079Y-63906710D01*
X187180317Y-63859091D01*
X187418412Y-63859091D01*
X187513650Y-63906710D01*
X187561270Y-63954329D01*
X187608889Y-64049567D01*
X187608889Y-64240044D01*
X187561270Y-64335282D01*
X187513650Y-64382901D01*
X187418412Y-64430520D01*
X168989841Y-58478139D02*
X167989841Y-58478139D01*
X167989841Y-58716234D01*
X168037460Y-58859092D01*
X168132698Y-58954330D01*
X168227936Y-59001949D01*
X168418412Y-59049568D01*
X168561270Y-59049568D01*
X168751746Y-59001949D01*
X168846984Y-58954330D01*
X168942222Y-58859092D01*
X168989841Y-58716234D01*
X168989841Y-58478139D01*
X168085079Y-59430520D02*
X168037460Y-59478139D01*
X167989841Y-59573377D01*
X167989841Y-59811473D01*
X168037460Y-59906711D01*
X168085079Y-59954330D01*
X168180317Y-60001949D01*
X168275555Y-60001949D01*
X168418412Y-59954330D01*
X168989841Y-59382901D01*
X168989841Y-60001949D01*
X168894603Y-60430520D02*
X168942222Y-60478139D01*
X168989841Y-60430520D01*
X168942222Y-60382901D01*
X168894603Y-60430520D01*
X168989841Y-60430520D01*
X168370793Y-60430520D02*
X168418412Y-60478139D01*
X168466031Y-60430520D01*
X168418412Y-60382901D01*
X168370793Y-60430520D01*
X168466031Y-60430520D01*
X168418412Y-61049567D02*
X168370793Y-60954329D01*
X168323174Y-60906710D01*
X168227936Y-60859091D01*
X168180317Y-60859091D01*
X168085079Y-60906710D01*
X168037460Y-60954329D01*
X167989841Y-61049567D01*
X167989841Y-61240044D01*
X168037460Y-61335282D01*
X168085079Y-61382901D01*
X168180317Y-61430520D01*
X168227936Y-61430520D01*
X168323174Y-61382901D01*
X168370793Y-61335282D01*
X168418412Y-61240044D01*
X168418412Y-61049567D01*
X168466031Y-60954329D01*
X168513650Y-60906710D01*
X168608889Y-60859091D01*
X168799365Y-60859091D01*
X168894603Y-60906710D01*
X168942222Y-60954329D01*
X168989841Y-61049567D01*
X168989841Y-61240044D01*
X168942222Y-61335282D01*
X168894603Y-61382901D01*
X168799365Y-61430520D01*
X168608889Y-61430520D01*
X168513650Y-61382901D01*
X168466031Y-61335282D01*
X168418412Y-61240044D01*
X158882901Y-65914921D02*
X158882901Y-64914921D01*
X158644806Y-64914921D01*
X158501948Y-64962540D01*
X158406710Y-65057778D01*
X158359091Y-65153016D01*
X158311472Y-65343492D01*
X158311472Y-65486350D01*
X158359091Y-65676826D01*
X158406710Y-65772064D01*
X158501948Y-65867302D01*
X158644806Y-65914921D01*
X158882901Y-65914921D01*
X157930520Y-65010159D02*
X157882901Y-64962540D01*
X157787663Y-64914921D01*
X157549567Y-64914921D01*
X157454329Y-64962540D01*
X157406710Y-65010159D01*
X157359091Y-65105397D01*
X157359091Y-65200635D01*
X157406710Y-65343492D01*
X157978139Y-65914921D01*
X157359091Y-65914921D01*
X156930520Y-65819683D02*
X156882901Y-65867302D01*
X156930520Y-65914921D01*
X156978139Y-65867302D01*
X156930520Y-65819683D01*
X156930520Y-65914921D01*
X156930520Y-65295873D02*
X156882901Y-65343492D01*
X156930520Y-65391111D01*
X156978139Y-65343492D01*
X156930520Y-65295873D01*
X156930520Y-65391111D01*
X156549568Y-64914921D02*
X155882901Y-64914921D01*
X156311473Y-65914921D01*
X137021861Y-70989841D02*
X137021861Y-69989841D01*
X136783766Y-69989841D01*
X136640908Y-70037460D01*
X136545670Y-70132698D01*
X136498051Y-70227936D01*
X136450432Y-70418412D01*
X136450432Y-70561270D01*
X136498051Y-70751746D01*
X136545670Y-70846984D01*
X136640908Y-70942222D01*
X136783766Y-70989841D01*
X137021861Y-70989841D01*
X136069480Y-70085079D02*
X136021861Y-70037460D01*
X135926623Y-69989841D01*
X135688527Y-69989841D01*
X135593289Y-70037460D01*
X135545670Y-70085079D01*
X135498051Y-70180317D01*
X135498051Y-70275555D01*
X135545670Y-70418412D01*
X136117099Y-70989841D01*
X135498051Y-70989841D01*
X135069480Y-70894603D02*
X135021861Y-70942222D01*
X135069480Y-70989841D01*
X135117099Y-70942222D01*
X135069480Y-70894603D01*
X135069480Y-70989841D01*
X135069480Y-70370793D02*
X135021861Y-70418412D01*
X135069480Y-70466031D01*
X135117099Y-70418412D01*
X135069480Y-70370793D01*
X135069480Y-70466031D01*
X134164718Y-69989841D02*
X134355195Y-69989841D01*
X134450433Y-70037460D01*
X134498052Y-70085079D01*
X134593290Y-70227936D01*
X134640909Y-70418412D01*
X134640909Y-70799365D01*
X134593290Y-70894603D01*
X134545671Y-70942222D01*
X134450433Y-70989841D01*
X134259956Y-70989841D01*
X134164718Y-70942222D01*
X134117099Y-70894603D01*
X134069480Y-70799365D01*
X134069480Y-70561270D01*
X134117099Y-70466031D01*
X134164718Y-70418412D01*
X134259956Y-70370793D01*
X134450433Y-70370793D01*
X134545671Y-70418412D01*
X134593290Y-70466031D01*
X134640909Y-70561270D01*
X128489841Y-58978139D02*
X127489841Y-58978139D01*
X127489841Y-59216234D01*
X127537460Y-59359092D01*
X127632698Y-59454330D01*
X127727936Y-59501949D01*
X127918412Y-59549568D01*
X128061270Y-59549568D01*
X128251746Y-59501949D01*
X128346984Y-59454330D01*
X128442222Y-59359092D01*
X128489841Y-59216234D01*
X128489841Y-58978139D01*
X127585079Y-59930520D02*
X127537460Y-59978139D01*
X127489841Y-60073377D01*
X127489841Y-60311473D01*
X127537460Y-60406711D01*
X127585079Y-60454330D01*
X127680317Y-60501949D01*
X127775555Y-60501949D01*
X127918412Y-60454330D01*
X128489841Y-59882901D01*
X128489841Y-60501949D01*
X128394603Y-60930520D02*
X128442222Y-60978139D01*
X128489841Y-60930520D01*
X128442222Y-60882901D01*
X128394603Y-60930520D01*
X128489841Y-60930520D01*
X127870793Y-60930520D02*
X127918412Y-60978139D01*
X127966031Y-60930520D01*
X127918412Y-60882901D01*
X127870793Y-60930520D01*
X127966031Y-60930520D01*
X127489841Y-61882901D02*
X127489841Y-61406710D01*
X127966031Y-61359091D01*
X127918412Y-61406710D01*
X127870793Y-61501948D01*
X127870793Y-61740044D01*
X127918412Y-61835282D01*
X127966031Y-61882901D01*
X128061270Y-61930520D01*
X128299365Y-61930520D01*
X128394603Y-61882901D01*
X128442222Y-61835282D01*
X128489841Y-61740044D01*
X128489841Y-61501948D01*
X128442222Y-61406710D01*
X128394603Y-61359091D01*
X108989841Y-58978139D02*
X107989841Y-58978139D01*
X107989841Y-59216234D01*
X108037460Y-59359092D01*
X108132698Y-59454330D01*
X108227936Y-59501949D01*
X108418412Y-59549568D01*
X108561270Y-59549568D01*
X108751746Y-59501949D01*
X108846984Y-59454330D01*
X108942222Y-59359092D01*
X108989841Y-59216234D01*
X108989841Y-58978139D01*
X108085079Y-59930520D02*
X108037460Y-59978139D01*
X107989841Y-60073377D01*
X107989841Y-60311473D01*
X108037460Y-60406711D01*
X108085079Y-60454330D01*
X108180317Y-60501949D01*
X108275555Y-60501949D01*
X108418412Y-60454330D01*
X108989841Y-59882901D01*
X108989841Y-60501949D01*
X108894603Y-60930520D02*
X108942222Y-60978139D01*
X108989841Y-60930520D01*
X108942222Y-60882901D01*
X108894603Y-60930520D01*
X108989841Y-60930520D01*
X108370793Y-60930520D02*
X108418412Y-60978139D01*
X108466031Y-60930520D01*
X108418412Y-60882901D01*
X108370793Y-60930520D01*
X108466031Y-60930520D01*
X108323174Y-61835282D02*
X108989841Y-61835282D01*
X107942222Y-61597186D02*
X108656508Y-61359091D01*
X108656508Y-61978139D01*
X89989841Y-58978139D02*
X88989841Y-58978139D01*
X88989841Y-59216234D01*
X89037460Y-59359092D01*
X89132698Y-59454330D01*
X89227936Y-59501949D01*
X89418412Y-59549568D01*
X89561270Y-59549568D01*
X89751746Y-59501949D01*
X89846984Y-59454330D01*
X89942222Y-59359092D01*
X89989841Y-59216234D01*
X89989841Y-58978139D01*
X89085079Y-59930520D02*
X89037460Y-59978139D01*
X88989841Y-60073377D01*
X88989841Y-60311473D01*
X89037460Y-60406711D01*
X89085079Y-60454330D01*
X89180317Y-60501949D01*
X89275555Y-60501949D01*
X89418412Y-60454330D01*
X89989841Y-59882901D01*
X89989841Y-60501949D01*
X89894603Y-60930520D02*
X89942222Y-60978139D01*
X89989841Y-60930520D01*
X89942222Y-60882901D01*
X89894603Y-60930520D01*
X89989841Y-60930520D01*
X89370793Y-60930520D02*
X89418412Y-60978139D01*
X89466031Y-60930520D01*
X89418412Y-60882901D01*
X89370793Y-60930520D01*
X89466031Y-60930520D01*
X88989841Y-61311472D02*
X88989841Y-61930520D01*
X89370793Y-61597186D01*
X89370793Y-61740044D01*
X89418412Y-61835282D01*
X89466031Y-61882901D01*
X89561270Y-61930520D01*
X89799365Y-61930520D01*
X89894603Y-61882901D01*
X89942222Y-61835282D01*
X89989841Y-61740044D01*
X89989841Y-61454329D01*
X89942222Y-61359091D01*
X89894603Y-61311472D01*
X70989841Y-58978139D02*
X69989841Y-58978139D01*
X69989841Y-59216234D01*
X70037460Y-59359092D01*
X70132698Y-59454330D01*
X70227936Y-59501949D01*
X70418412Y-59549568D01*
X70561270Y-59549568D01*
X70751746Y-59501949D01*
X70846984Y-59454330D01*
X70942222Y-59359092D01*
X70989841Y-59216234D01*
X70989841Y-58978139D01*
X70085079Y-59930520D02*
X70037460Y-59978139D01*
X69989841Y-60073377D01*
X69989841Y-60311473D01*
X70037460Y-60406711D01*
X70085079Y-60454330D01*
X70180317Y-60501949D01*
X70275555Y-60501949D01*
X70418412Y-60454330D01*
X70989841Y-59882901D01*
X70989841Y-60501949D01*
X70894603Y-60930520D02*
X70942222Y-60978139D01*
X70989841Y-60930520D01*
X70942222Y-60882901D01*
X70894603Y-60930520D01*
X70989841Y-60930520D01*
X70370793Y-60930520D02*
X70418412Y-60978139D01*
X70466031Y-60930520D01*
X70418412Y-60882901D01*
X70370793Y-60930520D01*
X70466031Y-60930520D01*
X70085079Y-61359091D02*
X70037460Y-61406710D01*
X69989841Y-61501948D01*
X69989841Y-61740044D01*
X70037460Y-61835282D01*
X70085079Y-61882901D01*
X70180317Y-61930520D01*
X70275555Y-61930520D01*
X70418412Y-61882901D01*
X70989841Y-61311472D01*
X70989841Y-61930520D01*
X52489841Y-58978139D02*
X51489841Y-58978139D01*
X51489841Y-59216234D01*
X51537460Y-59359092D01*
X51632698Y-59454330D01*
X51727936Y-59501949D01*
X51918412Y-59549568D01*
X52061270Y-59549568D01*
X52251746Y-59501949D01*
X52346984Y-59454330D01*
X52442222Y-59359092D01*
X52489841Y-59216234D01*
X52489841Y-58978139D01*
X51585079Y-59930520D02*
X51537460Y-59978139D01*
X51489841Y-60073377D01*
X51489841Y-60311473D01*
X51537460Y-60406711D01*
X51585079Y-60454330D01*
X51680317Y-60501949D01*
X51775555Y-60501949D01*
X51918412Y-60454330D01*
X52489841Y-59882901D01*
X52489841Y-60501949D01*
X52394603Y-60930520D02*
X52442222Y-60978139D01*
X52489841Y-60930520D01*
X52442222Y-60882901D01*
X52394603Y-60930520D01*
X52489841Y-60930520D01*
X51870793Y-60930520D02*
X51918412Y-60978139D01*
X51966031Y-60930520D01*
X51918412Y-60882901D01*
X51870793Y-60930520D01*
X51966031Y-60930520D01*
X52489841Y-61930520D02*
X52489841Y-61359091D01*
X52489841Y-61644805D02*
X51489841Y-61644805D01*
X51632698Y-61549567D01*
X51727936Y-61454329D01*
X51775555Y-61359091D01*
X33489841Y-59478139D02*
X32489841Y-59478139D01*
X32489841Y-59716234D01*
X32537460Y-59859092D01*
X32632698Y-59954330D01*
X32727936Y-60001949D01*
X32918412Y-60049568D01*
X33061270Y-60049568D01*
X33251746Y-60001949D01*
X33346984Y-59954330D01*
X33442222Y-59859092D01*
X33489841Y-59716234D01*
X33489841Y-59478139D01*
X32585079Y-60430520D02*
X32537460Y-60478139D01*
X32489841Y-60573377D01*
X32489841Y-60811473D01*
X32537460Y-60906711D01*
X32585079Y-60954330D01*
X32680317Y-61001949D01*
X32775555Y-61001949D01*
X32918412Y-60954330D01*
X33489841Y-60382901D01*
X33489841Y-61001949D01*
X33394603Y-61430520D02*
X33442222Y-61478139D01*
X33489841Y-61430520D01*
X33442222Y-61382901D01*
X33394603Y-61430520D01*
X33489841Y-61430520D01*
X32870793Y-61430520D02*
X32918412Y-61478139D01*
X32966031Y-61430520D01*
X32918412Y-61382901D01*
X32870793Y-61430520D01*
X32966031Y-61430520D01*
X32489841Y-62097186D02*
X32489841Y-62192425D01*
X32537460Y-62287663D01*
X32585079Y-62335282D01*
X32680317Y-62382901D01*
X32870793Y-62430520D01*
X33108889Y-62430520D01*
X33299365Y-62382901D01*
X33394603Y-62335282D01*
X33442222Y-62287663D01*
X33489841Y-62192425D01*
X33489841Y-62097186D01*
X33442222Y-62001948D01*
X33394603Y-61954329D01*
X33299365Y-61906710D01*
X33108889Y-61859091D01*
X32870793Y-61859091D01*
X32680317Y-61906710D01*
X32585079Y-61954329D01*
X32537460Y-62001948D01*
X32489841Y-62097186D01*
X33164841Y-39853139D02*
X32164841Y-39853139D01*
X32164841Y-40091234D01*
X32212460Y-40234092D01*
X32307698Y-40329330D01*
X32402936Y-40376949D01*
X32593412Y-40424568D01*
X32736270Y-40424568D01*
X32926746Y-40376949D01*
X33021984Y-40329330D01*
X33117222Y-40234092D01*
X33164841Y-40091234D01*
X33164841Y-39853139D01*
X32164841Y-40757901D02*
X32164841Y-41376949D01*
X32545793Y-41043615D01*
X32545793Y-41186473D01*
X32593412Y-41281711D01*
X32641031Y-41329330D01*
X32736270Y-41376949D01*
X32974365Y-41376949D01*
X33069603Y-41329330D01*
X33117222Y-41281711D01*
X33164841Y-41186473D01*
X33164841Y-40900758D01*
X33117222Y-40805520D01*
X33069603Y-40757901D01*
X33069603Y-41805520D02*
X33117222Y-41853139D01*
X33164841Y-41805520D01*
X33117222Y-41757901D01*
X33069603Y-41805520D01*
X33164841Y-41805520D01*
X32545793Y-41805520D02*
X32593412Y-41853139D01*
X32641031Y-41805520D01*
X32593412Y-41757901D01*
X32545793Y-41805520D01*
X32641031Y-41805520D01*
X32164841Y-42472186D02*
X32164841Y-42567425D01*
X32212460Y-42662663D01*
X32260079Y-42710282D01*
X32355317Y-42757901D01*
X32545793Y-42805520D01*
X32783889Y-42805520D01*
X32974365Y-42757901D01*
X33069603Y-42710282D01*
X33117222Y-42662663D01*
X33164841Y-42567425D01*
X33164841Y-42472186D01*
X33117222Y-42376948D01*
X33069603Y-42329329D01*
X32974365Y-42281710D01*
X32783889Y-42234091D01*
X32545793Y-42234091D01*
X32355317Y-42281710D01*
X32260079Y-42329329D01*
X32212460Y-42376948D01*
X32164841Y-42472186D01*
X52214841Y-39853139D02*
X51214841Y-39853139D01*
X51214841Y-40091234D01*
X51262460Y-40234092D01*
X51357698Y-40329330D01*
X51452936Y-40376949D01*
X51643412Y-40424568D01*
X51786270Y-40424568D01*
X51976746Y-40376949D01*
X52071984Y-40329330D01*
X52167222Y-40234092D01*
X52214841Y-40091234D01*
X52214841Y-39853139D01*
X51214841Y-40757901D02*
X51214841Y-41376949D01*
X51595793Y-41043615D01*
X51595793Y-41186473D01*
X51643412Y-41281711D01*
X51691031Y-41329330D01*
X51786270Y-41376949D01*
X52024365Y-41376949D01*
X52119603Y-41329330D01*
X52167222Y-41281711D01*
X52214841Y-41186473D01*
X52214841Y-40900758D01*
X52167222Y-40805520D01*
X52119603Y-40757901D01*
X52119603Y-41805520D02*
X52167222Y-41853139D01*
X52214841Y-41805520D01*
X52167222Y-41757901D01*
X52119603Y-41805520D01*
X52214841Y-41805520D01*
X51595793Y-41805520D02*
X51643412Y-41853139D01*
X51691031Y-41805520D01*
X51643412Y-41757901D01*
X51595793Y-41805520D01*
X51691031Y-41805520D01*
X52214841Y-42805520D02*
X52214841Y-42234091D01*
X52214841Y-42519805D02*
X51214841Y-42519805D01*
X51357698Y-42424567D01*
X51452936Y-42329329D01*
X51500555Y-42234091D01*
X71214841Y-39853139D02*
X70214841Y-39853139D01*
X70214841Y-40091234D01*
X70262460Y-40234092D01*
X70357698Y-40329330D01*
X70452936Y-40376949D01*
X70643412Y-40424568D01*
X70786270Y-40424568D01*
X70976746Y-40376949D01*
X71071984Y-40329330D01*
X71167222Y-40234092D01*
X71214841Y-40091234D01*
X71214841Y-39853139D01*
X70214841Y-40757901D02*
X70214841Y-41376949D01*
X70595793Y-41043615D01*
X70595793Y-41186473D01*
X70643412Y-41281711D01*
X70691031Y-41329330D01*
X70786270Y-41376949D01*
X71024365Y-41376949D01*
X71119603Y-41329330D01*
X71167222Y-41281711D01*
X71214841Y-41186473D01*
X71214841Y-40900758D01*
X71167222Y-40805520D01*
X71119603Y-40757901D01*
X71119603Y-41805520D02*
X71167222Y-41853139D01*
X71214841Y-41805520D01*
X71167222Y-41757901D01*
X71119603Y-41805520D01*
X71214841Y-41805520D01*
X70595793Y-41805520D02*
X70643412Y-41853139D01*
X70691031Y-41805520D01*
X70643412Y-41757901D01*
X70595793Y-41805520D01*
X70691031Y-41805520D01*
X70310079Y-42234091D02*
X70262460Y-42281710D01*
X70214841Y-42376948D01*
X70214841Y-42615044D01*
X70262460Y-42710282D01*
X70310079Y-42757901D01*
X70405317Y-42805520D01*
X70500555Y-42805520D01*
X70643412Y-42757901D01*
X71214841Y-42186472D01*
X71214841Y-42805520D01*
X89989841Y-39803139D02*
X88989841Y-39803139D01*
X88989841Y-40041234D01*
X89037460Y-40184092D01*
X89132698Y-40279330D01*
X89227936Y-40326949D01*
X89418412Y-40374568D01*
X89561270Y-40374568D01*
X89751746Y-40326949D01*
X89846984Y-40279330D01*
X89942222Y-40184092D01*
X89989841Y-40041234D01*
X89989841Y-39803139D01*
X88989841Y-40707901D02*
X88989841Y-41326949D01*
X89370793Y-40993615D01*
X89370793Y-41136473D01*
X89418412Y-41231711D01*
X89466031Y-41279330D01*
X89561270Y-41326949D01*
X89799365Y-41326949D01*
X89894603Y-41279330D01*
X89942222Y-41231711D01*
X89989841Y-41136473D01*
X89989841Y-40850758D01*
X89942222Y-40755520D01*
X89894603Y-40707901D01*
X89894603Y-41755520D02*
X89942222Y-41803139D01*
X89989841Y-41755520D01*
X89942222Y-41707901D01*
X89894603Y-41755520D01*
X89989841Y-41755520D01*
X89370793Y-41755520D02*
X89418412Y-41803139D01*
X89466031Y-41755520D01*
X89418412Y-41707901D01*
X89370793Y-41755520D01*
X89466031Y-41755520D01*
X88989841Y-42136472D02*
X88989841Y-42755520D01*
X89370793Y-42422186D01*
X89370793Y-42565044D01*
X89418412Y-42660282D01*
X89466031Y-42707901D01*
X89561270Y-42755520D01*
X89799365Y-42755520D01*
X89894603Y-42707901D01*
X89942222Y-42660282D01*
X89989841Y-42565044D01*
X89989841Y-42279329D01*
X89942222Y-42184091D01*
X89894603Y-42136472D01*
X109214841Y-39753139D02*
X108214841Y-39753139D01*
X108214841Y-39991234D01*
X108262460Y-40134092D01*
X108357698Y-40229330D01*
X108452936Y-40276949D01*
X108643412Y-40324568D01*
X108786270Y-40324568D01*
X108976746Y-40276949D01*
X109071984Y-40229330D01*
X109167222Y-40134092D01*
X109214841Y-39991234D01*
X109214841Y-39753139D01*
X108214841Y-40657901D02*
X108214841Y-41276949D01*
X108595793Y-40943615D01*
X108595793Y-41086473D01*
X108643412Y-41181711D01*
X108691031Y-41229330D01*
X108786270Y-41276949D01*
X109024365Y-41276949D01*
X109119603Y-41229330D01*
X109167222Y-41181711D01*
X109214841Y-41086473D01*
X109214841Y-40800758D01*
X109167222Y-40705520D01*
X109119603Y-40657901D01*
X109119603Y-41705520D02*
X109167222Y-41753139D01*
X109214841Y-41705520D01*
X109167222Y-41657901D01*
X109119603Y-41705520D01*
X109214841Y-41705520D01*
X108595793Y-41705520D02*
X108643412Y-41753139D01*
X108691031Y-41705520D01*
X108643412Y-41657901D01*
X108595793Y-41705520D01*
X108691031Y-41705520D01*
X108548174Y-42610282D02*
X109214841Y-42610282D01*
X108167222Y-42372186D02*
X108881508Y-42134091D01*
X108881508Y-42753139D01*
X128164841Y-39803139D02*
X127164841Y-39803139D01*
X127164841Y-40041234D01*
X127212460Y-40184092D01*
X127307698Y-40279330D01*
X127402936Y-40326949D01*
X127593412Y-40374568D01*
X127736270Y-40374568D01*
X127926746Y-40326949D01*
X128021984Y-40279330D01*
X128117222Y-40184092D01*
X128164841Y-40041234D01*
X128164841Y-39803139D01*
X127164841Y-40707901D02*
X127164841Y-41326949D01*
X127545793Y-40993615D01*
X127545793Y-41136473D01*
X127593412Y-41231711D01*
X127641031Y-41279330D01*
X127736270Y-41326949D01*
X127974365Y-41326949D01*
X128069603Y-41279330D01*
X128117222Y-41231711D01*
X128164841Y-41136473D01*
X128164841Y-40850758D01*
X128117222Y-40755520D01*
X128069603Y-40707901D01*
X128069603Y-41755520D02*
X128117222Y-41803139D01*
X128164841Y-41755520D01*
X128117222Y-41707901D01*
X128069603Y-41755520D01*
X128164841Y-41755520D01*
X127545793Y-41755520D02*
X127593412Y-41803139D01*
X127641031Y-41755520D01*
X127593412Y-41707901D01*
X127545793Y-41755520D01*
X127641031Y-41755520D01*
X127164841Y-42707901D02*
X127164841Y-42231710D01*
X127641031Y-42184091D01*
X127593412Y-42231710D01*
X127545793Y-42326948D01*
X127545793Y-42565044D01*
X127593412Y-42660282D01*
X127641031Y-42707901D01*
X127736270Y-42755520D01*
X127974365Y-42755520D01*
X128069603Y-42707901D01*
X128117222Y-42660282D01*
X128164841Y-42565044D01*
X128164841Y-42326948D01*
X128117222Y-42231710D01*
X128069603Y-42184091D01*
X130889841Y-39803139D02*
X129889841Y-39803139D01*
X129889841Y-40041234D01*
X129937460Y-40184092D01*
X130032698Y-40279330D01*
X130127936Y-40326949D01*
X130318412Y-40374568D01*
X130461270Y-40374568D01*
X130651746Y-40326949D01*
X130746984Y-40279330D01*
X130842222Y-40184092D01*
X130889841Y-40041234D01*
X130889841Y-39803139D01*
X129889841Y-40707901D02*
X129889841Y-41326949D01*
X130270793Y-40993615D01*
X130270793Y-41136473D01*
X130318412Y-41231711D01*
X130366031Y-41279330D01*
X130461270Y-41326949D01*
X130699365Y-41326949D01*
X130794603Y-41279330D01*
X130842222Y-41231711D01*
X130889841Y-41136473D01*
X130889841Y-40850758D01*
X130842222Y-40755520D01*
X130794603Y-40707901D01*
X130794603Y-41755520D02*
X130842222Y-41803139D01*
X130889841Y-41755520D01*
X130842222Y-41707901D01*
X130794603Y-41755520D01*
X130889841Y-41755520D01*
X130270793Y-41755520D02*
X130318412Y-41803139D01*
X130366031Y-41755520D01*
X130318412Y-41707901D01*
X130270793Y-41755520D01*
X130366031Y-41755520D01*
X129889841Y-42660282D02*
X129889841Y-42469805D01*
X129937460Y-42374567D01*
X129985079Y-42326948D01*
X130127936Y-42231710D01*
X130318412Y-42184091D01*
X130699365Y-42184091D01*
X130794603Y-42231710D01*
X130842222Y-42279329D01*
X130889841Y-42374567D01*
X130889841Y-42565044D01*
X130842222Y-42660282D01*
X130794603Y-42707901D01*
X130699365Y-42755520D01*
X130461270Y-42755520D01*
X130366031Y-42707901D01*
X130318412Y-42660282D01*
X130270793Y-42565044D01*
X130270793Y-42374567D01*
X130318412Y-42279329D01*
X130366031Y-42231710D01*
X130461270Y-42184091D01*
X166214841Y-39803139D02*
X165214841Y-39803139D01*
X165214841Y-40041234D01*
X165262460Y-40184092D01*
X165357698Y-40279330D01*
X165452936Y-40326949D01*
X165643412Y-40374568D01*
X165786270Y-40374568D01*
X165976746Y-40326949D01*
X166071984Y-40279330D01*
X166167222Y-40184092D01*
X166214841Y-40041234D01*
X166214841Y-39803139D01*
X165214841Y-40707901D02*
X165214841Y-41326949D01*
X165595793Y-40993615D01*
X165595793Y-41136473D01*
X165643412Y-41231711D01*
X165691031Y-41279330D01*
X165786270Y-41326949D01*
X166024365Y-41326949D01*
X166119603Y-41279330D01*
X166167222Y-41231711D01*
X166214841Y-41136473D01*
X166214841Y-40850758D01*
X166167222Y-40755520D01*
X166119603Y-40707901D01*
X166119603Y-41755520D02*
X166167222Y-41803139D01*
X166214841Y-41755520D01*
X166167222Y-41707901D01*
X166119603Y-41755520D01*
X166214841Y-41755520D01*
X165595793Y-41755520D02*
X165643412Y-41803139D01*
X165691031Y-41755520D01*
X165643412Y-41707901D01*
X165595793Y-41755520D01*
X165691031Y-41755520D01*
X165214841Y-42136472D02*
X165214841Y-42803139D01*
X166214841Y-42374567D01*
X168889841Y-39853139D02*
X167889841Y-39853139D01*
X167889841Y-40091234D01*
X167937460Y-40234092D01*
X168032698Y-40329330D01*
X168127936Y-40376949D01*
X168318412Y-40424568D01*
X168461270Y-40424568D01*
X168651746Y-40376949D01*
X168746984Y-40329330D01*
X168842222Y-40234092D01*
X168889841Y-40091234D01*
X168889841Y-39853139D01*
X167889841Y-40757901D02*
X167889841Y-41376949D01*
X168270793Y-41043615D01*
X168270793Y-41186473D01*
X168318412Y-41281711D01*
X168366031Y-41329330D01*
X168461270Y-41376949D01*
X168699365Y-41376949D01*
X168794603Y-41329330D01*
X168842222Y-41281711D01*
X168889841Y-41186473D01*
X168889841Y-40900758D01*
X168842222Y-40805520D01*
X168794603Y-40757901D01*
X168794603Y-41805520D02*
X168842222Y-41853139D01*
X168889841Y-41805520D01*
X168842222Y-41757901D01*
X168794603Y-41805520D01*
X168889841Y-41805520D01*
X168270793Y-41805520D02*
X168318412Y-41853139D01*
X168366031Y-41805520D01*
X168318412Y-41757901D01*
X168270793Y-41805520D01*
X168366031Y-41805520D01*
X168318412Y-42424567D02*
X168270793Y-42329329D01*
X168223174Y-42281710D01*
X168127936Y-42234091D01*
X168080317Y-42234091D01*
X167985079Y-42281710D01*
X167937460Y-42329329D01*
X167889841Y-42424567D01*
X167889841Y-42615044D01*
X167937460Y-42710282D01*
X167985079Y-42757901D01*
X168080317Y-42805520D01*
X168127936Y-42805520D01*
X168223174Y-42757901D01*
X168270793Y-42710282D01*
X168318412Y-42615044D01*
X168318412Y-42424567D01*
X168366031Y-42329329D01*
X168413650Y-42281710D01*
X168508889Y-42234091D01*
X168699365Y-42234091D01*
X168794603Y-42281710D01*
X168842222Y-42329329D01*
X168889841Y-42424567D01*
X168889841Y-42615044D01*
X168842222Y-42710282D01*
X168794603Y-42757901D01*
X168699365Y-42805520D01*
X168508889Y-42805520D01*
X168413650Y-42757901D01*
X168366031Y-42710282D01*
X168318412Y-42615044D01*
X187989841Y-34978139D02*
X186989841Y-34978139D01*
X186989841Y-35216234D01*
X187037460Y-35359092D01*
X187132698Y-35454330D01*
X187227936Y-35501949D01*
X187418412Y-35549568D01*
X187561270Y-35549568D01*
X187751746Y-35501949D01*
X187846984Y-35454330D01*
X187942222Y-35359092D01*
X187989841Y-35216234D01*
X187989841Y-34978139D01*
X186989841Y-35882901D02*
X186989841Y-36501949D01*
X187370793Y-36168615D01*
X187370793Y-36311473D01*
X187418412Y-36406711D01*
X187466031Y-36454330D01*
X187561270Y-36501949D01*
X187799365Y-36501949D01*
X187894603Y-36454330D01*
X187942222Y-36406711D01*
X187989841Y-36311473D01*
X187989841Y-36025758D01*
X187942222Y-35930520D01*
X187894603Y-35882901D01*
X187894603Y-36930520D02*
X187942222Y-36978139D01*
X187989841Y-36930520D01*
X187942222Y-36882901D01*
X187894603Y-36930520D01*
X187989841Y-36930520D01*
X187370793Y-36930520D02*
X187418412Y-36978139D01*
X187466031Y-36930520D01*
X187418412Y-36882901D01*
X187370793Y-36930520D01*
X187466031Y-36930520D01*
X187989841Y-37454329D02*
X187989841Y-37644805D01*
X187942222Y-37740044D01*
X187894603Y-37787663D01*
X187751746Y-37882901D01*
X187561270Y-37930520D01*
X187180317Y-37930520D01*
X187085079Y-37882901D01*
X187037460Y-37835282D01*
X186989841Y-37740044D01*
X186989841Y-37549567D01*
X187037460Y-37454329D01*
X187085079Y-37406710D01*
X187180317Y-37359091D01*
X187418412Y-37359091D01*
X187513650Y-37406710D01*
X187561270Y-37454329D01*
X187608889Y-37549567D01*
X187608889Y-37740044D01*
X187561270Y-37835282D01*
X187513650Y-37882901D01*
X187418412Y-37930520D01*
X206889841Y-39326949D02*
X205889841Y-39326949D01*
X205889841Y-39565044D01*
X205937460Y-39707902D01*
X206032698Y-39803140D01*
X206127936Y-39850759D01*
X206318412Y-39898378D01*
X206461270Y-39898378D01*
X206651746Y-39850759D01*
X206746984Y-39803140D01*
X206842222Y-39707902D01*
X206889841Y-39565044D01*
X206889841Y-39326949D01*
X205889841Y-40231711D02*
X205889841Y-40850759D01*
X206270793Y-40517425D01*
X206270793Y-40660283D01*
X206318412Y-40755521D01*
X206366031Y-40803140D01*
X206461270Y-40850759D01*
X206699365Y-40850759D01*
X206794603Y-40803140D01*
X206842222Y-40755521D01*
X206889841Y-40660283D01*
X206889841Y-40374568D01*
X206842222Y-40279330D01*
X206794603Y-40231711D01*
X206794603Y-41279330D02*
X206842222Y-41326949D01*
X206889841Y-41279330D01*
X206842222Y-41231711D01*
X206794603Y-41279330D01*
X206889841Y-41279330D01*
X206270793Y-41279330D02*
X206318412Y-41326949D01*
X206366031Y-41279330D01*
X206318412Y-41231711D01*
X206270793Y-41279330D01*
X206366031Y-41279330D01*
X206889841Y-42279330D02*
X206889841Y-41707901D01*
X206889841Y-41993615D02*
X205889841Y-41993615D01*
X206032698Y-41898377D01*
X206127936Y-41803139D01*
X206175555Y-41707901D01*
X205889841Y-42898377D02*
X205889841Y-42993616D01*
X205937460Y-43088854D01*
X205985079Y-43136473D01*
X206080317Y-43184092D01*
X206270793Y-43231711D01*
X206508889Y-43231711D01*
X206699365Y-43184092D01*
X206794603Y-43136473D01*
X206842222Y-43088854D01*
X206889841Y-42993616D01*
X206889841Y-42898377D01*
X206842222Y-42803139D01*
X206794603Y-42755520D01*
X206699365Y-42707901D01*
X206508889Y-42660282D01*
X206270793Y-42660282D01*
X206080317Y-42707901D01*
X205985079Y-42755520D01*
X205937460Y-42803139D01*
X205889841Y-42898377D01*
X225889841Y-39376949D02*
X224889841Y-39376949D01*
X224889841Y-39615044D01*
X224937460Y-39757902D01*
X225032698Y-39853140D01*
X225127936Y-39900759D01*
X225318412Y-39948378D01*
X225461270Y-39948378D01*
X225651746Y-39900759D01*
X225746984Y-39853140D01*
X225842222Y-39757902D01*
X225889841Y-39615044D01*
X225889841Y-39376949D01*
X224889841Y-40281711D02*
X224889841Y-40900759D01*
X225270793Y-40567425D01*
X225270793Y-40710283D01*
X225318412Y-40805521D01*
X225366031Y-40853140D01*
X225461270Y-40900759D01*
X225699365Y-40900759D01*
X225794603Y-40853140D01*
X225842222Y-40805521D01*
X225889841Y-40710283D01*
X225889841Y-40424568D01*
X225842222Y-40329330D01*
X225794603Y-40281711D01*
X225794603Y-41329330D02*
X225842222Y-41376949D01*
X225889841Y-41329330D01*
X225842222Y-41281711D01*
X225794603Y-41329330D01*
X225889841Y-41329330D01*
X225270793Y-41329330D02*
X225318412Y-41376949D01*
X225366031Y-41329330D01*
X225318412Y-41281711D01*
X225270793Y-41329330D01*
X225366031Y-41329330D01*
X225889841Y-42329330D02*
X225889841Y-41757901D01*
X225889841Y-42043615D02*
X224889841Y-42043615D01*
X225032698Y-41948377D01*
X225127936Y-41853139D01*
X225175555Y-41757901D01*
X225889841Y-43281711D02*
X225889841Y-42710282D01*
X225889841Y-42995996D02*
X224889841Y-42995996D01*
X225032698Y-42900758D01*
X225127936Y-42805520D01*
X225175555Y-42710282D01*
X244889841Y-39376949D02*
X243889841Y-39376949D01*
X243889841Y-39615044D01*
X243937460Y-39757902D01*
X244032698Y-39853140D01*
X244127936Y-39900759D01*
X244318412Y-39948378D01*
X244461270Y-39948378D01*
X244651746Y-39900759D01*
X244746984Y-39853140D01*
X244842222Y-39757902D01*
X244889841Y-39615044D01*
X244889841Y-39376949D01*
X243889841Y-40281711D02*
X243889841Y-40900759D01*
X244270793Y-40567425D01*
X244270793Y-40710283D01*
X244318412Y-40805521D01*
X244366031Y-40853140D01*
X244461270Y-40900759D01*
X244699365Y-40900759D01*
X244794603Y-40853140D01*
X244842222Y-40805521D01*
X244889841Y-40710283D01*
X244889841Y-40424568D01*
X244842222Y-40329330D01*
X244794603Y-40281711D01*
X244794603Y-41329330D02*
X244842222Y-41376949D01*
X244889841Y-41329330D01*
X244842222Y-41281711D01*
X244794603Y-41329330D01*
X244889841Y-41329330D01*
X244270793Y-41329330D02*
X244318412Y-41376949D01*
X244366031Y-41329330D01*
X244318412Y-41281711D01*
X244270793Y-41329330D01*
X244366031Y-41329330D01*
X244889841Y-42329330D02*
X244889841Y-41757901D01*
X244889841Y-42043615D02*
X243889841Y-42043615D01*
X244032698Y-41948377D01*
X244127936Y-41853139D01*
X244175555Y-41757901D01*
X243985079Y-42710282D02*
X243937460Y-42757901D01*
X243889841Y-42853139D01*
X243889841Y-43091235D01*
X243937460Y-43186473D01*
X243985079Y-43234092D01*
X244080317Y-43281711D01*
X244175555Y-43281711D01*
X244318412Y-43234092D01*
X244889841Y-42662663D01*
X244889841Y-43281711D01*
X263989841Y-39551949D02*
X262989841Y-39551949D01*
X262989841Y-39790044D01*
X263037460Y-39932902D01*
X263132698Y-40028140D01*
X263227936Y-40075759D01*
X263418412Y-40123378D01*
X263561270Y-40123378D01*
X263751746Y-40075759D01*
X263846984Y-40028140D01*
X263942222Y-39932902D01*
X263989841Y-39790044D01*
X263989841Y-39551949D01*
X262989841Y-40456711D02*
X262989841Y-41075759D01*
X263370793Y-40742425D01*
X263370793Y-40885283D01*
X263418412Y-40980521D01*
X263466031Y-41028140D01*
X263561270Y-41075759D01*
X263799365Y-41075759D01*
X263894603Y-41028140D01*
X263942222Y-40980521D01*
X263989841Y-40885283D01*
X263989841Y-40599568D01*
X263942222Y-40504330D01*
X263894603Y-40456711D01*
X263894603Y-41504330D02*
X263942222Y-41551949D01*
X263989841Y-41504330D01*
X263942222Y-41456711D01*
X263894603Y-41504330D01*
X263989841Y-41504330D01*
X263370793Y-41504330D02*
X263418412Y-41551949D01*
X263466031Y-41504330D01*
X263418412Y-41456711D01*
X263370793Y-41504330D01*
X263466031Y-41504330D01*
X263989841Y-42504330D02*
X263989841Y-41932901D01*
X263989841Y-42218615D02*
X262989841Y-42218615D01*
X263132698Y-42123377D01*
X263227936Y-42028139D01*
X263275555Y-41932901D01*
X262989841Y-42837663D02*
X262989841Y-43456711D01*
X263370793Y-43123377D01*
X263370793Y-43266235D01*
X263418412Y-43361473D01*
X263466031Y-43409092D01*
X263561270Y-43456711D01*
X263799365Y-43456711D01*
X263894603Y-43409092D01*
X263942222Y-43361473D01*
X263989841Y-43266235D01*
X263989841Y-42980520D01*
X263942222Y-42885282D01*
X263894603Y-42837663D01*
X263964841Y-20351949D02*
X262964841Y-20351949D01*
X262964841Y-20590044D01*
X263012460Y-20732902D01*
X263107698Y-20828140D01*
X263202936Y-20875759D01*
X263393412Y-20923378D01*
X263536270Y-20923378D01*
X263726746Y-20875759D01*
X263821984Y-20828140D01*
X263917222Y-20732902D01*
X263964841Y-20590044D01*
X263964841Y-20351949D01*
X263298174Y-21780521D02*
X263964841Y-21780521D01*
X262917222Y-21542425D02*
X263631508Y-21304330D01*
X263631508Y-21923378D01*
X263869603Y-22304330D02*
X263917222Y-22351949D01*
X263964841Y-22304330D01*
X263917222Y-22256711D01*
X263869603Y-22304330D01*
X263964841Y-22304330D01*
X263345793Y-22304330D02*
X263393412Y-22351949D01*
X263441031Y-22304330D01*
X263393412Y-22256711D01*
X263345793Y-22304330D01*
X263441031Y-22304330D01*
X263964841Y-23304330D02*
X263964841Y-22732901D01*
X263964841Y-23018615D02*
X262964841Y-23018615D01*
X263107698Y-22923377D01*
X263202936Y-22828139D01*
X263250555Y-22732901D01*
X262964841Y-23637663D02*
X262964841Y-24256711D01*
X263345793Y-23923377D01*
X263345793Y-24066235D01*
X263393412Y-24161473D01*
X263441031Y-24209092D01*
X263536270Y-24256711D01*
X263774365Y-24256711D01*
X263869603Y-24209092D01*
X263917222Y-24161473D01*
X263964841Y-24066235D01*
X263964841Y-23780520D01*
X263917222Y-23685282D01*
X263869603Y-23637663D01*
X244989841Y-20351949D02*
X243989841Y-20351949D01*
X243989841Y-20590044D01*
X244037460Y-20732902D01*
X244132698Y-20828140D01*
X244227936Y-20875759D01*
X244418412Y-20923378D01*
X244561270Y-20923378D01*
X244751746Y-20875759D01*
X244846984Y-20828140D01*
X244942222Y-20732902D01*
X244989841Y-20590044D01*
X244989841Y-20351949D01*
X244323174Y-21780521D02*
X244989841Y-21780521D01*
X243942222Y-21542425D02*
X244656508Y-21304330D01*
X244656508Y-21923378D01*
X244894603Y-22304330D02*
X244942222Y-22351949D01*
X244989841Y-22304330D01*
X244942222Y-22256711D01*
X244894603Y-22304330D01*
X244989841Y-22304330D01*
X244370793Y-22304330D02*
X244418412Y-22351949D01*
X244466031Y-22304330D01*
X244418412Y-22256711D01*
X244370793Y-22304330D01*
X244466031Y-22304330D01*
X244989841Y-23304330D02*
X244989841Y-22732901D01*
X244989841Y-23018615D02*
X243989841Y-23018615D01*
X244132698Y-22923377D01*
X244227936Y-22828139D01*
X244275555Y-22732901D01*
X244085079Y-23685282D02*
X244037460Y-23732901D01*
X243989841Y-23828139D01*
X243989841Y-24066235D01*
X244037460Y-24161473D01*
X244085079Y-24209092D01*
X244180317Y-24256711D01*
X244275555Y-24256711D01*
X244418412Y-24209092D01*
X244989841Y-23637663D01*
X244989841Y-24256711D01*
X225989841Y-20276949D02*
X224989841Y-20276949D01*
X224989841Y-20515044D01*
X225037460Y-20657902D01*
X225132698Y-20753140D01*
X225227936Y-20800759D01*
X225418412Y-20848378D01*
X225561270Y-20848378D01*
X225751746Y-20800759D01*
X225846984Y-20753140D01*
X225942222Y-20657902D01*
X225989841Y-20515044D01*
X225989841Y-20276949D01*
X225323174Y-21705521D02*
X225989841Y-21705521D01*
X224942222Y-21467425D02*
X225656508Y-21229330D01*
X225656508Y-21848378D01*
X225894603Y-22229330D02*
X225942222Y-22276949D01*
X225989841Y-22229330D01*
X225942222Y-22181711D01*
X225894603Y-22229330D01*
X225989841Y-22229330D01*
X225370793Y-22229330D02*
X225418412Y-22276949D01*
X225466031Y-22229330D01*
X225418412Y-22181711D01*
X225370793Y-22229330D01*
X225466031Y-22229330D01*
X225989841Y-23229330D02*
X225989841Y-22657901D01*
X225989841Y-22943615D02*
X224989841Y-22943615D01*
X225132698Y-22848377D01*
X225227936Y-22753139D01*
X225275555Y-22657901D01*
X225989841Y-24181711D02*
X225989841Y-23610282D01*
X225989841Y-23895996D02*
X224989841Y-23895996D01*
X225132698Y-23800758D01*
X225227936Y-23705520D01*
X225275555Y-23610282D01*
X206864841Y-20276949D02*
X205864841Y-20276949D01*
X205864841Y-20515044D01*
X205912460Y-20657902D01*
X206007698Y-20753140D01*
X206102936Y-20800759D01*
X206293412Y-20848378D01*
X206436270Y-20848378D01*
X206626746Y-20800759D01*
X206721984Y-20753140D01*
X206817222Y-20657902D01*
X206864841Y-20515044D01*
X206864841Y-20276949D01*
X206198174Y-21705521D02*
X206864841Y-21705521D01*
X205817222Y-21467425D02*
X206531508Y-21229330D01*
X206531508Y-21848378D01*
X206769603Y-22229330D02*
X206817222Y-22276949D01*
X206864841Y-22229330D01*
X206817222Y-22181711D01*
X206769603Y-22229330D01*
X206864841Y-22229330D01*
X206245793Y-22229330D02*
X206293412Y-22276949D01*
X206341031Y-22229330D01*
X206293412Y-22181711D01*
X206245793Y-22229330D01*
X206341031Y-22229330D01*
X206864841Y-23229330D02*
X206864841Y-22657901D01*
X206864841Y-22943615D02*
X205864841Y-22943615D01*
X206007698Y-22848377D01*
X206102936Y-22753139D01*
X206150555Y-22657901D01*
X205864841Y-23848377D02*
X205864841Y-23943616D01*
X205912460Y-24038854D01*
X205960079Y-24086473D01*
X206055317Y-24134092D01*
X206245793Y-24181711D01*
X206483889Y-24181711D01*
X206674365Y-24134092D01*
X206769603Y-24086473D01*
X206817222Y-24038854D01*
X206864841Y-23943616D01*
X206864841Y-23848377D01*
X206817222Y-23753139D01*
X206769603Y-23705520D01*
X206674365Y-23657901D01*
X206483889Y-23610282D01*
X206245793Y-23610282D01*
X206055317Y-23657901D01*
X205960079Y-23705520D01*
X205912460Y-23753139D01*
X205864841Y-23848377D01*
X188014841Y-20778139D02*
X187014841Y-20778139D01*
X187014841Y-21016234D01*
X187062460Y-21159092D01*
X187157698Y-21254330D01*
X187252936Y-21301949D01*
X187443412Y-21349568D01*
X187586270Y-21349568D01*
X187776746Y-21301949D01*
X187871984Y-21254330D01*
X187967222Y-21159092D01*
X188014841Y-21016234D01*
X188014841Y-20778139D01*
X187348174Y-22206711D02*
X188014841Y-22206711D01*
X186967222Y-21968615D02*
X187681508Y-21730520D01*
X187681508Y-22349568D01*
X187919603Y-22730520D02*
X187967222Y-22778139D01*
X188014841Y-22730520D01*
X187967222Y-22682901D01*
X187919603Y-22730520D01*
X188014841Y-22730520D01*
X187395793Y-22730520D02*
X187443412Y-22778139D01*
X187491031Y-22730520D01*
X187443412Y-22682901D01*
X187395793Y-22730520D01*
X187491031Y-22730520D01*
X188014841Y-23254329D02*
X188014841Y-23444805D01*
X187967222Y-23540044D01*
X187919603Y-23587663D01*
X187776746Y-23682901D01*
X187586270Y-23730520D01*
X187205317Y-23730520D01*
X187110079Y-23682901D01*
X187062460Y-23635282D01*
X187014841Y-23540044D01*
X187014841Y-23349567D01*
X187062460Y-23254329D01*
X187110079Y-23206710D01*
X187205317Y-23159091D01*
X187443412Y-23159091D01*
X187538650Y-23206710D01*
X187586270Y-23254329D01*
X187633889Y-23349567D01*
X187633889Y-23540044D01*
X187586270Y-23635282D01*
X187538650Y-23682901D01*
X187443412Y-23730520D01*
X168989841Y-20753139D02*
X167989841Y-20753139D01*
X167989841Y-20991234D01*
X168037460Y-21134092D01*
X168132698Y-21229330D01*
X168227936Y-21276949D01*
X168418412Y-21324568D01*
X168561270Y-21324568D01*
X168751746Y-21276949D01*
X168846984Y-21229330D01*
X168942222Y-21134092D01*
X168989841Y-20991234D01*
X168989841Y-20753139D01*
X168323174Y-22181711D02*
X168989841Y-22181711D01*
X167942222Y-21943615D02*
X168656508Y-21705520D01*
X168656508Y-22324568D01*
X168894603Y-22705520D02*
X168942222Y-22753139D01*
X168989841Y-22705520D01*
X168942222Y-22657901D01*
X168894603Y-22705520D01*
X168989841Y-22705520D01*
X168370793Y-22705520D02*
X168418412Y-22753139D01*
X168466031Y-22705520D01*
X168418412Y-22657901D01*
X168370793Y-22705520D01*
X168466031Y-22705520D01*
X168418412Y-23324567D02*
X168370793Y-23229329D01*
X168323174Y-23181710D01*
X168227936Y-23134091D01*
X168180317Y-23134091D01*
X168085079Y-23181710D01*
X168037460Y-23229329D01*
X167989841Y-23324567D01*
X167989841Y-23515044D01*
X168037460Y-23610282D01*
X168085079Y-23657901D01*
X168180317Y-23705520D01*
X168227936Y-23705520D01*
X168323174Y-23657901D01*
X168370793Y-23610282D01*
X168418412Y-23515044D01*
X168418412Y-23324567D01*
X168466031Y-23229329D01*
X168513650Y-23181710D01*
X168608889Y-23134091D01*
X168799365Y-23134091D01*
X168894603Y-23181710D01*
X168942222Y-23229329D01*
X168989841Y-23324567D01*
X168989841Y-23515044D01*
X168942222Y-23610282D01*
X168894603Y-23657901D01*
X168799365Y-23705520D01*
X168608889Y-23705520D01*
X168513650Y-23657901D01*
X168466031Y-23610282D01*
X168418412Y-23515044D01*
X166239841Y-20753139D02*
X165239841Y-20753139D01*
X165239841Y-20991234D01*
X165287460Y-21134092D01*
X165382698Y-21229330D01*
X165477936Y-21276949D01*
X165668412Y-21324568D01*
X165811270Y-21324568D01*
X166001746Y-21276949D01*
X166096984Y-21229330D01*
X166192222Y-21134092D01*
X166239841Y-20991234D01*
X166239841Y-20753139D01*
X165573174Y-22181711D02*
X166239841Y-22181711D01*
X165192222Y-21943615D02*
X165906508Y-21705520D01*
X165906508Y-22324568D01*
X166144603Y-22705520D02*
X166192222Y-22753139D01*
X166239841Y-22705520D01*
X166192222Y-22657901D01*
X166144603Y-22705520D01*
X166239841Y-22705520D01*
X165620793Y-22705520D02*
X165668412Y-22753139D01*
X165716031Y-22705520D01*
X165668412Y-22657901D01*
X165620793Y-22705520D01*
X165716031Y-22705520D01*
X165239841Y-23086472D02*
X165239841Y-23753139D01*
X166239841Y-23324567D01*
X131014841Y-20878139D02*
X130014841Y-20878139D01*
X130014841Y-21116234D01*
X130062460Y-21259092D01*
X130157698Y-21354330D01*
X130252936Y-21401949D01*
X130443412Y-21449568D01*
X130586270Y-21449568D01*
X130776746Y-21401949D01*
X130871984Y-21354330D01*
X130967222Y-21259092D01*
X131014841Y-21116234D01*
X131014841Y-20878139D01*
X130348174Y-22306711D02*
X131014841Y-22306711D01*
X129967222Y-22068615D02*
X130681508Y-21830520D01*
X130681508Y-22449568D01*
X130919603Y-22830520D02*
X130967222Y-22878139D01*
X131014841Y-22830520D01*
X130967222Y-22782901D01*
X130919603Y-22830520D01*
X131014841Y-22830520D01*
X130395793Y-22830520D02*
X130443412Y-22878139D01*
X130491031Y-22830520D01*
X130443412Y-22782901D01*
X130395793Y-22830520D01*
X130491031Y-22830520D01*
X130014841Y-23735282D02*
X130014841Y-23544805D01*
X130062460Y-23449567D01*
X130110079Y-23401948D01*
X130252936Y-23306710D01*
X130443412Y-23259091D01*
X130824365Y-23259091D01*
X130919603Y-23306710D01*
X130967222Y-23354329D01*
X131014841Y-23449567D01*
X131014841Y-23640044D01*
X130967222Y-23735282D01*
X130919603Y-23782901D01*
X130824365Y-23830520D01*
X130586270Y-23830520D01*
X130491031Y-23782901D01*
X130443412Y-23735282D01*
X130395793Y-23640044D01*
X130395793Y-23449567D01*
X130443412Y-23354329D01*
X130491031Y-23306710D01*
X130586270Y-23259091D01*
X128464841Y-20853139D02*
X127464841Y-20853139D01*
X127464841Y-21091234D01*
X127512460Y-21234092D01*
X127607698Y-21329330D01*
X127702936Y-21376949D01*
X127893412Y-21424568D01*
X128036270Y-21424568D01*
X128226746Y-21376949D01*
X128321984Y-21329330D01*
X128417222Y-21234092D01*
X128464841Y-21091234D01*
X128464841Y-20853139D01*
X127798174Y-22281711D02*
X128464841Y-22281711D01*
X127417222Y-22043615D02*
X128131508Y-21805520D01*
X128131508Y-22424568D01*
X128369603Y-22805520D02*
X128417222Y-22853139D01*
X128464841Y-22805520D01*
X128417222Y-22757901D01*
X128369603Y-22805520D01*
X128464841Y-22805520D01*
X127845793Y-22805520D02*
X127893412Y-22853139D01*
X127941031Y-22805520D01*
X127893412Y-22757901D01*
X127845793Y-22805520D01*
X127941031Y-22805520D01*
X127464841Y-23757901D02*
X127464841Y-23281710D01*
X127941031Y-23234091D01*
X127893412Y-23281710D01*
X127845793Y-23376948D01*
X127845793Y-23615044D01*
X127893412Y-23710282D01*
X127941031Y-23757901D01*
X128036270Y-23805520D01*
X128274365Y-23805520D01*
X128369603Y-23757901D01*
X128417222Y-23710282D01*
X128464841Y-23615044D01*
X128464841Y-23376948D01*
X128417222Y-23281710D01*
X128369603Y-23234091D01*
X109489841Y-20903139D02*
X108489841Y-20903139D01*
X108489841Y-21141234D01*
X108537460Y-21284092D01*
X108632698Y-21379330D01*
X108727936Y-21426949D01*
X108918412Y-21474568D01*
X109061270Y-21474568D01*
X109251746Y-21426949D01*
X109346984Y-21379330D01*
X109442222Y-21284092D01*
X109489841Y-21141234D01*
X109489841Y-20903139D01*
X108823174Y-22331711D02*
X109489841Y-22331711D01*
X108442222Y-22093615D02*
X109156508Y-21855520D01*
X109156508Y-22474568D01*
X109394603Y-22855520D02*
X109442222Y-22903139D01*
X109489841Y-22855520D01*
X109442222Y-22807901D01*
X109394603Y-22855520D01*
X109489841Y-22855520D01*
X108870793Y-22855520D02*
X108918412Y-22903139D01*
X108966031Y-22855520D01*
X108918412Y-22807901D01*
X108870793Y-22855520D01*
X108966031Y-22855520D01*
X108823174Y-23760282D02*
X109489841Y-23760282D01*
X108442222Y-23522186D02*
X109156508Y-23284091D01*
X109156508Y-23903139D01*
X90489841Y-20853139D02*
X89489841Y-20853139D01*
X89489841Y-21091234D01*
X89537460Y-21234092D01*
X89632698Y-21329330D01*
X89727936Y-21376949D01*
X89918412Y-21424568D01*
X90061270Y-21424568D01*
X90251746Y-21376949D01*
X90346984Y-21329330D01*
X90442222Y-21234092D01*
X90489841Y-21091234D01*
X90489841Y-20853139D01*
X89823174Y-22281711D02*
X90489841Y-22281711D01*
X89442222Y-22043615D02*
X90156508Y-21805520D01*
X90156508Y-22424568D01*
X90394603Y-22805520D02*
X90442222Y-22853139D01*
X90489841Y-22805520D01*
X90442222Y-22757901D01*
X90394603Y-22805520D01*
X90489841Y-22805520D01*
X89870793Y-22805520D02*
X89918412Y-22853139D01*
X89966031Y-22805520D01*
X89918412Y-22757901D01*
X89870793Y-22805520D01*
X89966031Y-22805520D01*
X89489841Y-23186472D02*
X89489841Y-23805520D01*
X89870793Y-23472186D01*
X89870793Y-23615044D01*
X89918412Y-23710282D01*
X89966031Y-23757901D01*
X90061270Y-23805520D01*
X90299365Y-23805520D01*
X90394603Y-23757901D01*
X90442222Y-23710282D01*
X90489841Y-23615044D01*
X90489841Y-23329329D01*
X90442222Y-23234091D01*
X90394603Y-23186472D01*
X70964841Y-20903139D02*
X69964841Y-20903139D01*
X69964841Y-21141234D01*
X70012460Y-21284092D01*
X70107698Y-21379330D01*
X70202936Y-21426949D01*
X70393412Y-21474568D01*
X70536270Y-21474568D01*
X70726746Y-21426949D01*
X70821984Y-21379330D01*
X70917222Y-21284092D01*
X70964841Y-21141234D01*
X70964841Y-20903139D01*
X70298174Y-22331711D02*
X70964841Y-22331711D01*
X69917222Y-22093615D02*
X70631508Y-21855520D01*
X70631508Y-22474568D01*
X70869603Y-22855520D02*
X70917222Y-22903139D01*
X70964841Y-22855520D01*
X70917222Y-22807901D01*
X70869603Y-22855520D01*
X70964841Y-22855520D01*
X70345793Y-22855520D02*
X70393412Y-22903139D01*
X70441031Y-22855520D01*
X70393412Y-22807901D01*
X70345793Y-22855520D01*
X70441031Y-22855520D01*
X70060079Y-23284091D02*
X70012460Y-23331710D01*
X69964841Y-23426948D01*
X69964841Y-23665044D01*
X70012460Y-23760282D01*
X70060079Y-23807901D01*
X70155317Y-23855520D01*
X70250555Y-23855520D01*
X70393412Y-23807901D01*
X70964841Y-23236472D01*
X70964841Y-23855520D01*
X52239841Y-20903139D02*
X51239841Y-20903139D01*
X51239841Y-21141234D01*
X51287460Y-21284092D01*
X51382698Y-21379330D01*
X51477936Y-21426949D01*
X51668412Y-21474568D01*
X51811270Y-21474568D01*
X52001746Y-21426949D01*
X52096984Y-21379330D01*
X52192222Y-21284092D01*
X52239841Y-21141234D01*
X52239841Y-20903139D01*
X51573174Y-22331711D02*
X52239841Y-22331711D01*
X51192222Y-22093615D02*
X51906508Y-21855520D01*
X51906508Y-22474568D01*
X52144603Y-22855520D02*
X52192222Y-22903139D01*
X52239841Y-22855520D01*
X52192222Y-22807901D01*
X52144603Y-22855520D01*
X52239841Y-22855520D01*
X51620793Y-22855520D02*
X51668412Y-22903139D01*
X51716031Y-22855520D01*
X51668412Y-22807901D01*
X51620793Y-22855520D01*
X51716031Y-22855520D01*
X52239841Y-23855520D02*
X52239841Y-23284091D01*
X52239841Y-23569805D02*
X51239841Y-23569805D01*
X51382698Y-23474567D01*
X51477936Y-23379329D01*
X51525555Y-23284091D01*
X132666666Y-27457143D02*
X132714285Y-27504762D01*
X132857142Y-27552381D01*
X132952380Y-27552381D01*
X133095238Y-27504762D01*
X133190476Y-27409524D01*
X133238095Y-27314286D01*
X133285714Y-27123810D01*
X133285714Y-26980952D01*
X133238095Y-26790476D01*
X133190476Y-26695238D01*
X133095238Y-26600000D01*
X132952380Y-26552381D01*
X132857142Y-26552381D01*
X132714285Y-26600000D01*
X132666666Y-26647619D01*
X131761904Y-26552381D02*
X132238095Y-26552381D01*
X132285714Y-27028571D01*
X132238095Y-26980952D01*
X132142857Y-26933333D01*
X131904761Y-26933333D01*
X131809523Y-26980952D01*
X131761904Y-27028571D01*
X131714285Y-27123810D01*
X131714285Y-27361905D01*
X131761904Y-27457143D01*
X131809523Y-27504762D01*
X131904761Y-27552381D01*
X132142857Y-27552381D01*
X132238095Y-27504762D01*
X132285714Y-27457143D01*
X150352381Y-25833334D02*
X149876190Y-25500000D01*
X150352381Y-25261905D02*
X149352381Y-25261905D01*
X149352381Y-25642858D01*
X149400000Y-25738096D01*
X149447619Y-25785715D01*
X149542857Y-25833334D01*
X149685714Y-25833334D01*
X149780952Y-25785715D01*
X149828571Y-25738096D01*
X149876190Y-25642858D01*
X149876190Y-25261905D01*
X149685714Y-26690477D02*
X150352381Y-26690477D01*
X149304762Y-26452381D02*
X150019048Y-26214286D01*
X150019048Y-26833334D01*
D12*
X273608286Y-102384524D02*
X273608286Y-101114524D01*
X273245429Y-101114524D01*
X273027714Y-101175000D01*
X272882572Y-101295952D01*
X272810000Y-101416905D01*
X272737429Y-101658810D01*
X272737429Y-101840238D01*
X272810000Y-102082143D01*
X272882572Y-102203095D01*
X273027714Y-102324048D01*
X273245429Y-102384524D01*
X273608286Y-102384524D01*
X272447143Y-102505476D02*
X271286000Y-102505476D01*
X270052286Y-102263571D02*
X270124857Y-102324048D01*
X270342571Y-102384524D01*
X270487714Y-102384524D01*
X270705429Y-102324048D01*
X270850571Y-102203095D01*
X270923143Y-102082143D01*
X270995714Y-101840238D01*
X270995714Y-101658810D01*
X270923143Y-101416905D01*
X270850571Y-101295952D01*
X270705429Y-101175000D01*
X270487714Y-101114524D01*
X270342571Y-101114524D01*
X270124857Y-101175000D01*
X270052286Y-101235476D01*
X269471714Y-102021667D02*
X268746000Y-102021667D01*
X269616857Y-102384524D02*
X269108857Y-101114524D01*
X268600857Y-102384524D01*
X268092857Y-102384524D02*
X268092857Y-101114524D01*
X267512285Y-101114524D01*
X267367143Y-101175000D01*
X267294571Y-101235476D01*
X267222000Y-101356429D01*
X267222000Y-101537857D01*
X267294571Y-101658810D01*
X267367143Y-101719286D01*
X267512285Y-101779762D01*
X268092857Y-101779762D01*
X266641428Y-102324048D02*
X266423714Y-102384524D01*
X266060857Y-102384524D01*
X265915714Y-102324048D01*
X265843143Y-102263571D01*
X265770571Y-102142619D01*
X265770571Y-102021667D01*
X265843143Y-101900714D01*
X265915714Y-101840238D01*
X266060857Y-101779762D01*
X266351143Y-101719286D01*
X266496285Y-101658810D01*
X266568857Y-101598333D01*
X266641428Y-101477381D01*
X266641428Y-101356429D01*
X266568857Y-101235476D01*
X266496285Y-101175000D01*
X266351143Y-101114524D01*
X265988285Y-101114524D01*
X265770571Y-101175000D01*
X264319142Y-102384524D02*
X265189999Y-102384524D01*
X264754571Y-102384524D02*
X264754571Y-101114524D01*
X264899714Y-101295952D01*
X265044856Y-101416905D01*
X265189999Y-101477381D01*
X82156857Y-102384524D02*
X82156857Y-101114524D01*
X81794000Y-101114524D01*
X81576285Y-101175000D01*
X81431143Y-101295952D01*
X81358571Y-101416905D01*
X81286000Y-101658810D01*
X81286000Y-101840238D01*
X81358571Y-102082143D01*
X81431143Y-102203095D01*
X81576285Y-102324048D01*
X81794000Y-102384524D01*
X82156857Y-102384524D01*
X80995714Y-102505476D02*
X79834571Y-102505476D01*
X78963714Y-101719286D02*
X79471714Y-101719286D01*
X79471714Y-102384524D02*
X79471714Y-101114524D01*
X78746000Y-101114524D01*
X78165428Y-102384524D02*
X78165428Y-101114524D01*
X77294571Y-102384524D01*
X77294571Y-101114524D01*
X75770571Y-102384524D02*
X76641428Y-102384524D01*
X76206000Y-102384524D02*
X76206000Y-101114524D01*
X76351143Y-101295952D01*
X76496285Y-101416905D01*
X76641428Y-101477381D01*
D11*
X153353561Y-10261905D02*
X152353561Y-10261905D01*
X152353561Y-10642858D01*
X152401180Y-10738096D01*
X152448799Y-10785715D01*
X152544037Y-10833334D01*
X152686894Y-10833334D01*
X152782132Y-10785715D01*
X152829751Y-10738096D01*
X152877370Y-10642858D01*
X152877370Y-10261905D01*
X153353561Y-11785715D02*
X153353561Y-11214286D01*
X153353561Y-11500000D02*
X152353561Y-11500000D01*
X152496418Y-11404762D01*
X152591656Y-11309524D01*
X152639275Y-11214286D01*
X151214881Y-48103095D02*
X152024405Y-48103095D01*
X152119643Y-48150714D01*
X152167262Y-48198333D01*
X152214881Y-48293571D01*
X152214881Y-48484048D01*
X152167262Y-48579286D01*
X152119643Y-48626905D01*
X152024405Y-48674524D01*
X151214881Y-48674524D01*
X151310119Y-49103095D02*
X151262500Y-49150714D01*
X151214881Y-49245952D01*
X151214881Y-49484048D01*
X151262500Y-49579286D01*
X151310119Y-49626905D01*
X151405357Y-49674524D01*
X151500595Y-49674524D01*
X151643452Y-49626905D01*
X152214881Y-49055476D01*
X152214881Y-49674524D01*
X148352381Y-25833334D02*
X147876190Y-25500000D01*
X148352381Y-25261905D02*
X147352381Y-25261905D01*
X147352381Y-25642858D01*
X147400000Y-25738096D01*
X147447619Y-25785715D01*
X147542857Y-25833334D01*
X147685714Y-25833334D01*
X147780952Y-25785715D01*
X147828571Y-25738096D01*
X147876190Y-25642858D01*
X147876190Y-25261905D01*
X147352381Y-26166667D02*
X147352381Y-26785715D01*
X147733333Y-26452381D01*
X147733333Y-26595239D01*
X147780952Y-26690477D01*
X147828571Y-26738096D01*
X147923810Y-26785715D01*
X148161905Y-26785715D01*
X148257143Y-26738096D01*
X148304762Y-26690477D01*
X148352381Y-26595239D01*
X148352381Y-26309524D01*
X148304762Y-26214286D01*
X148257143Y-26166667D01*
X111857143Y-50238095D02*
X111904762Y-50190476D01*
X111952381Y-50047619D01*
X111952381Y-49952381D01*
X111904762Y-49809523D01*
X111809524Y-49714285D01*
X111714286Y-49666666D01*
X111523810Y-49619047D01*
X111380952Y-49619047D01*
X111190476Y-49666666D01*
X111095238Y-49714285D01*
X111000000Y-49809523D01*
X110952381Y-49952381D01*
X110952381Y-50047619D01*
X111000000Y-50190476D01*
X111047619Y-50238095D01*
X111952381Y-50666666D02*
X111285714Y-50666666D01*
X111476190Y-50666666D02*
X111380952Y-50714285D01*
X111333333Y-50761904D01*
X111285714Y-50857142D01*
X111285714Y-50952381D01*
X111285714Y-51190476D02*
X111952381Y-51428571D01*
X111285714Y-51666667D02*
X111952381Y-51428571D01*
X112190476Y-51333333D01*
X112238095Y-51285714D01*
X112285714Y-51190476D01*
X111904762Y-52000000D02*
X111952381Y-52095238D01*
X111952381Y-52285714D01*
X111904762Y-52380953D01*
X111809524Y-52428572D01*
X111761905Y-52428572D01*
X111666667Y-52380953D01*
X111619048Y-52285714D01*
X111619048Y-52142857D01*
X111571429Y-52047619D01*
X111476190Y-52000000D01*
X111428571Y-52000000D01*
X111333333Y-52047619D01*
X111285714Y-52142857D01*
X111285714Y-52285714D01*
X111333333Y-52380953D01*
X111285714Y-52714286D02*
X111285714Y-53095238D01*
X110952381Y-52857143D02*
X111809524Y-52857143D01*
X111904762Y-52904762D01*
X111952381Y-53000000D01*
X111952381Y-53095238D01*
X111952381Y-53857144D02*
X111428571Y-53857144D01*
X111333333Y-53809525D01*
X111285714Y-53714287D01*
X111285714Y-53523810D01*
X111333333Y-53428572D01*
X111904762Y-53857144D02*
X111952381Y-53761906D01*
X111952381Y-53523810D01*
X111904762Y-53428572D01*
X111809524Y-53380953D01*
X111714286Y-53380953D01*
X111619048Y-53428572D01*
X111571429Y-53523810D01*
X111571429Y-53761906D01*
X111523810Y-53857144D01*
X111952381Y-54476191D02*
X111904762Y-54380953D01*
X111809524Y-54333334D01*
X110952381Y-54333334D01*
X111952381Y-55380954D02*
X111952381Y-54809525D01*
X111952381Y-55095239D02*
X110952381Y-55095239D01*
X111095238Y-55000001D01*
X111190476Y-54904763D01*
X111238095Y-54809525D01*
X132666666Y-29457143D02*
X132714285Y-29504762D01*
X132857142Y-29552381D01*
X132952380Y-29552381D01*
X133095238Y-29504762D01*
X133190476Y-29409524D01*
X133238095Y-29314286D01*
X133285714Y-29123810D01*
X133285714Y-28980952D01*
X133238095Y-28790476D01*
X133190476Y-28695238D01*
X133095238Y-28600000D01*
X132952380Y-28552381D01*
X132857142Y-28552381D01*
X132714285Y-28600000D01*
X132666666Y-28647619D01*
X131809523Y-28885714D02*
X131809523Y-29552381D01*
X132047619Y-28504762D02*
X132285714Y-29219048D01*
X131666666Y-29219048D01*
X33314841Y-20903139D02*
X32314841Y-20903139D01*
X32314841Y-21141234D01*
X32362460Y-21284092D01*
X32457698Y-21379330D01*
X32552936Y-21426949D01*
X32743412Y-21474568D01*
X32886270Y-21474568D01*
X33076746Y-21426949D01*
X33171984Y-21379330D01*
X33267222Y-21284092D01*
X33314841Y-21141234D01*
X33314841Y-20903139D01*
X32648174Y-22331711D02*
X33314841Y-22331711D01*
X32267222Y-22093615D02*
X32981508Y-21855520D01*
X32981508Y-22474568D01*
X33219603Y-22855520D02*
X33267222Y-22903139D01*
X33314841Y-22855520D01*
X33267222Y-22807901D01*
X33219603Y-22855520D01*
X33314841Y-22855520D01*
X32695793Y-22855520D02*
X32743412Y-22903139D01*
X32791031Y-22855520D01*
X32743412Y-22807901D01*
X32695793Y-22855520D01*
X32791031Y-22855520D01*
X32314841Y-23522186D02*
X32314841Y-23617425D01*
X32362460Y-23712663D01*
X32410079Y-23760282D01*
X32505317Y-23807901D01*
X32695793Y-23855520D01*
X32933889Y-23855520D01*
X33124365Y-23807901D01*
X33219603Y-23760282D01*
X33267222Y-23712663D01*
X33314841Y-23617425D01*
X33314841Y-23522186D01*
X33267222Y-23426948D01*
X33219603Y-23379329D01*
X33124365Y-23331710D01*
X32933889Y-23284091D01*
X32695793Y-23284091D01*
X32505317Y-23331710D01*
X32410079Y-23379329D01*
X32362460Y-23426948D01*
X32314841Y-23522186D01*
X119550000Y-67454762D02*
X119407143Y-67502381D01*
X119169047Y-67502381D01*
X119073809Y-67454762D01*
X119026190Y-67407143D01*
X118978571Y-67311905D01*
X118978571Y-67216667D01*
X119026190Y-67121429D01*
X119073809Y-67073810D01*
X119169047Y-67026190D01*
X119359524Y-66978571D01*
X119454762Y-66930952D01*
X119502381Y-66883333D01*
X119550000Y-66788095D01*
X119550000Y-66692857D01*
X119502381Y-66597619D01*
X119454762Y-66550000D01*
X119359524Y-66502381D01*
X119121428Y-66502381D01*
X118978571Y-66550000D01*
X118788095Y-67597619D02*
X118026190Y-67597619D01*
X117216666Y-67502381D02*
X117550000Y-67026190D01*
X117788095Y-67502381D02*
X117788095Y-66502381D01*
X117407142Y-66502381D01*
X117311904Y-66550000D01*
X117264285Y-66597619D01*
X117216666Y-66692857D01*
X117216666Y-66835714D01*
X117264285Y-66930952D01*
X117311904Y-66978571D01*
X117407142Y-67026190D01*
X117788095Y-67026190D01*
X116835714Y-67454762D02*
X116692857Y-67502381D01*
X116454761Y-67502381D01*
X116359523Y-67454762D01*
X116311904Y-67407143D01*
X116264285Y-67311905D01*
X116264285Y-67216667D01*
X116311904Y-67121429D01*
X116359523Y-67073810D01*
X116454761Y-67026190D01*
X116645238Y-66978571D01*
X116740476Y-66930952D01*
X116788095Y-66883333D01*
X116835714Y-66788095D01*
X116835714Y-66692857D01*
X116788095Y-66597619D01*
X116740476Y-66550000D01*
X116645238Y-66502381D01*
X116407142Y-66502381D01*
X116264285Y-66550000D01*
X115978571Y-66502381D02*
X115407142Y-66502381D01*
X115692857Y-67502381D02*
X115692857Y-66502381D01*
X114549999Y-67502381D02*
X115121428Y-67502381D01*
X114835714Y-67502381D02*
X114835714Y-66502381D01*
X114930952Y-66645238D01*
X115026190Y-66740476D01*
X115121428Y-66788095D01*
M02*
