%FSLAX45Y45*%
G04 Gerber Fmt 4.5, Leading zero omitted, Abs format (unit mm)*
G04 Created by KiCad (PCBNEW 4.0.1-stable) date 4/2/2017 1:31:38 AM*
%MOMM*%
G01*
G04 APERTURE LIST*
%ADD10C,0.127000*%
%ADD11C,0.150000*%
%ADD12C,0.200000*%
%ADD13C,0.300000*%
G04 APERTURE END LIST*
D10*
D11*
X125000Y9400000D02*
X26375000Y9400000D01*
X0Y125000D02*
X0Y9275000D01*
X26375000Y0D02*
X125000Y0D01*
X26500000Y9275000D02*
X26500000Y125000D01*
X26375000Y0D02*
G75*
G03X26500000Y125000I0J125000D01*
G01*
X26500000Y9275000D02*
G75*
G03X26375000Y9400000I-125000J0D01*
G01*
X125000Y9400000D02*
G75*
G03X0Y9275000I0J-125000D01*
G01*
X0Y125000D02*
G75*
G03X125000Y0I125000J0D01*
G01*
D12*
X274410Y8595090D02*
X444590Y8424910D01*
X444590Y8595090D02*
X274410Y8424910D01*
X274410Y6690090D02*
X444590Y6519910D01*
X444590Y6690090D02*
X274410Y6519910D01*
X274410Y4785090D02*
X444590Y4614910D01*
X444590Y4785090D02*
X274410Y4614910D01*
X274410Y2880090D02*
X444590Y2709910D01*
X444590Y2880090D02*
X274410Y2709910D01*
X274410Y975090D02*
X444590Y804910D01*
X444590Y975090D02*
X274410Y804910D01*
X1290410Y8595090D02*
X1460590Y8424910D01*
X1460590Y8595090D02*
X1290410Y8424910D01*
X1290410Y6690090D02*
X1460590Y6519910D01*
X1460590Y6690090D02*
X1290410Y6519910D01*
X1290410Y4785090D02*
X1460590Y4614910D01*
X1460590Y4785090D02*
X1290410Y4614910D01*
X1290410Y2880090D02*
X1460590Y2709910D01*
X1460590Y2880090D02*
X1290410Y2709910D01*
X1290410Y975090D02*
X1460590Y804910D01*
X1460590Y975090D02*
X1290410Y804910D01*
X2179410Y8595090D02*
X2349590Y8424910D01*
X2349590Y8595090D02*
X2179410Y8424910D01*
X2179410Y6690090D02*
X2349590Y6519910D01*
X2349590Y6690090D02*
X2179410Y6519910D01*
X2179410Y4785090D02*
X2349590Y4614910D01*
X2349590Y4785090D02*
X2179410Y4614910D01*
X2179410Y2880090D02*
X2349590Y2709910D01*
X2349590Y2880090D02*
X2179410Y2709910D01*
X2179410Y975090D02*
X2349590Y804910D01*
X2349590Y975090D02*
X2179410Y804910D01*
X3195410Y8595090D02*
X3365590Y8424910D01*
X3365590Y8595090D02*
X3195410Y8424910D01*
X3195410Y6690090D02*
X3365590Y6519910D01*
X3365590Y6690090D02*
X3195410Y6519910D01*
X3195410Y4785090D02*
X3365590Y4614910D01*
X3365590Y4785090D02*
X3195410Y4614910D01*
X3195410Y2880090D02*
X3365590Y2709910D01*
X3365590Y2880090D02*
X3195410Y2709910D01*
X3195410Y975090D02*
X3365590Y804910D01*
X3365590Y975090D02*
X3195410Y804910D01*
X4084410Y8595090D02*
X4254590Y8424910D01*
X4254590Y8595090D02*
X4084410Y8424910D01*
X4084410Y6690090D02*
X4254590Y6519910D01*
X4254590Y6690090D02*
X4084410Y6519910D01*
X4084410Y4785090D02*
X4254590Y4614910D01*
X4254590Y4785090D02*
X4084410Y4614910D01*
X4084410Y2880090D02*
X4254590Y2709910D01*
X4254590Y2880090D02*
X4084410Y2709910D01*
X4084410Y975090D02*
X4254590Y804910D01*
X4254590Y975090D02*
X4084410Y804910D01*
X5100410Y8595090D02*
X5270590Y8424910D01*
X5270590Y8595090D02*
X5100410Y8424910D01*
X5100410Y6690090D02*
X5270590Y6519910D01*
X5270590Y6690090D02*
X5100410Y6519910D01*
X5100410Y4785090D02*
X5270590Y4614910D01*
X5270590Y4785090D02*
X5100410Y4614910D01*
X5100410Y2880090D02*
X5270590Y2709910D01*
X5270590Y2880090D02*
X5100410Y2709910D01*
X5100410Y975090D02*
X5270590Y804910D01*
X5270590Y975090D02*
X5100410Y804910D01*
X5989410Y8595090D02*
X6159590Y8424910D01*
X6159590Y8595090D02*
X5989410Y8424910D01*
X5989410Y6690090D02*
X6159590Y6519910D01*
X6159590Y6690090D02*
X5989410Y6519910D01*
X5989410Y4785090D02*
X6159590Y4614910D01*
X6159590Y4785090D02*
X5989410Y4614910D01*
X5989410Y2880090D02*
X6159590Y2709910D01*
X6159590Y2880090D02*
X5989410Y2709910D01*
X5989410Y975090D02*
X6159590Y804910D01*
X6159590Y975090D02*
X5989410Y804910D01*
X7005410Y8595090D02*
X7175590Y8424910D01*
X7175590Y8595090D02*
X7005410Y8424910D01*
X7005410Y6690090D02*
X7175590Y6519910D01*
X7175590Y6690090D02*
X7005410Y6519910D01*
X7005410Y4785090D02*
X7175590Y4614910D01*
X7175590Y4785090D02*
X7005410Y4614910D01*
X7005410Y2880090D02*
X7175590Y2709910D01*
X7175590Y2880090D02*
X7005410Y2709910D01*
X7005410Y975090D02*
X7175590Y804910D01*
X7175590Y975090D02*
X7005410Y804910D01*
X7894410Y8595090D02*
X8064590Y8424910D01*
X8064590Y8595090D02*
X7894410Y8424910D01*
X7894410Y6690090D02*
X8064590Y6519910D01*
X8064590Y6690090D02*
X7894410Y6519910D01*
X7894410Y4785090D02*
X8064590Y4614910D01*
X8064590Y4785090D02*
X7894410Y4614910D01*
X7894410Y2880090D02*
X8064590Y2709910D01*
X8064590Y2880090D02*
X7894410Y2709910D01*
X7894410Y975090D02*
X8064590Y804910D01*
X8064590Y975090D02*
X7894410Y804910D01*
X8910410Y8595090D02*
X9080590Y8424910D01*
X9080590Y8595090D02*
X8910410Y8424910D01*
X8910410Y6690090D02*
X9080590Y6519910D01*
X9080590Y6690090D02*
X8910410Y6519910D01*
X8910410Y4785090D02*
X9080590Y4614910D01*
X9080590Y4785090D02*
X8910410Y4614910D01*
X8910410Y2880090D02*
X9080590Y2709910D01*
X9080590Y2880090D02*
X8910410Y2709910D01*
X8910410Y975090D02*
X9080590Y804910D01*
X9080590Y975090D02*
X8910410Y804910D01*
X9799410Y8595090D02*
X9969590Y8424910D01*
X9969590Y8595090D02*
X9799410Y8424910D01*
X9799410Y6690090D02*
X9969590Y6519910D01*
X9969590Y6690090D02*
X9799410Y6519910D01*
X9799410Y4785090D02*
X9969590Y4614910D01*
X9969590Y4785090D02*
X9799410Y4614910D01*
X9799410Y2880090D02*
X9969590Y2709910D01*
X9969590Y2880090D02*
X9799410Y2709910D01*
X10751910Y987590D02*
X10922090Y817410D01*
X10922090Y987590D02*
X10751910Y817410D01*
X10815410Y8595090D02*
X10985590Y8424910D01*
X10985590Y8595090D02*
X10815410Y8424910D01*
X10815410Y6690090D02*
X10985590Y6519910D01*
X10985590Y6690090D02*
X10815410Y6519910D01*
X10815410Y4785090D02*
X10985590Y4614910D01*
X10985590Y4785090D02*
X10815410Y4614910D01*
X10815410Y2880090D02*
X10985590Y2709910D01*
X10985590Y2880090D02*
X10815410Y2709910D01*
X11704410Y8595090D02*
X11874590Y8424910D01*
X11874590Y8595090D02*
X11704410Y8424910D01*
X11704410Y6690090D02*
X11874590Y6519910D01*
X11874590Y6690090D02*
X11704410Y6519910D01*
X11704410Y4785090D02*
X11874590Y4614910D01*
X11874590Y4785090D02*
X11704410Y4614910D01*
X11704410Y2880090D02*
X11874590Y2709910D01*
X11874590Y2880090D02*
X11704410Y2709910D01*
X11767910Y987590D02*
X11938090Y817410D01*
X11938090Y987590D02*
X11767910Y817410D01*
X12720410Y8595090D02*
X12890590Y8424910D01*
X12890590Y8595090D02*
X12720410Y8424910D01*
X12720410Y6690090D02*
X12890590Y6519910D01*
X12890590Y6690090D02*
X12720410Y6519910D01*
X12720410Y4785090D02*
X12890590Y4614910D01*
X12890590Y4785090D02*
X12720410Y4614910D01*
X12720410Y2880090D02*
X12890590Y2709910D01*
X12890590Y2880090D02*
X12720410Y2709910D01*
X13609410Y8595090D02*
X13779590Y8424910D01*
X13779590Y8595090D02*
X13609410Y8424910D01*
X13609410Y6690090D02*
X13779590Y6519910D01*
X13779590Y6690090D02*
X13609410Y6519910D01*
X13609410Y4785090D02*
X13779590Y4614910D01*
X13779590Y4785090D02*
X13609410Y4614910D01*
X13609410Y2880090D02*
X13779590Y2709910D01*
X13779590Y2880090D02*
X13609410Y2709910D01*
X14561910Y990090D02*
X14732090Y819910D01*
X14732090Y990090D02*
X14561910Y819910D01*
X14625410Y8595090D02*
X14795590Y8424910D01*
X14795590Y8595090D02*
X14625410Y8424910D01*
X14625410Y6690090D02*
X14795590Y6519910D01*
X14795590Y6690090D02*
X14625410Y6519910D01*
X14625410Y4785090D02*
X14795590Y4614910D01*
X14795590Y4785090D02*
X14625410Y4614910D01*
X14625410Y2880090D02*
X14795590Y2709910D01*
X14795590Y2880090D02*
X14625410Y2709910D01*
X15514410Y8595090D02*
X15684590Y8424910D01*
X15684590Y8595090D02*
X15514410Y8424910D01*
X15514410Y6690090D02*
X15684590Y6519910D01*
X15684590Y6690090D02*
X15514410Y6519910D01*
X15514410Y4785090D02*
X15684590Y4614910D01*
X15684590Y4785090D02*
X15514410Y4614910D01*
X15514410Y2880090D02*
X15684590Y2709910D01*
X15684590Y2880090D02*
X15514410Y2709910D01*
X15577910Y990090D02*
X15748090Y819910D01*
X15748090Y990090D02*
X15577910Y819910D01*
X16530410Y8595090D02*
X16700590Y8424910D01*
X16700590Y8595090D02*
X16530410Y8424910D01*
X16530410Y6690090D02*
X16700590Y6519910D01*
X16700590Y6690090D02*
X16530410Y6519910D01*
X16530410Y4785090D02*
X16700590Y4614910D01*
X16700590Y4785090D02*
X16530410Y4614910D01*
X16530410Y2880090D02*
X16700590Y2709910D01*
X16700590Y2880090D02*
X16530410Y2709910D01*
X17419410Y8595090D02*
X17589590Y8424910D01*
X17589590Y8595090D02*
X17419410Y8424910D01*
X17419410Y6690090D02*
X17589590Y6519910D01*
X17589590Y6690090D02*
X17419410Y6519910D01*
X17419410Y4785090D02*
X17589590Y4614910D01*
X17589590Y4785090D02*
X17419410Y4614910D01*
X17419410Y2880090D02*
X17589590Y2709910D01*
X17589590Y2880090D02*
X17419410Y2709910D01*
X17419410Y975090D02*
X17589590Y804910D01*
X17589590Y975090D02*
X17419410Y804910D01*
X18435410Y8595090D02*
X18605590Y8424910D01*
X18605590Y8595090D02*
X18435410Y8424910D01*
X18435410Y6690090D02*
X18605590Y6519910D01*
X18605590Y6690090D02*
X18435410Y6519910D01*
X18435410Y4785090D02*
X18605590Y4614910D01*
X18605590Y4785090D02*
X18435410Y4614910D01*
X18435410Y2880090D02*
X18605590Y2709910D01*
X18605590Y2880090D02*
X18435410Y2709910D01*
X18435410Y975090D02*
X18605590Y804910D01*
X18605590Y975090D02*
X18435410Y804910D01*
X19324410Y8595090D02*
X19494590Y8424910D01*
X19494590Y8595090D02*
X19324410Y8424910D01*
X19324410Y6690090D02*
X19494590Y6519910D01*
X19494590Y6690090D02*
X19324410Y6519910D01*
X19324410Y4785090D02*
X19494590Y4614910D01*
X19494590Y4785090D02*
X19324410Y4614910D01*
X19324410Y2880090D02*
X19494590Y2709910D01*
X19494590Y2880090D02*
X19324410Y2709910D01*
X19324410Y975090D02*
X19494590Y804910D01*
X19494590Y975090D02*
X19324410Y804910D01*
X20340410Y8595090D02*
X20510590Y8424910D01*
X20510590Y8595090D02*
X20340410Y8424910D01*
X20340410Y6690090D02*
X20510590Y6519910D01*
X20510590Y6690090D02*
X20340410Y6519910D01*
X20340410Y4785090D02*
X20510590Y4614910D01*
X20510590Y4785090D02*
X20340410Y4614910D01*
X20340410Y2880090D02*
X20510590Y2709910D01*
X20510590Y2880090D02*
X20340410Y2709910D01*
X20340410Y975090D02*
X20510590Y804910D01*
X20510590Y975090D02*
X20340410Y804910D01*
X21229410Y8595090D02*
X21399590Y8424910D01*
X21399590Y8595090D02*
X21229410Y8424910D01*
X21229410Y6690090D02*
X21399590Y6519910D01*
X21399590Y6690090D02*
X21229410Y6519910D01*
X21229410Y4785090D02*
X21399590Y4614910D01*
X21399590Y4785090D02*
X21229410Y4614910D01*
X21229410Y2880090D02*
X21399590Y2709910D01*
X21399590Y2880090D02*
X21229410Y2709910D01*
X21229410Y975090D02*
X21399590Y804910D01*
X21399590Y975090D02*
X21229410Y804910D01*
X22245410Y8595090D02*
X22415590Y8424910D01*
X22415590Y8595090D02*
X22245410Y8424910D01*
X22245410Y6690090D02*
X22415590Y6519910D01*
X22415590Y6690090D02*
X22245410Y6519910D01*
X22245410Y4785090D02*
X22415590Y4614910D01*
X22415590Y4785090D02*
X22245410Y4614910D01*
X22245410Y2880090D02*
X22415590Y2709910D01*
X22415590Y2880090D02*
X22245410Y2709910D01*
X22245410Y975090D02*
X22415590Y804910D01*
X22415590Y975090D02*
X22245410Y804910D01*
X23134410Y8595090D02*
X23304590Y8424910D01*
X23304590Y8595090D02*
X23134410Y8424910D01*
X23134410Y6690090D02*
X23304590Y6519910D01*
X23304590Y6690090D02*
X23134410Y6519910D01*
X23134410Y4785090D02*
X23304590Y4614910D01*
X23304590Y4785090D02*
X23134410Y4614910D01*
X23134410Y2880090D02*
X23304590Y2709910D01*
X23304590Y2880090D02*
X23134410Y2709910D01*
X23134410Y975090D02*
X23304590Y804910D01*
X23304590Y975090D02*
X23134410Y804910D01*
X24150410Y8595090D02*
X24320590Y8424910D01*
X24320590Y8595090D02*
X24150410Y8424910D01*
X24150410Y6690090D02*
X24320590Y6519910D01*
X24320590Y6690090D02*
X24150410Y6519910D01*
X24150410Y4785090D02*
X24320590Y4614910D01*
X24320590Y4785090D02*
X24150410Y4614910D01*
X24150410Y2880090D02*
X24320590Y2709910D01*
X24320590Y2880090D02*
X24150410Y2709910D01*
X24150410Y975090D02*
X24320590Y804910D01*
X24320590Y975090D02*
X24150410Y804910D01*
X25039410Y8595090D02*
X25209590Y8424910D01*
X25209590Y8595090D02*
X25039410Y8424910D01*
X25039410Y6690090D02*
X25209590Y6519910D01*
X25209590Y6690090D02*
X25039410Y6519910D01*
X25039410Y4785090D02*
X25209590Y4614910D01*
X25209590Y4785090D02*
X25039410Y4614910D01*
X25039410Y2880090D02*
X25209590Y2709910D01*
X25209590Y2880090D02*
X25039410Y2709910D01*
X25039410Y975090D02*
X25209590Y804910D01*
X25209590Y975090D02*
X25039410Y804910D01*
X26055410Y8595090D02*
X26225590Y8424910D01*
X26225590Y8595090D02*
X26055410Y8424910D01*
X26055410Y6690090D02*
X26225590Y6519910D01*
X26225590Y6690090D02*
X26055410Y6519910D01*
X26055410Y4785090D02*
X26225590Y4614910D01*
X26225590Y4785090D02*
X26055410Y4614910D01*
X26055410Y2880090D02*
X26225590Y2709910D01*
X26225590Y2880090D02*
X26055410Y2709910D01*
X26055410Y975090D02*
X26225590Y804910D01*
X26225590Y975090D02*
X26055410Y804910D01*
X10303600Y204000D02*
G75*
G03X10303600Y204000I-152400J0D01*
G01*
X12691200Y204000D02*
G75*
G03X12691200Y204000I-152400J0D01*
G01*
X14113600Y206500D02*
G75*
G03X14113600Y206500I-152400J0D01*
G01*
X16501200Y206500D02*
G75*
G03X16501200Y206500I-152400J0D01*
G01*
X867500Y8709390D02*
X867500Y8310610D01*
X668110Y8510000D02*
X1066890Y8510000D01*
X867500Y6804390D02*
X867500Y6405610D01*
X668110Y6605000D02*
X1066890Y6605000D01*
X867500Y4899390D02*
X867500Y4500610D01*
X668110Y4700000D02*
X1066890Y4700000D01*
X867500Y2994390D02*
X867500Y2595610D01*
X668110Y2795000D02*
X1066890Y2795000D01*
X867500Y1089390D02*
X867500Y690610D01*
X668110Y890000D02*
X1066890Y890000D01*
X2772500Y8709390D02*
X2772500Y8310610D01*
X2573110Y8510000D02*
X2971890Y8510000D01*
X2772500Y6804390D02*
X2772500Y6405610D01*
X2573110Y6605000D02*
X2971890Y6605000D01*
X2772500Y4899390D02*
X2772500Y4500610D01*
X2573110Y4700000D02*
X2971890Y4700000D01*
X2772500Y2994390D02*
X2772500Y2595610D01*
X2573110Y2795000D02*
X2971890Y2795000D01*
X2772500Y1089390D02*
X2772500Y690610D01*
X2573110Y890000D02*
X2971890Y890000D01*
X4677500Y8709390D02*
X4677500Y8310610D01*
X4478110Y8510000D02*
X4876890Y8510000D01*
X4677500Y6804390D02*
X4677500Y6405610D01*
X4478110Y6605000D02*
X4876890Y6605000D01*
X4677500Y4899390D02*
X4677500Y4500610D01*
X4478110Y4700000D02*
X4876890Y4700000D01*
X4677500Y2994390D02*
X4677500Y2595610D01*
X4478110Y2795000D02*
X4876890Y2795000D01*
X4677500Y1089390D02*
X4677500Y690610D01*
X4478110Y890000D02*
X4876890Y890000D01*
X6582500Y8709390D02*
X6582500Y8310610D01*
X6383110Y8510000D02*
X6781890Y8510000D01*
X6582500Y6804390D02*
X6582500Y6405610D01*
X6383110Y6605000D02*
X6781890Y6605000D01*
X6582500Y4899390D02*
X6582500Y4500610D01*
X6383110Y4700000D02*
X6781890Y4700000D01*
X6582500Y2994390D02*
X6582500Y2595610D01*
X6383110Y2795000D02*
X6781890Y2795000D01*
X6582500Y1089390D02*
X6582500Y690610D01*
X6383110Y890000D02*
X6781890Y890000D01*
X8487500Y8709390D02*
X8487500Y8310610D01*
X8288110Y8510000D02*
X8686890Y8510000D01*
X8487500Y6804390D02*
X8487500Y6405610D01*
X8288110Y6605000D02*
X8686890Y6605000D01*
X8487500Y4899390D02*
X8487500Y4500610D01*
X8288110Y4700000D02*
X8686890Y4700000D01*
X8487500Y2994390D02*
X8487500Y2595610D01*
X8288110Y2795000D02*
X8686890Y2795000D01*
X8487500Y1089390D02*
X8487500Y690610D01*
X8288110Y890000D02*
X8686890Y890000D01*
X10151200Y1927390D02*
X10151200Y1528610D01*
X9951810Y1728000D02*
X10350590Y1728000D01*
X10392500Y8709390D02*
X10392500Y8310610D01*
X10193110Y8510000D02*
X10591890Y8510000D01*
X10392500Y6804390D02*
X10392500Y6405610D01*
X10193110Y6605000D02*
X10591890Y6605000D01*
X10392500Y4899390D02*
X10392500Y4500610D01*
X10193110Y4700000D02*
X10591890Y4700000D01*
X10392500Y2994390D02*
X10392500Y2595610D01*
X10193110Y2795000D02*
X10591890Y2795000D01*
X11345000Y1101890D02*
X11345000Y703110D01*
X11145610Y902500D02*
X11544390Y902500D01*
X12297500Y8709390D02*
X12297500Y8310610D01*
X12098110Y8510000D02*
X12496890Y8510000D01*
X12297500Y6804390D02*
X12297500Y6405610D01*
X12098110Y6605000D02*
X12496890Y6605000D01*
X12297500Y4899390D02*
X12297500Y4500610D01*
X12098110Y4700000D02*
X12496890Y4700000D01*
X12297500Y2994390D02*
X12297500Y2595610D01*
X12098110Y2795000D02*
X12496890Y2795000D01*
X12538800Y1927390D02*
X12538800Y1528610D01*
X12339410Y1728000D02*
X12738190Y1728000D01*
X13961200Y1929890D02*
X13961200Y1531110D01*
X13761810Y1730500D02*
X14160590Y1730500D01*
X14202500Y8709390D02*
X14202500Y8310610D01*
X14003110Y8510000D02*
X14401890Y8510000D01*
X14202500Y6804390D02*
X14202500Y6405610D01*
X14003110Y6605000D02*
X14401890Y6605000D01*
X14202500Y4899390D02*
X14202500Y4500610D01*
X14003110Y4700000D02*
X14401890Y4700000D01*
X14202500Y2994390D02*
X14202500Y2595610D01*
X14003110Y2795000D02*
X14401890Y2795000D01*
X15155000Y1104390D02*
X15155000Y705610D01*
X14955610Y905000D02*
X15354390Y905000D01*
X16107500Y8709390D02*
X16107500Y8310610D01*
X15908110Y8510000D02*
X16306890Y8510000D01*
X16107500Y6804390D02*
X16107500Y6405610D01*
X15908110Y6605000D02*
X16306890Y6605000D01*
X16107500Y4899390D02*
X16107500Y4500610D01*
X15908110Y4700000D02*
X16306890Y4700000D01*
X16107500Y2994390D02*
X16107500Y2595610D01*
X15908110Y2795000D02*
X16306890Y2795000D01*
X16348800Y1929890D02*
X16348800Y1531110D01*
X16149410Y1730500D02*
X16548190Y1730500D01*
X18012500Y8709390D02*
X18012500Y8310610D01*
X17813110Y8510000D02*
X18211890Y8510000D01*
X18012500Y6804390D02*
X18012500Y6405610D01*
X17813110Y6605000D02*
X18211890Y6605000D01*
X18012500Y4899390D02*
X18012500Y4500610D01*
X17813110Y4700000D02*
X18211890Y4700000D01*
X18012500Y2994390D02*
X18012500Y2595610D01*
X17813110Y2795000D02*
X18211890Y2795000D01*
X18012500Y1089390D02*
X18012500Y690610D01*
X17813110Y890000D02*
X18211890Y890000D01*
X19917500Y8709390D02*
X19917500Y8310610D01*
X19718110Y8510000D02*
X20116890Y8510000D01*
X19917500Y6804390D02*
X19917500Y6405610D01*
X19718110Y6605000D02*
X20116890Y6605000D01*
X19917500Y4899390D02*
X19917500Y4500610D01*
X19718110Y4700000D02*
X20116890Y4700000D01*
X19917500Y2994390D02*
X19917500Y2595610D01*
X19718110Y2795000D02*
X20116890Y2795000D01*
X19917500Y1089390D02*
X19917500Y690610D01*
X19718110Y890000D02*
X20116890Y890000D01*
X21822500Y8709390D02*
X21822500Y8310610D01*
X21623110Y8510000D02*
X22021890Y8510000D01*
X21822500Y6804390D02*
X21822500Y6405610D01*
X21623110Y6605000D02*
X22021890Y6605000D01*
X21822500Y4899390D02*
X21822500Y4500610D01*
X21623110Y4700000D02*
X22021890Y4700000D01*
X21822500Y2994390D02*
X21822500Y2595610D01*
X21623110Y2795000D02*
X22021890Y2795000D01*
X21822500Y1089390D02*
X21822500Y690610D01*
X21623110Y890000D02*
X22021890Y890000D01*
X23727500Y8709390D02*
X23727500Y8310610D01*
X23528110Y8510000D02*
X23926890Y8510000D01*
X23727500Y6804390D02*
X23727500Y6405610D01*
X23528110Y6605000D02*
X23926890Y6605000D01*
X23727500Y4899390D02*
X23727500Y4500610D01*
X23528110Y4700000D02*
X23926890Y4700000D01*
X23727500Y2994390D02*
X23727500Y2595610D01*
X23528110Y2795000D02*
X23926890Y2795000D01*
X23727500Y1089390D02*
X23727500Y690610D01*
X23528110Y890000D02*
X23926890Y890000D01*
X25632500Y8709390D02*
X25632500Y8310610D01*
X25433110Y8510000D02*
X25831890Y8510000D01*
X25632500Y6804390D02*
X25632500Y6405610D01*
X25433110Y6605000D02*
X25831890Y6605000D01*
X25632500Y4899390D02*
X25632500Y4500610D01*
X25433110Y4700000D02*
X25831890Y4700000D01*
X25632500Y2994390D02*
X25632500Y2595610D01*
X25433110Y2795000D02*
X25831890Y2795000D01*
X25632500Y1089390D02*
X25632500Y690610D01*
X25433110Y890000D02*
X25831890Y890000D01*
X3891423Y3609577D02*
X3891423Y3892423D01*
X3608577Y3892423D01*
X3608577Y3609577D01*
X3891423Y3609577D01*
X7691423Y7408577D02*
X7691423Y7691423D01*
X7408577Y7691423D01*
X7408577Y7408577D01*
X7691423Y7408577D01*
X19091423Y1708577D02*
X19091423Y1991423D01*
X18808577Y1991423D01*
X18808577Y1708577D01*
X19091423Y1708577D01*
X22891423Y5508577D02*
X22891423Y5791423D01*
X22608577Y5791423D01*
X22608577Y5508577D01*
X22891423Y5508577D01*
D13*
X263929Y-473214D02*
X263929Y-173214D01*
X335357Y-173214D01*
X378214Y-187500D01*
X406786Y-216071D01*
X421071Y-244643D01*
X435357Y-301786D01*
X435357Y-344643D01*
X421071Y-401786D01*
X406786Y-430357D01*
X378214Y-458929D01*
X335357Y-473214D01*
X263929Y-473214D01*
X563929Y-473214D02*
X563929Y-273214D01*
X563929Y-330357D02*
X578214Y-301786D01*
X592500Y-287500D01*
X621071Y-273214D01*
X649643Y-273214D01*
X749643Y-473214D02*
X749643Y-273214D01*
X749643Y-173214D02*
X735357Y-187500D01*
X749643Y-201786D01*
X763928Y-187500D01*
X749643Y-173214D01*
X749643Y-201786D01*
X935357Y-473214D02*
X906786Y-458929D01*
X892500Y-430357D01*
X892500Y-173214D01*
X1092500Y-473214D02*
X1063929Y-458929D01*
X1049643Y-430357D01*
X1049643Y-173214D01*
X1435357Y-473214D02*
X1435357Y-173214D01*
X1535357Y-387500D01*
X1635357Y-173214D01*
X1635357Y-473214D01*
X1906786Y-473214D02*
X1906786Y-316072D01*
X1892500Y-287500D01*
X1863928Y-273214D01*
X1806786Y-273214D01*
X1778214Y-287500D01*
X1906786Y-458929D02*
X1878214Y-473214D01*
X1806786Y-473214D01*
X1778214Y-458929D01*
X1763928Y-430357D01*
X1763928Y-401786D01*
X1778214Y-373214D01*
X1806786Y-358929D01*
X1878214Y-358929D01*
X1906786Y-344643D01*
X2049643Y-273214D02*
X2049643Y-573214D01*
X2049643Y-287500D02*
X2078214Y-273214D01*
X2135357Y-273214D01*
X2163929Y-287500D01*
X2178214Y-301786D01*
X2192500Y-330357D01*
X2192500Y-416071D01*
X2178214Y-444643D01*
X2163929Y-458929D01*
X2135357Y-473214D01*
X2078214Y-473214D01*
X2049643Y-458929D01*
X2321071Y-444643D02*
X2335357Y-458929D01*
X2321071Y-473214D01*
X2306786Y-458929D01*
X2321071Y-444643D01*
X2321071Y-473214D01*
X2321071Y-287500D02*
X2335357Y-301786D01*
X2321071Y-316072D01*
X2306786Y-301786D01*
X2321071Y-287500D01*
X2321071Y-316072D01*
X-177680Y-882410D02*
X-7500Y-1052590D01*
X-7500Y-882410D02*
X-177680Y-1052590D01*
X421071Y-1103214D02*
X249643Y-1103214D01*
X335357Y-1103214D02*
X335357Y-803214D01*
X306786Y-846071D01*
X278214Y-874643D01*
X249643Y-888929D01*
X549643Y-1074643D02*
X563929Y-1088929D01*
X549643Y-1103214D01*
X535357Y-1088929D01*
X549643Y-1074643D01*
X549643Y-1103214D01*
X663928Y-803214D02*
X863928Y-803214D01*
X735357Y-1103214D01*
X1035357Y-803214D02*
X1063929Y-803214D01*
X1092500Y-817500D01*
X1106786Y-831786D01*
X1121071Y-860357D01*
X1135357Y-917500D01*
X1135357Y-988929D01*
X1121071Y-1046071D01*
X1106786Y-1074643D01*
X1092500Y-1088929D01*
X1063929Y-1103214D01*
X1035357Y-1103214D01*
X1006786Y-1088929D01*
X992500Y-1074643D01*
X978214Y-1046071D01*
X963928Y-988929D01*
X963928Y-917500D01*
X978214Y-860357D01*
X992500Y-831786D01*
X1006786Y-817500D01*
X1035357Y-803214D01*
X1263929Y-1103214D02*
X1263929Y-903214D01*
X1263929Y-931786D02*
X1278214Y-917500D01*
X1306786Y-903214D01*
X1349643Y-903214D01*
X1378214Y-917500D01*
X1392500Y-946071D01*
X1392500Y-1103214D01*
X1392500Y-946071D02*
X1406786Y-917500D01*
X1435357Y-903214D01*
X1478214Y-903214D01*
X1506786Y-917500D01*
X1521071Y-946071D01*
X1521071Y-1103214D01*
X1663928Y-1103214D02*
X1663928Y-903214D01*
X1663928Y-931786D02*
X1678214Y-917500D01*
X1706786Y-903214D01*
X1749643Y-903214D01*
X1778214Y-917500D01*
X1792500Y-946071D01*
X1792500Y-1103214D01*
X1792500Y-946071D02*
X1806786Y-917500D01*
X1835357Y-903214D01*
X1878214Y-903214D01*
X1906786Y-917500D01*
X1921071Y-946071D01*
X1921071Y-1103214D01*
X2506786Y-788929D02*
X2249643Y-1174643D01*
X2892500Y-803214D02*
X2921071Y-803214D01*
X2949643Y-817500D01*
X2963928Y-831786D01*
X2978214Y-860357D01*
X2992500Y-917500D01*
X2992500Y-988929D01*
X2978214Y-1046071D01*
X2963928Y-1074643D01*
X2949643Y-1088929D01*
X2921071Y-1103214D01*
X2892500Y-1103214D01*
X2863928Y-1088929D01*
X2849643Y-1074643D01*
X2835357Y-1046071D01*
X2821071Y-988929D01*
X2821071Y-917500D01*
X2835357Y-860357D01*
X2849643Y-831786D01*
X2863928Y-817500D01*
X2892500Y-803214D01*
X3121071Y-1074643D02*
X3135357Y-1088929D01*
X3121071Y-1103214D01*
X3106786Y-1088929D01*
X3121071Y-1074643D01*
X3121071Y-1103214D01*
X3321071Y-803214D02*
X3349643Y-803214D01*
X3378214Y-817500D01*
X3392500Y-831786D01*
X3406785Y-860357D01*
X3421071Y-917500D01*
X3421071Y-988929D01*
X3406785Y-1046071D01*
X3392500Y-1074643D01*
X3378214Y-1088929D01*
X3349643Y-1103214D01*
X3321071Y-1103214D01*
X3292500Y-1088929D01*
X3278214Y-1074643D01*
X3263928Y-1046071D01*
X3249643Y-988929D01*
X3249643Y-917500D01*
X3263928Y-860357D01*
X3278214Y-831786D01*
X3292500Y-817500D01*
X3321071Y-803214D01*
X3678214Y-803214D02*
X3621071Y-803214D01*
X3592500Y-817500D01*
X3578214Y-831786D01*
X3549643Y-874643D01*
X3535357Y-931786D01*
X3535357Y-1046071D01*
X3549643Y-1074643D01*
X3563928Y-1088929D01*
X3592500Y-1103214D01*
X3649643Y-1103214D01*
X3678214Y-1088929D01*
X3692500Y-1074643D01*
X3706785Y-1046071D01*
X3706785Y-974643D01*
X3692500Y-946071D01*
X3678214Y-931786D01*
X3649643Y-917500D01*
X3592500Y-917500D01*
X3563928Y-931786D01*
X3549643Y-946071D01*
X3535357Y-974643D01*
X3806785Y-803214D02*
X4006785Y-803214D01*
X3878214Y-1103214D01*
X4106786Y-803214D02*
X4106786Y-860357D01*
X4221071Y-803214D02*
X4221071Y-860357D01*
X4663928Y-1217500D02*
X4649643Y-1203214D01*
X4621071Y-1160357D01*
X4606786Y-1131786D01*
X4592500Y-1088929D01*
X4578214Y-1017500D01*
X4578214Y-960357D01*
X4592500Y-888929D01*
X4606786Y-846071D01*
X4621071Y-817500D01*
X4649643Y-774643D01*
X4663928Y-760357D01*
X4935357Y-1103214D02*
X4763928Y-1103214D01*
X4849643Y-1103214D02*
X4849643Y-803214D01*
X4821071Y-846071D01*
X4792500Y-874643D01*
X4763928Y-888929D01*
X5035357Y-803214D02*
X5221071Y-803214D01*
X5121071Y-917500D01*
X5163928Y-917500D01*
X5192500Y-931786D01*
X5206786Y-946071D01*
X5221071Y-974643D01*
X5221071Y-1046071D01*
X5206786Y-1074643D01*
X5192500Y-1088929D01*
X5163928Y-1103214D01*
X5078214Y-1103214D01*
X5049643Y-1088929D01*
X5035357Y-1074643D01*
X5478214Y-803214D02*
X5421071Y-803214D01*
X5392500Y-817500D01*
X5378214Y-831786D01*
X5349643Y-874643D01*
X5335357Y-931786D01*
X5335357Y-1046071D01*
X5349643Y-1074643D01*
X5363928Y-1088929D01*
X5392500Y-1103214D01*
X5449643Y-1103214D01*
X5478214Y-1088929D01*
X5492500Y-1074643D01*
X5506786Y-1046071D01*
X5506786Y-974643D01*
X5492500Y-946071D01*
X5478214Y-931786D01*
X5449643Y-917500D01*
X5392500Y-917500D01*
X5363928Y-931786D01*
X5349643Y-946071D01*
X5335357Y-974643D01*
X5863928Y-1103214D02*
X5863928Y-803214D01*
X5992500Y-1103214D02*
X5992500Y-946071D01*
X5978214Y-917500D01*
X5949643Y-903214D01*
X5906785Y-903214D01*
X5878214Y-917500D01*
X5863928Y-931786D01*
X6178214Y-1103214D02*
X6149643Y-1088929D01*
X6135357Y-1074643D01*
X6121071Y-1046071D01*
X6121071Y-960357D01*
X6135357Y-931786D01*
X6149643Y-917500D01*
X6178214Y-903214D01*
X6221071Y-903214D01*
X6249643Y-917500D01*
X6263928Y-931786D01*
X6278214Y-960357D01*
X6278214Y-1046071D01*
X6263928Y-1074643D01*
X6249643Y-1088929D01*
X6221071Y-1103214D01*
X6178214Y-1103214D01*
X6449643Y-1103214D02*
X6421071Y-1088929D01*
X6406786Y-1060357D01*
X6406786Y-803214D01*
X6678214Y-1088929D02*
X6649643Y-1103214D01*
X6592500Y-1103214D01*
X6563928Y-1088929D01*
X6549643Y-1060357D01*
X6549643Y-946071D01*
X6563928Y-917500D01*
X6592500Y-903214D01*
X6649643Y-903214D01*
X6678214Y-917500D01*
X6692500Y-946071D01*
X6692500Y-974643D01*
X6549643Y-1003214D01*
X6806786Y-1088929D02*
X6835357Y-1103214D01*
X6892500Y-1103214D01*
X6921071Y-1088929D01*
X6935357Y-1060357D01*
X6935357Y-1046071D01*
X6921071Y-1017500D01*
X6892500Y-1003214D01*
X6849643Y-1003214D01*
X6821071Y-988929D01*
X6806786Y-960357D01*
X6806786Y-946071D01*
X6821071Y-917500D01*
X6849643Y-903214D01*
X6892500Y-903214D01*
X6921071Y-917500D01*
X7035357Y-1217500D02*
X7049643Y-1203214D01*
X7078214Y-1160357D01*
X7092500Y-1131786D01*
X7106786Y-1088929D01*
X7121071Y-1017500D01*
X7121071Y-960357D01*
X7106786Y-888929D01*
X7092500Y-846071D01*
X7078214Y-817500D01*
X7049643Y-774643D01*
X7035357Y-760357D01*
X7578214Y-1217500D02*
X7563928Y-1203214D01*
X7535357Y-1160357D01*
X7521071Y-1131786D01*
X7506786Y-1088929D01*
X7492500Y-1017500D01*
X7492500Y-960357D01*
X7506786Y-888929D01*
X7521071Y-846071D01*
X7535357Y-817500D01*
X7563928Y-774643D01*
X7578214Y-760357D01*
X7692500Y-903214D02*
X7692500Y-1103214D01*
X7692500Y-931786D02*
X7706786Y-917500D01*
X7735357Y-903214D01*
X7778214Y-903214D01*
X7806786Y-917500D01*
X7821071Y-946071D01*
X7821071Y-1103214D01*
X8006786Y-1103214D02*
X7978214Y-1088929D01*
X7963928Y-1074643D01*
X7949643Y-1046071D01*
X7949643Y-960357D01*
X7963928Y-931786D01*
X7978214Y-917500D01*
X8006786Y-903214D01*
X8049643Y-903214D01*
X8078214Y-917500D01*
X8092500Y-931786D01*
X8106786Y-960357D01*
X8106786Y-1046071D01*
X8092500Y-1074643D01*
X8078214Y-1088929D01*
X8049643Y-1103214D01*
X8006786Y-1103214D01*
X8192500Y-903214D02*
X8306786Y-903214D01*
X8235357Y-803214D02*
X8235357Y-1060357D01*
X8249643Y-1088929D01*
X8278214Y-1103214D01*
X8306786Y-1103214D01*
X8635357Y-903214D02*
X8635357Y-1203214D01*
X8635357Y-917500D02*
X8663929Y-903214D01*
X8721071Y-903214D01*
X8749643Y-917500D01*
X8763929Y-931786D01*
X8778214Y-960357D01*
X8778214Y-1046071D01*
X8763929Y-1074643D01*
X8749643Y-1088929D01*
X8721071Y-1103214D01*
X8663929Y-1103214D01*
X8635357Y-1088929D01*
X8949643Y-1103214D02*
X8921071Y-1088929D01*
X8906786Y-1060357D01*
X8906786Y-803214D01*
X9192500Y-1103214D02*
X9192500Y-946071D01*
X9178214Y-917500D01*
X9149643Y-903214D01*
X9092500Y-903214D01*
X9063929Y-917500D01*
X9192500Y-1088929D02*
X9163929Y-1103214D01*
X9092500Y-1103214D01*
X9063929Y-1088929D01*
X9049643Y-1060357D01*
X9049643Y-1031786D01*
X9063929Y-1003214D01*
X9092500Y-988929D01*
X9163929Y-988929D01*
X9192500Y-974643D01*
X9292500Y-903214D02*
X9406786Y-903214D01*
X9335357Y-803214D02*
X9335357Y-1060357D01*
X9349643Y-1088929D01*
X9378214Y-1103214D01*
X9406786Y-1103214D01*
X9621072Y-1088929D02*
X9592500Y-1103214D01*
X9535357Y-1103214D01*
X9506786Y-1088929D01*
X9492500Y-1060357D01*
X9492500Y-946071D01*
X9506786Y-917500D01*
X9535357Y-903214D01*
X9592500Y-903214D01*
X9621072Y-917500D01*
X9635357Y-946071D01*
X9635357Y-974643D01*
X9492500Y-1003214D01*
X9892500Y-1103214D02*
X9892500Y-803214D01*
X9892500Y-1088929D02*
X9863929Y-1103214D01*
X9806786Y-1103214D01*
X9778214Y-1088929D01*
X9763929Y-1074643D01*
X9749643Y-1046071D01*
X9749643Y-960357D01*
X9763929Y-931786D01*
X9778214Y-917500D01*
X9806786Y-903214D01*
X9863929Y-903214D01*
X9892500Y-917500D01*
X10006786Y-1217500D02*
X10021072Y-1203214D01*
X10049643Y-1160357D01*
X10063929Y-1131786D01*
X10078214Y-1088929D01*
X10092500Y-1017500D01*
X10092500Y-960357D01*
X10078214Y-888929D01*
X10063929Y-846071D01*
X10049643Y-817500D01*
X10021072Y-774643D01*
X10006786Y-760357D01*
X-7500Y-1363500D02*
G75*
G03X-7500Y-1363500I-152400J0D01*
G01*
X235357Y-1199214D02*
X421071Y-1199214D01*
X321071Y-1313500D01*
X363928Y-1313500D01*
X392500Y-1327786D01*
X406786Y-1342072D01*
X421071Y-1370643D01*
X421071Y-1442071D01*
X406786Y-1470643D01*
X392500Y-1484929D01*
X363928Y-1499214D01*
X278214Y-1499214D01*
X249643Y-1484929D01*
X235357Y-1470643D01*
X549643Y-1470643D02*
X563929Y-1484929D01*
X549643Y-1499214D01*
X535357Y-1484929D01*
X549643Y-1470643D01*
X549643Y-1499214D01*
X749643Y-1199214D02*
X778214Y-1199214D01*
X806786Y-1213500D01*
X821071Y-1227786D01*
X835357Y-1256357D01*
X849643Y-1313500D01*
X849643Y-1384929D01*
X835357Y-1442071D01*
X821071Y-1470643D01*
X806786Y-1484929D01*
X778214Y-1499214D01*
X749643Y-1499214D01*
X721071Y-1484929D01*
X706786Y-1470643D01*
X692500Y-1442071D01*
X678214Y-1384929D01*
X678214Y-1313500D01*
X692500Y-1256357D01*
X706786Y-1227786D01*
X721071Y-1213500D01*
X749643Y-1199214D01*
X1121071Y-1199214D02*
X978214Y-1199214D01*
X963928Y-1342072D01*
X978214Y-1327786D01*
X1006786Y-1313500D01*
X1078214Y-1313500D01*
X1106786Y-1327786D01*
X1121071Y-1342072D01*
X1135357Y-1370643D01*
X1135357Y-1442071D01*
X1121071Y-1470643D01*
X1106786Y-1484929D01*
X1078214Y-1499214D01*
X1006786Y-1499214D01*
X978214Y-1484929D01*
X963928Y-1470643D01*
X1263929Y-1499214D02*
X1263929Y-1299214D01*
X1263929Y-1327786D02*
X1278214Y-1313500D01*
X1306786Y-1299214D01*
X1349643Y-1299214D01*
X1378214Y-1313500D01*
X1392500Y-1342072D01*
X1392500Y-1499214D01*
X1392500Y-1342072D02*
X1406786Y-1313500D01*
X1435357Y-1299214D01*
X1478214Y-1299214D01*
X1506786Y-1313500D01*
X1521071Y-1342072D01*
X1521071Y-1499214D01*
X1663928Y-1499214D02*
X1663928Y-1299214D01*
X1663928Y-1327786D02*
X1678214Y-1313500D01*
X1706786Y-1299214D01*
X1749643Y-1299214D01*
X1778214Y-1313500D01*
X1792500Y-1342072D01*
X1792500Y-1499214D01*
X1792500Y-1342072D02*
X1806786Y-1313500D01*
X1835357Y-1299214D01*
X1878214Y-1299214D01*
X1906786Y-1313500D01*
X1921071Y-1342072D01*
X1921071Y-1499214D01*
X2506786Y-1184929D02*
X2249643Y-1570643D01*
X2892500Y-1199214D02*
X2921071Y-1199214D01*
X2949643Y-1213500D01*
X2963928Y-1227786D01*
X2978214Y-1256357D01*
X2992500Y-1313500D01*
X2992500Y-1384929D01*
X2978214Y-1442071D01*
X2963928Y-1470643D01*
X2949643Y-1484929D01*
X2921071Y-1499214D01*
X2892500Y-1499214D01*
X2863928Y-1484929D01*
X2849643Y-1470643D01*
X2835357Y-1442071D01*
X2821071Y-1384929D01*
X2821071Y-1313500D01*
X2835357Y-1256357D01*
X2849643Y-1227786D01*
X2863928Y-1213500D01*
X2892500Y-1199214D01*
X3121071Y-1470643D02*
X3135357Y-1484929D01*
X3121071Y-1499214D01*
X3106786Y-1484929D01*
X3121071Y-1470643D01*
X3121071Y-1499214D01*
X3421071Y-1499214D02*
X3249643Y-1499214D01*
X3335357Y-1499214D02*
X3335357Y-1199214D01*
X3306785Y-1242072D01*
X3278214Y-1270643D01*
X3249643Y-1284929D01*
X3535357Y-1227786D02*
X3549643Y-1213500D01*
X3578214Y-1199214D01*
X3649643Y-1199214D01*
X3678214Y-1213500D01*
X3692500Y-1227786D01*
X3706785Y-1256357D01*
X3706785Y-1284929D01*
X3692500Y-1327786D01*
X3521071Y-1499214D01*
X3706785Y-1499214D01*
X3892500Y-1199214D02*
X3921071Y-1199214D01*
X3949643Y-1213500D01*
X3963928Y-1227786D01*
X3978214Y-1256357D01*
X3992500Y-1313500D01*
X3992500Y-1384929D01*
X3978214Y-1442071D01*
X3963928Y-1470643D01*
X3949643Y-1484929D01*
X3921071Y-1499214D01*
X3892500Y-1499214D01*
X3863928Y-1484929D01*
X3849643Y-1470643D01*
X3835357Y-1442071D01*
X3821071Y-1384929D01*
X3821071Y-1313500D01*
X3835357Y-1256357D01*
X3849643Y-1227786D01*
X3863928Y-1213500D01*
X3892500Y-1199214D01*
X4106786Y-1199214D02*
X4106786Y-1256357D01*
X4221071Y-1199214D02*
X4221071Y-1256357D01*
X4663928Y-1613500D02*
X4649643Y-1599214D01*
X4621071Y-1556357D01*
X4606786Y-1527786D01*
X4592500Y-1484929D01*
X4578214Y-1413500D01*
X4578214Y-1356357D01*
X4592500Y-1284929D01*
X4606786Y-1242072D01*
X4621071Y-1213500D01*
X4649643Y-1170643D01*
X4663928Y-1156357D01*
X4906786Y-1299214D02*
X4906786Y-1499214D01*
X4835357Y-1184929D02*
X4763928Y-1399214D01*
X4949643Y-1399214D01*
X5292500Y-1499214D02*
X5292500Y-1199214D01*
X5421071Y-1499214D02*
X5421071Y-1342072D01*
X5406786Y-1313500D01*
X5378214Y-1299214D01*
X5335357Y-1299214D01*
X5306786Y-1313500D01*
X5292500Y-1327786D01*
X5606785Y-1499214D02*
X5578214Y-1484929D01*
X5563928Y-1470643D01*
X5549643Y-1442071D01*
X5549643Y-1356357D01*
X5563928Y-1327786D01*
X5578214Y-1313500D01*
X5606785Y-1299214D01*
X5649643Y-1299214D01*
X5678214Y-1313500D01*
X5692500Y-1327786D01*
X5706785Y-1356357D01*
X5706785Y-1442071D01*
X5692500Y-1470643D01*
X5678214Y-1484929D01*
X5649643Y-1499214D01*
X5606785Y-1499214D01*
X5878214Y-1499214D02*
X5849643Y-1484929D01*
X5835357Y-1456357D01*
X5835357Y-1199214D01*
X6106786Y-1484929D02*
X6078214Y-1499214D01*
X6021071Y-1499214D01*
X5992500Y-1484929D01*
X5978214Y-1456357D01*
X5978214Y-1342072D01*
X5992500Y-1313500D01*
X6021071Y-1299214D01*
X6078214Y-1299214D01*
X6106786Y-1313500D01*
X6121071Y-1342072D01*
X6121071Y-1370643D01*
X5978214Y-1399214D01*
X6235357Y-1484929D02*
X6263928Y-1499214D01*
X6321071Y-1499214D01*
X6349643Y-1484929D01*
X6363928Y-1456357D01*
X6363928Y-1442071D01*
X6349643Y-1413500D01*
X6321071Y-1399214D01*
X6278214Y-1399214D01*
X6249643Y-1384929D01*
X6235357Y-1356357D01*
X6235357Y-1342072D01*
X6249643Y-1313500D01*
X6278214Y-1299214D01*
X6321071Y-1299214D01*
X6349643Y-1313500D01*
X6463928Y-1613500D02*
X6478214Y-1599214D01*
X6506786Y-1556357D01*
X6521071Y-1527786D01*
X6535357Y-1484929D01*
X6549643Y-1413500D01*
X6549643Y-1356357D01*
X6535357Y-1284929D01*
X6521071Y-1242072D01*
X6506786Y-1213500D01*
X6478214Y-1170643D01*
X6463928Y-1156357D01*
X7006786Y-1613500D02*
X6992500Y-1599214D01*
X6963928Y-1556357D01*
X6949643Y-1527786D01*
X6935357Y-1484929D01*
X6921071Y-1413500D01*
X6921071Y-1356357D01*
X6935357Y-1284929D01*
X6949643Y-1242072D01*
X6963928Y-1213500D01*
X6992500Y-1170643D01*
X7006786Y-1156357D01*
X7121071Y-1299214D02*
X7121071Y-1499214D01*
X7121071Y-1327786D02*
X7135357Y-1313500D01*
X7163928Y-1299214D01*
X7206786Y-1299214D01*
X7235357Y-1313500D01*
X7249643Y-1342072D01*
X7249643Y-1499214D01*
X7435357Y-1499214D02*
X7406786Y-1484929D01*
X7392500Y-1470643D01*
X7378214Y-1442071D01*
X7378214Y-1356357D01*
X7392500Y-1327786D01*
X7406786Y-1313500D01*
X7435357Y-1299214D01*
X7478214Y-1299214D01*
X7506786Y-1313500D01*
X7521071Y-1327786D01*
X7535357Y-1356357D01*
X7535357Y-1442071D01*
X7521071Y-1470643D01*
X7506786Y-1484929D01*
X7478214Y-1499214D01*
X7435357Y-1499214D01*
X7621071Y-1299214D02*
X7735357Y-1299214D01*
X7663928Y-1199214D02*
X7663928Y-1456357D01*
X7678214Y-1484929D01*
X7706786Y-1499214D01*
X7735357Y-1499214D01*
X8063928Y-1299214D02*
X8063928Y-1599214D01*
X8063928Y-1313500D02*
X8092500Y-1299214D01*
X8149643Y-1299214D01*
X8178214Y-1313500D01*
X8192500Y-1327786D01*
X8206786Y-1356357D01*
X8206786Y-1442071D01*
X8192500Y-1470643D01*
X8178214Y-1484929D01*
X8149643Y-1499214D01*
X8092500Y-1499214D01*
X8063928Y-1484929D01*
X8378214Y-1499214D02*
X8349643Y-1484929D01*
X8335357Y-1456357D01*
X8335357Y-1199214D01*
X8621071Y-1499214D02*
X8621071Y-1342072D01*
X8606786Y-1313500D01*
X8578214Y-1299214D01*
X8521071Y-1299214D01*
X8492500Y-1313500D01*
X8621071Y-1484929D02*
X8592500Y-1499214D01*
X8521071Y-1499214D01*
X8492500Y-1484929D01*
X8478214Y-1456357D01*
X8478214Y-1427786D01*
X8492500Y-1399214D01*
X8521071Y-1384929D01*
X8592500Y-1384929D01*
X8621071Y-1370643D01*
X8721071Y-1299214D02*
X8835357Y-1299214D01*
X8763929Y-1199214D02*
X8763929Y-1456357D01*
X8778214Y-1484929D01*
X8806786Y-1499214D01*
X8835357Y-1499214D01*
X9049643Y-1484929D02*
X9021072Y-1499214D01*
X8963929Y-1499214D01*
X8935357Y-1484929D01*
X8921072Y-1456357D01*
X8921072Y-1342072D01*
X8935357Y-1313500D01*
X8963929Y-1299214D01*
X9021072Y-1299214D01*
X9049643Y-1313500D01*
X9063929Y-1342072D01*
X9063929Y-1370643D01*
X8921072Y-1399214D01*
X9321072Y-1499214D02*
X9321072Y-1199214D01*
X9321072Y-1484929D02*
X9292500Y-1499214D01*
X9235357Y-1499214D01*
X9206786Y-1484929D01*
X9192500Y-1470643D01*
X9178214Y-1442071D01*
X9178214Y-1356357D01*
X9192500Y-1327786D01*
X9206786Y-1313500D01*
X9235357Y-1299214D01*
X9292500Y-1299214D01*
X9321072Y-1313500D01*
X9435357Y-1613500D02*
X9449643Y-1599214D01*
X9478214Y-1556357D01*
X9492500Y-1527786D01*
X9506786Y-1484929D01*
X9521072Y-1413500D01*
X9521072Y-1356357D01*
X9506786Y-1284929D01*
X9492500Y-1242072D01*
X9478214Y-1213500D01*
X9449643Y-1170643D01*
X9435357Y-1156357D01*
X-206890Y-1598910D02*
X-206890Y-1997690D01*
X-406280Y-1798300D02*
X-7500Y-1798300D01*
X235357Y-1634014D02*
X421071Y-1634014D01*
X321071Y-1748300D01*
X363928Y-1748300D01*
X392500Y-1762586D01*
X406786Y-1776871D01*
X421071Y-1805443D01*
X421071Y-1876871D01*
X406786Y-1905443D01*
X392500Y-1919729D01*
X363928Y-1934014D01*
X278214Y-1934014D01*
X249643Y-1919729D01*
X235357Y-1905443D01*
X549643Y-1905443D02*
X563929Y-1919729D01*
X549643Y-1934014D01*
X535357Y-1919729D01*
X549643Y-1905443D01*
X549643Y-1934014D01*
X706786Y-1934014D02*
X763928Y-1934014D01*
X792500Y-1919729D01*
X806786Y-1905443D01*
X835357Y-1862586D01*
X849643Y-1805443D01*
X849643Y-1691157D01*
X835357Y-1662586D01*
X821071Y-1648300D01*
X792500Y-1634014D01*
X735357Y-1634014D01*
X706786Y-1648300D01*
X692500Y-1662586D01*
X678214Y-1691157D01*
X678214Y-1762586D01*
X692500Y-1791157D01*
X706786Y-1805443D01*
X735357Y-1819729D01*
X792500Y-1819729D01*
X821071Y-1805443D01*
X835357Y-1791157D01*
X849643Y-1762586D01*
X992500Y-1934014D02*
X1049643Y-1934014D01*
X1078214Y-1919729D01*
X1092500Y-1905443D01*
X1121071Y-1862586D01*
X1135357Y-1805443D01*
X1135357Y-1691157D01*
X1121071Y-1662586D01*
X1106786Y-1648300D01*
X1078214Y-1634014D01*
X1021071Y-1634014D01*
X992500Y-1648300D01*
X978214Y-1662586D01*
X963928Y-1691157D01*
X963928Y-1762586D01*
X978214Y-1791157D01*
X992500Y-1805443D01*
X1021071Y-1819729D01*
X1078214Y-1819729D01*
X1106786Y-1805443D01*
X1121071Y-1791157D01*
X1135357Y-1762586D01*
X1263929Y-1934014D02*
X1263929Y-1734014D01*
X1263929Y-1762586D02*
X1278214Y-1748300D01*
X1306786Y-1734014D01*
X1349643Y-1734014D01*
X1378214Y-1748300D01*
X1392500Y-1776871D01*
X1392500Y-1934014D01*
X1392500Y-1776871D02*
X1406786Y-1748300D01*
X1435357Y-1734014D01*
X1478214Y-1734014D01*
X1506786Y-1748300D01*
X1521071Y-1776871D01*
X1521071Y-1934014D01*
X1663928Y-1934014D02*
X1663928Y-1734014D01*
X1663928Y-1762586D02*
X1678214Y-1748300D01*
X1706786Y-1734014D01*
X1749643Y-1734014D01*
X1778214Y-1748300D01*
X1792500Y-1776871D01*
X1792500Y-1934014D01*
X1792500Y-1776871D02*
X1806786Y-1748300D01*
X1835357Y-1734014D01*
X1878214Y-1734014D01*
X1906786Y-1748300D01*
X1921071Y-1776871D01*
X1921071Y-1934014D01*
X2506786Y-1619729D02*
X2249643Y-2005443D01*
X2892500Y-1634014D02*
X2921071Y-1634014D01*
X2949643Y-1648300D01*
X2963928Y-1662586D01*
X2978214Y-1691157D01*
X2992500Y-1748300D01*
X2992500Y-1819729D01*
X2978214Y-1876871D01*
X2963928Y-1905443D01*
X2949643Y-1919729D01*
X2921071Y-1934014D01*
X2892500Y-1934014D01*
X2863928Y-1919729D01*
X2849643Y-1905443D01*
X2835357Y-1876871D01*
X2821071Y-1819729D01*
X2821071Y-1748300D01*
X2835357Y-1691157D01*
X2849643Y-1662586D01*
X2863928Y-1648300D01*
X2892500Y-1634014D01*
X3121071Y-1905443D02*
X3135357Y-1919729D01*
X3121071Y-1934014D01*
X3106786Y-1919729D01*
X3121071Y-1905443D01*
X3121071Y-1934014D01*
X3421071Y-1934014D02*
X3249643Y-1934014D01*
X3335357Y-1934014D02*
X3335357Y-1634014D01*
X3306785Y-1676871D01*
X3278214Y-1705443D01*
X3249643Y-1719729D01*
X3692500Y-1634014D02*
X3549643Y-1634014D01*
X3535357Y-1776871D01*
X3549643Y-1762586D01*
X3578214Y-1748300D01*
X3649643Y-1748300D01*
X3678214Y-1762586D01*
X3692500Y-1776871D01*
X3706785Y-1805443D01*
X3706785Y-1876871D01*
X3692500Y-1905443D01*
X3678214Y-1919729D01*
X3649643Y-1934014D01*
X3578214Y-1934014D01*
X3549643Y-1919729D01*
X3535357Y-1905443D01*
X3806785Y-1634014D02*
X4006785Y-1634014D01*
X3878214Y-1934014D01*
X4106786Y-1634014D02*
X4106786Y-1691157D01*
X4221071Y-1634014D02*
X4221071Y-1691157D01*
X4663928Y-2048300D02*
X4649643Y-2034014D01*
X4621071Y-1991157D01*
X4606786Y-1962586D01*
X4592500Y-1919729D01*
X4578214Y-1848300D01*
X4578214Y-1791157D01*
X4592500Y-1719729D01*
X4606786Y-1676871D01*
X4621071Y-1648300D01*
X4649643Y-1605443D01*
X4663928Y-1591157D01*
X4749643Y-1634014D02*
X4949643Y-1634014D01*
X4821071Y-1934014D01*
X5049643Y-1662586D02*
X5063928Y-1648300D01*
X5092500Y-1634014D01*
X5163928Y-1634014D01*
X5192500Y-1648300D01*
X5206786Y-1662586D01*
X5221071Y-1691157D01*
X5221071Y-1719729D01*
X5206786Y-1762586D01*
X5035357Y-1934014D01*
X5221071Y-1934014D01*
X5578214Y-1934014D02*
X5578214Y-1634014D01*
X5706785Y-1934014D02*
X5706785Y-1776871D01*
X5692500Y-1748300D01*
X5663928Y-1734014D01*
X5621071Y-1734014D01*
X5592500Y-1748300D01*
X5578214Y-1762586D01*
X5892500Y-1934014D02*
X5863928Y-1919729D01*
X5849643Y-1905443D01*
X5835357Y-1876871D01*
X5835357Y-1791157D01*
X5849643Y-1762586D01*
X5863928Y-1748300D01*
X5892500Y-1734014D01*
X5935357Y-1734014D01*
X5963928Y-1748300D01*
X5978214Y-1762586D01*
X5992500Y-1791157D01*
X5992500Y-1876871D01*
X5978214Y-1905443D01*
X5963928Y-1919729D01*
X5935357Y-1934014D01*
X5892500Y-1934014D01*
X6163928Y-1934014D02*
X6135357Y-1919729D01*
X6121071Y-1891157D01*
X6121071Y-1634014D01*
X6392500Y-1919729D02*
X6363928Y-1934014D01*
X6306786Y-1934014D01*
X6278214Y-1919729D01*
X6263928Y-1891157D01*
X6263928Y-1776871D01*
X6278214Y-1748300D01*
X6306786Y-1734014D01*
X6363928Y-1734014D01*
X6392500Y-1748300D01*
X6406786Y-1776871D01*
X6406786Y-1805443D01*
X6263928Y-1834014D01*
X6521071Y-1919729D02*
X6549643Y-1934014D01*
X6606786Y-1934014D01*
X6635357Y-1919729D01*
X6649643Y-1891157D01*
X6649643Y-1876871D01*
X6635357Y-1848300D01*
X6606786Y-1834014D01*
X6563928Y-1834014D01*
X6535357Y-1819729D01*
X6521071Y-1791157D01*
X6521071Y-1776871D01*
X6535357Y-1748300D01*
X6563928Y-1734014D01*
X6606786Y-1734014D01*
X6635357Y-1748300D01*
X6749643Y-2048300D02*
X6763928Y-2034014D01*
X6792500Y-1991157D01*
X6806786Y-1962586D01*
X6821071Y-1919729D01*
X6835357Y-1848300D01*
X6835357Y-1791157D01*
X6821071Y-1719729D01*
X6806786Y-1676871D01*
X6792500Y-1648300D01*
X6763928Y-1605443D01*
X6749643Y-1591157D01*
X7292500Y-2048300D02*
X7278214Y-2034014D01*
X7249643Y-1991157D01*
X7235357Y-1962586D01*
X7221071Y-1919729D01*
X7206786Y-1848300D01*
X7206786Y-1791157D01*
X7221071Y-1719729D01*
X7235357Y-1676871D01*
X7249643Y-1648300D01*
X7278214Y-1605443D01*
X7292500Y-1591157D01*
X7406786Y-1734014D02*
X7406786Y-1934014D01*
X7406786Y-1762586D02*
X7421071Y-1748300D01*
X7449643Y-1734014D01*
X7492500Y-1734014D01*
X7521071Y-1748300D01*
X7535357Y-1776871D01*
X7535357Y-1934014D01*
X7721071Y-1934014D02*
X7692500Y-1919729D01*
X7678214Y-1905443D01*
X7663928Y-1876871D01*
X7663928Y-1791157D01*
X7678214Y-1762586D01*
X7692500Y-1748300D01*
X7721071Y-1734014D01*
X7763928Y-1734014D01*
X7792500Y-1748300D01*
X7806786Y-1762586D01*
X7821071Y-1791157D01*
X7821071Y-1876871D01*
X7806786Y-1905443D01*
X7792500Y-1919729D01*
X7763928Y-1934014D01*
X7721071Y-1934014D01*
X7906786Y-1734014D02*
X8021071Y-1734014D01*
X7949643Y-1634014D02*
X7949643Y-1891157D01*
X7963928Y-1919729D01*
X7992500Y-1934014D01*
X8021071Y-1934014D01*
X8349643Y-1734014D02*
X8349643Y-2034014D01*
X8349643Y-1748300D02*
X8378214Y-1734014D01*
X8435357Y-1734014D01*
X8463929Y-1748300D01*
X8478214Y-1762586D01*
X8492500Y-1791157D01*
X8492500Y-1876871D01*
X8478214Y-1905443D01*
X8463929Y-1919729D01*
X8435357Y-1934014D01*
X8378214Y-1934014D01*
X8349643Y-1919729D01*
X8663929Y-1934014D02*
X8635357Y-1919729D01*
X8621071Y-1891157D01*
X8621071Y-1634014D01*
X8906786Y-1934014D02*
X8906786Y-1776871D01*
X8892500Y-1748300D01*
X8863929Y-1734014D01*
X8806786Y-1734014D01*
X8778214Y-1748300D01*
X8906786Y-1919729D02*
X8878214Y-1934014D01*
X8806786Y-1934014D01*
X8778214Y-1919729D01*
X8763929Y-1891157D01*
X8763929Y-1862586D01*
X8778214Y-1834014D01*
X8806786Y-1819729D01*
X8878214Y-1819729D01*
X8906786Y-1805443D01*
X9006786Y-1734014D02*
X9121071Y-1734014D01*
X9049643Y-1634014D02*
X9049643Y-1891157D01*
X9063929Y-1919729D01*
X9092500Y-1934014D01*
X9121071Y-1934014D01*
X9335357Y-1919729D02*
X9306786Y-1934014D01*
X9249643Y-1934014D01*
X9221072Y-1919729D01*
X9206786Y-1891157D01*
X9206786Y-1776871D01*
X9221072Y-1748300D01*
X9249643Y-1734014D01*
X9306786Y-1734014D01*
X9335357Y-1748300D01*
X9349643Y-1776871D01*
X9349643Y-1805443D01*
X9206786Y-1834014D01*
X9606786Y-1934014D02*
X9606786Y-1634014D01*
X9606786Y-1919729D02*
X9578214Y-1934014D01*
X9521072Y-1934014D01*
X9492500Y-1919729D01*
X9478214Y-1905443D01*
X9463929Y-1876871D01*
X9463929Y-1791157D01*
X9478214Y-1762586D01*
X9492500Y-1748300D01*
X9521072Y-1734014D01*
X9578214Y-1734014D01*
X9606786Y-1748300D01*
X9721072Y-2048300D02*
X9735357Y-2034014D01*
X9763929Y-1991157D01*
X9778214Y-1962586D01*
X9792500Y-1919729D01*
X9806786Y-1848300D01*
X9806786Y-1791157D01*
X9792500Y-1719729D01*
X9778214Y-1676871D01*
X9763929Y-1648300D01*
X9735357Y-1605443D01*
X9721072Y-1591157D01*
X-66077Y-2468503D02*
X-66077Y-2185657D01*
X-348923Y-2185657D01*
X-348923Y-2468503D01*
X-66077Y-2468503D01*
X392500Y-2262794D02*
X392500Y-2462794D01*
X321071Y-2148509D02*
X249643Y-2362794D01*
X435357Y-2362794D01*
X549643Y-2434223D02*
X563929Y-2448509D01*
X549643Y-2462794D01*
X535357Y-2448509D01*
X549643Y-2434223D01*
X549643Y-2462794D01*
X749643Y-2162794D02*
X778214Y-2162794D01*
X806786Y-2177080D01*
X821071Y-2191366D01*
X835357Y-2219937D01*
X849643Y-2277080D01*
X849643Y-2348509D01*
X835357Y-2405652D01*
X821071Y-2434223D01*
X806786Y-2448509D01*
X778214Y-2462794D01*
X749643Y-2462794D01*
X721071Y-2448509D01*
X706786Y-2434223D01*
X692500Y-2405652D01*
X678214Y-2348509D01*
X678214Y-2277080D01*
X692500Y-2219937D01*
X706786Y-2191366D01*
X721071Y-2177080D01*
X749643Y-2162794D01*
X1035357Y-2162794D02*
X1063929Y-2162794D01*
X1092500Y-2177080D01*
X1106786Y-2191366D01*
X1121071Y-2219937D01*
X1135357Y-2277080D01*
X1135357Y-2348509D01*
X1121071Y-2405652D01*
X1106786Y-2434223D01*
X1092500Y-2448509D01*
X1063929Y-2462794D01*
X1035357Y-2462794D01*
X1006786Y-2448509D01*
X992500Y-2434223D01*
X978214Y-2405652D01*
X963928Y-2348509D01*
X963928Y-2277080D01*
X978214Y-2219937D01*
X992500Y-2191366D01*
X1006786Y-2177080D01*
X1035357Y-2162794D01*
X1263929Y-2462794D02*
X1263929Y-2262794D01*
X1263929Y-2291366D02*
X1278214Y-2277080D01*
X1306786Y-2262794D01*
X1349643Y-2262794D01*
X1378214Y-2277080D01*
X1392500Y-2305652D01*
X1392500Y-2462794D01*
X1392500Y-2305652D02*
X1406786Y-2277080D01*
X1435357Y-2262794D01*
X1478214Y-2262794D01*
X1506786Y-2277080D01*
X1521071Y-2305652D01*
X1521071Y-2462794D01*
X1663928Y-2462794D02*
X1663928Y-2262794D01*
X1663928Y-2291366D02*
X1678214Y-2277080D01*
X1706786Y-2262794D01*
X1749643Y-2262794D01*
X1778214Y-2277080D01*
X1792500Y-2305652D01*
X1792500Y-2462794D01*
X1792500Y-2305652D02*
X1806786Y-2277080D01*
X1835357Y-2262794D01*
X1878214Y-2262794D01*
X1906786Y-2277080D01*
X1921071Y-2305652D01*
X1921071Y-2462794D01*
X2506786Y-2148509D02*
X2249643Y-2534223D01*
X2892500Y-2162794D02*
X2921071Y-2162794D01*
X2949643Y-2177080D01*
X2963928Y-2191366D01*
X2978214Y-2219937D01*
X2992500Y-2277080D01*
X2992500Y-2348509D01*
X2978214Y-2405652D01*
X2963928Y-2434223D01*
X2949643Y-2448509D01*
X2921071Y-2462794D01*
X2892500Y-2462794D01*
X2863928Y-2448509D01*
X2849643Y-2434223D01*
X2835357Y-2405652D01*
X2821071Y-2348509D01*
X2821071Y-2277080D01*
X2835357Y-2219937D01*
X2849643Y-2191366D01*
X2863928Y-2177080D01*
X2892500Y-2162794D01*
X3121071Y-2434223D02*
X3135357Y-2448509D01*
X3121071Y-2462794D01*
X3106786Y-2448509D01*
X3121071Y-2434223D01*
X3121071Y-2462794D01*
X3421071Y-2462794D02*
X3249643Y-2462794D01*
X3335357Y-2462794D02*
X3335357Y-2162794D01*
X3306785Y-2205652D01*
X3278214Y-2234223D01*
X3249643Y-2248509D01*
X3692500Y-2162794D02*
X3549643Y-2162794D01*
X3535357Y-2305652D01*
X3549643Y-2291366D01*
X3578214Y-2277080D01*
X3649643Y-2277080D01*
X3678214Y-2291366D01*
X3692500Y-2305652D01*
X3706785Y-2334223D01*
X3706785Y-2405652D01*
X3692500Y-2434223D01*
X3678214Y-2448509D01*
X3649643Y-2462794D01*
X3578214Y-2462794D01*
X3549643Y-2448509D01*
X3535357Y-2434223D01*
X3806785Y-2162794D02*
X4006785Y-2162794D01*
X3878214Y-2462794D01*
X4106786Y-2162794D02*
X4106786Y-2219937D01*
X4221071Y-2162794D02*
X4221071Y-2219937D01*
X4663928Y-2577080D02*
X4649643Y-2562794D01*
X4621071Y-2519937D01*
X4606786Y-2491366D01*
X4592500Y-2448509D01*
X4578214Y-2377080D01*
X4578214Y-2319937D01*
X4592500Y-2248509D01*
X4606786Y-2205652D01*
X4621071Y-2177080D01*
X4649643Y-2134223D01*
X4663928Y-2119937D01*
X4906786Y-2262794D02*
X4906786Y-2462794D01*
X4835357Y-2148509D02*
X4763928Y-2362794D01*
X4949643Y-2362794D01*
X5292500Y-2462794D02*
X5292500Y-2162794D01*
X5421071Y-2462794D02*
X5421071Y-2305652D01*
X5406786Y-2277080D01*
X5378214Y-2262794D01*
X5335357Y-2262794D01*
X5306786Y-2277080D01*
X5292500Y-2291366D01*
X5606785Y-2462794D02*
X5578214Y-2448509D01*
X5563928Y-2434223D01*
X5549643Y-2405652D01*
X5549643Y-2319937D01*
X5563928Y-2291366D01*
X5578214Y-2277080D01*
X5606785Y-2262794D01*
X5649643Y-2262794D01*
X5678214Y-2277080D01*
X5692500Y-2291366D01*
X5706785Y-2319937D01*
X5706785Y-2405652D01*
X5692500Y-2434223D01*
X5678214Y-2448509D01*
X5649643Y-2462794D01*
X5606785Y-2462794D01*
X5878214Y-2462794D02*
X5849643Y-2448509D01*
X5835357Y-2419937D01*
X5835357Y-2162794D01*
X6106786Y-2448509D02*
X6078214Y-2462794D01*
X6021071Y-2462794D01*
X5992500Y-2448509D01*
X5978214Y-2419937D01*
X5978214Y-2305652D01*
X5992500Y-2277080D01*
X6021071Y-2262794D01*
X6078214Y-2262794D01*
X6106786Y-2277080D01*
X6121071Y-2305652D01*
X6121071Y-2334223D01*
X5978214Y-2362794D01*
X6235357Y-2448509D02*
X6263928Y-2462794D01*
X6321071Y-2462794D01*
X6349643Y-2448509D01*
X6363928Y-2419937D01*
X6363928Y-2405652D01*
X6349643Y-2377080D01*
X6321071Y-2362794D01*
X6278214Y-2362794D01*
X6249643Y-2348509D01*
X6235357Y-2319937D01*
X6235357Y-2305652D01*
X6249643Y-2277080D01*
X6278214Y-2262794D01*
X6321071Y-2262794D01*
X6349643Y-2277080D01*
X6463928Y-2577080D02*
X6478214Y-2562794D01*
X6506786Y-2519937D01*
X6521071Y-2491366D01*
X6535357Y-2448509D01*
X6549643Y-2377080D01*
X6549643Y-2319937D01*
X6535357Y-2248509D01*
X6521071Y-2205652D01*
X6506786Y-2177080D01*
X6478214Y-2134223D01*
X6463928Y-2119937D01*
X7006786Y-2577080D02*
X6992500Y-2562794D01*
X6963928Y-2519937D01*
X6949643Y-2491366D01*
X6935357Y-2448509D01*
X6921071Y-2377080D01*
X6921071Y-2319937D01*
X6935357Y-2248509D01*
X6949643Y-2205652D01*
X6963928Y-2177080D01*
X6992500Y-2134223D01*
X7006786Y-2119937D01*
X7121071Y-2262794D02*
X7121071Y-2462794D01*
X7121071Y-2291366D02*
X7135357Y-2277080D01*
X7163928Y-2262794D01*
X7206786Y-2262794D01*
X7235357Y-2277080D01*
X7249643Y-2305652D01*
X7249643Y-2462794D01*
X7435357Y-2462794D02*
X7406786Y-2448509D01*
X7392500Y-2434223D01*
X7378214Y-2405652D01*
X7378214Y-2319937D01*
X7392500Y-2291366D01*
X7406786Y-2277080D01*
X7435357Y-2262794D01*
X7478214Y-2262794D01*
X7506786Y-2277080D01*
X7521071Y-2291366D01*
X7535357Y-2319937D01*
X7535357Y-2405652D01*
X7521071Y-2434223D01*
X7506786Y-2448509D01*
X7478214Y-2462794D01*
X7435357Y-2462794D01*
X7621071Y-2262794D02*
X7735357Y-2262794D01*
X7663928Y-2162794D02*
X7663928Y-2419937D01*
X7678214Y-2448509D01*
X7706786Y-2462794D01*
X7735357Y-2462794D01*
X8063928Y-2262794D02*
X8063928Y-2562794D01*
X8063928Y-2277080D02*
X8092500Y-2262794D01*
X8149643Y-2262794D01*
X8178214Y-2277080D01*
X8192500Y-2291366D01*
X8206786Y-2319937D01*
X8206786Y-2405652D01*
X8192500Y-2434223D01*
X8178214Y-2448509D01*
X8149643Y-2462794D01*
X8092500Y-2462794D01*
X8063928Y-2448509D01*
X8378214Y-2462794D02*
X8349643Y-2448509D01*
X8335357Y-2419937D01*
X8335357Y-2162794D01*
X8621071Y-2462794D02*
X8621071Y-2305652D01*
X8606786Y-2277080D01*
X8578214Y-2262794D01*
X8521071Y-2262794D01*
X8492500Y-2277080D01*
X8621071Y-2448509D02*
X8592500Y-2462794D01*
X8521071Y-2462794D01*
X8492500Y-2448509D01*
X8478214Y-2419937D01*
X8478214Y-2391366D01*
X8492500Y-2362794D01*
X8521071Y-2348509D01*
X8592500Y-2348509D01*
X8621071Y-2334223D01*
X8721071Y-2262794D02*
X8835357Y-2262794D01*
X8763929Y-2162794D02*
X8763929Y-2419937D01*
X8778214Y-2448509D01*
X8806786Y-2462794D01*
X8835357Y-2462794D01*
X9049643Y-2448509D02*
X9021072Y-2462794D01*
X8963929Y-2462794D01*
X8935357Y-2448509D01*
X8921072Y-2419937D01*
X8921072Y-2305652D01*
X8935357Y-2277080D01*
X8963929Y-2262794D01*
X9021072Y-2262794D01*
X9049643Y-2277080D01*
X9063929Y-2305652D01*
X9063929Y-2334223D01*
X8921072Y-2362794D01*
X9321072Y-2462794D02*
X9321072Y-2162794D01*
X9321072Y-2448509D02*
X9292500Y-2462794D01*
X9235357Y-2462794D01*
X9206786Y-2448509D01*
X9192500Y-2434223D01*
X9178214Y-2405652D01*
X9178214Y-2319937D01*
X9192500Y-2291366D01*
X9206786Y-2277080D01*
X9235357Y-2262794D01*
X9292500Y-2262794D01*
X9321072Y-2277080D01*
X9435357Y-2577080D02*
X9449643Y-2562794D01*
X9478214Y-2519937D01*
X9492500Y-2491366D01*
X9506786Y-2448509D01*
X9521072Y-2377080D01*
X9521072Y-2319937D01*
X9506786Y-2248509D01*
X9492500Y-2205652D01*
X9478214Y-2177080D01*
X9449643Y-2134223D01*
X9435357Y-2119937D01*
M02*
