M48
;DRILL file {KiCad 4.0.1-stable} date 4/2/2017 1:31:38 AM
;FORMAT={-:-/ absolute / metric / decimal}
FMAT,2
METRIC,TZ
T1C1.702
T2C3.048
T3C3.988
T4C4.000
%
G90
G05
M71
T1
X3.595Y85.1
X3.595Y66.05
X3.595Y47.
X3.595Y27.95
X3.595Y8.9
X13.755Y85.1
X13.755Y66.05
X13.755Y47.
X13.755Y27.95
X13.755Y8.9
X22.645Y85.1
X22.645Y66.05
X22.645Y47.
X22.645Y27.95
X22.645Y8.9
X32.805Y85.1
X32.805Y66.05
X32.805Y47.
X32.805Y27.95
X32.805Y8.9
X41.695Y85.1
X41.695Y66.05
X41.695Y47.
X41.695Y27.95
X41.695Y8.9
X51.855Y85.1
X51.855Y66.05
X51.855Y47.
X51.855Y27.95
X51.855Y8.9
X60.745Y85.1
X60.745Y66.05
X60.745Y47.
X60.745Y27.95
X60.745Y8.9
X70.905Y85.1
X70.905Y66.05
X70.905Y47.
X70.905Y27.95
X70.905Y8.9
X79.795Y85.1
X79.795Y66.05
X79.795Y47.
X79.795Y27.95
X79.795Y8.9
X89.955Y85.1
X89.955Y66.05
X89.955Y47.
X89.955Y27.95
X89.955Y8.9
X98.845Y85.1
X98.845Y66.05
X98.845Y47.
X98.845Y27.95
X108.37Y9.025
X109.005Y85.1
X109.005Y66.05
X109.005Y47.
X109.005Y27.95
X117.895Y85.1
X117.895Y66.05
X117.895Y47.
X117.895Y27.95
X118.53Y9.025
X128.055Y85.1
X128.055Y66.05
X128.055Y47.
X128.055Y27.95
X136.945Y85.1
X136.945Y66.05
X136.945Y47.
X136.945Y27.95
X146.47Y9.05
X147.105Y85.1
X147.105Y66.05
X147.105Y47.
X147.105Y27.95
X155.995Y85.1
X155.995Y66.05
X155.995Y47.
X155.995Y27.95
X156.63Y9.05
X166.155Y85.1
X166.155Y66.05
X166.155Y47.
X166.155Y27.95
X175.045Y85.1
X175.045Y66.05
X175.045Y47.
X175.045Y27.95
X175.045Y8.9
X185.205Y85.1
X185.205Y66.05
X185.205Y47.
X185.205Y27.95
X185.205Y8.9
X194.095Y85.1
X194.095Y66.05
X194.095Y47.
X194.095Y27.95
X194.095Y8.9
X204.255Y85.1
X204.255Y66.05
X204.255Y47.
X204.255Y27.95
X204.255Y8.9
X213.145Y85.1
X213.145Y66.05
X213.145Y47.
X213.145Y27.95
X213.145Y8.9
X223.305Y85.1
X223.305Y66.05
X223.305Y47.
X223.305Y27.95
X223.305Y8.9
X232.195Y85.1
X232.195Y66.05
X232.195Y47.
X232.195Y27.95
X232.195Y8.9
X242.355Y85.1
X242.355Y66.05
X242.355Y47.
X242.355Y27.95
X242.355Y8.9
X251.245Y85.1
X251.245Y66.05
X251.245Y47.
X251.245Y27.95
X251.245Y8.9
X261.405Y85.1
X261.405Y66.05
X261.405Y47.
X261.405Y27.95
X261.405Y8.9
T2
X101.512Y2.04
X125.388Y2.04
X139.612Y2.065
X163.488Y2.065
T3
X8.675Y85.1
X8.675Y66.05
X8.675Y47.
X8.675Y27.95
X8.675Y8.9
X27.725Y85.1
X27.725Y66.05
X27.725Y47.
X27.725Y27.95
X27.725Y8.9
X46.775Y85.1
X46.775Y66.05
X46.775Y47.
X46.775Y27.95
X46.775Y8.9
X65.825Y85.1
X65.825Y66.05
X65.825Y47.
X65.825Y27.95
X65.825Y8.9
X84.875Y85.1
X84.875Y66.05
X84.875Y47.
X84.875Y27.95
X84.875Y8.9
X101.512Y17.28
X103.925Y85.1
X103.925Y66.05
X103.925Y47.
X103.925Y27.95
X113.45Y9.025
X122.975Y85.1
X122.975Y66.05
X122.975Y47.
X122.975Y27.95
X125.388Y17.28
X139.612Y17.305
X142.025Y85.1
X142.025Y66.05
X142.025Y47.
X142.025Y27.95
X151.55Y9.05
X161.075Y85.1
X161.075Y66.05
X161.075Y47.
X161.075Y27.95
X163.488Y17.305
X180.125Y85.1
X180.125Y66.05
X180.125Y47.
X180.125Y27.95
X180.125Y8.9
X199.175Y85.1
X199.175Y66.05
X199.175Y47.
X199.175Y27.95
X199.175Y8.9
X218.225Y85.1
X218.225Y66.05
X218.225Y47.
X218.225Y27.95
X218.225Y8.9
X237.275Y85.1
X237.275Y66.05
X237.275Y47.
X237.275Y27.95
X237.275Y8.9
X256.325Y85.1
X256.325Y66.05
X256.325Y47.
X256.325Y27.95
X256.325Y8.9
T4
X37.5Y37.51
X75.5Y75.5
X189.5Y18.5
X227.5Y56.5
T0
M30
