%FSLAX45Y45*%
G04 Gerber Fmt 4.5, Leading zero omitted, Abs format (unit mm)*
G04 Created by KiCad (PCBNEW 4.0.1-stable) date 4/3/2017 2:01:41 AM*
%MOMM*%
G01*
G04 APERTURE LIST*
%ADD10C,0.127000*%
%ADD11C,0.150000*%
%ADD12C,0.200000*%
%ADD13C,0.300000*%
G04 APERTURE END LIST*
D10*
D11*
X125000Y9400000D02*
X26375000Y9400000D01*
X0Y125000D02*
X0Y9275000D01*
X26375000Y0D02*
X125000Y0D01*
X26500000Y9275000D02*
X26500000Y125000D01*
X26375000Y0D02*
G75*
G03X26500000Y125000I0J125000D01*
G01*
X26500000Y9275000D02*
G75*
G03X26375000Y9400000I-125000J0D01*
G01*
X125000Y9400000D02*
G75*
G03X0Y9275000I0J-125000D01*
G01*
X0Y125000D02*
G75*
G03X125000Y0I125000J0D01*
G01*
D12*
X105000Y9295000D02*
X145000Y9255000D01*
X145000Y9295000D02*
X105000Y9255000D01*
X105000Y145000D02*
X145000Y105000D01*
X145000Y145000D02*
X105000Y105000D01*
X270000Y5345000D02*
X310000Y5305000D01*
X310000Y5345000D02*
X270000Y5305000D01*
X2170000Y5335000D02*
X2210000Y5295000D01*
X2210000Y5335000D02*
X2170000Y5295000D01*
X2740000Y2035000D02*
X2780000Y1995000D01*
X2780000Y2035000D02*
X2740000Y1995000D01*
X4110000Y7305000D02*
X4150000Y7265000D01*
X4150000Y7305000D02*
X4110000Y7265000D01*
X4650000Y2045000D02*
X4690000Y2005000D01*
X4690000Y2045000D02*
X4650000Y2005000D01*
X5990000Y7295000D02*
X6030000Y7255000D01*
X6030000Y7295000D02*
X5990000Y7255000D01*
X6530000Y2045000D02*
X6570000Y2005000D01*
X6570000Y2045000D02*
X6530000Y2005000D01*
X7870000Y7235000D02*
X7910000Y7195000D01*
X7910000Y7235000D02*
X7870000Y7195000D01*
X8460000Y2045000D02*
X8500000Y2005000D01*
X8500000Y2045000D02*
X8460000Y2005000D01*
X9467500Y970000D02*
X9507500Y930000D01*
X9507500Y970000D02*
X9467500Y930000D01*
X9790000Y7235000D02*
X9830000Y7195000D01*
X9830000Y7235000D02*
X9790000Y7195000D01*
X11320000Y1925000D02*
X11360000Y1885000D01*
X11360000Y1925000D02*
X11320000Y1885000D01*
X11370000Y8455000D02*
X11410000Y8415000D01*
X11410000Y8455000D02*
X11370000Y8415000D01*
X11380000Y3985000D02*
X11420000Y3945000D01*
X11420000Y3985000D02*
X11380000Y3945000D01*
X11460000Y6255000D02*
X11500000Y6215000D01*
X11500000Y6255000D02*
X11460000Y6215000D01*
X11500000Y3525000D02*
X11540000Y3485000D01*
X11540000Y3525000D02*
X11500000Y3485000D01*
X11640000Y7535000D02*
X11680000Y7495000D01*
X11680000Y7535000D02*
X11640000Y7495000D01*
X11640000Y6135000D02*
X11680000Y6095000D01*
X11680000Y6135000D02*
X11640000Y6095000D01*
X11640000Y5495000D02*
X11680000Y5455000D01*
X11680000Y5495000D02*
X11640000Y5455000D01*
X11640000Y5395000D02*
X11680000Y5355000D01*
X11680000Y5395000D02*
X11640000Y5355000D01*
X11730000Y7555000D02*
X11770000Y7515000D01*
X11770000Y7555000D02*
X11730000Y7515000D01*
X11730000Y2095000D02*
X11770000Y2055000D01*
X11770000Y2095000D02*
X11730000Y2055000D01*
X11730000Y1815000D02*
X11770000Y1775000D01*
X11770000Y1815000D02*
X11730000Y1775000D01*
X11810000Y2045000D02*
X11850000Y2005000D01*
X11850000Y2045000D02*
X11810000Y2005000D01*
X11850000Y7635000D02*
X11890000Y7595000D01*
X11890000Y7635000D02*
X11850000Y7595000D01*
X11900000Y1915000D02*
X11940000Y1875000D01*
X11940000Y1915000D02*
X11900000Y1875000D01*
X11920000Y6545000D02*
X11960000Y6505000D01*
X11960000Y6545000D02*
X11920000Y6505000D01*
X11930000Y7695000D02*
X11970000Y7655000D01*
X11970000Y7695000D02*
X11930000Y7655000D01*
X11930000Y7405000D02*
X11970000Y7365000D01*
X11970000Y7405000D02*
X11930000Y7365000D01*
X11940000Y6445000D02*
X11980000Y6405000D01*
X11980000Y6445000D02*
X11940000Y6405000D01*
X12080000Y5355000D02*
X12120000Y5315000D01*
X12120000Y5355000D02*
X12080000Y5315000D01*
X12160000Y7065000D02*
X12200000Y7025000D01*
X12200000Y7065000D02*
X12160000Y7025000D01*
X12220000Y7955000D02*
X12260000Y7915000D01*
X12260000Y7955000D02*
X12220000Y7915000D01*
X12260000Y5705000D02*
X12300000Y5665000D01*
X12300000Y5705000D02*
X12260000Y5665000D01*
X12270000Y5415000D02*
X12310000Y5375000D01*
X12310000Y5415000D02*
X12270000Y5375000D01*
X12490000Y8205000D02*
X12530000Y8165000D01*
X12530000Y8205000D02*
X12490000Y8165000D01*
X12630000Y4655000D02*
X12670000Y4615000D01*
X12670000Y4655000D02*
X12630000Y4615000D01*
X12750000Y4975000D02*
X12790000Y4935000D01*
X12790000Y4975000D02*
X12750000Y4935000D01*
X12800000Y1835000D02*
X12840000Y1795000D01*
X12840000Y1835000D02*
X12800000Y1795000D01*
X12815000Y3836000D02*
X12855000Y3796000D01*
X12855000Y3836000D02*
X12815000Y3796000D01*
X12873000Y3672000D02*
X12913000Y3632000D01*
X12913000Y3672000D02*
X12873000Y3632000D01*
X12880000Y5495000D02*
X12920000Y5455000D01*
X12920000Y5495000D02*
X12880000Y5455000D01*
X12920000Y6485000D02*
X12960000Y6445000D01*
X12960000Y6485000D02*
X12920000Y6445000D01*
X12941000Y3926000D02*
X12981000Y3886000D01*
X12981000Y3926000D02*
X12941000Y3886000D01*
X12980000Y7845000D02*
X13020000Y7805000D01*
X13020000Y7845000D02*
X12980000Y7805000D01*
X12990000Y5405000D02*
X13030000Y5365000D01*
X13030000Y5405000D02*
X12990000Y5365000D01*
X13030000Y2335000D02*
X13070000Y2295000D01*
X13070000Y2335000D02*
X13030000Y2295000D01*
X13040000Y5635000D02*
X13080000Y5595000D01*
X13080000Y5635000D02*
X13040000Y5595000D01*
X13070000Y3405000D02*
X13110000Y3365000D01*
X13110000Y3405000D02*
X13070000Y3365000D01*
X13130000Y4815000D02*
X13170000Y4775000D01*
X13170000Y4815000D02*
X13130000Y4775000D01*
X13140000Y2455000D02*
X13180000Y2415000D01*
X13180000Y2455000D02*
X13140000Y2415000D01*
X13160000Y7245000D02*
X13200000Y7205000D01*
X13200000Y7245000D02*
X13160000Y7205000D01*
X13160000Y3225000D02*
X13200000Y3185000D01*
X13200000Y3225000D02*
X13160000Y3185000D01*
X13210000Y4885000D02*
X13250000Y4845000D01*
X13250000Y4885000D02*
X13210000Y4845000D01*
X13230000Y4725000D02*
X13270000Y4685000D01*
X13270000Y4725000D02*
X13230000Y4685000D01*
X13240000Y6435000D02*
X13280000Y6395000D01*
X13280000Y6435000D02*
X13240000Y6395000D01*
X13310000Y6135000D02*
X13350000Y6095000D01*
X13350000Y6135000D02*
X13310000Y6095000D01*
X13310000Y2335000D02*
X13350000Y2295000D01*
X13350000Y2335000D02*
X13310000Y2295000D01*
X13320000Y4705000D02*
X13360000Y4665000D01*
X13360000Y4705000D02*
X13320000Y4665000D01*
X13370000Y3315000D02*
X13410000Y3275000D01*
X13410000Y3315000D02*
X13370000Y3275000D01*
X13380000Y6635000D02*
X13420000Y6595000D01*
X13420000Y6635000D02*
X13380000Y6595000D01*
X13390000Y6065000D02*
X13430000Y6025000D01*
X13430000Y6065000D02*
X13390000Y6025000D01*
X13390000Y2245000D02*
X13430000Y2205000D01*
X13430000Y2245000D02*
X13390000Y2205000D01*
X13420000Y7915000D02*
X13460000Y7875000D01*
X13460000Y7915000D02*
X13420000Y7875000D01*
X13420000Y5915000D02*
X13460000Y5875000D01*
X13460000Y5915000D02*
X13420000Y5875000D01*
X13420000Y3055000D02*
X13460000Y3015000D01*
X13460000Y3055000D02*
X13420000Y3015000D01*
X13425000Y3756000D02*
X13465000Y3716000D01*
X13465000Y3756000D02*
X13425000Y3716000D01*
X13450000Y3245000D02*
X13490000Y3205000D01*
X13490000Y3245000D02*
X13450000Y3205000D01*
X13480000Y6685000D02*
X13520000Y6645000D01*
X13520000Y6685000D02*
X13480000Y6645000D01*
X13490000Y5635000D02*
X13530000Y5595000D01*
X13530000Y5635000D02*
X13490000Y5595000D01*
X13500000Y4905000D02*
X13540000Y4865000D01*
X13540000Y4905000D02*
X13500000Y4865000D01*
X13500000Y2005000D02*
X13540000Y1965000D01*
X13540000Y2005000D02*
X13500000Y1965000D01*
X13520000Y6595000D02*
X13560000Y6555000D01*
X13560000Y6595000D02*
X13520000Y6555000D01*
X13530000Y3945000D02*
X13570000Y3905000D01*
X13570000Y3945000D02*
X13530000Y3905000D01*
X13555000Y1605000D02*
X13595000Y1565000D01*
X13595000Y1605000D02*
X13555000Y1565000D01*
X13580000Y7225000D02*
X13620000Y7185000D01*
X13620000Y7225000D02*
X13580000Y7185000D01*
X13610000Y4995000D02*
X13650000Y4955000D01*
X13650000Y4995000D02*
X13610000Y4955000D01*
X13650000Y5085000D02*
X13690000Y5045000D01*
X13690000Y5085000D02*
X13650000Y5045000D01*
X13670000Y1755000D02*
X13710000Y1715000D01*
X13710000Y1755000D02*
X13670000Y1715000D01*
X13700000Y5915000D02*
X13740000Y5875000D01*
X13740000Y5915000D02*
X13700000Y5875000D01*
X13740000Y5835000D02*
X13780000Y5795000D01*
X13780000Y5835000D02*
X13740000Y5795000D01*
X13750000Y5745000D02*
X13790000Y5705000D01*
X13790000Y5745000D02*
X13750000Y5705000D01*
X13750000Y5645000D02*
X13790000Y5605000D01*
X13790000Y5645000D02*
X13750000Y5605000D01*
X13800000Y6235000D02*
X13840000Y6195000D01*
X13840000Y6235000D02*
X13800000Y6195000D01*
X13820000Y6495000D02*
X13860000Y6455000D01*
X13860000Y6495000D02*
X13820000Y6455000D01*
X13840000Y1185000D02*
X13880000Y1145000D01*
X13880000Y1185000D02*
X13840000Y1145000D01*
X13840000Y1015000D02*
X13880000Y975000D01*
X13880000Y1015000D02*
X13840000Y975000D01*
X13850000Y2415000D02*
X13890000Y2375000D01*
X13890000Y2415000D02*
X13850000Y2375000D01*
X13970000Y3875000D02*
X14010000Y3835000D01*
X14010000Y3875000D02*
X13970000Y3835000D01*
X13990000Y4485000D02*
X14030000Y4445000D01*
X14030000Y4485000D02*
X13990000Y4445000D01*
X14010000Y5035000D02*
X14050000Y4995000D01*
X14050000Y5035000D02*
X14010000Y4995000D01*
X14030000Y5795000D02*
X14070000Y5755000D01*
X14070000Y5795000D02*
X14030000Y5755000D01*
X14070000Y2095000D02*
X14110000Y2055000D01*
X14110000Y2095000D02*
X14070000Y2055000D01*
X14140000Y2025000D02*
X14180000Y1985000D01*
X14180000Y2025000D02*
X14140000Y1985000D01*
X14160000Y7595000D02*
X14200000Y7555000D01*
X14200000Y7595000D02*
X14160000Y7555000D01*
X14210000Y5355000D02*
X14250000Y5315000D01*
X14250000Y5355000D02*
X14210000Y5315000D01*
X14230000Y5175000D02*
X14270000Y5135000D01*
X14270000Y5175000D02*
X14230000Y5135000D01*
X14260000Y7255000D02*
X14300000Y7215000D01*
X14300000Y7255000D02*
X14260000Y7215000D01*
X14300000Y3145000D02*
X14340000Y3105000D01*
X14340000Y3145000D02*
X14300000Y3105000D01*
X14450000Y4685000D02*
X14490000Y4645000D01*
X14490000Y4685000D02*
X14450000Y4645000D01*
X14495000Y1870000D02*
X14535000Y1830000D01*
X14535000Y1870000D02*
X14495000Y1830000D01*
X14510000Y3845000D02*
X14550000Y3805000D01*
X14550000Y3845000D02*
X14510000Y3805000D01*
X14550000Y4775000D02*
X14590000Y4735000D01*
X14590000Y4775000D02*
X14550000Y4735000D01*
X14640000Y6355000D02*
X14680000Y6315000D01*
X14680000Y6355000D02*
X14640000Y6315000D01*
X14640000Y5845000D02*
X14680000Y5805000D01*
X14680000Y5845000D02*
X14640000Y5805000D01*
X14740000Y4915000D02*
X14780000Y4875000D01*
X14780000Y4915000D02*
X14740000Y4875000D01*
X14810000Y5605000D02*
X14850000Y5565000D01*
X14850000Y5605000D02*
X14810000Y5565000D01*
X14820000Y4215000D02*
X14860000Y4175000D01*
X14860000Y4215000D02*
X14820000Y4175000D01*
X14830000Y4625000D02*
X14870000Y4585000D01*
X14870000Y4625000D02*
X14830000Y4585000D01*
X14830000Y4525000D02*
X14870000Y4485000D01*
X14870000Y4525000D02*
X14830000Y4485000D01*
X14830000Y4305000D02*
X14870000Y4265000D01*
X14870000Y4305000D02*
X14830000Y4265000D01*
X14830000Y2235000D02*
X14870000Y2195000D01*
X14870000Y2235000D02*
X14830000Y2195000D01*
X14840000Y7555000D02*
X14880000Y7515000D01*
X14880000Y7555000D02*
X14840000Y7515000D01*
X14850000Y5335000D02*
X14890000Y5295000D01*
X14890000Y5335000D02*
X14850000Y5295000D01*
X14860000Y5505000D02*
X14900000Y5465000D01*
X14900000Y5505000D02*
X14860000Y5465000D01*
X14870000Y6095000D02*
X14910000Y6055000D01*
X14910000Y6095000D02*
X14870000Y6055000D01*
X14920000Y8815000D02*
X14960000Y8775000D01*
X14960000Y8815000D02*
X14920000Y8775000D01*
X14970000Y2875000D02*
X15010000Y2835000D01*
X15010000Y2875000D02*
X14970000Y2835000D01*
X14980000Y6005000D02*
X15020000Y5965000D01*
X15020000Y6005000D02*
X14980000Y5965000D01*
X14980000Y4485000D02*
X15020000Y4445000D01*
X15020000Y4485000D02*
X14980000Y4445000D01*
X15040000Y5145000D02*
X15080000Y5105000D01*
X15080000Y5145000D02*
X15040000Y5105000D01*
X15070000Y4445000D02*
X15110000Y4405000D01*
X15110000Y4445000D02*
X15070000Y4405000D01*
X15080000Y4355000D02*
X15120000Y4315000D01*
X15120000Y4355000D02*
X15080000Y4315000D01*
X15310000Y6975000D02*
X15350000Y6935000D01*
X15350000Y6975000D02*
X15310000Y6935000D01*
X15320000Y5485000D02*
X15360000Y5445000D01*
X15360000Y5485000D02*
X15320000Y5445000D01*
X15400000Y1315000D02*
X15440000Y1275000D01*
X15440000Y1315000D02*
X15400000Y1275000D01*
X15680000Y6015000D02*
X15720000Y5975000D01*
X15720000Y6015000D02*
X15680000Y5975000D01*
X15700000Y6125000D02*
X15740000Y6085000D01*
X15740000Y6125000D02*
X15700000Y6085000D01*
X15840000Y6005000D02*
X15880000Y5965000D01*
X15880000Y6005000D02*
X15840000Y5965000D01*
X16060000Y7605000D02*
X16100000Y7565000D01*
X16100000Y7605000D02*
X16060000Y7565000D01*
X16270000Y7675000D02*
X16310000Y7635000D01*
X16310000Y7675000D02*
X16270000Y7635000D01*
X17180000Y5115000D02*
X17220000Y5075000D01*
X17220000Y5115000D02*
X17180000Y5075000D01*
X17350000Y8365000D02*
X17390000Y8325000D01*
X17390000Y8365000D02*
X17350000Y8325000D01*
X17800000Y2055000D02*
X17840000Y2015000D01*
X17840000Y2055000D02*
X17800000Y2015000D01*
X17930000Y3855000D02*
X17970000Y3815000D01*
X17970000Y3855000D02*
X17930000Y3815000D01*
X18725000Y2060000D02*
X18765000Y2020000D01*
X18765000Y2060000D02*
X18725000Y2020000D01*
X19100000Y5085000D02*
X19140000Y5045000D01*
X19140000Y5085000D02*
X19100000Y5045000D01*
X19150000Y2040000D02*
X19190000Y2000000D01*
X19190000Y2040000D02*
X19150000Y2000000D01*
X19700000Y2055000D02*
X19740000Y2015000D01*
X19740000Y2055000D02*
X19700000Y2015000D01*
X20980000Y5085000D02*
X21020000Y5045000D01*
X21020000Y5085000D02*
X20980000Y5045000D01*
X21620000Y2045000D02*
X21660000Y2005000D01*
X21660000Y2045000D02*
X21620000Y2005000D01*
X22850000Y5085000D02*
X22890000Y5045000D01*
X22890000Y5085000D02*
X22850000Y5045000D01*
X23500000Y2095000D02*
X23540000Y2055000D01*
X23540000Y2095000D02*
X23500000Y2055000D01*
X24820000Y5865000D02*
X24860000Y5825000D01*
X24860000Y5865000D02*
X24820000Y5825000D01*
X26355000Y9295000D02*
X26395000Y9255000D01*
X26395000Y9295000D02*
X26355000Y9255000D01*
X26355000Y145000D02*
X26395000Y105000D01*
X26395000Y145000D02*
X26355000Y105000D01*
X13045000Y9030000D02*
G75*
G03X13045000Y9030000I-45000J0D01*
G01*
X13485000Y9030000D02*
G75*
G03X13485000Y9030000I-45000J0D01*
G01*
X740500Y8051530D02*
X740500Y7952470D01*
X690970Y8002000D02*
X790030Y8002000D01*
X740500Y6146530D02*
X740500Y6047470D01*
X690970Y6097000D02*
X790030Y6097000D01*
X740500Y4241530D02*
X740500Y4142470D01*
X690970Y4192000D02*
X790030Y4192000D01*
X740500Y2336530D02*
X740500Y2237470D01*
X690970Y2287000D02*
X790030Y2287000D01*
X740500Y431530D02*
X740500Y332470D01*
X690970Y382000D02*
X790030Y382000D01*
X994500Y8051530D02*
X994500Y7952470D01*
X944970Y8002000D02*
X1044030Y8002000D01*
X994500Y6146530D02*
X994500Y6047470D01*
X944970Y6097000D02*
X1044030Y6097000D01*
X994500Y4241530D02*
X994500Y4142470D01*
X944970Y4192000D02*
X1044030Y4192000D01*
X994500Y2336530D02*
X994500Y2237470D01*
X944970Y2287000D02*
X1044030Y2287000D01*
X994500Y431530D02*
X994500Y332470D01*
X944970Y382000D02*
X1044030Y382000D01*
X2645500Y8051530D02*
X2645500Y7952470D01*
X2595970Y8002000D02*
X2695030Y8002000D01*
X2645500Y6146530D02*
X2645500Y6047470D01*
X2595970Y6097000D02*
X2695030Y6097000D01*
X2645500Y4241530D02*
X2645500Y4142470D01*
X2595970Y4192000D02*
X2695030Y4192000D01*
X2645500Y2336530D02*
X2645500Y2237470D01*
X2595970Y2287000D02*
X2695030Y2287000D01*
X2645500Y431530D02*
X2645500Y332470D01*
X2595970Y382000D02*
X2695030Y382000D01*
X2899500Y8051530D02*
X2899500Y7952470D01*
X2849970Y8002000D02*
X2949030Y8002000D01*
X2899500Y6146530D02*
X2899500Y6047470D01*
X2849970Y6097000D02*
X2949030Y6097000D01*
X2899500Y4241530D02*
X2899500Y4142470D01*
X2849970Y4192000D02*
X2949030Y4192000D01*
X2899500Y2336530D02*
X2899500Y2237470D01*
X2849970Y2287000D02*
X2949030Y2287000D01*
X2899500Y431530D02*
X2899500Y332470D01*
X2849970Y382000D02*
X2949030Y382000D01*
X4550500Y8051530D02*
X4550500Y7952470D01*
X4500970Y8002000D02*
X4600030Y8002000D01*
X4550500Y6146530D02*
X4550500Y6047470D01*
X4500970Y6097000D02*
X4600030Y6097000D01*
X4550500Y4241530D02*
X4550500Y4142470D01*
X4500970Y4192000D02*
X4600030Y4192000D01*
X4550500Y2336530D02*
X4550500Y2237470D01*
X4500970Y2287000D02*
X4600030Y2287000D01*
X4550500Y431530D02*
X4550500Y332470D01*
X4500970Y382000D02*
X4600030Y382000D01*
X4804500Y8051530D02*
X4804500Y7952470D01*
X4754970Y8002000D02*
X4854030Y8002000D01*
X4804500Y6146530D02*
X4804500Y6047470D01*
X4754970Y6097000D02*
X4854030Y6097000D01*
X4804500Y4241530D02*
X4804500Y4142470D01*
X4754970Y4192000D02*
X4854030Y4192000D01*
X4804500Y2336530D02*
X4804500Y2237470D01*
X4754970Y2287000D02*
X4854030Y2287000D01*
X4804500Y431530D02*
X4804500Y332470D01*
X4754970Y382000D02*
X4854030Y382000D01*
X6455500Y8051530D02*
X6455500Y7952470D01*
X6405970Y8002000D02*
X6505030Y8002000D01*
X6455500Y6146530D02*
X6455500Y6047470D01*
X6405970Y6097000D02*
X6505030Y6097000D01*
X6455500Y4241530D02*
X6455500Y4142470D01*
X6405970Y4192000D02*
X6505030Y4192000D01*
X6455500Y2336530D02*
X6455500Y2237470D01*
X6405970Y2287000D02*
X6505030Y2287000D01*
X6455500Y431530D02*
X6455500Y332470D01*
X6405970Y382000D02*
X6505030Y382000D01*
X6709500Y8051530D02*
X6709500Y7952470D01*
X6659970Y8002000D02*
X6759030Y8002000D01*
X6709500Y6146530D02*
X6709500Y6047470D01*
X6659970Y6097000D02*
X6759030Y6097000D01*
X6709500Y4241530D02*
X6709500Y4142470D01*
X6659970Y4192000D02*
X6759030Y4192000D01*
X6709500Y2336530D02*
X6709500Y2237470D01*
X6659970Y2287000D02*
X6759030Y2287000D01*
X6709500Y431530D02*
X6709500Y332470D01*
X6659970Y382000D02*
X6759030Y382000D01*
X8360500Y8051530D02*
X8360500Y7952470D01*
X8310970Y8002000D02*
X8410030Y8002000D01*
X8360500Y6146530D02*
X8360500Y6047470D01*
X8310970Y6097000D02*
X8410030Y6097000D01*
X8360500Y4241530D02*
X8360500Y4142470D01*
X8310970Y4192000D02*
X8410030Y4192000D01*
X8360500Y2336530D02*
X8360500Y2237470D01*
X8310970Y2287000D02*
X8410030Y2287000D01*
X8360500Y431530D02*
X8360500Y332470D01*
X8310970Y382000D02*
X8410030Y382000D01*
X8614500Y8051530D02*
X8614500Y7952470D01*
X8564970Y8002000D02*
X8664030Y8002000D01*
X8614500Y6146530D02*
X8614500Y6047470D01*
X8564970Y6097000D02*
X8664030Y6097000D01*
X8614500Y4241530D02*
X8614500Y4142470D01*
X8564970Y4192000D02*
X8664030Y4192000D01*
X8614500Y2336530D02*
X8614500Y2237470D01*
X8564970Y2287000D02*
X8664030Y2287000D01*
X8614500Y431530D02*
X8614500Y332470D01*
X8564970Y382000D02*
X8664030Y382000D01*
X10265500Y8051530D02*
X10265500Y7952470D01*
X10215970Y8002000D02*
X10315030Y8002000D01*
X10265500Y6146530D02*
X10265500Y6047470D01*
X10215970Y6097000D02*
X10315030Y6097000D01*
X10265500Y4241530D02*
X10265500Y4142470D01*
X10215970Y4192000D02*
X10315030Y4192000D01*
X10265500Y2336530D02*
X10265500Y2237470D01*
X10215970Y2287000D02*
X10315030Y2287000D01*
X10519500Y8051530D02*
X10519500Y7952470D01*
X10469970Y8002000D02*
X10569030Y8002000D01*
X10519500Y6146530D02*
X10519500Y6047470D01*
X10469970Y6097000D02*
X10569030Y6097000D01*
X10519500Y4241530D02*
X10519500Y4142470D01*
X10469970Y4192000D02*
X10569030Y4192000D01*
X10519500Y2336530D02*
X10519500Y2237470D01*
X10469970Y2287000D02*
X10569030Y2287000D01*
X11218000Y1460030D02*
X11218000Y1360970D01*
X11168470Y1410500D02*
X11267530Y1410500D01*
X11472000Y1460030D02*
X11472000Y1360970D01*
X11422470Y1410500D02*
X11521530Y1410500D01*
X12170500Y9067530D02*
X12170500Y8968470D01*
X12120970Y9018000D02*
X12220030Y9018000D01*
X12170500Y6146530D02*
X12170500Y6047470D01*
X12120970Y6097000D02*
X12220030Y6097000D01*
X12170500Y4241530D02*
X12170500Y4142470D01*
X12120970Y4192000D02*
X12220030Y4192000D01*
X12170500Y2336530D02*
X12170500Y2237470D01*
X12120970Y2287000D02*
X12220030Y2287000D01*
X12424500Y9067530D02*
X12424500Y8968470D01*
X12374970Y9018000D02*
X12474030Y9018000D01*
X12424500Y6146530D02*
X12424500Y6047470D01*
X12374970Y6097000D02*
X12474030Y6097000D01*
X12424500Y4241530D02*
X12424500Y4142470D01*
X12374970Y4192000D02*
X12474030Y4192000D01*
X12424500Y2336530D02*
X12424500Y2237470D01*
X12374970Y2287000D02*
X12474030Y2287000D01*
X14075500Y9067530D02*
X14075500Y8968470D01*
X14025970Y9018000D02*
X14125030Y9018000D01*
X14075500Y6146530D02*
X14075500Y6047470D01*
X14025970Y6097000D02*
X14125030Y6097000D01*
X14075500Y4241530D02*
X14075500Y4142470D01*
X14025970Y4192000D02*
X14125030Y4192000D01*
X14075500Y2336530D02*
X14075500Y2237470D01*
X14025970Y2287000D02*
X14125030Y2287000D01*
X14329500Y9067530D02*
X14329500Y8968470D01*
X14279970Y9018000D02*
X14379030Y9018000D01*
X14329500Y6146530D02*
X14329500Y6047470D01*
X14279970Y6097000D02*
X14379030Y6097000D01*
X14329500Y4241530D02*
X14329500Y4142470D01*
X14279970Y4192000D02*
X14379030Y4192000D01*
X14329500Y2336530D02*
X14329500Y2237470D01*
X14279970Y2287000D02*
X14379030Y2287000D01*
X15028000Y1462530D02*
X15028000Y1363470D01*
X14978470Y1413000D02*
X15077530Y1413000D01*
X15282000Y1462530D02*
X15282000Y1363470D01*
X15232470Y1413000D02*
X15331530Y1413000D01*
X15980500Y8051530D02*
X15980500Y7952470D01*
X15930970Y8002000D02*
X16030030Y8002000D01*
X15980500Y6146530D02*
X15980500Y6047470D01*
X15930970Y6097000D02*
X16030030Y6097000D01*
X15980500Y4241530D02*
X15980500Y4142470D01*
X15930970Y4192000D02*
X16030030Y4192000D01*
X15980500Y2336530D02*
X15980500Y2237470D01*
X15930970Y2287000D02*
X16030030Y2287000D01*
X16234500Y8051530D02*
X16234500Y7952470D01*
X16184970Y8002000D02*
X16284030Y8002000D01*
X16234500Y6146530D02*
X16234500Y6047470D01*
X16184970Y6097000D02*
X16284030Y6097000D01*
X16234500Y4241530D02*
X16234500Y4142470D01*
X16184970Y4192000D02*
X16284030Y4192000D01*
X16234500Y2336530D02*
X16234500Y2237470D01*
X16184970Y2287000D02*
X16284030Y2287000D01*
X17885500Y8051530D02*
X17885500Y7952470D01*
X17835970Y8002000D02*
X17935030Y8002000D01*
X17885500Y6146530D02*
X17885500Y6047470D01*
X17835970Y6097000D02*
X17935030Y6097000D01*
X17885500Y4241530D02*
X17885500Y4142470D01*
X17835970Y4192000D02*
X17935030Y4192000D01*
X17885500Y2336530D02*
X17885500Y2237470D01*
X17835970Y2287000D02*
X17935030Y2287000D01*
X17885500Y431530D02*
X17885500Y332470D01*
X17835970Y382000D02*
X17935030Y382000D01*
X18139500Y8051530D02*
X18139500Y7952470D01*
X18089970Y8002000D02*
X18189030Y8002000D01*
X18139500Y6146530D02*
X18139500Y6047470D01*
X18089970Y6097000D02*
X18189030Y6097000D01*
X18139500Y4241530D02*
X18139500Y4142470D01*
X18089970Y4192000D02*
X18189030Y4192000D01*
X18139500Y2336530D02*
X18139500Y2237470D01*
X18089970Y2287000D02*
X18189030Y2287000D01*
X18139500Y431530D02*
X18139500Y332470D01*
X18089970Y382000D02*
X18189030Y382000D01*
X19790500Y8051530D02*
X19790500Y7952470D01*
X19740970Y8002000D02*
X19840030Y8002000D01*
X19790500Y6146530D02*
X19790500Y6047470D01*
X19740970Y6097000D02*
X19840030Y6097000D01*
X19790500Y4241530D02*
X19790500Y4142470D01*
X19740970Y4192000D02*
X19840030Y4192000D01*
X19790500Y2336530D02*
X19790500Y2237470D01*
X19740970Y2287000D02*
X19840030Y2287000D01*
X19790500Y431530D02*
X19790500Y332470D01*
X19740970Y382000D02*
X19840030Y382000D01*
X20044500Y8051530D02*
X20044500Y7952470D01*
X19994970Y8002000D02*
X20094030Y8002000D01*
X20044500Y6146530D02*
X20044500Y6047470D01*
X19994970Y6097000D02*
X20094030Y6097000D01*
X20044500Y4241530D02*
X20044500Y4142470D01*
X19994970Y4192000D02*
X20094030Y4192000D01*
X20044500Y2336530D02*
X20044500Y2237470D01*
X19994970Y2287000D02*
X20094030Y2287000D01*
X20044500Y431530D02*
X20044500Y332470D01*
X19994970Y382000D02*
X20094030Y382000D01*
X21695500Y8051530D02*
X21695500Y7952470D01*
X21645970Y8002000D02*
X21745030Y8002000D01*
X21695500Y6146530D02*
X21695500Y6047470D01*
X21645970Y6097000D02*
X21745030Y6097000D01*
X21695500Y4241530D02*
X21695500Y4142470D01*
X21645970Y4192000D02*
X21745030Y4192000D01*
X21695500Y2336530D02*
X21695500Y2237470D01*
X21645970Y2287000D02*
X21745030Y2287000D01*
X21695500Y431530D02*
X21695500Y332470D01*
X21645970Y382000D02*
X21745030Y382000D01*
X21949500Y8051530D02*
X21949500Y7952470D01*
X21899970Y8002000D02*
X21999030Y8002000D01*
X21949500Y6146530D02*
X21949500Y6047470D01*
X21899970Y6097000D02*
X21999030Y6097000D01*
X21949500Y4241530D02*
X21949500Y4142470D01*
X21899970Y4192000D02*
X21999030Y4192000D01*
X21949500Y2336530D02*
X21949500Y2237470D01*
X21899970Y2287000D02*
X21999030Y2287000D01*
X21949500Y431530D02*
X21949500Y332470D01*
X21899970Y382000D02*
X21999030Y382000D01*
X23600500Y8051530D02*
X23600500Y7952470D01*
X23550970Y8002000D02*
X23650030Y8002000D01*
X23600500Y6146530D02*
X23600500Y6047470D01*
X23550970Y6097000D02*
X23650030Y6097000D01*
X23600500Y4241530D02*
X23600500Y4142470D01*
X23550970Y4192000D02*
X23650030Y4192000D01*
X23600500Y2336530D02*
X23600500Y2237470D01*
X23550970Y2287000D02*
X23650030Y2287000D01*
X23600500Y431530D02*
X23600500Y332470D01*
X23550970Y382000D02*
X23650030Y382000D01*
X23854500Y8051530D02*
X23854500Y7952470D01*
X23804970Y8002000D02*
X23904030Y8002000D01*
X23854500Y6146530D02*
X23854500Y6047470D01*
X23804970Y6097000D02*
X23904030Y6097000D01*
X23854500Y4241530D02*
X23854500Y4142470D01*
X23804970Y4192000D02*
X23904030Y4192000D01*
X23854500Y2336530D02*
X23854500Y2237470D01*
X23804970Y2287000D02*
X23904030Y2287000D01*
X23854500Y431530D02*
X23854500Y332470D01*
X23804970Y382000D02*
X23904030Y382000D01*
X25505500Y8051530D02*
X25505500Y7952470D01*
X25455970Y8002000D02*
X25555030Y8002000D01*
X25505500Y6146530D02*
X25505500Y6047470D01*
X25455970Y6097000D02*
X25555030Y6097000D01*
X25505500Y4241530D02*
X25505500Y4142470D01*
X25455970Y4192000D02*
X25555030Y4192000D01*
X25505500Y2336530D02*
X25505500Y2237470D01*
X25455970Y2287000D02*
X25555030Y2287000D01*
X25505500Y431530D02*
X25505500Y332470D01*
X25455970Y382000D02*
X25555030Y382000D01*
X25759500Y8051530D02*
X25759500Y7952470D01*
X25709970Y8002000D02*
X25809030Y8002000D01*
X25759500Y6146530D02*
X25759500Y6047470D01*
X25709970Y6097000D02*
X25809030Y6097000D01*
X25759500Y4241530D02*
X25759500Y4142470D01*
X25709970Y4192000D02*
X25809030Y4192000D01*
X25759500Y2336530D02*
X25759500Y2237470D01*
X25709970Y2287000D02*
X25809030Y2287000D01*
X25759500Y431530D02*
X25759500Y332470D01*
X25709970Y382000D02*
X25809030Y382000D01*
X539484Y8711016D02*
X539484Y8816984D01*
X433516Y8816984D01*
X433516Y8711016D01*
X539484Y8711016D01*
X539484Y6806016D02*
X539484Y6911984D01*
X433516Y6911984D01*
X433516Y6806016D01*
X539484Y6806016D01*
X539484Y4901016D02*
X539484Y5006984D01*
X433516Y5006984D01*
X433516Y4901016D01*
X539484Y4901016D01*
X539484Y2996016D02*
X539484Y3101984D01*
X433516Y3101984D01*
X433516Y2996016D01*
X539484Y2996016D01*
X539484Y1091016D02*
X539484Y1196984D01*
X433516Y1196984D01*
X433516Y1091016D01*
X539484Y1091016D01*
X1174484Y8965016D02*
X1174484Y9070984D01*
X1068516Y9070984D01*
X1068516Y8965016D01*
X1174484Y8965016D01*
X1174484Y7060016D02*
X1174484Y7165984D01*
X1068516Y7165984D01*
X1068516Y7060016D01*
X1174484Y7060016D01*
X1174484Y5155016D02*
X1174484Y5260984D01*
X1068516Y5260984D01*
X1068516Y5155016D01*
X1174484Y5155016D01*
X1174484Y3250016D02*
X1174484Y3355984D01*
X1068516Y3355984D01*
X1068516Y3250016D01*
X1174484Y3250016D01*
X1174484Y1345016D02*
X1174484Y1450984D01*
X1068516Y1450984D01*
X1068516Y1345016D01*
X1174484Y1345016D01*
X2444484Y8711016D02*
X2444484Y8816984D01*
X2338516Y8816984D01*
X2338516Y8711016D01*
X2444484Y8711016D01*
X2444484Y6806016D02*
X2444484Y6911984D01*
X2338516Y6911984D01*
X2338516Y6806016D01*
X2444484Y6806016D01*
X2444484Y4901016D02*
X2444484Y5006984D01*
X2338516Y5006984D01*
X2338516Y4901016D01*
X2444484Y4901016D01*
X2444484Y2996016D02*
X2444484Y3101984D01*
X2338516Y3101984D01*
X2338516Y2996016D01*
X2444484Y2996016D01*
X2444484Y1091016D02*
X2444484Y1196984D01*
X2338516Y1196984D01*
X2338516Y1091016D01*
X2444484Y1091016D01*
X3079484Y8965016D02*
X3079484Y9070984D01*
X2973516Y9070984D01*
X2973516Y8965016D01*
X3079484Y8965016D01*
X3079484Y7060016D02*
X3079484Y7165984D01*
X2973516Y7165984D01*
X2973516Y7060016D01*
X3079484Y7060016D01*
X3079484Y5155016D02*
X3079484Y5260984D01*
X2973516Y5260984D01*
X2973516Y5155016D01*
X3079484Y5155016D01*
X3079484Y3250016D02*
X3079484Y3355984D01*
X2973516Y3355984D01*
X2973516Y3250016D01*
X3079484Y3250016D01*
X3079484Y1345016D02*
X3079484Y1450984D01*
X2973516Y1450984D01*
X2973516Y1345016D01*
X3079484Y1345016D01*
X4349484Y8711016D02*
X4349484Y8816984D01*
X4243516Y8816984D01*
X4243516Y8711016D01*
X4349484Y8711016D01*
X4349484Y6806016D02*
X4349484Y6911984D01*
X4243516Y6911984D01*
X4243516Y6806016D01*
X4349484Y6806016D01*
X4349484Y4901016D02*
X4349484Y5006984D01*
X4243516Y5006984D01*
X4243516Y4901016D01*
X4349484Y4901016D01*
X4349484Y2996016D02*
X4349484Y3101984D01*
X4243516Y3101984D01*
X4243516Y2996016D01*
X4349484Y2996016D01*
X4349484Y1091016D02*
X4349484Y1196984D01*
X4243516Y1196984D01*
X4243516Y1091016D01*
X4349484Y1091016D01*
X4984484Y8965016D02*
X4984484Y9070984D01*
X4878516Y9070984D01*
X4878516Y8965016D01*
X4984484Y8965016D01*
X4984484Y7060016D02*
X4984484Y7165984D01*
X4878516Y7165984D01*
X4878516Y7060016D01*
X4984484Y7060016D01*
X4984484Y5155016D02*
X4984484Y5260984D01*
X4878516Y5260984D01*
X4878516Y5155016D01*
X4984484Y5155016D01*
X4984484Y3250016D02*
X4984484Y3355984D01*
X4878516Y3355984D01*
X4878516Y3250016D01*
X4984484Y3250016D01*
X4984484Y1345016D02*
X4984484Y1450984D01*
X4878516Y1450984D01*
X4878516Y1345016D01*
X4984484Y1345016D01*
X6254484Y8711016D02*
X6254484Y8816984D01*
X6148516Y8816984D01*
X6148516Y8711016D01*
X6254484Y8711016D01*
X6254484Y6806016D02*
X6254484Y6911984D01*
X6148516Y6911984D01*
X6148516Y6806016D01*
X6254484Y6806016D01*
X6254484Y4901016D02*
X6254484Y5006984D01*
X6148516Y5006984D01*
X6148516Y4901016D01*
X6254484Y4901016D01*
X6254484Y2996016D02*
X6254484Y3101984D01*
X6148516Y3101984D01*
X6148516Y2996016D01*
X6254484Y2996016D01*
X6254484Y1091016D02*
X6254484Y1196984D01*
X6148516Y1196984D01*
X6148516Y1091016D01*
X6254484Y1091016D01*
X6889484Y8965016D02*
X6889484Y9070984D01*
X6783516Y9070984D01*
X6783516Y8965016D01*
X6889484Y8965016D01*
X6889484Y7060016D02*
X6889484Y7165984D01*
X6783516Y7165984D01*
X6783516Y7060016D01*
X6889484Y7060016D01*
X6889484Y5155016D02*
X6889484Y5260984D01*
X6783516Y5260984D01*
X6783516Y5155016D01*
X6889484Y5155016D01*
X6889484Y3250016D02*
X6889484Y3355984D01*
X6783516Y3355984D01*
X6783516Y3250016D01*
X6889484Y3250016D01*
X6889484Y1345016D02*
X6889484Y1450984D01*
X6783516Y1450984D01*
X6783516Y1345016D01*
X6889484Y1345016D01*
X8159484Y8711016D02*
X8159484Y8816984D01*
X8053516Y8816984D01*
X8053516Y8711016D01*
X8159484Y8711016D01*
X8159484Y6806016D02*
X8159484Y6911984D01*
X8053516Y6911984D01*
X8053516Y6806016D01*
X8159484Y6806016D01*
X8159484Y4901016D02*
X8159484Y5006984D01*
X8053516Y5006984D01*
X8053516Y4901016D01*
X8159484Y4901016D01*
X8159484Y2996016D02*
X8159484Y3101984D01*
X8053516Y3101984D01*
X8053516Y2996016D01*
X8159484Y2996016D01*
X8159484Y1091016D02*
X8159484Y1196984D01*
X8053516Y1196984D01*
X8053516Y1091016D01*
X8159484Y1091016D01*
X8794484Y8965016D02*
X8794484Y9070984D01*
X8688516Y9070984D01*
X8688516Y8965016D01*
X8794484Y8965016D01*
X8794484Y7060016D02*
X8794484Y7165984D01*
X8688516Y7165984D01*
X8688516Y7060016D01*
X8794484Y7060016D01*
X8794484Y5155016D02*
X8794484Y5260984D01*
X8688516Y5260984D01*
X8688516Y5155016D01*
X8794484Y5155016D01*
X8794484Y3250016D02*
X8794484Y3355984D01*
X8688516Y3355984D01*
X8688516Y3250016D01*
X8794484Y3250016D01*
X8794484Y1345016D02*
X8794484Y1450984D01*
X8688516Y1450984D01*
X8688516Y1345016D01*
X8794484Y1345016D01*
X10064484Y8711016D02*
X10064484Y8816984D01*
X9958516Y8816984D01*
X9958516Y8711016D01*
X10064484Y8711016D01*
X10064484Y6806016D02*
X10064484Y6911984D01*
X9958516Y6911984D01*
X9958516Y6806016D01*
X10064484Y6806016D01*
X10064484Y4901016D02*
X10064484Y5006984D01*
X9958516Y5006984D01*
X9958516Y4901016D01*
X10064484Y4901016D01*
X10064484Y2996016D02*
X10064484Y3101984D01*
X9958516Y3101984D01*
X9958516Y2996016D01*
X10064484Y2996016D01*
X10699484Y8965016D02*
X10699484Y9070984D01*
X10593516Y9070984D01*
X10593516Y8965016D01*
X10699484Y8965016D01*
X10699484Y7060016D02*
X10699484Y7165984D01*
X10593516Y7165984D01*
X10593516Y7060016D01*
X10699484Y7060016D01*
X10699484Y5155016D02*
X10699484Y5260984D01*
X10593516Y5260984D01*
X10593516Y5155016D01*
X10699484Y5155016D01*
X10699484Y3250016D02*
X10699484Y3355984D01*
X10593516Y3355984D01*
X10593516Y3250016D01*
X10699484Y3250016D01*
X11143984Y341516D02*
X11143984Y447484D01*
X11038016Y447484D01*
X11038016Y341516D01*
X11143984Y341516D01*
X11778984Y595516D02*
X11778984Y701484D01*
X11673016Y701484D01*
X11673016Y595516D01*
X11778984Y595516D01*
X11969484Y6806016D02*
X11969484Y6911984D01*
X11863516Y6911984D01*
X11863516Y6806016D01*
X11969484Y6806016D01*
X11969484Y4901016D02*
X11969484Y5006984D01*
X11863516Y5006984D01*
X11863516Y4901016D01*
X11969484Y4901016D01*
X11969484Y2996016D02*
X11969484Y3101984D01*
X11863516Y3101984D01*
X11863516Y2996016D01*
X11969484Y2996016D01*
X12096484Y7949016D02*
X12096484Y8054984D01*
X11990516Y8054984D01*
X11990516Y7949016D01*
X12096484Y7949016D01*
X12604484Y7060016D02*
X12604484Y7165984D01*
X12498516Y7165984D01*
X12498516Y7060016D01*
X12604484Y7060016D01*
X12604484Y5155016D02*
X12604484Y5260984D01*
X12498516Y5260984D01*
X12498516Y5155016D01*
X12604484Y5155016D01*
X12604484Y3250016D02*
X12604484Y3355984D01*
X12498516Y3355984D01*
X12498516Y3250016D01*
X12604484Y3250016D01*
X12731484Y8203016D02*
X12731484Y8308984D01*
X12625516Y8308984D01*
X12625516Y8203016D01*
X12731484Y8203016D01*
X13874484Y6806016D02*
X13874484Y6911984D01*
X13768516Y6911984D01*
X13768516Y6806016D01*
X13874484Y6806016D01*
X13874484Y4901016D02*
X13874484Y5006984D01*
X13768516Y5006984D01*
X13768516Y4901016D01*
X13874484Y4901016D01*
X13874484Y2996016D02*
X13874484Y3101984D01*
X13768516Y3101984D01*
X13768516Y2996016D01*
X13874484Y2996016D01*
X14001484Y7949016D02*
X14001484Y8054984D01*
X13895516Y8054984D01*
X13895516Y7949016D01*
X14001484Y7949016D01*
X14509484Y7060016D02*
X14509484Y7165984D01*
X14403516Y7165984D01*
X14403516Y7060016D01*
X14509484Y7060016D01*
X14509484Y5155016D02*
X14509484Y5260984D01*
X14403516Y5260984D01*
X14403516Y5155016D01*
X14509484Y5155016D01*
X14509484Y3250016D02*
X14509484Y3355984D01*
X14403516Y3355984D01*
X14403516Y3250016D01*
X14509484Y3250016D01*
X14636484Y8203016D02*
X14636484Y8308984D01*
X14530516Y8308984D01*
X14530516Y8203016D01*
X14636484Y8203016D01*
X14953984Y344016D02*
X14953984Y449984D01*
X14848016Y449984D01*
X14848016Y344016D01*
X14953984Y344016D01*
X15588984Y598016D02*
X15588984Y703984D01*
X15483016Y703984D01*
X15483016Y598016D01*
X15588984Y598016D01*
X15779484Y8711016D02*
X15779484Y8816984D01*
X15673516Y8816984D01*
X15673516Y8711016D01*
X15779484Y8711016D01*
X15779484Y6806016D02*
X15779484Y6911984D01*
X15673516Y6911984D01*
X15673516Y6806016D01*
X15779484Y6806016D01*
X15779484Y4901016D02*
X15779484Y5006984D01*
X15673516Y5006984D01*
X15673516Y4901016D01*
X15779484Y4901016D01*
X15779484Y2996016D02*
X15779484Y3101984D01*
X15673516Y3101984D01*
X15673516Y2996016D01*
X15779484Y2996016D01*
X16414484Y8965016D02*
X16414484Y9070984D01*
X16308516Y9070984D01*
X16308516Y8965016D01*
X16414484Y8965016D01*
X16414484Y7060016D02*
X16414484Y7165984D01*
X16308516Y7165984D01*
X16308516Y7060016D01*
X16414484Y7060016D01*
X16414484Y5155016D02*
X16414484Y5260984D01*
X16308516Y5260984D01*
X16308516Y5155016D01*
X16414484Y5155016D01*
X16414484Y3250016D02*
X16414484Y3355984D01*
X16308516Y3355984D01*
X16308516Y3250016D01*
X16414484Y3250016D01*
X17684484Y8711016D02*
X17684484Y8816984D01*
X17578516Y8816984D01*
X17578516Y8711016D01*
X17684484Y8711016D01*
X17684484Y6806016D02*
X17684484Y6911984D01*
X17578516Y6911984D01*
X17578516Y6806016D01*
X17684484Y6806016D01*
X17684484Y4901016D02*
X17684484Y5006984D01*
X17578516Y5006984D01*
X17578516Y4901016D01*
X17684484Y4901016D01*
X17684484Y2996016D02*
X17684484Y3101984D01*
X17578516Y3101984D01*
X17578516Y2996016D01*
X17684484Y2996016D01*
X17684484Y1091016D02*
X17684484Y1196984D01*
X17578516Y1196984D01*
X17578516Y1091016D01*
X17684484Y1091016D01*
X18319484Y8965016D02*
X18319484Y9070984D01*
X18213516Y9070984D01*
X18213516Y8965016D01*
X18319484Y8965016D01*
X18319484Y7060016D02*
X18319484Y7165984D01*
X18213516Y7165984D01*
X18213516Y7060016D01*
X18319484Y7060016D01*
X18319484Y5155016D02*
X18319484Y5260984D01*
X18213516Y5260984D01*
X18213516Y5155016D01*
X18319484Y5155016D01*
X18319484Y3250016D02*
X18319484Y3355984D01*
X18213516Y3355984D01*
X18213516Y3250016D01*
X18319484Y3250016D01*
X18319484Y1345016D02*
X18319484Y1450984D01*
X18213516Y1450984D01*
X18213516Y1345016D01*
X18319484Y1345016D01*
X19589484Y8711016D02*
X19589484Y8816984D01*
X19483516Y8816984D01*
X19483516Y8711016D01*
X19589484Y8711016D01*
X19589484Y6806016D02*
X19589484Y6911984D01*
X19483516Y6911984D01*
X19483516Y6806016D01*
X19589484Y6806016D01*
X19589484Y4901016D02*
X19589484Y5006984D01*
X19483516Y5006984D01*
X19483516Y4901016D01*
X19589484Y4901016D01*
X19589484Y2996016D02*
X19589484Y3101984D01*
X19483516Y3101984D01*
X19483516Y2996016D01*
X19589484Y2996016D01*
X19589484Y1091016D02*
X19589484Y1196984D01*
X19483516Y1196984D01*
X19483516Y1091016D01*
X19589484Y1091016D01*
X20224484Y8965016D02*
X20224484Y9070984D01*
X20118516Y9070984D01*
X20118516Y8965016D01*
X20224484Y8965016D01*
X20224484Y7060016D02*
X20224484Y7165984D01*
X20118516Y7165984D01*
X20118516Y7060016D01*
X20224484Y7060016D01*
X20224484Y5155016D02*
X20224484Y5260984D01*
X20118516Y5260984D01*
X20118516Y5155016D01*
X20224484Y5155016D01*
X20224484Y3250016D02*
X20224484Y3355984D01*
X20118516Y3355984D01*
X20118516Y3250016D01*
X20224484Y3250016D01*
X20224484Y1345016D02*
X20224484Y1450984D01*
X20118516Y1450984D01*
X20118516Y1345016D01*
X20224484Y1345016D01*
X21494484Y8711016D02*
X21494484Y8816984D01*
X21388516Y8816984D01*
X21388516Y8711016D01*
X21494484Y8711016D01*
X21494484Y6806016D02*
X21494484Y6911984D01*
X21388516Y6911984D01*
X21388516Y6806016D01*
X21494484Y6806016D01*
X21494484Y4901016D02*
X21494484Y5006984D01*
X21388516Y5006984D01*
X21388516Y4901016D01*
X21494484Y4901016D01*
X21494484Y2996016D02*
X21494484Y3101984D01*
X21388516Y3101984D01*
X21388516Y2996016D01*
X21494484Y2996016D01*
X21494484Y1091016D02*
X21494484Y1196984D01*
X21388516Y1196984D01*
X21388516Y1091016D01*
X21494484Y1091016D01*
X22129484Y8965016D02*
X22129484Y9070984D01*
X22023516Y9070984D01*
X22023516Y8965016D01*
X22129484Y8965016D01*
X22129484Y7060016D02*
X22129484Y7165984D01*
X22023516Y7165984D01*
X22023516Y7060016D01*
X22129484Y7060016D01*
X22129484Y5155016D02*
X22129484Y5260984D01*
X22023516Y5260984D01*
X22023516Y5155016D01*
X22129484Y5155016D01*
X22129484Y3250016D02*
X22129484Y3355984D01*
X22023516Y3355984D01*
X22023516Y3250016D01*
X22129484Y3250016D01*
X22129484Y1345016D02*
X22129484Y1450984D01*
X22023516Y1450984D01*
X22023516Y1345016D01*
X22129484Y1345016D01*
X23399484Y8711016D02*
X23399484Y8816984D01*
X23293516Y8816984D01*
X23293516Y8711016D01*
X23399484Y8711016D01*
X23399484Y6806016D02*
X23399484Y6911984D01*
X23293516Y6911984D01*
X23293516Y6806016D01*
X23399484Y6806016D01*
X23399484Y4901016D02*
X23399484Y5006984D01*
X23293516Y5006984D01*
X23293516Y4901016D01*
X23399484Y4901016D01*
X23399484Y2996016D02*
X23399484Y3101984D01*
X23293516Y3101984D01*
X23293516Y2996016D01*
X23399484Y2996016D01*
X23399484Y1091016D02*
X23399484Y1196984D01*
X23293516Y1196984D01*
X23293516Y1091016D01*
X23399484Y1091016D01*
X24034484Y8965016D02*
X24034484Y9070984D01*
X23928516Y9070984D01*
X23928516Y8965016D01*
X24034484Y8965016D01*
X24034484Y7060016D02*
X24034484Y7165984D01*
X23928516Y7165984D01*
X23928516Y7060016D01*
X24034484Y7060016D01*
X24034484Y5155016D02*
X24034484Y5260984D01*
X23928516Y5260984D01*
X23928516Y5155016D01*
X24034484Y5155016D01*
X24034484Y3250016D02*
X24034484Y3355984D01*
X23928516Y3355984D01*
X23928516Y3250016D01*
X24034484Y3250016D01*
X24034484Y1345016D02*
X24034484Y1450984D01*
X23928516Y1450984D01*
X23928516Y1345016D01*
X24034484Y1345016D01*
X25304484Y8711016D02*
X25304484Y8816984D01*
X25198516Y8816984D01*
X25198516Y8711016D01*
X25304484Y8711016D01*
X25304484Y6806016D02*
X25304484Y6911984D01*
X25198516Y6911984D01*
X25198516Y6806016D01*
X25304484Y6806016D01*
X25304484Y4901016D02*
X25304484Y5006984D01*
X25198516Y5006984D01*
X25198516Y4901016D01*
X25304484Y4901016D01*
X25304484Y2996016D02*
X25304484Y3101984D01*
X25198516Y3101984D01*
X25198516Y2996016D01*
X25304484Y2996016D01*
X25304484Y1091016D02*
X25304484Y1196984D01*
X25198516Y1196984D01*
X25198516Y1091016D01*
X25304484Y1091016D01*
X25939484Y8965016D02*
X25939484Y9070984D01*
X25833516Y9070984D01*
X25833516Y8965016D01*
X25939484Y8965016D01*
X25939484Y7060016D02*
X25939484Y7165984D01*
X25833516Y7165984D01*
X25833516Y7060016D01*
X25939484Y7060016D01*
X25939484Y5155016D02*
X25939484Y5260984D01*
X25833516Y5260984D01*
X25833516Y5155016D01*
X25939484Y5155016D01*
X25939484Y3250016D02*
X25939484Y3355984D01*
X25833516Y3355984D01*
X25833516Y3250016D01*
X25939484Y3250016D01*
X25939484Y1345016D02*
X25939484Y1450984D01*
X25833516Y1450984D01*
X25833516Y1345016D01*
X25939484Y1345016D01*
D13*
X263929Y-473214D02*
X263929Y-173214D01*
X335357Y-173214D01*
X378214Y-187500D01*
X406786Y-216071D01*
X421071Y-244643D01*
X435357Y-301786D01*
X435357Y-344643D01*
X421071Y-401786D01*
X406786Y-430357D01*
X378214Y-458929D01*
X335357Y-473214D01*
X263929Y-473214D01*
X563929Y-473214D02*
X563929Y-273214D01*
X563929Y-330357D02*
X578214Y-301786D01*
X592500Y-287500D01*
X621071Y-273214D01*
X649643Y-273214D01*
X749643Y-473214D02*
X749643Y-273214D01*
X749643Y-173214D02*
X735357Y-187500D01*
X749643Y-201786D01*
X763928Y-187500D01*
X749643Y-173214D01*
X749643Y-201786D01*
X935357Y-473214D02*
X906786Y-458929D01*
X892500Y-430357D01*
X892500Y-173214D01*
X1092500Y-473214D02*
X1063929Y-458929D01*
X1049643Y-430357D01*
X1049643Y-173214D01*
X1435357Y-473214D02*
X1435357Y-173214D01*
X1535357Y-387500D01*
X1635357Y-173214D01*
X1635357Y-473214D01*
X1906786Y-473214D02*
X1906786Y-316072D01*
X1892500Y-287500D01*
X1863928Y-273214D01*
X1806786Y-273214D01*
X1778214Y-287500D01*
X1906786Y-458929D02*
X1878214Y-473214D01*
X1806786Y-473214D01*
X1778214Y-458929D01*
X1763928Y-430357D01*
X1763928Y-401786D01*
X1778214Y-373214D01*
X1806786Y-358929D01*
X1878214Y-358929D01*
X1906786Y-344643D01*
X2049643Y-273214D02*
X2049643Y-573214D01*
X2049643Y-287500D02*
X2078214Y-273214D01*
X2135357Y-273214D01*
X2163929Y-287500D01*
X2178214Y-301786D01*
X2192500Y-330357D01*
X2192500Y-416071D01*
X2178214Y-444643D01*
X2163929Y-458929D01*
X2135357Y-473214D01*
X2078214Y-473214D01*
X2049643Y-458929D01*
X2321071Y-444643D02*
X2335357Y-458929D01*
X2321071Y-473214D01*
X2306786Y-458929D01*
X2321071Y-444643D01*
X2321071Y-473214D01*
X2321071Y-287500D02*
X2335357Y-301786D01*
X2321071Y-316072D01*
X2306786Y-301786D01*
X2321071Y-287500D01*
X2321071Y-316072D01*
X-47500Y-947500D02*
X-7500Y-987500D01*
X-7500Y-947500D02*
X-47500Y-987500D01*
X321071Y-803214D02*
X349643Y-803214D01*
X378214Y-817500D01*
X392500Y-831786D01*
X406786Y-860357D01*
X421071Y-917500D01*
X421071Y-988929D01*
X406786Y-1046071D01*
X392500Y-1074643D01*
X378214Y-1088929D01*
X349643Y-1103214D01*
X321071Y-1103214D01*
X292500Y-1088929D01*
X278214Y-1074643D01*
X263929Y-1046071D01*
X249643Y-988929D01*
X249643Y-917500D01*
X263929Y-860357D01*
X278214Y-831786D01*
X292500Y-817500D01*
X321071Y-803214D01*
X549643Y-1074643D02*
X563929Y-1088929D01*
X549643Y-1103214D01*
X535357Y-1088929D01*
X549643Y-1074643D01*
X549643Y-1103214D01*
X821071Y-903214D02*
X821071Y-1103214D01*
X749643Y-788929D02*
X678214Y-1003214D01*
X863928Y-1003214D01*
X1035357Y-803214D02*
X1063929Y-803214D01*
X1092500Y-817500D01*
X1106786Y-831786D01*
X1121071Y-860357D01*
X1135357Y-917500D01*
X1135357Y-988929D01*
X1121071Y-1046071D01*
X1106786Y-1074643D01*
X1092500Y-1088929D01*
X1063929Y-1103214D01*
X1035357Y-1103214D01*
X1006786Y-1088929D01*
X992500Y-1074643D01*
X978214Y-1046071D01*
X963928Y-988929D01*
X963928Y-917500D01*
X978214Y-860357D01*
X992500Y-831786D01*
X1006786Y-817500D01*
X1035357Y-803214D01*
X1263929Y-1103214D02*
X1263929Y-903214D01*
X1263929Y-931786D02*
X1278214Y-917500D01*
X1306786Y-903214D01*
X1349643Y-903214D01*
X1378214Y-917500D01*
X1392500Y-946071D01*
X1392500Y-1103214D01*
X1392500Y-946071D02*
X1406786Y-917500D01*
X1435357Y-903214D01*
X1478214Y-903214D01*
X1506786Y-917500D01*
X1521071Y-946071D01*
X1521071Y-1103214D01*
X1663928Y-1103214D02*
X1663928Y-903214D01*
X1663928Y-931786D02*
X1678214Y-917500D01*
X1706786Y-903214D01*
X1749643Y-903214D01*
X1778214Y-917500D01*
X1792500Y-946071D01*
X1792500Y-1103214D01*
X1792500Y-946071D02*
X1806786Y-917500D01*
X1835357Y-903214D01*
X1878214Y-903214D01*
X1906786Y-917500D01*
X1921071Y-946071D01*
X1921071Y-1103214D01*
X2506786Y-788929D02*
X2249643Y-1174643D01*
X2892500Y-803214D02*
X2921071Y-803214D01*
X2949643Y-817500D01*
X2963928Y-831786D01*
X2978214Y-860357D01*
X2992500Y-917500D01*
X2992500Y-988929D01*
X2978214Y-1046071D01*
X2963928Y-1074643D01*
X2949643Y-1088929D01*
X2921071Y-1103214D01*
X2892500Y-1103214D01*
X2863928Y-1088929D01*
X2849643Y-1074643D01*
X2835357Y-1046071D01*
X2821071Y-988929D01*
X2821071Y-917500D01*
X2835357Y-860357D01*
X2849643Y-831786D01*
X2863928Y-817500D01*
X2892500Y-803214D01*
X3121071Y-1074643D02*
X3135357Y-1088929D01*
X3121071Y-1103214D01*
X3106786Y-1088929D01*
X3121071Y-1074643D01*
X3121071Y-1103214D01*
X3321071Y-803214D02*
X3349643Y-803214D01*
X3378214Y-817500D01*
X3392500Y-831786D01*
X3406785Y-860357D01*
X3421071Y-917500D01*
X3421071Y-988929D01*
X3406785Y-1046071D01*
X3392500Y-1074643D01*
X3378214Y-1088929D01*
X3349643Y-1103214D01*
X3321071Y-1103214D01*
X3292500Y-1088929D01*
X3278214Y-1074643D01*
X3263928Y-1046071D01*
X3249643Y-988929D01*
X3249643Y-917500D01*
X3263928Y-860357D01*
X3278214Y-831786D01*
X3292500Y-817500D01*
X3321071Y-803214D01*
X3706785Y-1103214D02*
X3535357Y-1103214D01*
X3621071Y-1103214D02*
X3621071Y-803214D01*
X3592500Y-846071D01*
X3563928Y-874643D01*
X3535357Y-888929D01*
X3963928Y-803214D02*
X3906785Y-803214D01*
X3878214Y-817500D01*
X3863928Y-831786D01*
X3835357Y-874643D01*
X3821071Y-931786D01*
X3821071Y-1046071D01*
X3835357Y-1074643D01*
X3849643Y-1088929D01*
X3878214Y-1103214D01*
X3935357Y-1103214D01*
X3963928Y-1088929D01*
X3978214Y-1074643D01*
X3992500Y-1046071D01*
X3992500Y-974643D01*
X3978214Y-946071D01*
X3963928Y-931786D01*
X3935357Y-917500D01*
X3878214Y-917500D01*
X3849643Y-931786D01*
X3835357Y-946071D01*
X3821071Y-974643D01*
X4106786Y-803214D02*
X4106786Y-860357D01*
X4221071Y-803214D02*
X4221071Y-860357D01*
X4663928Y-1217500D02*
X4649643Y-1203214D01*
X4621071Y-1160357D01*
X4606786Y-1131786D01*
X4592500Y-1088929D01*
X4578214Y-1017500D01*
X4578214Y-960357D01*
X4592500Y-888929D01*
X4606786Y-846071D01*
X4621071Y-817500D01*
X4649643Y-774643D01*
X4663928Y-760357D01*
X4935357Y-1103214D02*
X4763928Y-1103214D01*
X4849643Y-1103214D02*
X4849643Y-803214D01*
X4821071Y-846071D01*
X4792500Y-874643D01*
X4763928Y-888929D01*
X5192500Y-903214D02*
X5192500Y-1103214D01*
X5121071Y-788929D02*
X5049643Y-1003214D01*
X5235357Y-1003214D01*
X5392500Y-931786D02*
X5363928Y-917500D01*
X5349643Y-903214D01*
X5335357Y-874643D01*
X5335357Y-860357D01*
X5349643Y-831786D01*
X5363928Y-817500D01*
X5392500Y-803214D01*
X5449643Y-803214D01*
X5478214Y-817500D01*
X5492500Y-831786D01*
X5506786Y-860357D01*
X5506786Y-874643D01*
X5492500Y-903214D01*
X5478214Y-917500D01*
X5449643Y-931786D01*
X5392500Y-931786D01*
X5363928Y-946071D01*
X5349643Y-960357D01*
X5335357Y-988929D01*
X5335357Y-1046071D01*
X5349643Y-1074643D01*
X5363928Y-1088929D01*
X5392500Y-1103214D01*
X5449643Y-1103214D01*
X5478214Y-1088929D01*
X5492500Y-1074643D01*
X5506786Y-1046071D01*
X5506786Y-988929D01*
X5492500Y-960357D01*
X5478214Y-946071D01*
X5449643Y-931786D01*
X5863928Y-1103214D02*
X5863928Y-803214D01*
X5992500Y-1103214D02*
X5992500Y-946071D01*
X5978214Y-917500D01*
X5949643Y-903214D01*
X5906785Y-903214D01*
X5878214Y-917500D01*
X5863928Y-931786D01*
X6178214Y-1103214D02*
X6149643Y-1088929D01*
X6135357Y-1074643D01*
X6121071Y-1046071D01*
X6121071Y-960357D01*
X6135357Y-931786D01*
X6149643Y-917500D01*
X6178214Y-903214D01*
X6221071Y-903214D01*
X6249643Y-917500D01*
X6263928Y-931786D01*
X6278214Y-960357D01*
X6278214Y-1046071D01*
X6263928Y-1074643D01*
X6249643Y-1088929D01*
X6221071Y-1103214D01*
X6178214Y-1103214D01*
X6449643Y-1103214D02*
X6421071Y-1088929D01*
X6406786Y-1060357D01*
X6406786Y-803214D01*
X6678214Y-1088929D02*
X6649643Y-1103214D01*
X6592500Y-1103214D01*
X6563928Y-1088929D01*
X6549643Y-1060357D01*
X6549643Y-946071D01*
X6563928Y-917500D01*
X6592500Y-903214D01*
X6649643Y-903214D01*
X6678214Y-917500D01*
X6692500Y-946071D01*
X6692500Y-974643D01*
X6549643Y-1003214D01*
X6806786Y-1088929D02*
X6835357Y-1103214D01*
X6892500Y-1103214D01*
X6921071Y-1088929D01*
X6935357Y-1060357D01*
X6935357Y-1046071D01*
X6921071Y-1017500D01*
X6892500Y-1003214D01*
X6849643Y-1003214D01*
X6821071Y-988929D01*
X6806786Y-960357D01*
X6806786Y-946071D01*
X6821071Y-917500D01*
X6849643Y-903214D01*
X6892500Y-903214D01*
X6921071Y-917500D01*
X7035357Y-1217500D02*
X7049643Y-1203214D01*
X7078214Y-1160357D01*
X7092500Y-1131786D01*
X7106786Y-1088929D01*
X7121071Y-1017500D01*
X7121071Y-960357D01*
X7106786Y-888929D01*
X7092500Y-846071D01*
X7078214Y-817500D01*
X7049643Y-774643D01*
X7035357Y-760357D01*
X-7500Y-1363500D02*
G75*
G03X-7500Y-1363500I-45000J0D01*
G01*
X321071Y-1199214D02*
X349643Y-1199214D01*
X378214Y-1213500D01*
X392500Y-1227786D01*
X406786Y-1256357D01*
X421071Y-1313500D01*
X421071Y-1384929D01*
X406786Y-1442071D01*
X392500Y-1470643D01*
X378214Y-1484929D01*
X349643Y-1499214D01*
X321071Y-1499214D01*
X292500Y-1484929D01*
X278214Y-1470643D01*
X263929Y-1442071D01*
X249643Y-1384929D01*
X249643Y-1313500D01*
X263929Y-1256357D01*
X278214Y-1227786D01*
X292500Y-1213500D01*
X321071Y-1199214D01*
X549643Y-1470643D02*
X563929Y-1484929D01*
X549643Y-1499214D01*
X535357Y-1484929D01*
X549643Y-1470643D01*
X549643Y-1499214D01*
X706786Y-1499214D02*
X763928Y-1499214D01*
X792500Y-1484929D01*
X806786Y-1470643D01*
X835357Y-1427786D01*
X849643Y-1370643D01*
X849643Y-1256357D01*
X835357Y-1227786D01*
X821071Y-1213500D01*
X792500Y-1199214D01*
X735357Y-1199214D01*
X706786Y-1213500D01*
X692500Y-1227786D01*
X678214Y-1256357D01*
X678214Y-1327786D01*
X692500Y-1356357D01*
X706786Y-1370643D01*
X735357Y-1384929D01*
X792500Y-1384929D01*
X821071Y-1370643D01*
X835357Y-1356357D01*
X849643Y-1327786D01*
X1035357Y-1199214D02*
X1063929Y-1199214D01*
X1092500Y-1213500D01*
X1106786Y-1227786D01*
X1121071Y-1256357D01*
X1135357Y-1313500D01*
X1135357Y-1384929D01*
X1121071Y-1442071D01*
X1106786Y-1470643D01*
X1092500Y-1484929D01*
X1063929Y-1499214D01*
X1035357Y-1499214D01*
X1006786Y-1484929D01*
X992500Y-1470643D01*
X978214Y-1442071D01*
X963928Y-1384929D01*
X963928Y-1313500D01*
X978214Y-1256357D01*
X992500Y-1227786D01*
X1006786Y-1213500D01*
X1035357Y-1199214D01*
X1263929Y-1499214D02*
X1263929Y-1299214D01*
X1263929Y-1327786D02*
X1278214Y-1313500D01*
X1306786Y-1299214D01*
X1349643Y-1299214D01*
X1378214Y-1313500D01*
X1392500Y-1342072D01*
X1392500Y-1499214D01*
X1392500Y-1342072D02*
X1406786Y-1313500D01*
X1435357Y-1299214D01*
X1478214Y-1299214D01*
X1506786Y-1313500D01*
X1521071Y-1342072D01*
X1521071Y-1499214D01*
X1663928Y-1499214D02*
X1663928Y-1299214D01*
X1663928Y-1327786D02*
X1678214Y-1313500D01*
X1706786Y-1299214D01*
X1749643Y-1299214D01*
X1778214Y-1313500D01*
X1792500Y-1342072D01*
X1792500Y-1499214D01*
X1792500Y-1342072D02*
X1806786Y-1313500D01*
X1835357Y-1299214D01*
X1878214Y-1299214D01*
X1906786Y-1313500D01*
X1921071Y-1342072D01*
X1921071Y-1499214D01*
X2506786Y-1184929D02*
X2249643Y-1570643D01*
X2892500Y-1199214D02*
X2921071Y-1199214D01*
X2949643Y-1213500D01*
X2963928Y-1227786D01*
X2978214Y-1256357D01*
X2992500Y-1313500D01*
X2992500Y-1384929D01*
X2978214Y-1442071D01*
X2963928Y-1470643D01*
X2949643Y-1484929D01*
X2921071Y-1499214D01*
X2892500Y-1499214D01*
X2863928Y-1484929D01*
X2849643Y-1470643D01*
X2835357Y-1442071D01*
X2821071Y-1384929D01*
X2821071Y-1313500D01*
X2835357Y-1256357D01*
X2849643Y-1227786D01*
X2863928Y-1213500D01*
X2892500Y-1199214D01*
X3121071Y-1470643D02*
X3135357Y-1484929D01*
X3121071Y-1499214D01*
X3106786Y-1484929D01*
X3121071Y-1470643D01*
X3121071Y-1499214D01*
X3321071Y-1199214D02*
X3349643Y-1199214D01*
X3378214Y-1213500D01*
X3392500Y-1227786D01*
X3406785Y-1256357D01*
X3421071Y-1313500D01*
X3421071Y-1384929D01*
X3406785Y-1442071D01*
X3392500Y-1470643D01*
X3378214Y-1484929D01*
X3349643Y-1499214D01*
X3321071Y-1499214D01*
X3292500Y-1484929D01*
X3278214Y-1470643D01*
X3263928Y-1442071D01*
X3249643Y-1384929D01*
X3249643Y-1313500D01*
X3263928Y-1256357D01*
X3278214Y-1227786D01*
X3292500Y-1213500D01*
X3321071Y-1199214D01*
X3521071Y-1199214D02*
X3706785Y-1199214D01*
X3606785Y-1313500D01*
X3649643Y-1313500D01*
X3678214Y-1327786D01*
X3692500Y-1342072D01*
X3706785Y-1370643D01*
X3706785Y-1442071D01*
X3692500Y-1470643D01*
X3678214Y-1484929D01*
X3649643Y-1499214D01*
X3563928Y-1499214D01*
X3535357Y-1484929D01*
X3521071Y-1470643D01*
X3978214Y-1199214D02*
X3835357Y-1199214D01*
X3821071Y-1342072D01*
X3835357Y-1327786D01*
X3863928Y-1313500D01*
X3935357Y-1313500D01*
X3963928Y-1327786D01*
X3978214Y-1342072D01*
X3992500Y-1370643D01*
X3992500Y-1442071D01*
X3978214Y-1470643D01*
X3963928Y-1484929D01*
X3935357Y-1499214D01*
X3863928Y-1499214D01*
X3835357Y-1484929D01*
X3821071Y-1470643D01*
X4106786Y-1199214D02*
X4106786Y-1256357D01*
X4221071Y-1199214D02*
X4221071Y-1256357D01*
X4663928Y-1613500D02*
X4649643Y-1599214D01*
X4621071Y-1556357D01*
X4606786Y-1527786D01*
X4592500Y-1484929D01*
X4578214Y-1413500D01*
X4578214Y-1356357D01*
X4592500Y-1284929D01*
X4606786Y-1242072D01*
X4621071Y-1213500D01*
X4649643Y-1170643D01*
X4663928Y-1156357D01*
X4763928Y-1227786D02*
X4778214Y-1213500D01*
X4806786Y-1199214D01*
X4878214Y-1199214D01*
X4906786Y-1213500D01*
X4921071Y-1227786D01*
X4935357Y-1256357D01*
X4935357Y-1284929D01*
X4921071Y-1327786D01*
X4749643Y-1499214D01*
X4935357Y-1499214D01*
X5292500Y-1499214D02*
X5292500Y-1199214D01*
X5421071Y-1499214D02*
X5421071Y-1342072D01*
X5406786Y-1313500D01*
X5378214Y-1299214D01*
X5335357Y-1299214D01*
X5306786Y-1313500D01*
X5292500Y-1327786D01*
X5606785Y-1499214D02*
X5578214Y-1484929D01*
X5563928Y-1470643D01*
X5549643Y-1442071D01*
X5549643Y-1356357D01*
X5563928Y-1327786D01*
X5578214Y-1313500D01*
X5606785Y-1299214D01*
X5649643Y-1299214D01*
X5678214Y-1313500D01*
X5692500Y-1327786D01*
X5706785Y-1356357D01*
X5706785Y-1442071D01*
X5692500Y-1470643D01*
X5678214Y-1484929D01*
X5649643Y-1499214D01*
X5606785Y-1499214D01*
X5878214Y-1499214D02*
X5849643Y-1484929D01*
X5835357Y-1456357D01*
X5835357Y-1199214D01*
X6106786Y-1484929D02*
X6078214Y-1499214D01*
X6021071Y-1499214D01*
X5992500Y-1484929D01*
X5978214Y-1456357D01*
X5978214Y-1342072D01*
X5992500Y-1313500D01*
X6021071Y-1299214D01*
X6078214Y-1299214D01*
X6106786Y-1313500D01*
X6121071Y-1342072D01*
X6121071Y-1370643D01*
X5978214Y-1399214D01*
X6235357Y-1484929D02*
X6263928Y-1499214D01*
X6321071Y-1499214D01*
X6349643Y-1484929D01*
X6363928Y-1456357D01*
X6363928Y-1442071D01*
X6349643Y-1413500D01*
X6321071Y-1399214D01*
X6278214Y-1399214D01*
X6249643Y-1384929D01*
X6235357Y-1356357D01*
X6235357Y-1342072D01*
X6249643Y-1313500D01*
X6278214Y-1299214D01*
X6321071Y-1299214D01*
X6349643Y-1313500D01*
X6463928Y-1613500D02*
X6478214Y-1599214D01*
X6506786Y-1556357D01*
X6521071Y-1527786D01*
X6535357Y-1484929D01*
X6549643Y-1413500D01*
X6549643Y-1356357D01*
X6535357Y-1284929D01*
X6521071Y-1242072D01*
X6506786Y-1213500D01*
X6478214Y-1170643D01*
X6463928Y-1156357D01*
X-57030Y-1709970D02*
X-57030Y-1809030D01*
X-106560Y-1759500D02*
X-7500Y-1759500D01*
X321071Y-1595214D02*
X349643Y-1595214D01*
X378214Y-1609500D01*
X392500Y-1623786D01*
X406786Y-1652357D01*
X421071Y-1709500D01*
X421071Y-1780929D01*
X406786Y-1838071D01*
X392500Y-1866643D01*
X378214Y-1880929D01*
X349643Y-1895214D01*
X321071Y-1895214D01*
X292500Y-1880929D01*
X278214Y-1866643D01*
X263929Y-1838071D01*
X249643Y-1780929D01*
X249643Y-1709500D01*
X263929Y-1652357D01*
X278214Y-1623786D01*
X292500Y-1609500D01*
X321071Y-1595214D01*
X549643Y-1866643D02*
X563929Y-1880929D01*
X549643Y-1895214D01*
X535357Y-1880929D01*
X549643Y-1866643D01*
X549643Y-1895214D01*
X706786Y-1895214D02*
X763928Y-1895214D01*
X792500Y-1880929D01*
X806786Y-1866643D01*
X835357Y-1823786D01*
X849643Y-1766643D01*
X849643Y-1652357D01*
X835357Y-1623786D01*
X821071Y-1609500D01*
X792500Y-1595214D01*
X735357Y-1595214D01*
X706786Y-1609500D01*
X692500Y-1623786D01*
X678214Y-1652357D01*
X678214Y-1723786D01*
X692500Y-1752357D01*
X706786Y-1766643D01*
X735357Y-1780929D01*
X792500Y-1780929D01*
X821071Y-1766643D01*
X835357Y-1752357D01*
X849643Y-1723786D01*
X992500Y-1895214D02*
X1049643Y-1895214D01*
X1078214Y-1880929D01*
X1092500Y-1866643D01*
X1121071Y-1823786D01*
X1135357Y-1766643D01*
X1135357Y-1652357D01*
X1121071Y-1623786D01*
X1106786Y-1609500D01*
X1078214Y-1595214D01*
X1021071Y-1595214D01*
X992500Y-1609500D01*
X978214Y-1623786D01*
X963928Y-1652357D01*
X963928Y-1723786D01*
X978214Y-1752357D01*
X992500Y-1766643D01*
X1021071Y-1780929D01*
X1078214Y-1780929D01*
X1106786Y-1766643D01*
X1121071Y-1752357D01*
X1135357Y-1723786D01*
X1263929Y-1895214D02*
X1263929Y-1695214D01*
X1263929Y-1723786D02*
X1278214Y-1709500D01*
X1306786Y-1695214D01*
X1349643Y-1695214D01*
X1378214Y-1709500D01*
X1392500Y-1738071D01*
X1392500Y-1895214D01*
X1392500Y-1738071D02*
X1406786Y-1709500D01*
X1435357Y-1695214D01*
X1478214Y-1695214D01*
X1506786Y-1709500D01*
X1521071Y-1738071D01*
X1521071Y-1895214D01*
X1663928Y-1895214D02*
X1663928Y-1695214D01*
X1663928Y-1723786D02*
X1678214Y-1709500D01*
X1706786Y-1695214D01*
X1749643Y-1695214D01*
X1778214Y-1709500D01*
X1792500Y-1738071D01*
X1792500Y-1895214D01*
X1792500Y-1738071D02*
X1806786Y-1709500D01*
X1835357Y-1695214D01*
X1878214Y-1695214D01*
X1906786Y-1709500D01*
X1921071Y-1738071D01*
X1921071Y-1895214D01*
X2506786Y-1580929D02*
X2249643Y-1966643D01*
X2892500Y-1595214D02*
X2921071Y-1595214D01*
X2949643Y-1609500D01*
X2963928Y-1623786D01*
X2978214Y-1652357D01*
X2992500Y-1709500D01*
X2992500Y-1780929D01*
X2978214Y-1838071D01*
X2963928Y-1866643D01*
X2949643Y-1880929D01*
X2921071Y-1895214D01*
X2892500Y-1895214D01*
X2863928Y-1880929D01*
X2849643Y-1866643D01*
X2835357Y-1838071D01*
X2821071Y-1780929D01*
X2821071Y-1709500D01*
X2835357Y-1652357D01*
X2849643Y-1623786D01*
X2863928Y-1609500D01*
X2892500Y-1595214D01*
X3121071Y-1866643D02*
X3135357Y-1880929D01*
X3121071Y-1895214D01*
X3106786Y-1880929D01*
X3121071Y-1866643D01*
X3121071Y-1895214D01*
X3321071Y-1595214D02*
X3349643Y-1595214D01*
X3378214Y-1609500D01*
X3392500Y-1623786D01*
X3406785Y-1652357D01*
X3421071Y-1709500D01*
X3421071Y-1780929D01*
X3406785Y-1838071D01*
X3392500Y-1866643D01*
X3378214Y-1880929D01*
X3349643Y-1895214D01*
X3321071Y-1895214D01*
X3292500Y-1880929D01*
X3278214Y-1866643D01*
X3263928Y-1838071D01*
X3249643Y-1780929D01*
X3249643Y-1709500D01*
X3263928Y-1652357D01*
X3278214Y-1623786D01*
X3292500Y-1609500D01*
X3321071Y-1595214D01*
X3521071Y-1595214D02*
X3706785Y-1595214D01*
X3606785Y-1709500D01*
X3649643Y-1709500D01*
X3678214Y-1723786D01*
X3692500Y-1738071D01*
X3706785Y-1766643D01*
X3706785Y-1838071D01*
X3692500Y-1866643D01*
X3678214Y-1880929D01*
X3649643Y-1895214D01*
X3563928Y-1895214D01*
X3535357Y-1880929D01*
X3521071Y-1866643D01*
X3849643Y-1895214D02*
X3906785Y-1895214D01*
X3935357Y-1880929D01*
X3949643Y-1866643D01*
X3978214Y-1823786D01*
X3992500Y-1766643D01*
X3992500Y-1652357D01*
X3978214Y-1623786D01*
X3963928Y-1609500D01*
X3935357Y-1595214D01*
X3878214Y-1595214D01*
X3849643Y-1609500D01*
X3835357Y-1623786D01*
X3821071Y-1652357D01*
X3821071Y-1723786D01*
X3835357Y-1752357D01*
X3849643Y-1766643D01*
X3878214Y-1780929D01*
X3935357Y-1780929D01*
X3963928Y-1766643D01*
X3978214Y-1752357D01*
X3992500Y-1723786D01*
X4106786Y-1595214D02*
X4106786Y-1652357D01*
X4221071Y-1595214D02*
X4221071Y-1652357D01*
X4663928Y-2009500D02*
X4649643Y-1995214D01*
X4621071Y-1952357D01*
X4606786Y-1923786D01*
X4592500Y-1880929D01*
X4578214Y-1809500D01*
X4578214Y-1752357D01*
X4592500Y-1680929D01*
X4606786Y-1638071D01*
X4621071Y-1609500D01*
X4649643Y-1566643D01*
X4663928Y-1552357D01*
X4935357Y-1895214D02*
X4763928Y-1895214D01*
X4849643Y-1895214D02*
X4849643Y-1595214D01*
X4821071Y-1638071D01*
X4792500Y-1666643D01*
X4763928Y-1680929D01*
X5035357Y-1595214D02*
X5221071Y-1595214D01*
X5121071Y-1709500D01*
X5163928Y-1709500D01*
X5192500Y-1723786D01*
X5206786Y-1738071D01*
X5221071Y-1766643D01*
X5221071Y-1838071D01*
X5206786Y-1866643D01*
X5192500Y-1880929D01*
X5163928Y-1895214D01*
X5078214Y-1895214D01*
X5049643Y-1880929D01*
X5035357Y-1866643D01*
X5478214Y-1595214D02*
X5421071Y-1595214D01*
X5392500Y-1609500D01*
X5378214Y-1623786D01*
X5349643Y-1666643D01*
X5335357Y-1723786D01*
X5335357Y-1838071D01*
X5349643Y-1866643D01*
X5363928Y-1880929D01*
X5392500Y-1895214D01*
X5449643Y-1895214D01*
X5478214Y-1880929D01*
X5492500Y-1866643D01*
X5506786Y-1838071D01*
X5506786Y-1766643D01*
X5492500Y-1738071D01*
X5478214Y-1723786D01*
X5449643Y-1709500D01*
X5392500Y-1709500D01*
X5363928Y-1723786D01*
X5349643Y-1738071D01*
X5335357Y-1766643D01*
X5863928Y-1895214D02*
X5863928Y-1595214D01*
X5992500Y-1895214D02*
X5992500Y-1738071D01*
X5978214Y-1709500D01*
X5949643Y-1695214D01*
X5906785Y-1695214D01*
X5878214Y-1709500D01*
X5863928Y-1723786D01*
X6178214Y-1895214D02*
X6149643Y-1880929D01*
X6135357Y-1866643D01*
X6121071Y-1838071D01*
X6121071Y-1752357D01*
X6135357Y-1723786D01*
X6149643Y-1709500D01*
X6178214Y-1695214D01*
X6221071Y-1695214D01*
X6249643Y-1709500D01*
X6263928Y-1723786D01*
X6278214Y-1752357D01*
X6278214Y-1838071D01*
X6263928Y-1866643D01*
X6249643Y-1880929D01*
X6221071Y-1895214D01*
X6178214Y-1895214D01*
X6449643Y-1895214D02*
X6421071Y-1880929D01*
X6406786Y-1852357D01*
X6406786Y-1595214D01*
X6678214Y-1880929D02*
X6649643Y-1895214D01*
X6592500Y-1895214D01*
X6563928Y-1880929D01*
X6549643Y-1852357D01*
X6549643Y-1738071D01*
X6563928Y-1709500D01*
X6592500Y-1695214D01*
X6649643Y-1695214D01*
X6678214Y-1709500D01*
X6692500Y-1738071D01*
X6692500Y-1766643D01*
X6549643Y-1795214D01*
X6806786Y-1880929D02*
X6835357Y-1895214D01*
X6892500Y-1895214D01*
X6921071Y-1880929D01*
X6935357Y-1852357D01*
X6935357Y-1838071D01*
X6921071Y-1809500D01*
X6892500Y-1795214D01*
X6849643Y-1795214D01*
X6821071Y-1780929D01*
X6806786Y-1752357D01*
X6806786Y-1738071D01*
X6821071Y-1709500D01*
X6849643Y-1695214D01*
X6892500Y-1695214D01*
X6921071Y-1709500D01*
X7035357Y-2009500D02*
X7049643Y-1995214D01*
X7078214Y-1952357D01*
X7092500Y-1923786D01*
X7106786Y-1880929D01*
X7121071Y-1809500D01*
X7121071Y-1752357D01*
X7106786Y-1680929D01*
X7092500Y-1638071D01*
X7078214Y-1609500D01*
X7049643Y-1566643D01*
X7035357Y-1552357D01*
X-29446Y-2208484D02*
X-29446Y-2102516D01*
X-135414Y-2102516D01*
X-135414Y-2208484D01*
X-29446Y-2208484D01*
X421071Y-2291214D02*
X249643Y-2291214D01*
X335357Y-2291214D02*
X335357Y-1991214D01*
X306786Y-2034071D01*
X278214Y-2062643D01*
X249643Y-2076929D01*
X549643Y-2262643D02*
X563929Y-2276929D01*
X549643Y-2291214D01*
X535357Y-2276929D01*
X549643Y-2262643D01*
X549643Y-2291214D01*
X835357Y-1991214D02*
X692500Y-1991214D01*
X678214Y-2134072D01*
X692500Y-2119786D01*
X721071Y-2105500D01*
X792500Y-2105500D01*
X821071Y-2119786D01*
X835357Y-2134072D01*
X849643Y-2162643D01*
X849643Y-2234072D01*
X835357Y-2262643D01*
X821071Y-2276929D01*
X792500Y-2291214D01*
X721071Y-2291214D01*
X692500Y-2276929D01*
X678214Y-2262643D01*
X1035357Y-1991214D02*
X1063929Y-1991214D01*
X1092500Y-2005500D01*
X1106786Y-2019786D01*
X1121071Y-2048357D01*
X1135357Y-2105500D01*
X1135357Y-2176929D01*
X1121071Y-2234072D01*
X1106786Y-2262643D01*
X1092500Y-2276929D01*
X1063929Y-2291214D01*
X1035357Y-2291214D01*
X1006786Y-2276929D01*
X992500Y-2262643D01*
X978214Y-2234072D01*
X963928Y-2176929D01*
X963928Y-2105500D01*
X978214Y-2048357D01*
X992500Y-2019786D01*
X1006786Y-2005500D01*
X1035357Y-1991214D01*
X1263929Y-2291214D02*
X1263929Y-2091214D01*
X1263929Y-2119786D02*
X1278214Y-2105500D01*
X1306786Y-2091214D01*
X1349643Y-2091214D01*
X1378214Y-2105500D01*
X1392500Y-2134072D01*
X1392500Y-2291214D01*
X1392500Y-2134072D02*
X1406786Y-2105500D01*
X1435357Y-2091214D01*
X1478214Y-2091214D01*
X1506786Y-2105500D01*
X1521071Y-2134072D01*
X1521071Y-2291214D01*
X1663928Y-2291214D02*
X1663928Y-2091214D01*
X1663928Y-2119786D02*
X1678214Y-2105500D01*
X1706786Y-2091214D01*
X1749643Y-2091214D01*
X1778214Y-2105500D01*
X1792500Y-2134072D01*
X1792500Y-2291214D01*
X1792500Y-2134072D02*
X1806786Y-2105500D01*
X1835357Y-2091214D01*
X1878214Y-2091214D01*
X1906786Y-2105500D01*
X1921071Y-2134072D01*
X1921071Y-2291214D01*
X2506786Y-1976929D02*
X2249643Y-2362643D01*
X2892500Y-1991214D02*
X2921071Y-1991214D01*
X2949643Y-2005500D01*
X2963928Y-2019786D01*
X2978214Y-2048357D01*
X2992500Y-2105500D01*
X2992500Y-2176929D01*
X2978214Y-2234072D01*
X2963928Y-2262643D01*
X2949643Y-2276929D01*
X2921071Y-2291214D01*
X2892500Y-2291214D01*
X2863928Y-2276929D01*
X2849643Y-2262643D01*
X2835357Y-2234072D01*
X2821071Y-2176929D01*
X2821071Y-2105500D01*
X2835357Y-2048357D01*
X2849643Y-2019786D01*
X2863928Y-2005500D01*
X2892500Y-1991214D01*
X3121071Y-2262643D02*
X3135357Y-2276929D01*
X3121071Y-2291214D01*
X3106786Y-2276929D01*
X3121071Y-2262643D01*
X3121071Y-2291214D01*
X3321071Y-1991214D02*
X3349643Y-1991214D01*
X3378214Y-2005500D01*
X3392500Y-2019786D01*
X3406785Y-2048357D01*
X3421071Y-2105500D01*
X3421071Y-2176929D01*
X3406785Y-2234072D01*
X3392500Y-2262643D01*
X3378214Y-2276929D01*
X3349643Y-2291214D01*
X3321071Y-2291214D01*
X3292500Y-2276929D01*
X3278214Y-2262643D01*
X3263928Y-2234072D01*
X3249643Y-2176929D01*
X3249643Y-2105500D01*
X3263928Y-2048357D01*
X3278214Y-2019786D01*
X3292500Y-2005500D01*
X3321071Y-1991214D01*
X3692500Y-1991214D02*
X3549643Y-1991214D01*
X3535357Y-2134072D01*
X3549643Y-2119786D01*
X3578214Y-2105500D01*
X3649643Y-2105500D01*
X3678214Y-2119786D01*
X3692500Y-2134072D01*
X3706785Y-2162643D01*
X3706785Y-2234072D01*
X3692500Y-2262643D01*
X3678214Y-2276929D01*
X3649643Y-2291214D01*
X3578214Y-2291214D01*
X3549643Y-2276929D01*
X3535357Y-2262643D01*
X3849643Y-2291214D02*
X3906785Y-2291214D01*
X3935357Y-2276929D01*
X3949643Y-2262643D01*
X3978214Y-2219786D01*
X3992500Y-2162643D01*
X3992500Y-2048357D01*
X3978214Y-2019786D01*
X3963928Y-2005500D01*
X3935357Y-1991214D01*
X3878214Y-1991214D01*
X3849643Y-2005500D01*
X3835357Y-2019786D01*
X3821071Y-2048357D01*
X3821071Y-2119786D01*
X3835357Y-2148357D01*
X3849643Y-2162643D01*
X3878214Y-2176929D01*
X3935357Y-2176929D01*
X3963928Y-2162643D01*
X3978214Y-2148357D01*
X3992500Y-2119786D01*
X4106786Y-1991214D02*
X4106786Y-2048357D01*
X4221071Y-1991214D02*
X4221071Y-2048357D01*
X4663928Y-2405500D02*
X4649643Y-2391214D01*
X4621071Y-2348357D01*
X4606786Y-2319786D01*
X4592500Y-2276929D01*
X4578214Y-2205500D01*
X4578214Y-2148357D01*
X4592500Y-2076929D01*
X4606786Y-2034071D01*
X4621071Y-2005500D01*
X4649643Y-1962643D01*
X4663928Y-1948357D01*
X4935357Y-2291214D02*
X4763928Y-2291214D01*
X4849643Y-2291214D02*
X4849643Y-1991214D01*
X4821071Y-2034071D01*
X4792500Y-2062643D01*
X4763928Y-2076929D01*
X5035357Y-1991214D02*
X5221071Y-1991214D01*
X5121071Y-2105500D01*
X5163928Y-2105500D01*
X5192500Y-2119786D01*
X5206786Y-2134072D01*
X5221071Y-2162643D01*
X5221071Y-2234072D01*
X5206786Y-2262643D01*
X5192500Y-2276929D01*
X5163928Y-2291214D01*
X5078214Y-2291214D01*
X5049643Y-2276929D01*
X5035357Y-2262643D01*
X5478214Y-1991214D02*
X5421071Y-1991214D01*
X5392500Y-2005500D01*
X5378214Y-2019786D01*
X5349643Y-2062643D01*
X5335357Y-2119786D01*
X5335357Y-2234072D01*
X5349643Y-2262643D01*
X5363928Y-2276929D01*
X5392500Y-2291214D01*
X5449643Y-2291214D01*
X5478214Y-2276929D01*
X5492500Y-2262643D01*
X5506786Y-2234072D01*
X5506786Y-2162643D01*
X5492500Y-2134072D01*
X5478214Y-2119786D01*
X5449643Y-2105500D01*
X5392500Y-2105500D01*
X5363928Y-2119786D01*
X5349643Y-2134072D01*
X5335357Y-2162643D01*
X5863928Y-2291214D02*
X5863928Y-1991214D01*
X5992500Y-2291214D02*
X5992500Y-2134072D01*
X5978214Y-2105500D01*
X5949643Y-2091214D01*
X5906785Y-2091214D01*
X5878214Y-2105500D01*
X5863928Y-2119786D01*
X6178214Y-2291214D02*
X6149643Y-2276929D01*
X6135357Y-2262643D01*
X6121071Y-2234072D01*
X6121071Y-2148357D01*
X6135357Y-2119786D01*
X6149643Y-2105500D01*
X6178214Y-2091214D01*
X6221071Y-2091214D01*
X6249643Y-2105500D01*
X6263928Y-2119786D01*
X6278214Y-2148357D01*
X6278214Y-2234072D01*
X6263928Y-2262643D01*
X6249643Y-2276929D01*
X6221071Y-2291214D01*
X6178214Y-2291214D01*
X6449643Y-2291214D02*
X6421071Y-2276929D01*
X6406786Y-2248357D01*
X6406786Y-1991214D01*
X6678214Y-2276929D02*
X6649643Y-2291214D01*
X6592500Y-2291214D01*
X6563928Y-2276929D01*
X6549643Y-2248357D01*
X6549643Y-2134072D01*
X6563928Y-2105500D01*
X6592500Y-2091214D01*
X6649643Y-2091214D01*
X6678214Y-2105500D01*
X6692500Y-2134072D01*
X6692500Y-2162643D01*
X6549643Y-2191214D01*
X6806786Y-2276929D02*
X6835357Y-2291214D01*
X6892500Y-2291214D01*
X6921071Y-2276929D01*
X6935357Y-2248357D01*
X6935357Y-2234072D01*
X6921071Y-2205500D01*
X6892500Y-2191214D01*
X6849643Y-2191214D01*
X6821071Y-2176929D01*
X6806786Y-2148357D01*
X6806786Y-2134072D01*
X6821071Y-2105500D01*
X6849643Y-2091214D01*
X6892500Y-2091214D01*
X6921071Y-2105500D01*
X7035357Y-2405500D02*
X7049643Y-2391214D01*
X7078214Y-2348357D01*
X7092500Y-2319786D01*
X7106786Y-2276929D01*
X7121071Y-2205500D01*
X7121071Y-2148357D01*
X7106786Y-2076929D01*
X7092500Y-2034071D01*
X7078214Y-2005500D01*
X7049643Y-1962643D01*
X7035357Y-1948357D01*
M02*
