G04 #@! TF.FileFunction,Other,Comment*
%FSLAX46Y46*%
G04 Gerber Fmt 4.6, Leading zero omitted, Abs format (unit mm)*
G04 Created by KiCad (PCBNEW 4.0.1-stable) date 4/18/2016 2:02:23 AM*
%MOMM*%
G01*
G04 APERTURE LIST*
%ADD10C,0.100000*%
%ADD11C,0.152400*%
G04 APERTURE END LIST*
D10*
D11*
X205650000Y-53650000D02*
X218350000Y-53650000D01*
X218350000Y-53650000D02*
X218350000Y-66350000D01*
X218350000Y-66350000D02*
X205650000Y-66350000D01*
X205650000Y-66350000D02*
X205650000Y-53650000D01*
X224650000Y-34650000D02*
X237350000Y-34650000D01*
X237350000Y-34650000D02*
X237350000Y-47350000D01*
X237350000Y-47350000D02*
X224650000Y-47350000D01*
X224650000Y-47350000D02*
X224650000Y-34650000D01*
X262650000Y-53650000D02*
X275350000Y-53650000D01*
X275350000Y-53650000D02*
X275350000Y-66350000D01*
X275350000Y-66350000D02*
X262650000Y-66350000D01*
X262650000Y-66350000D02*
X262650000Y-53650000D01*
X262650000Y-15650000D02*
X275350000Y-15650000D01*
X275350000Y-15650000D02*
X275350000Y-28350000D01*
X275350000Y-28350000D02*
X262650000Y-28350000D01*
X262650000Y-28350000D02*
X262650000Y-15650000D01*
X262650000Y-72650000D02*
X275350000Y-72650000D01*
X275350000Y-72650000D02*
X275350000Y-85350000D01*
X275350000Y-85350000D02*
X262650000Y-85350000D01*
X262650000Y-85350000D02*
X262650000Y-72650000D01*
X262650000Y-91650000D02*
X275350000Y-91650000D01*
X275350000Y-91650000D02*
X275350000Y-104350000D01*
X275350000Y-104350000D02*
X262650000Y-104350000D01*
X262650000Y-104350000D02*
X262650000Y-91650000D01*
X262650000Y-34650000D02*
X275350000Y-34650000D01*
X275350000Y-34650000D02*
X275350000Y-47350000D01*
X275350000Y-47350000D02*
X262650000Y-47350000D01*
X262650000Y-47350000D02*
X262650000Y-34650000D01*
X224650000Y-53650000D02*
X237350000Y-53650000D01*
X237350000Y-53650000D02*
X237350000Y-66350000D01*
X237350000Y-66350000D02*
X224650000Y-66350000D01*
X224650000Y-66350000D02*
X224650000Y-53650000D01*
X224650000Y-72650000D02*
X237350000Y-72650000D01*
X237350000Y-72650000D02*
X237350000Y-85350000D01*
X237350000Y-85350000D02*
X224650000Y-85350000D01*
X224650000Y-85350000D02*
X224650000Y-72650000D01*
X224650000Y-91650000D02*
X237350000Y-91650000D01*
X237350000Y-91650000D02*
X237350000Y-104350000D01*
X237350000Y-104350000D02*
X224650000Y-104350000D01*
X224650000Y-104350000D02*
X224650000Y-91650000D01*
X243650000Y-34650000D02*
X256350000Y-34650000D01*
X256350000Y-34650000D02*
X256350000Y-47350000D01*
X256350000Y-47350000D02*
X243650000Y-47350000D01*
X243650000Y-47350000D02*
X243650000Y-34650000D01*
X243650000Y-91650000D02*
X256350000Y-91650000D01*
X256350000Y-91650000D02*
X256350000Y-104350000D01*
X256350000Y-104350000D02*
X243650000Y-104350000D01*
X243650000Y-104350000D02*
X243650000Y-91650000D01*
X243650000Y-72650000D02*
X256350000Y-72650000D01*
X256350000Y-72650000D02*
X256350000Y-85350000D01*
X256350000Y-85350000D02*
X243650000Y-85350000D01*
X243650000Y-85350000D02*
X243650000Y-72650000D01*
X243650000Y-15650000D02*
X256350000Y-15650000D01*
X256350000Y-15650000D02*
X256350000Y-28350000D01*
X256350000Y-28350000D02*
X243650000Y-28350000D01*
X243650000Y-28350000D02*
X243650000Y-15650000D01*
X243650000Y-53650000D02*
X256350000Y-53650000D01*
X256350000Y-53650000D02*
X256350000Y-66350000D01*
X256350000Y-66350000D02*
X243650000Y-66350000D01*
X243650000Y-66350000D02*
X243650000Y-53650000D01*
X224650000Y-15650000D02*
X237350000Y-15650000D01*
X237350000Y-15650000D02*
X237350000Y-28350000D01*
X237350000Y-28350000D02*
X224650000Y-28350000D01*
X224650000Y-28350000D02*
X224650000Y-15650000D01*
X110650000Y-53650000D02*
X123350000Y-53650000D01*
X123350000Y-53650000D02*
X123350000Y-66350000D01*
X123350000Y-66350000D02*
X110650000Y-66350000D01*
X110650000Y-66350000D02*
X110650000Y-53650000D01*
X110650000Y-15650000D02*
X123350000Y-15650000D01*
X123350000Y-15650000D02*
X123350000Y-28350000D01*
X123350000Y-28350000D02*
X110650000Y-28350000D01*
X110650000Y-28350000D02*
X110650000Y-15650000D01*
X110650000Y-72650000D02*
X123350000Y-72650000D01*
X123350000Y-72650000D02*
X123350000Y-85350000D01*
X123350000Y-85350000D02*
X110650000Y-85350000D01*
X110650000Y-85350000D02*
X110650000Y-72650000D01*
X123350000Y-91650000D02*
X123350000Y-104350000D01*
X123350000Y-104350000D02*
X110650000Y-104350000D01*
X110650000Y-104350000D02*
X110650000Y-91650000D01*
X110650000Y-91650000D02*
X123350000Y-91650000D01*
X110650000Y-34650000D02*
X123350000Y-34650000D01*
X123350000Y-34650000D02*
X123350000Y-47350000D01*
X123350000Y-47350000D02*
X110650000Y-47350000D01*
X110650000Y-47350000D02*
X110650000Y-34650000D01*
X129650000Y-34650000D02*
X142350000Y-34650000D01*
X142350000Y-34650000D02*
X142350000Y-47350000D01*
X142350000Y-47350000D02*
X129650000Y-47350000D01*
X129650000Y-47350000D02*
X129650000Y-34650000D01*
X129650000Y-91650000D02*
X142350000Y-91650000D01*
X142350000Y-91650000D02*
X142350000Y-104350000D01*
X142350000Y-104350000D02*
X129650000Y-104350000D01*
X129650000Y-104350000D02*
X129650000Y-91650000D01*
X129650000Y-72650000D02*
X142350000Y-72650000D01*
X142350000Y-72650000D02*
X142350000Y-85350000D01*
X142350000Y-85350000D02*
X129650000Y-85350000D01*
X129650000Y-85350000D02*
X129650000Y-72650000D01*
X148650000Y-15650000D02*
X161350000Y-15650000D01*
X161350000Y-15650000D02*
X161350000Y-28350000D01*
X161350000Y-28350000D02*
X148650000Y-28350000D01*
X148650000Y-28350000D02*
X148650000Y-15650000D01*
X129650000Y-15650000D02*
X142350000Y-15650000D01*
X142350000Y-15650000D02*
X142350000Y-28350000D01*
X142350000Y-28350000D02*
X129650000Y-28350000D01*
X129650000Y-28350000D02*
X129650000Y-15650000D01*
X148650000Y-34650000D02*
X161350000Y-34650000D01*
X161350000Y-34650000D02*
X161350000Y-47350000D01*
X161350000Y-47350000D02*
X148650000Y-47350000D01*
X148650000Y-47350000D02*
X148650000Y-34650000D01*
X129650000Y-53650000D02*
X142350000Y-53650000D01*
X142350000Y-53650000D02*
X142350000Y-66350000D01*
X142350000Y-66350000D02*
X129650000Y-66350000D01*
X129650000Y-66350000D02*
X129650000Y-53650000D01*
X167650000Y-34650000D02*
X180350000Y-34650000D01*
X180350000Y-34650000D02*
X180350000Y-47350000D01*
X180350000Y-47350000D02*
X167650000Y-47350000D01*
X167650000Y-47350000D02*
X167650000Y-34650000D01*
X167650000Y-15650000D02*
X180350000Y-15650000D01*
X180350000Y-15650000D02*
X180350000Y-28350000D01*
X180350000Y-28350000D02*
X167650000Y-28350000D01*
X167650000Y-28350000D02*
X167650000Y-15650000D01*
X186650000Y-34650000D02*
X199350000Y-34650000D01*
X199350000Y-34650000D02*
X199350000Y-47350000D01*
X199350000Y-47350000D02*
X186650000Y-47350000D01*
X186650000Y-47350000D02*
X186650000Y-34650000D01*
X186650000Y-15650000D02*
X199350000Y-15650000D01*
X199350000Y-15650000D02*
X199350000Y-28350000D01*
X199350000Y-28350000D02*
X186650000Y-28350000D01*
X186650000Y-28350000D02*
X186650000Y-15650000D01*
X205650000Y-15650000D02*
X218350000Y-15650000D01*
X218350000Y-15650000D02*
X218350000Y-28350000D01*
X218350000Y-28350000D02*
X205650000Y-28350000D01*
X205650000Y-28350000D02*
X205650000Y-15650000D01*
X205650000Y-72650000D02*
X218350000Y-72650000D01*
X218350000Y-72650000D02*
X218350000Y-85350000D01*
X218350000Y-85350000D02*
X205650000Y-85350000D01*
X205650000Y-85350000D02*
X205650000Y-72650000D01*
X205650000Y-91650000D02*
X218350000Y-91650000D01*
X218350000Y-91650000D02*
X218350000Y-104350000D01*
X218350000Y-104350000D02*
X205650000Y-104350000D01*
X205650000Y-104350000D02*
X205650000Y-91650000D01*
X205650000Y-34650000D02*
X218350000Y-34650000D01*
X218350000Y-34650000D02*
X218350000Y-47350000D01*
X218350000Y-47350000D02*
X205650000Y-47350000D01*
X205650000Y-47350000D02*
X205650000Y-34650000D01*
X148650000Y-53650000D02*
X161350000Y-53650000D01*
X161350000Y-53650000D02*
X161350000Y-66350000D01*
X161350000Y-66350000D02*
X148650000Y-66350000D01*
X148650000Y-66350000D02*
X148650000Y-53650000D01*
X148650000Y-72650000D02*
X161350000Y-72650000D01*
X161350000Y-72650000D02*
X161350000Y-85350000D01*
X161350000Y-85350000D02*
X148650000Y-85350000D01*
X148650000Y-85350000D02*
X148650000Y-72650000D01*
X148650000Y-91650000D02*
X161350000Y-91650000D01*
X161350000Y-91650000D02*
X161350000Y-104350000D01*
X161350000Y-104350000D02*
X148650000Y-104350000D01*
X148650000Y-104350000D02*
X148650000Y-91650000D01*
X186650000Y-91650000D02*
X199350000Y-91650000D01*
X199350000Y-91650000D02*
X199350000Y-104350000D01*
X199350000Y-104350000D02*
X186650000Y-104350000D01*
X186650000Y-104350000D02*
X186650000Y-91650000D01*
X186650000Y-72650000D02*
X199350000Y-72650000D01*
X199350000Y-72650000D02*
X199350000Y-85350000D01*
X199350000Y-85350000D02*
X186650000Y-85350000D01*
X186650000Y-85350000D02*
X186650000Y-72650000D01*
X186650000Y-53650000D02*
X199350000Y-53650000D01*
X199350000Y-53650000D02*
X199350000Y-66350000D01*
X199350000Y-66350000D02*
X186650000Y-66350000D01*
X186650000Y-66350000D02*
X186650000Y-53650000D01*
X167650000Y-53650000D02*
X180350000Y-53650000D01*
X180350000Y-53650000D02*
X180350000Y-66350000D01*
X180350000Y-66350000D02*
X167650000Y-66350000D01*
X167650000Y-66350000D02*
X167650000Y-53650000D01*
X167650000Y-72650000D02*
X180350000Y-72650000D01*
X180350000Y-72650000D02*
X180350000Y-85350000D01*
X180350000Y-85350000D02*
X167650000Y-85350000D01*
X167650000Y-85350000D02*
X167650000Y-72650000D01*
X167650000Y-104350000D02*
X167650000Y-91650000D01*
X167650000Y-91650000D02*
X180350000Y-91650000D01*
X180350000Y-91650000D02*
X180350000Y-104350000D01*
X180350000Y-104350000D02*
X167650000Y-104350000D01*
X53650000Y-91650000D02*
X66350000Y-91650000D01*
X66350000Y-91650000D02*
X66350000Y-104350000D01*
X66350000Y-104350000D02*
X53650000Y-104350000D01*
X53650000Y-104350000D02*
X53650000Y-91650000D01*
X53650000Y-72650000D02*
X66350000Y-72650000D01*
X66350000Y-72650000D02*
X66350000Y-85350000D01*
X66350000Y-85350000D02*
X53650000Y-85350000D01*
X53650000Y-85350000D02*
X53650000Y-72650000D01*
X53650000Y-53650000D02*
X66350000Y-53650000D01*
X66350000Y-53650000D02*
X66350000Y-66350000D01*
X66350000Y-66350000D02*
X53650000Y-66350000D01*
X53650000Y-66350000D02*
X53650000Y-53650000D01*
X72650000Y-53650000D02*
X85350000Y-53650000D01*
X85350000Y-53650000D02*
X85350000Y-66350000D01*
X85350000Y-66350000D02*
X72650000Y-66350000D01*
X72650000Y-66350000D02*
X72650000Y-53650000D01*
X72650000Y-72650000D02*
X85350000Y-72650000D01*
X85350000Y-72650000D02*
X85350000Y-85350000D01*
X85350000Y-85350000D02*
X72650000Y-85350000D01*
X72650000Y-85350000D02*
X72650000Y-72650000D01*
X72650000Y-91650000D02*
X85350000Y-91650000D01*
X85350000Y-91650000D02*
X85350000Y-104350000D01*
X85350000Y-104350000D02*
X72650000Y-104350000D01*
X72650000Y-104350000D02*
X72650000Y-91650000D01*
X34650000Y-91650000D02*
X47350000Y-91650000D01*
X47350000Y-91650000D02*
X47350000Y-104350000D01*
X47350000Y-104350000D02*
X34650000Y-104350000D01*
X34650000Y-104350000D02*
X34650000Y-91650000D01*
X34650000Y-72650000D02*
X47350000Y-72650000D01*
X47350000Y-72650000D02*
X47350000Y-85350000D01*
X47350000Y-85350000D02*
X34650000Y-85350000D01*
X34650000Y-85350000D02*
X34650000Y-72650000D01*
X34650000Y-53650000D02*
X47350000Y-53650000D01*
X47350000Y-53650000D02*
X47350000Y-66350000D01*
X47350000Y-66350000D02*
X34650000Y-66350000D01*
X34650000Y-66350000D02*
X34650000Y-53650000D01*
X91650000Y-34650000D02*
X104350000Y-34650000D01*
X104350000Y-34650000D02*
X104350000Y-47350000D01*
X104350000Y-47350000D02*
X91650000Y-47350000D01*
X91650000Y-47350000D02*
X91650000Y-34650000D01*
X91650000Y-91650000D02*
X104350000Y-91650000D01*
X104350000Y-91650000D02*
X104350000Y-104350000D01*
X104350000Y-104350000D02*
X91650000Y-104350000D01*
X91650000Y-104350000D02*
X91650000Y-91650000D01*
X91650000Y-72650000D02*
X104350000Y-72650000D01*
X104350000Y-72650000D02*
X104350000Y-85350000D01*
X104350000Y-85350000D02*
X91650000Y-85350000D01*
X91650000Y-85350000D02*
X91650000Y-72650000D01*
X91650000Y-15650000D02*
X104350000Y-15650000D01*
X104350000Y-15650000D02*
X104350000Y-28350000D01*
X104350000Y-28350000D02*
X91650000Y-28350000D01*
X91650000Y-28350000D02*
X91650000Y-15650000D01*
X91650000Y-53650000D02*
X104350000Y-53650000D01*
X104350000Y-53650000D02*
X104350000Y-66350000D01*
X104350000Y-66350000D02*
X91650000Y-66350000D01*
X91650000Y-66350000D02*
X91650000Y-53650000D01*
X72650000Y-15650000D02*
X85350000Y-15650000D01*
X85350000Y-15650000D02*
X85350000Y-28350000D01*
X85350000Y-28350000D02*
X72650000Y-28350000D01*
X72650000Y-28350000D02*
X72650000Y-15650000D01*
X72650000Y-34650000D02*
X85350000Y-34650000D01*
X85350000Y-34650000D02*
X85350000Y-47350000D01*
X85350000Y-47350000D02*
X72650000Y-47350000D01*
X72650000Y-47350000D02*
X72650000Y-34650000D01*
X53650000Y-15650000D02*
X66350000Y-15650000D01*
X66350000Y-15650000D02*
X66350000Y-28350000D01*
X66350000Y-28350000D02*
X53650000Y-28350000D01*
X53650000Y-28350000D02*
X53650000Y-15650000D01*
X53650000Y-34650000D02*
X66350000Y-34650000D01*
X66350000Y-34650000D02*
X66350000Y-47350000D01*
X66350000Y-47350000D02*
X53650000Y-47350000D01*
X53650000Y-47350000D02*
X53650000Y-34650000D01*
X15650000Y-53650000D02*
X28350000Y-53650000D01*
X28350000Y-53650000D02*
X28350000Y-66350000D01*
X28350000Y-66350000D02*
X15650000Y-66350000D01*
X15650000Y-66350000D02*
X15650000Y-53650000D01*
X34650000Y-34650000D02*
X47350000Y-34650000D01*
X47350000Y-34650000D02*
X47350000Y-47350000D01*
X47350000Y-47350000D02*
X34650000Y-47350000D01*
X34650000Y-47350000D02*
X34650000Y-34650000D01*
X15650000Y-15650000D02*
X28350000Y-15650000D01*
X28350000Y-15650000D02*
X28350000Y-28350000D01*
X28350000Y-28350000D02*
X15650000Y-28350000D01*
X15650000Y-28350000D02*
X15650000Y-15650000D01*
X34650000Y-15650000D02*
X47350000Y-15650000D01*
X47350000Y-15650000D02*
X47350000Y-28350000D01*
X47350000Y-28350000D02*
X34650000Y-28350000D01*
X34650000Y-28350000D02*
X34650000Y-15650000D01*
X15650000Y-72650000D02*
X28350000Y-72650000D01*
X28350000Y-72650000D02*
X28350000Y-85350000D01*
X28350000Y-85350000D02*
X15650000Y-85350000D01*
X15650000Y-85350000D02*
X15650000Y-72650000D01*
X15650000Y-91650000D02*
X28350000Y-91650000D01*
X28350000Y-91650000D02*
X28350000Y-104350000D01*
X28350000Y-104350000D02*
X15650000Y-104350000D01*
X15650000Y-104350000D02*
X15650000Y-91650000D01*
X15650000Y-34650000D02*
X28350000Y-34650000D01*
X28350000Y-34650000D02*
X28350000Y-47350000D01*
X28350000Y-47350000D02*
X15650000Y-47350000D01*
X15650000Y-47350000D02*
X15650000Y-34650000D01*
M02*
