G04 #@! TF.FileFunction,Legend,Top*
%FSLAX46Y46*%
G04 Gerber Fmt 4.6, Leading zero omitted, Abs format (unit mm)*
G04 Created by KiCad (PCBNEW 4.0.1-stable) date 4/18/2016 2:02:23 AM*
%MOMM*%
G01*
G04 APERTURE LIST*
%ADD10C,0.100000*%
%ADD11C,0.381000*%
%ADD12C,0.203200*%
G04 APERTURE END LIST*
D10*
D11*
X205650000Y-53650000D02*
X207428000Y-53650000D01*
X216572000Y-53650000D02*
X218350000Y-53650000D01*
X218350000Y-53650000D02*
X218350000Y-55428000D01*
X218350000Y-64572000D02*
X218350000Y-66350000D01*
X218350000Y-66350000D02*
X216572000Y-66350000D01*
X207428000Y-66350000D02*
X205650000Y-66350000D01*
X205650000Y-66350000D02*
X205650000Y-64572000D01*
X205650000Y-55428000D02*
X205650000Y-53650000D01*
X224650000Y-34650000D02*
X226428000Y-34650000D01*
X235572000Y-34650000D02*
X237350000Y-34650000D01*
X237350000Y-34650000D02*
X237350000Y-36428000D01*
X237350000Y-45572000D02*
X237350000Y-47350000D01*
X237350000Y-47350000D02*
X235572000Y-47350000D01*
X226428000Y-47350000D02*
X224650000Y-47350000D01*
X224650000Y-47350000D02*
X224650000Y-45572000D01*
X224650000Y-36428000D02*
X224650000Y-34650000D01*
X262650000Y-53650000D02*
X264428000Y-53650000D01*
X273572000Y-53650000D02*
X275350000Y-53650000D01*
X275350000Y-53650000D02*
X275350000Y-55428000D01*
X275350000Y-64572000D02*
X275350000Y-66350000D01*
X275350000Y-66350000D02*
X273572000Y-66350000D01*
X264428000Y-66350000D02*
X262650000Y-66350000D01*
X262650000Y-66350000D02*
X262650000Y-64572000D01*
X262650000Y-55428000D02*
X262650000Y-53650000D01*
X262650000Y-15650000D02*
X264428000Y-15650000D01*
X273572000Y-15650000D02*
X275350000Y-15650000D01*
X275350000Y-15650000D02*
X275350000Y-17428000D01*
X275350000Y-26572000D02*
X275350000Y-28350000D01*
X275350000Y-28350000D02*
X273572000Y-28350000D01*
X264428000Y-28350000D02*
X262650000Y-28350000D01*
X262650000Y-28350000D02*
X262650000Y-26572000D01*
X262650000Y-17428000D02*
X262650000Y-15650000D01*
X262650000Y-72650000D02*
X264428000Y-72650000D01*
X273572000Y-72650000D02*
X275350000Y-72650000D01*
X275350000Y-72650000D02*
X275350000Y-74428000D01*
X275350000Y-83572000D02*
X275350000Y-85350000D01*
X275350000Y-85350000D02*
X273572000Y-85350000D01*
X264428000Y-85350000D02*
X262650000Y-85350000D01*
X262650000Y-85350000D02*
X262650000Y-83572000D01*
X262650000Y-74428000D02*
X262650000Y-72650000D01*
X262650000Y-91650000D02*
X264428000Y-91650000D01*
X273572000Y-91650000D02*
X275350000Y-91650000D01*
X275350000Y-91650000D02*
X275350000Y-93428000D01*
X275350000Y-102572000D02*
X275350000Y-104350000D01*
X275350000Y-104350000D02*
X273572000Y-104350000D01*
X264428000Y-104350000D02*
X262650000Y-104350000D01*
X262650000Y-104350000D02*
X262650000Y-102572000D01*
X262650000Y-93428000D02*
X262650000Y-91650000D01*
X262650000Y-34650000D02*
X264428000Y-34650000D01*
X273572000Y-34650000D02*
X275350000Y-34650000D01*
X275350000Y-34650000D02*
X275350000Y-36428000D01*
X275350000Y-45572000D02*
X275350000Y-47350000D01*
X275350000Y-47350000D02*
X273572000Y-47350000D01*
X264428000Y-47350000D02*
X262650000Y-47350000D01*
X262650000Y-47350000D02*
X262650000Y-45572000D01*
X262650000Y-36428000D02*
X262650000Y-34650000D01*
X224650000Y-53650000D02*
X226428000Y-53650000D01*
X235572000Y-53650000D02*
X237350000Y-53650000D01*
X237350000Y-53650000D02*
X237350000Y-55428000D01*
X237350000Y-64572000D02*
X237350000Y-66350000D01*
X237350000Y-66350000D02*
X235572000Y-66350000D01*
X226428000Y-66350000D02*
X224650000Y-66350000D01*
X224650000Y-66350000D02*
X224650000Y-64572000D01*
X224650000Y-55428000D02*
X224650000Y-53650000D01*
X224650000Y-72650000D02*
X226428000Y-72650000D01*
X235572000Y-72650000D02*
X237350000Y-72650000D01*
X237350000Y-72650000D02*
X237350000Y-74428000D01*
X237350000Y-83572000D02*
X237350000Y-85350000D01*
X237350000Y-85350000D02*
X235572000Y-85350000D01*
X226428000Y-85350000D02*
X224650000Y-85350000D01*
X224650000Y-85350000D02*
X224650000Y-83572000D01*
X224650000Y-74428000D02*
X224650000Y-72650000D01*
X224650000Y-91650000D02*
X226428000Y-91650000D01*
X235572000Y-91650000D02*
X237350000Y-91650000D01*
X237350000Y-91650000D02*
X237350000Y-93428000D01*
X237350000Y-102572000D02*
X237350000Y-104350000D01*
X237350000Y-104350000D02*
X235572000Y-104350000D01*
X226428000Y-104350000D02*
X224650000Y-104350000D01*
X224650000Y-104350000D02*
X224650000Y-102572000D01*
X224650000Y-93428000D02*
X224650000Y-91650000D01*
X243650000Y-34650000D02*
X245428000Y-34650000D01*
X254572000Y-34650000D02*
X256350000Y-34650000D01*
X256350000Y-34650000D02*
X256350000Y-36428000D01*
X256350000Y-45572000D02*
X256350000Y-47350000D01*
X256350000Y-47350000D02*
X254572000Y-47350000D01*
X245428000Y-47350000D02*
X243650000Y-47350000D01*
X243650000Y-47350000D02*
X243650000Y-45572000D01*
X243650000Y-36428000D02*
X243650000Y-34650000D01*
X243650000Y-91650000D02*
X245428000Y-91650000D01*
X254572000Y-91650000D02*
X256350000Y-91650000D01*
X256350000Y-91650000D02*
X256350000Y-93428000D01*
X256350000Y-102572000D02*
X256350000Y-104350000D01*
X256350000Y-104350000D02*
X254572000Y-104350000D01*
X245428000Y-104350000D02*
X243650000Y-104350000D01*
X243650000Y-104350000D02*
X243650000Y-102572000D01*
X243650000Y-93428000D02*
X243650000Y-91650000D01*
X243650000Y-72650000D02*
X245428000Y-72650000D01*
X254572000Y-72650000D02*
X256350000Y-72650000D01*
X256350000Y-72650000D02*
X256350000Y-74428000D01*
X256350000Y-83572000D02*
X256350000Y-85350000D01*
X256350000Y-85350000D02*
X254572000Y-85350000D01*
X245428000Y-85350000D02*
X243650000Y-85350000D01*
X243650000Y-85350000D02*
X243650000Y-83572000D01*
X243650000Y-74428000D02*
X243650000Y-72650000D01*
X243650000Y-15650000D02*
X245428000Y-15650000D01*
X254572000Y-15650000D02*
X256350000Y-15650000D01*
X256350000Y-15650000D02*
X256350000Y-17428000D01*
X256350000Y-26572000D02*
X256350000Y-28350000D01*
X256350000Y-28350000D02*
X254572000Y-28350000D01*
X245428000Y-28350000D02*
X243650000Y-28350000D01*
X243650000Y-28350000D02*
X243650000Y-26572000D01*
X243650000Y-17428000D02*
X243650000Y-15650000D01*
X243650000Y-53650000D02*
X245428000Y-53650000D01*
X254572000Y-53650000D02*
X256350000Y-53650000D01*
X256350000Y-53650000D02*
X256350000Y-55428000D01*
X256350000Y-64572000D02*
X256350000Y-66350000D01*
X256350000Y-66350000D02*
X254572000Y-66350000D01*
X245428000Y-66350000D02*
X243650000Y-66350000D01*
X243650000Y-66350000D02*
X243650000Y-64572000D01*
X243650000Y-55428000D02*
X243650000Y-53650000D01*
X224650000Y-15650000D02*
X226428000Y-15650000D01*
X235572000Y-15650000D02*
X237350000Y-15650000D01*
X237350000Y-15650000D02*
X237350000Y-17428000D01*
X237350000Y-26572000D02*
X237350000Y-28350000D01*
X237350000Y-28350000D02*
X235572000Y-28350000D01*
X226428000Y-28350000D02*
X224650000Y-28350000D01*
X224650000Y-28350000D02*
X224650000Y-26572000D01*
X224650000Y-17428000D02*
X224650000Y-15650000D01*
X110650000Y-53650000D02*
X112428000Y-53650000D01*
X121572000Y-53650000D02*
X123350000Y-53650000D01*
X123350000Y-53650000D02*
X123350000Y-55428000D01*
X123350000Y-64572000D02*
X123350000Y-66350000D01*
X123350000Y-66350000D02*
X121572000Y-66350000D01*
X112428000Y-66350000D02*
X110650000Y-66350000D01*
X110650000Y-66350000D02*
X110650000Y-64572000D01*
X110650000Y-55428000D02*
X110650000Y-53650000D01*
X110650000Y-15650000D02*
X112428000Y-15650000D01*
X121572000Y-15650000D02*
X123350000Y-15650000D01*
X123350000Y-15650000D02*
X123350000Y-17428000D01*
X123350000Y-26572000D02*
X123350000Y-28350000D01*
X123350000Y-28350000D02*
X121572000Y-28350000D01*
X112428000Y-28350000D02*
X110650000Y-28350000D01*
X110650000Y-28350000D02*
X110650000Y-26572000D01*
X110650000Y-17428000D02*
X110650000Y-15650000D01*
X110650000Y-72650000D02*
X112428000Y-72650000D01*
X121572000Y-72650000D02*
X123350000Y-72650000D01*
X123350000Y-72650000D02*
X123350000Y-74428000D01*
X123350000Y-83572000D02*
X123350000Y-85350000D01*
X123350000Y-85350000D02*
X121572000Y-85350000D01*
X112428000Y-85350000D02*
X110650000Y-85350000D01*
X110650000Y-85350000D02*
X110650000Y-83572000D01*
X110650000Y-74428000D02*
X110650000Y-72650000D01*
X123350000Y-91650000D02*
X123350000Y-93428000D01*
X123350000Y-102572000D02*
X123350000Y-104350000D01*
X123350000Y-104350000D02*
X121572000Y-104350000D01*
X112428000Y-104350000D02*
X110650000Y-104350000D01*
X110650000Y-104350000D02*
X110650000Y-102572000D01*
X110650000Y-93428000D02*
X110650000Y-91650000D01*
X110650000Y-91650000D02*
X112428000Y-91650000D01*
X121572000Y-91650000D02*
X123350000Y-91650000D01*
X110650000Y-34650000D02*
X112428000Y-34650000D01*
X121572000Y-34650000D02*
X123350000Y-34650000D01*
X123350000Y-34650000D02*
X123350000Y-36428000D01*
X123350000Y-45572000D02*
X123350000Y-47350000D01*
X123350000Y-47350000D02*
X121572000Y-47350000D01*
X112428000Y-47350000D02*
X110650000Y-47350000D01*
X110650000Y-47350000D02*
X110650000Y-45572000D01*
X110650000Y-36428000D02*
X110650000Y-34650000D01*
X129650000Y-34650000D02*
X131428000Y-34650000D01*
X140572000Y-34650000D02*
X142350000Y-34650000D01*
X142350000Y-34650000D02*
X142350000Y-36428000D01*
X142350000Y-45572000D02*
X142350000Y-47350000D01*
X142350000Y-47350000D02*
X140572000Y-47350000D01*
X131428000Y-47350000D02*
X129650000Y-47350000D01*
X129650000Y-47350000D02*
X129650000Y-45572000D01*
X129650000Y-36428000D02*
X129650000Y-34650000D01*
X129650000Y-91650000D02*
X131428000Y-91650000D01*
X140572000Y-91650000D02*
X142350000Y-91650000D01*
X142350000Y-91650000D02*
X142350000Y-93428000D01*
X142350000Y-102572000D02*
X142350000Y-104350000D01*
X142350000Y-104350000D02*
X140572000Y-104350000D01*
X131428000Y-104350000D02*
X129650000Y-104350000D01*
X129650000Y-104350000D02*
X129650000Y-102572000D01*
X129650000Y-93428000D02*
X129650000Y-91650000D01*
X129650000Y-72650000D02*
X131428000Y-72650000D01*
X140572000Y-72650000D02*
X142350000Y-72650000D01*
X142350000Y-72650000D02*
X142350000Y-74428000D01*
X142350000Y-83572000D02*
X142350000Y-85350000D01*
X142350000Y-85350000D02*
X140572000Y-85350000D01*
X131428000Y-85350000D02*
X129650000Y-85350000D01*
X129650000Y-85350000D02*
X129650000Y-83572000D01*
X129650000Y-74428000D02*
X129650000Y-72650000D01*
X148650000Y-15650000D02*
X150428000Y-15650000D01*
X159572000Y-15650000D02*
X161350000Y-15650000D01*
X161350000Y-15650000D02*
X161350000Y-17428000D01*
X161350000Y-26572000D02*
X161350000Y-28350000D01*
X161350000Y-28350000D02*
X159572000Y-28350000D01*
X150428000Y-28350000D02*
X148650000Y-28350000D01*
X148650000Y-28350000D02*
X148650000Y-26572000D01*
X148650000Y-17428000D02*
X148650000Y-15650000D01*
X129650000Y-15650000D02*
X131428000Y-15650000D01*
X140572000Y-15650000D02*
X142350000Y-15650000D01*
X142350000Y-15650000D02*
X142350000Y-17428000D01*
X142350000Y-26572000D02*
X142350000Y-28350000D01*
X142350000Y-28350000D02*
X140572000Y-28350000D01*
X131428000Y-28350000D02*
X129650000Y-28350000D01*
X129650000Y-28350000D02*
X129650000Y-26572000D01*
X129650000Y-17428000D02*
X129650000Y-15650000D01*
X148650000Y-34650000D02*
X150428000Y-34650000D01*
X159572000Y-34650000D02*
X161350000Y-34650000D01*
X161350000Y-34650000D02*
X161350000Y-36428000D01*
X161350000Y-45572000D02*
X161350000Y-47350000D01*
X161350000Y-47350000D02*
X159572000Y-47350000D01*
X150428000Y-47350000D02*
X148650000Y-47350000D01*
X148650000Y-47350000D02*
X148650000Y-45572000D01*
X148650000Y-36428000D02*
X148650000Y-34650000D01*
X129650000Y-53650000D02*
X131428000Y-53650000D01*
X140572000Y-53650000D02*
X142350000Y-53650000D01*
X142350000Y-53650000D02*
X142350000Y-55428000D01*
X142350000Y-64572000D02*
X142350000Y-66350000D01*
X142350000Y-66350000D02*
X140572000Y-66350000D01*
X131428000Y-66350000D02*
X129650000Y-66350000D01*
X129650000Y-66350000D02*
X129650000Y-64572000D01*
X129650000Y-55428000D02*
X129650000Y-53650000D01*
X167650000Y-34650000D02*
X169428000Y-34650000D01*
X178572000Y-34650000D02*
X180350000Y-34650000D01*
X180350000Y-34650000D02*
X180350000Y-36428000D01*
X180350000Y-45572000D02*
X180350000Y-47350000D01*
X180350000Y-47350000D02*
X178572000Y-47350000D01*
X169428000Y-47350000D02*
X167650000Y-47350000D01*
X167650000Y-47350000D02*
X167650000Y-45572000D01*
X167650000Y-36428000D02*
X167650000Y-34650000D01*
X167650000Y-15650000D02*
X169428000Y-15650000D01*
X178572000Y-15650000D02*
X180350000Y-15650000D01*
X180350000Y-15650000D02*
X180350000Y-17428000D01*
X180350000Y-26572000D02*
X180350000Y-28350000D01*
X180350000Y-28350000D02*
X178572000Y-28350000D01*
X169428000Y-28350000D02*
X167650000Y-28350000D01*
X167650000Y-28350000D02*
X167650000Y-26572000D01*
X167650000Y-17428000D02*
X167650000Y-15650000D01*
X186650000Y-34650000D02*
X188428000Y-34650000D01*
X197572000Y-34650000D02*
X199350000Y-34650000D01*
X199350000Y-34650000D02*
X199350000Y-36428000D01*
X199350000Y-45572000D02*
X199350000Y-47350000D01*
X199350000Y-47350000D02*
X197572000Y-47350000D01*
X188428000Y-47350000D02*
X186650000Y-47350000D01*
X186650000Y-47350000D02*
X186650000Y-45572000D01*
X186650000Y-36428000D02*
X186650000Y-34650000D01*
X186650000Y-15650000D02*
X188428000Y-15650000D01*
X197572000Y-15650000D02*
X199350000Y-15650000D01*
X199350000Y-15650000D02*
X199350000Y-17428000D01*
X199350000Y-26572000D02*
X199350000Y-28350000D01*
X199350000Y-28350000D02*
X197572000Y-28350000D01*
X188428000Y-28350000D02*
X186650000Y-28350000D01*
X186650000Y-28350000D02*
X186650000Y-26572000D01*
X186650000Y-17428000D02*
X186650000Y-15650000D01*
X205650000Y-15650000D02*
X207428000Y-15650000D01*
X216572000Y-15650000D02*
X218350000Y-15650000D01*
X218350000Y-15650000D02*
X218350000Y-17428000D01*
X218350000Y-26572000D02*
X218350000Y-28350000D01*
X218350000Y-28350000D02*
X216572000Y-28350000D01*
X207428000Y-28350000D02*
X205650000Y-28350000D01*
X205650000Y-28350000D02*
X205650000Y-26572000D01*
X205650000Y-17428000D02*
X205650000Y-15650000D01*
X205650000Y-72650000D02*
X207428000Y-72650000D01*
X216572000Y-72650000D02*
X218350000Y-72650000D01*
X218350000Y-72650000D02*
X218350000Y-74428000D01*
X218350000Y-83572000D02*
X218350000Y-85350000D01*
X218350000Y-85350000D02*
X216572000Y-85350000D01*
X207428000Y-85350000D02*
X205650000Y-85350000D01*
X205650000Y-85350000D02*
X205650000Y-83572000D01*
X205650000Y-74428000D02*
X205650000Y-72650000D01*
X205650000Y-91650000D02*
X207428000Y-91650000D01*
X216572000Y-91650000D02*
X218350000Y-91650000D01*
X218350000Y-91650000D02*
X218350000Y-93428000D01*
X218350000Y-102572000D02*
X218350000Y-104350000D01*
X218350000Y-104350000D02*
X216572000Y-104350000D01*
X207428000Y-104350000D02*
X205650000Y-104350000D01*
X205650000Y-104350000D02*
X205650000Y-102572000D01*
X205650000Y-93428000D02*
X205650000Y-91650000D01*
X205650000Y-34650000D02*
X207428000Y-34650000D01*
X216572000Y-34650000D02*
X218350000Y-34650000D01*
X218350000Y-34650000D02*
X218350000Y-36428000D01*
X218350000Y-45572000D02*
X218350000Y-47350000D01*
X218350000Y-47350000D02*
X216572000Y-47350000D01*
X207428000Y-47350000D02*
X205650000Y-47350000D01*
X205650000Y-47350000D02*
X205650000Y-45572000D01*
X205650000Y-36428000D02*
X205650000Y-34650000D01*
X148650000Y-53650000D02*
X150428000Y-53650000D01*
X159572000Y-53650000D02*
X161350000Y-53650000D01*
X161350000Y-53650000D02*
X161350000Y-55428000D01*
X161350000Y-64572000D02*
X161350000Y-66350000D01*
X161350000Y-66350000D02*
X159572000Y-66350000D01*
X150428000Y-66350000D02*
X148650000Y-66350000D01*
X148650000Y-66350000D02*
X148650000Y-64572000D01*
X148650000Y-55428000D02*
X148650000Y-53650000D01*
X148650000Y-72650000D02*
X150428000Y-72650000D01*
X159572000Y-72650000D02*
X161350000Y-72650000D01*
X161350000Y-72650000D02*
X161350000Y-74428000D01*
X161350000Y-83572000D02*
X161350000Y-85350000D01*
X161350000Y-85350000D02*
X159572000Y-85350000D01*
X150428000Y-85350000D02*
X148650000Y-85350000D01*
X148650000Y-85350000D02*
X148650000Y-83572000D01*
X148650000Y-74428000D02*
X148650000Y-72650000D01*
X148650000Y-91650000D02*
X150428000Y-91650000D01*
X159572000Y-91650000D02*
X161350000Y-91650000D01*
X161350000Y-91650000D02*
X161350000Y-93428000D01*
X161350000Y-102572000D02*
X161350000Y-104350000D01*
X161350000Y-104350000D02*
X159572000Y-104350000D01*
X150428000Y-104350000D02*
X148650000Y-104350000D01*
X148650000Y-104350000D02*
X148650000Y-102572000D01*
X148650000Y-93428000D02*
X148650000Y-91650000D01*
X186650000Y-91650000D02*
X188428000Y-91650000D01*
X197572000Y-91650000D02*
X199350000Y-91650000D01*
X199350000Y-91650000D02*
X199350000Y-93428000D01*
X199350000Y-102572000D02*
X199350000Y-104350000D01*
X199350000Y-104350000D02*
X197572000Y-104350000D01*
X188428000Y-104350000D02*
X186650000Y-104350000D01*
X186650000Y-104350000D02*
X186650000Y-102572000D01*
X186650000Y-93428000D02*
X186650000Y-91650000D01*
X186650000Y-72650000D02*
X188428000Y-72650000D01*
X197572000Y-72650000D02*
X199350000Y-72650000D01*
X199350000Y-72650000D02*
X199350000Y-74428000D01*
X199350000Y-83572000D02*
X199350000Y-85350000D01*
X199350000Y-85350000D02*
X197572000Y-85350000D01*
X188428000Y-85350000D02*
X186650000Y-85350000D01*
X186650000Y-85350000D02*
X186650000Y-83572000D01*
X186650000Y-74428000D02*
X186650000Y-72650000D01*
X186650000Y-53650000D02*
X188428000Y-53650000D01*
X197572000Y-53650000D02*
X199350000Y-53650000D01*
X199350000Y-53650000D02*
X199350000Y-55428000D01*
X199350000Y-64572000D02*
X199350000Y-66350000D01*
X199350000Y-66350000D02*
X197572000Y-66350000D01*
X188428000Y-66350000D02*
X186650000Y-66350000D01*
X186650000Y-66350000D02*
X186650000Y-64572000D01*
X186650000Y-55428000D02*
X186650000Y-53650000D01*
X167650000Y-53650000D02*
X169428000Y-53650000D01*
X178572000Y-53650000D02*
X180350000Y-53650000D01*
X180350000Y-53650000D02*
X180350000Y-55428000D01*
X180350000Y-64572000D02*
X180350000Y-66350000D01*
X180350000Y-66350000D02*
X178572000Y-66350000D01*
X169428000Y-66350000D02*
X167650000Y-66350000D01*
X167650000Y-66350000D02*
X167650000Y-64572000D01*
X167650000Y-55428000D02*
X167650000Y-53650000D01*
X167650000Y-72650000D02*
X169428000Y-72650000D01*
X178572000Y-72650000D02*
X180350000Y-72650000D01*
X180350000Y-72650000D02*
X180350000Y-74428000D01*
X180350000Y-83572000D02*
X180350000Y-85350000D01*
X180350000Y-85350000D02*
X178572000Y-85350000D01*
X169428000Y-85350000D02*
X167650000Y-85350000D01*
X167650000Y-85350000D02*
X167650000Y-83572000D01*
X167650000Y-74428000D02*
X167650000Y-72650000D01*
X167650000Y-104350000D02*
X167650000Y-102572000D01*
X167650000Y-93428000D02*
X167650000Y-91650000D01*
X167650000Y-91650000D02*
X169428000Y-91650000D01*
X178572000Y-91650000D02*
X180350000Y-91650000D01*
X180350000Y-91650000D02*
X180350000Y-93428000D01*
X180350000Y-102572000D02*
X180350000Y-104350000D01*
X180350000Y-104350000D02*
X178572000Y-104350000D01*
X169428000Y-104350000D02*
X167650000Y-104350000D01*
X53650000Y-91650000D02*
X55428000Y-91650000D01*
X64572000Y-91650000D02*
X66350000Y-91650000D01*
X66350000Y-91650000D02*
X66350000Y-93428000D01*
X66350000Y-102572000D02*
X66350000Y-104350000D01*
X66350000Y-104350000D02*
X64572000Y-104350000D01*
X55428000Y-104350000D02*
X53650000Y-104350000D01*
X53650000Y-104350000D02*
X53650000Y-102572000D01*
X53650000Y-93428000D02*
X53650000Y-91650000D01*
X53650000Y-72650000D02*
X55428000Y-72650000D01*
X64572000Y-72650000D02*
X66350000Y-72650000D01*
X66350000Y-72650000D02*
X66350000Y-74428000D01*
X66350000Y-83572000D02*
X66350000Y-85350000D01*
X66350000Y-85350000D02*
X64572000Y-85350000D01*
X55428000Y-85350000D02*
X53650000Y-85350000D01*
X53650000Y-85350000D02*
X53650000Y-83572000D01*
X53650000Y-74428000D02*
X53650000Y-72650000D01*
X53650000Y-53650000D02*
X55428000Y-53650000D01*
X64572000Y-53650000D02*
X66350000Y-53650000D01*
X66350000Y-53650000D02*
X66350000Y-55428000D01*
X66350000Y-64572000D02*
X66350000Y-66350000D01*
X66350000Y-66350000D02*
X64572000Y-66350000D01*
X55428000Y-66350000D02*
X53650000Y-66350000D01*
X53650000Y-66350000D02*
X53650000Y-64572000D01*
X53650000Y-55428000D02*
X53650000Y-53650000D01*
X72650000Y-53650000D02*
X74428000Y-53650000D01*
X83572000Y-53650000D02*
X85350000Y-53650000D01*
X85350000Y-53650000D02*
X85350000Y-55428000D01*
X85350000Y-64572000D02*
X85350000Y-66350000D01*
X85350000Y-66350000D02*
X83572000Y-66350000D01*
X74428000Y-66350000D02*
X72650000Y-66350000D01*
X72650000Y-66350000D02*
X72650000Y-64572000D01*
X72650000Y-55428000D02*
X72650000Y-53650000D01*
X72650000Y-72650000D02*
X74428000Y-72650000D01*
X83572000Y-72650000D02*
X85350000Y-72650000D01*
X85350000Y-72650000D02*
X85350000Y-74428000D01*
X85350000Y-83572000D02*
X85350000Y-85350000D01*
X85350000Y-85350000D02*
X83572000Y-85350000D01*
X74428000Y-85350000D02*
X72650000Y-85350000D01*
X72650000Y-85350000D02*
X72650000Y-83572000D01*
X72650000Y-74428000D02*
X72650000Y-72650000D01*
X72650000Y-91650000D02*
X74428000Y-91650000D01*
X83572000Y-91650000D02*
X85350000Y-91650000D01*
X85350000Y-91650000D02*
X85350000Y-93428000D01*
X85350000Y-102572000D02*
X85350000Y-104350000D01*
X85350000Y-104350000D02*
X83572000Y-104350000D01*
X74428000Y-104350000D02*
X72650000Y-104350000D01*
X72650000Y-104350000D02*
X72650000Y-102572000D01*
X72650000Y-93428000D02*
X72650000Y-91650000D01*
X34650000Y-91650000D02*
X36428000Y-91650000D01*
X45572000Y-91650000D02*
X47350000Y-91650000D01*
X47350000Y-91650000D02*
X47350000Y-93428000D01*
X47350000Y-102572000D02*
X47350000Y-104350000D01*
X47350000Y-104350000D02*
X45572000Y-104350000D01*
X36428000Y-104350000D02*
X34650000Y-104350000D01*
X34650000Y-104350000D02*
X34650000Y-102572000D01*
X34650000Y-93428000D02*
X34650000Y-91650000D01*
X34650000Y-72650000D02*
X36428000Y-72650000D01*
X45572000Y-72650000D02*
X47350000Y-72650000D01*
X47350000Y-72650000D02*
X47350000Y-74428000D01*
X47350000Y-83572000D02*
X47350000Y-85350000D01*
X47350000Y-85350000D02*
X45572000Y-85350000D01*
X36428000Y-85350000D02*
X34650000Y-85350000D01*
X34650000Y-85350000D02*
X34650000Y-83572000D01*
X34650000Y-74428000D02*
X34650000Y-72650000D01*
X34650000Y-53650000D02*
X36428000Y-53650000D01*
X45572000Y-53650000D02*
X47350000Y-53650000D01*
X47350000Y-53650000D02*
X47350000Y-55428000D01*
X47350000Y-64572000D02*
X47350000Y-66350000D01*
X47350000Y-66350000D02*
X45572000Y-66350000D01*
X36428000Y-66350000D02*
X34650000Y-66350000D01*
X34650000Y-66350000D02*
X34650000Y-64572000D01*
X34650000Y-55428000D02*
X34650000Y-53650000D01*
X91650000Y-34650000D02*
X93428000Y-34650000D01*
X102572000Y-34650000D02*
X104350000Y-34650000D01*
X104350000Y-34650000D02*
X104350000Y-36428000D01*
X104350000Y-45572000D02*
X104350000Y-47350000D01*
X104350000Y-47350000D02*
X102572000Y-47350000D01*
X93428000Y-47350000D02*
X91650000Y-47350000D01*
X91650000Y-47350000D02*
X91650000Y-45572000D01*
X91650000Y-36428000D02*
X91650000Y-34650000D01*
X91650000Y-91650000D02*
X93428000Y-91650000D01*
X102572000Y-91650000D02*
X104350000Y-91650000D01*
X104350000Y-91650000D02*
X104350000Y-93428000D01*
X104350000Y-102572000D02*
X104350000Y-104350000D01*
X104350000Y-104350000D02*
X102572000Y-104350000D01*
X93428000Y-104350000D02*
X91650000Y-104350000D01*
X91650000Y-104350000D02*
X91650000Y-102572000D01*
X91650000Y-93428000D02*
X91650000Y-91650000D01*
X91650000Y-72650000D02*
X93428000Y-72650000D01*
X102572000Y-72650000D02*
X104350000Y-72650000D01*
X104350000Y-72650000D02*
X104350000Y-74428000D01*
X104350000Y-83572000D02*
X104350000Y-85350000D01*
X104350000Y-85350000D02*
X102572000Y-85350000D01*
X93428000Y-85350000D02*
X91650000Y-85350000D01*
X91650000Y-85350000D02*
X91650000Y-83572000D01*
X91650000Y-74428000D02*
X91650000Y-72650000D01*
X91650000Y-15650000D02*
X93428000Y-15650000D01*
X102572000Y-15650000D02*
X104350000Y-15650000D01*
X104350000Y-15650000D02*
X104350000Y-17428000D01*
X104350000Y-26572000D02*
X104350000Y-28350000D01*
X104350000Y-28350000D02*
X102572000Y-28350000D01*
X93428000Y-28350000D02*
X91650000Y-28350000D01*
X91650000Y-28350000D02*
X91650000Y-26572000D01*
X91650000Y-17428000D02*
X91650000Y-15650000D01*
X91650000Y-53650000D02*
X93428000Y-53650000D01*
X102572000Y-53650000D02*
X104350000Y-53650000D01*
X104350000Y-53650000D02*
X104350000Y-55428000D01*
X104350000Y-64572000D02*
X104350000Y-66350000D01*
X104350000Y-66350000D02*
X102572000Y-66350000D01*
X93428000Y-66350000D02*
X91650000Y-66350000D01*
X91650000Y-66350000D02*
X91650000Y-64572000D01*
X91650000Y-55428000D02*
X91650000Y-53650000D01*
X72650000Y-15650000D02*
X74428000Y-15650000D01*
X83572000Y-15650000D02*
X85350000Y-15650000D01*
X85350000Y-15650000D02*
X85350000Y-17428000D01*
X85350000Y-26572000D02*
X85350000Y-28350000D01*
X85350000Y-28350000D02*
X83572000Y-28350000D01*
X74428000Y-28350000D02*
X72650000Y-28350000D01*
X72650000Y-28350000D02*
X72650000Y-26572000D01*
X72650000Y-17428000D02*
X72650000Y-15650000D01*
X72650000Y-34650000D02*
X74428000Y-34650000D01*
X83572000Y-34650000D02*
X85350000Y-34650000D01*
X85350000Y-34650000D02*
X85350000Y-36428000D01*
X85350000Y-45572000D02*
X85350000Y-47350000D01*
X85350000Y-47350000D02*
X83572000Y-47350000D01*
X74428000Y-47350000D02*
X72650000Y-47350000D01*
X72650000Y-47350000D02*
X72650000Y-45572000D01*
X72650000Y-36428000D02*
X72650000Y-34650000D01*
X53650000Y-15650000D02*
X55428000Y-15650000D01*
X64572000Y-15650000D02*
X66350000Y-15650000D01*
X66350000Y-15650000D02*
X66350000Y-17428000D01*
X66350000Y-26572000D02*
X66350000Y-28350000D01*
X66350000Y-28350000D02*
X64572000Y-28350000D01*
X55428000Y-28350000D02*
X53650000Y-28350000D01*
X53650000Y-28350000D02*
X53650000Y-26572000D01*
X53650000Y-17428000D02*
X53650000Y-15650000D01*
X53650000Y-34650000D02*
X55428000Y-34650000D01*
X64572000Y-34650000D02*
X66350000Y-34650000D01*
X66350000Y-34650000D02*
X66350000Y-36428000D01*
X66350000Y-45572000D02*
X66350000Y-47350000D01*
X66350000Y-47350000D02*
X64572000Y-47350000D01*
X55428000Y-47350000D02*
X53650000Y-47350000D01*
X53650000Y-47350000D02*
X53650000Y-45572000D01*
X53650000Y-36428000D02*
X53650000Y-34650000D01*
X15650000Y-53650000D02*
X17428000Y-53650000D01*
X26572000Y-53650000D02*
X28350000Y-53650000D01*
X28350000Y-53650000D02*
X28350000Y-55428000D01*
X28350000Y-64572000D02*
X28350000Y-66350000D01*
X28350000Y-66350000D02*
X26572000Y-66350000D01*
X17428000Y-66350000D02*
X15650000Y-66350000D01*
X15650000Y-66350000D02*
X15650000Y-64572000D01*
X15650000Y-55428000D02*
X15650000Y-53650000D01*
X34650000Y-34650000D02*
X36428000Y-34650000D01*
X45572000Y-34650000D02*
X47350000Y-34650000D01*
X47350000Y-34650000D02*
X47350000Y-36428000D01*
X47350000Y-45572000D02*
X47350000Y-47350000D01*
X47350000Y-47350000D02*
X45572000Y-47350000D01*
X36428000Y-47350000D02*
X34650000Y-47350000D01*
X34650000Y-47350000D02*
X34650000Y-45572000D01*
X34650000Y-36428000D02*
X34650000Y-34650000D01*
X15650000Y-15650000D02*
X17428000Y-15650000D01*
X26572000Y-15650000D02*
X28350000Y-15650000D01*
X28350000Y-15650000D02*
X28350000Y-17428000D01*
X28350000Y-26572000D02*
X28350000Y-28350000D01*
X28350000Y-28350000D02*
X26572000Y-28350000D01*
X17428000Y-28350000D02*
X15650000Y-28350000D01*
X15650000Y-28350000D02*
X15650000Y-26572000D01*
X15650000Y-17428000D02*
X15650000Y-15650000D01*
X34650000Y-15650000D02*
X36428000Y-15650000D01*
X45572000Y-15650000D02*
X47350000Y-15650000D01*
X47350000Y-15650000D02*
X47350000Y-17428000D01*
X47350000Y-26572000D02*
X47350000Y-28350000D01*
X47350000Y-28350000D02*
X45572000Y-28350000D01*
X36428000Y-28350000D02*
X34650000Y-28350000D01*
X34650000Y-28350000D02*
X34650000Y-26572000D01*
X34650000Y-17428000D02*
X34650000Y-15650000D01*
X15650000Y-72650000D02*
X17428000Y-72650000D01*
X26572000Y-72650000D02*
X28350000Y-72650000D01*
X28350000Y-72650000D02*
X28350000Y-74428000D01*
X28350000Y-83572000D02*
X28350000Y-85350000D01*
X28350000Y-85350000D02*
X26572000Y-85350000D01*
X17428000Y-85350000D02*
X15650000Y-85350000D01*
X15650000Y-85350000D02*
X15650000Y-83572000D01*
X15650000Y-74428000D02*
X15650000Y-72650000D01*
X15650000Y-91650000D02*
X17428000Y-91650000D01*
X26572000Y-91650000D02*
X28350000Y-91650000D01*
X28350000Y-91650000D02*
X28350000Y-93428000D01*
X28350000Y-102572000D02*
X28350000Y-104350000D01*
X28350000Y-104350000D02*
X26572000Y-104350000D01*
X17428000Y-104350000D02*
X15650000Y-104350000D01*
X15650000Y-104350000D02*
X15650000Y-102572000D01*
X15650000Y-93428000D02*
X15650000Y-91650000D01*
X15650000Y-34650000D02*
X17428000Y-34650000D01*
X26572000Y-34650000D02*
X28350000Y-34650000D01*
X28350000Y-34650000D02*
X28350000Y-36428000D01*
X28350000Y-45572000D02*
X28350000Y-47350000D01*
X28350000Y-47350000D02*
X26572000Y-47350000D01*
X17428000Y-47350000D02*
X15650000Y-47350000D01*
X15650000Y-47350000D02*
X15650000Y-45572000D01*
X15650000Y-36428000D02*
X15650000Y-34650000D01*
D12*
X209024571Y-63689048D02*
X209242285Y-63749524D01*
X209605142Y-63749524D01*
X209750285Y-63689048D01*
X209822856Y-63628571D01*
X209895428Y-63507619D01*
X209895428Y-63386667D01*
X209822856Y-63265714D01*
X209750285Y-63205238D01*
X209605142Y-63144762D01*
X209314856Y-63084286D01*
X209169714Y-63023810D01*
X209097142Y-62963333D01*
X209024571Y-62842381D01*
X209024571Y-62721429D01*
X209097142Y-62600476D01*
X209169714Y-62540000D01*
X209314856Y-62479524D01*
X209677714Y-62479524D01*
X209895428Y-62540000D01*
X210476000Y-62600476D02*
X210548571Y-62540000D01*
X210693714Y-62479524D01*
X211056571Y-62479524D01*
X211201714Y-62540000D01*
X211274285Y-62600476D01*
X211346857Y-62721429D01*
X211346857Y-62842381D01*
X211274285Y-63023810D01*
X210403428Y-63749524D01*
X211346857Y-63749524D01*
X212000000Y-63628571D02*
X212072572Y-63689048D01*
X212000000Y-63749524D01*
X211927429Y-63689048D01*
X212000000Y-63628571D01*
X212000000Y-63749524D01*
X212000000Y-62963333D02*
X212072572Y-63023810D01*
X212000000Y-63084286D01*
X211927429Y-63023810D01*
X212000000Y-62963333D01*
X212000000Y-63084286D01*
X213524000Y-63749524D02*
X212653143Y-63749524D01*
X213088571Y-63749524D02*
X213088571Y-62479524D01*
X212943428Y-62660952D01*
X212798286Y-62781905D01*
X212653143Y-62842381D01*
X214467429Y-62479524D02*
X214612572Y-62479524D01*
X214757715Y-62540000D01*
X214830286Y-62600476D01*
X214902857Y-62721429D01*
X214975429Y-62963333D01*
X214975429Y-63265714D01*
X214902857Y-63507619D01*
X214830286Y-63628571D01*
X214757715Y-63689048D01*
X214612572Y-63749524D01*
X214467429Y-63749524D01*
X214322286Y-63689048D01*
X214249715Y-63628571D01*
X214177143Y-63507619D01*
X214104572Y-63265714D01*
X214104572Y-62963333D01*
X214177143Y-62721429D01*
X214249715Y-62600476D01*
X214322286Y-62540000D01*
X214467429Y-62479524D01*
X228024571Y-44689048D02*
X228242285Y-44749524D01*
X228605142Y-44749524D01*
X228750285Y-44689048D01*
X228822856Y-44628571D01*
X228895428Y-44507619D01*
X228895428Y-44386667D01*
X228822856Y-44265714D01*
X228750285Y-44205238D01*
X228605142Y-44144762D01*
X228314856Y-44084286D01*
X228169714Y-44023810D01*
X228097142Y-43963333D01*
X228024571Y-43842381D01*
X228024571Y-43721429D01*
X228097142Y-43600476D01*
X228169714Y-43540000D01*
X228314856Y-43479524D01*
X228677714Y-43479524D01*
X228895428Y-43540000D01*
X229403428Y-43479524D02*
X230346857Y-43479524D01*
X229838857Y-43963333D01*
X230056571Y-43963333D01*
X230201714Y-44023810D01*
X230274285Y-44084286D01*
X230346857Y-44205238D01*
X230346857Y-44507619D01*
X230274285Y-44628571D01*
X230201714Y-44689048D01*
X230056571Y-44749524D01*
X229621143Y-44749524D01*
X229476000Y-44689048D01*
X229403428Y-44628571D01*
X231000000Y-44628571D02*
X231072572Y-44689048D01*
X231000000Y-44749524D01*
X230927429Y-44689048D01*
X231000000Y-44628571D01*
X231000000Y-44749524D01*
X231000000Y-43963333D02*
X231072572Y-44023810D01*
X231000000Y-44084286D01*
X230927429Y-44023810D01*
X231000000Y-43963333D01*
X231000000Y-44084286D01*
X232524000Y-44749524D02*
X231653143Y-44749524D01*
X232088571Y-44749524D02*
X232088571Y-43479524D01*
X231943428Y-43660952D01*
X231798286Y-43781905D01*
X231653143Y-43842381D01*
X233975429Y-44749524D02*
X233104572Y-44749524D01*
X233540000Y-44749524D02*
X233540000Y-43479524D01*
X233394857Y-43660952D01*
X233249715Y-43781905D01*
X233104572Y-43842381D01*
X266024571Y-63689048D02*
X266242285Y-63749524D01*
X266605142Y-63749524D01*
X266750285Y-63689048D01*
X266822856Y-63628571D01*
X266895428Y-63507619D01*
X266895428Y-63386667D01*
X266822856Y-63265714D01*
X266750285Y-63205238D01*
X266605142Y-63144762D01*
X266314856Y-63084286D01*
X266169714Y-63023810D01*
X266097142Y-62963333D01*
X266024571Y-62842381D01*
X266024571Y-62721429D01*
X266097142Y-62600476D01*
X266169714Y-62540000D01*
X266314856Y-62479524D01*
X266677714Y-62479524D01*
X266895428Y-62540000D01*
X267476000Y-62600476D02*
X267548571Y-62540000D01*
X267693714Y-62479524D01*
X268056571Y-62479524D01*
X268201714Y-62540000D01*
X268274285Y-62600476D01*
X268346857Y-62721429D01*
X268346857Y-62842381D01*
X268274285Y-63023810D01*
X267403428Y-63749524D01*
X268346857Y-63749524D01*
X269000000Y-63628571D02*
X269072572Y-63689048D01*
X269000000Y-63749524D01*
X268927429Y-63689048D01*
X269000000Y-63628571D01*
X269000000Y-63749524D01*
X269000000Y-62963333D02*
X269072572Y-63023810D01*
X269000000Y-63084286D01*
X268927429Y-63023810D01*
X269000000Y-62963333D01*
X269000000Y-63084286D01*
X270524000Y-63749524D02*
X269653143Y-63749524D01*
X270088571Y-63749524D02*
X270088571Y-62479524D01*
X269943428Y-62660952D01*
X269798286Y-62781905D01*
X269653143Y-62842381D01*
X271032000Y-62479524D02*
X271975429Y-62479524D01*
X271467429Y-62963333D01*
X271685143Y-62963333D01*
X271830286Y-63023810D01*
X271902857Y-63084286D01*
X271975429Y-63205238D01*
X271975429Y-63507619D01*
X271902857Y-63628571D01*
X271830286Y-63689048D01*
X271685143Y-63749524D01*
X271249715Y-63749524D01*
X271104572Y-63689048D01*
X271032000Y-63628571D01*
X266024571Y-25689048D02*
X266242285Y-25749524D01*
X266605142Y-25749524D01*
X266750285Y-25689048D01*
X266822856Y-25628571D01*
X266895428Y-25507619D01*
X266895428Y-25386667D01*
X266822856Y-25265714D01*
X266750285Y-25205238D01*
X266605142Y-25144762D01*
X266314856Y-25084286D01*
X266169714Y-25023810D01*
X266097142Y-24963333D01*
X266024571Y-24842381D01*
X266024571Y-24721429D01*
X266097142Y-24600476D01*
X266169714Y-24540000D01*
X266314856Y-24479524D01*
X266677714Y-24479524D01*
X266895428Y-24540000D01*
X268201714Y-24902857D02*
X268201714Y-25749524D01*
X267838857Y-24419048D02*
X267476000Y-25326190D01*
X268419428Y-25326190D01*
X269000000Y-25628571D02*
X269072572Y-25689048D01*
X269000000Y-25749524D01*
X268927429Y-25689048D01*
X269000000Y-25628571D01*
X269000000Y-25749524D01*
X269000000Y-24963333D02*
X269072572Y-25023810D01*
X269000000Y-25084286D01*
X268927429Y-25023810D01*
X269000000Y-24963333D01*
X269000000Y-25084286D01*
X270524000Y-25749524D02*
X269653143Y-25749524D01*
X270088571Y-25749524D02*
X270088571Y-24479524D01*
X269943428Y-24660952D01*
X269798286Y-24781905D01*
X269653143Y-24842381D01*
X271032000Y-24479524D02*
X271975429Y-24479524D01*
X271467429Y-24963333D01*
X271685143Y-24963333D01*
X271830286Y-25023810D01*
X271902857Y-25084286D01*
X271975429Y-25205238D01*
X271975429Y-25507619D01*
X271902857Y-25628571D01*
X271830286Y-25689048D01*
X271685143Y-25749524D01*
X271249715Y-25749524D01*
X271104572Y-25689048D01*
X271032000Y-25628571D01*
X266024571Y-82689048D02*
X266242285Y-82749524D01*
X266605142Y-82749524D01*
X266750285Y-82689048D01*
X266822856Y-82628571D01*
X266895428Y-82507619D01*
X266895428Y-82386667D01*
X266822856Y-82265714D01*
X266750285Y-82205238D01*
X266605142Y-82144762D01*
X266314856Y-82084286D01*
X266169714Y-82023810D01*
X266097142Y-81963333D01*
X266024571Y-81842381D01*
X266024571Y-81721429D01*
X266097142Y-81600476D01*
X266169714Y-81540000D01*
X266314856Y-81479524D01*
X266677714Y-81479524D01*
X266895428Y-81540000D01*
X268346857Y-82749524D02*
X267476000Y-82749524D01*
X267911428Y-82749524D02*
X267911428Y-81479524D01*
X267766285Y-81660952D01*
X267621143Y-81781905D01*
X267476000Y-81842381D01*
X269000000Y-82628571D02*
X269072572Y-82689048D01*
X269000000Y-82749524D01*
X268927429Y-82689048D01*
X269000000Y-82628571D01*
X269000000Y-82749524D01*
X269000000Y-81963333D02*
X269072572Y-82023810D01*
X269000000Y-82084286D01*
X268927429Y-82023810D01*
X269000000Y-81963333D01*
X269000000Y-82084286D01*
X270524000Y-82749524D02*
X269653143Y-82749524D01*
X270088571Y-82749524D02*
X270088571Y-81479524D01*
X269943428Y-81660952D01*
X269798286Y-81781905D01*
X269653143Y-81842381D01*
X271032000Y-81479524D02*
X271975429Y-81479524D01*
X271467429Y-81963333D01*
X271685143Y-81963333D01*
X271830286Y-82023810D01*
X271902857Y-82084286D01*
X271975429Y-82205238D01*
X271975429Y-82507619D01*
X271902857Y-82628571D01*
X271830286Y-82689048D01*
X271685143Y-82749524D01*
X271249715Y-82749524D01*
X271104572Y-82689048D01*
X271032000Y-82628571D01*
X266024571Y-101689048D02*
X266242285Y-101749524D01*
X266605142Y-101749524D01*
X266750285Y-101689048D01*
X266822856Y-101628571D01*
X266895428Y-101507619D01*
X266895428Y-101386667D01*
X266822856Y-101265714D01*
X266750285Y-101205238D01*
X266605142Y-101144762D01*
X266314856Y-101084286D01*
X266169714Y-101023810D01*
X266097142Y-100963333D01*
X266024571Y-100842381D01*
X266024571Y-100721429D01*
X266097142Y-100600476D01*
X266169714Y-100540000D01*
X266314856Y-100479524D01*
X266677714Y-100479524D01*
X266895428Y-100540000D01*
X267838857Y-100479524D02*
X267984000Y-100479524D01*
X268129143Y-100540000D01*
X268201714Y-100600476D01*
X268274285Y-100721429D01*
X268346857Y-100963333D01*
X268346857Y-101265714D01*
X268274285Y-101507619D01*
X268201714Y-101628571D01*
X268129143Y-101689048D01*
X267984000Y-101749524D01*
X267838857Y-101749524D01*
X267693714Y-101689048D01*
X267621143Y-101628571D01*
X267548571Y-101507619D01*
X267476000Y-101265714D01*
X267476000Y-100963333D01*
X267548571Y-100721429D01*
X267621143Y-100600476D01*
X267693714Y-100540000D01*
X267838857Y-100479524D01*
X269000000Y-101628571D02*
X269072572Y-101689048D01*
X269000000Y-101749524D01*
X268927429Y-101689048D01*
X269000000Y-101628571D01*
X269000000Y-101749524D01*
X269000000Y-100963333D02*
X269072572Y-101023810D01*
X269000000Y-101084286D01*
X268927429Y-101023810D01*
X269000000Y-100963333D01*
X269000000Y-101084286D01*
X270524000Y-101749524D02*
X269653143Y-101749524D01*
X270088571Y-101749524D02*
X270088571Y-100479524D01*
X269943428Y-100660952D01*
X269798286Y-100781905D01*
X269653143Y-100842381D01*
X271032000Y-100479524D02*
X271975429Y-100479524D01*
X271467429Y-100963333D01*
X271685143Y-100963333D01*
X271830286Y-101023810D01*
X271902857Y-101084286D01*
X271975429Y-101205238D01*
X271975429Y-101507619D01*
X271902857Y-101628571D01*
X271830286Y-101689048D01*
X271685143Y-101749524D01*
X271249715Y-101749524D01*
X271104572Y-101689048D01*
X271032000Y-101628571D01*
X266024571Y-44689048D02*
X266242285Y-44749524D01*
X266605142Y-44749524D01*
X266750285Y-44689048D01*
X266822856Y-44628571D01*
X266895428Y-44507619D01*
X266895428Y-44386667D01*
X266822856Y-44265714D01*
X266750285Y-44205238D01*
X266605142Y-44144762D01*
X266314856Y-44084286D01*
X266169714Y-44023810D01*
X266097142Y-43963333D01*
X266024571Y-43842381D01*
X266024571Y-43721429D01*
X266097142Y-43600476D01*
X266169714Y-43540000D01*
X266314856Y-43479524D01*
X266677714Y-43479524D01*
X266895428Y-43540000D01*
X267403428Y-43479524D02*
X268346857Y-43479524D01*
X267838857Y-43963333D01*
X268056571Y-43963333D01*
X268201714Y-44023810D01*
X268274285Y-44084286D01*
X268346857Y-44205238D01*
X268346857Y-44507619D01*
X268274285Y-44628571D01*
X268201714Y-44689048D01*
X268056571Y-44749524D01*
X267621143Y-44749524D01*
X267476000Y-44689048D01*
X267403428Y-44628571D01*
X269000000Y-44628571D02*
X269072572Y-44689048D01*
X269000000Y-44749524D01*
X268927429Y-44689048D01*
X269000000Y-44628571D01*
X269000000Y-44749524D01*
X269000000Y-43963333D02*
X269072572Y-44023810D01*
X269000000Y-44084286D01*
X268927429Y-44023810D01*
X269000000Y-43963333D01*
X269000000Y-44084286D01*
X270524000Y-44749524D02*
X269653143Y-44749524D01*
X270088571Y-44749524D02*
X270088571Y-43479524D01*
X269943428Y-43660952D01*
X269798286Y-43781905D01*
X269653143Y-43842381D01*
X271032000Y-43479524D02*
X271975429Y-43479524D01*
X271467429Y-43963333D01*
X271685143Y-43963333D01*
X271830286Y-44023810D01*
X271902857Y-44084286D01*
X271975429Y-44205238D01*
X271975429Y-44507619D01*
X271902857Y-44628571D01*
X271830286Y-44689048D01*
X271685143Y-44749524D01*
X271249715Y-44749524D01*
X271104572Y-44689048D01*
X271032000Y-44628571D01*
X228024571Y-63689048D02*
X228242285Y-63749524D01*
X228605142Y-63749524D01*
X228750285Y-63689048D01*
X228822856Y-63628571D01*
X228895428Y-63507619D01*
X228895428Y-63386667D01*
X228822856Y-63265714D01*
X228750285Y-63205238D01*
X228605142Y-63144762D01*
X228314856Y-63084286D01*
X228169714Y-63023810D01*
X228097142Y-62963333D01*
X228024571Y-62842381D01*
X228024571Y-62721429D01*
X228097142Y-62600476D01*
X228169714Y-62540000D01*
X228314856Y-62479524D01*
X228677714Y-62479524D01*
X228895428Y-62540000D01*
X229476000Y-62600476D02*
X229548571Y-62540000D01*
X229693714Y-62479524D01*
X230056571Y-62479524D01*
X230201714Y-62540000D01*
X230274285Y-62600476D01*
X230346857Y-62721429D01*
X230346857Y-62842381D01*
X230274285Y-63023810D01*
X229403428Y-63749524D01*
X230346857Y-63749524D01*
X231000000Y-63628571D02*
X231072572Y-63689048D01*
X231000000Y-63749524D01*
X230927429Y-63689048D01*
X231000000Y-63628571D01*
X231000000Y-63749524D01*
X231000000Y-62963333D02*
X231072572Y-63023810D01*
X231000000Y-63084286D01*
X230927429Y-63023810D01*
X231000000Y-62963333D01*
X231000000Y-63084286D01*
X232524000Y-63749524D02*
X231653143Y-63749524D01*
X232088571Y-63749524D02*
X232088571Y-62479524D01*
X231943428Y-62660952D01*
X231798286Y-62781905D01*
X231653143Y-62842381D01*
X233975429Y-63749524D02*
X233104572Y-63749524D01*
X233540000Y-63749524D02*
X233540000Y-62479524D01*
X233394857Y-62660952D01*
X233249715Y-62781905D01*
X233104572Y-62842381D01*
X228024571Y-82689048D02*
X228242285Y-82749524D01*
X228605142Y-82749524D01*
X228750285Y-82689048D01*
X228822856Y-82628571D01*
X228895428Y-82507619D01*
X228895428Y-82386667D01*
X228822856Y-82265714D01*
X228750285Y-82205238D01*
X228605142Y-82144762D01*
X228314856Y-82084286D01*
X228169714Y-82023810D01*
X228097142Y-81963333D01*
X228024571Y-81842381D01*
X228024571Y-81721429D01*
X228097142Y-81600476D01*
X228169714Y-81540000D01*
X228314856Y-81479524D01*
X228677714Y-81479524D01*
X228895428Y-81540000D01*
X230346857Y-82749524D02*
X229476000Y-82749524D01*
X229911428Y-82749524D02*
X229911428Y-81479524D01*
X229766285Y-81660952D01*
X229621143Y-81781905D01*
X229476000Y-81842381D01*
X231000000Y-82628571D02*
X231072572Y-82689048D01*
X231000000Y-82749524D01*
X230927429Y-82689048D01*
X231000000Y-82628571D01*
X231000000Y-82749524D01*
X231000000Y-81963333D02*
X231072572Y-82023810D01*
X231000000Y-82084286D01*
X230927429Y-82023810D01*
X231000000Y-81963333D01*
X231000000Y-82084286D01*
X232524000Y-82749524D02*
X231653143Y-82749524D01*
X232088571Y-82749524D02*
X232088571Y-81479524D01*
X231943428Y-81660952D01*
X231798286Y-81781905D01*
X231653143Y-81842381D01*
X233975429Y-82749524D02*
X233104572Y-82749524D01*
X233540000Y-82749524D02*
X233540000Y-81479524D01*
X233394857Y-81660952D01*
X233249715Y-81781905D01*
X233104572Y-81842381D01*
X228024571Y-101689048D02*
X228242285Y-101749524D01*
X228605142Y-101749524D01*
X228750285Y-101689048D01*
X228822856Y-101628571D01*
X228895428Y-101507619D01*
X228895428Y-101386667D01*
X228822856Y-101265714D01*
X228750285Y-101205238D01*
X228605142Y-101144762D01*
X228314856Y-101084286D01*
X228169714Y-101023810D01*
X228097142Y-100963333D01*
X228024571Y-100842381D01*
X228024571Y-100721429D01*
X228097142Y-100600476D01*
X228169714Y-100540000D01*
X228314856Y-100479524D01*
X228677714Y-100479524D01*
X228895428Y-100540000D01*
X229838857Y-100479524D02*
X229984000Y-100479524D01*
X230129143Y-100540000D01*
X230201714Y-100600476D01*
X230274285Y-100721429D01*
X230346857Y-100963333D01*
X230346857Y-101265714D01*
X230274285Y-101507619D01*
X230201714Y-101628571D01*
X230129143Y-101689048D01*
X229984000Y-101749524D01*
X229838857Y-101749524D01*
X229693714Y-101689048D01*
X229621143Y-101628571D01*
X229548571Y-101507619D01*
X229476000Y-101265714D01*
X229476000Y-100963333D01*
X229548571Y-100721429D01*
X229621143Y-100600476D01*
X229693714Y-100540000D01*
X229838857Y-100479524D01*
X231000000Y-101628571D02*
X231072572Y-101689048D01*
X231000000Y-101749524D01*
X230927429Y-101689048D01*
X231000000Y-101628571D01*
X231000000Y-101749524D01*
X231000000Y-100963333D02*
X231072572Y-101023810D01*
X231000000Y-101084286D01*
X230927429Y-101023810D01*
X231000000Y-100963333D01*
X231000000Y-101084286D01*
X232524000Y-101749524D02*
X231653143Y-101749524D01*
X232088571Y-101749524D02*
X232088571Y-100479524D01*
X231943428Y-100660952D01*
X231798286Y-100781905D01*
X231653143Y-100842381D01*
X233975429Y-101749524D02*
X233104572Y-101749524D01*
X233540000Y-101749524D02*
X233540000Y-100479524D01*
X233394857Y-100660952D01*
X233249715Y-100781905D01*
X233104572Y-100842381D01*
X247024571Y-44689048D02*
X247242285Y-44749524D01*
X247605142Y-44749524D01*
X247750285Y-44689048D01*
X247822856Y-44628571D01*
X247895428Y-44507619D01*
X247895428Y-44386667D01*
X247822856Y-44265714D01*
X247750285Y-44205238D01*
X247605142Y-44144762D01*
X247314856Y-44084286D01*
X247169714Y-44023810D01*
X247097142Y-43963333D01*
X247024571Y-43842381D01*
X247024571Y-43721429D01*
X247097142Y-43600476D01*
X247169714Y-43540000D01*
X247314856Y-43479524D01*
X247677714Y-43479524D01*
X247895428Y-43540000D01*
X248403428Y-43479524D02*
X249346857Y-43479524D01*
X248838857Y-43963333D01*
X249056571Y-43963333D01*
X249201714Y-44023810D01*
X249274285Y-44084286D01*
X249346857Y-44205238D01*
X249346857Y-44507619D01*
X249274285Y-44628571D01*
X249201714Y-44689048D01*
X249056571Y-44749524D01*
X248621143Y-44749524D01*
X248476000Y-44689048D01*
X248403428Y-44628571D01*
X250000000Y-44628571D02*
X250072572Y-44689048D01*
X250000000Y-44749524D01*
X249927429Y-44689048D01*
X250000000Y-44628571D01*
X250000000Y-44749524D01*
X250000000Y-43963333D02*
X250072572Y-44023810D01*
X250000000Y-44084286D01*
X249927429Y-44023810D01*
X250000000Y-43963333D01*
X250000000Y-44084286D01*
X251524000Y-44749524D02*
X250653143Y-44749524D01*
X251088571Y-44749524D02*
X251088571Y-43479524D01*
X250943428Y-43660952D01*
X250798286Y-43781905D01*
X250653143Y-43842381D01*
X252104572Y-43600476D02*
X252177143Y-43540000D01*
X252322286Y-43479524D01*
X252685143Y-43479524D01*
X252830286Y-43540000D01*
X252902857Y-43600476D01*
X252975429Y-43721429D01*
X252975429Y-43842381D01*
X252902857Y-44023810D01*
X252032000Y-44749524D01*
X252975429Y-44749524D01*
X247024571Y-101689048D02*
X247242285Y-101749524D01*
X247605142Y-101749524D01*
X247750285Y-101689048D01*
X247822856Y-101628571D01*
X247895428Y-101507619D01*
X247895428Y-101386667D01*
X247822856Y-101265714D01*
X247750285Y-101205238D01*
X247605142Y-101144762D01*
X247314856Y-101084286D01*
X247169714Y-101023810D01*
X247097142Y-100963333D01*
X247024571Y-100842381D01*
X247024571Y-100721429D01*
X247097142Y-100600476D01*
X247169714Y-100540000D01*
X247314856Y-100479524D01*
X247677714Y-100479524D01*
X247895428Y-100540000D01*
X248838857Y-100479524D02*
X248984000Y-100479524D01*
X249129143Y-100540000D01*
X249201714Y-100600476D01*
X249274285Y-100721429D01*
X249346857Y-100963333D01*
X249346857Y-101265714D01*
X249274285Y-101507619D01*
X249201714Y-101628571D01*
X249129143Y-101689048D01*
X248984000Y-101749524D01*
X248838857Y-101749524D01*
X248693714Y-101689048D01*
X248621143Y-101628571D01*
X248548571Y-101507619D01*
X248476000Y-101265714D01*
X248476000Y-100963333D01*
X248548571Y-100721429D01*
X248621143Y-100600476D01*
X248693714Y-100540000D01*
X248838857Y-100479524D01*
X250000000Y-101628571D02*
X250072572Y-101689048D01*
X250000000Y-101749524D01*
X249927429Y-101689048D01*
X250000000Y-101628571D01*
X250000000Y-101749524D01*
X250000000Y-100963333D02*
X250072572Y-101023810D01*
X250000000Y-101084286D01*
X249927429Y-101023810D01*
X250000000Y-100963333D01*
X250000000Y-101084286D01*
X251524000Y-101749524D02*
X250653143Y-101749524D01*
X251088571Y-101749524D02*
X251088571Y-100479524D01*
X250943428Y-100660952D01*
X250798286Y-100781905D01*
X250653143Y-100842381D01*
X252104572Y-100600476D02*
X252177143Y-100540000D01*
X252322286Y-100479524D01*
X252685143Y-100479524D01*
X252830286Y-100540000D01*
X252902857Y-100600476D01*
X252975429Y-100721429D01*
X252975429Y-100842381D01*
X252902857Y-101023810D01*
X252032000Y-101749524D01*
X252975429Y-101749524D01*
X247024571Y-82689048D02*
X247242285Y-82749524D01*
X247605142Y-82749524D01*
X247750285Y-82689048D01*
X247822856Y-82628571D01*
X247895428Y-82507619D01*
X247895428Y-82386667D01*
X247822856Y-82265714D01*
X247750285Y-82205238D01*
X247605142Y-82144762D01*
X247314856Y-82084286D01*
X247169714Y-82023810D01*
X247097142Y-81963333D01*
X247024571Y-81842381D01*
X247024571Y-81721429D01*
X247097142Y-81600476D01*
X247169714Y-81540000D01*
X247314856Y-81479524D01*
X247677714Y-81479524D01*
X247895428Y-81540000D01*
X249346857Y-82749524D02*
X248476000Y-82749524D01*
X248911428Y-82749524D02*
X248911428Y-81479524D01*
X248766285Y-81660952D01*
X248621143Y-81781905D01*
X248476000Y-81842381D01*
X250000000Y-82628571D02*
X250072572Y-82689048D01*
X250000000Y-82749524D01*
X249927429Y-82689048D01*
X250000000Y-82628571D01*
X250000000Y-82749524D01*
X250000000Y-81963333D02*
X250072572Y-82023810D01*
X250000000Y-82084286D01*
X249927429Y-82023810D01*
X250000000Y-81963333D01*
X250000000Y-82084286D01*
X251524000Y-82749524D02*
X250653143Y-82749524D01*
X251088571Y-82749524D02*
X251088571Y-81479524D01*
X250943428Y-81660952D01*
X250798286Y-81781905D01*
X250653143Y-81842381D01*
X252104572Y-81600476D02*
X252177143Y-81540000D01*
X252322286Y-81479524D01*
X252685143Y-81479524D01*
X252830286Y-81540000D01*
X252902857Y-81600476D01*
X252975429Y-81721429D01*
X252975429Y-81842381D01*
X252902857Y-82023810D01*
X252032000Y-82749524D01*
X252975429Y-82749524D01*
X247024571Y-25689048D02*
X247242285Y-25749524D01*
X247605142Y-25749524D01*
X247750285Y-25689048D01*
X247822856Y-25628571D01*
X247895428Y-25507619D01*
X247895428Y-25386667D01*
X247822856Y-25265714D01*
X247750285Y-25205238D01*
X247605142Y-25144762D01*
X247314856Y-25084286D01*
X247169714Y-25023810D01*
X247097142Y-24963333D01*
X247024571Y-24842381D01*
X247024571Y-24721429D01*
X247097142Y-24600476D01*
X247169714Y-24540000D01*
X247314856Y-24479524D01*
X247677714Y-24479524D01*
X247895428Y-24540000D01*
X249201714Y-24902857D02*
X249201714Y-25749524D01*
X248838857Y-24419048D02*
X248476000Y-25326190D01*
X249419428Y-25326190D01*
X250000000Y-25628571D02*
X250072572Y-25689048D01*
X250000000Y-25749524D01*
X249927429Y-25689048D01*
X250000000Y-25628571D01*
X250000000Y-25749524D01*
X250000000Y-24963333D02*
X250072572Y-25023810D01*
X250000000Y-25084286D01*
X249927429Y-25023810D01*
X250000000Y-24963333D01*
X250000000Y-25084286D01*
X251524000Y-25749524D02*
X250653143Y-25749524D01*
X251088571Y-25749524D02*
X251088571Y-24479524D01*
X250943428Y-24660952D01*
X250798286Y-24781905D01*
X250653143Y-24842381D01*
X252104572Y-24600476D02*
X252177143Y-24540000D01*
X252322286Y-24479524D01*
X252685143Y-24479524D01*
X252830286Y-24540000D01*
X252902857Y-24600476D01*
X252975429Y-24721429D01*
X252975429Y-24842381D01*
X252902857Y-25023810D01*
X252032000Y-25749524D01*
X252975429Y-25749524D01*
X247024571Y-63689048D02*
X247242285Y-63749524D01*
X247605142Y-63749524D01*
X247750285Y-63689048D01*
X247822856Y-63628571D01*
X247895428Y-63507619D01*
X247895428Y-63386667D01*
X247822856Y-63265714D01*
X247750285Y-63205238D01*
X247605142Y-63144762D01*
X247314856Y-63084286D01*
X247169714Y-63023810D01*
X247097142Y-62963333D01*
X247024571Y-62842381D01*
X247024571Y-62721429D01*
X247097142Y-62600476D01*
X247169714Y-62540000D01*
X247314856Y-62479524D01*
X247677714Y-62479524D01*
X247895428Y-62540000D01*
X248476000Y-62600476D02*
X248548571Y-62540000D01*
X248693714Y-62479524D01*
X249056571Y-62479524D01*
X249201714Y-62540000D01*
X249274285Y-62600476D01*
X249346857Y-62721429D01*
X249346857Y-62842381D01*
X249274285Y-63023810D01*
X248403428Y-63749524D01*
X249346857Y-63749524D01*
X250000000Y-63628571D02*
X250072572Y-63689048D01*
X250000000Y-63749524D01*
X249927429Y-63689048D01*
X250000000Y-63628571D01*
X250000000Y-63749524D01*
X250000000Y-62963333D02*
X250072572Y-63023810D01*
X250000000Y-63084286D01*
X249927429Y-63023810D01*
X250000000Y-62963333D01*
X250000000Y-63084286D01*
X251524000Y-63749524D02*
X250653143Y-63749524D01*
X251088571Y-63749524D02*
X251088571Y-62479524D01*
X250943428Y-62660952D01*
X250798286Y-62781905D01*
X250653143Y-62842381D01*
X252104572Y-62600476D02*
X252177143Y-62540000D01*
X252322286Y-62479524D01*
X252685143Y-62479524D01*
X252830286Y-62540000D01*
X252902857Y-62600476D01*
X252975429Y-62721429D01*
X252975429Y-62842381D01*
X252902857Y-63023810D01*
X252032000Y-63749524D01*
X252975429Y-63749524D01*
X228024571Y-25689048D02*
X228242285Y-25749524D01*
X228605142Y-25749524D01*
X228750285Y-25689048D01*
X228822856Y-25628571D01*
X228895428Y-25507619D01*
X228895428Y-25386667D01*
X228822856Y-25265714D01*
X228750285Y-25205238D01*
X228605142Y-25144762D01*
X228314856Y-25084286D01*
X228169714Y-25023810D01*
X228097142Y-24963333D01*
X228024571Y-24842381D01*
X228024571Y-24721429D01*
X228097142Y-24600476D01*
X228169714Y-24540000D01*
X228314856Y-24479524D01*
X228677714Y-24479524D01*
X228895428Y-24540000D01*
X230201714Y-24902857D02*
X230201714Y-25749524D01*
X229838857Y-24419048D02*
X229476000Y-25326190D01*
X230419428Y-25326190D01*
X231000000Y-25628571D02*
X231072572Y-25689048D01*
X231000000Y-25749524D01*
X230927429Y-25689048D01*
X231000000Y-25628571D01*
X231000000Y-25749524D01*
X231000000Y-24963333D02*
X231072572Y-25023810D01*
X231000000Y-25084286D01*
X230927429Y-25023810D01*
X231000000Y-24963333D01*
X231000000Y-25084286D01*
X232524000Y-25749524D02*
X231653143Y-25749524D01*
X232088571Y-25749524D02*
X232088571Y-24479524D01*
X231943428Y-24660952D01*
X231798286Y-24781905D01*
X231653143Y-24842381D01*
X233975429Y-25749524D02*
X233104572Y-25749524D01*
X233540000Y-25749524D02*
X233540000Y-24479524D01*
X233394857Y-24660952D01*
X233249715Y-24781905D01*
X233104572Y-24842381D01*
X114750286Y-63689048D02*
X114968000Y-63749524D01*
X115330857Y-63749524D01*
X115476000Y-63689048D01*
X115548571Y-63628571D01*
X115621143Y-63507619D01*
X115621143Y-63386667D01*
X115548571Y-63265714D01*
X115476000Y-63205238D01*
X115330857Y-63144762D01*
X115040571Y-63084286D01*
X114895429Y-63023810D01*
X114822857Y-62963333D01*
X114750286Y-62842381D01*
X114750286Y-62721429D01*
X114822857Y-62600476D01*
X114895429Y-62540000D01*
X115040571Y-62479524D01*
X115403429Y-62479524D01*
X115621143Y-62540000D01*
X116201715Y-62600476D02*
X116274286Y-62540000D01*
X116419429Y-62479524D01*
X116782286Y-62479524D01*
X116927429Y-62540000D01*
X117000000Y-62600476D01*
X117072572Y-62721429D01*
X117072572Y-62842381D01*
X117000000Y-63023810D01*
X116129143Y-63749524D01*
X117072572Y-63749524D01*
X117725715Y-63628571D02*
X117798287Y-63689048D01*
X117725715Y-63749524D01*
X117653144Y-63689048D01*
X117725715Y-63628571D01*
X117725715Y-63749524D01*
X117725715Y-62963333D02*
X117798287Y-63023810D01*
X117725715Y-63084286D01*
X117653144Y-63023810D01*
X117725715Y-62963333D01*
X117725715Y-63084286D01*
X119177143Y-62479524D02*
X118451429Y-62479524D01*
X118378858Y-63084286D01*
X118451429Y-63023810D01*
X118596572Y-62963333D01*
X118959429Y-62963333D01*
X119104572Y-63023810D01*
X119177143Y-63084286D01*
X119249715Y-63205238D01*
X119249715Y-63507619D01*
X119177143Y-63628571D01*
X119104572Y-63689048D01*
X118959429Y-63749524D01*
X118596572Y-63749524D01*
X118451429Y-63689048D01*
X118378858Y-63628571D01*
X114750286Y-25689048D02*
X114968000Y-25749524D01*
X115330857Y-25749524D01*
X115476000Y-25689048D01*
X115548571Y-25628571D01*
X115621143Y-25507619D01*
X115621143Y-25386667D01*
X115548571Y-25265714D01*
X115476000Y-25205238D01*
X115330857Y-25144762D01*
X115040571Y-25084286D01*
X114895429Y-25023810D01*
X114822857Y-24963333D01*
X114750286Y-24842381D01*
X114750286Y-24721429D01*
X114822857Y-24600476D01*
X114895429Y-24540000D01*
X115040571Y-24479524D01*
X115403429Y-24479524D01*
X115621143Y-24540000D01*
X116927429Y-24902857D02*
X116927429Y-25749524D01*
X116564572Y-24419048D02*
X116201715Y-25326190D01*
X117145143Y-25326190D01*
X117725715Y-25628571D02*
X117798287Y-25689048D01*
X117725715Y-25749524D01*
X117653144Y-25689048D01*
X117725715Y-25628571D01*
X117725715Y-25749524D01*
X117725715Y-24963333D02*
X117798287Y-25023810D01*
X117725715Y-25084286D01*
X117653144Y-25023810D01*
X117725715Y-24963333D01*
X117725715Y-25084286D01*
X119177143Y-24479524D02*
X118451429Y-24479524D01*
X118378858Y-25084286D01*
X118451429Y-25023810D01*
X118596572Y-24963333D01*
X118959429Y-24963333D01*
X119104572Y-25023810D01*
X119177143Y-25084286D01*
X119249715Y-25205238D01*
X119249715Y-25507619D01*
X119177143Y-25628571D01*
X119104572Y-25689048D01*
X118959429Y-25749524D01*
X118596572Y-25749524D01*
X118451429Y-25689048D01*
X118378858Y-25628571D01*
X114750286Y-82689048D02*
X114968000Y-82749524D01*
X115330857Y-82749524D01*
X115476000Y-82689048D01*
X115548571Y-82628571D01*
X115621143Y-82507619D01*
X115621143Y-82386667D01*
X115548571Y-82265714D01*
X115476000Y-82205238D01*
X115330857Y-82144762D01*
X115040571Y-82084286D01*
X114895429Y-82023810D01*
X114822857Y-81963333D01*
X114750286Y-81842381D01*
X114750286Y-81721429D01*
X114822857Y-81600476D01*
X114895429Y-81540000D01*
X115040571Y-81479524D01*
X115403429Y-81479524D01*
X115621143Y-81540000D01*
X117072572Y-82749524D02*
X116201715Y-82749524D01*
X116637143Y-82749524D02*
X116637143Y-81479524D01*
X116492000Y-81660952D01*
X116346858Y-81781905D01*
X116201715Y-81842381D01*
X117725715Y-82628571D02*
X117798287Y-82689048D01*
X117725715Y-82749524D01*
X117653144Y-82689048D01*
X117725715Y-82628571D01*
X117725715Y-82749524D01*
X117725715Y-81963333D02*
X117798287Y-82023810D01*
X117725715Y-82084286D01*
X117653144Y-82023810D01*
X117725715Y-81963333D01*
X117725715Y-82084286D01*
X119177143Y-81479524D02*
X118451429Y-81479524D01*
X118378858Y-82084286D01*
X118451429Y-82023810D01*
X118596572Y-81963333D01*
X118959429Y-81963333D01*
X119104572Y-82023810D01*
X119177143Y-82084286D01*
X119249715Y-82205238D01*
X119249715Y-82507619D01*
X119177143Y-82628571D01*
X119104572Y-82689048D01*
X118959429Y-82749524D01*
X118596572Y-82749524D01*
X118451429Y-82689048D01*
X118378858Y-82628571D01*
X114339048Y-100249714D02*
X114399524Y-100032000D01*
X114399524Y-99669143D01*
X114339048Y-99524000D01*
X114278571Y-99451429D01*
X114157619Y-99378857D01*
X114036667Y-99378857D01*
X113915714Y-99451429D01*
X113855238Y-99524000D01*
X113794762Y-99669143D01*
X113734286Y-99959429D01*
X113673810Y-100104571D01*
X113613333Y-100177143D01*
X113492381Y-100249714D01*
X113371429Y-100249714D01*
X113250476Y-100177143D01*
X113190000Y-100104571D01*
X113129524Y-99959429D01*
X113129524Y-99596571D01*
X113190000Y-99378857D01*
X113129524Y-98435428D02*
X113129524Y-98290285D01*
X113190000Y-98145142D01*
X113250476Y-98072571D01*
X113371429Y-98000000D01*
X113613333Y-97927428D01*
X113915714Y-97927428D01*
X114157619Y-98000000D01*
X114278571Y-98072571D01*
X114339048Y-98145142D01*
X114399524Y-98290285D01*
X114399524Y-98435428D01*
X114339048Y-98580571D01*
X114278571Y-98653142D01*
X114157619Y-98725714D01*
X113915714Y-98798285D01*
X113613333Y-98798285D01*
X113371429Y-98725714D01*
X113250476Y-98653142D01*
X113190000Y-98580571D01*
X113129524Y-98435428D01*
X114278571Y-97274285D02*
X114339048Y-97201713D01*
X114399524Y-97274285D01*
X114339048Y-97346856D01*
X114278571Y-97274285D01*
X114399524Y-97274285D01*
X113613333Y-97274285D02*
X113673810Y-97201713D01*
X113734286Y-97274285D01*
X113673810Y-97346856D01*
X113613333Y-97274285D01*
X113734286Y-97274285D01*
X113129524Y-95822857D02*
X113129524Y-96548571D01*
X113734286Y-96621142D01*
X113673810Y-96548571D01*
X113613333Y-96403428D01*
X113613333Y-96040571D01*
X113673810Y-95895428D01*
X113734286Y-95822857D01*
X113855238Y-95750285D01*
X114157619Y-95750285D01*
X114278571Y-95822857D01*
X114339048Y-95895428D01*
X114399524Y-96040571D01*
X114399524Y-96403428D01*
X114339048Y-96548571D01*
X114278571Y-96621142D01*
X114750286Y-44689048D02*
X114968000Y-44749524D01*
X115330857Y-44749524D01*
X115476000Y-44689048D01*
X115548571Y-44628571D01*
X115621143Y-44507619D01*
X115621143Y-44386667D01*
X115548571Y-44265714D01*
X115476000Y-44205238D01*
X115330857Y-44144762D01*
X115040571Y-44084286D01*
X114895429Y-44023810D01*
X114822857Y-43963333D01*
X114750286Y-43842381D01*
X114750286Y-43721429D01*
X114822857Y-43600476D01*
X114895429Y-43540000D01*
X115040571Y-43479524D01*
X115403429Y-43479524D01*
X115621143Y-43540000D01*
X116129143Y-43479524D02*
X117072572Y-43479524D01*
X116564572Y-43963333D01*
X116782286Y-43963333D01*
X116927429Y-44023810D01*
X117000000Y-44084286D01*
X117072572Y-44205238D01*
X117072572Y-44507619D01*
X117000000Y-44628571D01*
X116927429Y-44689048D01*
X116782286Y-44749524D01*
X116346858Y-44749524D01*
X116201715Y-44689048D01*
X116129143Y-44628571D01*
X117725715Y-44628571D02*
X117798287Y-44689048D01*
X117725715Y-44749524D01*
X117653144Y-44689048D01*
X117725715Y-44628571D01*
X117725715Y-44749524D01*
X117725715Y-43963333D02*
X117798287Y-44023810D01*
X117725715Y-44084286D01*
X117653144Y-44023810D01*
X117725715Y-43963333D01*
X117725715Y-44084286D01*
X119177143Y-43479524D02*
X118451429Y-43479524D01*
X118378858Y-44084286D01*
X118451429Y-44023810D01*
X118596572Y-43963333D01*
X118959429Y-43963333D01*
X119104572Y-44023810D01*
X119177143Y-44084286D01*
X119249715Y-44205238D01*
X119249715Y-44507619D01*
X119177143Y-44628571D01*
X119104572Y-44689048D01*
X118959429Y-44749524D01*
X118596572Y-44749524D01*
X118451429Y-44689048D01*
X118378858Y-44628571D01*
X133750286Y-44689048D02*
X133968000Y-44749524D01*
X134330857Y-44749524D01*
X134476000Y-44689048D01*
X134548571Y-44628571D01*
X134621143Y-44507619D01*
X134621143Y-44386667D01*
X134548571Y-44265714D01*
X134476000Y-44205238D01*
X134330857Y-44144762D01*
X134040571Y-44084286D01*
X133895429Y-44023810D01*
X133822857Y-43963333D01*
X133750286Y-43842381D01*
X133750286Y-43721429D01*
X133822857Y-43600476D01*
X133895429Y-43540000D01*
X134040571Y-43479524D01*
X134403429Y-43479524D01*
X134621143Y-43540000D01*
X135129143Y-43479524D02*
X136072572Y-43479524D01*
X135564572Y-43963333D01*
X135782286Y-43963333D01*
X135927429Y-44023810D01*
X136000000Y-44084286D01*
X136072572Y-44205238D01*
X136072572Y-44507619D01*
X136000000Y-44628571D01*
X135927429Y-44689048D01*
X135782286Y-44749524D01*
X135346858Y-44749524D01*
X135201715Y-44689048D01*
X135129143Y-44628571D01*
X136725715Y-44628571D02*
X136798287Y-44689048D01*
X136725715Y-44749524D01*
X136653144Y-44689048D01*
X136725715Y-44628571D01*
X136725715Y-44749524D01*
X136725715Y-43963333D02*
X136798287Y-44023810D01*
X136725715Y-44084286D01*
X136653144Y-44023810D01*
X136725715Y-43963333D01*
X136725715Y-44084286D01*
X138104572Y-43479524D02*
X137814286Y-43479524D01*
X137669143Y-43540000D01*
X137596572Y-43600476D01*
X137451429Y-43781905D01*
X137378858Y-44023810D01*
X137378858Y-44507619D01*
X137451429Y-44628571D01*
X137524001Y-44689048D01*
X137669143Y-44749524D01*
X137959429Y-44749524D01*
X138104572Y-44689048D01*
X138177143Y-44628571D01*
X138249715Y-44507619D01*
X138249715Y-44205238D01*
X138177143Y-44084286D01*
X138104572Y-44023810D01*
X137959429Y-43963333D01*
X137669143Y-43963333D01*
X137524001Y-44023810D01*
X137451429Y-44084286D01*
X137378858Y-44205238D01*
X133750286Y-101689048D02*
X133968000Y-101749524D01*
X134330857Y-101749524D01*
X134476000Y-101689048D01*
X134548571Y-101628571D01*
X134621143Y-101507619D01*
X134621143Y-101386667D01*
X134548571Y-101265714D01*
X134476000Y-101205238D01*
X134330857Y-101144762D01*
X134040571Y-101084286D01*
X133895429Y-101023810D01*
X133822857Y-100963333D01*
X133750286Y-100842381D01*
X133750286Y-100721429D01*
X133822857Y-100600476D01*
X133895429Y-100540000D01*
X134040571Y-100479524D01*
X134403429Y-100479524D01*
X134621143Y-100540000D01*
X135564572Y-100479524D02*
X135709715Y-100479524D01*
X135854858Y-100540000D01*
X135927429Y-100600476D01*
X136000000Y-100721429D01*
X136072572Y-100963333D01*
X136072572Y-101265714D01*
X136000000Y-101507619D01*
X135927429Y-101628571D01*
X135854858Y-101689048D01*
X135709715Y-101749524D01*
X135564572Y-101749524D01*
X135419429Y-101689048D01*
X135346858Y-101628571D01*
X135274286Y-101507619D01*
X135201715Y-101265714D01*
X135201715Y-100963333D01*
X135274286Y-100721429D01*
X135346858Y-100600476D01*
X135419429Y-100540000D01*
X135564572Y-100479524D01*
X136725715Y-101628571D02*
X136798287Y-101689048D01*
X136725715Y-101749524D01*
X136653144Y-101689048D01*
X136725715Y-101628571D01*
X136725715Y-101749524D01*
X136725715Y-100963333D02*
X136798287Y-101023810D01*
X136725715Y-101084286D01*
X136653144Y-101023810D01*
X136725715Y-100963333D01*
X136725715Y-101084286D01*
X138104572Y-100479524D02*
X137814286Y-100479524D01*
X137669143Y-100540000D01*
X137596572Y-100600476D01*
X137451429Y-100781905D01*
X137378858Y-101023810D01*
X137378858Y-101507619D01*
X137451429Y-101628571D01*
X137524001Y-101689048D01*
X137669143Y-101749524D01*
X137959429Y-101749524D01*
X138104572Y-101689048D01*
X138177143Y-101628571D01*
X138249715Y-101507619D01*
X138249715Y-101205238D01*
X138177143Y-101084286D01*
X138104572Y-101023810D01*
X137959429Y-100963333D01*
X137669143Y-100963333D01*
X137524001Y-101023810D01*
X137451429Y-101084286D01*
X137378858Y-101205238D01*
X133750286Y-82689048D02*
X133968000Y-82749524D01*
X134330857Y-82749524D01*
X134476000Y-82689048D01*
X134548571Y-82628571D01*
X134621143Y-82507619D01*
X134621143Y-82386667D01*
X134548571Y-82265714D01*
X134476000Y-82205238D01*
X134330857Y-82144762D01*
X134040571Y-82084286D01*
X133895429Y-82023810D01*
X133822857Y-81963333D01*
X133750286Y-81842381D01*
X133750286Y-81721429D01*
X133822857Y-81600476D01*
X133895429Y-81540000D01*
X134040571Y-81479524D01*
X134403429Y-81479524D01*
X134621143Y-81540000D01*
X136072572Y-82749524D02*
X135201715Y-82749524D01*
X135637143Y-82749524D02*
X135637143Y-81479524D01*
X135492000Y-81660952D01*
X135346858Y-81781905D01*
X135201715Y-81842381D01*
X136725715Y-82628571D02*
X136798287Y-82689048D01*
X136725715Y-82749524D01*
X136653144Y-82689048D01*
X136725715Y-82628571D01*
X136725715Y-82749524D01*
X136725715Y-81963333D02*
X136798287Y-82023810D01*
X136725715Y-82084286D01*
X136653144Y-82023810D01*
X136725715Y-81963333D01*
X136725715Y-82084286D01*
X138104572Y-81479524D02*
X137814286Y-81479524D01*
X137669143Y-81540000D01*
X137596572Y-81600476D01*
X137451429Y-81781905D01*
X137378858Y-82023810D01*
X137378858Y-82507619D01*
X137451429Y-82628571D01*
X137524001Y-82689048D01*
X137669143Y-82749524D01*
X137959429Y-82749524D01*
X138104572Y-82689048D01*
X138177143Y-82628571D01*
X138249715Y-82507619D01*
X138249715Y-82205238D01*
X138177143Y-82084286D01*
X138104572Y-82023810D01*
X137959429Y-81963333D01*
X137669143Y-81963333D01*
X137524001Y-82023810D01*
X137451429Y-82084286D01*
X137378858Y-82205238D01*
X152750286Y-25689048D02*
X152968000Y-25749524D01*
X153330857Y-25749524D01*
X153476000Y-25689048D01*
X153548571Y-25628571D01*
X153621143Y-25507619D01*
X153621143Y-25386667D01*
X153548571Y-25265714D01*
X153476000Y-25205238D01*
X153330857Y-25144762D01*
X153040571Y-25084286D01*
X152895429Y-25023810D01*
X152822857Y-24963333D01*
X152750286Y-24842381D01*
X152750286Y-24721429D01*
X152822857Y-24600476D01*
X152895429Y-24540000D01*
X153040571Y-24479524D01*
X153403429Y-24479524D01*
X153621143Y-24540000D01*
X154927429Y-24902857D02*
X154927429Y-25749524D01*
X154564572Y-24419048D02*
X154201715Y-25326190D01*
X155145143Y-25326190D01*
X155725715Y-25628571D02*
X155798287Y-25689048D01*
X155725715Y-25749524D01*
X155653144Y-25689048D01*
X155725715Y-25628571D01*
X155725715Y-25749524D01*
X155725715Y-24963333D02*
X155798287Y-25023810D01*
X155725715Y-25084286D01*
X155653144Y-25023810D01*
X155725715Y-24963333D01*
X155725715Y-25084286D01*
X156306286Y-24479524D02*
X157322286Y-24479524D01*
X156669143Y-25749524D01*
X133750286Y-25689048D02*
X133968000Y-25749524D01*
X134330857Y-25749524D01*
X134476000Y-25689048D01*
X134548571Y-25628571D01*
X134621143Y-25507619D01*
X134621143Y-25386667D01*
X134548571Y-25265714D01*
X134476000Y-25205238D01*
X134330857Y-25144762D01*
X134040571Y-25084286D01*
X133895429Y-25023810D01*
X133822857Y-24963333D01*
X133750286Y-24842381D01*
X133750286Y-24721429D01*
X133822857Y-24600476D01*
X133895429Y-24540000D01*
X134040571Y-24479524D01*
X134403429Y-24479524D01*
X134621143Y-24540000D01*
X135927429Y-24902857D02*
X135927429Y-25749524D01*
X135564572Y-24419048D02*
X135201715Y-25326190D01*
X136145143Y-25326190D01*
X136725715Y-25628571D02*
X136798287Y-25689048D01*
X136725715Y-25749524D01*
X136653144Y-25689048D01*
X136725715Y-25628571D01*
X136725715Y-25749524D01*
X136725715Y-24963333D02*
X136798287Y-25023810D01*
X136725715Y-25084286D01*
X136653144Y-25023810D01*
X136725715Y-24963333D01*
X136725715Y-25084286D01*
X138104572Y-24479524D02*
X137814286Y-24479524D01*
X137669143Y-24540000D01*
X137596572Y-24600476D01*
X137451429Y-24781905D01*
X137378858Y-25023810D01*
X137378858Y-25507619D01*
X137451429Y-25628571D01*
X137524001Y-25689048D01*
X137669143Y-25749524D01*
X137959429Y-25749524D01*
X138104572Y-25689048D01*
X138177143Y-25628571D01*
X138249715Y-25507619D01*
X138249715Y-25205238D01*
X138177143Y-25084286D01*
X138104572Y-25023810D01*
X137959429Y-24963333D01*
X137669143Y-24963333D01*
X137524001Y-25023810D01*
X137451429Y-25084286D01*
X137378858Y-25205238D01*
X152750286Y-44689048D02*
X152968000Y-44749524D01*
X153330857Y-44749524D01*
X153476000Y-44689048D01*
X153548571Y-44628571D01*
X153621143Y-44507619D01*
X153621143Y-44386667D01*
X153548571Y-44265714D01*
X153476000Y-44205238D01*
X153330857Y-44144762D01*
X153040571Y-44084286D01*
X152895429Y-44023810D01*
X152822857Y-43963333D01*
X152750286Y-43842381D01*
X152750286Y-43721429D01*
X152822857Y-43600476D01*
X152895429Y-43540000D01*
X153040571Y-43479524D01*
X153403429Y-43479524D01*
X153621143Y-43540000D01*
X154129143Y-43479524D02*
X155072572Y-43479524D01*
X154564572Y-43963333D01*
X154782286Y-43963333D01*
X154927429Y-44023810D01*
X155000000Y-44084286D01*
X155072572Y-44205238D01*
X155072572Y-44507619D01*
X155000000Y-44628571D01*
X154927429Y-44689048D01*
X154782286Y-44749524D01*
X154346858Y-44749524D01*
X154201715Y-44689048D01*
X154129143Y-44628571D01*
X155725715Y-44628571D02*
X155798287Y-44689048D01*
X155725715Y-44749524D01*
X155653144Y-44689048D01*
X155725715Y-44628571D01*
X155725715Y-44749524D01*
X155725715Y-43963333D02*
X155798287Y-44023810D01*
X155725715Y-44084286D01*
X155653144Y-44023810D01*
X155725715Y-43963333D01*
X155725715Y-44084286D01*
X156306286Y-43479524D02*
X157322286Y-43479524D01*
X156669143Y-44749524D01*
X133750286Y-63689048D02*
X133968000Y-63749524D01*
X134330857Y-63749524D01*
X134476000Y-63689048D01*
X134548571Y-63628571D01*
X134621143Y-63507619D01*
X134621143Y-63386667D01*
X134548571Y-63265714D01*
X134476000Y-63205238D01*
X134330857Y-63144762D01*
X134040571Y-63084286D01*
X133895429Y-63023810D01*
X133822857Y-62963333D01*
X133750286Y-62842381D01*
X133750286Y-62721429D01*
X133822857Y-62600476D01*
X133895429Y-62540000D01*
X134040571Y-62479524D01*
X134403429Y-62479524D01*
X134621143Y-62540000D01*
X135201715Y-62600476D02*
X135274286Y-62540000D01*
X135419429Y-62479524D01*
X135782286Y-62479524D01*
X135927429Y-62540000D01*
X136000000Y-62600476D01*
X136072572Y-62721429D01*
X136072572Y-62842381D01*
X136000000Y-63023810D01*
X135129143Y-63749524D01*
X136072572Y-63749524D01*
X136725715Y-63628571D02*
X136798287Y-63689048D01*
X136725715Y-63749524D01*
X136653144Y-63689048D01*
X136725715Y-63628571D01*
X136725715Y-63749524D01*
X136725715Y-62963333D02*
X136798287Y-63023810D01*
X136725715Y-63084286D01*
X136653144Y-63023810D01*
X136725715Y-62963333D01*
X136725715Y-63084286D01*
X138104572Y-62479524D02*
X137814286Y-62479524D01*
X137669143Y-62540000D01*
X137596572Y-62600476D01*
X137451429Y-62781905D01*
X137378858Y-63023810D01*
X137378858Y-63507619D01*
X137451429Y-63628571D01*
X137524001Y-63689048D01*
X137669143Y-63749524D01*
X137959429Y-63749524D01*
X138104572Y-63689048D01*
X138177143Y-63628571D01*
X138249715Y-63507619D01*
X138249715Y-63205238D01*
X138177143Y-63084286D01*
X138104572Y-63023810D01*
X137959429Y-62963333D01*
X137669143Y-62963333D01*
X137524001Y-63023810D01*
X137451429Y-63084286D01*
X137378858Y-63205238D01*
X171750286Y-44689048D02*
X171968000Y-44749524D01*
X172330857Y-44749524D01*
X172476000Y-44689048D01*
X172548571Y-44628571D01*
X172621143Y-44507619D01*
X172621143Y-44386667D01*
X172548571Y-44265714D01*
X172476000Y-44205238D01*
X172330857Y-44144762D01*
X172040571Y-44084286D01*
X171895429Y-44023810D01*
X171822857Y-43963333D01*
X171750286Y-43842381D01*
X171750286Y-43721429D01*
X171822857Y-43600476D01*
X171895429Y-43540000D01*
X172040571Y-43479524D01*
X172403429Y-43479524D01*
X172621143Y-43540000D01*
X173129143Y-43479524D02*
X174072572Y-43479524D01*
X173564572Y-43963333D01*
X173782286Y-43963333D01*
X173927429Y-44023810D01*
X174000000Y-44084286D01*
X174072572Y-44205238D01*
X174072572Y-44507619D01*
X174000000Y-44628571D01*
X173927429Y-44689048D01*
X173782286Y-44749524D01*
X173346858Y-44749524D01*
X173201715Y-44689048D01*
X173129143Y-44628571D01*
X174725715Y-44628571D02*
X174798287Y-44689048D01*
X174725715Y-44749524D01*
X174653144Y-44689048D01*
X174725715Y-44628571D01*
X174725715Y-44749524D01*
X174725715Y-43963333D02*
X174798287Y-44023810D01*
X174725715Y-44084286D01*
X174653144Y-44023810D01*
X174725715Y-43963333D01*
X174725715Y-44084286D01*
X175669143Y-44023810D02*
X175524001Y-43963333D01*
X175451429Y-43902857D01*
X175378858Y-43781905D01*
X175378858Y-43721429D01*
X175451429Y-43600476D01*
X175524001Y-43540000D01*
X175669143Y-43479524D01*
X175959429Y-43479524D01*
X176104572Y-43540000D01*
X176177143Y-43600476D01*
X176249715Y-43721429D01*
X176249715Y-43781905D01*
X176177143Y-43902857D01*
X176104572Y-43963333D01*
X175959429Y-44023810D01*
X175669143Y-44023810D01*
X175524001Y-44084286D01*
X175451429Y-44144762D01*
X175378858Y-44265714D01*
X175378858Y-44507619D01*
X175451429Y-44628571D01*
X175524001Y-44689048D01*
X175669143Y-44749524D01*
X175959429Y-44749524D01*
X176104572Y-44689048D01*
X176177143Y-44628571D01*
X176249715Y-44507619D01*
X176249715Y-44265714D01*
X176177143Y-44144762D01*
X176104572Y-44084286D01*
X175959429Y-44023810D01*
X171750286Y-25689048D02*
X171968000Y-25749524D01*
X172330857Y-25749524D01*
X172476000Y-25689048D01*
X172548571Y-25628571D01*
X172621143Y-25507619D01*
X172621143Y-25386667D01*
X172548571Y-25265714D01*
X172476000Y-25205238D01*
X172330857Y-25144762D01*
X172040571Y-25084286D01*
X171895429Y-25023810D01*
X171822857Y-24963333D01*
X171750286Y-24842381D01*
X171750286Y-24721429D01*
X171822857Y-24600476D01*
X171895429Y-24540000D01*
X172040571Y-24479524D01*
X172403429Y-24479524D01*
X172621143Y-24540000D01*
X173927429Y-24902857D02*
X173927429Y-25749524D01*
X173564572Y-24419048D02*
X173201715Y-25326190D01*
X174145143Y-25326190D01*
X174725715Y-25628571D02*
X174798287Y-25689048D01*
X174725715Y-25749524D01*
X174653144Y-25689048D01*
X174725715Y-25628571D01*
X174725715Y-25749524D01*
X174725715Y-24963333D02*
X174798287Y-25023810D01*
X174725715Y-25084286D01*
X174653144Y-25023810D01*
X174725715Y-24963333D01*
X174725715Y-25084286D01*
X175669143Y-25023810D02*
X175524001Y-24963333D01*
X175451429Y-24902857D01*
X175378858Y-24781905D01*
X175378858Y-24721429D01*
X175451429Y-24600476D01*
X175524001Y-24540000D01*
X175669143Y-24479524D01*
X175959429Y-24479524D01*
X176104572Y-24540000D01*
X176177143Y-24600476D01*
X176249715Y-24721429D01*
X176249715Y-24781905D01*
X176177143Y-24902857D01*
X176104572Y-24963333D01*
X175959429Y-25023810D01*
X175669143Y-25023810D01*
X175524001Y-25084286D01*
X175451429Y-25144762D01*
X175378858Y-25265714D01*
X175378858Y-25507619D01*
X175451429Y-25628571D01*
X175524001Y-25689048D01*
X175669143Y-25749524D01*
X175959429Y-25749524D01*
X176104572Y-25689048D01*
X176177143Y-25628571D01*
X176249715Y-25507619D01*
X176249715Y-25265714D01*
X176177143Y-25144762D01*
X176104572Y-25084286D01*
X175959429Y-25023810D01*
X190750286Y-44689048D02*
X190968000Y-44749524D01*
X191330857Y-44749524D01*
X191476000Y-44689048D01*
X191548571Y-44628571D01*
X191621143Y-44507619D01*
X191621143Y-44386667D01*
X191548571Y-44265714D01*
X191476000Y-44205238D01*
X191330857Y-44144762D01*
X191040571Y-44084286D01*
X190895429Y-44023810D01*
X190822857Y-43963333D01*
X190750286Y-43842381D01*
X190750286Y-43721429D01*
X190822857Y-43600476D01*
X190895429Y-43540000D01*
X191040571Y-43479524D01*
X191403429Y-43479524D01*
X191621143Y-43540000D01*
X192129143Y-43479524D02*
X193072572Y-43479524D01*
X192564572Y-43963333D01*
X192782286Y-43963333D01*
X192927429Y-44023810D01*
X193000000Y-44084286D01*
X193072572Y-44205238D01*
X193072572Y-44507619D01*
X193000000Y-44628571D01*
X192927429Y-44689048D01*
X192782286Y-44749524D01*
X192346858Y-44749524D01*
X192201715Y-44689048D01*
X192129143Y-44628571D01*
X193725715Y-44628571D02*
X193798287Y-44689048D01*
X193725715Y-44749524D01*
X193653144Y-44689048D01*
X193725715Y-44628571D01*
X193725715Y-44749524D01*
X193725715Y-43963333D02*
X193798287Y-44023810D01*
X193725715Y-44084286D01*
X193653144Y-44023810D01*
X193725715Y-43963333D01*
X193725715Y-44084286D01*
X194524001Y-44749524D02*
X194814286Y-44749524D01*
X194959429Y-44689048D01*
X195032001Y-44628571D01*
X195177143Y-44447143D01*
X195249715Y-44205238D01*
X195249715Y-43721429D01*
X195177143Y-43600476D01*
X195104572Y-43540000D01*
X194959429Y-43479524D01*
X194669143Y-43479524D01*
X194524001Y-43540000D01*
X194451429Y-43600476D01*
X194378858Y-43721429D01*
X194378858Y-44023810D01*
X194451429Y-44144762D01*
X194524001Y-44205238D01*
X194669143Y-44265714D01*
X194959429Y-44265714D01*
X195104572Y-44205238D01*
X195177143Y-44144762D01*
X195249715Y-44023810D01*
X190750286Y-25689048D02*
X190968000Y-25749524D01*
X191330857Y-25749524D01*
X191476000Y-25689048D01*
X191548571Y-25628571D01*
X191621143Y-25507619D01*
X191621143Y-25386667D01*
X191548571Y-25265714D01*
X191476000Y-25205238D01*
X191330857Y-25144762D01*
X191040571Y-25084286D01*
X190895429Y-25023810D01*
X190822857Y-24963333D01*
X190750286Y-24842381D01*
X190750286Y-24721429D01*
X190822857Y-24600476D01*
X190895429Y-24540000D01*
X191040571Y-24479524D01*
X191403429Y-24479524D01*
X191621143Y-24540000D01*
X192927429Y-24902857D02*
X192927429Y-25749524D01*
X192564572Y-24419048D02*
X192201715Y-25326190D01*
X193145143Y-25326190D01*
X193725715Y-25628571D02*
X193798287Y-25689048D01*
X193725715Y-25749524D01*
X193653144Y-25689048D01*
X193725715Y-25628571D01*
X193725715Y-25749524D01*
X193725715Y-24963333D02*
X193798287Y-25023810D01*
X193725715Y-25084286D01*
X193653144Y-25023810D01*
X193725715Y-24963333D01*
X193725715Y-25084286D01*
X194524001Y-25749524D02*
X194814286Y-25749524D01*
X194959429Y-25689048D01*
X195032001Y-25628571D01*
X195177143Y-25447143D01*
X195249715Y-25205238D01*
X195249715Y-24721429D01*
X195177143Y-24600476D01*
X195104572Y-24540000D01*
X194959429Y-24479524D01*
X194669143Y-24479524D01*
X194524001Y-24540000D01*
X194451429Y-24600476D01*
X194378858Y-24721429D01*
X194378858Y-25023810D01*
X194451429Y-25144762D01*
X194524001Y-25205238D01*
X194669143Y-25265714D01*
X194959429Y-25265714D01*
X195104572Y-25205238D01*
X195177143Y-25144762D01*
X195249715Y-25023810D01*
X209024571Y-25689048D02*
X209242285Y-25749524D01*
X209605142Y-25749524D01*
X209750285Y-25689048D01*
X209822856Y-25628571D01*
X209895428Y-25507619D01*
X209895428Y-25386667D01*
X209822856Y-25265714D01*
X209750285Y-25205238D01*
X209605142Y-25144762D01*
X209314856Y-25084286D01*
X209169714Y-25023810D01*
X209097142Y-24963333D01*
X209024571Y-24842381D01*
X209024571Y-24721429D01*
X209097142Y-24600476D01*
X209169714Y-24540000D01*
X209314856Y-24479524D01*
X209677714Y-24479524D01*
X209895428Y-24540000D01*
X211201714Y-24902857D02*
X211201714Y-25749524D01*
X210838857Y-24419048D02*
X210476000Y-25326190D01*
X211419428Y-25326190D01*
X212000000Y-25628571D02*
X212072572Y-25689048D01*
X212000000Y-25749524D01*
X211927429Y-25689048D01*
X212000000Y-25628571D01*
X212000000Y-25749524D01*
X212000000Y-24963333D02*
X212072572Y-25023810D01*
X212000000Y-25084286D01*
X211927429Y-25023810D01*
X212000000Y-24963333D01*
X212000000Y-25084286D01*
X213524000Y-25749524D02*
X212653143Y-25749524D01*
X213088571Y-25749524D02*
X213088571Y-24479524D01*
X212943428Y-24660952D01*
X212798286Y-24781905D01*
X212653143Y-24842381D01*
X214467429Y-24479524D02*
X214612572Y-24479524D01*
X214757715Y-24540000D01*
X214830286Y-24600476D01*
X214902857Y-24721429D01*
X214975429Y-24963333D01*
X214975429Y-25265714D01*
X214902857Y-25507619D01*
X214830286Y-25628571D01*
X214757715Y-25689048D01*
X214612572Y-25749524D01*
X214467429Y-25749524D01*
X214322286Y-25689048D01*
X214249715Y-25628571D01*
X214177143Y-25507619D01*
X214104572Y-25265714D01*
X214104572Y-24963333D01*
X214177143Y-24721429D01*
X214249715Y-24600476D01*
X214322286Y-24540000D01*
X214467429Y-24479524D01*
X209024571Y-82689048D02*
X209242285Y-82749524D01*
X209605142Y-82749524D01*
X209750285Y-82689048D01*
X209822856Y-82628571D01*
X209895428Y-82507619D01*
X209895428Y-82386667D01*
X209822856Y-82265714D01*
X209750285Y-82205238D01*
X209605142Y-82144762D01*
X209314856Y-82084286D01*
X209169714Y-82023810D01*
X209097142Y-81963333D01*
X209024571Y-81842381D01*
X209024571Y-81721429D01*
X209097142Y-81600476D01*
X209169714Y-81540000D01*
X209314856Y-81479524D01*
X209677714Y-81479524D01*
X209895428Y-81540000D01*
X211346857Y-82749524D02*
X210476000Y-82749524D01*
X210911428Y-82749524D02*
X210911428Y-81479524D01*
X210766285Y-81660952D01*
X210621143Y-81781905D01*
X210476000Y-81842381D01*
X212000000Y-82628571D02*
X212072572Y-82689048D01*
X212000000Y-82749524D01*
X211927429Y-82689048D01*
X212000000Y-82628571D01*
X212000000Y-82749524D01*
X212000000Y-81963333D02*
X212072572Y-82023810D01*
X212000000Y-82084286D01*
X211927429Y-82023810D01*
X212000000Y-81963333D01*
X212000000Y-82084286D01*
X213524000Y-82749524D02*
X212653143Y-82749524D01*
X213088571Y-82749524D02*
X213088571Y-81479524D01*
X212943428Y-81660952D01*
X212798286Y-81781905D01*
X212653143Y-81842381D01*
X214467429Y-81479524D02*
X214612572Y-81479524D01*
X214757715Y-81540000D01*
X214830286Y-81600476D01*
X214902857Y-81721429D01*
X214975429Y-81963333D01*
X214975429Y-82265714D01*
X214902857Y-82507619D01*
X214830286Y-82628571D01*
X214757715Y-82689048D01*
X214612572Y-82749524D01*
X214467429Y-82749524D01*
X214322286Y-82689048D01*
X214249715Y-82628571D01*
X214177143Y-82507619D01*
X214104572Y-82265714D01*
X214104572Y-81963333D01*
X214177143Y-81721429D01*
X214249715Y-81600476D01*
X214322286Y-81540000D01*
X214467429Y-81479524D01*
X209024571Y-101689048D02*
X209242285Y-101749524D01*
X209605142Y-101749524D01*
X209750285Y-101689048D01*
X209822856Y-101628571D01*
X209895428Y-101507619D01*
X209895428Y-101386667D01*
X209822856Y-101265714D01*
X209750285Y-101205238D01*
X209605142Y-101144762D01*
X209314856Y-101084286D01*
X209169714Y-101023810D01*
X209097142Y-100963333D01*
X209024571Y-100842381D01*
X209024571Y-100721429D01*
X209097142Y-100600476D01*
X209169714Y-100540000D01*
X209314856Y-100479524D01*
X209677714Y-100479524D01*
X209895428Y-100540000D01*
X210838857Y-100479524D02*
X210984000Y-100479524D01*
X211129143Y-100540000D01*
X211201714Y-100600476D01*
X211274285Y-100721429D01*
X211346857Y-100963333D01*
X211346857Y-101265714D01*
X211274285Y-101507619D01*
X211201714Y-101628571D01*
X211129143Y-101689048D01*
X210984000Y-101749524D01*
X210838857Y-101749524D01*
X210693714Y-101689048D01*
X210621143Y-101628571D01*
X210548571Y-101507619D01*
X210476000Y-101265714D01*
X210476000Y-100963333D01*
X210548571Y-100721429D01*
X210621143Y-100600476D01*
X210693714Y-100540000D01*
X210838857Y-100479524D01*
X212000000Y-101628571D02*
X212072572Y-101689048D01*
X212000000Y-101749524D01*
X211927429Y-101689048D01*
X212000000Y-101628571D01*
X212000000Y-101749524D01*
X212000000Y-100963333D02*
X212072572Y-101023810D01*
X212000000Y-101084286D01*
X211927429Y-101023810D01*
X212000000Y-100963333D01*
X212000000Y-101084286D01*
X213524000Y-101749524D02*
X212653143Y-101749524D01*
X213088571Y-101749524D02*
X213088571Y-100479524D01*
X212943428Y-100660952D01*
X212798286Y-100781905D01*
X212653143Y-100842381D01*
X214467429Y-100479524D02*
X214612572Y-100479524D01*
X214757715Y-100540000D01*
X214830286Y-100600476D01*
X214902857Y-100721429D01*
X214975429Y-100963333D01*
X214975429Y-101265714D01*
X214902857Y-101507619D01*
X214830286Y-101628571D01*
X214757715Y-101689048D01*
X214612572Y-101749524D01*
X214467429Y-101749524D01*
X214322286Y-101689048D01*
X214249715Y-101628571D01*
X214177143Y-101507619D01*
X214104572Y-101265714D01*
X214104572Y-100963333D01*
X214177143Y-100721429D01*
X214249715Y-100600476D01*
X214322286Y-100540000D01*
X214467429Y-100479524D01*
X209024571Y-44689048D02*
X209242285Y-44749524D01*
X209605142Y-44749524D01*
X209750285Y-44689048D01*
X209822856Y-44628571D01*
X209895428Y-44507619D01*
X209895428Y-44386667D01*
X209822856Y-44265714D01*
X209750285Y-44205238D01*
X209605142Y-44144762D01*
X209314856Y-44084286D01*
X209169714Y-44023810D01*
X209097142Y-43963333D01*
X209024571Y-43842381D01*
X209024571Y-43721429D01*
X209097142Y-43600476D01*
X209169714Y-43540000D01*
X209314856Y-43479524D01*
X209677714Y-43479524D01*
X209895428Y-43540000D01*
X210403428Y-43479524D02*
X211346857Y-43479524D01*
X210838857Y-43963333D01*
X211056571Y-43963333D01*
X211201714Y-44023810D01*
X211274285Y-44084286D01*
X211346857Y-44205238D01*
X211346857Y-44507619D01*
X211274285Y-44628571D01*
X211201714Y-44689048D01*
X211056571Y-44749524D01*
X210621143Y-44749524D01*
X210476000Y-44689048D01*
X210403428Y-44628571D01*
X212000000Y-44628571D02*
X212072572Y-44689048D01*
X212000000Y-44749524D01*
X211927429Y-44689048D01*
X212000000Y-44628571D01*
X212000000Y-44749524D01*
X212000000Y-43963333D02*
X212072572Y-44023810D01*
X212000000Y-44084286D01*
X211927429Y-44023810D01*
X212000000Y-43963333D01*
X212000000Y-44084286D01*
X213524000Y-44749524D02*
X212653143Y-44749524D01*
X213088571Y-44749524D02*
X213088571Y-43479524D01*
X212943428Y-43660952D01*
X212798286Y-43781905D01*
X212653143Y-43842381D01*
X214467429Y-43479524D02*
X214612572Y-43479524D01*
X214757715Y-43540000D01*
X214830286Y-43600476D01*
X214902857Y-43721429D01*
X214975429Y-43963333D01*
X214975429Y-44265714D01*
X214902857Y-44507619D01*
X214830286Y-44628571D01*
X214757715Y-44689048D01*
X214612572Y-44749524D01*
X214467429Y-44749524D01*
X214322286Y-44689048D01*
X214249715Y-44628571D01*
X214177143Y-44507619D01*
X214104572Y-44265714D01*
X214104572Y-43963333D01*
X214177143Y-43721429D01*
X214249715Y-43600476D01*
X214322286Y-43540000D01*
X214467429Y-43479524D01*
X152750286Y-63689048D02*
X152968000Y-63749524D01*
X153330857Y-63749524D01*
X153476000Y-63689048D01*
X153548571Y-63628571D01*
X153621143Y-63507619D01*
X153621143Y-63386667D01*
X153548571Y-63265714D01*
X153476000Y-63205238D01*
X153330857Y-63144762D01*
X153040571Y-63084286D01*
X152895429Y-63023810D01*
X152822857Y-62963333D01*
X152750286Y-62842381D01*
X152750286Y-62721429D01*
X152822857Y-62600476D01*
X152895429Y-62540000D01*
X153040571Y-62479524D01*
X153403429Y-62479524D01*
X153621143Y-62540000D01*
X154201715Y-62600476D02*
X154274286Y-62540000D01*
X154419429Y-62479524D01*
X154782286Y-62479524D01*
X154927429Y-62540000D01*
X155000000Y-62600476D01*
X155072572Y-62721429D01*
X155072572Y-62842381D01*
X155000000Y-63023810D01*
X154129143Y-63749524D01*
X155072572Y-63749524D01*
X155725715Y-63628571D02*
X155798287Y-63689048D01*
X155725715Y-63749524D01*
X155653144Y-63689048D01*
X155725715Y-63628571D01*
X155725715Y-63749524D01*
X155725715Y-62963333D02*
X155798287Y-63023810D01*
X155725715Y-63084286D01*
X155653144Y-63023810D01*
X155725715Y-62963333D01*
X155725715Y-63084286D01*
X156306286Y-62479524D02*
X157322286Y-62479524D01*
X156669143Y-63749524D01*
X152750286Y-82689048D02*
X152968000Y-82749524D01*
X153330857Y-82749524D01*
X153476000Y-82689048D01*
X153548571Y-82628571D01*
X153621143Y-82507619D01*
X153621143Y-82386667D01*
X153548571Y-82265714D01*
X153476000Y-82205238D01*
X153330857Y-82144762D01*
X153040571Y-82084286D01*
X152895429Y-82023810D01*
X152822857Y-81963333D01*
X152750286Y-81842381D01*
X152750286Y-81721429D01*
X152822857Y-81600476D01*
X152895429Y-81540000D01*
X153040571Y-81479524D01*
X153403429Y-81479524D01*
X153621143Y-81540000D01*
X155072572Y-82749524D02*
X154201715Y-82749524D01*
X154637143Y-82749524D02*
X154637143Y-81479524D01*
X154492000Y-81660952D01*
X154346858Y-81781905D01*
X154201715Y-81842381D01*
X155725715Y-82628571D02*
X155798287Y-82689048D01*
X155725715Y-82749524D01*
X155653144Y-82689048D01*
X155725715Y-82628571D01*
X155725715Y-82749524D01*
X155725715Y-81963333D02*
X155798287Y-82023810D01*
X155725715Y-82084286D01*
X155653144Y-82023810D01*
X155725715Y-81963333D01*
X155725715Y-82084286D01*
X156306286Y-81479524D02*
X157322286Y-81479524D01*
X156669143Y-82749524D01*
X152750286Y-101689048D02*
X152968000Y-101749524D01*
X153330857Y-101749524D01*
X153476000Y-101689048D01*
X153548571Y-101628571D01*
X153621143Y-101507619D01*
X153621143Y-101386667D01*
X153548571Y-101265714D01*
X153476000Y-101205238D01*
X153330857Y-101144762D01*
X153040571Y-101084286D01*
X152895429Y-101023810D01*
X152822857Y-100963333D01*
X152750286Y-100842381D01*
X152750286Y-100721429D01*
X152822857Y-100600476D01*
X152895429Y-100540000D01*
X153040571Y-100479524D01*
X153403429Y-100479524D01*
X153621143Y-100540000D01*
X154564572Y-100479524D02*
X154709715Y-100479524D01*
X154854858Y-100540000D01*
X154927429Y-100600476D01*
X155000000Y-100721429D01*
X155072572Y-100963333D01*
X155072572Y-101265714D01*
X155000000Y-101507619D01*
X154927429Y-101628571D01*
X154854858Y-101689048D01*
X154709715Y-101749524D01*
X154564572Y-101749524D01*
X154419429Y-101689048D01*
X154346858Y-101628571D01*
X154274286Y-101507619D01*
X154201715Y-101265714D01*
X154201715Y-100963333D01*
X154274286Y-100721429D01*
X154346858Y-100600476D01*
X154419429Y-100540000D01*
X154564572Y-100479524D01*
X155725715Y-101628571D02*
X155798287Y-101689048D01*
X155725715Y-101749524D01*
X155653144Y-101689048D01*
X155725715Y-101628571D01*
X155725715Y-101749524D01*
X155725715Y-100963333D02*
X155798287Y-101023810D01*
X155725715Y-101084286D01*
X155653144Y-101023810D01*
X155725715Y-100963333D01*
X155725715Y-101084286D01*
X156306286Y-100479524D02*
X157322286Y-100479524D01*
X156669143Y-101749524D01*
X190750286Y-101689048D02*
X190968000Y-101749524D01*
X191330857Y-101749524D01*
X191476000Y-101689048D01*
X191548571Y-101628571D01*
X191621143Y-101507619D01*
X191621143Y-101386667D01*
X191548571Y-101265714D01*
X191476000Y-101205238D01*
X191330857Y-101144762D01*
X191040571Y-101084286D01*
X190895429Y-101023810D01*
X190822857Y-100963333D01*
X190750286Y-100842381D01*
X190750286Y-100721429D01*
X190822857Y-100600476D01*
X190895429Y-100540000D01*
X191040571Y-100479524D01*
X191403429Y-100479524D01*
X191621143Y-100540000D01*
X192564572Y-100479524D02*
X192709715Y-100479524D01*
X192854858Y-100540000D01*
X192927429Y-100600476D01*
X193000000Y-100721429D01*
X193072572Y-100963333D01*
X193072572Y-101265714D01*
X193000000Y-101507619D01*
X192927429Y-101628571D01*
X192854858Y-101689048D01*
X192709715Y-101749524D01*
X192564572Y-101749524D01*
X192419429Y-101689048D01*
X192346858Y-101628571D01*
X192274286Y-101507619D01*
X192201715Y-101265714D01*
X192201715Y-100963333D01*
X192274286Y-100721429D01*
X192346858Y-100600476D01*
X192419429Y-100540000D01*
X192564572Y-100479524D01*
X193725715Y-101628571D02*
X193798287Y-101689048D01*
X193725715Y-101749524D01*
X193653144Y-101689048D01*
X193725715Y-101628571D01*
X193725715Y-101749524D01*
X193725715Y-100963333D02*
X193798287Y-101023810D01*
X193725715Y-101084286D01*
X193653144Y-101023810D01*
X193725715Y-100963333D01*
X193725715Y-101084286D01*
X194524001Y-101749524D02*
X194814286Y-101749524D01*
X194959429Y-101689048D01*
X195032001Y-101628571D01*
X195177143Y-101447143D01*
X195249715Y-101205238D01*
X195249715Y-100721429D01*
X195177143Y-100600476D01*
X195104572Y-100540000D01*
X194959429Y-100479524D01*
X194669143Y-100479524D01*
X194524001Y-100540000D01*
X194451429Y-100600476D01*
X194378858Y-100721429D01*
X194378858Y-101023810D01*
X194451429Y-101144762D01*
X194524001Y-101205238D01*
X194669143Y-101265714D01*
X194959429Y-101265714D01*
X195104572Y-101205238D01*
X195177143Y-101144762D01*
X195249715Y-101023810D01*
X190750286Y-82689048D02*
X190968000Y-82749524D01*
X191330857Y-82749524D01*
X191476000Y-82689048D01*
X191548571Y-82628571D01*
X191621143Y-82507619D01*
X191621143Y-82386667D01*
X191548571Y-82265714D01*
X191476000Y-82205238D01*
X191330857Y-82144762D01*
X191040571Y-82084286D01*
X190895429Y-82023810D01*
X190822857Y-81963333D01*
X190750286Y-81842381D01*
X190750286Y-81721429D01*
X190822857Y-81600476D01*
X190895429Y-81540000D01*
X191040571Y-81479524D01*
X191403429Y-81479524D01*
X191621143Y-81540000D01*
X193072572Y-82749524D02*
X192201715Y-82749524D01*
X192637143Y-82749524D02*
X192637143Y-81479524D01*
X192492000Y-81660952D01*
X192346858Y-81781905D01*
X192201715Y-81842381D01*
X193725715Y-82628571D02*
X193798287Y-82689048D01*
X193725715Y-82749524D01*
X193653144Y-82689048D01*
X193725715Y-82628571D01*
X193725715Y-82749524D01*
X193725715Y-81963333D02*
X193798287Y-82023810D01*
X193725715Y-82084286D01*
X193653144Y-82023810D01*
X193725715Y-81963333D01*
X193725715Y-82084286D01*
X194524001Y-82749524D02*
X194814286Y-82749524D01*
X194959429Y-82689048D01*
X195032001Y-82628571D01*
X195177143Y-82447143D01*
X195249715Y-82205238D01*
X195249715Y-81721429D01*
X195177143Y-81600476D01*
X195104572Y-81540000D01*
X194959429Y-81479524D01*
X194669143Y-81479524D01*
X194524001Y-81540000D01*
X194451429Y-81600476D01*
X194378858Y-81721429D01*
X194378858Y-82023810D01*
X194451429Y-82144762D01*
X194524001Y-82205238D01*
X194669143Y-82265714D01*
X194959429Y-82265714D01*
X195104572Y-82205238D01*
X195177143Y-82144762D01*
X195249715Y-82023810D01*
X190750286Y-63689048D02*
X190968000Y-63749524D01*
X191330857Y-63749524D01*
X191476000Y-63689048D01*
X191548571Y-63628571D01*
X191621143Y-63507619D01*
X191621143Y-63386667D01*
X191548571Y-63265714D01*
X191476000Y-63205238D01*
X191330857Y-63144762D01*
X191040571Y-63084286D01*
X190895429Y-63023810D01*
X190822857Y-62963333D01*
X190750286Y-62842381D01*
X190750286Y-62721429D01*
X190822857Y-62600476D01*
X190895429Y-62540000D01*
X191040571Y-62479524D01*
X191403429Y-62479524D01*
X191621143Y-62540000D01*
X192201715Y-62600476D02*
X192274286Y-62540000D01*
X192419429Y-62479524D01*
X192782286Y-62479524D01*
X192927429Y-62540000D01*
X193000000Y-62600476D01*
X193072572Y-62721429D01*
X193072572Y-62842381D01*
X193000000Y-63023810D01*
X192129143Y-63749524D01*
X193072572Y-63749524D01*
X193725715Y-63628571D02*
X193798287Y-63689048D01*
X193725715Y-63749524D01*
X193653144Y-63689048D01*
X193725715Y-63628571D01*
X193725715Y-63749524D01*
X193725715Y-62963333D02*
X193798287Y-63023810D01*
X193725715Y-63084286D01*
X193653144Y-63023810D01*
X193725715Y-62963333D01*
X193725715Y-63084286D01*
X194524001Y-63749524D02*
X194814286Y-63749524D01*
X194959429Y-63689048D01*
X195032001Y-63628571D01*
X195177143Y-63447143D01*
X195249715Y-63205238D01*
X195249715Y-62721429D01*
X195177143Y-62600476D01*
X195104572Y-62540000D01*
X194959429Y-62479524D01*
X194669143Y-62479524D01*
X194524001Y-62540000D01*
X194451429Y-62600476D01*
X194378858Y-62721429D01*
X194378858Y-63023810D01*
X194451429Y-63144762D01*
X194524001Y-63205238D01*
X194669143Y-63265714D01*
X194959429Y-63265714D01*
X195104572Y-63205238D01*
X195177143Y-63144762D01*
X195249715Y-63023810D01*
X171750286Y-63689048D02*
X171968000Y-63749524D01*
X172330857Y-63749524D01*
X172476000Y-63689048D01*
X172548571Y-63628571D01*
X172621143Y-63507619D01*
X172621143Y-63386667D01*
X172548571Y-63265714D01*
X172476000Y-63205238D01*
X172330857Y-63144762D01*
X172040571Y-63084286D01*
X171895429Y-63023810D01*
X171822857Y-62963333D01*
X171750286Y-62842381D01*
X171750286Y-62721429D01*
X171822857Y-62600476D01*
X171895429Y-62540000D01*
X172040571Y-62479524D01*
X172403429Y-62479524D01*
X172621143Y-62540000D01*
X173201715Y-62600476D02*
X173274286Y-62540000D01*
X173419429Y-62479524D01*
X173782286Y-62479524D01*
X173927429Y-62540000D01*
X174000000Y-62600476D01*
X174072572Y-62721429D01*
X174072572Y-62842381D01*
X174000000Y-63023810D01*
X173129143Y-63749524D01*
X174072572Y-63749524D01*
X174725715Y-63628571D02*
X174798287Y-63689048D01*
X174725715Y-63749524D01*
X174653144Y-63689048D01*
X174725715Y-63628571D01*
X174725715Y-63749524D01*
X174725715Y-62963333D02*
X174798287Y-63023810D01*
X174725715Y-63084286D01*
X174653144Y-63023810D01*
X174725715Y-62963333D01*
X174725715Y-63084286D01*
X175669143Y-63023810D02*
X175524001Y-62963333D01*
X175451429Y-62902857D01*
X175378858Y-62781905D01*
X175378858Y-62721429D01*
X175451429Y-62600476D01*
X175524001Y-62540000D01*
X175669143Y-62479524D01*
X175959429Y-62479524D01*
X176104572Y-62540000D01*
X176177143Y-62600476D01*
X176249715Y-62721429D01*
X176249715Y-62781905D01*
X176177143Y-62902857D01*
X176104572Y-62963333D01*
X175959429Y-63023810D01*
X175669143Y-63023810D01*
X175524001Y-63084286D01*
X175451429Y-63144762D01*
X175378858Y-63265714D01*
X175378858Y-63507619D01*
X175451429Y-63628571D01*
X175524001Y-63689048D01*
X175669143Y-63749524D01*
X175959429Y-63749524D01*
X176104572Y-63689048D01*
X176177143Y-63628571D01*
X176249715Y-63507619D01*
X176249715Y-63265714D01*
X176177143Y-63144762D01*
X176104572Y-63084286D01*
X175959429Y-63023810D01*
X171750286Y-82689048D02*
X171968000Y-82749524D01*
X172330857Y-82749524D01*
X172476000Y-82689048D01*
X172548571Y-82628571D01*
X172621143Y-82507619D01*
X172621143Y-82386667D01*
X172548571Y-82265714D01*
X172476000Y-82205238D01*
X172330857Y-82144762D01*
X172040571Y-82084286D01*
X171895429Y-82023810D01*
X171822857Y-81963333D01*
X171750286Y-81842381D01*
X171750286Y-81721429D01*
X171822857Y-81600476D01*
X171895429Y-81540000D01*
X172040571Y-81479524D01*
X172403429Y-81479524D01*
X172621143Y-81540000D01*
X174072572Y-82749524D02*
X173201715Y-82749524D01*
X173637143Y-82749524D02*
X173637143Y-81479524D01*
X173492000Y-81660952D01*
X173346858Y-81781905D01*
X173201715Y-81842381D01*
X174725715Y-82628571D02*
X174798287Y-82689048D01*
X174725715Y-82749524D01*
X174653144Y-82689048D01*
X174725715Y-82628571D01*
X174725715Y-82749524D01*
X174725715Y-81963333D02*
X174798287Y-82023810D01*
X174725715Y-82084286D01*
X174653144Y-82023810D01*
X174725715Y-81963333D01*
X174725715Y-82084286D01*
X175669143Y-82023810D02*
X175524001Y-81963333D01*
X175451429Y-81902857D01*
X175378858Y-81781905D01*
X175378858Y-81721429D01*
X175451429Y-81600476D01*
X175524001Y-81540000D01*
X175669143Y-81479524D01*
X175959429Y-81479524D01*
X176104572Y-81540000D01*
X176177143Y-81600476D01*
X176249715Y-81721429D01*
X176249715Y-81781905D01*
X176177143Y-81902857D01*
X176104572Y-81963333D01*
X175959429Y-82023810D01*
X175669143Y-82023810D01*
X175524001Y-82084286D01*
X175451429Y-82144762D01*
X175378858Y-82265714D01*
X175378858Y-82507619D01*
X175451429Y-82628571D01*
X175524001Y-82689048D01*
X175669143Y-82749524D01*
X175959429Y-82749524D01*
X176104572Y-82689048D01*
X176177143Y-82628571D01*
X176249715Y-82507619D01*
X176249715Y-82265714D01*
X176177143Y-82144762D01*
X176104572Y-82084286D01*
X175959429Y-82023810D01*
X177689048Y-100249714D02*
X177749524Y-100032000D01*
X177749524Y-99669143D01*
X177689048Y-99524000D01*
X177628571Y-99451429D01*
X177507619Y-99378857D01*
X177386667Y-99378857D01*
X177265714Y-99451429D01*
X177205238Y-99524000D01*
X177144762Y-99669143D01*
X177084286Y-99959429D01*
X177023810Y-100104571D01*
X176963333Y-100177143D01*
X176842381Y-100249714D01*
X176721429Y-100249714D01*
X176600476Y-100177143D01*
X176540000Y-100104571D01*
X176479524Y-99959429D01*
X176479524Y-99596571D01*
X176540000Y-99378857D01*
X176479524Y-98435428D02*
X176479524Y-98290285D01*
X176540000Y-98145142D01*
X176600476Y-98072571D01*
X176721429Y-98000000D01*
X176963333Y-97927428D01*
X177265714Y-97927428D01*
X177507619Y-98000000D01*
X177628571Y-98072571D01*
X177689048Y-98145142D01*
X177749524Y-98290285D01*
X177749524Y-98435428D01*
X177689048Y-98580571D01*
X177628571Y-98653142D01*
X177507619Y-98725714D01*
X177265714Y-98798285D01*
X176963333Y-98798285D01*
X176721429Y-98725714D01*
X176600476Y-98653142D01*
X176540000Y-98580571D01*
X176479524Y-98435428D01*
X177628571Y-97274285D02*
X177689048Y-97201713D01*
X177749524Y-97274285D01*
X177689048Y-97346856D01*
X177628571Y-97274285D01*
X177749524Y-97274285D01*
X176963333Y-97274285D02*
X177023810Y-97201713D01*
X177084286Y-97274285D01*
X177023810Y-97346856D01*
X176963333Y-97274285D01*
X177084286Y-97274285D01*
X177023810Y-96330857D02*
X176963333Y-96475999D01*
X176902857Y-96548571D01*
X176781905Y-96621142D01*
X176721429Y-96621142D01*
X176600476Y-96548571D01*
X176540000Y-96475999D01*
X176479524Y-96330857D01*
X176479524Y-96040571D01*
X176540000Y-95895428D01*
X176600476Y-95822857D01*
X176721429Y-95750285D01*
X176781905Y-95750285D01*
X176902857Y-95822857D01*
X176963333Y-95895428D01*
X177023810Y-96040571D01*
X177023810Y-96330857D01*
X177084286Y-96475999D01*
X177144762Y-96548571D01*
X177265714Y-96621142D01*
X177507619Y-96621142D01*
X177628571Y-96548571D01*
X177689048Y-96475999D01*
X177749524Y-96330857D01*
X177749524Y-96040571D01*
X177689048Y-95895428D01*
X177628571Y-95822857D01*
X177507619Y-95750285D01*
X177265714Y-95750285D01*
X177144762Y-95822857D01*
X177084286Y-95895428D01*
X177023810Y-96040571D01*
X57750286Y-101689048D02*
X57968000Y-101749524D01*
X58330857Y-101749524D01*
X58476000Y-101689048D01*
X58548571Y-101628571D01*
X58621143Y-101507619D01*
X58621143Y-101386667D01*
X58548571Y-101265714D01*
X58476000Y-101205238D01*
X58330857Y-101144762D01*
X58040571Y-101084286D01*
X57895429Y-101023810D01*
X57822857Y-100963333D01*
X57750286Y-100842381D01*
X57750286Y-100721429D01*
X57822857Y-100600476D01*
X57895429Y-100540000D01*
X58040571Y-100479524D01*
X58403429Y-100479524D01*
X58621143Y-100540000D01*
X59564572Y-100479524D02*
X59709715Y-100479524D01*
X59854858Y-100540000D01*
X59927429Y-100600476D01*
X60000000Y-100721429D01*
X60072572Y-100963333D01*
X60072572Y-101265714D01*
X60000000Y-101507619D01*
X59927429Y-101628571D01*
X59854858Y-101689048D01*
X59709715Y-101749524D01*
X59564572Y-101749524D01*
X59419429Y-101689048D01*
X59346858Y-101628571D01*
X59274286Y-101507619D01*
X59201715Y-101265714D01*
X59201715Y-100963333D01*
X59274286Y-100721429D01*
X59346858Y-100600476D01*
X59419429Y-100540000D01*
X59564572Y-100479524D01*
X60725715Y-101628571D02*
X60798287Y-101689048D01*
X60725715Y-101749524D01*
X60653144Y-101689048D01*
X60725715Y-101628571D01*
X60725715Y-101749524D01*
X60725715Y-100963333D02*
X60798287Y-101023810D01*
X60725715Y-101084286D01*
X60653144Y-101023810D01*
X60725715Y-100963333D01*
X60725715Y-101084286D01*
X61378858Y-100600476D02*
X61451429Y-100540000D01*
X61596572Y-100479524D01*
X61959429Y-100479524D01*
X62104572Y-100540000D01*
X62177143Y-100600476D01*
X62249715Y-100721429D01*
X62249715Y-100842381D01*
X62177143Y-101023810D01*
X61306286Y-101749524D01*
X62249715Y-101749524D01*
X57750286Y-82689048D02*
X57968000Y-82749524D01*
X58330857Y-82749524D01*
X58476000Y-82689048D01*
X58548571Y-82628571D01*
X58621143Y-82507619D01*
X58621143Y-82386667D01*
X58548571Y-82265714D01*
X58476000Y-82205238D01*
X58330857Y-82144762D01*
X58040571Y-82084286D01*
X57895429Y-82023810D01*
X57822857Y-81963333D01*
X57750286Y-81842381D01*
X57750286Y-81721429D01*
X57822857Y-81600476D01*
X57895429Y-81540000D01*
X58040571Y-81479524D01*
X58403429Y-81479524D01*
X58621143Y-81540000D01*
X60072572Y-82749524D02*
X59201715Y-82749524D01*
X59637143Y-82749524D02*
X59637143Y-81479524D01*
X59492000Y-81660952D01*
X59346858Y-81781905D01*
X59201715Y-81842381D01*
X60725715Y-82628571D02*
X60798287Y-82689048D01*
X60725715Y-82749524D01*
X60653144Y-82689048D01*
X60725715Y-82628571D01*
X60725715Y-82749524D01*
X60725715Y-81963333D02*
X60798287Y-82023810D01*
X60725715Y-82084286D01*
X60653144Y-82023810D01*
X60725715Y-81963333D01*
X60725715Y-82084286D01*
X61378858Y-81600476D02*
X61451429Y-81540000D01*
X61596572Y-81479524D01*
X61959429Y-81479524D01*
X62104572Y-81540000D01*
X62177143Y-81600476D01*
X62249715Y-81721429D01*
X62249715Y-81842381D01*
X62177143Y-82023810D01*
X61306286Y-82749524D01*
X62249715Y-82749524D01*
X57750286Y-63689048D02*
X57968000Y-63749524D01*
X58330857Y-63749524D01*
X58476000Y-63689048D01*
X58548571Y-63628571D01*
X58621143Y-63507619D01*
X58621143Y-63386667D01*
X58548571Y-63265714D01*
X58476000Y-63205238D01*
X58330857Y-63144762D01*
X58040571Y-63084286D01*
X57895429Y-63023810D01*
X57822857Y-62963333D01*
X57750286Y-62842381D01*
X57750286Y-62721429D01*
X57822857Y-62600476D01*
X57895429Y-62540000D01*
X58040571Y-62479524D01*
X58403429Y-62479524D01*
X58621143Y-62540000D01*
X59201715Y-62600476D02*
X59274286Y-62540000D01*
X59419429Y-62479524D01*
X59782286Y-62479524D01*
X59927429Y-62540000D01*
X60000000Y-62600476D01*
X60072572Y-62721429D01*
X60072572Y-62842381D01*
X60000000Y-63023810D01*
X59129143Y-63749524D01*
X60072572Y-63749524D01*
X60725715Y-63628571D02*
X60798287Y-63689048D01*
X60725715Y-63749524D01*
X60653144Y-63689048D01*
X60725715Y-63628571D01*
X60725715Y-63749524D01*
X60725715Y-62963333D02*
X60798287Y-63023810D01*
X60725715Y-63084286D01*
X60653144Y-63023810D01*
X60725715Y-62963333D01*
X60725715Y-63084286D01*
X61378858Y-62600476D02*
X61451429Y-62540000D01*
X61596572Y-62479524D01*
X61959429Y-62479524D01*
X62104572Y-62540000D01*
X62177143Y-62600476D01*
X62249715Y-62721429D01*
X62249715Y-62842381D01*
X62177143Y-63023810D01*
X61306286Y-63749524D01*
X62249715Y-63749524D01*
X76750286Y-63689048D02*
X76968000Y-63749524D01*
X77330857Y-63749524D01*
X77476000Y-63689048D01*
X77548571Y-63628571D01*
X77621143Y-63507619D01*
X77621143Y-63386667D01*
X77548571Y-63265714D01*
X77476000Y-63205238D01*
X77330857Y-63144762D01*
X77040571Y-63084286D01*
X76895429Y-63023810D01*
X76822857Y-62963333D01*
X76750286Y-62842381D01*
X76750286Y-62721429D01*
X76822857Y-62600476D01*
X76895429Y-62540000D01*
X77040571Y-62479524D01*
X77403429Y-62479524D01*
X77621143Y-62540000D01*
X78201715Y-62600476D02*
X78274286Y-62540000D01*
X78419429Y-62479524D01*
X78782286Y-62479524D01*
X78927429Y-62540000D01*
X79000000Y-62600476D01*
X79072572Y-62721429D01*
X79072572Y-62842381D01*
X79000000Y-63023810D01*
X78129143Y-63749524D01*
X79072572Y-63749524D01*
X79725715Y-63628571D02*
X79798287Y-63689048D01*
X79725715Y-63749524D01*
X79653144Y-63689048D01*
X79725715Y-63628571D01*
X79725715Y-63749524D01*
X79725715Y-62963333D02*
X79798287Y-63023810D01*
X79725715Y-63084286D01*
X79653144Y-63023810D01*
X79725715Y-62963333D01*
X79725715Y-63084286D01*
X80306286Y-62479524D02*
X81249715Y-62479524D01*
X80741715Y-62963333D01*
X80959429Y-62963333D01*
X81104572Y-63023810D01*
X81177143Y-63084286D01*
X81249715Y-63205238D01*
X81249715Y-63507619D01*
X81177143Y-63628571D01*
X81104572Y-63689048D01*
X80959429Y-63749524D01*
X80524001Y-63749524D01*
X80378858Y-63689048D01*
X80306286Y-63628571D01*
X76750286Y-82689048D02*
X76968000Y-82749524D01*
X77330857Y-82749524D01*
X77476000Y-82689048D01*
X77548571Y-82628571D01*
X77621143Y-82507619D01*
X77621143Y-82386667D01*
X77548571Y-82265714D01*
X77476000Y-82205238D01*
X77330857Y-82144762D01*
X77040571Y-82084286D01*
X76895429Y-82023810D01*
X76822857Y-81963333D01*
X76750286Y-81842381D01*
X76750286Y-81721429D01*
X76822857Y-81600476D01*
X76895429Y-81540000D01*
X77040571Y-81479524D01*
X77403429Y-81479524D01*
X77621143Y-81540000D01*
X79072572Y-82749524D02*
X78201715Y-82749524D01*
X78637143Y-82749524D02*
X78637143Y-81479524D01*
X78492000Y-81660952D01*
X78346858Y-81781905D01*
X78201715Y-81842381D01*
X79725715Y-82628571D02*
X79798287Y-82689048D01*
X79725715Y-82749524D01*
X79653144Y-82689048D01*
X79725715Y-82628571D01*
X79725715Y-82749524D01*
X79725715Y-81963333D02*
X79798287Y-82023810D01*
X79725715Y-82084286D01*
X79653144Y-82023810D01*
X79725715Y-81963333D01*
X79725715Y-82084286D01*
X80306286Y-81479524D02*
X81249715Y-81479524D01*
X80741715Y-81963333D01*
X80959429Y-81963333D01*
X81104572Y-82023810D01*
X81177143Y-82084286D01*
X81249715Y-82205238D01*
X81249715Y-82507619D01*
X81177143Y-82628571D01*
X81104572Y-82689048D01*
X80959429Y-82749524D01*
X80524001Y-82749524D01*
X80378858Y-82689048D01*
X80306286Y-82628571D01*
X76750286Y-101689048D02*
X76968000Y-101749524D01*
X77330857Y-101749524D01*
X77476000Y-101689048D01*
X77548571Y-101628571D01*
X77621143Y-101507619D01*
X77621143Y-101386667D01*
X77548571Y-101265714D01*
X77476000Y-101205238D01*
X77330857Y-101144762D01*
X77040571Y-101084286D01*
X76895429Y-101023810D01*
X76822857Y-100963333D01*
X76750286Y-100842381D01*
X76750286Y-100721429D01*
X76822857Y-100600476D01*
X76895429Y-100540000D01*
X77040571Y-100479524D01*
X77403429Y-100479524D01*
X77621143Y-100540000D01*
X78564572Y-100479524D02*
X78709715Y-100479524D01*
X78854858Y-100540000D01*
X78927429Y-100600476D01*
X79000000Y-100721429D01*
X79072572Y-100963333D01*
X79072572Y-101265714D01*
X79000000Y-101507619D01*
X78927429Y-101628571D01*
X78854858Y-101689048D01*
X78709715Y-101749524D01*
X78564572Y-101749524D01*
X78419429Y-101689048D01*
X78346858Y-101628571D01*
X78274286Y-101507619D01*
X78201715Y-101265714D01*
X78201715Y-100963333D01*
X78274286Y-100721429D01*
X78346858Y-100600476D01*
X78419429Y-100540000D01*
X78564572Y-100479524D01*
X79725715Y-101628571D02*
X79798287Y-101689048D01*
X79725715Y-101749524D01*
X79653144Y-101689048D01*
X79725715Y-101628571D01*
X79725715Y-101749524D01*
X79725715Y-100963333D02*
X79798287Y-101023810D01*
X79725715Y-101084286D01*
X79653144Y-101023810D01*
X79725715Y-100963333D01*
X79725715Y-101084286D01*
X80306286Y-100479524D02*
X81249715Y-100479524D01*
X80741715Y-100963333D01*
X80959429Y-100963333D01*
X81104572Y-101023810D01*
X81177143Y-101084286D01*
X81249715Y-101205238D01*
X81249715Y-101507619D01*
X81177143Y-101628571D01*
X81104572Y-101689048D01*
X80959429Y-101749524D01*
X80524001Y-101749524D01*
X80378858Y-101689048D01*
X80306286Y-101628571D01*
X38750286Y-101689048D02*
X38968000Y-101749524D01*
X39330857Y-101749524D01*
X39476000Y-101689048D01*
X39548571Y-101628571D01*
X39621143Y-101507619D01*
X39621143Y-101386667D01*
X39548571Y-101265714D01*
X39476000Y-101205238D01*
X39330857Y-101144762D01*
X39040571Y-101084286D01*
X38895429Y-101023810D01*
X38822857Y-100963333D01*
X38750286Y-100842381D01*
X38750286Y-100721429D01*
X38822857Y-100600476D01*
X38895429Y-100540000D01*
X39040571Y-100479524D01*
X39403429Y-100479524D01*
X39621143Y-100540000D01*
X40564572Y-100479524D02*
X40709715Y-100479524D01*
X40854858Y-100540000D01*
X40927429Y-100600476D01*
X41000000Y-100721429D01*
X41072572Y-100963333D01*
X41072572Y-101265714D01*
X41000000Y-101507619D01*
X40927429Y-101628571D01*
X40854858Y-101689048D01*
X40709715Y-101749524D01*
X40564572Y-101749524D01*
X40419429Y-101689048D01*
X40346858Y-101628571D01*
X40274286Y-101507619D01*
X40201715Y-101265714D01*
X40201715Y-100963333D01*
X40274286Y-100721429D01*
X40346858Y-100600476D01*
X40419429Y-100540000D01*
X40564572Y-100479524D01*
X41725715Y-101628571D02*
X41798287Y-101689048D01*
X41725715Y-101749524D01*
X41653144Y-101689048D01*
X41725715Y-101628571D01*
X41725715Y-101749524D01*
X41725715Y-100963333D02*
X41798287Y-101023810D01*
X41725715Y-101084286D01*
X41653144Y-101023810D01*
X41725715Y-100963333D01*
X41725715Y-101084286D01*
X43249715Y-101749524D02*
X42378858Y-101749524D01*
X42814286Y-101749524D02*
X42814286Y-100479524D01*
X42669143Y-100660952D01*
X42524001Y-100781905D01*
X42378858Y-100842381D01*
X38750286Y-82689048D02*
X38968000Y-82749524D01*
X39330857Y-82749524D01*
X39476000Y-82689048D01*
X39548571Y-82628571D01*
X39621143Y-82507619D01*
X39621143Y-82386667D01*
X39548571Y-82265714D01*
X39476000Y-82205238D01*
X39330857Y-82144762D01*
X39040571Y-82084286D01*
X38895429Y-82023810D01*
X38822857Y-81963333D01*
X38750286Y-81842381D01*
X38750286Y-81721429D01*
X38822857Y-81600476D01*
X38895429Y-81540000D01*
X39040571Y-81479524D01*
X39403429Y-81479524D01*
X39621143Y-81540000D01*
X41072572Y-82749524D02*
X40201715Y-82749524D01*
X40637143Y-82749524D02*
X40637143Y-81479524D01*
X40492000Y-81660952D01*
X40346858Y-81781905D01*
X40201715Y-81842381D01*
X41725715Y-82628571D02*
X41798287Y-82689048D01*
X41725715Y-82749524D01*
X41653144Y-82689048D01*
X41725715Y-82628571D01*
X41725715Y-82749524D01*
X41725715Y-81963333D02*
X41798287Y-82023810D01*
X41725715Y-82084286D01*
X41653144Y-82023810D01*
X41725715Y-81963333D01*
X41725715Y-82084286D01*
X43249715Y-82749524D02*
X42378858Y-82749524D01*
X42814286Y-82749524D02*
X42814286Y-81479524D01*
X42669143Y-81660952D01*
X42524001Y-81781905D01*
X42378858Y-81842381D01*
X38750286Y-63689048D02*
X38968000Y-63749524D01*
X39330857Y-63749524D01*
X39476000Y-63689048D01*
X39548571Y-63628571D01*
X39621143Y-63507619D01*
X39621143Y-63386667D01*
X39548571Y-63265714D01*
X39476000Y-63205238D01*
X39330857Y-63144762D01*
X39040571Y-63084286D01*
X38895429Y-63023810D01*
X38822857Y-62963333D01*
X38750286Y-62842381D01*
X38750286Y-62721429D01*
X38822857Y-62600476D01*
X38895429Y-62540000D01*
X39040571Y-62479524D01*
X39403429Y-62479524D01*
X39621143Y-62540000D01*
X40201715Y-62600476D02*
X40274286Y-62540000D01*
X40419429Y-62479524D01*
X40782286Y-62479524D01*
X40927429Y-62540000D01*
X41000000Y-62600476D01*
X41072572Y-62721429D01*
X41072572Y-62842381D01*
X41000000Y-63023810D01*
X40129143Y-63749524D01*
X41072572Y-63749524D01*
X41725715Y-63628571D02*
X41798287Y-63689048D01*
X41725715Y-63749524D01*
X41653144Y-63689048D01*
X41725715Y-63628571D01*
X41725715Y-63749524D01*
X41725715Y-62963333D02*
X41798287Y-63023810D01*
X41725715Y-63084286D01*
X41653144Y-63023810D01*
X41725715Y-62963333D01*
X41725715Y-63084286D01*
X43249715Y-63749524D02*
X42378858Y-63749524D01*
X42814286Y-63749524D02*
X42814286Y-62479524D01*
X42669143Y-62660952D01*
X42524001Y-62781905D01*
X42378858Y-62842381D01*
X95750286Y-44689048D02*
X95968000Y-44749524D01*
X96330857Y-44749524D01*
X96476000Y-44689048D01*
X96548571Y-44628571D01*
X96621143Y-44507619D01*
X96621143Y-44386667D01*
X96548571Y-44265714D01*
X96476000Y-44205238D01*
X96330857Y-44144762D01*
X96040571Y-44084286D01*
X95895429Y-44023810D01*
X95822857Y-43963333D01*
X95750286Y-43842381D01*
X95750286Y-43721429D01*
X95822857Y-43600476D01*
X95895429Y-43540000D01*
X96040571Y-43479524D01*
X96403429Y-43479524D01*
X96621143Y-43540000D01*
X97129143Y-43479524D02*
X98072572Y-43479524D01*
X97564572Y-43963333D01*
X97782286Y-43963333D01*
X97927429Y-44023810D01*
X98000000Y-44084286D01*
X98072572Y-44205238D01*
X98072572Y-44507619D01*
X98000000Y-44628571D01*
X97927429Y-44689048D01*
X97782286Y-44749524D01*
X97346858Y-44749524D01*
X97201715Y-44689048D01*
X97129143Y-44628571D01*
X98725715Y-44628571D02*
X98798287Y-44689048D01*
X98725715Y-44749524D01*
X98653144Y-44689048D01*
X98725715Y-44628571D01*
X98725715Y-44749524D01*
X98725715Y-43963333D02*
X98798287Y-44023810D01*
X98725715Y-44084286D01*
X98653144Y-44023810D01*
X98725715Y-43963333D01*
X98725715Y-44084286D01*
X100104572Y-43902857D02*
X100104572Y-44749524D01*
X99741715Y-43419048D02*
X99378858Y-44326190D01*
X100322286Y-44326190D01*
X95750286Y-101689048D02*
X95968000Y-101749524D01*
X96330857Y-101749524D01*
X96476000Y-101689048D01*
X96548571Y-101628571D01*
X96621143Y-101507619D01*
X96621143Y-101386667D01*
X96548571Y-101265714D01*
X96476000Y-101205238D01*
X96330857Y-101144762D01*
X96040571Y-101084286D01*
X95895429Y-101023810D01*
X95822857Y-100963333D01*
X95750286Y-100842381D01*
X95750286Y-100721429D01*
X95822857Y-100600476D01*
X95895429Y-100540000D01*
X96040571Y-100479524D01*
X96403429Y-100479524D01*
X96621143Y-100540000D01*
X97564572Y-100479524D02*
X97709715Y-100479524D01*
X97854858Y-100540000D01*
X97927429Y-100600476D01*
X98000000Y-100721429D01*
X98072572Y-100963333D01*
X98072572Y-101265714D01*
X98000000Y-101507619D01*
X97927429Y-101628571D01*
X97854858Y-101689048D01*
X97709715Y-101749524D01*
X97564572Y-101749524D01*
X97419429Y-101689048D01*
X97346858Y-101628571D01*
X97274286Y-101507619D01*
X97201715Y-101265714D01*
X97201715Y-100963333D01*
X97274286Y-100721429D01*
X97346858Y-100600476D01*
X97419429Y-100540000D01*
X97564572Y-100479524D01*
X98725715Y-101628571D02*
X98798287Y-101689048D01*
X98725715Y-101749524D01*
X98653144Y-101689048D01*
X98725715Y-101628571D01*
X98725715Y-101749524D01*
X98725715Y-100963333D02*
X98798287Y-101023810D01*
X98725715Y-101084286D01*
X98653144Y-101023810D01*
X98725715Y-100963333D01*
X98725715Y-101084286D01*
X100104572Y-100902857D02*
X100104572Y-101749524D01*
X99741715Y-100419048D02*
X99378858Y-101326190D01*
X100322286Y-101326190D01*
X95750286Y-82689048D02*
X95968000Y-82749524D01*
X96330857Y-82749524D01*
X96476000Y-82689048D01*
X96548571Y-82628571D01*
X96621143Y-82507619D01*
X96621143Y-82386667D01*
X96548571Y-82265714D01*
X96476000Y-82205238D01*
X96330857Y-82144762D01*
X96040571Y-82084286D01*
X95895429Y-82023810D01*
X95822857Y-81963333D01*
X95750286Y-81842381D01*
X95750286Y-81721429D01*
X95822857Y-81600476D01*
X95895429Y-81540000D01*
X96040571Y-81479524D01*
X96403429Y-81479524D01*
X96621143Y-81540000D01*
X98072572Y-82749524D02*
X97201715Y-82749524D01*
X97637143Y-82749524D02*
X97637143Y-81479524D01*
X97492000Y-81660952D01*
X97346858Y-81781905D01*
X97201715Y-81842381D01*
X98725715Y-82628571D02*
X98798287Y-82689048D01*
X98725715Y-82749524D01*
X98653144Y-82689048D01*
X98725715Y-82628571D01*
X98725715Y-82749524D01*
X98725715Y-81963333D02*
X98798287Y-82023810D01*
X98725715Y-82084286D01*
X98653144Y-82023810D01*
X98725715Y-81963333D01*
X98725715Y-82084286D01*
X100104572Y-81902857D02*
X100104572Y-82749524D01*
X99741715Y-81419048D02*
X99378858Y-82326190D01*
X100322286Y-82326190D01*
X95750286Y-25689048D02*
X95968000Y-25749524D01*
X96330857Y-25749524D01*
X96476000Y-25689048D01*
X96548571Y-25628571D01*
X96621143Y-25507619D01*
X96621143Y-25386667D01*
X96548571Y-25265714D01*
X96476000Y-25205238D01*
X96330857Y-25144762D01*
X96040571Y-25084286D01*
X95895429Y-25023810D01*
X95822857Y-24963333D01*
X95750286Y-24842381D01*
X95750286Y-24721429D01*
X95822857Y-24600476D01*
X95895429Y-24540000D01*
X96040571Y-24479524D01*
X96403429Y-24479524D01*
X96621143Y-24540000D01*
X97927429Y-24902857D02*
X97927429Y-25749524D01*
X97564572Y-24419048D02*
X97201715Y-25326190D01*
X98145143Y-25326190D01*
X98725715Y-25628571D02*
X98798287Y-25689048D01*
X98725715Y-25749524D01*
X98653144Y-25689048D01*
X98725715Y-25628571D01*
X98725715Y-25749524D01*
X98725715Y-24963333D02*
X98798287Y-25023810D01*
X98725715Y-25084286D01*
X98653144Y-25023810D01*
X98725715Y-24963333D01*
X98725715Y-25084286D01*
X100104572Y-24902857D02*
X100104572Y-25749524D01*
X99741715Y-24419048D02*
X99378858Y-25326190D01*
X100322286Y-25326190D01*
X95750286Y-63689048D02*
X95968000Y-63749524D01*
X96330857Y-63749524D01*
X96476000Y-63689048D01*
X96548571Y-63628571D01*
X96621143Y-63507619D01*
X96621143Y-63386667D01*
X96548571Y-63265714D01*
X96476000Y-63205238D01*
X96330857Y-63144762D01*
X96040571Y-63084286D01*
X95895429Y-63023810D01*
X95822857Y-62963333D01*
X95750286Y-62842381D01*
X95750286Y-62721429D01*
X95822857Y-62600476D01*
X95895429Y-62540000D01*
X96040571Y-62479524D01*
X96403429Y-62479524D01*
X96621143Y-62540000D01*
X97201715Y-62600476D02*
X97274286Y-62540000D01*
X97419429Y-62479524D01*
X97782286Y-62479524D01*
X97927429Y-62540000D01*
X98000000Y-62600476D01*
X98072572Y-62721429D01*
X98072572Y-62842381D01*
X98000000Y-63023810D01*
X97129143Y-63749524D01*
X98072572Y-63749524D01*
X98725715Y-63628571D02*
X98798287Y-63689048D01*
X98725715Y-63749524D01*
X98653144Y-63689048D01*
X98725715Y-63628571D01*
X98725715Y-63749524D01*
X98725715Y-62963333D02*
X98798287Y-63023810D01*
X98725715Y-63084286D01*
X98653144Y-63023810D01*
X98725715Y-62963333D01*
X98725715Y-63084286D01*
X100104572Y-62902857D02*
X100104572Y-63749524D01*
X99741715Y-62419048D02*
X99378858Y-63326190D01*
X100322286Y-63326190D01*
X76750286Y-25689048D02*
X76968000Y-25749524D01*
X77330857Y-25749524D01*
X77476000Y-25689048D01*
X77548571Y-25628571D01*
X77621143Y-25507619D01*
X77621143Y-25386667D01*
X77548571Y-25265714D01*
X77476000Y-25205238D01*
X77330857Y-25144762D01*
X77040571Y-25084286D01*
X76895429Y-25023810D01*
X76822857Y-24963333D01*
X76750286Y-24842381D01*
X76750286Y-24721429D01*
X76822857Y-24600476D01*
X76895429Y-24540000D01*
X77040571Y-24479524D01*
X77403429Y-24479524D01*
X77621143Y-24540000D01*
X78927429Y-24902857D02*
X78927429Y-25749524D01*
X78564572Y-24419048D02*
X78201715Y-25326190D01*
X79145143Y-25326190D01*
X79725715Y-25628571D02*
X79798287Y-25689048D01*
X79725715Y-25749524D01*
X79653144Y-25689048D01*
X79725715Y-25628571D01*
X79725715Y-25749524D01*
X79725715Y-24963333D02*
X79798287Y-25023810D01*
X79725715Y-25084286D01*
X79653144Y-25023810D01*
X79725715Y-24963333D01*
X79725715Y-25084286D01*
X80306286Y-24479524D02*
X81249715Y-24479524D01*
X80741715Y-24963333D01*
X80959429Y-24963333D01*
X81104572Y-25023810D01*
X81177143Y-25084286D01*
X81249715Y-25205238D01*
X81249715Y-25507619D01*
X81177143Y-25628571D01*
X81104572Y-25689048D01*
X80959429Y-25749524D01*
X80524001Y-25749524D01*
X80378858Y-25689048D01*
X80306286Y-25628571D01*
X76750286Y-44689048D02*
X76968000Y-44749524D01*
X77330857Y-44749524D01*
X77476000Y-44689048D01*
X77548571Y-44628571D01*
X77621143Y-44507619D01*
X77621143Y-44386667D01*
X77548571Y-44265714D01*
X77476000Y-44205238D01*
X77330857Y-44144762D01*
X77040571Y-44084286D01*
X76895429Y-44023810D01*
X76822857Y-43963333D01*
X76750286Y-43842381D01*
X76750286Y-43721429D01*
X76822857Y-43600476D01*
X76895429Y-43540000D01*
X77040571Y-43479524D01*
X77403429Y-43479524D01*
X77621143Y-43540000D01*
X78129143Y-43479524D02*
X79072572Y-43479524D01*
X78564572Y-43963333D01*
X78782286Y-43963333D01*
X78927429Y-44023810D01*
X79000000Y-44084286D01*
X79072572Y-44205238D01*
X79072572Y-44507619D01*
X79000000Y-44628571D01*
X78927429Y-44689048D01*
X78782286Y-44749524D01*
X78346858Y-44749524D01*
X78201715Y-44689048D01*
X78129143Y-44628571D01*
X79725715Y-44628571D02*
X79798287Y-44689048D01*
X79725715Y-44749524D01*
X79653144Y-44689048D01*
X79725715Y-44628571D01*
X79725715Y-44749524D01*
X79725715Y-43963333D02*
X79798287Y-44023810D01*
X79725715Y-44084286D01*
X79653144Y-44023810D01*
X79725715Y-43963333D01*
X79725715Y-44084286D01*
X80306286Y-43479524D02*
X81249715Y-43479524D01*
X80741715Y-43963333D01*
X80959429Y-43963333D01*
X81104572Y-44023810D01*
X81177143Y-44084286D01*
X81249715Y-44205238D01*
X81249715Y-44507619D01*
X81177143Y-44628571D01*
X81104572Y-44689048D01*
X80959429Y-44749524D01*
X80524001Y-44749524D01*
X80378858Y-44689048D01*
X80306286Y-44628571D01*
X57750286Y-25689048D02*
X57968000Y-25749524D01*
X58330857Y-25749524D01*
X58476000Y-25689048D01*
X58548571Y-25628571D01*
X58621143Y-25507619D01*
X58621143Y-25386667D01*
X58548571Y-25265714D01*
X58476000Y-25205238D01*
X58330857Y-25144762D01*
X58040571Y-25084286D01*
X57895429Y-25023810D01*
X57822857Y-24963333D01*
X57750286Y-24842381D01*
X57750286Y-24721429D01*
X57822857Y-24600476D01*
X57895429Y-24540000D01*
X58040571Y-24479524D01*
X58403429Y-24479524D01*
X58621143Y-24540000D01*
X59927429Y-24902857D02*
X59927429Y-25749524D01*
X59564572Y-24419048D02*
X59201715Y-25326190D01*
X60145143Y-25326190D01*
X60725715Y-25628571D02*
X60798287Y-25689048D01*
X60725715Y-25749524D01*
X60653144Y-25689048D01*
X60725715Y-25628571D01*
X60725715Y-25749524D01*
X60725715Y-24963333D02*
X60798287Y-25023810D01*
X60725715Y-25084286D01*
X60653144Y-25023810D01*
X60725715Y-24963333D01*
X60725715Y-25084286D01*
X61378858Y-24600476D02*
X61451429Y-24540000D01*
X61596572Y-24479524D01*
X61959429Y-24479524D01*
X62104572Y-24540000D01*
X62177143Y-24600476D01*
X62249715Y-24721429D01*
X62249715Y-24842381D01*
X62177143Y-25023810D01*
X61306286Y-25749524D01*
X62249715Y-25749524D01*
X57750286Y-44689048D02*
X57968000Y-44749524D01*
X58330857Y-44749524D01*
X58476000Y-44689048D01*
X58548571Y-44628571D01*
X58621143Y-44507619D01*
X58621143Y-44386667D01*
X58548571Y-44265714D01*
X58476000Y-44205238D01*
X58330857Y-44144762D01*
X58040571Y-44084286D01*
X57895429Y-44023810D01*
X57822857Y-43963333D01*
X57750286Y-43842381D01*
X57750286Y-43721429D01*
X57822857Y-43600476D01*
X57895429Y-43540000D01*
X58040571Y-43479524D01*
X58403429Y-43479524D01*
X58621143Y-43540000D01*
X59129143Y-43479524D02*
X60072572Y-43479524D01*
X59564572Y-43963333D01*
X59782286Y-43963333D01*
X59927429Y-44023810D01*
X60000000Y-44084286D01*
X60072572Y-44205238D01*
X60072572Y-44507619D01*
X60000000Y-44628571D01*
X59927429Y-44689048D01*
X59782286Y-44749524D01*
X59346858Y-44749524D01*
X59201715Y-44689048D01*
X59129143Y-44628571D01*
X60725715Y-44628571D02*
X60798287Y-44689048D01*
X60725715Y-44749524D01*
X60653144Y-44689048D01*
X60725715Y-44628571D01*
X60725715Y-44749524D01*
X60725715Y-43963333D02*
X60798287Y-44023810D01*
X60725715Y-44084286D01*
X60653144Y-44023810D01*
X60725715Y-43963333D01*
X60725715Y-44084286D01*
X61378858Y-43600476D02*
X61451429Y-43540000D01*
X61596572Y-43479524D01*
X61959429Y-43479524D01*
X62104572Y-43540000D01*
X62177143Y-43600476D01*
X62249715Y-43721429D01*
X62249715Y-43842381D01*
X62177143Y-44023810D01*
X61306286Y-44749524D01*
X62249715Y-44749524D01*
X19750286Y-63689048D02*
X19968000Y-63749524D01*
X20330857Y-63749524D01*
X20476000Y-63689048D01*
X20548571Y-63628571D01*
X20621143Y-63507619D01*
X20621143Y-63386667D01*
X20548571Y-63265714D01*
X20476000Y-63205238D01*
X20330857Y-63144762D01*
X20040571Y-63084286D01*
X19895429Y-63023810D01*
X19822857Y-62963333D01*
X19750286Y-62842381D01*
X19750286Y-62721429D01*
X19822857Y-62600476D01*
X19895429Y-62540000D01*
X20040571Y-62479524D01*
X20403429Y-62479524D01*
X20621143Y-62540000D01*
X21201715Y-62600476D02*
X21274286Y-62540000D01*
X21419429Y-62479524D01*
X21782286Y-62479524D01*
X21927429Y-62540000D01*
X22000000Y-62600476D01*
X22072572Y-62721429D01*
X22072572Y-62842381D01*
X22000000Y-63023810D01*
X21129143Y-63749524D01*
X22072572Y-63749524D01*
X22725715Y-63628571D02*
X22798287Y-63689048D01*
X22725715Y-63749524D01*
X22653144Y-63689048D01*
X22725715Y-63628571D01*
X22725715Y-63749524D01*
X22725715Y-62963333D02*
X22798287Y-63023810D01*
X22725715Y-63084286D01*
X22653144Y-63023810D01*
X22725715Y-62963333D01*
X22725715Y-63084286D01*
X23741715Y-62479524D02*
X23886858Y-62479524D01*
X24032001Y-62540000D01*
X24104572Y-62600476D01*
X24177143Y-62721429D01*
X24249715Y-62963333D01*
X24249715Y-63265714D01*
X24177143Y-63507619D01*
X24104572Y-63628571D01*
X24032001Y-63689048D01*
X23886858Y-63749524D01*
X23741715Y-63749524D01*
X23596572Y-63689048D01*
X23524001Y-63628571D01*
X23451429Y-63507619D01*
X23378858Y-63265714D01*
X23378858Y-62963333D01*
X23451429Y-62721429D01*
X23524001Y-62600476D01*
X23596572Y-62540000D01*
X23741715Y-62479524D01*
X38750286Y-44689048D02*
X38968000Y-44749524D01*
X39330857Y-44749524D01*
X39476000Y-44689048D01*
X39548571Y-44628571D01*
X39621143Y-44507619D01*
X39621143Y-44386667D01*
X39548571Y-44265714D01*
X39476000Y-44205238D01*
X39330857Y-44144762D01*
X39040571Y-44084286D01*
X38895429Y-44023810D01*
X38822857Y-43963333D01*
X38750286Y-43842381D01*
X38750286Y-43721429D01*
X38822857Y-43600476D01*
X38895429Y-43540000D01*
X39040571Y-43479524D01*
X39403429Y-43479524D01*
X39621143Y-43540000D01*
X40129143Y-43479524D02*
X41072572Y-43479524D01*
X40564572Y-43963333D01*
X40782286Y-43963333D01*
X40927429Y-44023810D01*
X41000000Y-44084286D01*
X41072572Y-44205238D01*
X41072572Y-44507619D01*
X41000000Y-44628571D01*
X40927429Y-44689048D01*
X40782286Y-44749524D01*
X40346858Y-44749524D01*
X40201715Y-44689048D01*
X40129143Y-44628571D01*
X41725715Y-44628571D02*
X41798287Y-44689048D01*
X41725715Y-44749524D01*
X41653144Y-44689048D01*
X41725715Y-44628571D01*
X41725715Y-44749524D01*
X41725715Y-43963333D02*
X41798287Y-44023810D01*
X41725715Y-44084286D01*
X41653144Y-44023810D01*
X41725715Y-43963333D01*
X41725715Y-44084286D01*
X43249715Y-44749524D02*
X42378858Y-44749524D01*
X42814286Y-44749524D02*
X42814286Y-43479524D01*
X42669143Y-43660952D01*
X42524001Y-43781905D01*
X42378858Y-43842381D01*
X19750286Y-25689048D02*
X19968000Y-25749524D01*
X20330857Y-25749524D01*
X20476000Y-25689048D01*
X20548571Y-25628571D01*
X20621143Y-25507619D01*
X20621143Y-25386667D01*
X20548571Y-25265714D01*
X20476000Y-25205238D01*
X20330857Y-25144762D01*
X20040571Y-25084286D01*
X19895429Y-25023810D01*
X19822857Y-24963333D01*
X19750286Y-24842381D01*
X19750286Y-24721429D01*
X19822857Y-24600476D01*
X19895429Y-24540000D01*
X20040571Y-24479524D01*
X20403429Y-24479524D01*
X20621143Y-24540000D01*
X21927429Y-24902857D02*
X21927429Y-25749524D01*
X21564572Y-24419048D02*
X21201715Y-25326190D01*
X22145143Y-25326190D01*
X22725715Y-25628571D02*
X22798287Y-25689048D01*
X22725715Y-25749524D01*
X22653144Y-25689048D01*
X22725715Y-25628571D01*
X22725715Y-25749524D01*
X22725715Y-24963333D02*
X22798287Y-25023810D01*
X22725715Y-25084286D01*
X22653144Y-25023810D01*
X22725715Y-24963333D01*
X22725715Y-25084286D01*
X23741715Y-24479524D02*
X23886858Y-24479524D01*
X24032001Y-24540000D01*
X24104572Y-24600476D01*
X24177143Y-24721429D01*
X24249715Y-24963333D01*
X24249715Y-25265714D01*
X24177143Y-25507619D01*
X24104572Y-25628571D01*
X24032001Y-25689048D01*
X23886858Y-25749524D01*
X23741715Y-25749524D01*
X23596572Y-25689048D01*
X23524001Y-25628571D01*
X23451429Y-25507619D01*
X23378858Y-25265714D01*
X23378858Y-24963333D01*
X23451429Y-24721429D01*
X23524001Y-24600476D01*
X23596572Y-24540000D01*
X23741715Y-24479524D01*
X38750286Y-25689048D02*
X38968000Y-25749524D01*
X39330857Y-25749524D01*
X39476000Y-25689048D01*
X39548571Y-25628571D01*
X39621143Y-25507619D01*
X39621143Y-25386667D01*
X39548571Y-25265714D01*
X39476000Y-25205238D01*
X39330857Y-25144762D01*
X39040571Y-25084286D01*
X38895429Y-25023810D01*
X38822857Y-24963333D01*
X38750286Y-24842381D01*
X38750286Y-24721429D01*
X38822857Y-24600476D01*
X38895429Y-24540000D01*
X39040571Y-24479524D01*
X39403429Y-24479524D01*
X39621143Y-24540000D01*
X40927429Y-24902857D02*
X40927429Y-25749524D01*
X40564572Y-24419048D02*
X40201715Y-25326190D01*
X41145143Y-25326190D01*
X41725715Y-25628571D02*
X41798287Y-25689048D01*
X41725715Y-25749524D01*
X41653144Y-25689048D01*
X41725715Y-25628571D01*
X41725715Y-25749524D01*
X41725715Y-24963333D02*
X41798287Y-25023810D01*
X41725715Y-25084286D01*
X41653144Y-25023810D01*
X41725715Y-24963333D01*
X41725715Y-25084286D01*
X43249715Y-25749524D02*
X42378858Y-25749524D01*
X42814286Y-25749524D02*
X42814286Y-24479524D01*
X42669143Y-24660952D01*
X42524001Y-24781905D01*
X42378858Y-24842381D01*
X19750286Y-82689048D02*
X19968000Y-82749524D01*
X20330857Y-82749524D01*
X20476000Y-82689048D01*
X20548571Y-82628571D01*
X20621143Y-82507619D01*
X20621143Y-82386667D01*
X20548571Y-82265714D01*
X20476000Y-82205238D01*
X20330857Y-82144762D01*
X20040571Y-82084286D01*
X19895429Y-82023810D01*
X19822857Y-81963333D01*
X19750286Y-81842381D01*
X19750286Y-81721429D01*
X19822857Y-81600476D01*
X19895429Y-81540000D01*
X20040571Y-81479524D01*
X20403429Y-81479524D01*
X20621143Y-81540000D01*
X22072572Y-82749524D02*
X21201715Y-82749524D01*
X21637143Y-82749524D02*
X21637143Y-81479524D01*
X21492000Y-81660952D01*
X21346858Y-81781905D01*
X21201715Y-81842381D01*
X22725715Y-82628571D02*
X22798287Y-82689048D01*
X22725715Y-82749524D01*
X22653144Y-82689048D01*
X22725715Y-82628571D01*
X22725715Y-82749524D01*
X22725715Y-81963333D02*
X22798287Y-82023810D01*
X22725715Y-82084286D01*
X22653144Y-82023810D01*
X22725715Y-81963333D01*
X22725715Y-82084286D01*
X23741715Y-81479524D02*
X23886858Y-81479524D01*
X24032001Y-81540000D01*
X24104572Y-81600476D01*
X24177143Y-81721429D01*
X24249715Y-81963333D01*
X24249715Y-82265714D01*
X24177143Y-82507619D01*
X24104572Y-82628571D01*
X24032001Y-82689048D01*
X23886858Y-82749524D01*
X23741715Y-82749524D01*
X23596572Y-82689048D01*
X23524001Y-82628571D01*
X23451429Y-82507619D01*
X23378858Y-82265714D01*
X23378858Y-81963333D01*
X23451429Y-81721429D01*
X23524001Y-81600476D01*
X23596572Y-81540000D01*
X23741715Y-81479524D01*
X19750286Y-101689048D02*
X19968000Y-101749524D01*
X20330857Y-101749524D01*
X20476000Y-101689048D01*
X20548571Y-101628571D01*
X20621143Y-101507619D01*
X20621143Y-101386667D01*
X20548571Y-101265714D01*
X20476000Y-101205238D01*
X20330857Y-101144762D01*
X20040571Y-101084286D01*
X19895429Y-101023810D01*
X19822857Y-100963333D01*
X19750286Y-100842381D01*
X19750286Y-100721429D01*
X19822857Y-100600476D01*
X19895429Y-100540000D01*
X20040571Y-100479524D01*
X20403429Y-100479524D01*
X20621143Y-100540000D01*
X21564572Y-100479524D02*
X21709715Y-100479524D01*
X21854858Y-100540000D01*
X21927429Y-100600476D01*
X22000000Y-100721429D01*
X22072572Y-100963333D01*
X22072572Y-101265714D01*
X22000000Y-101507619D01*
X21927429Y-101628571D01*
X21854858Y-101689048D01*
X21709715Y-101749524D01*
X21564572Y-101749524D01*
X21419429Y-101689048D01*
X21346858Y-101628571D01*
X21274286Y-101507619D01*
X21201715Y-101265714D01*
X21201715Y-100963333D01*
X21274286Y-100721429D01*
X21346858Y-100600476D01*
X21419429Y-100540000D01*
X21564572Y-100479524D01*
X22725715Y-101628571D02*
X22798287Y-101689048D01*
X22725715Y-101749524D01*
X22653144Y-101689048D01*
X22725715Y-101628571D01*
X22725715Y-101749524D01*
X22725715Y-100963333D02*
X22798287Y-101023810D01*
X22725715Y-101084286D01*
X22653144Y-101023810D01*
X22725715Y-100963333D01*
X22725715Y-101084286D01*
X23741715Y-100479524D02*
X23886858Y-100479524D01*
X24032001Y-100540000D01*
X24104572Y-100600476D01*
X24177143Y-100721429D01*
X24249715Y-100963333D01*
X24249715Y-101265714D01*
X24177143Y-101507619D01*
X24104572Y-101628571D01*
X24032001Y-101689048D01*
X23886858Y-101749524D01*
X23741715Y-101749524D01*
X23596572Y-101689048D01*
X23524001Y-101628571D01*
X23451429Y-101507619D01*
X23378858Y-101265714D01*
X23378858Y-100963333D01*
X23451429Y-100721429D01*
X23524001Y-100600476D01*
X23596572Y-100540000D01*
X23741715Y-100479524D01*
X19750286Y-44689048D02*
X19968000Y-44749524D01*
X20330857Y-44749524D01*
X20476000Y-44689048D01*
X20548571Y-44628571D01*
X20621143Y-44507619D01*
X20621143Y-44386667D01*
X20548571Y-44265714D01*
X20476000Y-44205238D01*
X20330857Y-44144762D01*
X20040571Y-44084286D01*
X19895429Y-44023810D01*
X19822857Y-43963333D01*
X19750286Y-43842381D01*
X19750286Y-43721429D01*
X19822857Y-43600476D01*
X19895429Y-43540000D01*
X20040571Y-43479524D01*
X20403429Y-43479524D01*
X20621143Y-43540000D01*
X21129143Y-43479524D02*
X22072572Y-43479524D01*
X21564572Y-43963333D01*
X21782286Y-43963333D01*
X21927429Y-44023810D01*
X22000000Y-44084286D01*
X22072572Y-44205238D01*
X22072572Y-44507619D01*
X22000000Y-44628571D01*
X21927429Y-44689048D01*
X21782286Y-44749524D01*
X21346858Y-44749524D01*
X21201715Y-44689048D01*
X21129143Y-44628571D01*
X22725715Y-44628571D02*
X22798287Y-44689048D01*
X22725715Y-44749524D01*
X22653144Y-44689048D01*
X22725715Y-44628571D01*
X22725715Y-44749524D01*
X22725715Y-43963333D02*
X22798287Y-44023810D01*
X22725715Y-44084286D01*
X22653144Y-44023810D01*
X22725715Y-43963333D01*
X22725715Y-44084286D01*
X23741715Y-43479524D02*
X23886858Y-43479524D01*
X24032001Y-43540000D01*
X24104572Y-43600476D01*
X24177143Y-43721429D01*
X24249715Y-43963333D01*
X24249715Y-44265714D01*
X24177143Y-44507619D01*
X24104572Y-44628571D01*
X24032001Y-44689048D01*
X23886858Y-44749524D01*
X23741715Y-44749524D01*
X23596572Y-44689048D01*
X23524001Y-44628571D01*
X23451429Y-44507619D01*
X23378858Y-44265714D01*
X23378858Y-43963333D01*
X23451429Y-43721429D01*
X23524001Y-43600476D01*
X23596572Y-43540000D01*
X23741715Y-43479524D01*
M02*
