G04 #@! TF.FileFunction,Drawing*
%FSLAX46Y46*%
G04 Gerber Fmt 4.6, Leading zero omitted, Abs format (unit mm)*
G04 Created by KiCad (PCBNEW 4.0.1-stable) date 4/18/2016 2:15:21 AM*
%MOMM*%
G01*
G04 APERTURE LIST*
%ADD10C,0.100000*%
%ADD11C,0.152400*%
%ADD12C,0.304800*%
G04 APERTURE END LIST*
D10*
D11*
X202602000Y-50602000D02*
X221398000Y-50602000D01*
X221398000Y-50602000D02*
X221398000Y-69398000D01*
X221398000Y-69398000D02*
X202602000Y-69398000D01*
X202602000Y-69398000D02*
X202602000Y-50602000D01*
X221602000Y-31602000D02*
X240398000Y-31602000D01*
X240398000Y-31602000D02*
X240398000Y-50398000D01*
X240398000Y-50398000D02*
X221602000Y-50398000D01*
X221602000Y-50398000D02*
X221602000Y-31602000D01*
X259602000Y-50602000D02*
X278398000Y-50602000D01*
X278398000Y-50602000D02*
X278398000Y-69398000D01*
X278398000Y-69398000D02*
X259602000Y-69398000D01*
X259602000Y-69398000D02*
X259602000Y-50602000D01*
X259602000Y-12602000D02*
X278398000Y-12602000D01*
X278398000Y-12602000D02*
X278398000Y-31398000D01*
X278398000Y-31398000D02*
X259602000Y-31398000D01*
X259602000Y-31398000D02*
X259602000Y-12602000D01*
X259602000Y-69602000D02*
X278398000Y-69602000D01*
X278398000Y-69602000D02*
X278398000Y-88398000D01*
X278398000Y-88398000D02*
X259602000Y-88398000D01*
X259602000Y-88398000D02*
X259602000Y-69602000D01*
X259602000Y-88602000D02*
X278398000Y-88602000D01*
X278398000Y-88602000D02*
X278398000Y-107398000D01*
X278398000Y-107398000D02*
X259602000Y-107398000D01*
X259602000Y-107398000D02*
X259602000Y-88602000D01*
X259602000Y-31602000D02*
X278398000Y-31602000D01*
X278398000Y-31602000D02*
X278398000Y-50398000D01*
X278398000Y-50398000D02*
X259602000Y-50398000D01*
X259602000Y-50398000D02*
X259602000Y-31602000D01*
X221602000Y-50602000D02*
X240398000Y-50602000D01*
X240398000Y-50602000D02*
X240398000Y-69398000D01*
X240398000Y-69398000D02*
X221602000Y-69398000D01*
X221602000Y-69398000D02*
X221602000Y-50602000D01*
X221602000Y-69602000D02*
X240398000Y-69602000D01*
X240398000Y-69602000D02*
X240398000Y-88398000D01*
X240398000Y-88398000D02*
X221602000Y-88398000D01*
X221602000Y-88398000D02*
X221602000Y-69602000D01*
X221602000Y-88602000D02*
X240398000Y-88602000D01*
X240398000Y-88602000D02*
X240398000Y-107398000D01*
X240398000Y-107398000D02*
X221602000Y-107398000D01*
X221602000Y-107398000D02*
X221602000Y-88602000D01*
X240602000Y-31602000D02*
X259398000Y-31602000D01*
X259398000Y-31602000D02*
X259398000Y-50398000D01*
X259398000Y-50398000D02*
X240602000Y-50398000D01*
X240602000Y-50398000D02*
X240602000Y-31602000D01*
X240602000Y-88602000D02*
X259398000Y-88602000D01*
X259398000Y-88602000D02*
X259398000Y-107398000D01*
X259398000Y-107398000D02*
X240602000Y-107398000D01*
X240602000Y-107398000D02*
X240602000Y-88602000D01*
X240602000Y-69602000D02*
X259398000Y-69602000D01*
X259398000Y-69602000D02*
X259398000Y-88398000D01*
X259398000Y-88398000D02*
X240602000Y-88398000D01*
X240602000Y-88398000D02*
X240602000Y-69602000D01*
X240602000Y-12602000D02*
X259398000Y-12602000D01*
X259398000Y-12602000D02*
X259398000Y-31398000D01*
X259398000Y-31398000D02*
X240602000Y-31398000D01*
X240602000Y-31398000D02*
X240602000Y-12602000D01*
X240602000Y-50602000D02*
X259398000Y-50602000D01*
X259398000Y-50602000D02*
X259398000Y-69398000D01*
X259398000Y-69398000D02*
X240602000Y-69398000D01*
X240602000Y-69398000D02*
X240602000Y-50602000D01*
X221602000Y-12602000D02*
X240398000Y-12602000D01*
X240398000Y-12602000D02*
X240398000Y-31398000D01*
X240398000Y-31398000D02*
X221602000Y-31398000D01*
X221602000Y-31398000D02*
X221602000Y-12602000D01*
X107602000Y-50602000D02*
X126398000Y-50602000D01*
X126398000Y-50602000D02*
X126398000Y-69398000D01*
X126398000Y-69398000D02*
X107602000Y-69398000D01*
X107602000Y-69398000D02*
X107602000Y-50602000D01*
X107602000Y-12602000D02*
X126398000Y-12602000D01*
X126398000Y-12602000D02*
X126398000Y-31398000D01*
X126398000Y-31398000D02*
X107602000Y-31398000D01*
X107602000Y-31398000D02*
X107602000Y-12602000D01*
X107602000Y-69602000D02*
X126398000Y-69602000D01*
X126398000Y-69602000D02*
X126398000Y-88398000D01*
X126398000Y-88398000D02*
X107602000Y-88398000D01*
X107602000Y-88398000D02*
X107602000Y-69602000D01*
X126398000Y-88602000D02*
X126398000Y-107398000D01*
X126398000Y-107398000D02*
X107602000Y-107398000D01*
X107602000Y-107398000D02*
X107602000Y-88602000D01*
X107602000Y-88602000D02*
X126398000Y-88602000D01*
X107602000Y-31602000D02*
X126398000Y-31602000D01*
X126398000Y-31602000D02*
X126398000Y-50398000D01*
X126398000Y-50398000D02*
X107602000Y-50398000D01*
X107602000Y-50398000D02*
X107602000Y-31602000D01*
X126602000Y-31602000D02*
X145398000Y-31602000D01*
X145398000Y-31602000D02*
X145398000Y-50398000D01*
X145398000Y-50398000D02*
X126602000Y-50398000D01*
X126602000Y-50398000D02*
X126602000Y-31602000D01*
X126602000Y-88602000D02*
X145398000Y-88602000D01*
X145398000Y-88602000D02*
X145398000Y-107398000D01*
X145398000Y-107398000D02*
X126602000Y-107398000D01*
X126602000Y-107398000D02*
X126602000Y-88602000D01*
X126602000Y-69602000D02*
X145398000Y-69602000D01*
X145398000Y-69602000D02*
X145398000Y-88398000D01*
X145398000Y-88398000D02*
X126602000Y-88398000D01*
X126602000Y-88398000D02*
X126602000Y-69602000D01*
X145602000Y-12602000D02*
X164398000Y-12602000D01*
X164398000Y-12602000D02*
X164398000Y-31398000D01*
X164398000Y-31398000D02*
X145602000Y-31398000D01*
X145602000Y-31398000D02*
X145602000Y-12602000D01*
X126602000Y-12602000D02*
X145398000Y-12602000D01*
X145398000Y-12602000D02*
X145398000Y-31398000D01*
X145398000Y-31398000D02*
X126602000Y-31398000D01*
X126602000Y-31398000D02*
X126602000Y-12602000D01*
X145602000Y-31602000D02*
X164398000Y-31602000D01*
X164398000Y-31602000D02*
X164398000Y-50398000D01*
X164398000Y-50398000D02*
X145602000Y-50398000D01*
X145602000Y-50398000D02*
X145602000Y-31602000D01*
X126602000Y-50602000D02*
X145398000Y-50602000D01*
X145398000Y-50602000D02*
X145398000Y-69398000D01*
X145398000Y-69398000D02*
X126602000Y-69398000D01*
X126602000Y-69398000D02*
X126602000Y-50602000D01*
X164602000Y-31602000D02*
X183398000Y-31602000D01*
X183398000Y-31602000D02*
X183398000Y-50398000D01*
X183398000Y-50398000D02*
X164602000Y-50398000D01*
X164602000Y-50398000D02*
X164602000Y-31602000D01*
X164602000Y-12602000D02*
X183398000Y-12602000D01*
X183398000Y-12602000D02*
X183398000Y-31398000D01*
X183398000Y-31398000D02*
X164602000Y-31398000D01*
X164602000Y-31398000D02*
X164602000Y-12602000D01*
X183602000Y-31602000D02*
X202398000Y-31602000D01*
X202398000Y-31602000D02*
X202398000Y-50398000D01*
X202398000Y-50398000D02*
X183602000Y-50398000D01*
X183602000Y-50398000D02*
X183602000Y-31602000D01*
X183602000Y-12602000D02*
X202398000Y-12602000D01*
X202398000Y-12602000D02*
X202398000Y-31398000D01*
X202398000Y-31398000D02*
X183602000Y-31398000D01*
X183602000Y-31398000D02*
X183602000Y-12602000D01*
X202602000Y-12602000D02*
X221398000Y-12602000D01*
X221398000Y-12602000D02*
X221398000Y-31398000D01*
X221398000Y-31398000D02*
X202602000Y-31398000D01*
X202602000Y-31398000D02*
X202602000Y-12602000D01*
X202602000Y-69602000D02*
X221398000Y-69602000D01*
X221398000Y-69602000D02*
X221398000Y-88398000D01*
X221398000Y-88398000D02*
X202602000Y-88398000D01*
X202602000Y-88398000D02*
X202602000Y-69602000D01*
X202602000Y-88602000D02*
X221398000Y-88602000D01*
X221398000Y-88602000D02*
X221398000Y-107398000D01*
X221398000Y-107398000D02*
X202602000Y-107398000D01*
X202602000Y-107398000D02*
X202602000Y-88602000D01*
X202602000Y-31602000D02*
X221398000Y-31602000D01*
X221398000Y-31602000D02*
X221398000Y-50398000D01*
X221398000Y-50398000D02*
X202602000Y-50398000D01*
X202602000Y-50398000D02*
X202602000Y-31602000D01*
X145602000Y-50602000D02*
X164398000Y-50602000D01*
X164398000Y-50602000D02*
X164398000Y-69398000D01*
X164398000Y-69398000D02*
X145602000Y-69398000D01*
X145602000Y-69398000D02*
X145602000Y-50602000D01*
X145602000Y-69602000D02*
X164398000Y-69602000D01*
X164398000Y-69602000D02*
X164398000Y-88398000D01*
X164398000Y-88398000D02*
X145602000Y-88398000D01*
X145602000Y-88398000D02*
X145602000Y-69602000D01*
X145602000Y-88602000D02*
X164398000Y-88602000D01*
X164398000Y-88602000D02*
X164398000Y-107398000D01*
X164398000Y-107398000D02*
X145602000Y-107398000D01*
X145602000Y-107398000D02*
X145602000Y-88602000D01*
X183602000Y-88602000D02*
X202398000Y-88602000D01*
X202398000Y-88602000D02*
X202398000Y-107398000D01*
X202398000Y-107398000D02*
X183602000Y-107398000D01*
X183602000Y-107398000D02*
X183602000Y-88602000D01*
X183602000Y-69602000D02*
X202398000Y-69602000D01*
X202398000Y-69602000D02*
X202398000Y-88398000D01*
X202398000Y-88398000D02*
X183602000Y-88398000D01*
X183602000Y-88398000D02*
X183602000Y-69602000D01*
X183602000Y-50602000D02*
X202398000Y-50602000D01*
X202398000Y-50602000D02*
X202398000Y-69398000D01*
X202398000Y-69398000D02*
X183602000Y-69398000D01*
X183602000Y-69398000D02*
X183602000Y-50602000D01*
X164602000Y-50602000D02*
X183398000Y-50602000D01*
X183398000Y-50602000D02*
X183398000Y-69398000D01*
X183398000Y-69398000D02*
X164602000Y-69398000D01*
X164602000Y-69398000D02*
X164602000Y-50602000D01*
X164602000Y-69602000D02*
X183398000Y-69602000D01*
X183398000Y-69602000D02*
X183398000Y-88398000D01*
X183398000Y-88398000D02*
X164602000Y-88398000D01*
X164602000Y-88398000D02*
X164602000Y-69602000D01*
X164602000Y-107398000D02*
X164602000Y-88602000D01*
X164602000Y-88602000D02*
X183398000Y-88602000D01*
X183398000Y-88602000D02*
X183398000Y-107398000D01*
X183398000Y-107398000D02*
X164602000Y-107398000D01*
X50602000Y-88602000D02*
X69398000Y-88602000D01*
X69398000Y-88602000D02*
X69398000Y-107398000D01*
X69398000Y-107398000D02*
X50602000Y-107398000D01*
X50602000Y-107398000D02*
X50602000Y-88602000D01*
X50602000Y-69602000D02*
X69398000Y-69602000D01*
X69398000Y-69602000D02*
X69398000Y-88398000D01*
X69398000Y-88398000D02*
X50602000Y-88398000D01*
X50602000Y-88398000D02*
X50602000Y-69602000D01*
X50602000Y-50602000D02*
X69398000Y-50602000D01*
X69398000Y-50602000D02*
X69398000Y-69398000D01*
X69398000Y-69398000D02*
X50602000Y-69398000D01*
X50602000Y-69398000D02*
X50602000Y-50602000D01*
X69602000Y-50602000D02*
X88398000Y-50602000D01*
X88398000Y-50602000D02*
X88398000Y-69398000D01*
X88398000Y-69398000D02*
X69602000Y-69398000D01*
X69602000Y-69398000D02*
X69602000Y-50602000D01*
X69602000Y-69602000D02*
X88398000Y-69602000D01*
X88398000Y-69602000D02*
X88398000Y-88398000D01*
X88398000Y-88398000D02*
X69602000Y-88398000D01*
X69602000Y-88398000D02*
X69602000Y-69602000D01*
X69602000Y-88602000D02*
X88398000Y-88602000D01*
X88398000Y-88602000D02*
X88398000Y-107398000D01*
X88398000Y-107398000D02*
X69602000Y-107398000D01*
X69602000Y-107398000D02*
X69602000Y-88602000D01*
X31602000Y-88602000D02*
X50398000Y-88602000D01*
X50398000Y-88602000D02*
X50398000Y-107398000D01*
X50398000Y-107398000D02*
X31602000Y-107398000D01*
X31602000Y-107398000D02*
X31602000Y-88602000D01*
X31602000Y-69602000D02*
X50398000Y-69602000D01*
X50398000Y-69602000D02*
X50398000Y-88398000D01*
X50398000Y-88398000D02*
X31602000Y-88398000D01*
X31602000Y-88398000D02*
X31602000Y-69602000D01*
X31602000Y-50602000D02*
X50398000Y-50602000D01*
X50398000Y-50602000D02*
X50398000Y-69398000D01*
X50398000Y-69398000D02*
X31602000Y-69398000D01*
X31602000Y-69398000D02*
X31602000Y-50602000D01*
X88602000Y-31602000D02*
X107398000Y-31602000D01*
X107398000Y-31602000D02*
X107398000Y-50398000D01*
X107398000Y-50398000D02*
X88602000Y-50398000D01*
X88602000Y-50398000D02*
X88602000Y-31602000D01*
X88602000Y-88602000D02*
X107398000Y-88602000D01*
X107398000Y-88602000D02*
X107398000Y-107398000D01*
X107398000Y-107398000D02*
X88602000Y-107398000D01*
X88602000Y-107398000D02*
X88602000Y-88602000D01*
X88602000Y-69602000D02*
X107398000Y-69602000D01*
X107398000Y-69602000D02*
X107398000Y-88398000D01*
X107398000Y-88398000D02*
X88602000Y-88398000D01*
X88602000Y-88398000D02*
X88602000Y-69602000D01*
X88602000Y-12602000D02*
X107398000Y-12602000D01*
X107398000Y-12602000D02*
X107398000Y-31398000D01*
X107398000Y-31398000D02*
X88602000Y-31398000D01*
X88602000Y-31398000D02*
X88602000Y-12602000D01*
X88602000Y-50602000D02*
X107398000Y-50602000D01*
X107398000Y-50602000D02*
X107398000Y-69398000D01*
X107398000Y-69398000D02*
X88602000Y-69398000D01*
X88602000Y-69398000D02*
X88602000Y-50602000D01*
X69602000Y-12602000D02*
X88398000Y-12602000D01*
X88398000Y-12602000D02*
X88398000Y-31398000D01*
X88398000Y-31398000D02*
X69602000Y-31398000D01*
X69602000Y-31398000D02*
X69602000Y-12602000D01*
X69602000Y-31602000D02*
X88398000Y-31602000D01*
X88398000Y-31602000D02*
X88398000Y-50398000D01*
X88398000Y-50398000D02*
X69602000Y-50398000D01*
X69602000Y-50398000D02*
X69602000Y-31602000D01*
X50602000Y-12602000D02*
X69398000Y-12602000D01*
X69398000Y-12602000D02*
X69398000Y-31398000D01*
X69398000Y-31398000D02*
X50602000Y-31398000D01*
X50602000Y-31398000D02*
X50602000Y-12602000D01*
X50602000Y-31602000D02*
X69398000Y-31602000D01*
X69398000Y-31602000D02*
X69398000Y-50398000D01*
X69398000Y-50398000D02*
X50602000Y-50398000D01*
X50602000Y-50398000D02*
X50602000Y-31602000D01*
X12602000Y-50602000D02*
X31398000Y-50602000D01*
X31398000Y-50602000D02*
X31398000Y-69398000D01*
X31398000Y-69398000D02*
X12602000Y-69398000D01*
X12602000Y-69398000D02*
X12602000Y-50602000D01*
X31602000Y-31602000D02*
X50398000Y-31602000D01*
X50398000Y-31602000D02*
X50398000Y-50398000D01*
X50398000Y-50398000D02*
X31602000Y-50398000D01*
X31602000Y-50398000D02*
X31602000Y-31602000D01*
X12602000Y-12602000D02*
X31398000Y-12602000D01*
X31398000Y-12602000D02*
X31398000Y-31398000D01*
X31398000Y-31398000D02*
X12602000Y-31398000D01*
X12602000Y-31398000D02*
X12602000Y-12602000D01*
X31602000Y-12602000D02*
X50398000Y-12602000D01*
X50398000Y-12602000D02*
X50398000Y-31398000D01*
X50398000Y-31398000D02*
X31602000Y-31398000D01*
X31602000Y-31398000D02*
X31602000Y-12602000D01*
X12602000Y-69602000D02*
X31398000Y-69602000D01*
X31398000Y-69602000D02*
X31398000Y-88398000D01*
X31398000Y-88398000D02*
X12602000Y-88398000D01*
X12602000Y-88398000D02*
X12602000Y-69602000D01*
X12602000Y-88602000D02*
X31398000Y-88602000D01*
X31398000Y-88602000D02*
X31398000Y-107398000D01*
X31398000Y-107398000D02*
X12602000Y-107398000D01*
X12602000Y-107398000D02*
X12602000Y-88602000D01*
X12602000Y-31602000D02*
X31398000Y-31602000D01*
X31398000Y-31602000D02*
X31398000Y-50398000D01*
X31398000Y-50398000D02*
X12602000Y-50398000D01*
X12602000Y-50398000D02*
X12602000Y-31602000D01*
D12*
X204216714Y-68944429D02*
X203345857Y-68944429D01*
X203781285Y-68944429D02*
X203781285Y-67420429D01*
X203636142Y-67638143D01*
X203491000Y-67783286D01*
X203345857Y-67855857D01*
X204869857Y-68799286D02*
X204942429Y-68871857D01*
X204869857Y-68944429D01*
X204797286Y-68871857D01*
X204869857Y-68799286D01*
X204869857Y-68944429D01*
X205885857Y-67420429D02*
X206031000Y-67420429D01*
X206176143Y-67493000D01*
X206248714Y-67565571D01*
X206321285Y-67710714D01*
X206393857Y-68001000D01*
X206393857Y-68363857D01*
X206321285Y-68654143D01*
X206248714Y-68799286D01*
X206176143Y-68871857D01*
X206031000Y-68944429D01*
X205885857Y-68944429D01*
X205740714Y-68871857D01*
X205668143Y-68799286D01*
X205595571Y-68654143D01*
X205523000Y-68363857D01*
X205523000Y-68001000D01*
X205595571Y-67710714D01*
X205668143Y-67565571D01*
X205740714Y-67493000D01*
X205885857Y-67420429D01*
X207337286Y-67420429D02*
X207482429Y-67420429D01*
X207627572Y-67493000D01*
X207700143Y-67565571D01*
X207772714Y-67710714D01*
X207845286Y-68001000D01*
X207845286Y-68363857D01*
X207772714Y-68654143D01*
X207700143Y-68799286D01*
X207627572Y-68871857D01*
X207482429Y-68944429D01*
X207337286Y-68944429D01*
X207192143Y-68871857D01*
X207119572Y-68799286D01*
X207047000Y-68654143D01*
X206974429Y-68363857D01*
X206974429Y-68001000D01*
X207047000Y-67710714D01*
X207119572Y-67565571D01*
X207192143Y-67493000D01*
X207337286Y-67420429D01*
X209151572Y-67928429D02*
X209151572Y-68944429D01*
X208498429Y-67928429D02*
X208498429Y-68726714D01*
X208571001Y-68871857D01*
X208716143Y-68944429D01*
X208933858Y-68944429D01*
X209079001Y-68871857D01*
X209151572Y-68799286D01*
X223216714Y-49944429D02*
X222345857Y-49944429D01*
X222781285Y-49944429D02*
X222781285Y-48420429D01*
X222636142Y-48638143D01*
X222491000Y-48783286D01*
X222345857Y-48855857D01*
X223869857Y-49799286D02*
X223942429Y-49871857D01*
X223869857Y-49944429D01*
X223797286Y-49871857D01*
X223869857Y-49799286D01*
X223869857Y-49944429D01*
X224885857Y-48420429D02*
X225031000Y-48420429D01*
X225176143Y-48493000D01*
X225248714Y-48565571D01*
X225321285Y-48710714D01*
X225393857Y-49001000D01*
X225393857Y-49363857D01*
X225321285Y-49654143D01*
X225248714Y-49799286D01*
X225176143Y-49871857D01*
X225031000Y-49944429D01*
X224885857Y-49944429D01*
X224740714Y-49871857D01*
X224668143Y-49799286D01*
X224595571Y-49654143D01*
X224523000Y-49363857D01*
X224523000Y-49001000D01*
X224595571Y-48710714D01*
X224668143Y-48565571D01*
X224740714Y-48493000D01*
X224885857Y-48420429D01*
X226337286Y-48420429D02*
X226482429Y-48420429D01*
X226627572Y-48493000D01*
X226700143Y-48565571D01*
X226772714Y-48710714D01*
X226845286Y-49001000D01*
X226845286Y-49363857D01*
X226772714Y-49654143D01*
X226700143Y-49799286D01*
X226627572Y-49871857D01*
X226482429Y-49944429D01*
X226337286Y-49944429D01*
X226192143Y-49871857D01*
X226119572Y-49799286D01*
X226047000Y-49654143D01*
X225974429Y-49363857D01*
X225974429Y-49001000D01*
X226047000Y-48710714D01*
X226119572Y-48565571D01*
X226192143Y-48493000D01*
X226337286Y-48420429D01*
X228151572Y-48928429D02*
X228151572Y-49944429D01*
X227498429Y-48928429D02*
X227498429Y-49726714D01*
X227571001Y-49871857D01*
X227716143Y-49944429D01*
X227933858Y-49944429D01*
X228079001Y-49871857D01*
X228151572Y-49799286D01*
X261216714Y-68944429D02*
X260345857Y-68944429D01*
X260781285Y-68944429D02*
X260781285Y-67420429D01*
X260636142Y-67638143D01*
X260491000Y-67783286D01*
X260345857Y-67855857D01*
X261869857Y-68799286D02*
X261942429Y-68871857D01*
X261869857Y-68944429D01*
X261797286Y-68871857D01*
X261869857Y-68799286D01*
X261869857Y-68944429D01*
X262885857Y-67420429D02*
X263031000Y-67420429D01*
X263176143Y-67493000D01*
X263248714Y-67565571D01*
X263321285Y-67710714D01*
X263393857Y-68001000D01*
X263393857Y-68363857D01*
X263321285Y-68654143D01*
X263248714Y-68799286D01*
X263176143Y-68871857D01*
X263031000Y-68944429D01*
X262885857Y-68944429D01*
X262740714Y-68871857D01*
X262668143Y-68799286D01*
X262595571Y-68654143D01*
X262523000Y-68363857D01*
X262523000Y-68001000D01*
X262595571Y-67710714D01*
X262668143Y-67565571D01*
X262740714Y-67493000D01*
X262885857Y-67420429D01*
X264337286Y-67420429D02*
X264482429Y-67420429D01*
X264627572Y-67493000D01*
X264700143Y-67565571D01*
X264772714Y-67710714D01*
X264845286Y-68001000D01*
X264845286Y-68363857D01*
X264772714Y-68654143D01*
X264700143Y-68799286D01*
X264627572Y-68871857D01*
X264482429Y-68944429D01*
X264337286Y-68944429D01*
X264192143Y-68871857D01*
X264119572Y-68799286D01*
X264047000Y-68654143D01*
X263974429Y-68363857D01*
X263974429Y-68001000D01*
X264047000Y-67710714D01*
X264119572Y-67565571D01*
X264192143Y-67493000D01*
X264337286Y-67420429D01*
X266151572Y-67928429D02*
X266151572Y-68944429D01*
X265498429Y-67928429D02*
X265498429Y-68726714D01*
X265571001Y-68871857D01*
X265716143Y-68944429D01*
X265933858Y-68944429D01*
X266079001Y-68871857D01*
X266151572Y-68799286D01*
X261216714Y-30944429D02*
X260345857Y-30944429D01*
X260781285Y-30944429D02*
X260781285Y-29420429D01*
X260636142Y-29638143D01*
X260491000Y-29783286D01*
X260345857Y-29855857D01*
X261869857Y-30799286D02*
X261942429Y-30871857D01*
X261869857Y-30944429D01*
X261797286Y-30871857D01*
X261869857Y-30799286D01*
X261869857Y-30944429D01*
X262885857Y-29420429D02*
X263031000Y-29420429D01*
X263176143Y-29493000D01*
X263248714Y-29565571D01*
X263321285Y-29710714D01*
X263393857Y-30001000D01*
X263393857Y-30363857D01*
X263321285Y-30654143D01*
X263248714Y-30799286D01*
X263176143Y-30871857D01*
X263031000Y-30944429D01*
X262885857Y-30944429D01*
X262740714Y-30871857D01*
X262668143Y-30799286D01*
X262595571Y-30654143D01*
X262523000Y-30363857D01*
X262523000Y-30001000D01*
X262595571Y-29710714D01*
X262668143Y-29565571D01*
X262740714Y-29493000D01*
X262885857Y-29420429D01*
X264337286Y-29420429D02*
X264482429Y-29420429D01*
X264627572Y-29493000D01*
X264700143Y-29565571D01*
X264772714Y-29710714D01*
X264845286Y-30001000D01*
X264845286Y-30363857D01*
X264772714Y-30654143D01*
X264700143Y-30799286D01*
X264627572Y-30871857D01*
X264482429Y-30944429D01*
X264337286Y-30944429D01*
X264192143Y-30871857D01*
X264119572Y-30799286D01*
X264047000Y-30654143D01*
X263974429Y-30363857D01*
X263974429Y-30001000D01*
X264047000Y-29710714D01*
X264119572Y-29565571D01*
X264192143Y-29493000D01*
X264337286Y-29420429D01*
X266151572Y-29928429D02*
X266151572Y-30944429D01*
X265498429Y-29928429D02*
X265498429Y-30726714D01*
X265571001Y-30871857D01*
X265716143Y-30944429D01*
X265933858Y-30944429D01*
X266079001Y-30871857D01*
X266151572Y-30799286D01*
X261216714Y-87944429D02*
X260345857Y-87944429D01*
X260781285Y-87944429D02*
X260781285Y-86420429D01*
X260636142Y-86638143D01*
X260491000Y-86783286D01*
X260345857Y-86855857D01*
X261869857Y-87799286D02*
X261942429Y-87871857D01*
X261869857Y-87944429D01*
X261797286Y-87871857D01*
X261869857Y-87799286D01*
X261869857Y-87944429D01*
X262885857Y-86420429D02*
X263031000Y-86420429D01*
X263176143Y-86493000D01*
X263248714Y-86565571D01*
X263321285Y-86710714D01*
X263393857Y-87001000D01*
X263393857Y-87363857D01*
X263321285Y-87654143D01*
X263248714Y-87799286D01*
X263176143Y-87871857D01*
X263031000Y-87944429D01*
X262885857Y-87944429D01*
X262740714Y-87871857D01*
X262668143Y-87799286D01*
X262595571Y-87654143D01*
X262523000Y-87363857D01*
X262523000Y-87001000D01*
X262595571Y-86710714D01*
X262668143Y-86565571D01*
X262740714Y-86493000D01*
X262885857Y-86420429D01*
X264337286Y-86420429D02*
X264482429Y-86420429D01*
X264627572Y-86493000D01*
X264700143Y-86565571D01*
X264772714Y-86710714D01*
X264845286Y-87001000D01*
X264845286Y-87363857D01*
X264772714Y-87654143D01*
X264700143Y-87799286D01*
X264627572Y-87871857D01*
X264482429Y-87944429D01*
X264337286Y-87944429D01*
X264192143Y-87871857D01*
X264119572Y-87799286D01*
X264047000Y-87654143D01*
X263974429Y-87363857D01*
X263974429Y-87001000D01*
X264047000Y-86710714D01*
X264119572Y-86565571D01*
X264192143Y-86493000D01*
X264337286Y-86420429D01*
X266151572Y-86928429D02*
X266151572Y-87944429D01*
X265498429Y-86928429D02*
X265498429Y-87726714D01*
X265571001Y-87871857D01*
X265716143Y-87944429D01*
X265933858Y-87944429D01*
X266079001Y-87871857D01*
X266151572Y-87799286D01*
X261216714Y-106944429D02*
X260345857Y-106944429D01*
X260781285Y-106944429D02*
X260781285Y-105420429D01*
X260636142Y-105638143D01*
X260491000Y-105783286D01*
X260345857Y-105855857D01*
X261869857Y-106799286D02*
X261942429Y-106871857D01*
X261869857Y-106944429D01*
X261797286Y-106871857D01*
X261869857Y-106799286D01*
X261869857Y-106944429D01*
X262885857Y-105420429D02*
X263031000Y-105420429D01*
X263176143Y-105493000D01*
X263248714Y-105565571D01*
X263321285Y-105710714D01*
X263393857Y-106001000D01*
X263393857Y-106363857D01*
X263321285Y-106654143D01*
X263248714Y-106799286D01*
X263176143Y-106871857D01*
X263031000Y-106944429D01*
X262885857Y-106944429D01*
X262740714Y-106871857D01*
X262668143Y-106799286D01*
X262595571Y-106654143D01*
X262523000Y-106363857D01*
X262523000Y-106001000D01*
X262595571Y-105710714D01*
X262668143Y-105565571D01*
X262740714Y-105493000D01*
X262885857Y-105420429D01*
X264337286Y-105420429D02*
X264482429Y-105420429D01*
X264627572Y-105493000D01*
X264700143Y-105565571D01*
X264772714Y-105710714D01*
X264845286Y-106001000D01*
X264845286Y-106363857D01*
X264772714Y-106654143D01*
X264700143Y-106799286D01*
X264627572Y-106871857D01*
X264482429Y-106944429D01*
X264337286Y-106944429D01*
X264192143Y-106871857D01*
X264119572Y-106799286D01*
X264047000Y-106654143D01*
X263974429Y-106363857D01*
X263974429Y-106001000D01*
X264047000Y-105710714D01*
X264119572Y-105565571D01*
X264192143Y-105493000D01*
X264337286Y-105420429D01*
X266151572Y-105928429D02*
X266151572Y-106944429D01*
X265498429Y-105928429D02*
X265498429Y-106726714D01*
X265571001Y-106871857D01*
X265716143Y-106944429D01*
X265933858Y-106944429D01*
X266079001Y-106871857D01*
X266151572Y-106799286D01*
X261216714Y-49944429D02*
X260345857Y-49944429D01*
X260781285Y-49944429D02*
X260781285Y-48420429D01*
X260636142Y-48638143D01*
X260491000Y-48783286D01*
X260345857Y-48855857D01*
X261869857Y-49799286D02*
X261942429Y-49871857D01*
X261869857Y-49944429D01*
X261797286Y-49871857D01*
X261869857Y-49799286D01*
X261869857Y-49944429D01*
X262885857Y-48420429D02*
X263031000Y-48420429D01*
X263176143Y-48493000D01*
X263248714Y-48565571D01*
X263321285Y-48710714D01*
X263393857Y-49001000D01*
X263393857Y-49363857D01*
X263321285Y-49654143D01*
X263248714Y-49799286D01*
X263176143Y-49871857D01*
X263031000Y-49944429D01*
X262885857Y-49944429D01*
X262740714Y-49871857D01*
X262668143Y-49799286D01*
X262595571Y-49654143D01*
X262523000Y-49363857D01*
X262523000Y-49001000D01*
X262595571Y-48710714D01*
X262668143Y-48565571D01*
X262740714Y-48493000D01*
X262885857Y-48420429D01*
X264337286Y-48420429D02*
X264482429Y-48420429D01*
X264627572Y-48493000D01*
X264700143Y-48565571D01*
X264772714Y-48710714D01*
X264845286Y-49001000D01*
X264845286Y-49363857D01*
X264772714Y-49654143D01*
X264700143Y-49799286D01*
X264627572Y-49871857D01*
X264482429Y-49944429D01*
X264337286Y-49944429D01*
X264192143Y-49871857D01*
X264119572Y-49799286D01*
X264047000Y-49654143D01*
X263974429Y-49363857D01*
X263974429Y-49001000D01*
X264047000Y-48710714D01*
X264119572Y-48565571D01*
X264192143Y-48493000D01*
X264337286Y-48420429D01*
X266151572Y-48928429D02*
X266151572Y-49944429D01*
X265498429Y-48928429D02*
X265498429Y-49726714D01*
X265571001Y-49871857D01*
X265716143Y-49944429D01*
X265933858Y-49944429D01*
X266079001Y-49871857D01*
X266151572Y-49799286D01*
X223216714Y-68944429D02*
X222345857Y-68944429D01*
X222781285Y-68944429D02*
X222781285Y-67420429D01*
X222636142Y-67638143D01*
X222491000Y-67783286D01*
X222345857Y-67855857D01*
X223869857Y-68799286D02*
X223942429Y-68871857D01*
X223869857Y-68944429D01*
X223797286Y-68871857D01*
X223869857Y-68799286D01*
X223869857Y-68944429D01*
X224885857Y-67420429D02*
X225031000Y-67420429D01*
X225176143Y-67493000D01*
X225248714Y-67565571D01*
X225321285Y-67710714D01*
X225393857Y-68001000D01*
X225393857Y-68363857D01*
X225321285Y-68654143D01*
X225248714Y-68799286D01*
X225176143Y-68871857D01*
X225031000Y-68944429D01*
X224885857Y-68944429D01*
X224740714Y-68871857D01*
X224668143Y-68799286D01*
X224595571Y-68654143D01*
X224523000Y-68363857D01*
X224523000Y-68001000D01*
X224595571Y-67710714D01*
X224668143Y-67565571D01*
X224740714Y-67493000D01*
X224885857Y-67420429D01*
X226337286Y-67420429D02*
X226482429Y-67420429D01*
X226627572Y-67493000D01*
X226700143Y-67565571D01*
X226772714Y-67710714D01*
X226845286Y-68001000D01*
X226845286Y-68363857D01*
X226772714Y-68654143D01*
X226700143Y-68799286D01*
X226627572Y-68871857D01*
X226482429Y-68944429D01*
X226337286Y-68944429D01*
X226192143Y-68871857D01*
X226119572Y-68799286D01*
X226047000Y-68654143D01*
X225974429Y-68363857D01*
X225974429Y-68001000D01*
X226047000Y-67710714D01*
X226119572Y-67565571D01*
X226192143Y-67493000D01*
X226337286Y-67420429D01*
X228151572Y-67928429D02*
X228151572Y-68944429D01*
X227498429Y-67928429D02*
X227498429Y-68726714D01*
X227571001Y-68871857D01*
X227716143Y-68944429D01*
X227933858Y-68944429D01*
X228079001Y-68871857D01*
X228151572Y-68799286D01*
X223216714Y-87944429D02*
X222345857Y-87944429D01*
X222781285Y-87944429D02*
X222781285Y-86420429D01*
X222636142Y-86638143D01*
X222491000Y-86783286D01*
X222345857Y-86855857D01*
X223869857Y-87799286D02*
X223942429Y-87871857D01*
X223869857Y-87944429D01*
X223797286Y-87871857D01*
X223869857Y-87799286D01*
X223869857Y-87944429D01*
X224885857Y-86420429D02*
X225031000Y-86420429D01*
X225176143Y-86493000D01*
X225248714Y-86565571D01*
X225321285Y-86710714D01*
X225393857Y-87001000D01*
X225393857Y-87363857D01*
X225321285Y-87654143D01*
X225248714Y-87799286D01*
X225176143Y-87871857D01*
X225031000Y-87944429D01*
X224885857Y-87944429D01*
X224740714Y-87871857D01*
X224668143Y-87799286D01*
X224595571Y-87654143D01*
X224523000Y-87363857D01*
X224523000Y-87001000D01*
X224595571Y-86710714D01*
X224668143Y-86565571D01*
X224740714Y-86493000D01*
X224885857Y-86420429D01*
X226337286Y-86420429D02*
X226482429Y-86420429D01*
X226627572Y-86493000D01*
X226700143Y-86565571D01*
X226772714Y-86710714D01*
X226845286Y-87001000D01*
X226845286Y-87363857D01*
X226772714Y-87654143D01*
X226700143Y-87799286D01*
X226627572Y-87871857D01*
X226482429Y-87944429D01*
X226337286Y-87944429D01*
X226192143Y-87871857D01*
X226119572Y-87799286D01*
X226047000Y-87654143D01*
X225974429Y-87363857D01*
X225974429Y-87001000D01*
X226047000Y-86710714D01*
X226119572Y-86565571D01*
X226192143Y-86493000D01*
X226337286Y-86420429D01*
X228151572Y-86928429D02*
X228151572Y-87944429D01*
X227498429Y-86928429D02*
X227498429Y-87726714D01*
X227571001Y-87871857D01*
X227716143Y-87944429D01*
X227933858Y-87944429D01*
X228079001Y-87871857D01*
X228151572Y-87799286D01*
X223216714Y-106944429D02*
X222345857Y-106944429D01*
X222781285Y-106944429D02*
X222781285Y-105420429D01*
X222636142Y-105638143D01*
X222491000Y-105783286D01*
X222345857Y-105855857D01*
X223869857Y-106799286D02*
X223942429Y-106871857D01*
X223869857Y-106944429D01*
X223797286Y-106871857D01*
X223869857Y-106799286D01*
X223869857Y-106944429D01*
X224885857Y-105420429D02*
X225031000Y-105420429D01*
X225176143Y-105493000D01*
X225248714Y-105565571D01*
X225321285Y-105710714D01*
X225393857Y-106001000D01*
X225393857Y-106363857D01*
X225321285Y-106654143D01*
X225248714Y-106799286D01*
X225176143Y-106871857D01*
X225031000Y-106944429D01*
X224885857Y-106944429D01*
X224740714Y-106871857D01*
X224668143Y-106799286D01*
X224595571Y-106654143D01*
X224523000Y-106363857D01*
X224523000Y-106001000D01*
X224595571Y-105710714D01*
X224668143Y-105565571D01*
X224740714Y-105493000D01*
X224885857Y-105420429D01*
X226337286Y-105420429D02*
X226482429Y-105420429D01*
X226627572Y-105493000D01*
X226700143Y-105565571D01*
X226772714Y-105710714D01*
X226845286Y-106001000D01*
X226845286Y-106363857D01*
X226772714Y-106654143D01*
X226700143Y-106799286D01*
X226627572Y-106871857D01*
X226482429Y-106944429D01*
X226337286Y-106944429D01*
X226192143Y-106871857D01*
X226119572Y-106799286D01*
X226047000Y-106654143D01*
X225974429Y-106363857D01*
X225974429Y-106001000D01*
X226047000Y-105710714D01*
X226119572Y-105565571D01*
X226192143Y-105493000D01*
X226337286Y-105420429D01*
X228151572Y-105928429D02*
X228151572Y-106944429D01*
X227498429Y-105928429D02*
X227498429Y-106726714D01*
X227571001Y-106871857D01*
X227716143Y-106944429D01*
X227933858Y-106944429D01*
X228079001Y-106871857D01*
X228151572Y-106799286D01*
X242216714Y-49944429D02*
X241345857Y-49944429D01*
X241781285Y-49944429D02*
X241781285Y-48420429D01*
X241636142Y-48638143D01*
X241491000Y-48783286D01*
X241345857Y-48855857D01*
X242869857Y-49799286D02*
X242942429Y-49871857D01*
X242869857Y-49944429D01*
X242797286Y-49871857D01*
X242869857Y-49799286D01*
X242869857Y-49944429D01*
X243885857Y-48420429D02*
X244031000Y-48420429D01*
X244176143Y-48493000D01*
X244248714Y-48565571D01*
X244321285Y-48710714D01*
X244393857Y-49001000D01*
X244393857Y-49363857D01*
X244321285Y-49654143D01*
X244248714Y-49799286D01*
X244176143Y-49871857D01*
X244031000Y-49944429D01*
X243885857Y-49944429D01*
X243740714Y-49871857D01*
X243668143Y-49799286D01*
X243595571Y-49654143D01*
X243523000Y-49363857D01*
X243523000Y-49001000D01*
X243595571Y-48710714D01*
X243668143Y-48565571D01*
X243740714Y-48493000D01*
X243885857Y-48420429D01*
X245337286Y-48420429D02*
X245482429Y-48420429D01*
X245627572Y-48493000D01*
X245700143Y-48565571D01*
X245772714Y-48710714D01*
X245845286Y-49001000D01*
X245845286Y-49363857D01*
X245772714Y-49654143D01*
X245700143Y-49799286D01*
X245627572Y-49871857D01*
X245482429Y-49944429D01*
X245337286Y-49944429D01*
X245192143Y-49871857D01*
X245119572Y-49799286D01*
X245047000Y-49654143D01*
X244974429Y-49363857D01*
X244974429Y-49001000D01*
X245047000Y-48710714D01*
X245119572Y-48565571D01*
X245192143Y-48493000D01*
X245337286Y-48420429D01*
X247151572Y-48928429D02*
X247151572Y-49944429D01*
X246498429Y-48928429D02*
X246498429Y-49726714D01*
X246571001Y-49871857D01*
X246716143Y-49944429D01*
X246933858Y-49944429D01*
X247079001Y-49871857D01*
X247151572Y-49799286D01*
X242216714Y-106944429D02*
X241345857Y-106944429D01*
X241781285Y-106944429D02*
X241781285Y-105420429D01*
X241636142Y-105638143D01*
X241491000Y-105783286D01*
X241345857Y-105855857D01*
X242869857Y-106799286D02*
X242942429Y-106871857D01*
X242869857Y-106944429D01*
X242797286Y-106871857D01*
X242869857Y-106799286D01*
X242869857Y-106944429D01*
X243885857Y-105420429D02*
X244031000Y-105420429D01*
X244176143Y-105493000D01*
X244248714Y-105565571D01*
X244321285Y-105710714D01*
X244393857Y-106001000D01*
X244393857Y-106363857D01*
X244321285Y-106654143D01*
X244248714Y-106799286D01*
X244176143Y-106871857D01*
X244031000Y-106944429D01*
X243885857Y-106944429D01*
X243740714Y-106871857D01*
X243668143Y-106799286D01*
X243595571Y-106654143D01*
X243523000Y-106363857D01*
X243523000Y-106001000D01*
X243595571Y-105710714D01*
X243668143Y-105565571D01*
X243740714Y-105493000D01*
X243885857Y-105420429D01*
X245337286Y-105420429D02*
X245482429Y-105420429D01*
X245627572Y-105493000D01*
X245700143Y-105565571D01*
X245772714Y-105710714D01*
X245845286Y-106001000D01*
X245845286Y-106363857D01*
X245772714Y-106654143D01*
X245700143Y-106799286D01*
X245627572Y-106871857D01*
X245482429Y-106944429D01*
X245337286Y-106944429D01*
X245192143Y-106871857D01*
X245119572Y-106799286D01*
X245047000Y-106654143D01*
X244974429Y-106363857D01*
X244974429Y-106001000D01*
X245047000Y-105710714D01*
X245119572Y-105565571D01*
X245192143Y-105493000D01*
X245337286Y-105420429D01*
X247151572Y-105928429D02*
X247151572Y-106944429D01*
X246498429Y-105928429D02*
X246498429Y-106726714D01*
X246571001Y-106871857D01*
X246716143Y-106944429D01*
X246933858Y-106944429D01*
X247079001Y-106871857D01*
X247151572Y-106799286D01*
X242216714Y-87944429D02*
X241345857Y-87944429D01*
X241781285Y-87944429D02*
X241781285Y-86420429D01*
X241636142Y-86638143D01*
X241491000Y-86783286D01*
X241345857Y-86855857D01*
X242869857Y-87799286D02*
X242942429Y-87871857D01*
X242869857Y-87944429D01*
X242797286Y-87871857D01*
X242869857Y-87799286D01*
X242869857Y-87944429D01*
X243885857Y-86420429D02*
X244031000Y-86420429D01*
X244176143Y-86493000D01*
X244248714Y-86565571D01*
X244321285Y-86710714D01*
X244393857Y-87001000D01*
X244393857Y-87363857D01*
X244321285Y-87654143D01*
X244248714Y-87799286D01*
X244176143Y-87871857D01*
X244031000Y-87944429D01*
X243885857Y-87944429D01*
X243740714Y-87871857D01*
X243668143Y-87799286D01*
X243595571Y-87654143D01*
X243523000Y-87363857D01*
X243523000Y-87001000D01*
X243595571Y-86710714D01*
X243668143Y-86565571D01*
X243740714Y-86493000D01*
X243885857Y-86420429D01*
X245337286Y-86420429D02*
X245482429Y-86420429D01*
X245627572Y-86493000D01*
X245700143Y-86565571D01*
X245772714Y-86710714D01*
X245845286Y-87001000D01*
X245845286Y-87363857D01*
X245772714Y-87654143D01*
X245700143Y-87799286D01*
X245627572Y-87871857D01*
X245482429Y-87944429D01*
X245337286Y-87944429D01*
X245192143Y-87871857D01*
X245119572Y-87799286D01*
X245047000Y-87654143D01*
X244974429Y-87363857D01*
X244974429Y-87001000D01*
X245047000Y-86710714D01*
X245119572Y-86565571D01*
X245192143Y-86493000D01*
X245337286Y-86420429D01*
X247151572Y-86928429D02*
X247151572Y-87944429D01*
X246498429Y-86928429D02*
X246498429Y-87726714D01*
X246571001Y-87871857D01*
X246716143Y-87944429D01*
X246933858Y-87944429D01*
X247079001Y-87871857D01*
X247151572Y-87799286D01*
X242216714Y-30944429D02*
X241345857Y-30944429D01*
X241781285Y-30944429D02*
X241781285Y-29420429D01*
X241636142Y-29638143D01*
X241491000Y-29783286D01*
X241345857Y-29855857D01*
X242869857Y-30799286D02*
X242942429Y-30871857D01*
X242869857Y-30944429D01*
X242797286Y-30871857D01*
X242869857Y-30799286D01*
X242869857Y-30944429D01*
X243885857Y-29420429D02*
X244031000Y-29420429D01*
X244176143Y-29493000D01*
X244248714Y-29565571D01*
X244321285Y-29710714D01*
X244393857Y-30001000D01*
X244393857Y-30363857D01*
X244321285Y-30654143D01*
X244248714Y-30799286D01*
X244176143Y-30871857D01*
X244031000Y-30944429D01*
X243885857Y-30944429D01*
X243740714Y-30871857D01*
X243668143Y-30799286D01*
X243595571Y-30654143D01*
X243523000Y-30363857D01*
X243523000Y-30001000D01*
X243595571Y-29710714D01*
X243668143Y-29565571D01*
X243740714Y-29493000D01*
X243885857Y-29420429D01*
X245337286Y-29420429D02*
X245482429Y-29420429D01*
X245627572Y-29493000D01*
X245700143Y-29565571D01*
X245772714Y-29710714D01*
X245845286Y-30001000D01*
X245845286Y-30363857D01*
X245772714Y-30654143D01*
X245700143Y-30799286D01*
X245627572Y-30871857D01*
X245482429Y-30944429D01*
X245337286Y-30944429D01*
X245192143Y-30871857D01*
X245119572Y-30799286D01*
X245047000Y-30654143D01*
X244974429Y-30363857D01*
X244974429Y-30001000D01*
X245047000Y-29710714D01*
X245119572Y-29565571D01*
X245192143Y-29493000D01*
X245337286Y-29420429D01*
X247151572Y-29928429D02*
X247151572Y-30944429D01*
X246498429Y-29928429D02*
X246498429Y-30726714D01*
X246571001Y-30871857D01*
X246716143Y-30944429D01*
X246933858Y-30944429D01*
X247079001Y-30871857D01*
X247151572Y-30799286D01*
X242216714Y-68944429D02*
X241345857Y-68944429D01*
X241781285Y-68944429D02*
X241781285Y-67420429D01*
X241636142Y-67638143D01*
X241491000Y-67783286D01*
X241345857Y-67855857D01*
X242869857Y-68799286D02*
X242942429Y-68871857D01*
X242869857Y-68944429D01*
X242797286Y-68871857D01*
X242869857Y-68799286D01*
X242869857Y-68944429D01*
X243885857Y-67420429D02*
X244031000Y-67420429D01*
X244176143Y-67493000D01*
X244248714Y-67565571D01*
X244321285Y-67710714D01*
X244393857Y-68001000D01*
X244393857Y-68363857D01*
X244321285Y-68654143D01*
X244248714Y-68799286D01*
X244176143Y-68871857D01*
X244031000Y-68944429D01*
X243885857Y-68944429D01*
X243740714Y-68871857D01*
X243668143Y-68799286D01*
X243595571Y-68654143D01*
X243523000Y-68363857D01*
X243523000Y-68001000D01*
X243595571Y-67710714D01*
X243668143Y-67565571D01*
X243740714Y-67493000D01*
X243885857Y-67420429D01*
X245337286Y-67420429D02*
X245482429Y-67420429D01*
X245627572Y-67493000D01*
X245700143Y-67565571D01*
X245772714Y-67710714D01*
X245845286Y-68001000D01*
X245845286Y-68363857D01*
X245772714Y-68654143D01*
X245700143Y-68799286D01*
X245627572Y-68871857D01*
X245482429Y-68944429D01*
X245337286Y-68944429D01*
X245192143Y-68871857D01*
X245119572Y-68799286D01*
X245047000Y-68654143D01*
X244974429Y-68363857D01*
X244974429Y-68001000D01*
X245047000Y-67710714D01*
X245119572Y-67565571D01*
X245192143Y-67493000D01*
X245337286Y-67420429D01*
X247151572Y-67928429D02*
X247151572Y-68944429D01*
X246498429Y-67928429D02*
X246498429Y-68726714D01*
X246571001Y-68871857D01*
X246716143Y-68944429D01*
X246933858Y-68944429D01*
X247079001Y-68871857D01*
X247151572Y-68799286D01*
X223216714Y-30944429D02*
X222345857Y-30944429D01*
X222781285Y-30944429D02*
X222781285Y-29420429D01*
X222636142Y-29638143D01*
X222491000Y-29783286D01*
X222345857Y-29855857D01*
X223869857Y-30799286D02*
X223942429Y-30871857D01*
X223869857Y-30944429D01*
X223797286Y-30871857D01*
X223869857Y-30799286D01*
X223869857Y-30944429D01*
X224885857Y-29420429D02*
X225031000Y-29420429D01*
X225176143Y-29493000D01*
X225248714Y-29565571D01*
X225321285Y-29710714D01*
X225393857Y-30001000D01*
X225393857Y-30363857D01*
X225321285Y-30654143D01*
X225248714Y-30799286D01*
X225176143Y-30871857D01*
X225031000Y-30944429D01*
X224885857Y-30944429D01*
X224740714Y-30871857D01*
X224668143Y-30799286D01*
X224595571Y-30654143D01*
X224523000Y-30363857D01*
X224523000Y-30001000D01*
X224595571Y-29710714D01*
X224668143Y-29565571D01*
X224740714Y-29493000D01*
X224885857Y-29420429D01*
X226337286Y-29420429D02*
X226482429Y-29420429D01*
X226627572Y-29493000D01*
X226700143Y-29565571D01*
X226772714Y-29710714D01*
X226845286Y-30001000D01*
X226845286Y-30363857D01*
X226772714Y-30654143D01*
X226700143Y-30799286D01*
X226627572Y-30871857D01*
X226482429Y-30944429D01*
X226337286Y-30944429D01*
X226192143Y-30871857D01*
X226119572Y-30799286D01*
X226047000Y-30654143D01*
X225974429Y-30363857D01*
X225974429Y-30001000D01*
X226047000Y-29710714D01*
X226119572Y-29565571D01*
X226192143Y-29493000D01*
X226337286Y-29420429D01*
X228151572Y-29928429D02*
X228151572Y-30944429D01*
X227498429Y-29928429D02*
X227498429Y-30726714D01*
X227571001Y-30871857D01*
X227716143Y-30944429D01*
X227933858Y-30944429D01*
X228079001Y-30871857D01*
X228151572Y-30799286D01*
X109216714Y-68944429D02*
X108345857Y-68944429D01*
X108781285Y-68944429D02*
X108781285Y-67420429D01*
X108636142Y-67638143D01*
X108491000Y-67783286D01*
X108345857Y-67855857D01*
X109869857Y-68799286D02*
X109942429Y-68871857D01*
X109869857Y-68944429D01*
X109797286Y-68871857D01*
X109869857Y-68799286D01*
X109869857Y-68944429D01*
X110885857Y-67420429D02*
X111031000Y-67420429D01*
X111176143Y-67493000D01*
X111248714Y-67565571D01*
X111321285Y-67710714D01*
X111393857Y-68001000D01*
X111393857Y-68363857D01*
X111321285Y-68654143D01*
X111248714Y-68799286D01*
X111176143Y-68871857D01*
X111031000Y-68944429D01*
X110885857Y-68944429D01*
X110740714Y-68871857D01*
X110668143Y-68799286D01*
X110595571Y-68654143D01*
X110523000Y-68363857D01*
X110523000Y-68001000D01*
X110595571Y-67710714D01*
X110668143Y-67565571D01*
X110740714Y-67493000D01*
X110885857Y-67420429D01*
X112337286Y-67420429D02*
X112482429Y-67420429D01*
X112627572Y-67493000D01*
X112700143Y-67565571D01*
X112772714Y-67710714D01*
X112845286Y-68001000D01*
X112845286Y-68363857D01*
X112772714Y-68654143D01*
X112700143Y-68799286D01*
X112627572Y-68871857D01*
X112482429Y-68944429D01*
X112337286Y-68944429D01*
X112192143Y-68871857D01*
X112119572Y-68799286D01*
X112047000Y-68654143D01*
X111974429Y-68363857D01*
X111974429Y-68001000D01*
X112047000Y-67710714D01*
X112119572Y-67565571D01*
X112192143Y-67493000D01*
X112337286Y-67420429D01*
X114151572Y-67928429D02*
X114151572Y-68944429D01*
X113498429Y-67928429D02*
X113498429Y-68726714D01*
X113571001Y-68871857D01*
X113716143Y-68944429D01*
X113933858Y-68944429D01*
X114079001Y-68871857D01*
X114151572Y-68799286D01*
X109216714Y-30944429D02*
X108345857Y-30944429D01*
X108781285Y-30944429D02*
X108781285Y-29420429D01*
X108636142Y-29638143D01*
X108491000Y-29783286D01*
X108345857Y-29855857D01*
X109869857Y-30799286D02*
X109942429Y-30871857D01*
X109869857Y-30944429D01*
X109797286Y-30871857D01*
X109869857Y-30799286D01*
X109869857Y-30944429D01*
X110885857Y-29420429D02*
X111031000Y-29420429D01*
X111176143Y-29493000D01*
X111248714Y-29565571D01*
X111321285Y-29710714D01*
X111393857Y-30001000D01*
X111393857Y-30363857D01*
X111321285Y-30654143D01*
X111248714Y-30799286D01*
X111176143Y-30871857D01*
X111031000Y-30944429D01*
X110885857Y-30944429D01*
X110740714Y-30871857D01*
X110668143Y-30799286D01*
X110595571Y-30654143D01*
X110523000Y-30363857D01*
X110523000Y-30001000D01*
X110595571Y-29710714D01*
X110668143Y-29565571D01*
X110740714Y-29493000D01*
X110885857Y-29420429D01*
X112337286Y-29420429D02*
X112482429Y-29420429D01*
X112627572Y-29493000D01*
X112700143Y-29565571D01*
X112772714Y-29710714D01*
X112845286Y-30001000D01*
X112845286Y-30363857D01*
X112772714Y-30654143D01*
X112700143Y-30799286D01*
X112627572Y-30871857D01*
X112482429Y-30944429D01*
X112337286Y-30944429D01*
X112192143Y-30871857D01*
X112119572Y-30799286D01*
X112047000Y-30654143D01*
X111974429Y-30363857D01*
X111974429Y-30001000D01*
X112047000Y-29710714D01*
X112119572Y-29565571D01*
X112192143Y-29493000D01*
X112337286Y-29420429D01*
X114151572Y-29928429D02*
X114151572Y-30944429D01*
X113498429Y-29928429D02*
X113498429Y-30726714D01*
X113571001Y-30871857D01*
X113716143Y-30944429D01*
X113933858Y-30944429D01*
X114079001Y-30871857D01*
X114151572Y-30799286D01*
X109216714Y-87944429D02*
X108345857Y-87944429D01*
X108781285Y-87944429D02*
X108781285Y-86420429D01*
X108636142Y-86638143D01*
X108491000Y-86783286D01*
X108345857Y-86855857D01*
X109869857Y-87799286D02*
X109942429Y-87871857D01*
X109869857Y-87944429D01*
X109797286Y-87871857D01*
X109869857Y-87799286D01*
X109869857Y-87944429D01*
X110885857Y-86420429D02*
X111031000Y-86420429D01*
X111176143Y-86493000D01*
X111248714Y-86565571D01*
X111321285Y-86710714D01*
X111393857Y-87001000D01*
X111393857Y-87363857D01*
X111321285Y-87654143D01*
X111248714Y-87799286D01*
X111176143Y-87871857D01*
X111031000Y-87944429D01*
X110885857Y-87944429D01*
X110740714Y-87871857D01*
X110668143Y-87799286D01*
X110595571Y-87654143D01*
X110523000Y-87363857D01*
X110523000Y-87001000D01*
X110595571Y-86710714D01*
X110668143Y-86565571D01*
X110740714Y-86493000D01*
X110885857Y-86420429D01*
X112337286Y-86420429D02*
X112482429Y-86420429D01*
X112627572Y-86493000D01*
X112700143Y-86565571D01*
X112772714Y-86710714D01*
X112845286Y-87001000D01*
X112845286Y-87363857D01*
X112772714Y-87654143D01*
X112700143Y-87799286D01*
X112627572Y-87871857D01*
X112482429Y-87944429D01*
X112337286Y-87944429D01*
X112192143Y-87871857D01*
X112119572Y-87799286D01*
X112047000Y-87654143D01*
X111974429Y-87363857D01*
X111974429Y-87001000D01*
X112047000Y-86710714D01*
X112119572Y-86565571D01*
X112192143Y-86493000D01*
X112337286Y-86420429D01*
X114151572Y-86928429D02*
X114151572Y-87944429D01*
X113498429Y-86928429D02*
X113498429Y-87726714D01*
X113571001Y-87871857D01*
X113716143Y-87944429D01*
X113933858Y-87944429D01*
X114079001Y-87871857D01*
X114151572Y-87799286D01*
X109434429Y-94353286D02*
X109434429Y-95224143D01*
X109434429Y-94788715D02*
X107910429Y-94788715D01*
X108128143Y-94933858D01*
X108273286Y-95079000D01*
X108345857Y-95224143D01*
X109289286Y-93700143D02*
X109361857Y-93627571D01*
X109434429Y-93700143D01*
X109361857Y-93772714D01*
X109289286Y-93700143D01*
X109434429Y-93700143D01*
X107910429Y-92684143D02*
X107910429Y-92539000D01*
X107983000Y-92393857D01*
X108055571Y-92321286D01*
X108200714Y-92248715D01*
X108491000Y-92176143D01*
X108853857Y-92176143D01*
X109144143Y-92248715D01*
X109289286Y-92321286D01*
X109361857Y-92393857D01*
X109434429Y-92539000D01*
X109434429Y-92684143D01*
X109361857Y-92829286D01*
X109289286Y-92901857D01*
X109144143Y-92974429D01*
X108853857Y-93047000D01*
X108491000Y-93047000D01*
X108200714Y-92974429D01*
X108055571Y-92901857D01*
X107983000Y-92829286D01*
X107910429Y-92684143D01*
X107910429Y-91232714D02*
X107910429Y-91087571D01*
X107983000Y-90942428D01*
X108055571Y-90869857D01*
X108200714Y-90797286D01*
X108491000Y-90724714D01*
X108853857Y-90724714D01*
X109144143Y-90797286D01*
X109289286Y-90869857D01*
X109361857Y-90942428D01*
X109434429Y-91087571D01*
X109434429Y-91232714D01*
X109361857Y-91377857D01*
X109289286Y-91450428D01*
X109144143Y-91523000D01*
X108853857Y-91595571D01*
X108491000Y-91595571D01*
X108200714Y-91523000D01*
X108055571Y-91450428D01*
X107983000Y-91377857D01*
X107910429Y-91232714D01*
X108418429Y-89418428D02*
X109434429Y-89418428D01*
X108418429Y-90071571D02*
X109216714Y-90071571D01*
X109361857Y-89998999D01*
X109434429Y-89853857D01*
X109434429Y-89636142D01*
X109361857Y-89490999D01*
X109289286Y-89418428D01*
X109216714Y-49944429D02*
X108345857Y-49944429D01*
X108781285Y-49944429D02*
X108781285Y-48420429D01*
X108636142Y-48638143D01*
X108491000Y-48783286D01*
X108345857Y-48855857D01*
X109869857Y-49799286D02*
X109942429Y-49871857D01*
X109869857Y-49944429D01*
X109797286Y-49871857D01*
X109869857Y-49799286D01*
X109869857Y-49944429D01*
X110885857Y-48420429D02*
X111031000Y-48420429D01*
X111176143Y-48493000D01*
X111248714Y-48565571D01*
X111321285Y-48710714D01*
X111393857Y-49001000D01*
X111393857Y-49363857D01*
X111321285Y-49654143D01*
X111248714Y-49799286D01*
X111176143Y-49871857D01*
X111031000Y-49944429D01*
X110885857Y-49944429D01*
X110740714Y-49871857D01*
X110668143Y-49799286D01*
X110595571Y-49654143D01*
X110523000Y-49363857D01*
X110523000Y-49001000D01*
X110595571Y-48710714D01*
X110668143Y-48565571D01*
X110740714Y-48493000D01*
X110885857Y-48420429D01*
X112337286Y-48420429D02*
X112482429Y-48420429D01*
X112627572Y-48493000D01*
X112700143Y-48565571D01*
X112772714Y-48710714D01*
X112845286Y-49001000D01*
X112845286Y-49363857D01*
X112772714Y-49654143D01*
X112700143Y-49799286D01*
X112627572Y-49871857D01*
X112482429Y-49944429D01*
X112337286Y-49944429D01*
X112192143Y-49871857D01*
X112119572Y-49799286D01*
X112047000Y-49654143D01*
X111974429Y-49363857D01*
X111974429Y-49001000D01*
X112047000Y-48710714D01*
X112119572Y-48565571D01*
X112192143Y-48493000D01*
X112337286Y-48420429D01*
X114151572Y-48928429D02*
X114151572Y-49944429D01*
X113498429Y-48928429D02*
X113498429Y-49726714D01*
X113571001Y-49871857D01*
X113716143Y-49944429D01*
X113933858Y-49944429D01*
X114079001Y-49871857D01*
X114151572Y-49799286D01*
X128216714Y-49944429D02*
X127345857Y-49944429D01*
X127781285Y-49944429D02*
X127781285Y-48420429D01*
X127636142Y-48638143D01*
X127491000Y-48783286D01*
X127345857Y-48855857D01*
X128869857Y-49799286D02*
X128942429Y-49871857D01*
X128869857Y-49944429D01*
X128797286Y-49871857D01*
X128869857Y-49799286D01*
X128869857Y-49944429D01*
X129885857Y-48420429D02*
X130031000Y-48420429D01*
X130176143Y-48493000D01*
X130248714Y-48565571D01*
X130321285Y-48710714D01*
X130393857Y-49001000D01*
X130393857Y-49363857D01*
X130321285Y-49654143D01*
X130248714Y-49799286D01*
X130176143Y-49871857D01*
X130031000Y-49944429D01*
X129885857Y-49944429D01*
X129740714Y-49871857D01*
X129668143Y-49799286D01*
X129595571Y-49654143D01*
X129523000Y-49363857D01*
X129523000Y-49001000D01*
X129595571Y-48710714D01*
X129668143Y-48565571D01*
X129740714Y-48493000D01*
X129885857Y-48420429D01*
X131337286Y-48420429D02*
X131482429Y-48420429D01*
X131627572Y-48493000D01*
X131700143Y-48565571D01*
X131772714Y-48710714D01*
X131845286Y-49001000D01*
X131845286Y-49363857D01*
X131772714Y-49654143D01*
X131700143Y-49799286D01*
X131627572Y-49871857D01*
X131482429Y-49944429D01*
X131337286Y-49944429D01*
X131192143Y-49871857D01*
X131119572Y-49799286D01*
X131047000Y-49654143D01*
X130974429Y-49363857D01*
X130974429Y-49001000D01*
X131047000Y-48710714D01*
X131119572Y-48565571D01*
X131192143Y-48493000D01*
X131337286Y-48420429D01*
X133151572Y-48928429D02*
X133151572Y-49944429D01*
X132498429Y-48928429D02*
X132498429Y-49726714D01*
X132571001Y-49871857D01*
X132716143Y-49944429D01*
X132933858Y-49944429D01*
X133079001Y-49871857D01*
X133151572Y-49799286D01*
X128216714Y-106944429D02*
X127345857Y-106944429D01*
X127781285Y-106944429D02*
X127781285Y-105420429D01*
X127636142Y-105638143D01*
X127491000Y-105783286D01*
X127345857Y-105855857D01*
X128869857Y-106799286D02*
X128942429Y-106871857D01*
X128869857Y-106944429D01*
X128797286Y-106871857D01*
X128869857Y-106799286D01*
X128869857Y-106944429D01*
X129885857Y-105420429D02*
X130031000Y-105420429D01*
X130176143Y-105493000D01*
X130248714Y-105565571D01*
X130321285Y-105710714D01*
X130393857Y-106001000D01*
X130393857Y-106363857D01*
X130321285Y-106654143D01*
X130248714Y-106799286D01*
X130176143Y-106871857D01*
X130031000Y-106944429D01*
X129885857Y-106944429D01*
X129740714Y-106871857D01*
X129668143Y-106799286D01*
X129595571Y-106654143D01*
X129523000Y-106363857D01*
X129523000Y-106001000D01*
X129595571Y-105710714D01*
X129668143Y-105565571D01*
X129740714Y-105493000D01*
X129885857Y-105420429D01*
X131337286Y-105420429D02*
X131482429Y-105420429D01*
X131627572Y-105493000D01*
X131700143Y-105565571D01*
X131772714Y-105710714D01*
X131845286Y-106001000D01*
X131845286Y-106363857D01*
X131772714Y-106654143D01*
X131700143Y-106799286D01*
X131627572Y-106871857D01*
X131482429Y-106944429D01*
X131337286Y-106944429D01*
X131192143Y-106871857D01*
X131119572Y-106799286D01*
X131047000Y-106654143D01*
X130974429Y-106363857D01*
X130974429Y-106001000D01*
X131047000Y-105710714D01*
X131119572Y-105565571D01*
X131192143Y-105493000D01*
X131337286Y-105420429D01*
X133151572Y-105928429D02*
X133151572Y-106944429D01*
X132498429Y-105928429D02*
X132498429Y-106726714D01*
X132571001Y-106871857D01*
X132716143Y-106944429D01*
X132933858Y-106944429D01*
X133079001Y-106871857D01*
X133151572Y-106799286D01*
X128216714Y-87944429D02*
X127345857Y-87944429D01*
X127781285Y-87944429D02*
X127781285Y-86420429D01*
X127636142Y-86638143D01*
X127491000Y-86783286D01*
X127345857Y-86855857D01*
X128869857Y-87799286D02*
X128942429Y-87871857D01*
X128869857Y-87944429D01*
X128797286Y-87871857D01*
X128869857Y-87799286D01*
X128869857Y-87944429D01*
X129885857Y-86420429D02*
X130031000Y-86420429D01*
X130176143Y-86493000D01*
X130248714Y-86565571D01*
X130321285Y-86710714D01*
X130393857Y-87001000D01*
X130393857Y-87363857D01*
X130321285Y-87654143D01*
X130248714Y-87799286D01*
X130176143Y-87871857D01*
X130031000Y-87944429D01*
X129885857Y-87944429D01*
X129740714Y-87871857D01*
X129668143Y-87799286D01*
X129595571Y-87654143D01*
X129523000Y-87363857D01*
X129523000Y-87001000D01*
X129595571Y-86710714D01*
X129668143Y-86565571D01*
X129740714Y-86493000D01*
X129885857Y-86420429D01*
X131337286Y-86420429D02*
X131482429Y-86420429D01*
X131627572Y-86493000D01*
X131700143Y-86565571D01*
X131772714Y-86710714D01*
X131845286Y-87001000D01*
X131845286Y-87363857D01*
X131772714Y-87654143D01*
X131700143Y-87799286D01*
X131627572Y-87871857D01*
X131482429Y-87944429D01*
X131337286Y-87944429D01*
X131192143Y-87871857D01*
X131119572Y-87799286D01*
X131047000Y-87654143D01*
X130974429Y-87363857D01*
X130974429Y-87001000D01*
X131047000Y-86710714D01*
X131119572Y-86565571D01*
X131192143Y-86493000D01*
X131337286Y-86420429D01*
X133151572Y-86928429D02*
X133151572Y-87944429D01*
X132498429Y-86928429D02*
X132498429Y-87726714D01*
X132571001Y-87871857D01*
X132716143Y-87944429D01*
X132933858Y-87944429D01*
X133079001Y-87871857D01*
X133151572Y-87799286D01*
X147216714Y-30944429D02*
X146345857Y-30944429D01*
X146781285Y-30944429D02*
X146781285Y-29420429D01*
X146636142Y-29638143D01*
X146491000Y-29783286D01*
X146345857Y-29855857D01*
X147869857Y-30799286D02*
X147942429Y-30871857D01*
X147869857Y-30944429D01*
X147797286Y-30871857D01*
X147869857Y-30799286D01*
X147869857Y-30944429D01*
X148885857Y-29420429D02*
X149031000Y-29420429D01*
X149176143Y-29493000D01*
X149248714Y-29565571D01*
X149321285Y-29710714D01*
X149393857Y-30001000D01*
X149393857Y-30363857D01*
X149321285Y-30654143D01*
X149248714Y-30799286D01*
X149176143Y-30871857D01*
X149031000Y-30944429D01*
X148885857Y-30944429D01*
X148740714Y-30871857D01*
X148668143Y-30799286D01*
X148595571Y-30654143D01*
X148523000Y-30363857D01*
X148523000Y-30001000D01*
X148595571Y-29710714D01*
X148668143Y-29565571D01*
X148740714Y-29493000D01*
X148885857Y-29420429D01*
X150337286Y-29420429D02*
X150482429Y-29420429D01*
X150627572Y-29493000D01*
X150700143Y-29565571D01*
X150772714Y-29710714D01*
X150845286Y-30001000D01*
X150845286Y-30363857D01*
X150772714Y-30654143D01*
X150700143Y-30799286D01*
X150627572Y-30871857D01*
X150482429Y-30944429D01*
X150337286Y-30944429D01*
X150192143Y-30871857D01*
X150119572Y-30799286D01*
X150047000Y-30654143D01*
X149974429Y-30363857D01*
X149974429Y-30001000D01*
X150047000Y-29710714D01*
X150119572Y-29565571D01*
X150192143Y-29493000D01*
X150337286Y-29420429D01*
X152151572Y-29928429D02*
X152151572Y-30944429D01*
X151498429Y-29928429D02*
X151498429Y-30726714D01*
X151571001Y-30871857D01*
X151716143Y-30944429D01*
X151933858Y-30944429D01*
X152079001Y-30871857D01*
X152151572Y-30799286D01*
X128216714Y-30944429D02*
X127345857Y-30944429D01*
X127781285Y-30944429D02*
X127781285Y-29420429D01*
X127636142Y-29638143D01*
X127491000Y-29783286D01*
X127345857Y-29855857D01*
X128869857Y-30799286D02*
X128942429Y-30871857D01*
X128869857Y-30944429D01*
X128797286Y-30871857D01*
X128869857Y-30799286D01*
X128869857Y-30944429D01*
X129885857Y-29420429D02*
X130031000Y-29420429D01*
X130176143Y-29493000D01*
X130248714Y-29565571D01*
X130321285Y-29710714D01*
X130393857Y-30001000D01*
X130393857Y-30363857D01*
X130321285Y-30654143D01*
X130248714Y-30799286D01*
X130176143Y-30871857D01*
X130031000Y-30944429D01*
X129885857Y-30944429D01*
X129740714Y-30871857D01*
X129668143Y-30799286D01*
X129595571Y-30654143D01*
X129523000Y-30363857D01*
X129523000Y-30001000D01*
X129595571Y-29710714D01*
X129668143Y-29565571D01*
X129740714Y-29493000D01*
X129885857Y-29420429D01*
X131337286Y-29420429D02*
X131482429Y-29420429D01*
X131627572Y-29493000D01*
X131700143Y-29565571D01*
X131772714Y-29710714D01*
X131845286Y-30001000D01*
X131845286Y-30363857D01*
X131772714Y-30654143D01*
X131700143Y-30799286D01*
X131627572Y-30871857D01*
X131482429Y-30944429D01*
X131337286Y-30944429D01*
X131192143Y-30871857D01*
X131119572Y-30799286D01*
X131047000Y-30654143D01*
X130974429Y-30363857D01*
X130974429Y-30001000D01*
X131047000Y-29710714D01*
X131119572Y-29565571D01*
X131192143Y-29493000D01*
X131337286Y-29420429D01*
X133151572Y-29928429D02*
X133151572Y-30944429D01*
X132498429Y-29928429D02*
X132498429Y-30726714D01*
X132571001Y-30871857D01*
X132716143Y-30944429D01*
X132933858Y-30944429D01*
X133079001Y-30871857D01*
X133151572Y-30799286D01*
X147216714Y-49944429D02*
X146345857Y-49944429D01*
X146781285Y-49944429D02*
X146781285Y-48420429D01*
X146636142Y-48638143D01*
X146491000Y-48783286D01*
X146345857Y-48855857D01*
X147869857Y-49799286D02*
X147942429Y-49871857D01*
X147869857Y-49944429D01*
X147797286Y-49871857D01*
X147869857Y-49799286D01*
X147869857Y-49944429D01*
X148885857Y-48420429D02*
X149031000Y-48420429D01*
X149176143Y-48493000D01*
X149248714Y-48565571D01*
X149321285Y-48710714D01*
X149393857Y-49001000D01*
X149393857Y-49363857D01*
X149321285Y-49654143D01*
X149248714Y-49799286D01*
X149176143Y-49871857D01*
X149031000Y-49944429D01*
X148885857Y-49944429D01*
X148740714Y-49871857D01*
X148668143Y-49799286D01*
X148595571Y-49654143D01*
X148523000Y-49363857D01*
X148523000Y-49001000D01*
X148595571Y-48710714D01*
X148668143Y-48565571D01*
X148740714Y-48493000D01*
X148885857Y-48420429D01*
X150337286Y-48420429D02*
X150482429Y-48420429D01*
X150627572Y-48493000D01*
X150700143Y-48565571D01*
X150772714Y-48710714D01*
X150845286Y-49001000D01*
X150845286Y-49363857D01*
X150772714Y-49654143D01*
X150700143Y-49799286D01*
X150627572Y-49871857D01*
X150482429Y-49944429D01*
X150337286Y-49944429D01*
X150192143Y-49871857D01*
X150119572Y-49799286D01*
X150047000Y-49654143D01*
X149974429Y-49363857D01*
X149974429Y-49001000D01*
X150047000Y-48710714D01*
X150119572Y-48565571D01*
X150192143Y-48493000D01*
X150337286Y-48420429D01*
X152151572Y-48928429D02*
X152151572Y-49944429D01*
X151498429Y-48928429D02*
X151498429Y-49726714D01*
X151571001Y-49871857D01*
X151716143Y-49944429D01*
X151933858Y-49944429D01*
X152079001Y-49871857D01*
X152151572Y-49799286D01*
X128216714Y-68944429D02*
X127345857Y-68944429D01*
X127781285Y-68944429D02*
X127781285Y-67420429D01*
X127636142Y-67638143D01*
X127491000Y-67783286D01*
X127345857Y-67855857D01*
X128869857Y-68799286D02*
X128942429Y-68871857D01*
X128869857Y-68944429D01*
X128797286Y-68871857D01*
X128869857Y-68799286D01*
X128869857Y-68944429D01*
X129885857Y-67420429D02*
X130031000Y-67420429D01*
X130176143Y-67493000D01*
X130248714Y-67565571D01*
X130321285Y-67710714D01*
X130393857Y-68001000D01*
X130393857Y-68363857D01*
X130321285Y-68654143D01*
X130248714Y-68799286D01*
X130176143Y-68871857D01*
X130031000Y-68944429D01*
X129885857Y-68944429D01*
X129740714Y-68871857D01*
X129668143Y-68799286D01*
X129595571Y-68654143D01*
X129523000Y-68363857D01*
X129523000Y-68001000D01*
X129595571Y-67710714D01*
X129668143Y-67565571D01*
X129740714Y-67493000D01*
X129885857Y-67420429D01*
X131337286Y-67420429D02*
X131482429Y-67420429D01*
X131627572Y-67493000D01*
X131700143Y-67565571D01*
X131772714Y-67710714D01*
X131845286Y-68001000D01*
X131845286Y-68363857D01*
X131772714Y-68654143D01*
X131700143Y-68799286D01*
X131627572Y-68871857D01*
X131482429Y-68944429D01*
X131337286Y-68944429D01*
X131192143Y-68871857D01*
X131119572Y-68799286D01*
X131047000Y-68654143D01*
X130974429Y-68363857D01*
X130974429Y-68001000D01*
X131047000Y-67710714D01*
X131119572Y-67565571D01*
X131192143Y-67493000D01*
X131337286Y-67420429D01*
X133151572Y-67928429D02*
X133151572Y-68944429D01*
X132498429Y-67928429D02*
X132498429Y-68726714D01*
X132571001Y-68871857D01*
X132716143Y-68944429D01*
X132933858Y-68944429D01*
X133079001Y-68871857D01*
X133151572Y-68799286D01*
X166216714Y-49944429D02*
X165345857Y-49944429D01*
X165781285Y-49944429D02*
X165781285Y-48420429D01*
X165636142Y-48638143D01*
X165491000Y-48783286D01*
X165345857Y-48855857D01*
X166869857Y-49799286D02*
X166942429Y-49871857D01*
X166869857Y-49944429D01*
X166797286Y-49871857D01*
X166869857Y-49799286D01*
X166869857Y-49944429D01*
X167885857Y-48420429D02*
X168031000Y-48420429D01*
X168176143Y-48493000D01*
X168248714Y-48565571D01*
X168321285Y-48710714D01*
X168393857Y-49001000D01*
X168393857Y-49363857D01*
X168321285Y-49654143D01*
X168248714Y-49799286D01*
X168176143Y-49871857D01*
X168031000Y-49944429D01*
X167885857Y-49944429D01*
X167740714Y-49871857D01*
X167668143Y-49799286D01*
X167595571Y-49654143D01*
X167523000Y-49363857D01*
X167523000Y-49001000D01*
X167595571Y-48710714D01*
X167668143Y-48565571D01*
X167740714Y-48493000D01*
X167885857Y-48420429D01*
X169337286Y-48420429D02*
X169482429Y-48420429D01*
X169627572Y-48493000D01*
X169700143Y-48565571D01*
X169772714Y-48710714D01*
X169845286Y-49001000D01*
X169845286Y-49363857D01*
X169772714Y-49654143D01*
X169700143Y-49799286D01*
X169627572Y-49871857D01*
X169482429Y-49944429D01*
X169337286Y-49944429D01*
X169192143Y-49871857D01*
X169119572Y-49799286D01*
X169047000Y-49654143D01*
X168974429Y-49363857D01*
X168974429Y-49001000D01*
X169047000Y-48710714D01*
X169119572Y-48565571D01*
X169192143Y-48493000D01*
X169337286Y-48420429D01*
X171151572Y-48928429D02*
X171151572Y-49944429D01*
X170498429Y-48928429D02*
X170498429Y-49726714D01*
X170571001Y-49871857D01*
X170716143Y-49944429D01*
X170933858Y-49944429D01*
X171079001Y-49871857D01*
X171151572Y-49799286D01*
X166216714Y-30944429D02*
X165345857Y-30944429D01*
X165781285Y-30944429D02*
X165781285Y-29420429D01*
X165636142Y-29638143D01*
X165491000Y-29783286D01*
X165345857Y-29855857D01*
X166869857Y-30799286D02*
X166942429Y-30871857D01*
X166869857Y-30944429D01*
X166797286Y-30871857D01*
X166869857Y-30799286D01*
X166869857Y-30944429D01*
X167885857Y-29420429D02*
X168031000Y-29420429D01*
X168176143Y-29493000D01*
X168248714Y-29565571D01*
X168321285Y-29710714D01*
X168393857Y-30001000D01*
X168393857Y-30363857D01*
X168321285Y-30654143D01*
X168248714Y-30799286D01*
X168176143Y-30871857D01*
X168031000Y-30944429D01*
X167885857Y-30944429D01*
X167740714Y-30871857D01*
X167668143Y-30799286D01*
X167595571Y-30654143D01*
X167523000Y-30363857D01*
X167523000Y-30001000D01*
X167595571Y-29710714D01*
X167668143Y-29565571D01*
X167740714Y-29493000D01*
X167885857Y-29420429D01*
X169337286Y-29420429D02*
X169482429Y-29420429D01*
X169627572Y-29493000D01*
X169700143Y-29565571D01*
X169772714Y-29710714D01*
X169845286Y-30001000D01*
X169845286Y-30363857D01*
X169772714Y-30654143D01*
X169700143Y-30799286D01*
X169627572Y-30871857D01*
X169482429Y-30944429D01*
X169337286Y-30944429D01*
X169192143Y-30871857D01*
X169119572Y-30799286D01*
X169047000Y-30654143D01*
X168974429Y-30363857D01*
X168974429Y-30001000D01*
X169047000Y-29710714D01*
X169119572Y-29565571D01*
X169192143Y-29493000D01*
X169337286Y-29420429D01*
X171151572Y-29928429D02*
X171151572Y-30944429D01*
X170498429Y-29928429D02*
X170498429Y-30726714D01*
X170571001Y-30871857D01*
X170716143Y-30944429D01*
X170933858Y-30944429D01*
X171079001Y-30871857D01*
X171151572Y-30799286D01*
X185216714Y-49944429D02*
X184345857Y-49944429D01*
X184781285Y-49944429D02*
X184781285Y-48420429D01*
X184636142Y-48638143D01*
X184491000Y-48783286D01*
X184345857Y-48855857D01*
X185869857Y-49799286D02*
X185942429Y-49871857D01*
X185869857Y-49944429D01*
X185797286Y-49871857D01*
X185869857Y-49799286D01*
X185869857Y-49944429D01*
X186885857Y-48420429D02*
X187031000Y-48420429D01*
X187176143Y-48493000D01*
X187248714Y-48565571D01*
X187321285Y-48710714D01*
X187393857Y-49001000D01*
X187393857Y-49363857D01*
X187321285Y-49654143D01*
X187248714Y-49799286D01*
X187176143Y-49871857D01*
X187031000Y-49944429D01*
X186885857Y-49944429D01*
X186740714Y-49871857D01*
X186668143Y-49799286D01*
X186595571Y-49654143D01*
X186523000Y-49363857D01*
X186523000Y-49001000D01*
X186595571Y-48710714D01*
X186668143Y-48565571D01*
X186740714Y-48493000D01*
X186885857Y-48420429D01*
X188337286Y-48420429D02*
X188482429Y-48420429D01*
X188627572Y-48493000D01*
X188700143Y-48565571D01*
X188772714Y-48710714D01*
X188845286Y-49001000D01*
X188845286Y-49363857D01*
X188772714Y-49654143D01*
X188700143Y-49799286D01*
X188627572Y-49871857D01*
X188482429Y-49944429D01*
X188337286Y-49944429D01*
X188192143Y-49871857D01*
X188119572Y-49799286D01*
X188047000Y-49654143D01*
X187974429Y-49363857D01*
X187974429Y-49001000D01*
X188047000Y-48710714D01*
X188119572Y-48565571D01*
X188192143Y-48493000D01*
X188337286Y-48420429D01*
X190151572Y-48928429D02*
X190151572Y-49944429D01*
X189498429Y-48928429D02*
X189498429Y-49726714D01*
X189571001Y-49871857D01*
X189716143Y-49944429D01*
X189933858Y-49944429D01*
X190079001Y-49871857D01*
X190151572Y-49799286D01*
X185216714Y-30944429D02*
X184345857Y-30944429D01*
X184781285Y-30944429D02*
X184781285Y-29420429D01*
X184636142Y-29638143D01*
X184491000Y-29783286D01*
X184345857Y-29855857D01*
X185869857Y-30799286D02*
X185942429Y-30871857D01*
X185869857Y-30944429D01*
X185797286Y-30871857D01*
X185869857Y-30799286D01*
X185869857Y-30944429D01*
X186885857Y-29420429D02*
X187031000Y-29420429D01*
X187176143Y-29493000D01*
X187248714Y-29565571D01*
X187321285Y-29710714D01*
X187393857Y-30001000D01*
X187393857Y-30363857D01*
X187321285Y-30654143D01*
X187248714Y-30799286D01*
X187176143Y-30871857D01*
X187031000Y-30944429D01*
X186885857Y-30944429D01*
X186740714Y-30871857D01*
X186668143Y-30799286D01*
X186595571Y-30654143D01*
X186523000Y-30363857D01*
X186523000Y-30001000D01*
X186595571Y-29710714D01*
X186668143Y-29565571D01*
X186740714Y-29493000D01*
X186885857Y-29420429D01*
X188337286Y-29420429D02*
X188482429Y-29420429D01*
X188627572Y-29493000D01*
X188700143Y-29565571D01*
X188772714Y-29710714D01*
X188845286Y-30001000D01*
X188845286Y-30363857D01*
X188772714Y-30654143D01*
X188700143Y-30799286D01*
X188627572Y-30871857D01*
X188482429Y-30944429D01*
X188337286Y-30944429D01*
X188192143Y-30871857D01*
X188119572Y-30799286D01*
X188047000Y-30654143D01*
X187974429Y-30363857D01*
X187974429Y-30001000D01*
X188047000Y-29710714D01*
X188119572Y-29565571D01*
X188192143Y-29493000D01*
X188337286Y-29420429D01*
X190151572Y-29928429D02*
X190151572Y-30944429D01*
X189498429Y-29928429D02*
X189498429Y-30726714D01*
X189571001Y-30871857D01*
X189716143Y-30944429D01*
X189933858Y-30944429D01*
X190079001Y-30871857D01*
X190151572Y-30799286D01*
X204216714Y-30944429D02*
X203345857Y-30944429D01*
X203781285Y-30944429D02*
X203781285Y-29420429D01*
X203636142Y-29638143D01*
X203491000Y-29783286D01*
X203345857Y-29855857D01*
X204869857Y-30799286D02*
X204942429Y-30871857D01*
X204869857Y-30944429D01*
X204797286Y-30871857D01*
X204869857Y-30799286D01*
X204869857Y-30944429D01*
X205885857Y-29420429D02*
X206031000Y-29420429D01*
X206176143Y-29493000D01*
X206248714Y-29565571D01*
X206321285Y-29710714D01*
X206393857Y-30001000D01*
X206393857Y-30363857D01*
X206321285Y-30654143D01*
X206248714Y-30799286D01*
X206176143Y-30871857D01*
X206031000Y-30944429D01*
X205885857Y-30944429D01*
X205740714Y-30871857D01*
X205668143Y-30799286D01*
X205595571Y-30654143D01*
X205523000Y-30363857D01*
X205523000Y-30001000D01*
X205595571Y-29710714D01*
X205668143Y-29565571D01*
X205740714Y-29493000D01*
X205885857Y-29420429D01*
X207337286Y-29420429D02*
X207482429Y-29420429D01*
X207627572Y-29493000D01*
X207700143Y-29565571D01*
X207772714Y-29710714D01*
X207845286Y-30001000D01*
X207845286Y-30363857D01*
X207772714Y-30654143D01*
X207700143Y-30799286D01*
X207627572Y-30871857D01*
X207482429Y-30944429D01*
X207337286Y-30944429D01*
X207192143Y-30871857D01*
X207119572Y-30799286D01*
X207047000Y-30654143D01*
X206974429Y-30363857D01*
X206974429Y-30001000D01*
X207047000Y-29710714D01*
X207119572Y-29565571D01*
X207192143Y-29493000D01*
X207337286Y-29420429D01*
X209151572Y-29928429D02*
X209151572Y-30944429D01*
X208498429Y-29928429D02*
X208498429Y-30726714D01*
X208571001Y-30871857D01*
X208716143Y-30944429D01*
X208933858Y-30944429D01*
X209079001Y-30871857D01*
X209151572Y-30799286D01*
X204216714Y-87944429D02*
X203345857Y-87944429D01*
X203781285Y-87944429D02*
X203781285Y-86420429D01*
X203636142Y-86638143D01*
X203491000Y-86783286D01*
X203345857Y-86855857D01*
X204869857Y-87799286D02*
X204942429Y-87871857D01*
X204869857Y-87944429D01*
X204797286Y-87871857D01*
X204869857Y-87799286D01*
X204869857Y-87944429D01*
X205885857Y-86420429D02*
X206031000Y-86420429D01*
X206176143Y-86493000D01*
X206248714Y-86565571D01*
X206321285Y-86710714D01*
X206393857Y-87001000D01*
X206393857Y-87363857D01*
X206321285Y-87654143D01*
X206248714Y-87799286D01*
X206176143Y-87871857D01*
X206031000Y-87944429D01*
X205885857Y-87944429D01*
X205740714Y-87871857D01*
X205668143Y-87799286D01*
X205595571Y-87654143D01*
X205523000Y-87363857D01*
X205523000Y-87001000D01*
X205595571Y-86710714D01*
X205668143Y-86565571D01*
X205740714Y-86493000D01*
X205885857Y-86420429D01*
X207337286Y-86420429D02*
X207482429Y-86420429D01*
X207627572Y-86493000D01*
X207700143Y-86565571D01*
X207772714Y-86710714D01*
X207845286Y-87001000D01*
X207845286Y-87363857D01*
X207772714Y-87654143D01*
X207700143Y-87799286D01*
X207627572Y-87871857D01*
X207482429Y-87944429D01*
X207337286Y-87944429D01*
X207192143Y-87871857D01*
X207119572Y-87799286D01*
X207047000Y-87654143D01*
X206974429Y-87363857D01*
X206974429Y-87001000D01*
X207047000Y-86710714D01*
X207119572Y-86565571D01*
X207192143Y-86493000D01*
X207337286Y-86420429D01*
X209151572Y-86928429D02*
X209151572Y-87944429D01*
X208498429Y-86928429D02*
X208498429Y-87726714D01*
X208571001Y-87871857D01*
X208716143Y-87944429D01*
X208933858Y-87944429D01*
X209079001Y-87871857D01*
X209151572Y-87799286D01*
X204216714Y-106944429D02*
X203345857Y-106944429D01*
X203781285Y-106944429D02*
X203781285Y-105420429D01*
X203636142Y-105638143D01*
X203491000Y-105783286D01*
X203345857Y-105855857D01*
X204869857Y-106799286D02*
X204942429Y-106871857D01*
X204869857Y-106944429D01*
X204797286Y-106871857D01*
X204869857Y-106799286D01*
X204869857Y-106944429D01*
X205885857Y-105420429D02*
X206031000Y-105420429D01*
X206176143Y-105493000D01*
X206248714Y-105565571D01*
X206321285Y-105710714D01*
X206393857Y-106001000D01*
X206393857Y-106363857D01*
X206321285Y-106654143D01*
X206248714Y-106799286D01*
X206176143Y-106871857D01*
X206031000Y-106944429D01*
X205885857Y-106944429D01*
X205740714Y-106871857D01*
X205668143Y-106799286D01*
X205595571Y-106654143D01*
X205523000Y-106363857D01*
X205523000Y-106001000D01*
X205595571Y-105710714D01*
X205668143Y-105565571D01*
X205740714Y-105493000D01*
X205885857Y-105420429D01*
X207337286Y-105420429D02*
X207482429Y-105420429D01*
X207627572Y-105493000D01*
X207700143Y-105565571D01*
X207772714Y-105710714D01*
X207845286Y-106001000D01*
X207845286Y-106363857D01*
X207772714Y-106654143D01*
X207700143Y-106799286D01*
X207627572Y-106871857D01*
X207482429Y-106944429D01*
X207337286Y-106944429D01*
X207192143Y-106871857D01*
X207119572Y-106799286D01*
X207047000Y-106654143D01*
X206974429Y-106363857D01*
X206974429Y-106001000D01*
X207047000Y-105710714D01*
X207119572Y-105565571D01*
X207192143Y-105493000D01*
X207337286Y-105420429D01*
X209151572Y-105928429D02*
X209151572Y-106944429D01*
X208498429Y-105928429D02*
X208498429Y-106726714D01*
X208571001Y-106871857D01*
X208716143Y-106944429D01*
X208933858Y-106944429D01*
X209079001Y-106871857D01*
X209151572Y-106799286D01*
X204216714Y-49944429D02*
X203345857Y-49944429D01*
X203781285Y-49944429D02*
X203781285Y-48420429D01*
X203636142Y-48638143D01*
X203491000Y-48783286D01*
X203345857Y-48855857D01*
X204869857Y-49799286D02*
X204942429Y-49871857D01*
X204869857Y-49944429D01*
X204797286Y-49871857D01*
X204869857Y-49799286D01*
X204869857Y-49944429D01*
X205885857Y-48420429D02*
X206031000Y-48420429D01*
X206176143Y-48493000D01*
X206248714Y-48565571D01*
X206321285Y-48710714D01*
X206393857Y-49001000D01*
X206393857Y-49363857D01*
X206321285Y-49654143D01*
X206248714Y-49799286D01*
X206176143Y-49871857D01*
X206031000Y-49944429D01*
X205885857Y-49944429D01*
X205740714Y-49871857D01*
X205668143Y-49799286D01*
X205595571Y-49654143D01*
X205523000Y-49363857D01*
X205523000Y-49001000D01*
X205595571Y-48710714D01*
X205668143Y-48565571D01*
X205740714Y-48493000D01*
X205885857Y-48420429D01*
X207337286Y-48420429D02*
X207482429Y-48420429D01*
X207627572Y-48493000D01*
X207700143Y-48565571D01*
X207772714Y-48710714D01*
X207845286Y-49001000D01*
X207845286Y-49363857D01*
X207772714Y-49654143D01*
X207700143Y-49799286D01*
X207627572Y-49871857D01*
X207482429Y-49944429D01*
X207337286Y-49944429D01*
X207192143Y-49871857D01*
X207119572Y-49799286D01*
X207047000Y-49654143D01*
X206974429Y-49363857D01*
X206974429Y-49001000D01*
X207047000Y-48710714D01*
X207119572Y-48565571D01*
X207192143Y-48493000D01*
X207337286Y-48420429D01*
X209151572Y-48928429D02*
X209151572Y-49944429D01*
X208498429Y-48928429D02*
X208498429Y-49726714D01*
X208571001Y-49871857D01*
X208716143Y-49944429D01*
X208933858Y-49944429D01*
X209079001Y-49871857D01*
X209151572Y-49799286D01*
X147216714Y-68944429D02*
X146345857Y-68944429D01*
X146781285Y-68944429D02*
X146781285Y-67420429D01*
X146636142Y-67638143D01*
X146491000Y-67783286D01*
X146345857Y-67855857D01*
X147869857Y-68799286D02*
X147942429Y-68871857D01*
X147869857Y-68944429D01*
X147797286Y-68871857D01*
X147869857Y-68799286D01*
X147869857Y-68944429D01*
X148885857Y-67420429D02*
X149031000Y-67420429D01*
X149176143Y-67493000D01*
X149248714Y-67565571D01*
X149321285Y-67710714D01*
X149393857Y-68001000D01*
X149393857Y-68363857D01*
X149321285Y-68654143D01*
X149248714Y-68799286D01*
X149176143Y-68871857D01*
X149031000Y-68944429D01*
X148885857Y-68944429D01*
X148740714Y-68871857D01*
X148668143Y-68799286D01*
X148595571Y-68654143D01*
X148523000Y-68363857D01*
X148523000Y-68001000D01*
X148595571Y-67710714D01*
X148668143Y-67565571D01*
X148740714Y-67493000D01*
X148885857Y-67420429D01*
X150337286Y-67420429D02*
X150482429Y-67420429D01*
X150627572Y-67493000D01*
X150700143Y-67565571D01*
X150772714Y-67710714D01*
X150845286Y-68001000D01*
X150845286Y-68363857D01*
X150772714Y-68654143D01*
X150700143Y-68799286D01*
X150627572Y-68871857D01*
X150482429Y-68944429D01*
X150337286Y-68944429D01*
X150192143Y-68871857D01*
X150119572Y-68799286D01*
X150047000Y-68654143D01*
X149974429Y-68363857D01*
X149974429Y-68001000D01*
X150047000Y-67710714D01*
X150119572Y-67565571D01*
X150192143Y-67493000D01*
X150337286Y-67420429D01*
X152151572Y-67928429D02*
X152151572Y-68944429D01*
X151498429Y-67928429D02*
X151498429Y-68726714D01*
X151571001Y-68871857D01*
X151716143Y-68944429D01*
X151933858Y-68944429D01*
X152079001Y-68871857D01*
X152151572Y-68799286D01*
X147216714Y-87944429D02*
X146345857Y-87944429D01*
X146781285Y-87944429D02*
X146781285Y-86420429D01*
X146636142Y-86638143D01*
X146491000Y-86783286D01*
X146345857Y-86855857D01*
X147869857Y-87799286D02*
X147942429Y-87871857D01*
X147869857Y-87944429D01*
X147797286Y-87871857D01*
X147869857Y-87799286D01*
X147869857Y-87944429D01*
X148885857Y-86420429D02*
X149031000Y-86420429D01*
X149176143Y-86493000D01*
X149248714Y-86565571D01*
X149321285Y-86710714D01*
X149393857Y-87001000D01*
X149393857Y-87363857D01*
X149321285Y-87654143D01*
X149248714Y-87799286D01*
X149176143Y-87871857D01*
X149031000Y-87944429D01*
X148885857Y-87944429D01*
X148740714Y-87871857D01*
X148668143Y-87799286D01*
X148595571Y-87654143D01*
X148523000Y-87363857D01*
X148523000Y-87001000D01*
X148595571Y-86710714D01*
X148668143Y-86565571D01*
X148740714Y-86493000D01*
X148885857Y-86420429D01*
X150337286Y-86420429D02*
X150482429Y-86420429D01*
X150627572Y-86493000D01*
X150700143Y-86565571D01*
X150772714Y-86710714D01*
X150845286Y-87001000D01*
X150845286Y-87363857D01*
X150772714Y-87654143D01*
X150700143Y-87799286D01*
X150627572Y-87871857D01*
X150482429Y-87944429D01*
X150337286Y-87944429D01*
X150192143Y-87871857D01*
X150119572Y-87799286D01*
X150047000Y-87654143D01*
X149974429Y-87363857D01*
X149974429Y-87001000D01*
X150047000Y-86710714D01*
X150119572Y-86565571D01*
X150192143Y-86493000D01*
X150337286Y-86420429D01*
X152151572Y-86928429D02*
X152151572Y-87944429D01*
X151498429Y-86928429D02*
X151498429Y-87726714D01*
X151571001Y-87871857D01*
X151716143Y-87944429D01*
X151933858Y-87944429D01*
X152079001Y-87871857D01*
X152151572Y-87799286D01*
X147216714Y-106944429D02*
X146345857Y-106944429D01*
X146781285Y-106944429D02*
X146781285Y-105420429D01*
X146636142Y-105638143D01*
X146491000Y-105783286D01*
X146345857Y-105855857D01*
X147869857Y-106799286D02*
X147942429Y-106871857D01*
X147869857Y-106944429D01*
X147797286Y-106871857D01*
X147869857Y-106799286D01*
X147869857Y-106944429D01*
X148885857Y-105420429D02*
X149031000Y-105420429D01*
X149176143Y-105493000D01*
X149248714Y-105565571D01*
X149321285Y-105710714D01*
X149393857Y-106001000D01*
X149393857Y-106363857D01*
X149321285Y-106654143D01*
X149248714Y-106799286D01*
X149176143Y-106871857D01*
X149031000Y-106944429D01*
X148885857Y-106944429D01*
X148740714Y-106871857D01*
X148668143Y-106799286D01*
X148595571Y-106654143D01*
X148523000Y-106363857D01*
X148523000Y-106001000D01*
X148595571Y-105710714D01*
X148668143Y-105565571D01*
X148740714Y-105493000D01*
X148885857Y-105420429D01*
X150337286Y-105420429D02*
X150482429Y-105420429D01*
X150627572Y-105493000D01*
X150700143Y-105565571D01*
X150772714Y-105710714D01*
X150845286Y-106001000D01*
X150845286Y-106363857D01*
X150772714Y-106654143D01*
X150700143Y-106799286D01*
X150627572Y-106871857D01*
X150482429Y-106944429D01*
X150337286Y-106944429D01*
X150192143Y-106871857D01*
X150119572Y-106799286D01*
X150047000Y-106654143D01*
X149974429Y-106363857D01*
X149974429Y-106001000D01*
X150047000Y-105710714D01*
X150119572Y-105565571D01*
X150192143Y-105493000D01*
X150337286Y-105420429D01*
X152151572Y-105928429D02*
X152151572Y-106944429D01*
X151498429Y-105928429D02*
X151498429Y-106726714D01*
X151571001Y-106871857D01*
X151716143Y-106944429D01*
X151933858Y-106944429D01*
X152079001Y-106871857D01*
X152151572Y-106799286D01*
X185216714Y-106944429D02*
X184345857Y-106944429D01*
X184781285Y-106944429D02*
X184781285Y-105420429D01*
X184636142Y-105638143D01*
X184491000Y-105783286D01*
X184345857Y-105855857D01*
X185869857Y-106799286D02*
X185942429Y-106871857D01*
X185869857Y-106944429D01*
X185797286Y-106871857D01*
X185869857Y-106799286D01*
X185869857Y-106944429D01*
X186885857Y-105420429D02*
X187031000Y-105420429D01*
X187176143Y-105493000D01*
X187248714Y-105565571D01*
X187321285Y-105710714D01*
X187393857Y-106001000D01*
X187393857Y-106363857D01*
X187321285Y-106654143D01*
X187248714Y-106799286D01*
X187176143Y-106871857D01*
X187031000Y-106944429D01*
X186885857Y-106944429D01*
X186740714Y-106871857D01*
X186668143Y-106799286D01*
X186595571Y-106654143D01*
X186523000Y-106363857D01*
X186523000Y-106001000D01*
X186595571Y-105710714D01*
X186668143Y-105565571D01*
X186740714Y-105493000D01*
X186885857Y-105420429D01*
X188337286Y-105420429D02*
X188482429Y-105420429D01*
X188627572Y-105493000D01*
X188700143Y-105565571D01*
X188772714Y-105710714D01*
X188845286Y-106001000D01*
X188845286Y-106363857D01*
X188772714Y-106654143D01*
X188700143Y-106799286D01*
X188627572Y-106871857D01*
X188482429Y-106944429D01*
X188337286Y-106944429D01*
X188192143Y-106871857D01*
X188119572Y-106799286D01*
X188047000Y-106654143D01*
X187974429Y-106363857D01*
X187974429Y-106001000D01*
X188047000Y-105710714D01*
X188119572Y-105565571D01*
X188192143Y-105493000D01*
X188337286Y-105420429D01*
X190151572Y-105928429D02*
X190151572Y-106944429D01*
X189498429Y-105928429D02*
X189498429Y-106726714D01*
X189571001Y-106871857D01*
X189716143Y-106944429D01*
X189933858Y-106944429D01*
X190079001Y-106871857D01*
X190151572Y-106799286D01*
X185216714Y-87944429D02*
X184345857Y-87944429D01*
X184781285Y-87944429D02*
X184781285Y-86420429D01*
X184636142Y-86638143D01*
X184491000Y-86783286D01*
X184345857Y-86855857D01*
X185869857Y-87799286D02*
X185942429Y-87871857D01*
X185869857Y-87944429D01*
X185797286Y-87871857D01*
X185869857Y-87799286D01*
X185869857Y-87944429D01*
X186885857Y-86420429D02*
X187031000Y-86420429D01*
X187176143Y-86493000D01*
X187248714Y-86565571D01*
X187321285Y-86710714D01*
X187393857Y-87001000D01*
X187393857Y-87363857D01*
X187321285Y-87654143D01*
X187248714Y-87799286D01*
X187176143Y-87871857D01*
X187031000Y-87944429D01*
X186885857Y-87944429D01*
X186740714Y-87871857D01*
X186668143Y-87799286D01*
X186595571Y-87654143D01*
X186523000Y-87363857D01*
X186523000Y-87001000D01*
X186595571Y-86710714D01*
X186668143Y-86565571D01*
X186740714Y-86493000D01*
X186885857Y-86420429D01*
X188337286Y-86420429D02*
X188482429Y-86420429D01*
X188627572Y-86493000D01*
X188700143Y-86565571D01*
X188772714Y-86710714D01*
X188845286Y-87001000D01*
X188845286Y-87363857D01*
X188772714Y-87654143D01*
X188700143Y-87799286D01*
X188627572Y-87871857D01*
X188482429Y-87944429D01*
X188337286Y-87944429D01*
X188192143Y-87871857D01*
X188119572Y-87799286D01*
X188047000Y-87654143D01*
X187974429Y-87363857D01*
X187974429Y-87001000D01*
X188047000Y-86710714D01*
X188119572Y-86565571D01*
X188192143Y-86493000D01*
X188337286Y-86420429D01*
X190151572Y-86928429D02*
X190151572Y-87944429D01*
X189498429Y-86928429D02*
X189498429Y-87726714D01*
X189571001Y-87871857D01*
X189716143Y-87944429D01*
X189933858Y-87944429D01*
X190079001Y-87871857D01*
X190151572Y-87799286D01*
X185216714Y-68944429D02*
X184345857Y-68944429D01*
X184781285Y-68944429D02*
X184781285Y-67420429D01*
X184636142Y-67638143D01*
X184491000Y-67783286D01*
X184345857Y-67855857D01*
X185869857Y-68799286D02*
X185942429Y-68871857D01*
X185869857Y-68944429D01*
X185797286Y-68871857D01*
X185869857Y-68799286D01*
X185869857Y-68944429D01*
X186885857Y-67420429D02*
X187031000Y-67420429D01*
X187176143Y-67493000D01*
X187248714Y-67565571D01*
X187321285Y-67710714D01*
X187393857Y-68001000D01*
X187393857Y-68363857D01*
X187321285Y-68654143D01*
X187248714Y-68799286D01*
X187176143Y-68871857D01*
X187031000Y-68944429D01*
X186885857Y-68944429D01*
X186740714Y-68871857D01*
X186668143Y-68799286D01*
X186595571Y-68654143D01*
X186523000Y-68363857D01*
X186523000Y-68001000D01*
X186595571Y-67710714D01*
X186668143Y-67565571D01*
X186740714Y-67493000D01*
X186885857Y-67420429D01*
X188337286Y-67420429D02*
X188482429Y-67420429D01*
X188627572Y-67493000D01*
X188700143Y-67565571D01*
X188772714Y-67710714D01*
X188845286Y-68001000D01*
X188845286Y-68363857D01*
X188772714Y-68654143D01*
X188700143Y-68799286D01*
X188627572Y-68871857D01*
X188482429Y-68944429D01*
X188337286Y-68944429D01*
X188192143Y-68871857D01*
X188119572Y-68799286D01*
X188047000Y-68654143D01*
X187974429Y-68363857D01*
X187974429Y-68001000D01*
X188047000Y-67710714D01*
X188119572Y-67565571D01*
X188192143Y-67493000D01*
X188337286Y-67420429D01*
X190151572Y-67928429D02*
X190151572Y-68944429D01*
X189498429Y-67928429D02*
X189498429Y-68726714D01*
X189571001Y-68871857D01*
X189716143Y-68944429D01*
X189933858Y-68944429D01*
X190079001Y-68871857D01*
X190151572Y-68799286D01*
X166216714Y-68944429D02*
X165345857Y-68944429D01*
X165781285Y-68944429D02*
X165781285Y-67420429D01*
X165636142Y-67638143D01*
X165491000Y-67783286D01*
X165345857Y-67855857D01*
X166869857Y-68799286D02*
X166942429Y-68871857D01*
X166869857Y-68944429D01*
X166797286Y-68871857D01*
X166869857Y-68799286D01*
X166869857Y-68944429D01*
X167885857Y-67420429D02*
X168031000Y-67420429D01*
X168176143Y-67493000D01*
X168248714Y-67565571D01*
X168321285Y-67710714D01*
X168393857Y-68001000D01*
X168393857Y-68363857D01*
X168321285Y-68654143D01*
X168248714Y-68799286D01*
X168176143Y-68871857D01*
X168031000Y-68944429D01*
X167885857Y-68944429D01*
X167740714Y-68871857D01*
X167668143Y-68799286D01*
X167595571Y-68654143D01*
X167523000Y-68363857D01*
X167523000Y-68001000D01*
X167595571Y-67710714D01*
X167668143Y-67565571D01*
X167740714Y-67493000D01*
X167885857Y-67420429D01*
X169337286Y-67420429D02*
X169482429Y-67420429D01*
X169627572Y-67493000D01*
X169700143Y-67565571D01*
X169772714Y-67710714D01*
X169845286Y-68001000D01*
X169845286Y-68363857D01*
X169772714Y-68654143D01*
X169700143Y-68799286D01*
X169627572Y-68871857D01*
X169482429Y-68944429D01*
X169337286Y-68944429D01*
X169192143Y-68871857D01*
X169119572Y-68799286D01*
X169047000Y-68654143D01*
X168974429Y-68363857D01*
X168974429Y-68001000D01*
X169047000Y-67710714D01*
X169119572Y-67565571D01*
X169192143Y-67493000D01*
X169337286Y-67420429D01*
X171151572Y-67928429D02*
X171151572Y-68944429D01*
X170498429Y-67928429D02*
X170498429Y-68726714D01*
X170571001Y-68871857D01*
X170716143Y-68944429D01*
X170933858Y-68944429D01*
X171079001Y-68871857D01*
X171151572Y-68799286D01*
X166216714Y-87944429D02*
X165345857Y-87944429D01*
X165781285Y-87944429D02*
X165781285Y-86420429D01*
X165636142Y-86638143D01*
X165491000Y-86783286D01*
X165345857Y-86855857D01*
X166869857Y-87799286D02*
X166942429Y-87871857D01*
X166869857Y-87944429D01*
X166797286Y-87871857D01*
X166869857Y-87799286D01*
X166869857Y-87944429D01*
X167885857Y-86420429D02*
X168031000Y-86420429D01*
X168176143Y-86493000D01*
X168248714Y-86565571D01*
X168321285Y-86710714D01*
X168393857Y-87001000D01*
X168393857Y-87363857D01*
X168321285Y-87654143D01*
X168248714Y-87799286D01*
X168176143Y-87871857D01*
X168031000Y-87944429D01*
X167885857Y-87944429D01*
X167740714Y-87871857D01*
X167668143Y-87799286D01*
X167595571Y-87654143D01*
X167523000Y-87363857D01*
X167523000Y-87001000D01*
X167595571Y-86710714D01*
X167668143Y-86565571D01*
X167740714Y-86493000D01*
X167885857Y-86420429D01*
X169337286Y-86420429D02*
X169482429Y-86420429D01*
X169627572Y-86493000D01*
X169700143Y-86565571D01*
X169772714Y-86710714D01*
X169845286Y-87001000D01*
X169845286Y-87363857D01*
X169772714Y-87654143D01*
X169700143Y-87799286D01*
X169627572Y-87871857D01*
X169482429Y-87944429D01*
X169337286Y-87944429D01*
X169192143Y-87871857D01*
X169119572Y-87799286D01*
X169047000Y-87654143D01*
X168974429Y-87363857D01*
X168974429Y-87001000D01*
X169047000Y-86710714D01*
X169119572Y-86565571D01*
X169192143Y-86493000D01*
X169337286Y-86420429D01*
X171151572Y-86928429D02*
X171151572Y-87944429D01*
X170498429Y-86928429D02*
X170498429Y-87726714D01*
X170571001Y-87871857D01*
X170716143Y-87944429D01*
X170933858Y-87944429D01*
X171079001Y-87871857D01*
X171151572Y-87799286D01*
X182944429Y-105783286D02*
X182944429Y-106654143D01*
X182944429Y-106218715D02*
X181420429Y-106218715D01*
X181638143Y-106363858D01*
X181783286Y-106509000D01*
X181855857Y-106654143D01*
X182799286Y-105130143D02*
X182871857Y-105057571D01*
X182944429Y-105130143D01*
X182871857Y-105202714D01*
X182799286Y-105130143D01*
X182944429Y-105130143D01*
X181420429Y-104114143D02*
X181420429Y-103969000D01*
X181493000Y-103823857D01*
X181565571Y-103751286D01*
X181710714Y-103678715D01*
X182001000Y-103606143D01*
X182363857Y-103606143D01*
X182654143Y-103678715D01*
X182799286Y-103751286D01*
X182871857Y-103823857D01*
X182944429Y-103969000D01*
X182944429Y-104114143D01*
X182871857Y-104259286D01*
X182799286Y-104331857D01*
X182654143Y-104404429D01*
X182363857Y-104477000D01*
X182001000Y-104477000D01*
X181710714Y-104404429D01*
X181565571Y-104331857D01*
X181493000Y-104259286D01*
X181420429Y-104114143D01*
X181420429Y-102662714D02*
X181420429Y-102517571D01*
X181493000Y-102372428D01*
X181565571Y-102299857D01*
X181710714Y-102227286D01*
X182001000Y-102154714D01*
X182363857Y-102154714D01*
X182654143Y-102227286D01*
X182799286Y-102299857D01*
X182871857Y-102372428D01*
X182944429Y-102517571D01*
X182944429Y-102662714D01*
X182871857Y-102807857D01*
X182799286Y-102880428D01*
X182654143Y-102953000D01*
X182363857Y-103025571D01*
X182001000Y-103025571D01*
X181710714Y-102953000D01*
X181565571Y-102880428D01*
X181493000Y-102807857D01*
X181420429Y-102662714D01*
X181928429Y-100848428D02*
X182944429Y-100848428D01*
X181928429Y-101501571D02*
X182726714Y-101501571D01*
X182871857Y-101428999D01*
X182944429Y-101283857D01*
X182944429Y-101066142D01*
X182871857Y-100920999D01*
X182799286Y-100848428D01*
X52216714Y-106944429D02*
X51345857Y-106944429D01*
X51781285Y-106944429D02*
X51781285Y-105420429D01*
X51636142Y-105638143D01*
X51491000Y-105783286D01*
X51345857Y-105855857D01*
X52869857Y-106799286D02*
X52942429Y-106871857D01*
X52869857Y-106944429D01*
X52797286Y-106871857D01*
X52869857Y-106799286D01*
X52869857Y-106944429D01*
X53885857Y-105420429D02*
X54031000Y-105420429D01*
X54176143Y-105493000D01*
X54248714Y-105565571D01*
X54321285Y-105710714D01*
X54393857Y-106001000D01*
X54393857Y-106363857D01*
X54321285Y-106654143D01*
X54248714Y-106799286D01*
X54176143Y-106871857D01*
X54031000Y-106944429D01*
X53885857Y-106944429D01*
X53740714Y-106871857D01*
X53668143Y-106799286D01*
X53595571Y-106654143D01*
X53523000Y-106363857D01*
X53523000Y-106001000D01*
X53595571Y-105710714D01*
X53668143Y-105565571D01*
X53740714Y-105493000D01*
X53885857Y-105420429D01*
X55337286Y-105420429D02*
X55482429Y-105420429D01*
X55627572Y-105493000D01*
X55700143Y-105565571D01*
X55772714Y-105710714D01*
X55845286Y-106001000D01*
X55845286Y-106363857D01*
X55772714Y-106654143D01*
X55700143Y-106799286D01*
X55627572Y-106871857D01*
X55482429Y-106944429D01*
X55337286Y-106944429D01*
X55192143Y-106871857D01*
X55119572Y-106799286D01*
X55047000Y-106654143D01*
X54974429Y-106363857D01*
X54974429Y-106001000D01*
X55047000Y-105710714D01*
X55119572Y-105565571D01*
X55192143Y-105493000D01*
X55337286Y-105420429D01*
X57151572Y-105928429D02*
X57151572Y-106944429D01*
X56498429Y-105928429D02*
X56498429Y-106726714D01*
X56571001Y-106871857D01*
X56716143Y-106944429D01*
X56933858Y-106944429D01*
X57079001Y-106871857D01*
X57151572Y-106799286D01*
X52216714Y-87944429D02*
X51345857Y-87944429D01*
X51781285Y-87944429D02*
X51781285Y-86420429D01*
X51636142Y-86638143D01*
X51491000Y-86783286D01*
X51345857Y-86855857D01*
X52869857Y-87799286D02*
X52942429Y-87871857D01*
X52869857Y-87944429D01*
X52797286Y-87871857D01*
X52869857Y-87799286D01*
X52869857Y-87944429D01*
X53885857Y-86420429D02*
X54031000Y-86420429D01*
X54176143Y-86493000D01*
X54248714Y-86565571D01*
X54321285Y-86710714D01*
X54393857Y-87001000D01*
X54393857Y-87363857D01*
X54321285Y-87654143D01*
X54248714Y-87799286D01*
X54176143Y-87871857D01*
X54031000Y-87944429D01*
X53885857Y-87944429D01*
X53740714Y-87871857D01*
X53668143Y-87799286D01*
X53595571Y-87654143D01*
X53523000Y-87363857D01*
X53523000Y-87001000D01*
X53595571Y-86710714D01*
X53668143Y-86565571D01*
X53740714Y-86493000D01*
X53885857Y-86420429D01*
X55337286Y-86420429D02*
X55482429Y-86420429D01*
X55627572Y-86493000D01*
X55700143Y-86565571D01*
X55772714Y-86710714D01*
X55845286Y-87001000D01*
X55845286Y-87363857D01*
X55772714Y-87654143D01*
X55700143Y-87799286D01*
X55627572Y-87871857D01*
X55482429Y-87944429D01*
X55337286Y-87944429D01*
X55192143Y-87871857D01*
X55119572Y-87799286D01*
X55047000Y-87654143D01*
X54974429Y-87363857D01*
X54974429Y-87001000D01*
X55047000Y-86710714D01*
X55119572Y-86565571D01*
X55192143Y-86493000D01*
X55337286Y-86420429D01*
X57151572Y-86928429D02*
X57151572Y-87944429D01*
X56498429Y-86928429D02*
X56498429Y-87726714D01*
X56571001Y-87871857D01*
X56716143Y-87944429D01*
X56933858Y-87944429D01*
X57079001Y-87871857D01*
X57151572Y-87799286D01*
X52216714Y-68944429D02*
X51345857Y-68944429D01*
X51781285Y-68944429D02*
X51781285Y-67420429D01*
X51636142Y-67638143D01*
X51491000Y-67783286D01*
X51345857Y-67855857D01*
X52869857Y-68799286D02*
X52942429Y-68871857D01*
X52869857Y-68944429D01*
X52797286Y-68871857D01*
X52869857Y-68799286D01*
X52869857Y-68944429D01*
X53885857Y-67420429D02*
X54031000Y-67420429D01*
X54176143Y-67493000D01*
X54248714Y-67565571D01*
X54321285Y-67710714D01*
X54393857Y-68001000D01*
X54393857Y-68363857D01*
X54321285Y-68654143D01*
X54248714Y-68799286D01*
X54176143Y-68871857D01*
X54031000Y-68944429D01*
X53885857Y-68944429D01*
X53740714Y-68871857D01*
X53668143Y-68799286D01*
X53595571Y-68654143D01*
X53523000Y-68363857D01*
X53523000Y-68001000D01*
X53595571Y-67710714D01*
X53668143Y-67565571D01*
X53740714Y-67493000D01*
X53885857Y-67420429D01*
X55337286Y-67420429D02*
X55482429Y-67420429D01*
X55627572Y-67493000D01*
X55700143Y-67565571D01*
X55772714Y-67710714D01*
X55845286Y-68001000D01*
X55845286Y-68363857D01*
X55772714Y-68654143D01*
X55700143Y-68799286D01*
X55627572Y-68871857D01*
X55482429Y-68944429D01*
X55337286Y-68944429D01*
X55192143Y-68871857D01*
X55119572Y-68799286D01*
X55047000Y-68654143D01*
X54974429Y-68363857D01*
X54974429Y-68001000D01*
X55047000Y-67710714D01*
X55119572Y-67565571D01*
X55192143Y-67493000D01*
X55337286Y-67420429D01*
X57151572Y-67928429D02*
X57151572Y-68944429D01*
X56498429Y-67928429D02*
X56498429Y-68726714D01*
X56571001Y-68871857D01*
X56716143Y-68944429D01*
X56933858Y-68944429D01*
X57079001Y-68871857D01*
X57151572Y-68799286D01*
X71216714Y-68944429D02*
X70345857Y-68944429D01*
X70781285Y-68944429D02*
X70781285Y-67420429D01*
X70636142Y-67638143D01*
X70491000Y-67783286D01*
X70345857Y-67855857D01*
X71869857Y-68799286D02*
X71942429Y-68871857D01*
X71869857Y-68944429D01*
X71797286Y-68871857D01*
X71869857Y-68799286D01*
X71869857Y-68944429D01*
X72885857Y-67420429D02*
X73031000Y-67420429D01*
X73176143Y-67493000D01*
X73248714Y-67565571D01*
X73321285Y-67710714D01*
X73393857Y-68001000D01*
X73393857Y-68363857D01*
X73321285Y-68654143D01*
X73248714Y-68799286D01*
X73176143Y-68871857D01*
X73031000Y-68944429D01*
X72885857Y-68944429D01*
X72740714Y-68871857D01*
X72668143Y-68799286D01*
X72595571Y-68654143D01*
X72523000Y-68363857D01*
X72523000Y-68001000D01*
X72595571Y-67710714D01*
X72668143Y-67565571D01*
X72740714Y-67493000D01*
X72885857Y-67420429D01*
X74337286Y-67420429D02*
X74482429Y-67420429D01*
X74627572Y-67493000D01*
X74700143Y-67565571D01*
X74772714Y-67710714D01*
X74845286Y-68001000D01*
X74845286Y-68363857D01*
X74772714Y-68654143D01*
X74700143Y-68799286D01*
X74627572Y-68871857D01*
X74482429Y-68944429D01*
X74337286Y-68944429D01*
X74192143Y-68871857D01*
X74119572Y-68799286D01*
X74047000Y-68654143D01*
X73974429Y-68363857D01*
X73974429Y-68001000D01*
X74047000Y-67710714D01*
X74119572Y-67565571D01*
X74192143Y-67493000D01*
X74337286Y-67420429D01*
X76151572Y-67928429D02*
X76151572Y-68944429D01*
X75498429Y-67928429D02*
X75498429Y-68726714D01*
X75571001Y-68871857D01*
X75716143Y-68944429D01*
X75933858Y-68944429D01*
X76079001Y-68871857D01*
X76151572Y-68799286D01*
X71216714Y-87944429D02*
X70345857Y-87944429D01*
X70781285Y-87944429D02*
X70781285Y-86420429D01*
X70636142Y-86638143D01*
X70491000Y-86783286D01*
X70345857Y-86855857D01*
X71869857Y-87799286D02*
X71942429Y-87871857D01*
X71869857Y-87944429D01*
X71797286Y-87871857D01*
X71869857Y-87799286D01*
X71869857Y-87944429D01*
X72885857Y-86420429D02*
X73031000Y-86420429D01*
X73176143Y-86493000D01*
X73248714Y-86565571D01*
X73321285Y-86710714D01*
X73393857Y-87001000D01*
X73393857Y-87363857D01*
X73321285Y-87654143D01*
X73248714Y-87799286D01*
X73176143Y-87871857D01*
X73031000Y-87944429D01*
X72885857Y-87944429D01*
X72740714Y-87871857D01*
X72668143Y-87799286D01*
X72595571Y-87654143D01*
X72523000Y-87363857D01*
X72523000Y-87001000D01*
X72595571Y-86710714D01*
X72668143Y-86565571D01*
X72740714Y-86493000D01*
X72885857Y-86420429D01*
X74337286Y-86420429D02*
X74482429Y-86420429D01*
X74627572Y-86493000D01*
X74700143Y-86565571D01*
X74772714Y-86710714D01*
X74845286Y-87001000D01*
X74845286Y-87363857D01*
X74772714Y-87654143D01*
X74700143Y-87799286D01*
X74627572Y-87871857D01*
X74482429Y-87944429D01*
X74337286Y-87944429D01*
X74192143Y-87871857D01*
X74119572Y-87799286D01*
X74047000Y-87654143D01*
X73974429Y-87363857D01*
X73974429Y-87001000D01*
X74047000Y-86710714D01*
X74119572Y-86565571D01*
X74192143Y-86493000D01*
X74337286Y-86420429D01*
X76151572Y-86928429D02*
X76151572Y-87944429D01*
X75498429Y-86928429D02*
X75498429Y-87726714D01*
X75571001Y-87871857D01*
X75716143Y-87944429D01*
X75933858Y-87944429D01*
X76079001Y-87871857D01*
X76151572Y-87799286D01*
X71216714Y-106944429D02*
X70345857Y-106944429D01*
X70781285Y-106944429D02*
X70781285Y-105420429D01*
X70636142Y-105638143D01*
X70491000Y-105783286D01*
X70345857Y-105855857D01*
X71869857Y-106799286D02*
X71942429Y-106871857D01*
X71869857Y-106944429D01*
X71797286Y-106871857D01*
X71869857Y-106799286D01*
X71869857Y-106944429D01*
X72885857Y-105420429D02*
X73031000Y-105420429D01*
X73176143Y-105493000D01*
X73248714Y-105565571D01*
X73321285Y-105710714D01*
X73393857Y-106001000D01*
X73393857Y-106363857D01*
X73321285Y-106654143D01*
X73248714Y-106799286D01*
X73176143Y-106871857D01*
X73031000Y-106944429D01*
X72885857Y-106944429D01*
X72740714Y-106871857D01*
X72668143Y-106799286D01*
X72595571Y-106654143D01*
X72523000Y-106363857D01*
X72523000Y-106001000D01*
X72595571Y-105710714D01*
X72668143Y-105565571D01*
X72740714Y-105493000D01*
X72885857Y-105420429D01*
X74337286Y-105420429D02*
X74482429Y-105420429D01*
X74627572Y-105493000D01*
X74700143Y-105565571D01*
X74772714Y-105710714D01*
X74845286Y-106001000D01*
X74845286Y-106363857D01*
X74772714Y-106654143D01*
X74700143Y-106799286D01*
X74627572Y-106871857D01*
X74482429Y-106944429D01*
X74337286Y-106944429D01*
X74192143Y-106871857D01*
X74119572Y-106799286D01*
X74047000Y-106654143D01*
X73974429Y-106363857D01*
X73974429Y-106001000D01*
X74047000Y-105710714D01*
X74119572Y-105565571D01*
X74192143Y-105493000D01*
X74337286Y-105420429D01*
X76151572Y-105928429D02*
X76151572Y-106944429D01*
X75498429Y-105928429D02*
X75498429Y-106726714D01*
X75571001Y-106871857D01*
X75716143Y-106944429D01*
X75933858Y-106944429D01*
X76079001Y-106871857D01*
X76151572Y-106799286D01*
X33216714Y-106944429D02*
X32345857Y-106944429D01*
X32781285Y-106944429D02*
X32781285Y-105420429D01*
X32636142Y-105638143D01*
X32491000Y-105783286D01*
X32345857Y-105855857D01*
X33869857Y-106799286D02*
X33942429Y-106871857D01*
X33869857Y-106944429D01*
X33797286Y-106871857D01*
X33869857Y-106799286D01*
X33869857Y-106944429D01*
X34885857Y-105420429D02*
X35031000Y-105420429D01*
X35176143Y-105493000D01*
X35248714Y-105565571D01*
X35321285Y-105710714D01*
X35393857Y-106001000D01*
X35393857Y-106363857D01*
X35321285Y-106654143D01*
X35248714Y-106799286D01*
X35176143Y-106871857D01*
X35031000Y-106944429D01*
X34885857Y-106944429D01*
X34740714Y-106871857D01*
X34668143Y-106799286D01*
X34595571Y-106654143D01*
X34523000Y-106363857D01*
X34523000Y-106001000D01*
X34595571Y-105710714D01*
X34668143Y-105565571D01*
X34740714Y-105493000D01*
X34885857Y-105420429D01*
X36337286Y-105420429D02*
X36482429Y-105420429D01*
X36627572Y-105493000D01*
X36700143Y-105565571D01*
X36772714Y-105710714D01*
X36845286Y-106001000D01*
X36845286Y-106363857D01*
X36772714Y-106654143D01*
X36700143Y-106799286D01*
X36627572Y-106871857D01*
X36482429Y-106944429D01*
X36337286Y-106944429D01*
X36192143Y-106871857D01*
X36119572Y-106799286D01*
X36047000Y-106654143D01*
X35974429Y-106363857D01*
X35974429Y-106001000D01*
X36047000Y-105710714D01*
X36119572Y-105565571D01*
X36192143Y-105493000D01*
X36337286Y-105420429D01*
X38151572Y-105928429D02*
X38151572Y-106944429D01*
X37498429Y-105928429D02*
X37498429Y-106726714D01*
X37571001Y-106871857D01*
X37716143Y-106944429D01*
X37933858Y-106944429D01*
X38079001Y-106871857D01*
X38151572Y-106799286D01*
X33216714Y-87944429D02*
X32345857Y-87944429D01*
X32781285Y-87944429D02*
X32781285Y-86420429D01*
X32636142Y-86638143D01*
X32491000Y-86783286D01*
X32345857Y-86855857D01*
X33869857Y-87799286D02*
X33942429Y-87871857D01*
X33869857Y-87944429D01*
X33797286Y-87871857D01*
X33869857Y-87799286D01*
X33869857Y-87944429D01*
X34885857Y-86420429D02*
X35031000Y-86420429D01*
X35176143Y-86493000D01*
X35248714Y-86565571D01*
X35321285Y-86710714D01*
X35393857Y-87001000D01*
X35393857Y-87363857D01*
X35321285Y-87654143D01*
X35248714Y-87799286D01*
X35176143Y-87871857D01*
X35031000Y-87944429D01*
X34885857Y-87944429D01*
X34740714Y-87871857D01*
X34668143Y-87799286D01*
X34595571Y-87654143D01*
X34523000Y-87363857D01*
X34523000Y-87001000D01*
X34595571Y-86710714D01*
X34668143Y-86565571D01*
X34740714Y-86493000D01*
X34885857Y-86420429D01*
X36337286Y-86420429D02*
X36482429Y-86420429D01*
X36627572Y-86493000D01*
X36700143Y-86565571D01*
X36772714Y-86710714D01*
X36845286Y-87001000D01*
X36845286Y-87363857D01*
X36772714Y-87654143D01*
X36700143Y-87799286D01*
X36627572Y-87871857D01*
X36482429Y-87944429D01*
X36337286Y-87944429D01*
X36192143Y-87871857D01*
X36119572Y-87799286D01*
X36047000Y-87654143D01*
X35974429Y-87363857D01*
X35974429Y-87001000D01*
X36047000Y-86710714D01*
X36119572Y-86565571D01*
X36192143Y-86493000D01*
X36337286Y-86420429D01*
X38151572Y-86928429D02*
X38151572Y-87944429D01*
X37498429Y-86928429D02*
X37498429Y-87726714D01*
X37571001Y-87871857D01*
X37716143Y-87944429D01*
X37933858Y-87944429D01*
X38079001Y-87871857D01*
X38151572Y-87799286D01*
X33216714Y-68944429D02*
X32345857Y-68944429D01*
X32781285Y-68944429D02*
X32781285Y-67420429D01*
X32636142Y-67638143D01*
X32491000Y-67783286D01*
X32345857Y-67855857D01*
X33869857Y-68799286D02*
X33942429Y-68871857D01*
X33869857Y-68944429D01*
X33797286Y-68871857D01*
X33869857Y-68799286D01*
X33869857Y-68944429D01*
X34885857Y-67420429D02*
X35031000Y-67420429D01*
X35176143Y-67493000D01*
X35248714Y-67565571D01*
X35321285Y-67710714D01*
X35393857Y-68001000D01*
X35393857Y-68363857D01*
X35321285Y-68654143D01*
X35248714Y-68799286D01*
X35176143Y-68871857D01*
X35031000Y-68944429D01*
X34885857Y-68944429D01*
X34740714Y-68871857D01*
X34668143Y-68799286D01*
X34595571Y-68654143D01*
X34523000Y-68363857D01*
X34523000Y-68001000D01*
X34595571Y-67710714D01*
X34668143Y-67565571D01*
X34740714Y-67493000D01*
X34885857Y-67420429D01*
X36337286Y-67420429D02*
X36482429Y-67420429D01*
X36627572Y-67493000D01*
X36700143Y-67565571D01*
X36772714Y-67710714D01*
X36845286Y-68001000D01*
X36845286Y-68363857D01*
X36772714Y-68654143D01*
X36700143Y-68799286D01*
X36627572Y-68871857D01*
X36482429Y-68944429D01*
X36337286Y-68944429D01*
X36192143Y-68871857D01*
X36119572Y-68799286D01*
X36047000Y-68654143D01*
X35974429Y-68363857D01*
X35974429Y-68001000D01*
X36047000Y-67710714D01*
X36119572Y-67565571D01*
X36192143Y-67493000D01*
X36337286Y-67420429D01*
X38151572Y-67928429D02*
X38151572Y-68944429D01*
X37498429Y-67928429D02*
X37498429Y-68726714D01*
X37571001Y-68871857D01*
X37716143Y-68944429D01*
X37933858Y-68944429D01*
X38079001Y-68871857D01*
X38151572Y-68799286D01*
X90216714Y-49944429D02*
X89345857Y-49944429D01*
X89781285Y-49944429D02*
X89781285Y-48420429D01*
X89636142Y-48638143D01*
X89491000Y-48783286D01*
X89345857Y-48855857D01*
X90869857Y-49799286D02*
X90942429Y-49871857D01*
X90869857Y-49944429D01*
X90797286Y-49871857D01*
X90869857Y-49799286D01*
X90869857Y-49944429D01*
X91885857Y-48420429D02*
X92031000Y-48420429D01*
X92176143Y-48493000D01*
X92248714Y-48565571D01*
X92321285Y-48710714D01*
X92393857Y-49001000D01*
X92393857Y-49363857D01*
X92321285Y-49654143D01*
X92248714Y-49799286D01*
X92176143Y-49871857D01*
X92031000Y-49944429D01*
X91885857Y-49944429D01*
X91740714Y-49871857D01*
X91668143Y-49799286D01*
X91595571Y-49654143D01*
X91523000Y-49363857D01*
X91523000Y-49001000D01*
X91595571Y-48710714D01*
X91668143Y-48565571D01*
X91740714Y-48493000D01*
X91885857Y-48420429D01*
X93337286Y-48420429D02*
X93482429Y-48420429D01*
X93627572Y-48493000D01*
X93700143Y-48565571D01*
X93772714Y-48710714D01*
X93845286Y-49001000D01*
X93845286Y-49363857D01*
X93772714Y-49654143D01*
X93700143Y-49799286D01*
X93627572Y-49871857D01*
X93482429Y-49944429D01*
X93337286Y-49944429D01*
X93192143Y-49871857D01*
X93119572Y-49799286D01*
X93047000Y-49654143D01*
X92974429Y-49363857D01*
X92974429Y-49001000D01*
X93047000Y-48710714D01*
X93119572Y-48565571D01*
X93192143Y-48493000D01*
X93337286Y-48420429D01*
X95151572Y-48928429D02*
X95151572Y-49944429D01*
X94498429Y-48928429D02*
X94498429Y-49726714D01*
X94571001Y-49871857D01*
X94716143Y-49944429D01*
X94933858Y-49944429D01*
X95079001Y-49871857D01*
X95151572Y-49799286D01*
X90216714Y-106944429D02*
X89345857Y-106944429D01*
X89781285Y-106944429D02*
X89781285Y-105420429D01*
X89636142Y-105638143D01*
X89491000Y-105783286D01*
X89345857Y-105855857D01*
X90869857Y-106799286D02*
X90942429Y-106871857D01*
X90869857Y-106944429D01*
X90797286Y-106871857D01*
X90869857Y-106799286D01*
X90869857Y-106944429D01*
X91885857Y-105420429D02*
X92031000Y-105420429D01*
X92176143Y-105493000D01*
X92248714Y-105565571D01*
X92321285Y-105710714D01*
X92393857Y-106001000D01*
X92393857Y-106363857D01*
X92321285Y-106654143D01*
X92248714Y-106799286D01*
X92176143Y-106871857D01*
X92031000Y-106944429D01*
X91885857Y-106944429D01*
X91740714Y-106871857D01*
X91668143Y-106799286D01*
X91595571Y-106654143D01*
X91523000Y-106363857D01*
X91523000Y-106001000D01*
X91595571Y-105710714D01*
X91668143Y-105565571D01*
X91740714Y-105493000D01*
X91885857Y-105420429D01*
X93337286Y-105420429D02*
X93482429Y-105420429D01*
X93627572Y-105493000D01*
X93700143Y-105565571D01*
X93772714Y-105710714D01*
X93845286Y-106001000D01*
X93845286Y-106363857D01*
X93772714Y-106654143D01*
X93700143Y-106799286D01*
X93627572Y-106871857D01*
X93482429Y-106944429D01*
X93337286Y-106944429D01*
X93192143Y-106871857D01*
X93119572Y-106799286D01*
X93047000Y-106654143D01*
X92974429Y-106363857D01*
X92974429Y-106001000D01*
X93047000Y-105710714D01*
X93119572Y-105565571D01*
X93192143Y-105493000D01*
X93337286Y-105420429D01*
X95151572Y-105928429D02*
X95151572Y-106944429D01*
X94498429Y-105928429D02*
X94498429Y-106726714D01*
X94571001Y-106871857D01*
X94716143Y-106944429D01*
X94933858Y-106944429D01*
X95079001Y-106871857D01*
X95151572Y-106799286D01*
X90216714Y-87944429D02*
X89345857Y-87944429D01*
X89781285Y-87944429D02*
X89781285Y-86420429D01*
X89636142Y-86638143D01*
X89491000Y-86783286D01*
X89345857Y-86855857D01*
X90869857Y-87799286D02*
X90942429Y-87871857D01*
X90869857Y-87944429D01*
X90797286Y-87871857D01*
X90869857Y-87799286D01*
X90869857Y-87944429D01*
X91885857Y-86420429D02*
X92031000Y-86420429D01*
X92176143Y-86493000D01*
X92248714Y-86565571D01*
X92321285Y-86710714D01*
X92393857Y-87001000D01*
X92393857Y-87363857D01*
X92321285Y-87654143D01*
X92248714Y-87799286D01*
X92176143Y-87871857D01*
X92031000Y-87944429D01*
X91885857Y-87944429D01*
X91740714Y-87871857D01*
X91668143Y-87799286D01*
X91595571Y-87654143D01*
X91523000Y-87363857D01*
X91523000Y-87001000D01*
X91595571Y-86710714D01*
X91668143Y-86565571D01*
X91740714Y-86493000D01*
X91885857Y-86420429D01*
X93337286Y-86420429D02*
X93482429Y-86420429D01*
X93627572Y-86493000D01*
X93700143Y-86565571D01*
X93772714Y-86710714D01*
X93845286Y-87001000D01*
X93845286Y-87363857D01*
X93772714Y-87654143D01*
X93700143Y-87799286D01*
X93627572Y-87871857D01*
X93482429Y-87944429D01*
X93337286Y-87944429D01*
X93192143Y-87871857D01*
X93119572Y-87799286D01*
X93047000Y-87654143D01*
X92974429Y-87363857D01*
X92974429Y-87001000D01*
X93047000Y-86710714D01*
X93119572Y-86565571D01*
X93192143Y-86493000D01*
X93337286Y-86420429D01*
X95151572Y-86928429D02*
X95151572Y-87944429D01*
X94498429Y-86928429D02*
X94498429Y-87726714D01*
X94571001Y-87871857D01*
X94716143Y-87944429D01*
X94933858Y-87944429D01*
X95079001Y-87871857D01*
X95151572Y-87799286D01*
X90216714Y-30944429D02*
X89345857Y-30944429D01*
X89781285Y-30944429D02*
X89781285Y-29420429D01*
X89636142Y-29638143D01*
X89491000Y-29783286D01*
X89345857Y-29855857D01*
X90869857Y-30799286D02*
X90942429Y-30871857D01*
X90869857Y-30944429D01*
X90797286Y-30871857D01*
X90869857Y-30799286D01*
X90869857Y-30944429D01*
X91885857Y-29420429D02*
X92031000Y-29420429D01*
X92176143Y-29493000D01*
X92248714Y-29565571D01*
X92321285Y-29710714D01*
X92393857Y-30001000D01*
X92393857Y-30363857D01*
X92321285Y-30654143D01*
X92248714Y-30799286D01*
X92176143Y-30871857D01*
X92031000Y-30944429D01*
X91885857Y-30944429D01*
X91740714Y-30871857D01*
X91668143Y-30799286D01*
X91595571Y-30654143D01*
X91523000Y-30363857D01*
X91523000Y-30001000D01*
X91595571Y-29710714D01*
X91668143Y-29565571D01*
X91740714Y-29493000D01*
X91885857Y-29420429D01*
X93337286Y-29420429D02*
X93482429Y-29420429D01*
X93627572Y-29493000D01*
X93700143Y-29565571D01*
X93772714Y-29710714D01*
X93845286Y-30001000D01*
X93845286Y-30363857D01*
X93772714Y-30654143D01*
X93700143Y-30799286D01*
X93627572Y-30871857D01*
X93482429Y-30944429D01*
X93337286Y-30944429D01*
X93192143Y-30871857D01*
X93119572Y-30799286D01*
X93047000Y-30654143D01*
X92974429Y-30363857D01*
X92974429Y-30001000D01*
X93047000Y-29710714D01*
X93119572Y-29565571D01*
X93192143Y-29493000D01*
X93337286Y-29420429D01*
X95151572Y-29928429D02*
X95151572Y-30944429D01*
X94498429Y-29928429D02*
X94498429Y-30726714D01*
X94571001Y-30871857D01*
X94716143Y-30944429D01*
X94933858Y-30944429D01*
X95079001Y-30871857D01*
X95151572Y-30799286D01*
X90216714Y-68944429D02*
X89345857Y-68944429D01*
X89781285Y-68944429D02*
X89781285Y-67420429D01*
X89636142Y-67638143D01*
X89491000Y-67783286D01*
X89345857Y-67855857D01*
X90869857Y-68799286D02*
X90942429Y-68871857D01*
X90869857Y-68944429D01*
X90797286Y-68871857D01*
X90869857Y-68799286D01*
X90869857Y-68944429D01*
X91885857Y-67420429D02*
X92031000Y-67420429D01*
X92176143Y-67493000D01*
X92248714Y-67565571D01*
X92321285Y-67710714D01*
X92393857Y-68001000D01*
X92393857Y-68363857D01*
X92321285Y-68654143D01*
X92248714Y-68799286D01*
X92176143Y-68871857D01*
X92031000Y-68944429D01*
X91885857Y-68944429D01*
X91740714Y-68871857D01*
X91668143Y-68799286D01*
X91595571Y-68654143D01*
X91523000Y-68363857D01*
X91523000Y-68001000D01*
X91595571Y-67710714D01*
X91668143Y-67565571D01*
X91740714Y-67493000D01*
X91885857Y-67420429D01*
X93337286Y-67420429D02*
X93482429Y-67420429D01*
X93627572Y-67493000D01*
X93700143Y-67565571D01*
X93772714Y-67710714D01*
X93845286Y-68001000D01*
X93845286Y-68363857D01*
X93772714Y-68654143D01*
X93700143Y-68799286D01*
X93627572Y-68871857D01*
X93482429Y-68944429D01*
X93337286Y-68944429D01*
X93192143Y-68871857D01*
X93119572Y-68799286D01*
X93047000Y-68654143D01*
X92974429Y-68363857D01*
X92974429Y-68001000D01*
X93047000Y-67710714D01*
X93119572Y-67565571D01*
X93192143Y-67493000D01*
X93337286Y-67420429D01*
X95151572Y-67928429D02*
X95151572Y-68944429D01*
X94498429Y-67928429D02*
X94498429Y-68726714D01*
X94571001Y-68871857D01*
X94716143Y-68944429D01*
X94933858Y-68944429D01*
X95079001Y-68871857D01*
X95151572Y-68799286D01*
X71216714Y-30944429D02*
X70345857Y-30944429D01*
X70781285Y-30944429D02*
X70781285Y-29420429D01*
X70636142Y-29638143D01*
X70491000Y-29783286D01*
X70345857Y-29855857D01*
X71869857Y-30799286D02*
X71942429Y-30871857D01*
X71869857Y-30944429D01*
X71797286Y-30871857D01*
X71869857Y-30799286D01*
X71869857Y-30944429D01*
X72885857Y-29420429D02*
X73031000Y-29420429D01*
X73176143Y-29493000D01*
X73248714Y-29565571D01*
X73321285Y-29710714D01*
X73393857Y-30001000D01*
X73393857Y-30363857D01*
X73321285Y-30654143D01*
X73248714Y-30799286D01*
X73176143Y-30871857D01*
X73031000Y-30944429D01*
X72885857Y-30944429D01*
X72740714Y-30871857D01*
X72668143Y-30799286D01*
X72595571Y-30654143D01*
X72523000Y-30363857D01*
X72523000Y-30001000D01*
X72595571Y-29710714D01*
X72668143Y-29565571D01*
X72740714Y-29493000D01*
X72885857Y-29420429D01*
X74337286Y-29420429D02*
X74482429Y-29420429D01*
X74627572Y-29493000D01*
X74700143Y-29565571D01*
X74772714Y-29710714D01*
X74845286Y-30001000D01*
X74845286Y-30363857D01*
X74772714Y-30654143D01*
X74700143Y-30799286D01*
X74627572Y-30871857D01*
X74482429Y-30944429D01*
X74337286Y-30944429D01*
X74192143Y-30871857D01*
X74119572Y-30799286D01*
X74047000Y-30654143D01*
X73974429Y-30363857D01*
X73974429Y-30001000D01*
X74047000Y-29710714D01*
X74119572Y-29565571D01*
X74192143Y-29493000D01*
X74337286Y-29420429D01*
X76151572Y-29928429D02*
X76151572Y-30944429D01*
X75498429Y-29928429D02*
X75498429Y-30726714D01*
X75571001Y-30871857D01*
X75716143Y-30944429D01*
X75933858Y-30944429D01*
X76079001Y-30871857D01*
X76151572Y-30799286D01*
X71216714Y-49944429D02*
X70345857Y-49944429D01*
X70781285Y-49944429D02*
X70781285Y-48420429D01*
X70636142Y-48638143D01*
X70491000Y-48783286D01*
X70345857Y-48855857D01*
X71869857Y-49799286D02*
X71942429Y-49871857D01*
X71869857Y-49944429D01*
X71797286Y-49871857D01*
X71869857Y-49799286D01*
X71869857Y-49944429D01*
X72885857Y-48420429D02*
X73031000Y-48420429D01*
X73176143Y-48493000D01*
X73248714Y-48565571D01*
X73321285Y-48710714D01*
X73393857Y-49001000D01*
X73393857Y-49363857D01*
X73321285Y-49654143D01*
X73248714Y-49799286D01*
X73176143Y-49871857D01*
X73031000Y-49944429D01*
X72885857Y-49944429D01*
X72740714Y-49871857D01*
X72668143Y-49799286D01*
X72595571Y-49654143D01*
X72523000Y-49363857D01*
X72523000Y-49001000D01*
X72595571Y-48710714D01*
X72668143Y-48565571D01*
X72740714Y-48493000D01*
X72885857Y-48420429D01*
X74337286Y-48420429D02*
X74482429Y-48420429D01*
X74627572Y-48493000D01*
X74700143Y-48565571D01*
X74772714Y-48710714D01*
X74845286Y-49001000D01*
X74845286Y-49363857D01*
X74772714Y-49654143D01*
X74700143Y-49799286D01*
X74627572Y-49871857D01*
X74482429Y-49944429D01*
X74337286Y-49944429D01*
X74192143Y-49871857D01*
X74119572Y-49799286D01*
X74047000Y-49654143D01*
X73974429Y-49363857D01*
X73974429Y-49001000D01*
X74047000Y-48710714D01*
X74119572Y-48565571D01*
X74192143Y-48493000D01*
X74337286Y-48420429D01*
X76151572Y-48928429D02*
X76151572Y-49944429D01*
X75498429Y-48928429D02*
X75498429Y-49726714D01*
X75571001Y-49871857D01*
X75716143Y-49944429D01*
X75933858Y-49944429D01*
X76079001Y-49871857D01*
X76151572Y-49799286D01*
X52216714Y-30944429D02*
X51345857Y-30944429D01*
X51781285Y-30944429D02*
X51781285Y-29420429D01*
X51636142Y-29638143D01*
X51491000Y-29783286D01*
X51345857Y-29855857D01*
X52869857Y-30799286D02*
X52942429Y-30871857D01*
X52869857Y-30944429D01*
X52797286Y-30871857D01*
X52869857Y-30799286D01*
X52869857Y-30944429D01*
X53885857Y-29420429D02*
X54031000Y-29420429D01*
X54176143Y-29493000D01*
X54248714Y-29565571D01*
X54321285Y-29710714D01*
X54393857Y-30001000D01*
X54393857Y-30363857D01*
X54321285Y-30654143D01*
X54248714Y-30799286D01*
X54176143Y-30871857D01*
X54031000Y-30944429D01*
X53885857Y-30944429D01*
X53740714Y-30871857D01*
X53668143Y-30799286D01*
X53595571Y-30654143D01*
X53523000Y-30363857D01*
X53523000Y-30001000D01*
X53595571Y-29710714D01*
X53668143Y-29565571D01*
X53740714Y-29493000D01*
X53885857Y-29420429D01*
X55337286Y-29420429D02*
X55482429Y-29420429D01*
X55627572Y-29493000D01*
X55700143Y-29565571D01*
X55772714Y-29710714D01*
X55845286Y-30001000D01*
X55845286Y-30363857D01*
X55772714Y-30654143D01*
X55700143Y-30799286D01*
X55627572Y-30871857D01*
X55482429Y-30944429D01*
X55337286Y-30944429D01*
X55192143Y-30871857D01*
X55119572Y-30799286D01*
X55047000Y-30654143D01*
X54974429Y-30363857D01*
X54974429Y-30001000D01*
X55047000Y-29710714D01*
X55119572Y-29565571D01*
X55192143Y-29493000D01*
X55337286Y-29420429D01*
X57151572Y-29928429D02*
X57151572Y-30944429D01*
X56498429Y-29928429D02*
X56498429Y-30726714D01*
X56571001Y-30871857D01*
X56716143Y-30944429D01*
X56933858Y-30944429D01*
X57079001Y-30871857D01*
X57151572Y-30799286D01*
X52216714Y-49944429D02*
X51345857Y-49944429D01*
X51781285Y-49944429D02*
X51781285Y-48420429D01*
X51636142Y-48638143D01*
X51491000Y-48783286D01*
X51345857Y-48855857D01*
X52869857Y-49799286D02*
X52942429Y-49871857D01*
X52869857Y-49944429D01*
X52797286Y-49871857D01*
X52869857Y-49799286D01*
X52869857Y-49944429D01*
X53885857Y-48420429D02*
X54031000Y-48420429D01*
X54176143Y-48493000D01*
X54248714Y-48565571D01*
X54321285Y-48710714D01*
X54393857Y-49001000D01*
X54393857Y-49363857D01*
X54321285Y-49654143D01*
X54248714Y-49799286D01*
X54176143Y-49871857D01*
X54031000Y-49944429D01*
X53885857Y-49944429D01*
X53740714Y-49871857D01*
X53668143Y-49799286D01*
X53595571Y-49654143D01*
X53523000Y-49363857D01*
X53523000Y-49001000D01*
X53595571Y-48710714D01*
X53668143Y-48565571D01*
X53740714Y-48493000D01*
X53885857Y-48420429D01*
X55337286Y-48420429D02*
X55482429Y-48420429D01*
X55627572Y-48493000D01*
X55700143Y-48565571D01*
X55772714Y-48710714D01*
X55845286Y-49001000D01*
X55845286Y-49363857D01*
X55772714Y-49654143D01*
X55700143Y-49799286D01*
X55627572Y-49871857D01*
X55482429Y-49944429D01*
X55337286Y-49944429D01*
X55192143Y-49871857D01*
X55119572Y-49799286D01*
X55047000Y-49654143D01*
X54974429Y-49363857D01*
X54974429Y-49001000D01*
X55047000Y-48710714D01*
X55119572Y-48565571D01*
X55192143Y-48493000D01*
X55337286Y-48420429D01*
X57151572Y-48928429D02*
X57151572Y-49944429D01*
X56498429Y-48928429D02*
X56498429Y-49726714D01*
X56571001Y-49871857D01*
X56716143Y-49944429D01*
X56933858Y-49944429D01*
X57079001Y-49871857D01*
X57151572Y-49799286D01*
X14216714Y-68944429D02*
X13345857Y-68944429D01*
X13781285Y-68944429D02*
X13781285Y-67420429D01*
X13636142Y-67638143D01*
X13491000Y-67783286D01*
X13345857Y-67855857D01*
X14869857Y-68799286D02*
X14942429Y-68871857D01*
X14869857Y-68944429D01*
X14797286Y-68871857D01*
X14869857Y-68799286D01*
X14869857Y-68944429D01*
X15885857Y-67420429D02*
X16031000Y-67420429D01*
X16176143Y-67493000D01*
X16248714Y-67565571D01*
X16321285Y-67710714D01*
X16393857Y-68001000D01*
X16393857Y-68363857D01*
X16321285Y-68654143D01*
X16248714Y-68799286D01*
X16176143Y-68871857D01*
X16031000Y-68944429D01*
X15885857Y-68944429D01*
X15740714Y-68871857D01*
X15668143Y-68799286D01*
X15595571Y-68654143D01*
X15523000Y-68363857D01*
X15523000Y-68001000D01*
X15595571Y-67710714D01*
X15668143Y-67565571D01*
X15740714Y-67493000D01*
X15885857Y-67420429D01*
X17337286Y-67420429D02*
X17482429Y-67420429D01*
X17627572Y-67493000D01*
X17700143Y-67565571D01*
X17772714Y-67710714D01*
X17845286Y-68001000D01*
X17845286Y-68363857D01*
X17772714Y-68654143D01*
X17700143Y-68799286D01*
X17627572Y-68871857D01*
X17482429Y-68944429D01*
X17337286Y-68944429D01*
X17192143Y-68871857D01*
X17119572Y-68799286D01*
X17047000Y-68654143D01*
X16974429Y-68363857D01*
X16974429Y-68001000D01*
X17047000Y-67710714D01*
X17119572Y-67565571D01*
X17192143Y-67493000D01*
X17337286Y-67420429D01*
X19151572Y-67928429D02*
X19151572Y-68944429D01*
X18498429Y-67928429D02*
X18498429Y-68726714D01*
X18571001Y-68871857D01*
X18716143Y-68944429D01*
X18933858Y-68944429D01*
X19079001Y-68871857D01*
X19151572Y-68799286D01*
X33216714Y-49944429D02*
X32345857Y-49944429D01*
X32781285Y-49944429D02*
X32781285Y-48420429D01*
X32636142Y-48638143D01*
X32491000Y-48783286D01*
X32345857Y-48855857D01*
X33869857Y-49799286D02*
X33942429Y-49871857D01*
X33869857Y-49944429D01*
X33797286Y-49871857D01*
X33869857Y-49799286D01*
X33869857Y-49944429D01*
X34885857Y-48420429D02*
X35031000Y-48420429D01*
X35176143Y-48493000D01*
X35248714Y-48565571D01*
X35321285Y-48710714D01*
X35393857Y-49001000D01*
X35393857Y-49363857D01*
X35321285Y-49654143D01*
X35248714Y-49799286D01*
X35176143Y-49871857D01*
X35031000Y-49944429D01*
X34885857Y-49944429D01*
X34740714Y-49871857D01*
X34668143Y-49799286D01*
X34595571Y-49654143D01*
X34523000Y-49363857D01*
X34523000Y-49001000D01*
X34595571Y-48710714D01*
X34668143Y-48565571D01*
X34740714Y-48493000D01*
X34885857Y-48420429D01*
X36337286Y-48420429D02*
X36482429Y-48420429D01*
X36627572Y-48493000D01*
X36700143Y-48565571D01*
X36772714Y-48710714D01*
X36845286Y-49001000D01*
X36845286Y-49363857D01*
X36772714Y-49654143D01*
X36700143Y-49799286D01*
X36627572Y-49871857D01*
X36482429Y-49944429D01*
X36337286Y-49944429D01*
X36192143Y-49871857D01*
X36119572Y-49799286D01*
X36047000Y-49654143D01*
X35974429Y-49363857D01*
X35974429Y-49001000D01*
X36047000Y-48710714D01*
X36119572Y-48565571D01*
X36192143Y-48493000D01*
X36337286Y-48420429D01*
X38151572Y-48928429D02*
X38151572Y-49944429D01*
X37498429Y-48928429D02*
X37498429Y-49726714D01*
X37571001Y-49871857D01*
X37716143Y-49944429D01*
X37933858Y-49944429D01*
X38079001Y-49871857D01*
X38151572Y-49799286D01*
X14216714Y-30944429D02*
X13345857Y-30944429D01*
X13781285Y-30944429D02*
X13781285Y-29420429D01*
X13636142Y-29638143D01*
X13491000Y-29783286D01*
X13345857Y-29855857D01*
X14869857Y-30799286D02*
X14942429Y-30871857D01*
X14869857Y-30944429D01*
X14797286Y-30871857D01*
X14869857Y-30799286D01*
X14869857Y-30944429D01*
X15885857Y-29420429D02*
X16031000Y-29420429D01*
X16176143Y-29493000D01*
X16248714Y-29565571D01*
X16321285Y-29710714D01*
X16393857Y-30001000D01*
X16393857Y-30363857D01*
X16321285Y-30654143D01*
X16248714Y-30799286D01*
X16176143Y-30871857D01*
X16031000Y-30944429D01*
X15885857Y-30944429D01*
X15740714Y-30871857D01*
X15668143Y-30799286D01*
X15595571Y-30654143D01*
X15523000Y-30363857D01*
X15523000Y-30001000D01*
X15595571Y-29710714D01*
X15668143Y-29565571D01*
X15740714Y-29493000D01*
X15885857Y-29420429D01*
X17337286Y-29420429D02*
X17482429Y-29420429D01*
X17627572Y-29493000D01*
X17700143Y-29565571D01*
X17772714Y-29710714D01*
X17845286Y-30001000D01*
X17845286Y-30363857D01*
X17772714Y-30654143D01*
X17700143Y-30799286D01*
X17627572Y-30871857D01*
X17482429Y-30944429D01*
X17337286Y-30944429D01*
X17192143Y-30871857D01*
X17119572Y-30799286D01*
X17047000Y-30654143D01*
X16974429Y-30363857D01*
X16974429Y-30001000D01*
X17047000Y-29710714D01*
X17119572Y-29565571D01*
X17192143Y-29493000D01*
X17337286Y-29420429D01*
X19151572Y-29928429D02*
X19151572Y-30944429D01*
X18498429Y-29928429D02*
X18498429Y-30726714D01*
X18571001Y-30871857D01*
X18716143Y-30944429D01*
X18933858Y-30944429D01*
X19079001Y-30871857D01*
X19151572Y-30799286D01*
X33216714Y-30944429D02*
X32345857Y-30944429D01*
X32781285Y-30944429D02*
X32781285Y-29420429D01*
X32636142Y-29638143D01*
X32491000Y-29783286D01*
X32345857Y-29855857D01*
X33869857Y-30799286D02*
X33942429Y-30871857D01*
X33869857Y-30944429D01*
X33797286Y-30871857D01*
X33869857Y-30799286D01*
X33869857Y-30944429D01*
X34885857Y-29420429D02*
X35031000Y-29420429D01*
X35176143Y-29493000D01*
X35248714Y-29565571D01*
X35321285Y-29710714D01*
X35393857Y-30001000D01*
X35393857Y-30363857D01*
X35321285Y-30654143D01*
X35248714Y-30799286D01*
X35176143Y-30871857D01*
X35031000Y-30944429D01*
X34885857Y-30944429D01*
X34740714Y-30871857D01*
X34668143Y-30799286D01*
X34595571Y-30654143D01*
X34523000Y-30363857D01*
X34523000Y-30001000D01*
X34595571Y-29710714D01*
X34668143Y-29565571D01*
X34740714Y-29493000D01*
X34885857Y-29420429D01*
X36337286Y-29420429D02*
X36482429Y-29420429D01*
X36627572Y-29493000D01*
X36700143Y-29565571D01*
X36772714Y-29710714D01*
X36845286Y-30001000D01*
X36845286Y-30363857D01*
X36772714Y-30654143D01*
X36700143Y-30799286D01*
X36627572Y-30871857D01*
X36482429Y-30944429D01*
X36337286Y-30944429D01*
X36192143Y-30871857D01*
X36119572Y-30799286D01*
X36047000Y-30654143D01*
X35974429Y-30363857D01*
X35974429Y-30001000D01*
X36047000Y-29710714D01*
X36119572Y-29565571D01*
X36192143Y-29493000D01*
X36337286Y-29420429D01*
X38151572Y-29928429D02*
X38151572Y-30944429D01*
X37498429Y-29928429D02*
X37498429Y-30726714D01*
X37571001Y-30871857D01*
X37716143Y-30944429D01*
X37933858Y-30944429D01*
X38079001Y-30871857D01*
X38151572Y-30799286D01*
X14216714Y-87944429D02*
X13345857Y-87944429D01*
X13781285Y-87944429D02*
X13781285Y-86420429D01*
X13636142Y-86638143D01*
X13491000Y-86783286D01*
X13345857Y-86855857D01*
X14869857Y-87799286D02*
X14942429Y-87871857D01*
X14869857Y-87944429D01*
X14797286Y-87871857D01*
X14869857Y-87799286D01*
X14869857Y-87944429D01*
X15885857Y-86420429D02*
X16031000Y-86420429D01*
X16176143Y-86493000D01*
X16248714Y-86565571D01*
X16321285Y-86710714D01*
X16393857Y-87001000D01*
X16393857Y-87363857D01*
X16321285Y-87654143D01*
X16248714Y-87799286D01*
X16176143Y-87871857D01*
X16031000Y-87944429D01*
X15885857Y-87944429D01*
X15740714Y-87871857D01*
X15668143Y-87799286D01*
X15595571Y-87654143D01*
X15523000Y-87363857D01*
X15523000Y-87001000D01*
X15595571Y-86710714D01*
X15668143Y-86565571D01*
X15740714Y-86493000D01*
X15885857Y-86420429D01*
X17337286Y-86420429D02*
X17482429Y-86420429D01*
X17627572Y-86493000D01*
X17700143Y-86565571D01*
X17772714Y-86710714D01*
X17845286Y-87001000D01*
X17845286Y-87363857D01*
X17772714Y-87654143D01*
X17700143Y-87799286D01*
X17627572Y-87871857D01*
X17482429Y-87944429D01*
X17337286Y-87944429D01*
X17192143Y-87871857D01*
X17119572Y-87799286D01*
X17047000Y-87654143D01*
X16974429Y-87363857D01*
X16974429Y-87001000D01*
X17047000Y-86710714D01*
X17119572Y-86565571D01*
X17192143Y-86493000D01*
X17337286Y-86420429D01*
X19151572Y-86928429D02*
X19151572Y-87944429D01*
X18498429Y-86928429D02*
X18498429Y-87726714D01*
X18571001Y-87871857D01*
X18716143Y-87944429D01*
X18933858Y-87944429D01*
X19079001Y-87871857D01*
X19151572Y-87799286D01*
X14216714Y-106944429D02*
X13345857Y-106944429D01*
X13781285Y-106944429D02*
X13781285Y-105420429D01*
X13636142Y-105638143D01*
X13491000Y-105783286D01*
X13345857Y-105855857D01*
X14869857Y-106799286D02*
X14942429Y-106871857D01*
X14869857Y-106944429D01*
X14797286Y-106871857D01*
X14869857Y-106799286D01*
X14869857Y-106944429D01*
X15885857Y-105420429D02*
X16031000Y-105420429D01*
X16176143Y-105493000D01*
X16248714Y-105565571D01*
X16321285Y-105710714D01*
X16393857Y-106001000D01*
X16393857Y-106363857D01*
X16321285Y-106654143D01*
X16248714Y-106799286D01*
X16176143Y-106871857D01*
X16031000Y-106944429D01*
X15885857Y-106944429D01*
X15740714Y-106871857D01*
X15668143Y-106799286D01*
X15595571Y-106654143D01*
X15523000Y-106363857D01*
X15523000Y-106001000D01*
X15595571Y-105710714D01*
X15668143Y-105565571D01*
X15740714Y-105493000D01*
X15885857Y-105420429D01*
X17337286Y-105420429D02*
X17482429Y-105420429D01*
X17627572Y-105493000D01*
X17700143Y-105565571D01*
X17772714Y-105710714D01*
X17845286Y-106001000D01*
X17845286Y-106363857D01*
X17772714Y-106654143D01*
X17700143Y-106799286D01*
X17627572Y-106871857D01*
X17482429Y-106944429D01*
X17337286Y-106944429D01*
X17192143Y-106871857D01*
X17119572Y-106799286D01*
X17047000Y-106654143D01*
X16974429Y-106363857D01*
X16974429Y-106001000D01*
X17047000Y-105710714D01*
X17119572Y-105565571D01*
X17192143Y-105493000D01*
X17337286Y-105420429D01*
X19151572Y-105928429D02*
X19151572Y-106944429D01*
X18498429Y-105928429D02*
X18498429Y-106726714D01*
X18571001Y-106871857D01*
X18716143Y-106944429D01*
X18933858Y-106944429D01*
X19079001Y-106871857D01*
X19151572Y-106799286D01*
X14216714Y-49944429D02*
X13345857Y-49944429D01*
X13781285Y-49944429D02*
X13781285Y-48420429D01*
X13636142Y-48638143D01*
X13491000Y-48783286D01*
X13345857Y-48855857D01*
X14869857Y-49799286D02*
X14942429Y-49871857D01*
X14869857Y-49944429D01*
X14797286Y-49871857D01*
X14869857Y-49799286D01*
X14869857Y-49944429D01*
X15885857Y-48420429D02*
X16031000Y-48420429D01*
X16176143Y-48493000D01*
X16248714Y-48565571D01*
X16321285Y-48710714D01*
X16393857Y-49001000D01*
X16393857Y-49363857D01*
X16321285Y-49654143D01*
X16248714Y-49799286D01*
X16176143Y-49871857D01*
X16031000Y-49944429D01*
X15885857Y-49944429D01*
X15740714Y-49871857D01*
X15668143Y-49799286D01*
X15595571Y-49654143D01*
X15523000Y-49363857D01*
X15523000Y-49001000D01*
X15595571Y-48710714D01*
X15668143Y-48565571D01*
X15740714Y-48493000D01*
X15885857Y-48420429D01*
X17337286Y-48420429D02*
X17482429Y-48420429D01*
X17627572Y-48493000D01*
X17700143Y-48565571D01*
X17772714Y-48710714D01*
X17845286Y-49001000D01*
X17845286Y-49363857D01*
X17772714Y-49654143D01*
X17700143Y-49799286D01*
X17627572Y-49871857D01*
X17482429Y-49944429D01*
X17337286Y-49944429D01*
X17192143Y-49871857D01*
X17119572Y-49799286D01*
X17047000Y-49654143D01*
X16974429Y-49363857D01*
X16974429Y-49001000D01*
X17047000Y-48710714D01*
X17119572Y-48565571D01*
X17192143Y-48493000D01*
X17337286Y-48420429D01*
X19151572Y-48928429D02*
X19151572Y-49944429D01*
X18498429Y-48928429D02*
X18498429Y-49726714D01*
X18571001Y-49871857D01*
X18716143Y-49944429D01*
X18933858Y-49944429D01*
X19079001Y-49871857D01*
X19151572Y-49799286D01*
M02*
