G04 #@! TF.FileFunction,Soldermask,Bot*
%FSLAX46Y46*%
G04 Gerber Fmt 4.6, Leading zero omitted, Abs format (unit mm)*
G04 Created by KiCad (PCBNEW 4.0.1-stable) date 4/2/2017 1:31:36 AM*
%MOMM*%
G01*
G04 APERTURE LIST*
%ADD10C,0.100000*%
%ADD11C,0.150000*%
%ADD12C,0.010000*%
%ADD13C,4.400000*%
%ADD14C,2.686000*%
%ADD15R,1.310000X1.620000*%
%ADD16R,1.289000X1.797000*%
%ADD17R,1.700000X1.100000*%
%ADD18R,1.100000X1.700000*%
%ADD19R,2.701240X1.799540*%
%ADD20R,2.449780X4.400500*%
%ADD21R,2.449780X3.900120*%
%ADD22O,0.900400X3.400000*%
%ADD23C,1.300000*%
%ADD24R,1.600000X1.000000*%
%ADD25R,1.000000X1.600000*%
%ADD26O,2.305000X2.559000*%
%ADD27R,2.305000X2.559000*%
%ADD28R,1.600000X2.000000*%
%ADD29C,1.400000*%
%ADD30R,1.600000X1.600000*%
G04 APERTURE END LIST*
D10*
D11*
X1250000Y94000000D02*
X263750000Y94000000D01*
X0Y1250000D02*
X0Y92750000D01*
X263750000Y0D02*
X1250000Y0D01*
X265000000Y92750000D02*
X265000000Y1250000D01*
X263750000Y0D02*
G75*
G03X265000000Y1250000I0J1250000D01*
G01*
X265000000Y92750000D02*
G75*
G03X263750000Y94000000I-1250000J0D01*
G01*
X1250000Y94000000D02*
G75*
G03X0Y92750000I0J-1250000D01*
G01*
X0Y1250000D02*
G75*
G03X1250000Y0I1250000J0D01*
G01*
D12*
G36*
X132100673Y3126114D02*
X131778769Y3088487D01*
X131525850Y3012405D01*
X131334118Y2891662D01*
X131195776Y2720050D01*
X131103028Y2491364D01*
X131061881Y2299203D01*
X131048169Y2007019D01*
X131108338Y1751490D01*
X131244607Y1526844D01*
X131425941Y1352700D01*
X131630858Y1208766D01*
X131812348Y1126884D01*
X131995588Y1101483D01*
X132205756Y1126992D01*
X132320291Y1154792D01*
X132576129Y1262313D01*
X132776516Y1427778D01*
X132914829Y1642529D01*
X132984446Y1897907D01*
X132991516Y2032459D01*
X132955476Y2379448D01*
X132858364Y2675718D01*
X132701673Y2917098D01*
X132658129Y2963648D01*
X132474356Y3147421D01*
X132100673Y3126114D01*
X132100673Y3126114D01*
G37*
X132100673Y3126114D02*
X131778769Y3088487D01*
X131525850Y3012405D01*
X131334118Y2891662D01*
X131195776Y2720050D01*
X131103028Y2491364D01*
X131061881Y2299203D01*
X131048169Y2007019D01*
X131108338Y1751490D01*
X131244607Y1526844D01*
X131425941Y1352700D01*
X131630858Y1208766D01*
X131812348Y1126884D01*
X131995588Y1101483D01*
X132205756Y1126992D01*
X132320291Y1154792D01*
X132576129Y1262313D01*
X132776516Y1427778D01*
X132914829Y1642529D01*
X132984446Y1897907D01*
X132991516Y2032459D01*
X132955476Y2379448D01*
X132858364Y2675718D01*
X132701673Y2917098D01*
X132658129Y2963648D01*
X132474356Y3147421D01*
X132100673Y3126114D01*
G36*
X133670852Y7728497D02*
X133622823Y7641305D01*
X133551246Y7490662D01*
X133545122Y7477559D01*
X133355925Y7041263D01*
X133217424Y6642867D01*
X133123981Y6258935D01*
X133069959Y5866033D01*
X133049719Y5440725D01*
X133049484Y5417165D01*
X133045574Y4947213D01*
X133645082Y4341223D01*
X133844040Y4136756D01*
X134037608Y3931755D01*
X134212351Y3740897D01*
X134354836Y3578859D01*
X134451629Y3460316D01*
X134452787Y3458781D01*
X134553252Y3331453D01*
X134638270Y3234726D01*
X134693528Y3184522D01*
X134702623Y3180881D01*
X134758079Y3198738D01*
X134863264Y3246925D01*
X134994098Y3314321D01*
X135361612Y3535041D01*
X135753556Y3809871D01*
X136153263Y4124304D01*
X136544067Y4463831D01*
X136909302Y4813946D01*
X137232300Y5160140D01*
X137496397Y5487905D01*
X137505514Y5500447D01*
X137658519Y5737211D01*
X137743680Y5904918D01*
X134848361Y5904918D01*
X134814164Y5805719D01*
X134733852Y5716495D01*
X134605369Y5656501D01*
X134441454Y5634448D01*
X134272010Y5648585D01*
X134126940Y5697162D01*
X134051020Y5756488D01*
X133985137Y5863899D01*
X133989385Y5957599D01*
X134051020Y6053348D01*
X134157254Y6127090D01*
X134310738Y6167732D01*
X134481571Y6173524D01*
X134639848Y6142714D01*
X134733852Y6093340D01*
X134818182Y5997506D01*
X134848361Y5904918D01*
X137743680Y5904918D01*
X137778991Y5974454D01*
X137858338Y6192497D01*
X137887969Y6371662D01*
X137888000Y6376564D01*
X137872515Y6519045D01*
X137814501Y6626303D01*
X137772373Y6672393D01*
X137724107Y6717677D01*
X137674769Y6749938D01*
X137609216Y6772122D01*
X137512309Y6787174D01*
X137368907Y6798038D01*
X137163869Y6807661D01*
X137054095Y6812105D01*
X136488559Y6856883D01*
X135925447Y6948261D01*
X135342615Y7090556D01*
X134859177Y7239968D01*
X134483404Y7372027D01*
X134185920Y7491241D01*
X133963006Y7599274D01*
X133810946Y7697788D01*
X133783069Y7721579D01*
X133740033Y7757413D01*
X133706275Y7763460D01*
X133670852Y7728497D01*
X133670852Y7728497D01*
G37*
X133670852Y7728497D02*
X133622823Y7641305D01*
X133551246Y7490662D01*
X133545122Y7477559D01*
X133355925Y7041263D01*
X133217424Y6642867D01*
X133123981Y6258935D01*
X133069959Y5866033D01*
X133049719Y5440725D01*
X133049484Y5417165D01*
X133045574Y4947213D01*
X133645082Y4341223D01*
X133844040Y4136756D01*
X134037608Y3931755D01*
X134212351Y3740897D01*
X134354836Y3578859D01*
X134451629Y3460316D01*
X134452787Y3458781D01*
X134553252Y3331453D01*
X134638270Y3234726D01*
X134693528Y3184522D01*
X134702623Y3180881D01*
X134758079Y3198738D01*
X134863264Y3246925D01*
X134994098Y3314321D01*
X135361612Y3535041D01*
X135753556Y3809871D01*
X136153263Y4124304D01*
X136544067Y4463831D01*
X136909302Y4813946D01*
X137232300Y5160140D01*
X137496397Y5487905D01*
X137505514Y5500447D01*
X137658519Y5737211D01*
X137743680Y5904918D01*
X134848361Y5904918D01*
X134814164Y5805719D01*
X134733852Y5716495D01*
X134605369Y5656501D01*
X134441454Y5634448D01*
X134272010Y5648585D01*
X134126940Y5697162D01*
X134051020Y5756488D01*
X133985137Y5863899D01*
X133989385Y5957599D01*
X134051020Y6053348D01*
X134157254Y6127090D01*
X134310738Y6167732D01*
X134481571Y6173524D01*
X134639848Y6142714D01*
X134733852Y6093340D01*
X134818182Y5997506D01*
X134848361Y5904918D01*
X137743680Y5904918D01*
X137778991Y5974454D01*
X137858338Y6192497D01*
X137887969Y6371662D01*
X137888000Y6376564D01*
X137872515Y6519045D01*
X137814501Y6626303D01*
X137772373Y6672393D01*
X137724107Y6717677D01*
X137674769Y6749938D01*
X137609216Y6772122D01*
X137512309Y6787174D01*
X137368907Y6798038D01*
X137163869Y6807661D01*
X137054095Y6812105D01*
X136488559Y6856883D01*
X135925447Y6948261D01*
X135342615Y7090556D01*
X134859177Y7239968D01*
X134483404Y7372027D01*
X134185920Y7491241D01*
X133963006Y7599274D01*
X133810946Y7697788D01*
X133783069Y7721579D01*
X133740033Y7757413D01*
X133706275Y7763460D01*
X133670852Y7728497D01*
G36*
X130750437Y7679927D02*
X130622275Y7588613D01*
X130429914Y7485666D01*
X130190143Y7378857D01*
X129919748Y7275959D01*
X129768361Y7225220D01*
X129440902Y7125307D01*
X129159339Y7052008D01*
X128897746Y7001222D01*
X128630200Y6968851D01*
X128330776Y6950796D01*
X127983887Y6943066D01*
X127722820Y6939934D01*
X127531722Y6935797D01*
X127397291Y6928770D01*
X127306223Y6916968D01*
X127245213Y6898504D01*
X127200958Y6871492D01*
X127160154Y6834046D01*
X127151101Y6825003D01*
X127090821Y6754689D01*
X127057524Y6678360D01*
X127043525Y6568715D01*
X127041058Y6434026D01*
X127045197Y6295221D01*
X127062309Y6177357D01*
X127099566Y6055252D01*
X127164138Y5903726D01*
X127233435Y5758440D01*
X127498799Y5289302D01*
X127831020Y4825876D01*
X128214728Y4387078D01*
X128634556Y3991821D01*
X128738853Y3905644D01*
X128894822Y3786107D01*
X129067198Y3663445D01*
X129240115Y3547848D01*
X129397705Y3449507D01*
X129524102Y3378612D01*
X129603438Y3345353D01*
X129613200Y3344098D01*
X129644995Y3377025D01*
X129706357Y3463853D01*
X129784711Y3586651D01*
X129794317Y3602390D01*
X129994519Y3883709D01*
X130254456Y4174646D01*
X130555595Y4456372D01*
X130879400Y4710055D01*
X130896079Y4721824D01*
X131276588Y4988852D01*
X131253679Y5655082D01*
X131240862Y5931404D01*
X130810015Y5931404D01*
X130776302Y5813304D01*
X130688360Y5743411D01*
X130548785Y5701443D01*
X130384836Y5688652D01*
X130223770Y5706290D01*
X130092846Y5755608D01*
X130059414Y5780382D01*
X129985038Y5893030D01*
X129981916Y6013854D01*
X130047409Y6118217D01*
X130099407Y6153685D01*
X130241972Y6199201D01*
X130413589Y6215225D01*
X130579885Y6201829D01*
X130706484Y6159086D01*
X130716800Y6152393D01*
X130787852Y6057836D01*
X130810015Y5931404D01*
X131240862Y5931404D01*
X131238359Y5985366D01*
X131214408Y6265442D01*
X131177262Y6522112D01*
X131122353Y6782181D01*
X131045116Y7072455D01*
X130968022Y7331881D01*
X130837268Y7759500D01*
X130750437Y7679927D01*
X130750437Y7679927D01*
G37*
X130750437Y7679927D02*
X130622275Y7588613D01*
X130429914Y7485666D01*
X130190143Y7378857D01*
X129919748Y7275959D01*
X129768361Y7225220D01*
X129440902Y7125307D01*
X129159339Y7052008D01*
X128897746Y7001222D01*
X128630200Y6968851D01*
X128330776Y6950796D01*
X127983887Y6943066D01*
X127722820Y6939934D01*
X127531722Y6935797D01*
X127397291Y6928770D01*
X127306223Y6916968D01*
X127245213Y6898504D01*
X127200958Y6871492D01*
X127160154Y6834046D01*
X127151101Y6825003D01*
X127090821Y6754689D01*
X127057524Y6678360D01*
X127043525Y6568715D01*
X127041058Y6434026D01*
X127045197Y6295221D01*
X127062309Y6177357D01*
X127099566Y6055252D01*
X127164138Y5903726D01*
X127233435Y5758440D01*
X127498799Y5289302D01*
X127831020Y4825876D01*
X128214728Y4387078D01*
X128634556Y3991821D01*
X128738853Y3905644D01*
X128894822Y3786107D01*
X129067198Y3663445D01*
X129240115Y3547848D01*
X129397705Y3449507D01*
X129524102Y3378612D01*
X129603438Y3345353D01*
X129613200Y3344098D01*
X129644995Y3377025D01*
X129706357Y3463853D01*
X129784711Y3586651D01*
X129794317Y3602390D01*
X129994519Y3883709D01*
X130254456Y4174646D01*
X130555595Y4456372D01*
X130879400Y4710055D01*
X130896079Y4721824D01*
X131276588Y4988852D01*
X131253679Y5655082D01*
X131240862Y5931404D01*
X130810015Y5931404D01*
X130776302Y5813304D01*
X130688360Y5743411D01*
X130548785Y5701443D01*
X130384836Y5688652D01*
X130223770Y5706290D01*
X130092846Y5755608D01*
X130059414Y5780382D01*
X129985038Y5893030D01*
X129981916Y6013854D01*
X130047409Y6118217D01*
X130099407Y6153685D01*
X130241972Y6199201D01*
X130413589Y6215225D01*
X130579885Y6201829D01*
X130706484Y6159086D01*
X130716800Y6152393D01*
X130787852Y6057836D01*
X130810015Y5931404D01*
X131240862Y5931404D01*
X131238359Y5985366D01*
X131214408Y6265442D01*
X131177262Y6522112D01*
X131122353Y6782181D01*
X131045116Y7072455D01*
X130968022Y7331881D01*
X130837268Y7759500D01*
X130750437Y7679927D01*
G36*
X128497167Y12627979D02*
X128278439Y12290449D01*
X128120634Y11976409D01*
X128016131Y11662056D01*
X127957305Y11323587D01*
X127936535Y10937198D01*
X127936229Y10876481D01*
X127943669Y10661770D01*
X127964379Y10415295D01*
X127995952Y10149984D01*
X128035974Y9878769D01*
X128082038Y9614579D01*
X128131732Y9370345D01*
X128182645Y9158996D01*
X128232368Y8993463D01*
X128278490Y8886675D01*
X128313692Y8851637D01*
X128375926Y8862973D01*
X128494360Y8901433D01*
X128649149Y8960192D01*
X128748197Y9001067D01*
X129105155Y9158059D01*
X129405334Y9303105D01*
X129671719Y9448185D01*
X129927300Y9605277D01*
X130002713Y9654814D01*
X130228706Y9817905D01*
X130471484Y10014428D01*
X130709864Y10225525D01*
X130922664Y10432340D01*
X131088702Y10616013D01*
X131104695Y10635877D01*
X131235343Y10800833D01*
X131082294Y11031340D01*
X130975544Y11173822D01*
X130821677Y11355411D01*
X130636027Y11560123D01*
X130433928Y11771970D01*
X130230711Y11974968D01*
X130041711Y12153129D01*
X129882261Y12290467D01*
X129851639Y12314402D01*
X129481873Y12571490D01*
X129111042Y12783268D01*
X128952091Y12858825D01*
X128729288Y12957359D01*
X128497167Y12627979D01*
X128497167Y12627979D01*
G37*
X128497167Y12627979D02*
X128278439Y12290449D01*
X128120634Y11976409D01*
X128016131Y11662056D01*
X127957305Y11323587D01*
X127936535Y10937198D01*
X127936229Y10876481D01*
X127943669Y10661770D01*
X127964379Y10415295D01*
X127995952Y10149984D01*
X128035974Y9878769D01*
X128082038Y9614579D01*
X128131732Y9370345D01*
X128182645Y9158996D01*
X128232368Y8993463D01*
X128278490Y8886675D01*
X128313692Y8851637D01*
X128375926Y8862973D01*
X128494360Y8901433D01*
X128649149Y8960192D01*
X128748197Y9001067D01*
X129105155Y9158059D01*
X129405334Y9303105D01*
X129671719Y9448185D01*
X129927300Y9605277D01*
X130002713Y9654814D01*
X130228706Y9817905D01*
X130471484Y10014428D01*
X130709864Y10225525D01*
X130922664Y10432340D01*
X131088702Y10616013D01*
X131104695Y10635877D01*
X131235343Y10800833D01*
X131082294Y11031340D01*
X130975544Y11173822D01*
X130821677Y11355411D01*
X130636027Y11560123D01*
X130433928Y11771970D01*
X130230711Y11974968D01*
X130041711Y12153129D01*
X129882261Y12290467D01*
X129851639Y12314402D01*
X129481873Y12571490D01*
X129111042Y12783268D01*
X128952091Y12858825D01*
X128729288Y12957359D01*
X128497167Y12627979D01*
G36*
X135558521Y12941022D02*
X135419428Y12882346D01*
X135248487Y12796682D01*
X135064204Y12693955D01*
X134885085Y12584091D01*
X134729635Y12477014D01*
X134701202Y12455401D01*
X134428864Y12220881D01*
X134150086Y11940088D01*
X133882692Y11633862D01*
X133644507Y11323042D01*
X133453358Y11028469D01*
X133403704Y10938502D01*
X133287334Y10716237D01*
X133557765Y10441729D01*
X134017445Y10026987D01*
X134527524Y9666841D01*
X135096031Y9356172D01*
X135601068Y9138750D01*
X135860652Y9039470D01*
X136053357Y8968863D01*
X136189425Y8924181D01*
X136279103Y8902678D01*
X136332634Y8901607D01*
X136360263Y8918222D01*
X136367872Y8933157D01*
X136381881Y8992671D01*
X136406597Y9116668D01*
X136438642Y9287551D01*
X136474639Y9487726D01*
X136477982Y9506721D01*
X136523191Y9803368D01*
X136552544Y10099478D01*
X136568405Y10425141D01*
X136572909Y10714262D01*
X136570722Y11037181D01*
X136558167Y11296127D01*
X136531749Y11510121D01*
X136487976Y11698184D01*
X136423353Y11879337D01*
X136334387Y12072602D01*
X136317061Y12107101D01*
X136233526Y12254107D01*
X136126283Y12417615D01*
X136006979Y12582748D01*
X135887261Y12734626D01*
X135778775Y12858369D01*
X135693169Y12939099D01*
X135647260Y12962787D01*
X135558521Y12941022D01*
X135558521Y12941022D01*
G37*
X135558521Y12941022D02*
X135419428Y12882346D01*
X135248487Y12796682D01*
X135064204Y12693955D01*
X134885085Y12584091D01*
X134729635Y12477014D01*
X134701202Y12455401D01*
X134428864Y12220881D01*
X134150086Y11940088D01*
X133882692Y11633862D01*
X133644507Y11323042D01*
X133453358Y11028469D01*
X133403704Y10938502D01*
X133287334Y10716237D01*
X133557765Y10441729D01*
X134017445Y10026987D01*
X134527524Y9666841D01*
X135096031Y9356172D01*
X135601068Y9138750D01*
X135860652Y9039470D01*
X136053357Y8968863D01*
X136189425Y8924181D01*
X136279103Y8902678D01*
X136332634Y8901607D01*
X136360263Y8918222D01*
X136367872Y8933157D01*
X136381881Y8992671D01*
X136406597Y9116668D01*
X136438642Y9287551D01*
X136474639Y9487726D01*
X136477982Y9506721D01*
X136523191Y9803368D01*
X136552544Y10099478D01*
X136568405Y10425141D01*
X136572909Y10714262D01*
X136570722Y11037181D01*
X136558167Y11296127D01*
X136531749Y11510121D01*
X136487976Y11698184D01*
X136423353Y11879337D01*
X136334387Y12072602D01*
X136317061Y12107101D01*
X136233526Y12254107D01*
X136126283Y12417615D01*
X136006979Y12582748D01*
X135887261Y12734626D01*
X135778775Y12858369D01*
X135693169Y12939099D01*
X135647260Y12962787D01*
X135558521Y12941022D01*
D13*
X37500000Y37510000D03*
X75500000Y75500000D03*
X189500000Y18500000D03*
X227500000Y56500000D03*
D14*
X106465000Y52080000D03*
X100115000Y49540000D03*
X125515000Y52080000D03*
X119165000Y49540000D03*
X87415000Y90180000D03*
X81065000Y87640000D03*
X258865000Y33030000D03*
X252515000Y30490000D03*
X120435000Y80020000D03*
X126785000Y82560000D03*
X139485000Y80020000D03*
X145835000Y82560000D03*
X106465000Y90180000D03*
X100115000Y87640000D03*
X68365000Y90180000D03*
X62015000Y87640000D03*
X49315000Y90180000D03*
X42965000Y87640000D03*
X30265000Y90180000D03*
X23915000Y87640000D03*
X11215000Y90180000D03*
X4865000Y87640000D03*
X125515000Y71130000D03*
X119165000Y68590000D03*
X106465000Y71130000D03*
X100115000Y68590000D03*
X87415000Y71130000D03*
X81065000Y68590000D03*
X68365000Y71130000D03*
X62015000Y68590000D03*
X49315000Y71130000D03*
X42965000Y68590000D03*
X30265000Y71130000D03*
X23915000Y68590000D03*
X11215000Y71130000D03*
X4865000Y68590000D03*
X87415000Y52080000D03*
X81065000Y49540000D03*
X68365000Y52080000D03*
X62015000Y49540000D03*
X49315000Y52080000D03*
X42965000Y49540000D03*
X30265000Y52080000D03*
X23915000Y49540000D03*
X11215000Y52080000D03*
X4865000Y49540000D03*
X125515000Y33030000D03*
X119165000Y30490000D03*
X106465000Y33030000D03*
X100115000Y30490000D03*
X87415000Y33030000D03*
X81065000Y30490000D03*
X68365000Y33030000D03*
X62015000Y30490000D03*
X49315000Y33030000D03*
X42965000Y30490000D03*
X30265000Y33030000D03*
X23915000Y30490000D03*
X11215000Y33030000D03*
X4865000Y30490000D03*
X68365000Y13980000D03*
X62015000Y11440000D03*
X49315000Y13980000D03*
X42965000Y11440000D03*
X30265000Y13980000D03*
X23915000Y11440000D03*
X11215000Y13980000D03*
X4865000Y11440000D03*
X163615000Y90180000D03*
X157265000Y87640000D03*
X182665000Y90180000D03*
X176315000Y87640000D03*
X201715000Y90180000D03*
X195365000Y87640000D03*
X220765000Y90180000D03*
X214415000Y87640000D03*
X239815000Y90180000D03*
X233465000Y87640000D03*
X144565000Y71130000D03*
X138215000Y68590000D03*
X163615000Y71130000D03*
X157265000Y68590000D03*
X182665000Y71130000D03*
X176315000Y68590000D03*
X201715000Y71130000D03*
X195365000Y68590000D03*
X220765000Y71130000D03*
X214415000Y68590000D03*
X239815000Y71130000D03*
X233465000Y68590000D03*
X258865000Y71130000D03*
X252515000Y68590000D03*
X144565000Y52080000D03*
X138215000Y49540000D03*
X163615000Y52080000D03*
X157265000Y49540000D03*
X182665000Y52080000D03*
X176315000Y49540000D03*
X201715000Y52080000D03*
X195365000Y49540000D03*
X220765000Y52080000D03*
X214415000Y49540000D03*
X239815000Y52080000D03*
X233465000Y49540000D03*
X258865000Y52080000D03*
X252515000Y49540000D03*
X144565000Y33030000D03*
X138215000Y30490000D03*
X163615000Y33030000D03*
X157265000Y30490000D03*
X182665000Y33030000D03*
X176315000Y30490000D03*
X201715000Y33030000D03*
X195365000Y30490000D03*
X220765000Y33030000D03*
X214415000Y30490000D03*
X239815000Y33030000D03*
X233465000Y30490000D03*
X182665000Y13980000D03*
X176315000Y11440000D03*
X201715000Y13980000D03*
X195365000Y11440000D03*
X220765000Y13980000D03*
X214415000Y11440000D03*
X239815000Y13980000D03*
X233465000Y11440000D03*
X258865000Y13980000D03*
X252515000Y11440000D03*
X258865000Y90180000D03*
X252515000Y87640000D03*
X87415000Y13980000D03*
X81065000Y11440000D03*
D10*
G36*
X134500844Y64811520D02*
X135179666Y64132698D01*
X133765452Y62718484D01*
X133086630Y63397306D01*
X134500844Y64811520D01*
X134500844Y64811520D01*
G37*
G36*
X135066529Y64245834D02*
X135745351Y63567012D01*
X134331137Y62152798D01*
X133652315Y62831620D01*
X135066529Y64245834D01*
X135066529Y64245834D01*
G37*
G36*
X135632214Y63680149D02*
X136311036Y63001327D01*
X134896822Y61587113D01*
X134218000Y62265935D01*
X135632214Y63680149D01*
X135632214Y63680149D01*
G37*
G36*
X136197900Y63114464D02*
X136876722Y62435642D01*
X135462508Y61021428D01*
X134783686Y61700250D01*
X136197900Y63114464D01*
X136197900Y63114464D01*
G37*
G36*
X136763585Y62548778D02*
X137442407Y61869956D01*
X136028193Y60455742D01*
X135349371Y61134564D01*
X136763585Y62548778D01*
X136763585Y62548778D01*
G37*
G36*
X137329271Y61983093D02*
X138008093Y61304271D01*
X136593879Y59890057D01*
X135915057Y60568879D01*
X137329271Y61983093D01*
X137329271Y61983093D01*
G37*
G36*
X137894956Y61417407D02*
X138573778Y60738585D01*
X137159564Y59324371D01*
X136480742Y60003193D01*
X137894956Y61417407D01*
X137894956Y61417407D01*
G37*
G36*
X138460642Y60851722D02*
X139139464Y60172900D01*
X137725250Y58758686D01*
X137046428Y59437508D01*
X138460642Y60851722D01*
X138460642Y60851722D01*
G37*
G36*
X139026327Y60286036D02*
X139705149Y59607214D01*
X138290935Y58193000D01*
X137612113Y58871822D01*
X139026327Y60286036D01*
X139026327Y60286036D01*
G37*
G36*
X139592012Y59720351D02*
X140270834Y59041529D01*
X138856620Y57627315D01*
X138177798Y58306137D01*
X139592012Y59720351D01*
X139592012Y59720351D01*
G37*
G36*
X140157698Y59154666D02*
X140836520Y58475844D01*
X139422306Y57061630D01*
X138743484Y57740452D01*
X140157698Y59154666D01*
X140157698Y59154666D01*
G37*
G36*
X140836520Y55124156D02*
X140157698Y54445334D01*
X138743484Y55859548D01*
X139422306Y56538370D01*
X140836520Y55124156D01*
X140836520Y55124156D01*
G37*
G36*
X140270834Y54558471D02*
X139592012Y53879649D01*
X138177798Y55293863D01*
X138856620Y55972685D01*
X140270834Y54558471D01*
X140270834Y54558471D01*
G37*
G36*
X139705149Y53992786D02*
X139026327Y53313964D01*
X137612113Y54728178D01*
X138290935Y55407000D01*
X139705149Y53992786D01*
X139705149Y53992786D01*
G37*
G36*
X139139464Y53427100D02*
X138460642Y52748278D01*
X137046428Y54162492D01*
X137725250Y54841314D01*
X139139464Y53427100D01*
X139139464Y53427100D01*
G37*
G36*
X138573778Y52861415D02*
X137894956Y52182593D01*
X136480742Y53596807D01*
X137159564Y54275629D01*
X138573778Y52861415D01*
X138573778Y52861415D01*
G37*
G36*
X138008093Y52295729D02*
X137329271Y51616907D01*
X135915057Y53031121D01*
X136593879Y53709943D01*
X138008093Y52295729D01*
X138008093Y52295729D01*
G37*
G36*
X137442407Y51730044D02*
X136763585Y51051222D01*
X135349371Y52465436D01*
X136028193Y53144258D01*
X137442407Y51730044D01*
X137442407Y51730044D01*
G37*
G36*
X136876722Y51164358D02*
X136197900Y50485536D01*
X134783686Y51899750D01*
X135462508Y52578572D01*
X136876722Y51164358D01*
X136876722Y51164358D01*
G37*
G36*
X136311036Y50598673D02*
X135632214Y49919851D01*
X134218000Y51334065D01*
X134896822Y52012887D01*
X136311036Y50598673D01*
X136311036Y50598673D01*
G37*
G36*
X135745351Y50032988D02*
X135066529Y49354166D01*
X133652315Y50768380D01*
X134331137Y51447202D01*
X135745351Y50032988D01*
X135745351Y50032988D01*
G37*
G36*
X135179666Y49467302D02*
X134500844Y48788480D01*
X133086630Y50202694D01*
X133765452Y50881516D01*
X135179666Y49467302D01*
X135179666Y49467302D01*
G37*
G36*
X131884548Y50881516D02*
X132563370Y50202694D01*
X131149156Y48788480D01*
X130470334Y49467302D01*
X131884548Y50881516D01*
X131884548Y50881516D01*
G37*
G36*
X131318863Y51447202D02*
X131997685Y50768380D01*
X130583471Y49354166D01*
X129904649Y50032988D01*
X131318863Y51447202D01*
X131318863Y51447202D01*
G37*
G36*
X130753178Y52012887D02*
X131432000Y51334065D01*
X130017786Y49919851D01*
X129338964Y50598673D01*
X130753178Y52012887D01*
X130753178Y52012887D01*
G37*
G36*
X130187492Y52578572D02*
X130866314Y51899750D01*
X129452100Y50485536D01*
X128773278Y51164358D01*
X130187492Y52578572D01*
X130187492Y52578572D01*
G37*
G36*
X129621807Y53144258D02*
X130300629Y52465436D01*
X128886415Y51051222D01*
X128207593Y51730044D01*
X129621807Y53144258D01*
X129621807Y53144258D01*
G37*
G36*
X129056121Y53709943D02*
X129734943Y53031121D01*
X128320729Y51616907D01*
X127641907Y52295729D01*
X129056121Y53709943D01*
X129056121Y53709943D01*
G37*
G36*
X128490436Y54275629D02*
X129169258Y53596807D01*
X127755044Y52182593D01*
X127076222Y52861415D01*
X128490436Y54275629D01*
X128490436Y54275629D01*
G37*
G36*
X127924750Y54841314D02*
X128603572Y54162492D01*
X127189358Y52748278D01*
X126510536Y53427100D01*
X127924750Y54841314D01*
X127924750Y54841314D01*
G37*
G36*
X127359065Y55407000D02*
X128037887Y54728178D01*
X126623673Y53313964D01*
X125944851Y53992786D01*
X127359065Y55407000D01*
X127359065Y55407000D01*
G37*
G36*
X126793380Y55972685D02*
X127472202Y55293863D01*
X126057988Y53879649D01*
X125379166Y54558471D01*
X126793380Y55972685D01*
X126793380Y55972685D01*
G37*
G36*
X126227694Y56538370D02*
X126906516Y55859548D01*
X125492302Y54445334D01*
X124813480Y55124156D01*
X126227694Y56538370D01*
X126227694Y56538370D01*
G37*
G36*
X126906516Y57740452D02*
X126227694Y57061630D01*
X124813480Y58475844D01*
X125492302Y59154666D01*
X126906516Y57740452D01*
X126906516Y57740452D01*
G37*
G36*
X127472202Y58306137D02*
X126793380Y57627315D01*
X125379166Y59041529D01*
X126057988Y59720351D01*
X127472202Y58306137D01*
X127472202Y58306137D01*
G37*
G36*
X128037887Y58871822D02*
X127359065Y58193000D01*
X125944851Y59607214D01*
X126623673Y60286036D01*
X128037887Y58871822D01*
X128037887Y58871822D01*
G37*
G36*
X128603572Y59437508D02*
X127924750Y58758686D01*
X126510536Y60172900D01*
X127189358Y60851722D01*
X128603572Y59437508D01*
X128603572Y59437508D01*
G37*
G36*
X129169258Y60003193D02*
X128490436Y59324371D01*
X127076222Y60738585D01*
X127755044Y61417407D01*
X129169258Y60003193D01*
X129169258Y60003193D01*
G37*
G36*
X129734943Y60568879D02*
X129056121Y59890057D01*
X127641907Y61304271D01*
X128320729Y61983093D01*
X129734943Y60568879D01*
X129734943Y60568879D01*
G37*
G36*
X130300629Y61134564D02*
X129621807Y60455742D01*
X128207593Y61869956D01*
X128886415Y62548778D01*
X130300629Y61134564D01*
X130300629Y61134564D01*
G37*
G36*
X130866314Y61700250D02*
X130187492Y61021428D01*
X128773278Y62435642D01*
X129452100Y63114464D01*
X130866314Y61700250D01*
X130866314Y61700250D01*
G37*
G36*
X131432000Y62265935D02*
X130753178Y61587113D01*
X129338964Y63001327D01*
X130017786Y63680149D01*
X131432000Y62265935D01*
X131432000Y62265935D01*
G37*
G36*
X131997685Y62831620D02*
X131318863Y62152798D01*
X129904649Y63567012D01*
X130583471Y64245834D01*
X131997685Y62831620D01*
X131997685Y62831620D01*
G37*
G36*
X132563370Y63397306D02*
X131884548Y62718484D01*
X130470334Y64132698D01*
X131149156Y64811520D01*
X132563370Y63397306D01*
X132563370Y63397306D01*
G37*
D15*
X96925000Y52100000D03*
X100195000Y52100000D03*
X1905000Y14240000D03*
X5175000Y14240000D03*
X1905000Y33270000D03*
X5175000Y33270000D03*
X1905000Y52240000D03*
X5175000Y52240000D03*
X1915000Y71270000D03*
X5185000Y71270000D03*
X1915000Y90210000D03*
X5185000Y90210000D03*
X20935000Y14160000D03*
X24205000Y14160000D03*
X39905000Y14160000D03*
X43175000Y14160000D03*
X58915000Y14160000D03*
X62185000Y14160000D03*
X77925000Y14160000D03*
X81195000Y14160000D03*
X134925000Y14160000D03*
X138195000Y14160000D03*
X172915000Y14160000D03*
X176185000Y14160000D03*
X191925000Y14120000D03*
X195195000Y14120000D03*
X210895000Y14160000D03*
X214165000Y14160000D03*
X229905000Y14160000D03*
X233175000Y14160000D03*
X248925000Y14160000D03*
X252195000Y14160000D03*
X20927000Y33220000D03*
X24197000Y33220000D03*
X39905000Y33130000D03*
X43175000Y33130000D03*
X58915000Y33210000D03*
X62185000Y33210000D03*
X77925000Y33170000D03*
X81195000Y33170000D03*
X96905000Y33170000D03*
X100175000Y33170000D03*
X115915000Y33170000D03*
X119185000Y33170000D03*
X149135000Y30750000D03*
X145865000Y30750000D03*
X153935000Y33210000D03*
X157205000Y33210000D03*
X172915000Y33130000D03*
X176185000Y33130000D03*
X191925000Y33100000D03*
X195195000Y33100000D03*
X210895000Y33170000D03*
X214165000Y33170000D03*
X229905000Y33130000D03*
X233175000Y33130000D03*
X248885000Y33210000D03*
X252155000Y33210000D03*
X20905000Y52240000D03*
X24175000Y52240000D03*
X39905000Y52100000D03*
X43175000Y52100000D03*
X58905000Y52070000D03*
X62175000Y52070000D03*
X77905000Y52070000D03*
X81175000Y52070000D03*
X115955000Y52070000D03*
X119225000Y52070000D03*
X149135000Y48950000D03*
X145865000Y48950000D03*
X153925000Y52040000D03*
X157195000Y52040000D03*
X172915000Y52090000D03*
X176185000Y52090000D03*
X191915000Y52070000D03*
X195185000Y52070000D03*
X210915000Y52010000D03*
X214185000Y52010000D03*
X229915000Y51990000D03*
X233185000Y51990000D03*
X248895000Y52050000D03*
X252165000Y52050000D03*
X20905000Y71180000D03*
X24175000Y71180000D03*
X39905000Y71230000D03*
X43175000Y71230000D03*
X58915000Y71200000D03*
X62185000Y71200000D03*
X77925000Y71230000D03*
X81195000Y71230000D03*
X96905000Y71080000D03*
X100175000Y71080000D03*
X115915000Y71230000D03*
X119185000Y71230000D03*
X141415000Y71160000D03*
X138145000Y71160000D03*
X153895000Y71080000D03*
X157165000Y71080000D03*
X172915000Y71120000D03*
X176185000Y71120000D03*
X191925000Y71120000D03*
X195195000Y71120000D03*
X210895000Y71230000D03*
X214165000Y71230000D03*
X229905000Y71200000D03*
X233175000Y71200000D03*
X248955000Y71210000D03*
X252225000Y71210000D03*
X20935000Y90170000D03*
X24205000Y90170000D03*
X39905000Y90210000D03*
X43175000Y90210000D03*
X58915000Y90130000D03*
X62185000Y90130000D03*
X77925000Y90170000D03*
X81195000Y90170000D03*
X96905000Y90130000D03*
X100175000Y90130000D03*
X115915000Y90210000D03*
X119185000Y90210000D03*
X142615000Y79925000D03*
X145885000Y79925000D03*
X172915000Y90060000D03*
X176185000Y90060000D03*
X191925000Y90130000D03*
X195195000Y90130000D03*
X210895000Y90060000D03*
X214165000Y90060000D03*
X229905000Y90020000D03*
X233175000Y90020000D03*
X248925000Y90020000D03*
X252195000Y90020000D03*
X96905000Y14120000D03*
X100175000Y14120000D03*
X153895000Y90060000D03*
X157165000Y90060000D03*
D16*
X133452500Y67750000D03*
X131547500Y67750000D03*
X136547500Y74750000D03*
X138452500Y74750000D03*
X152052500Y57575000D03*
X150147500Y57575000D03*
X152047500Y55080000D03*
X150142500Y55080000D03*
X136547500Y77750000D03*
X138452500Y77750000D03*
X128452500Y74750000D03*
X126547500Y74750000D03*
X133452500Y70750000D03*
X131547500Y70750000D03*
X128452500Y77750000D03*
X126547500Y77750000D03*
X132952500Y36250000D03*
X131047500Y36250000D03*
X132952500Y38250000D03*
X131047500Y38250000D03*
D17*
X146275000Y55125000D03*
X146275000Y57025000D03*
X133525000Y80850000D03*
X133525000Y82750000D03*
X131450000Y80850000D03*
X131450000Y82750000D03*
X112500000Y61700000D03*
X112500000Y59800000D03*
X112500000Y43450000D03*
X112500000Y41550000D03*
X112500000Y80700000D03*
X112500000Y78800000D03*
X112500000Y23700000D03*
X112500000Y21800000D03*
X120475000Y57850000D03*
X120475000Y55950000D03*
D18*
X165050000Y74500000D03*
X166950000Y74500000D03*
D17*
X110000000Y15550000D03*
X110000000Y17450000D03*
D19*
X148350400Y73748480D03*
X154649600Y77748980D03*
X154649600Y73751020D03*
X148350400Y77748980D03*
D20*
X137125060Y92201020D03*
X127274940Y92201020D03*
D21*
X127274940Y87949060D03*
X137125060Y87949060D03*
D22*
X132200000Y87695100D03*
X131399900Y87695100D03*
X130599800Y87695100D03*
X133000100Y87695100D03*
X133800200Y87695100D03*
D23*
X130000000Y90300000D03*
X134400000Y90300000D03*
D24*
X128250000Y19150000D03*
X128250000Y19950000D03*
X128250000Y20750000D03*
X128250000Y21550000D03*
X128250000Y22350000D03*
X128250000Y23150000D03*
X128250000Y23950000D03*
X128250000Y24750000D03*
D25*
X129700000Y26200000D03*
X130500000Y26200000D03*
X131300000Y26200000D03*
X132100000Y26200000D03*
X132900000Y26200000D03*
X133700000Y26200000D03*
X134500000Y26200000D03*
X135300000Y26200000D03*
D24*
X136750000Y24750000D03*
X136750000Y23950000D03*
X136750000Y23150000D03*
X136750000Y22350000D03*
X136750000Y21550000D03*
X136750000Y20750000D03*
X136750000Y19950000D03*
X136750000Y19150000D03*
D25*
X135300000Y17700000D03*
X134500000Y17700000D03*
X133700000Y17700000D03*
X132900000Y17700000D03*
X132100000Y17700000D03*
X131300000Y17700000D03*
X130500000Y17700000D03*
X129700000Y17700000D03*
D14*
X149010000Y3970000D03*
X155360000Y6510000D03*
X110910000Y3945000D03*
X117260000Y6485000D03*
D26*
X143295000Y90180000D03*
D27*
X140755000Y90180000D03*
D26*
X124245000Y90180000D03*
D27*
X121705000Y90180000D03*
D26*
X121705000Y60970000D03*
D27*
X124245000Y60970000D03*
D26*
X140755000Y60970000D03*
D27*
X143295000Y60970000D03*
D26*
X159805000Y60970000D03*
D27*
X162345000Y60970000D03*
D26*
X159805000Y80020000D03*
D27*
X162345000Y80020000D03*
D26*
X178855000Y80020000D03*
D27*
X181395000Y80020000D03*
D26*
X178855000Y60970000D03*
D27*
X181395000Y60970000D03*
D26*
X197905000Y60970000D03*
D27*
X200445000Y60970000D03*
D26*
X197905000Y80020000D03*
D27*
X200445000Y80020000D03*
D26*
X216955000Y80020000D03*
D27*
X219495000Y80020000D03*
D26*
X236005000Y80020000D03*
D27*
X238545000Y80020000D03*
D26*
X236005000Y60970000D03*
D27*
X238545000Y60970000D03*
D26*
X216955000Y60970000D03*
D27*
X219495000Y60970000D03*
D26*
X216955000Y41920000D03*
D27*
X219495000Y41920000D03*
D26*
X236005000Y41920000D03*
D27*
X238545000Y41920000D03*
D26*
X255055000Y41920000D03*
D27*
X257595000Y41920000D03*
D26*
X255055000Y22870000D03*
D27*
X257595000Y22870000D03*
D26*
X236005000Y22870000D03*
D27*
X238545000Y22870000D03*
D26*
X236005000Y3820000D03*
D27*
X238545000Y3820000D03*
D26*
X216955000Y3820000D03*
D27*
X219495000Y3820000D03*
D26*
X197905000Y3820000D03*
D27*
X200445000Y3820000D03*
D26*
X178855000Y3820000D03*
D27*
X181395000Y3820000D03*
D26*
X159805000Y22870000D03*
D27*
X162345000Y22870000D03*
D26*
X216955000Y22870000D03*
D27*
X219495000Y22870000D03*
D26*
X197905000Y22870000D03*
D27*
X200445000Y22870000D03*
D26*
X178855000Y22870000D03*
D27*
X181395000Y22870000D03*
D26*
X197905000Y41920000D03*
D27*
X200445000Y41920000D03*
D26*
X178855000Y41920000D03*
D27*
X181395000Y41920000D03*
D26*
X159805000Y41920000D03*
D27*
X162345000Y41920000D03*
D26*
X140755000Y41920000D03*
D27*
X143295000Y41920000D03*
D26*
X121705000Y41920000D03*
D27*
X124245000Y41920000D03*
D26*
X102655000Y22870000D03*
D27*
X105195000Y22870000D03*
D26*
X121705000Y22870000D03*
D27*
X124245000Y22870000D03*
D26*
X140755000Y22870000D03*
D27*
X143295000Y22870000D03*
D26*
X152820000Y14130000D03*
D27*
X150280000Y14130000D03*
D26*
X114720000Y14105000D03*
D27*
X112180000Y14105000D03*
D26*
X83605000Y3820000D03*
D27*
X86145000Y3820000D03*
D26*
X7405000Y3820000D03*
D27*
X9945000Y3820000D03*
D26*
X26455000Y3820000D03*
D27*
X28995000Y3820000D03*
D26*
X45505000Y3820000D03*
D27*
X48045000Y3820000D03*
D26*
X83605000Y22870000D03*
D27*
X86145000Y22870000D03*
D26*
X64555000Y22870000D03*
D27*
X67095000Y22870000D03*
D26*
X45505000Y22870000D03*
D27*
X48045000Y22870000D03*
D26*
X26455000Y22870000D03*
D27*
X28995000Y22870000D03*
D26*
X7405000Y22870000D03*
D27*
X9945000Y22870000D03*
D26*
X45505000Y60970000D03*
D27*
X48045000Y60970000D03*
D26*
X45505000Y41920000D03*
D27*
X48045000Y41920000D03*
D26*
X102655000Y41920000D03*
D27*
X105195000Y41920000D03*
D26*
X83605000Y41920000D03*
D27*
X86145000Y41920000D03*
D26*
X64555000Y41920000D03*
D27*
X67095000Y41920000D03*
D26*
X64555000Y60970000D03*
D27*
X67095000Y60970000D03*
D26*
X83605000Y60970000D03*
D27*
X86145000Y60970000D03*
D26*
X102655000Y60970000D03*
D27*
X105195000Y60970000D03*
D26*
X102655000Y80020000D03*
D27*
X105195000Y80020000D03*
D26*
X83605000Y80020000D03*
D27*
X86145000Y80020000D03*
D26*
X64555000Y80020000D03*
D27*
X67095000Y80020000D03*
D26*
X45505000Y80020000D03*
D27*
X48045000Y80020000D03*
D26*
X26455000Y80020000D03*
D27*
X28995000Y80020000D03*
D26*
X26455000Y60970000D03*
D27*
X28995000Y60970000D03*
D26*
X26455000Y41920000D03*
D27*
X28995000Y41920000D03*
D26*
X255055000Y60970000D03*
D27*
X257595000Y60970000D03*
D26*
X255055000Y80020000D03*
D27*
X257595000Y80020000D03*
D26*
X7405000Y80020000D03*
D27*
X9945000Y80020000D03*
D26*
X7405000Y60970000D03*
D27*
X9945000Y60970000D03*
D26*
X255055000Y3820000D03*
D27*
X257595000Y3820000D03*
D26*
X64555000Y3820000D03*
D27*
X67095000Y3820000D03*
D26*
X7405000Y41920000D03*
D27*
X9945000Y41920000D03*
D28*
X156395000Y55140000D03*
X156395000Y57540000D03*
X154695000Y55140000D03*
X154695000Y57540000D03*
D29*
X1250000Y1250000D03*
X263750000Y1250000D03*
X1250000Y92750000D03*
D30*
X170500000Y75650000D03*
X170500000Y77850000D03*
D29*
X263750000Y92750000D03*
M02*
