G04 #@! TF.FileFunction,Legend,Top*
%FSLAX46Y46*%
G04 Gerber Fmt 4.6, Leading zero omitted, Abs format (unit mm)*
G04 Created by KiCad (PCBNEW 4.0.1-stable) date 4/2/2017 1:31:36 AM*
%MOMM*%
G01*
G04 APERTURE LIST*
%ADD10C,0.100000*%
%ADD11C,0.150000*%
%ADD12C,0.381000*%
%ADD13C,0.203200*%
%ADD14C,4.400000*%
%ADD15C,2.686000*%
%ADD16C,1.300000*%
%ADD17O,2.305000X2.559000*%
%ADD18R,2.305000X2.559000*%
%ADD19C,1.400000*%
G04 APERTURE END LIST*
D10*
D11*
X1250000Y94000000D02*
X263750000Y94000000D01*
X0Y1250000D02*
X0Y92750000D01*
X263750000Y0D02*
X1250000Y0D01*
X265000000Y92750000D02*
X265000000Y1250000D01*
X263750000Y0D02*
G75*
G03X265000000Y1250000I0J1250000D01*
G01*
X265000000Y92750000D02*
G75*
G03X263750000Y94000000I-1250000J0D01*
G01*
X1250000Y94000000D02*
G75*
G03X0Y92750000I0J-1250000D01*
G01*
X0Y1250000D02*
G75*
G03X1250000Y0I1250000J0D01*
G01*
D12*
X97575000Y53350000D02*
X99353000Y53350000D01*
X108497000Y53350000D02*
X110275000Y53350000D01*
X110275000Y53350000D02*
X110275000Y51572000D01*
X110275000Y42428000D02*
X110275000Y40650000D01*
X110275000Y40650000D02*
X108497000Y40650000D01*
X99353000Y40650000D02*
X97575000Y40650000D01*
X97575000Y40650000D02*
X97575000Y42428000D01*
X97575000Y51572000D02*
X97575000Y53350000D01*
X116625000Y53350000D02*
X118403000Y53350000D01*
X127547000Y53350000D02*
X129325000Y53350000D01*
X129325000Y53350000D02*
X129325000Y51572000D01*
X129325000Y42428000D02*
X129325000Y40650000D01*
X129325000Y40650000D02*
X127547000Y40650000D01*
X118403000Y40650000D02*
X116625000Y40650000D01*
X116625000Y40650000D02*
X116625000Y42428000D01*
X116625000Y51572000D02*
X116625000Y53350000D01*
X78525000Y91450000D02*
X80303000Y91450000D01*
X89447000Y91450000D02*
X91225000Y91450000D01*
X91225000Y91450000D02*
X91225000Y89672000D01*
X91225000Y80528000D02*
X91225000Y78750000D01*
X91225000Y78750000D02*
X89447000Y78750000D01*
X80303000Y78750000D02*
X78525000Y78750000D01*
X78525000Y78750000D02*
X78525000Y80528000D01*
X78525000Y89672000D02*
X78525000Y91450000D01*
X249975000Y34300000D02*
X251753000Y34300000D01*
X260897000Y34300000D02*
X262675000Y34300000D01*
X262675000Y34300000D02*
X262675000Y32522000D01*
X262675000Y23378000D02*
X262675000Y21600000D01*
X262675000Y21600000D02*
X260897000Y21600000D01*
X251753000Y21600000D02*
X249975000Y21600000D01*
X249975000Y21600000D02*
X249975000Y23378000D01*
X249975000Y32522000D02*
X249975000Y34300000D01*
X129325000Y78750000D02*
X127547000Y78750000D01*
X118403000Y78750000D02*
X116625000Y78750000D01*
X116625000Y78750000D02*
X116625000Y80528000D01*
X116625000Y89672000D02*
X116625000Y91450000D01*
X116625000Y91450000D02*
X118403000Y91450000D01*
X127547000Y91450000D02*
X129325000Y91450000D01*
X129325000Y91450000D02*
X129325000Y89672000D01*
X129325000Y80528000D02*
X129325000Y78750000D01*
X148375000Y78750000D02*
X146597000Y78750000D01*
X137453000Y78750000D02*
X135675000Y78750000D01*
X135675000Y78750000D02*
X135675000Y80528000D01*
X135675000Y89672000D02*
X135675000Y91450000D01*
X135675000Y91450000D02*
X137453000Y91450000D01*
X146597000Y91450000D02*
X148375000Y91450000D01*
X148375000Y91450000D02*
X148375000Y89672000D01*
X148375000Y80528000D02*
X148375000Y78750000D01*
X97575000Y91450000D02*
X99353000Y91450000D01*
X108497000Y91450000D02*
X110275000Y91450000D01*
X110275000Y91450000D02*
X110275000Y89672000D01*
X110275000Y80528000D02*
X110275000Y78750000D01*
X110275000Y78750000D02*
X108497000Y78750000D01*
X99353000Y78750000D02*
X97575000Y78750000D01*
X97575000Y78750000D02*
X97575000Y80528000D01*
X97575000Y89672000D02*
X97575000Y91450000D01*
X59475000Y91450000D02*
X61253000Y91450000D01*
X70397000Y91450000D02*
X72175000Y91450000D01*
X72175000Y91450000D02*
X72175000Y89672000D01*
X72175000Y80528000D02*
X72175000Y78750000D01*
X72175000Y78750000D02*
X70397000Y78750000D01*
X61253000Y78750000D02*
X59475000Y78750000D01*
X59475000Y78750000D02*
X59475000Y80528000D01*
X59475000Y89672000D02*
X59475000Y91450000D01*
X40425000Y91450000D02*
X42203000Y91450000D01*
X51347000Y91450000D02*
X53125000Y91450000D01*
X53125000Y91450000D02*
X53125000Y89672000D01*
X53125000Y80528000D02*
X53125000Y78750000D01*
X53125000Y78750000D02*
X51347000Y78750000D01*
X42203000Y78750000D02*
X40425000Y78750000D01*
X40425000Y78750000D02*
X40425000Y80528000D01*
X40425000Y89672000D02*
X40425000Y91450000D01*
X21375000Y91450000D02*
X23153000Y91450000D01*
X32297000Y91450000D02*
X34075000Y91450000D01*
X34075000Y91450000D02*
X34075000Y89672000D01*
X34075000Y80528000D02*
X34075000Y78750000D01*
X34075000Y78750000D02*
X32297000Y78750000D01*
X23153000Y78750000D02*
X21375000Y78750000D01*
X21375000Y78750000D02*
X21375000Y80528000D01*
X21375000Y89672000D02*
X21375000Y91450000D01*
X2325000Y91450000D02*
X4103000Y91450000D01*
X13247000Y91450000D02*
X15025000Y91450000D01*
X15025000Y91450000D02*
X15025000Y89672000D01*
X15025000Y80528000D02*
X15025000Y78750000D01*
X15025000Y78750000D02*
X13247000Y78750000D01*
X4103000Y78750000D02*
X2325000Y78750000D01*
X2325000Y78750000D02*
X2325000Y80528000D01*
X2325000Y89672000D02*
X2325000Y91450000D01*
X116625000Y72400000D02*
X118403000Y72400000D01*
X127547000Y72400000D02*
X129325000Y72400000D01*
X129325000Y72400000D02*
X129325000Y70622000D01*
X129325000Y61478000D02*
X129325000Y59700000D01*
X129325000Y59700000D02*
X127547000Y59700000D01*
X118403000Y59700000D02*
X116625000Y59700000D01*
X116625000Y59700000D02*
X116625000Y61478000D01*
X116625000Y70622000D02*
X116625000Y72400000D01*
X97575000Y72400000D02*
X99353000Y72400000D01*
X108497000Y72400000D02*
X110275000Y72400000D01*
X110275000Y72400000D02*
X110275000Y70622000D01*
X110275000Y61478000D02*
X110275000Y59700000D01*
X110275000Y59700000D02*
X108497000Y59700000D01*
X99353000Y59700000D02*
X97575000Y59700000D01*
X97575000Y59700000D02*
X97575000Y61478000D01*
X97575000Y70622000D02*
X97575000Y72400000D01*
X78525000Y72400000D02*
X80303000Y72400000D01*
X89447000Y72400000D02*
X91225000Y72400000D01*
X91225000Y72400000D02*
X91225000Y70622000D01*
X91225000Y61478000D02*
X91225000Y59700000D01*
X91225000Y59700000D02*
X89447000Y59700000D01*
X80303000Y59700000D02*
X78525000Y59700000D01*
X78525000Y59700000D02*
X78525000Y61478000D01*
X78525000Y70622000D02*
X78525000Y72400000D01*
X59475000Y72400000D02*
X61253000Y72400000D01*
X70397000Y72400000D02*
X72175000Y72400000D01*
X72175000Y72400000D02*
X72175000Y70622000D01*
X72175000Y61478000D02*
X72175000Y59700000D01*
X72175000Y59700000D02*
X70397000Y59700000D01*
X61253000Y59700000D02*
X59475000Y59700000D01*
X59475000Y59700000D02*
X59475000Y61478000D01*
X59475000Y70622000D02*
X59475000Y72400000D01*
X40425000Y72400000D02*
X42203000Y72400000D01*
X51347000Y72400000D02*
X53125000Y72400000D01*
X53125000Y72400000D02*
X53125000Y70622000D01*
X53125000Y61478000D02*
X53125000Y59700000D01*
X53125000Y59700000D02*
X51347000Y59700000D01*
X42203000Y59700000D02*
X40425000Y59700000D01*
X40425000Y59700000D02*
X40425000Y61478000D01*
X40425000Y70622000D02*
X40425000Y72400000D01*
X21375000Y72400000D02*
X23153000Y72400000D01*
X32297000Y72400000D02*
X34075000Y72400000D01*
X34075000Y72400000D02*
X34075000Y70622000D01*
X34075000Y61478000D02*
X34075000Y59700000D01*
X34075000Y59700000D02*
X32297000Y59700000D01*
X23153000Y59700000D02*
X21375000Y59700000D01*
X21375000Y59700000D02*
X21375000Y61478000D01*
X21375000Y70622000D02*
X21375000Y72400000D01*
X2325000Y72400000D02*
X4103000Y72400000D01*
X13247000Y72400000D02*
X15025000Y72400000D01*
X15025000Y72400000D02*
X15025000Y70622000D01*
X15025000Y61478000D02*
X15025000Y59700000D01*
X15025000Y59700000D02*
X13247000Y59700000D01*
X4103000Y59700000D02*
X2325000Y59700000D01*
X2325000Y59700000D02*
X2325000Y61478000D01*
X2325000Y70622000D02*
X2325000Y72400000D01*
X78525000Y53350000D02*
X80303000Y53350000D01*
X89447000Y53350000D02*
X91225000Y53350000D01*
X91225000Y53350000D02*
X91225000Y51572000D01*
X91225000Y42428000D02*
X91225000Y40650000D01*
X91225000Y40650000D02*
X89447000Y40650000D01*
X80303000Y40650000D02*
X78525000Y40650000D01*
X78525000Y40650000D02*
X78525000Y42428000D01*
X78525000Y51572000D02*
X78525000Y53350000D01*
X59475000Y53350000D02*
X61253000Y53350000D01*
X70397000Y53350000D02*
X72175000Y53350000D01*
X72175000Y53350000D02*
X72175000Y51572000D01*
X72175000Y42428000D02*
X72175000Y40650000D01*
X72175000Y40650000D02*
X70397000Y40650000D01*
X61253000Y40650000D02*
X59475000Y40650000D01*
X59475000Y40650000D02*
X59475000Y42428000D01*
X59475000Y51572000D02*
X59475000Y53350000D01*
X40425000Y53350000D02*
X42203000Y53350000D01*
X51347000Y53350000D02*
X53125000Y53350000D01*
X53125000Y53350000D02*
X53125000Y51572000D01*
X53125000Y42428000D02*
X53125000Y40650000D01*
X53125000Y40650000D02*
X51347000Y40650000D01*
X42203000Y40650000D02*
X40425000Y40650000D01*
X40425000Y40650000D02*
X40425000Y42428000D01*
X40425000Y51572000D02*
X40425000Y53350000D01*
X21375000Y53350000D02*
X23153000Y53350000D01*
X32297000Y53350000D02*
X34075000Y53350000D01*
X34075000Y53350000D02*
X34075000Y51572000D01*
X34075000Y42428000D02*
X34075000Y40650000D01*
X34075000Y40650000D02*
X32297000Y40650000D01*
X23153000Y40650000D02*
X21375000Y40650000D01*
X21375000Y40650000D02*
X21375000Y42428000D01*
X21375000Y51572000D02*
X21375000Y53350000D01*
X2325000Y53350000D02*
X4103000Y53350000D01*
X13247000Y53350000D02*
X15025000Y53350000D01*
X15025000Y53350000D02*
X15025000Y51572000D01*
X15025000Y42428000D02*
X15025000Y40650000D01*
X15025000Y40650000D02*
X13247000Y40650000D01*
X4103000Y40650000D02*
X2325000Y40650000D01*
X2325000Y40650000D02*
X2325000Y42428000D01*
X2325000Y51572000D02*
X2325000Y53350000D01*
X116625000Y34300000D02*
X118403000Y34300000D01*
X127547000Y34300000D02*
X129325000Y34300000D01*
X129325000Y34300000D02*
X129325000Y32522000D01*
X129325000Y23378000D02*
X129325000Y21600000D01*
X129325000Y21600000D02*
X127547000Y21600000D01*
X118403000Y21600000D02*
X116625000Y21600000D01*
X116625000Y21600000D02*
X116625000Y23378000D01*
X116625000Y32522000D02*
X116625000Y34300000D01*
X97575000Y34300000D02*
X99353000Y34300000D01*
X108497000Y34300000D02*
X110275000Y34300000D01*
X110275000Y34300000D02*
X110275000Y32522000D01*
X110275000Y23378000D02*
X110275000Y21600000D01*
X110275000Y21600000D02*
X108497000Y21600000D01*
X99353000Y21600000D02*
X97575000Y21600000D01*
X97575000Y21600000D02*
X97575000Y23378000D01*
X97575000Y32522000D02*
X97575000Y34300000D01*
X78525000Y34300000D02*
X80303000Y34300000D01*
X89447000Y34300000D02*
X91225000Y34300000D01*
X91225000Y34300000D02*
X91225000Y32522000D01*
X91225000Y23378000D02*
X91225000Y21600000D01*
X91225000Y21600000D02*
X89447000Y21600000D01*
X80303000Y21600000D02*
X78525000Y21600000D01*
X78525000Y21600000D02*
X78525000Y23378000D01*
X78525000Y32522000D02*
X78525000Y34300000D01*
X59475000Y34300000D02*
X61253000Y34300000D01*
X70397000Y34300000D02*
X72175000Y34300000D01*
X72175000Y34300000D02*
X72175000Y32522000D01*
X72175000Y23378000D02*
X72175000Y21600000D01*
X72175000Y21600000D02*
X70397000Y21600000D01*
X61253000Y21600000D02*
X59475000Y21600000D01*
X59475000Y21600000D02*
X59475000Y23378000D01*
X59475000Y32522000D02*
X59475000Y34300000D01*
X40425000Y34300000D02*
X42203000Y34300000D01*
X51347000Y34300000D02*
X53125000Y34300000D01*
X53125000Y34300000D02*
X53125000Y32522000D01*
X53125000Y23378000D02*
X53125000Y21600000D01*
X53125000Y21600000D02*
X51347000Y21600000D01*
X42203000Y21600000D02*
X40425000Y21600000D01*
X40425000Y21600000D02*
X40425000Y23378000D01*
X40425000Y32522000D02*
X40425000Y34300000D01*
X21375000Y34300000D02*
X23153000Y34300000D01*
X32297000Y34300000D02*
X34075000Y34300000D01*
X34075000Y34300000D02*
X34075000Y32522000D01*
X34075000Y23378000D02*
X34075000Y21600000D01*
X34075000Y21600000D02*
X32297000Y21600000D01*
X23153000Y21600000D02*
X21375000Y21600000D01*
X21375000Y21600000D02*
X21375000Y23378000D01*
X21375000Y32522000D02*
X21375000Y34300000D01*
X2325000Y34300000D02*
X4103000Y34300000D01*
X13247000Y34300000D02*
X15025000Y34300000D01*
X15025000Y34300000D02*
X15025000Y32522000D01*
X15025000Y23378000D02*
X15025000Y21600000D01*
X15025000Y21600000D02*
X13247000Y21600000D01*
X4103000Y21600000D02*
X2325000Y21600000D01*
X2325000Y21600000D02*
X2325000Y23378000D01*
X2325000Y32522000D02*
X2325000Y34300000D01*
X59475000Y15250000D02*
X61253000Y15250000D01*
X70397000Y15250000D02*
X72175000Y15250000D01*
X72175000Y15250000D02*
X72175000Y13472000D01*
X72175000Y4328000D02*
X72175000Y2550000D01*
X72175000Y2550000D02*
X70397000Y2550000D01*
X61253000Y2550000D02*
X59475000Y2550000D01*
X59475000Y2550000D02*
X59475000Y4328000D01*
X59475000Y13472000D02*
X59475000Y15250000D01*
X40425000Y15250000D02*
X42203000Y15250000D01*
X51347000Y15250000D02*
X53125000Y15250000D01*
X53125000Y15250000D02*
X53125000Y13472000D01*
X53125000Y4328000D02*
X53125000Y2550000D01*
X53125000Y2550000D02*
X51347000Y2550000D01*
X42203000Y2550000D02*
X40425000Y2550000D01*
X40425000Y2550000D02*
X40425000Y4328000D01*
X40425000Y13472000D02*
X40425000Y15250000D01*
X21375000Y15250000D02*
X23153000Y15250000D01*
X32297000Y15250000D02*
X34075000Y15250000D01*
X34075000Y15250000D02*
X34075000Y13472000D01*
X34075000Y4328000D02*
X34075000Y2550000D01*
X34075000Y2550000D02*
X32297000Y2550000D01*
X23153000Y2550000D02*
X21375000Y2550000D01*
X21375000Y2550000D02*
X21375000Y4328000D01*
X21375000Y13472000D02*
X21375000Y15250000D01*
X2325000Y15250000D02*
X4103000Y15250000D01*
X13247000Y15250000D02*
X15025000Y15250000D01*
X15025000Y15250000D02*
X15025000Y13472000D01*
X15025000Y4328000D02*
X15025000Y2550000D01*
X15025000Y2550000D02*
X13247000Y2550000D01*
X4103000Y2550000D02*
X2325000Y2550000D01*
X2325000Y2550000D02*
X2325000Y4328000D01*
X2325000Y13472000D02*
X2325000Y15250000D01*
X154725000Y91450000D02*
X156503000Y91450000D01*
X165647000Y91450000D02*
X167425000Y91450000D01*
X167425000Y91450000D02*
X167425000Y89672000D01*
X167425000Y80528000D02*
X167425000Y78750000D01*
X167425000Y78750000D02*
X165647000Y78750000D01*
X156503000Y78750000D02*
X154725000Y78750000D01*
X154725000Y78750000D02*
X154725000Y80528000D01*
X154725000Y89672000D02*
X154725000Y91450000D01*
X173775000Y91450000D02*
X175553000Y91450000D01*
X184697000Y91450000D02*
X186475000Y91450000D01*
X186475000Y91450000D02*
X186475000Y89672000D01*
X186475000Y80528000D02*
X186475000Y78750000D01*
X186475000Y78750000D02*
X184697000Y78750000D01*
X175553000Y78750000D02*
X173775000Y78750000D01*
X173775000Y78750000D02*
X173775000Y80528000D01*
X173775000Y89672000D02*
X173775000Y91450000D01*
X192825000Y91450000D02*
X194603000Y91450000D01*
X203747000Y91450000D02*
X205525000Y91450000D01*
X205525000Y91450000D02*
X205525000Y89672000D01*
X205525000Y80528000D02*
X205525000Y78750000D01*
X205525000Y78750000D02*
X203747000Y78750000D01*
X194603000Y78750000D02*
X192825000Y78750000D01*
X192825000Y78750000D02*
X192825000Y80528000D01*
X192825000Y89672000D02*
X192825000Y91450000D01*
X211875000Y91450000D02*
X213653000Y91450000D01*
X222797000Y91450000D02*
X224575000Y91450000D01*
X224575000Y91450000D02*
X224575000Y89672000D01*
X224575000Y80528000D02*
X224575000Y78750000D01*
X224575000Y78750000D02*
X222797000Y78750000D01*
X213653000Y78750000D02*
X211875000Y78750000D01*
X211875000Y78750000D02*
X211875000Y80528000D01*
X211875000Y89672000D02*
X211875000Y91450000D01*
X230925000Y91450000D02*
X232703000Y91450000D01*
X241847000Y91450000D02*
X243625000Y91450000D01*
X243625000Y91450000D02*
X243625000Y89672000D01*
X243625000Y80528000D02*
X243625000Y78750000D01*
X243625000Y78750000D02*
X241847000Y78750000D01*
X232703000Y78750000D02*
X230925000Y78750000D01*
X230925000Y78750000D02*
X230925000Y80528000D01*
X230925000Y89672000D02*
X230925000Y91450000D01*
X135675000Y72400000D02*
X137453000Y72400000D01*
X146597000Y72400000D02*
X148375000Y72400000D01*
X148375000Y72400000D02*
X148375000Y70622000D01*
X148375000Y61478000D02*
X148375000Y59700000D01*
X148375000Y59700000D02*
X146597000Y59700000D01*
X137453000Y59700000D02*
X135675000Y59700000D01*
X135675000Y59700000D02*
X135675000Y61478000D01*
X135675000Y70622000D02*
X135675000Y72400000D01*
X154725000Y72400000D02*
X156503000Y72400000D01*
X165647000Y72400000D02*
X167425000Y72400000D01*
X167425000Y72400000D02*
X167425000Y70622000D01*
X167425000Y61478000D02*
X167425000Y59700000D01*
X167425000Y59700000D02*
X165647000Y59700000D01*
X156503000Y59700000D02*
X154725000Y59700000D01*
X154725000Y59700000D02*
X154725000Y61478000D01*
X154725000Y70622000D02*
X154725000Y72400000D01*
X173775000Y72400000D02*
X175553000Y72400000D01*
X184697000Y72400000D02*
X186475000Y72400000D01*
X186475000Y72400000D02*
X186475000Y70622000D01*
X186475000Y61478000D02*
X186475000Y59700000D01*
X186475000Y59700000D02*
X184697000Y59700000D01*
X175553000Y59700000D02*
X173775000Y59700000D01*
X173775000Y59700000D02*
X173775000Y61478000D01*
X173775000Y70622000D02*
X173775000Y72400000D01*
X192825000Y72400000D02*
X194603000Y72400000D01*
X203747000Y72400000D02*
X205525000Y72400000D01*
X205525000Y72400000D02*
X205525000Y70622000D01*
X205525000Y61478000D02*
X205525000Y59700000D01*
X205525000Y59700000D02*
X203747000Y59700000D01*
X194603000Y59700000D02*
X192825000Y59700000D01*
X192825000Y59700000D02*
X192825000Y61478000D01*
X192825000Y70622000D02*
X192825000Y72400000D01*
X211875000Y72400000D02*
X213653000Y72400000D01*
X222797000Y72400000D02*
X224575000Y72400000D01*
X224575000Y72400000D02*
X224575000Y70622000D01*
X224575000Y61478000D02*
X224575000Y59700000D01*
X224575000Y59700000D02*
X222797000Y59700000D01*
X213653000Y59700000D02*
X211875000Y59700000D01*
X211875000Y59700000D02*
X211875000Y61478000D01*
X211875000Y70622000D02*
X211875000Y72400000D01*
X230925000Y72400000D02*
X232703000Y72400000D01*
X241847000Y72400000D02*
X243625000Y72400000D01*
X243625000Y72400000D02*
X243625000Y70622000D01*
X243625000Y61478000D02*
X243625000Y59700000D01*
X243625000Y59700000D02*
X241847000Y59700000D01*
X232703000Y59700000D02*
X230925000Y59700000D01*
X230925000Y59700000D02*
X230925000Y61478000D01*
X230925000Y70622000D02*
X230925000Y72400000D01*
X249975000Y72400000D02*
X251753000Y72400000D01*
X260897000Y72400000D02*
X262675000Y72400000D01*
X262675000Y72400000D02*
X262675000Y70622000D01*
X262675000Y61478000D02*
X262675000Y59700000D01*
X262675000Y59700000D02*
X260897000Y59700000D01*
X251753000Y59700000D02*
X249975000Y59700000D01*
X249975000Y59700000D02*
X249975000Y61478000D01*
X249975000Y70622000D02*
X249975000Y72400000D01*
X135675000Y53350000D02*
X137453000Y53350000D01*
X146597000Y53350000D02*
X148375000Y53350000D01*
X148375000Y53350000D02*
X148375000Y51572000D01*
X148375000Y42428000D02*
X148375000Y40650000D01*
X148375000Y40650000D02*
X146597000Y40650000D01*
X137453000Y40650000D02*
X135675000Y40650000D01*
X135675000Y40650000D02*
X135675000Y42428000D01*
X135675000Y51572000D02*
X135675000Y53350000D01*
X154725000Y53350000D02*
X156503000Y53350000D01*
X165647000Y53350000D02*
X167425000Y53350000D01*
X167425000Y53350000D02*
X167425000Y51572000D01*
X167425000Y42428000D02*
X167425000Y40650000D01*
X167425000Y40650000D02*
X165647000Y40650000D01*
X156503000Y40650000D02*
X154725000Y40650000D01*
X154725000Y40650000D02*
X154725000Y42428000D01*
X154725000Y51572000D02*
X154725000Y53350000D01*
X173775000Y53350000D02*
X175553000Y53350000D01*
X184697000Y53350000D02*
X186475000Y53350000D01*
X186475000Y53350000D02*
X186475000Y51572000D01*
X186475000Y42428000D02*
X186475000Y40650000D01*
X186475000Y40650000D02*
X184697000Y40650000D01*
X175553000Y40650000D02*
X173775000Y40650000D01*
X173775000Y40650000D02*
X173775000Y42428000D01*
X173775000Y51572000D02*
X173775000Y53350000D01*
X192825000Y53350000D02*
X194603000Y53350000D01*
X203747000Y53350000D02*
X205525000Y53350000D01*
X205525000Y53350000D02*
X205525000Y51572000D01*
X205525000Y42428000D02*
X205525000Y40650000D01*
X205525000Y40650000D02*
X203747000Y40650000D01*
X194603000Y40650000D02*
X192825000Y40650000D01*
X192825000Y40650000D02*
X192825000Y42428000D01*
X192825000Y51572000D02*
X192825000Y53350000D01*
X211875000Y53350000D02*
X213653000Y53350000D01*
X222797000Y53350000D02*
X224575000Y53350000D01*
X224575000Y53350000D02*
X224575000Y51572000D01*
X224575000Y42428000D02*
X224575000Y40650000D01*
X224575000Y40650000D02*
X222797000Y40650000D01*
X213653000Y40650000D02*
X211875000Y40650000D01*
X211875000Y40650000D02*
X211875000Y42428000D01*
X211875000Y51572000D02*
X211875000Y53350000D01*
X230925000Y53350000D02*
X232703000Y53350000D01*
X241847000Y53350000D02*
X243625000Y53350000D01*
X243625000Y53350000D02*
X243625000Y51572000D01*
X243625000Y42428000D02*
X243625000Y40650000D01*
X243625000Y40650000D02*
X241847000Y40650000D01*
X232703000Y40650000D02*
X230925000Y40650000D01*
X230925000Y40650000D02*
X230925000Y42428000D01*
X230925000Y51572000D02*
X230925000Y53350000D01*
X249975000Y53350000D02*
X251753000Y53350000D01*
X260897000Y53350000D02*
X262675000Y53350000D01*
X262675000Y53350000D02*
X262675000Y51572000D01*
X262675000Y42428000D02*
X262675000Y40650000D01*
X262675000Y40650000D02*
X260897000Y40650000D01*
X251753000Y40650000D02*
X249975000Y40650000D01*
X249975000Y40650000D02*
X249975000Y42428000D01*
X249975000Y51572000D02*
X249975000Y53350000D01*
X135675000Y34300000D02*
X137453000Y34300000D01*
X146597000Y34300000D02*
X148375000Y34300000D01*
X148375000Y34300000D02*
X148375000Y32522000D01*
X148375000Y23378000D02*
X148375000Y21600000D01*
X148375000Y21600000D02*
X146597000Y21600000D01*
X137453000Y21600000D02*
X135675000Y21600000D01*
X135675000Y21600000D02*
X135675000Y23378000D01*
X135675000Y32522000D02*
X135675000Y34300000D01*
X154725000Y34300000D02*
X156503000Y34300000D01*
X165647000Y34300000D02*
X167425000Y34300000D01*
X167425000Y34300000D02*
X167425000Y32522000D01*
X167425000Y23378000D02*
X167425000Y21600000D01*
X167425000Y21600000D02*
X165647000Y21600000D01*
X156503000Y21600000D02*
X154725000Y21600000D01*
X154725000Y21600000D02*
X154725000Y23378000D01*
X154725000Y32522000D02*
X154725000Y34300000D01*
X173775000Y34300000D02*
X175553000Y34300000D01*
X184697000Y34300000D02*
X186475000Y34300000D01*
X186475000Y34300000D02*
X186475000Y32522000D01*
X186475000Y23378000D02*
X186475000Y21600000D01*
X186475000Y21600000D02*
X184697000Y21600000D01*
X175553000Y21600000D02*
X173775000Y21600000D01*
X173775000Y21600000D02*
X173775000Y23378000D01*
X173775000Y32522000D02*
X173775000Y34300000D01*
X192825000Y34300000D02*
X194603000Y34300000D01*
X203747000Y34300000D02*
X205525000Y34300000D01*
X205525000Y34300000D02*
X205525000Y32522000D01*
X205525000Y23378000D02*
X205525000Y21600000D01*
X205525000Y21600000D02*
X203747000Y21600000D01*
X194603000Y21600000D02*
X192825000Y21600000D01*
X192825000Y21600000D02*
X192825000Y23378000D01*
X192825000Y32522000D02*
X192825000Y34300000D01*
X211875000Y34300000D02*
X213653000Y34300000D01*
X222797000Y34300000D02*
X224575000Y34300000D01*
X224575000Y34300000D02*
X224575000Y32522000D01*
X224575000Y23378000D02*
X224575000Y21600000D01*
X224575000Y21600000D02*
X222797000Y21600000D01*
X213653000Y21600000D02*
X211875000Y21600000D01*
X211875000Y21600000D02*
X211875000Y23378000D01*
X211875000Y32522000D02*
X211875000Y34300000D01*
X230925000Y34300000D02*
X232703000Y34300000D01*
X241847000Y34300000D02*
X243625000Y34300000D01*
X243625000Y34300000D02*
X243625000Y32522000D01*
X243625000Y23378000D02*
X243625000Y21600000D01*
X243625000Y21600000D02*
X241847000Y21600000D01*
X232703000Y21600000D02*
X230925000Y21600000D01*
X230925000Y21600000D02*
X230925000Y23378000D01*
X230925000Y32522000D02*
X230925000Y34300000D01*
X173775000Y15250000D02*
X175553000Y15250000D01*
X184697000Y15250000D02*
X186475000Y15250000D01*
X186475000Y15250000D02*
X186475000Y13472000D01*
X186475000Y4328000D02*
X186475000Y2550000D01*
X186475000Y2550000D02*
X184697000Y2550000D01*
X175553000Y2550000D02*
X173775000Y2550000D01*
X173775000Y2550000D02*
X173775000Y4328000D01*
X173775000Y13472000D02*
X173775000Y15250000D01*
X192825000Y15250000D02*
X194603000Y15250000D01*
X203747000Y15250000D02*
X205525000Y15250000D01*
X205525000Y15250000D02*
X205525000Y13472000D01*
X205525000Y4328000D02*
X205525000Y2550000D01*
X205525000Y2550000D02*
X203747000Y2550000D01*
X194603000Y2550000D02*
X192825000Y2550000D01*
X192825000Y2550000D02*
X192825000Y4328000D01*
X192825000Y13472000D02*
X192825000Y15250000D01*
X211875000Y15250000D02*
X213653000Y15250000D01*
X222797000Y15250000D02*
X224575000Y15250000D01*
X224575000Y15250000D02*
X224575000Y13472000D01*
X224575000Y4328000D02*
X224575000Y2550000D01*
X224575000Y2550000D02*
X222797000Y2550000D01*
X213653000Y2550000D02*
X211875000Y2550000D01*
X211875000Y2550000D02*
X211875000Y4328000D01*
X211875000Y13472000D02*
X211875000Y15250000D01*
X230925000Y15250000D02*
X232703000Y15250000D01*
X241847000Y15250000D02*
X243625000Y15250000D01*
X243625000Y15250000D02*
X243625000Y13472000D01*
X243625000Y4328000D02*
X243625000Y2550000D01*
X243625000Y2550000D02*
X241847000Y2550000D01*
X232703000Y2550000D02*
X230925000Y2550000D01*
X230925000Y2550000D02*
X230925000Y4328000D01*
X230925000Y13472000D02*
X230925000Y15250000D01*
X249975000Y15250000D02*
X251753000Y15250000D01*
X260897000Y15250000D02*
X262675000Y15250000D01*
X262675000Y15250000D02*
X262675000Y13472000D01*
X262675000Y4328000D02*
X262675000Y2550000D01*
X262675000Y2550000D02*
X260897000Y2550000D01*
X251753000Y2550000D02*
X249975000Y2550000D01*
X249975000Y2550000D02*
X249975000Y4328000D01*
X249975000Y13472000D02*
X249975000Y15250000D01*
X249975000Y91450000D02*
X251753000Y91450000D01*
X260897000Y91450000D02*
X262675000Y91450000D01*
X262675000Y91450000D02*
X262675000Y89672000D01*
X262675000Y80528000D02*
X262675000Y78750000D01*
X262675000Y78750000D02*
X260897000Y78750000D01*
X251753000Y78750000D02*
X249975000Y78750000D01*
X249975000Y78750000D02*
X249975000Y80528000D01*
X249975000Y89672000D02*
X249975000Y91450000D01*
X78525000Y15250000D02*
X80303000Y15250000D01*
X89447000Y15250000D02*
X91225000Y15250000D01*
X91225000Y15250000D02*
X91225000Y13472000D01*
X91225000Y4328000D02*
X91225000Y2550000D01*
X91225000Y2550000D02*
X89447000Y2550000D01*
X80303000Y2550000D02*
X78525000Y2550000D01*
X78525000Y2550000D02*
X78525000Y4328000D01*
X78525000Y13472000D02*
X78525000Y15250000D01*
X157900000Y2700000D02*
X156122000Y2700000D01*
X146978000Y2700000D02*
X145200000Y2700000D01*
X145200000Y2700000D02*
X145200000Y4478000D01*
X145200000Y13622000D02*
X145200000Y15400000D01*
X145200000Y15400000D02*
X146978000Y15400000D01*
X156122000Y15400000D02*
X157900000Y15400000D01*
X157900000Y15400000D02*
X157900000Y13622000D01*
X157900000Y4478000D02*
X157900000Y2700000D01*
X119800000Y2675000D02*
X118022000Y2675000D01*
X108878000Y2675000D02*
X107100000Y2675000D01*
X107100000Y2675000D02*
X107100000Y4453000D01*
X107100000Y13597000D02*
X107100000Y15375000D01*
X107100000Y15375000D02*
X108878000Y15375000D01*
X118022000Y15375000D02*
X119800000Y15375000D01*
X119800000Y15375000D02*
X119800000Y13597000D01*
X119800000Y4453000D02*
X119800000Y2675000D01*
D11*
X36690476Y42057619D02*
X36690476Y43057619D01*
X37023810Y42343333D01*
X37357143Y43057619D01*
X37357143Y42057619D01*
X37738095Y43057619D02*
X38357143Y43057619D01*
X38023809Y42676667D01*
X38166667Y42676667D01*
X38261905Y42629048D01*
X38309524Y42581429D01*
X38357143Y42486190D01*
X38357143Y42248095D01*
X38309524Y42152857D01*
X38261905Y42105238D01*
X38166667Y42057619D01*
X37880952Y42057619D01*
X37785714Y42105238D01*
X37738095Y42152857D01*
X74690476Y80047619D02*
X74690476Y81047619D01*
X75023810Y80333333D01*
X75357143Y81047619D01*
X75357143Y80047619D01*
X76261905Y80714286D02*
X76261905Y80047619D01*
X76023809Y81095238D02*
X75785714Y80380952D01*
X76404762Y80380952D01*
X188690476Y23047619D02*
X188690476Y24047619D01*
X189023810Y23333333D01*
X189357143Y24047619D01*
X189357143Y23047619D01*
X190357143Y23047619D02*
X189785714Y23047619D01*
X190071428Y23047619D02*
X190071428Y24047619D01*
X189976190Y23904762D01*
X189880952Y23809524D01*
X189785714Y23761905D01*
X226690476Y61047619D02*
X226690476Y62047619D01*
X227023810Y61333333D01*
X227357143Y62047619D01*
X227357143Y61047619D01*
X227785714Y61952381D02*
X227833333Y62000000D01*
X227928571Y62047619D01*
X228166667Y62047619D01*
X228261905Y62000000D01*
X228309524Y61952381D01*
X228357143Y61857143D01*
X228357143Y61761905D01*
X228309524Y61619048D01*
X227738095Y61047619D01*
X228357143Y61047619D01*
D13*
X101675286Y43310952D02*
X101893000Y43250476D01*
X102255857Y43250476D01*
X102401000Y43310952D01*
X102473571Y43371429D01*
X102546143Y43492381D01*
X102546143Y43613333D01*
X102473571Y43734286D01*
X102401000Y43794762D01*
X102255857Y43855238D01*
X101965571Y43915714D01*
X101820429Y43976190D01*
X101747857Y44036667D01*
X101675286Y44157619D01*
X101675286Y44278571D01*
X101747857Y44399524D01*
X101820429Y44460000D01*
X101965571Y44520476D01*
X102328429Y44520476D01*
X102546143Y44460000D01*
X103126715Y44399524D02*
X103199286Y44460000D01*
X103344429Y44520476D01*
X103707286Y44520476D01*
X103852429Y44460000D01*
X103925000Y44399524D01*
X103997572Y44278571D01*
X103997572Y44157619D01*
X103925000Y43976190D01*
X103054143Y43250476D01*
X103997572Y43250476D01*
X104650715Y43371429D02*
X104723287Y43310952D01*
X104650715Y43250476D01*
X104578144Y43310952D01*
X104650715Y43371429D01*
X104650715Y43250476D01*
X104650715Y44036667D02*
X104723287Y43976190D01*
X104650715Y43915714D01*
X104578144Y43976190D01*
X104650715Y44036667D01*
X104650715Y43915714D01*
X106102143Y44520476D02*
X105376429Y44520476D01*
X105303858Y43915714D01*
X105376429Y43976190D01*
X105521572Y44036667D01*
X105884429Y44036667D01*
X106029572Y43976190D01*
X106102143Y43915714D01*
X106174715Y43794762D01*
X106174715Y43492381D01*
X106102143Y43371429D01*
X106029572Y43310952D01*
X105884429Y43250476D01*
X105521572Y43250476D01*
X105376429Y43310952D01*
X105303858Y43371429D01*
X120725286Y43310952D02*
X120943000Y43250476D01*
X121305857Y43250476D01*
X121451000Y43310952D01*
X121523571Y43371429D01*
X121596143Y43492381D01*
X121596143Y43613333D01*
X121523571Y43734286D01*
X121451000Y43794762D01*
X121305857Y43855238D01*
X121015571Y43915714D01*
X120870429Y43976190D01*
X120797857Y44036667D01*
X120725286Y44157619D01*
X120725286Y44278571D01*
X120797857Y44399524D01*
X120870429Y44460000D01*
X121015571Y44520476D01*
X121378429Y44520476D01*
X121596143Y44460000D01*
X122176715Y44399524D02*
X122249286Y44460000D01*
X122394429Y44520476D01*
X122757286Y44520476D01*
X122902429Y44460000D01*
X122975000Y44399524D01*
X123047572Y44278571D01*
X123047572Y44157619D01*
X122975000Y43976190D01*
X122104143Y43250476D01*
X123047572Y43250476D01*
X123700715Y43371429D02*
X123773287Y43310952D01*
X123700715Y43250476D01*
X123628144Y43310952D01*
X123700715Y43371429D01*
X123700715Y43250476D01*
X123700715Y44036667D02*
X123773287Y43976190D01*
X123700715Y43915714D01*
X123628144Y43976190D01*
X123700715Y44036667D01*
X123700715Y43915714D01*
X125079572Y44520476D02*
X124789286Y44520476D01*
X124644143Y44460000D01*
X124571572Y44399524D01*
X124426429Y44218095D01*
X124353858Y43976190D01*
X124353858Y43492381D01*
X124426429Y43371429D01*
X124499001Y43310952D01*
X124644143Y43250476D01*
X124934429Y43250476D01*
X125079572Y43310952D01*
X125152143Y43371429D01*
X125224715Y43492381D01*
X125224715Y43794762D01*
X125152143Y43915714D01*
X125079572Y43976190D01*
X124934429Y44036667D01*
X124644143Y44036667D01*
X124499001Y43976190D01*
X124426429Y43915714D01*
X124353858Y43794762D01*
X82625286Y81410952D02*
X82843000Y81350476D01*
X83205857Y81350476D01*
X83351000Y81410952D01*
X83423571Y81471429D01*
X83496143Y81592381D01*
X83496143Y81713333D01*
X83423571Y81834286D01*
X83351000Y81894762D01*
X83205857Y81955238D01*
X82915571Y82015714D01*
X82770429Y82076190D01*
X82697857Y82136667D01*
X82625286Y82257619D01*
X82625286Y82378571D01*
X82697857Y82499524D01*
X82770429Y82560000D01*
X82915571Y82620476D01*
X83278429Y82620476D01*
X83496143Y82560000D01*
X84802429Y82197143D02*
X84802429Y81350476D01*
X84439572Y82680952D02*
X84076715Y81773810D01*
X85020143Y81773810D01*
X85600715Y81471429D02*
X85673287Y81410952D01*
X85600715Y81350476D01*
X85528144Y81410952D01*
X85600715Y81471429D01*
X85600715Y81350476D01*
X85600715Y82136667D02*
X85673287Y82076190D01*
X85600715Y82015714D01*
X85528144Y82076190D01*
X85600715Y82136667D01*
X85600715Y82015714D01*
X86979572Y82197143D02*
X86979572Y81350476D01*
X86616715Y82680952D02*
X86253858Y81773810D01*
X87197286Y81773810D01*
X253349571Y24260952D02*
X253567285Y24200476D01*
X253930142Y24200476D01*
X254075285Y24260952D01*
X254147856Y24321429D01*
X254220428Y24442381D01*
X254220428Y24563333D01*
X254147856Y24684286D01*
X254075285Y24744762D01*
X253930142Y24805238D01*
X253639856Y24865714D01*
X253494714Y24926190D01*
X253422142Y24986667D01*
X253349571Y25107619D01*
X253349571Y25228571D01*
X253422142Y25349524D01*
X253494714Y25410000D01*
X253639856Y25470476D01*
X254002714Y25470476D01*
X254220428Y25410000D01*
X255671857Y24200476D02*
X254801000Y24200476D01*
X255236428Y24200476D02*
X255236428Y25470476D01*
X255091285Y25289048D01*
X254946143Y25168095D01*
X254801000Y25107619D01*
X256325000Y24321429D02*
X256397572Y24260952D01*
X256325000Y24200476D01*
X256252429Y24260952D01*
X256325000Y24321429D01*
X256325000Y24200476D01*
X256325000Y24986667D02*
X256397572Y24926190D01*
X256325000Y24865714D01*
X256252429Y24926190D01*
X256325000Y24986667D01*
X256325000Y24865714D01*
X257849000Y24200476D02*
X256978143Y24200476D01*
X257413571Y24200476D02*
X257413571Y25470476D01*
X257268428Y25289048D01*
X257123286Y25168095D01*
X256978143Y25107619D01*
X258357000Y25470476D02*
X259300429Y25470476D01*
X258792429Y24986667D01*
X259010143Y24986667D01*
X259155286Y24926190D01*
X259227857Y24865714D01*
X259300429Y24744762D01*
X259300429Y24442381D01*
X259227857Y24321429D01*
X259155286Y24260952D01*
X259010143Y24200476D01*
X258574715Y24200476D01*
X258429572Y24260952D01*
X258357000Y24321429D01*
X120725286Y87760952D02*
X120943000Y87700476D01*
X121305857Y87700476D01*
X121451000Y87760952D01*
X121523571Y87821429D01*
X121596143Y87942381D01*
X121596143Y88063333D01*
X121523571Y88184286D01*
X121451000Y88244762D01*
X121305857Y88305238D01*
X121015571Y88365714D01*
X120870429Y88426190D01*
X120797857Y88486667D01*
X120725286Y88607619D01*
X120725286Y88728571D01*
X120797857Y88849524D01*
X120870429Y88910000D01*
X121015571Y88970476D01*
X121378429Y88970476D01*
X121596143Y88910000D01*
X122902429Y88547143D02*
X122902429Y87700476D01*
X122539572Y89030952D02*
X122176715Y88123810D01*
X123120143Y88123810D01*
X123700715Y87821429D02*
X123773287Y87760952D01*
X123700715Y87700476D01*
X123628144Y87760952D01*
X123700715Y87821429D01*
X123700715Y87700476D01*
X123700715Y88486667D02*
X123773287Y88426190D01*
X123700715Y88365714D01*
X123628144Y88426190D01*
X123700715Y88486667D01*
X123700715Y88365714D01*
X125079572Y88970476D02*
X124789286Y88970476D01*
X124644143Y88910000D01*
X124571572Y88849524D01*
X124426429Y88668095D01*
X124353858Y88426190D01*
X124353858Y87942381D01*
X124426429Y87821429D01*
X124499001Y87760952D01*
X124644143Y87700476D01*
X124934429Y87700476D01*
X125079572Y87760952D01*
X125152143Y87821429D01*
X125224715Y87942381D01*
X125224715Y88244762D01*
X125152143Y88365714D01*
X125079572Y88426190D01*
X124934429Y88486667D01*
X124644143Y88486667D01*
X124499001Y88426190D01*
X124426429Y88365714D01*
X124353858Y88244762D01*
X139775286Y87760952D02*
X139993000Y87700476D01*
X140355857Y87700476D01*
X140501000Y87760952D01*
X140573571Y87821429D01*
X140646143Y87942381D01*
X140646143Y88063333D01*
X140573571Y88184286D01*
X140501000Y88244762D01*
X140355857Y88305238D01*
X140065571Y88365714D01*
X139920429Y88426190D01*
X139847857Y88486667D01*
X139775286Y88607619D01*
X139775286Y88728571D01*
X139847857Y88849524D01*
X139920429Y88910000D01*
X140065571Y88970476D01*
X140428429Y88970476D01*
X140646143Y88910000D01*
X141952429Y88547143D02*
X141952429Y87700476D01*
X141589572Y89030952D02*
X141226715Y88123810D01*
X142170143Y88123810D01*
X142750715Y87821429D02*
X142823287Y87760952D01*
X142750715Y87700476D01*
X142678144Y87760952D01*
X142750715Y87821429D01*
X142750715Y87700476D01*
X142750715Y88486667D02*
X142823287Y88426190D01*
X142750715Y88365714D01*
X142678144Y88426190D01*
X142750715Y88486667D01*
X142750715Y88365714D01*
X143331286Y88970476D02*
X144347286Y88970476D01*
X143694143Y87700476D01*
X101675286Y81410952D02*
X101893000Y81350476D01*
X102255857Y81350476D01*
X102401000Y81410952D01*
X102473571Y81471429D01*
X102546143Y81592381D01*
X102546143Y81713333D01*
X102473571Y81834286D01*
X102401000Y81894762D01*
X102255857Y81955238D01*
X101965571Y82015714D01*
X101820429Y82076190D01*
X101747857Y82136667D01*
X101675286Y82257619D01*
X101675286Y82378571D01*
X101747857Y82499524D01*
X101820429Y82560000D01*
X101965571Y82620476D01*
X102328429Y82620476D01*
X102546143Y82560000D01*
X103852429Y82197143D02*
X103852429Y81350476D01*
X103489572Y82680952D02*
X103126715Y81773810D01*
X104070143Y81773810D01*
X104650715Y81471429D02*
X104723287Y81410952D01*
X104650715Y81350476D01*
X104578144Y81410952D01*
X104650715Y81471429D01*
X104650715Y81350476D01*
X104650715Y82136667D02*
X104723287Y82076190D01*
X104650715Y82015714D01*
X104578144Y82076190D01*
X104650715Y82136667D01*
X104650715Y82015714D01*
X106102143Y82620476D02*
X105376429Y82620476D01*
X105303858Y82015714D01*
X105376429Y82076190D01*
X105521572Y82136667D01*
X105884429Y82136667D01*
X106029572Y82076190D01*
X106102143Y82015714D01*
X106174715Y81894762D01*
X106174715Y81592381D01*
X106102143Y81471429D01*
X106029572Y81410952D01*
X105884429Y81350476D01*
X105521572Y81350476D01*
X105376429Y81410952D01*
X105303858Y81471429D01*
X63575286Y81410952D02*
X63793000Y81350476D01*
X64155857Y81350476D01*
X64301000Y81410952D01*
X64373571Y81471429D01*
X64446143Y81592381D01*
X64446143Y81713333D01*
X64373571Y81834286D01*
X64301000Y81894762D01*
X64155857Y81955238D01*
X63865571Y82015714D01*
X63720429Y82076190D01*
X63647857Y82136667D01*
X63575286Y82257619D01*
X63575286Y82378571D01*
X63647857Y82499524D01*
X63720429Y82560000D01*
X63865571Y82620476D01*
X64228429Y82620476D01*
X64446143Y82560000D01*
X65752429Y82197143D02*
X65752429Y81350476D01*
X65389572Y82680952D02*
X65026715Y81773810D01*
X65970143Y81773810D01*
X66550715Y81471429D02*
X66623287Y81410952D01*
X66550715Y81350476D01*
X66478144Y81410952D01*
X66550715Y81471429D01*
X66550715Y81350476D01*
X66550715Y82136667D02*
X66623287Y82076190D01*
X66550715Y82015714D01*
X66478144Y82076190D01*
X66550715Y82136667D01*
X66550715Y82015714D01*
X67131286Y82620476D02*
X68074715Y82620476D01*
X67566715Y82136667D01*
X67784429Y82136667D01*
X67929572Y82076190D01*
X68002143Y82015714D01*
X68074715Y81894762D01*
X68074715Y81592381D01*
X68002143Y81471429D01*
X67929572Y81410952D01*
X67784429Y81350476D01*
X67349001Y81350476D01*
X67203858Y81410952D01*
X67131286Y81471429D01*
X44525286Y81410952D02*
X44743000Y81350476D01*
X45105857Y81350476D01*
X45251000Y81410952D01*
X45323571Y81471429D01*
X45396143Y81592381D01*
X45396143Y81713333D01*
X45323571Y81834286D01*
X45251000Y81894762D01*
X45105857Y81955238D01*
X44815571Y82015714D01*
X44670429Y82076190D01*
X44597857Y82136667D01*
X44525286Y82257619D01*
X44525286Y82378571D01*
X44597857Y82499524D01*
X44670429Y82560000D01*
X44815571Y82620476D01*
X45178429Y82620476D01*
X45396143Y82560000D01*
X46702429Y82197143D02*
X46702429Y81350476D01*
X46339572Y82680952D02*
X45976715Y81773810D01*
X46920143Y81773810D01*
X47500715Y81471429D02*
X47573287Y81410952D01*
X47500715Y81350476D01*
X47428144Y81410952D01*
X47500715Y81471429D01*
X47500715Y81350476D01*
X47500715Y82136667D02*
X47573287Y82076190D01*
X47500715Y82015714D01*
X47428144Y82076190D01*
X47500715Y82136667D01*
X47500715Y82015714D01*
X48153858Y82499524D02*
X48226429Y82560000D01*
X48371572Y82620476D01*
X48734429Y82620476D01*
X48879572Y82560000D01*
X48952143Y82499524D01*
X49024715Y82378571D01*
X49024715Y82257619D01*
X48952143Y82076190D01*
X48081286Y81350476D01*
X49024715Y81350476D01*
X25475286Y81410952D02*
X25693000Y81350476D01*
X26055857Y81350476D01*
X26201000Y81410952D01*
X26273571Y81471429D01*
X26346143Y81592381D01*
X26346143Y81713333D01*
X26273571Y81834286D01*
X26201000Y81894762D01*
X26055857Y81955238D01*
X25765571Y82015714D01*
X25620429Y82076190D01*
X25547857Y82136667D01*
X25475286Y82257619D01*
X25475286Y82378571D01*
X25547857Y82499524D01*
X25620429Y82560000D01*
X25765571Y82620476D01*
X26128429Y82620476D01*
X26346143Y82560000D01*
X27652429Y82197143D02*
X27652429Y81350476D01*
X27289572Y82680952D02*
X26926715Y81773810D01*
X27870143Y81773810D01*
X28450715Y81471429D02*
X28523287Y81410952D01*
X28450715Y81350476D01*
X28378144Y81410952D01*
X28450715Y81471429D01*
X28450715Y81350476D01*
X28450715Y82136667D02*
X28523287Y82076190D01*
X28450715Y82015714D01*
X28378144Y82076190D01*
X28450715Y82136667D01*
X28450715Y82015714D01*
X29974715Y81350476D02*
X29103858Y81350476D01*
X29539286Y81350476D02*
X29539286Y82620476D01*
X29394143Y82439048D01*
X29249001Y82318095D01*
X29103858Y82257619D01*
X6425286Y81410952D02*
X6643000Y81350476D01*
X7005857Y81350476D01*
X7151000Y81410952D01*
X7223571Y81471429D01*
X7296143Y81592381D01*
X7296143Y81713333D01*
X7223571Y81834286D01*
X7151000Y81894762D01*
X7005857Y81955238D01*
X6715571Y82015714D01*
X6570429Y82076190D01*
X6497857Y82136667D01*
X6425286Y82257619D01*
X6425286Y82378571D01*
X6497857Y82499524D01*
X6570429Y82560000D01*
X6715571Y82620476D01*
X7078429Y82620476D01*
X7296143Y82560000D01*
X8602429Y82197143D02*
X8602429Y81350476D01*
X8239572Y82680952D02*
X7876715Y81773810D01*
X8820143Y81773810D01*
X9400715Y81471429D02*
X9473287Y81410952D01*
X9400715Y81350476D01*
X9328144Y81410952D01*
X9400715Y81471429D01*
X9400715Y81350476D01*
X9400715Y82136667D02*
X9473287Y82076190D01*
X9400715Y82015714D01*
X9328144Y82076190D01*
X9400715Y82136667D01*
X9400715Y82015714D01*
X10416715Y82620476D02*
X10561858Y82620476D01*
X10707001Y82560000D01*
X10779572Y82499524D01*
X10852143Y82378571D01*
X10924715Y82136667D01*
X10924715Y81834286D01*
X10852143Y81592381D01*
X10779572Y81471429D01*
X10707001Y81410952D01*
X10561858Y81350476D01*
X10416715Y81350476D01*
X10271572Y81410952D01*
X10199001Y81471429D01*
X10126429Y81592381D01*
X10053858Y81834286D01*
X10053858Y82136667D01*
X10126429Y82378571D01*
X10199001Y82499524D01*
X10271572Y82560000D01*
X10416715Y82620476D01*
X120725286Y62360952D02*
X120943000Y62300476D01*
X121305857Y62300476D01*
X121451000Y62360952D01*
X121523571Y62421429D01*
X121596143Y62542381D01*
X121596143Y62663333D01*
X121523571Y62784286D01*
X121451000Y62844762D01*
X121305857Y62905238D01*
X121015571Y62965714D01*
X120870429Y63026190D01*
X120797857Y63086667D01*
X120725286Y63207619D01*
X120725286Y63328571D01*
X120797857Y63449524D01*
X120870429Y63510000D01*
X121015571Y63570476D01*
X121378429Y63570476D01*
X121596143Y63510000D01*
X122104143Y63570476D02*
X123047572Y63570476D01*
X122539572Y63086667D01*
X122757286Y63086667D01*
X122902429Y63026190D01*
X122975000Y62965714D01*
X123047572Y62844762D01*
X123047572Y62542381D01*
X122975000Y62421429D01*
X122902429Y62360952D01*
X122757286Y62300476D01*
X122321858Y62300476D01*
X122176715Y62360952D01*
X122104143Y62421429D01*
X123700715Y62421429D02*
X123773287Y62360952D01*
X123700715Y62300476D01*
X123628144Y62360952D01*
X123700715Y62421429D01*
X123700715Y62300476D01*
X123700715Y63086667D02*
X123773287Y63026190D01*
X123700715Y62965714D01*
X123628144Y63026190D01*
X123700715Y63086667D01*
X123700715Y62965714D01*
X125079572Y63570476D02*
X124789286Y63570476D01*
X124644143Y63510000D01*
X124571572Y63449524D01*
X124426429Y63268095D01*
X124353858Y63026190D01*
X124353858Y62542381D01*
X124426429Y62421429D01*
X124499001Y62360952D01*
X124644143Y62300476D01*
X124934429Y62300476D01*
X125079572Y62360952D01*
X125152143Y62421429D01*
X125224715Y62542381D01*
X125224715Y62844762D01*
X125152143Y62965714D01*
X125079572Y63026190D01*
X124934429Y63086667D01*
X124644143Y63086667D01*
X124499001Y63026190D01*
X124426429Y62965714D01*
X124353858Y62844762D01*
X101675286Y62360952D02*
X101893000Y62300476D01*
X102255857Y62300476D01*
X102401000Y62360952D01*
X102473571Y62421429D01*
X102546143Y62542381D01*
X102546143Y62663333D01*
X102473571Y62784286D01*
X102401000Y62844762D01*
X102255857Y62905238D01*
X101965571Y62965714D01*
X101820429Y63026190D01*
X101747857Y63086667D01*
X101675286Y63207619D01*
X101675286Y63328571D01*
X101747857Y63449524D01*
X101820429Y63510000D01*
X101965571Y63570476D01*
X102328429Y63570476D01*
X102546143Y63510000D01*
X103054143Y63570476D02*
X103997572Y63570476D01*
X103489572Y63086667D01*
X103707286Y63086667D01*
X103852429Y63026190D01*
X103925000Y62965714D01*
X103997572Y62844762D01*
X103997572Y62542381D01*
X103925000Y62421429D01*
X103852429Y62360952D01*
X103707286Y62300476D01*
X103271858Y62300476D01*
X103126715Y62360952D01*
X103054143Y62421429D01*
X104650715Y62421429D02*
X104723287Y62360952D01*
X104650715Y62300476D01*
X104578144Y62360952D01*
X104650715Y62421429D01*
X104650715Y62300476D01*
X104650715Y63086667D02*
X104723287Y63026190D01*
X104650715Y62965714D01*
X104578144Y63026190D01*
X104650715Y63086667D01*
X104650715Y62965714D01*
X106102143Y63570476D02*
X105376429Y63570476D01*
X105303858Y62965714D01*
X105376429Y63026190D01*
X105521572Y63086667D01*
X105884429Y63086667D01*
X106029572Y63026190D01*
X106102143Y62965714D01*
X106174715Y62844762D01*
X106174715Y62542381D01*
X106102143Y62421429D01*
X106029572Y62360952D01*
X105884429Y62300476D01*
X105521572Y62300476D01*
X105376429Y62360952D01*
X105303858Y62421429D01*
X82625286Y62360952D02*
X82843000Y62300476D01*
X83205857Y62300476D01*
X83351000Y62360952D01*
X83423571Y62421429D01*
X83496143Y62542381D01*
X83496143Y62663333D01*
X83423571Y62784286D01*
X83351000Y62844762D01*
X83205857Y62905238D01*
X82915571Y62965714D01*
X82770429Y63026190D01*
X82697857Y63086667D01*
X82625286Y63207619D01*
X82625286Y63328571D01*
X82697857Y63449524D01*
X82770429Y63510000D01*
X82915571Y63570476D01*
X83278429Y63570476D01*
X83496143Y63510000D01*
X84004143Y63570476D02*
X84947572Y63570476D01*
X84439572Y63086667D01*
X84657286Y63086667D01*
X84802429Y63026190D01*
X84875000Y62965714D01*
X84947572Y62844762D01*
X84947572Y62542381D01*
X84875000Y62421429D01*
X84802429Y62360952D01*
X84657286Y62300476D01*
X84221858Y62300476D01*
X84076715Y62360952D01*
X84004143Y62421429D01*
X85600715Y62421429D02*
X85673287Y62360952D01*
X85600715Y62300476D01*
X85528144Y62360952D01*
X85600715Y62421429D01*
X85600715Y62300476D01*
X85600715Y63086667D02*
X85673287Y63026190D01*
X85600715Y62965714D01*
X85528144Y63026190D01*
X85600715Y63086667D01*
X85600715Y62965714D01*
X86979572Y63147143D02*
X86979572Y62300476D01*
X86616715Y63630952D02*
X86253858Y62723810D01*
X87197286Y62723810D01*
X63575286Y62360952D02*
X63793000Y62300476D01*
X64155857Y62300476D01*
X64301000Y62360952D01*
X64373571Y62421429D01*
X64446143Y62542381D01*
X64446143Y62663333D01*
X64373571Y62784286D01*
X64301000Y62844762D01*
X64155857Y62905238D01*
X63865571Y62965714D01*
X63720429Y63026190D01*
X63647857Y63086667D01*
X63575286Y63207619D01*
X63575286Y63328571D01*
X63647857Y63449524D01*
X63720429Y63510000D01*
X63865571Y63570476D01*
X64228429Y63570476D01*
X64446143Y63510000D01*
X64954143Y63570476D02*
X65897572Y63570476D01*
X65389572Y63086667D01*
X65607286Y63086667D01*
X65752429Y63026190D01*
X65825000Y62965714D01*
X65897572Y62844762D01*
X65897572Y62542381D01*
X65825000Y62421429D01*
X65752429Y62360952D01*
X65607286Y62300476D01*
X65171858Y62300476D01*
X65026715Y62360952D01*
X64954143Y62421429D01*
X66550715Y62421429D02*
X66623287Y62360952D01*
X66550715Y62300476D01*
X66478144Y62360952D01*
X66550715Y62421429D01*
X66550715Y62300476D01*
X66550715Y63086667D02*
X66623287Y63026190D01*
X66550715Y62965714D01*
X66478144Y63026190D01*
X66550715Y63086667D01*
X66550715Y62965714D01*
X67131286Y63570476D02*
X68074715Y63570476D01*
X67566715Y63086667D01*
X67784429Y63086667D01*
X67929572Y63026190D01*
X68002143Y62965714D01*
X68074715Y62844762D01*
X68074715Y62542381D01*
X68002143Y62421429D01*
X67929572Y62360952D01*
X67784429Y62300476D01*
X67349001Y62300476D01*
X67203858Y62360952D01*
X67131286Y62421429D01*
X44525286Y62360952D02*
X44743000Y62300476D01*
X45105857Y62300476D01*
X45251000Y62360952D01*
X45323571Y62421429D01*
X45396143Y62542381D01*
X45396143Y62663333D01*
X45323571Y62784286D01*
X45251000Y62844762D01*
X45105857Y62905238D01*
X44815571Y62965714D01*
X44670429Y63026190D01*
X44597857Y63086667D01*
X44525286Y63207619D01*
X44525286Y63328571D01*
X44597857Y63449524D01*
X44670429Y63510000D01*
X44815571Y63570476D01*
X45178429Y63570476D01*
X45396143Y63510000D01*
X45904143Y63570476D02*
X46847572Y63570476D01*
X46339572Y63086667D01*
X46557286Y63086667D01*
X46702429Y63026190D01*
X46775000Y62965714D01*
X46847572Y62844762D01*
X46847572Y62542381D01*
X46775000Y62421429D01*
X46702429Y62360952D01*
X46557286Y62300476D01*
X46121858Y62300476D01*
X45976715Y62360952D01*
X45904143Y62421429D01*
X47500715Y62421429D02*
X47573287Y62360952D01*
X47500715Y62300476D01*
X47428144Y62360952D01*
X47500715Y62421429D01*
X47500715Y62300476D01*
X47500715Y63086667D02*
X47573287Y63026190D01*
X47500715Y62965714D01*
X47428144Y63026190D01*
X47500715Y63086667D01*
X47500715Y62965714D01*
X48153858Y63449524D02*
X48226429Y63510000D01*
X48371572Y63570476D01*
X48734429Y63570476D01*
X48879572Y63510000D01*
X48952143Y63449524D01*
X49024715Y63328571D01*
X49024715Y63207619D01*
X48952143Y63026190D01*
X48081286Y62300476D01*
X49024715Y62300476D01*
X25475286Y62360952D02*
X25693000Y62300476D01*
X26055857Y62300476D01*
X26201000Y62360952D01*
X26273571Y62421429D01*
X26346143Y62542381D01*
X26346143Y62663333D01*
X26273571Y62784286D01*
X26201000Y62844762D01*
X26055857Y62905238D01*
X25765571Y62965714D01*
X25620429Y63026190D01*
X25547857Y63086667D01*
X25475286Y63207619D01*
X25475286Y63328571D01*
X25547857Y63449524D01*
X25620429Y63510000D01*
X25765571Y63570476D01*
X26128429Y63570476D01*
X26346143Y63510000D01*
X26854143Y63570476D02*
X27797572Y63570476D01*
X27289572Y63086667D01*
X27507286Y63086667D01*
X27652429Y63026190D01*
X27725000Y62965714D01*
X27797572Y62844762D01*
X27797572Y62542381D01*
X27725000Y62421429D01*
X27652429Y62360952D01*
X27507286Y62300476D01*
X27071858Y62300476D01*
X26926715Y62360952D01*
X26854143Y62421429D01*
X28450715Y62421429D02*
X28523287Y62360952D01*
X28450715Y62300476D01*
X28378144Y62360952D01*
X28450715Y62421429D01*
X28450715Y62300476D01*
X28450715Y63086667D02*
X28523287Y63026190D01*
X28450715Y62965714D01*
X28378144Y63026190D01*
X28450715Y63086667D01*
X28450715Y62965714D01*
X29974715Y62300476D02*
X29103858Y62300476D01*
X29539286Y62300476D02*
X29539286Y63570476D01*
X29394143Y63389048D01*
X29249001Y63268095D01*
X29103858Y63207619D01*
X6425286Y62360952D02*
X6643000Y62300476D01*
X7005857Y62300476D01*
X7151000Y62360952D01*
X7223571Y62421429D01*
X7296143Y62542381D01*
X7296143Y62663333D01*
X7223571Y62784286D01*
X7151000Y62844762D01*
X7005857Y62905238D01*
X6715571Y62965714D01*
X6570429Y63026190D01*
X6497857Y63086667D01*
X6425286Y63207619D01*
X6425286Y63328571D01*
X6497857Y63449524D01*
X6570429Y63510000D01*
X6715571Y63570476D01*
X7078429Y63570476D01*
X7296143Y63510000D01*
X7804143Y63570476D02*
X8747572Y63570476D01*
X8239572Y63086667D01*
X8457286Y63086667D01*
X8602429Y63026190D01*
X8675000Y62965714D01*
X8747572Y62844762D01*
X8747572Y62542381D01*
X8675000Y62421429D01*
X8602429Y62360952D01*
X8457286Y62300476D01*
X8021858Y62300476D01*
X7876715Y62360952D01*
X7804143Y62421429D01*
X9400715Y62421429D02*
X9473287Y62360952D01*
X9400715Y62300476D01*
X9328144Y62360952D01*
X9400715Y62421429D01*
X9400715Y62300476D01*
X9400715Y63086667D02*
X9473287Y63026190D01*
X9400715Y62965714D01*
X9328144Y63026190D01*
X9400715Y63086667D01*
X9400715Y62965714D01*
X10416715Y63570476D02*
X10561858Y63570476D01*
X10707001Y63510000D01*
X10779572Y63449524D01*
X10852143Y63328571D01*
X10924715Y63086667D01*
X10924715Y62784286D01*
X10852143Y62542381D01*
X10779572Y62421429D01*
X10707001Y62360952D01*
X10561858Y62300476D01*
X10416715Y62300476D01*
X10271572Y62360952D01*
X10199001Y62421429D01*
X10126429Y62542381D01*
X10053858Y62784286D01*
X10053858Y63086667D01*
X10126429Y63328571D01*
X10199001Y63449524D01*
X10271572Y63510000D01*
X10416715Y63570476D01*
X82625286Y43310952D02*
X82843000Y43250476D01*
X83205857Y43250476D01*
X83351000Y43310952D01*
X83423571Y43371429D01*
X83496143Y43492381D01*
X83496143Y43613333D01*
X83423571Y43734286D01*
X83351000Y43794762D01*
X83205857Y43855238D01*
X82915571Y43915714D01*
X82770429Y43976190D01*
X82697857Y44036667D01*
X82625286Y44157619D01*
X82625286Y44278571D01*
X82697857Y44399524D01*
X82770429Y44460000D01*
X82915571Y44520476D01*
X83278429Y44520476D01*
X83496143Y44460000D01*
X84076715Y44399524D02*
X84149286Y44460000D01*
X84294429Y44520476D01*
X84657286Y44520476D01*
X84802429Y44460000D01*
X84875000Y44399524D01*
X84947572Y44278571D01*
X84947572Y44157619D01*
X84875000Y43976190D01*
X84004143Y43250476D01*
X84947572Y43250476D01*
X85600715Y43371429D02*
X85673287Y43310952D01*
X85600715Y43250476D01*
X85528144Y43310952D01*
X85600715Y43371429D01*
X85600715Y43250476D01*
X85600715Y44036667D02*
X85673287Y43976190D01*
X85600715Y43915714D01*
X85528144Y43976190D01*
X85600715Y44036667D01*
X85600715Y43915714D01*
X86979572Y44097143D02*
X86979572Y43250476D01*
X86616715Y44580952D02*
X86253858Y43673810D01*
X87197286Y43673810D01*
X63575286Y43310952D02*
X63793000Y43250476D01*
X64155857Y43250476D01*
X64301000Y43310952D01*
X64373571Y43371429D01*
X64446143Y43492381D01*
X64446143Y43613333D01*
X64373571Y43734286D01*
X64301000Y43794762D01*
X64155857Y43855238D01*
X63865571Y43915714D01*
X63720429Y43976190D01*
X63647857Y44036667D01*
X63575286Y44157619D01*
X63575286Y44278571D01*
X63647857Y44399524D01*
X63720429Y44460000D01*
X63865571Y44520476D01*
X64228429Y44520476D01*
X64446143Y44460000D01*
X65026715Y44399524D02*
X65099286Y44460000D01*
X65244429Y44520476D01*
X65607286Y44520476D01*
X65752429Y44460000D01*
X65825000Y44399524D01*
X65897572Y44278571D01*
X65897572Y44157619D01*
X65825000Y43976190D01*
X64954143Y43250476D01*
X65897572Y43250476D01*
X66550715Y43371429D02*
X66623287Y43310952D01*
X66550715Y43250476D01*
X66478144Y43310952D01*
X66550715Y43371429D01*
X66550715Y43250476D01*
X66550715Y44036667D02*
X66623287Y43976190D01*
X66550715Y43915714D01*
X66478144Y43976190D01*
X66550715Y44036667D01*
X66550715Y43915714D01*
X67131286Y44520476D02*
X68074715Y44520476D01*
X67566715Y44036667D01*
X67784429Y44036667D01*
X67929572Y43976190D01*
X68002143Y43915714D01*
X68074715Y43794762D01*
X68074715Y43492381D01*
X68002143Y43371429D01*
X67929572Y43310952D01*
X67784429Y43250476D01*
X67349001Y43250476D01*
X67203858Y43310952D01*
X67131286Y43371429D01*
X44525286Y43310952D02*
X44743000Y43250476D01*
X45105857Y43250476D01*
X45251000Y43310952D01*
X45323571Y43371429D01*
X45396143Y43492381D01*
X45396143Y43613333D01*
X45323571Y43734286D01*
X45251000Y43794762D01*
X45105857Y43855238D01*
X44815571Y43915714D01*
X44670429Y43976190D01*
X44597857Y44036667D01*
X44525286Y44157619D01*
X44525286Y44278571D01*
X44597857Y44399524D01*
X44670429Y44460000D01*
X44815571Y44520476D01*
X45178429Y44520476D01*
X45396143Y44460000D01*
X45976715Y44399524D02*
X46049286Y44460000D01*
X46194429Y44520476D01*
X46557286Y44520476D01*
X46702429Y44460000D01*
X46775000Y44399524D01*
X46847572Y44278571D01*
X46847572Y44157619D01*
X46775000Y43976190D01*
X45904143Y43250476D01*
X46847572Y43250476D01*
X47500715Y43371429D02*
X47573287Y43310952D01*
X47500715Y43250476D01*
X47428144Y43310952D01*
X47500715Y43371429D01*
X47500715Y43250476D01*
X47500715Y44036667D02*
X47573287Y43976190D01*
X47500715Y43915714D01*
X47428144Y43976190D01*
X47500715Y44036667D01*
X47500715Y43915714D01*
X48153858Y44399524D02*
X48226429Y44460000D01*
X48371572Y44520476D01*
X48734429Y44520476D01*
X48879572Y44460000D01*
X48952143Y44399524D01*
X49024715Y44278571D01*
X49024715Y44157619D01*
X48952143Y43976190D01*
X48081286Y43250476D01*
X49024715Y43250476D01*
X25475286Y43310952D02*
X25693000Y43250476D01*
X26055857Y43250476D01*
X26201000Y43310952D01*
X26273571Y43371429D01*
X26346143Y43492381D01*
X26346143Y43613333D01*
X26273571Y43734286D01*
X26201000Y43794762D01*
X26055857Y43855238D01*
X25765571Y43915714D01*
X25620429Y43976190D01*
X25547857Y44036667D01*
X25475286Y44157619D01*
X25475286Y44278571D01*
X25547857Y44399524D01*
X25620429Y44460000D01*
X25765571Y44520476D01*
X26128429Y44520476D01*
X26346143Y44460000D01*
X26926715Y44399524D02*
X26999286Y44460000D01*
X27144429Y44520476D01*
X27507286Y44520476D01*
X27652429Y44460000D01*
X27725000Y44399524D01*
X27797572Y44278571D01*
X27797572Y44157619D01*
X27725000Y43976190D01*
X26854143Y43250476D01*
X27797572Y43250476D01*
X28450715Y43371429D02*
X28523287Y43310952D01*
X28450715Y43250476D01*
X28378144Y43310952D01*
X28450715Y43371429D01*
X28450715Y43250476D01*
X28450715Y44036667D02*
X28523287Y43976190D01*
X28450715Y43915714D01*
X28378144Y43976190D01*
X28450715Y44036667D01*
X28450715Y43915714D01*
X29974715Y43250476D02*
X29103858Y43250476D01*
X29539286Y43250476D02*
X29539286Y44520476D01*
X29394143Y44339048D01*
X29249001Y44218095D01*
X29103858Y44157619D01*
X6425286Y43310952D02*
X6643000Y43250476D01*
X7005857Y43250476D01*
X7151000Y43310952D01*
X7223571Y43371429D01*
X7296143Y43492381D01*
X7296143Y43613333D01*
X7223571Y43734286D01*
X7151000Y43794762D01*
X7005857Y43855238D01*
X6715571Y43915714D01*
X6570429Y43976190D01*
X6497857Y44036667D01*
X6425286Y44157619D01*
X6425286Y44278571D01*
X6497857Y44399524D01*
X6570429Y44460000D01*
X6715571Y44520476D01*
X7078429Y44520476D01*
X7296143Y44460000D01*
X7876715Y44399524D02*
X7949286Y44460000D01*
X8094429Y44520476D01*
X8457286Y44520476D01*
X8602429Y44460000D01*
X8675000Y44399524D01*
X8747572Y44278571D01*
X8747572Y44157619D01*
X8675000Y43976190D01*
X7804143Y43250476D01*
X8747572Y43250476D01*
X9400715Y43371429D02*
X9473287Y43310952D01*
X9400715Y43250476D01*
X9328144Y43310952D01*
X9400715Y43371429D01*
X9400715Y43250476D01*
X9400715Y44036667D02*
X9473287Y43976190D01*
X9400715Y43915714D01*
X9328144Y43976190D01*
X9400715Y44036667D01*
X9400715Y43915714D01*
X10416715Y44520476D02*
X10561858Y44520476D01*
X10707001Y44460000D01*
X10779572Y44399524D01*
X10852143Y44278571D01*
X10924715Y44036667D01*
X10924715Y43734286D01*
X10852143Y43492381D01*
X10779572Y43371429D01*
X10707001Y43310952D01*
X10561858Y43250476D01*
X10416715Y43250476D01*
X10271572Y43310952D01*
X10199001Y43371429D01*
X10126429Y43492381D01*
X10053858Y43734286D01*
X10053858Y44036667D01*
X10126429Y44278571D01*
X10199001Y44399524D01*
X10271572Y44460000D01*
X10416715Y44520476D01*
X120725286Y24260952D02*
X120943000Y24200476D01*
X121305857Y24200476D01*
X121451000Y24260952D01*
X121523571Y24321429D01*
X121596143Y24442381D01*
X121596143Y24563333D01*
X121523571Y24684286D01*
X121451000Y24744762D01*
X121305857Y24805238D01*
X121015571Y24865714D01*
X120870429Y24926190D01*
X120797857Y24986667D01*
X120725286Y25107619D01*
X120725286Y25228571D01*
X120797857Y25349524D01*
X120870429Y25410000D01*
X121015571Y25470476D01*
X121378429Y25470476D01*
X121596143Y25410000D01*
X123047572Y24200476D02*
X122176715Y24200476D01*
X122612143Y24200476D02*
X122612143Y25470476D01*
X122467000Y25289048D01*
X122321858Y25168095D01*
X122176715Y25107619D01*
X123700715Y24321429D02*
X123773287Y24260952D01*
X123700715Y24200476D01*
X123628144Y24260952D01*
X123700715Y24321429D01*
X123700715Y24200476D01*
X123700715Y24986667D02*
X123773287Y24926190D01*
X123700715Y24865714D01*
X123628144Y24926190D01*
X123700715Y24986667D01*
X123700715Y24865714D01*
X125079572Y25470476D02*
X124789286Y25470476D01*
X124644143Y25410000D01*
X124571572Y25349524D01*
X124426429Y25168095D01*
X124353858Y24926190D01*
X124353858Y24442381D01*
X124426429Y24321429D01*
X124499001Y24260952D01*
X124644143Y24200476D01*
X124934429Y24200476D01*
X125079572Y24260952D01*
X125152143Y24321429D01*
X125224715Y24442381D01*
X125224715Y24744762D01*
X125152143Y24865714D01*
X125079572Y24926190D01*
X124934429Y24986667D01*
X124644143Y24986667D01*
X124499001Y24926190D01*
X124426429Y24865714D01*
X124353858Y24744762D01*
X101675286Y24260952D02*
X101893000Y24200476D01*
X102255857Y24200476D01*
X102401000Y24260952D01*
X102473571Y24321429D01*
X102546143Y24442381D01*
X102546143Y24563333D01*
X102473571Y24684286D01*
X102401000Y24744762D01*
X102255857Y24805238D01*
X101965571Y24865714D01*
X101820429Y24926190D01*
X101747857Y24986667D01*
X101675286Y25107619D01*
X101675286Y25228571D01*
X101747857Y25349524D01*
X101820429Y25410000D01*
X101965571Y25470476D01*
X102328429Y25470476D01*
X102546143Y25410000D01*
X103997572Y24200476D02*
X103126715Y24200476D01*
X103562143Y24200476D02*
X103562143Y25470476D01*
X103417000Y25289048D01*
X103271858Y25168095D01*
X103126715Y25107619D01*
X104650715Y24321429D02*
X104723287Y24260952D01*
X104650715Y24200476D01*
X104578144Y24260952D01*
X104650715Y24321429D01*
X104650715Y24200476D01*
X104650715Y24986667D02*
X104723287Y24926190D01*
X104650715Y24865714D01*
X104578144Y24926190D01*
X104650715Y24986667D01*
X104650715Y24865714D01*
X106102143Y25470476D02*
X105376429Y25470476D01*
X105303858Y24865714D01*
X105376429Y24926190D01*
X105521572Y24986667D01*
X105884429Y24986667D01*
X106029572Y24926190D01*
X106102143Y24865714D01*
X106174715Y24744762D01*
X106174715Y24442381D01*
X106102143Y24321429D01*
X106029572Y24260952D01*
X105884429Y24200476D01*
X105521572Y24200476D01*
X105376429Y24260952D01*
X105303858Y24321429D01*
X82625286Y24260952D02*
X82843000Y24200476D01*
X83205857Y24200476D01*
X83351000Y24260952D01*
X83423571Y24321429D01*
X83496143Y24442381D01*
X83496143Y24563333D01*
X83423571Y24684286D01*
X83351000Y24744762D01*
X83205857Y24805238D01*
X82915571Y24865714D01*
X82770429Y24926190D01*
X82697857Y24986667D01*
X82625286Y25107619D01*
X82625286Y25228571D01*
X82697857Y25349524D01*
X82770429Y25410000D01*
X82915571Y25470476D01*
X83278429Y25470476D01*
X83496143Y25410000D01*
X84947572Y24200476D02*
X84076715Y24200476D01*
X84512143Y24200476D02*
X84512143Y25470476D01*
X84367000Y25289048D01*
X84221858Y25168095D01*
X84076715Y25107619D01*
X85600715Y24321429D02*
X85673287Y24260952D01*
X85600715Y24200476D01*
X85528144Y24260952D01*
X85600715Y24321429D01*
X85600715Y24200476D01*
X85600715Y24986667D02*
X85673287Y24926190D01*
X85600715Y24865714D01*
X85528144Y24926190D01*
X85600715Y24986667D01*
X85600715Y24865714D01*
X86979572Y25047143D02*
X86979572Y24200476D01*
X86616715Y25530952D02*
X86253858Y24623810D01*
X87197286Y24623810D01*
X63575286Y24260952D02*
X63793000Y24200476D01*
X64155857Y24200476D01*
X64301000Y24260952D01*
X64373571Y24321429D01*
X64446143Y24442381D01*
X64446143Y24563333D01*
X64373571Y24684286D01*
X64301000Y24744762D01*
X64155857Y24805238D01*
X63865571Y24865714D01*
X63720429Y24926190D01*
X63647857Y24986667D01*
X63575286Y25107619D01*
X63575286Y25228571D01*
X63647857Y25349524D01*
X63720429Y25410000D01*
X63865571Y25470476D01*
X64228429Y25470476D01*
X64446143Y25410000D01*
X65897572Y24200476D02*
X65026715Y24200476D01*
X65462143Y24200476D02*
X65462143Y25470476D01*
X65317000Y25289048D01*
X65171858Y25168095D01*
X65026715Y25107619D01*
X66550715Y24321429D02*
X66623287Y24260952D01*
X66550715Y24200476D01*
X66478144Y24260952D01*
X66550715Y24321429D01*
X66550715Y24200476D01*
X66550715Y24986667D02*
X66623287Y24926190D01*
X66550715Y24865714D01*
X66478144Y24926190D01*
X66550715Y24986667D01*
X66550715Y24865714D01*
X67131286Y25470476D02*
X68074715Y25470476D01*
X67566715Y24986667D01*
X67784429Y24986667D01*
X67929572Y24926190D01*
X68002143Y24865714D01*
X68074715Y24744762D01*
X68074715Y24442381D01*
X68002143Y24321429D01*
X67929572Y24260952D01*
X67784429Y24200476D01*
X67349001Y24200476D01*
X67203858Y24260952D01*
X67131286Y24321429D01*
X44525286Y24260952D02*
X44743000Y24200476D01*
X45105857Y24200476D01*
X45251000Y24260952D01*
X45323571Y24321429D01*
X45396143Y24442381D01*
X45396143Y24563333D01*
X45323571Y24684286D01*
X45251000Y24744762D01*
X45105857Y24805238D01*
X44815571Y24865714D01*
X44670429Y24926190D01*
X44597857Y24986667D01*
X44525286Y25107619D01*
X44525286Y25228571D01*
X44597857Y25349524D01*
X44670429Y25410000D01*
X44815571Y25470476D01*
X45178429Y25470476D01*
X45396143Y25410000D01*
X46847572Y24200476D02*
X45976715Y24200476D01*
X46412143Y24200476D02*
X46412143Y25470476D01*
X46267000Y25289048D01*
X46121858Y25168095D01*
X45976715Y25107619D01*
X47500715Y24321429D02*
X47573287Y24260952D01*
X47500715Y24200476D01*
X47428144Y24260952D01*
X47500715Y24321429D01*
X47500715Y24200476D01*
X47500715Y24986667D02*
X47573287Y24926190D01*
X47500715Y24865714D01*
X47428144Y24926190D01*
X47500715Y24986667D01*
X47500715Y24865714D01*
X48153858Y25349524D02*
X48226429Y25410000D01*
X48371572Y25470476D01*
X48734429Y25470476D01*
X48879572Y25410000D01*
X48952143Y25349524D01*
X49024715Y25228571D01*
X49024715Y25107619D01*
X48952143Y24926190D01*
X48081286Y24200476D01*
X49024715Y24200476D01*
X25475286Y24260952D02*
X25693000Y24200476D01*
X26055857Y24200476D01*
X26201000Y24260952D01*
X26273571Y24321429D01*
X26346143Y24442381D01*
X26346143Y24563333D01*
X26273571Y24684286D01*
X26201000Y24744762D01*
X26055857Y24805238D01*
X25765571Y24865714D01*
X25620429Y24926190D01*
X25547857Y24986667D01*
X25475286Y25107619D01*
X25475286Y25228571D01*
X25547857Y25349524D01*
X25620429Y25410000D01*
X25765571Y25470476D01*
X26128429Y25470476D01*
X26346143Y25410000D01*
X27797572Y24200476D02*
X26926715Y24200476D01*
X27362143Y24200476D02*
X27362143Y25470476D01*
X27217000Y25289048D01*
X27071858Y25168095D01*
X26926715Y25107619D01*
X28450715Y24321429D02*
X28523287Y24260952D01*
X28450715Y24200476D01*
X28378144Y24260952D01*
X28450715Y24321429D01*
X28450715Y24200476D01*
X28450715Y24986667D02*
X28523287Y24926190D01*
X28450715Y24865714D01*
X28378144Y24926190D01*
X28450715Y24986667D01*
X28450715Y24865714D01*
X29974715Y24200476D02*
X29103858Y24200476D01*
X29539286Y24200476D02*
X29539286Y25470476D01*
X29394143Y25289048D01*
X29249001Y25168095D01*
X29103858Y25107619D01*
X6425286Y24260952D02*
X6643000Y24200476D01*
X7005857Y24200476D01*
X7151000Y24260952D01*
X7223571Y24321429D01*
X7296143Y24442381D01*
X7296143Y24563333D01*
X7223571Y24684286D01*
X7151000Y24744762D01*
X7005857Y24805238D01*
X6715571Y24865714D01*
X6570429Y24926190D01*
X6497857Y24986667D01*
X6425286Y25107619D01*
X6425286Y25228571D01*
X6497857Y25349524D01*
X6570429Y25410000D01*
X6715571Y25470476D01*
X7078429Y25470476D01*
X7296143Y25410000D01*
X8747572Y24200476D02*
X7876715Y24200476D01*
X8312143Y24200476D02*
X8312143Y25470476D01*
X8167000Y25289048D01*
X8021858Y25168095D01*
X7876715Y25107619D01*
X9400715Y24321429D02*
X9473287Y24260952D01*
X9400715Y24200476D01*
X9328144Y24260952D01*
X9400715Y24321429D01*
X9400715Y24200476D01*
X9400715Y24986667D02*
X9473287Y24926190D01*
X9400715Y24865714D01*
X9328144Y24926190D01*
X9400715Y24986667D01*
X9400715Y24865714D01*
X10416715Y25470476D02*
X10561858Y25470476D01*
X10707001Y25410000D01*
X10779572Y25349524D01*
X10852143Y25228571D01*
X10924715Y24986667D01*
X10924715Y24684286D01*
X10852143Y24442381D01*
X10779572Y24321429D01*
X10707001Y24260952D01*
X10561858Y24200476D01*
X10416715Y24200476D01*
X10271572Y24260952D01*
X10199001Y24321429D01*
X10126429Y24442381D01*
X10053858Y24684286D01*
X10053858Y24986667D01*
X10126429Y25228571D01*
X10199001Y25349524D01*
X10271572Y25410000D01*
X10416715Y25470476D01*
X63575286Y5210952D02*
X63793000Y5150476D01*
X64155857Y5150476D01*
X64301000Y5210952D01*
X64373571Y5271429D01*
X64446143Y5392381D01*
X64446143Y5513333D01*
X64373571Y5634286D01*
X64301000Y5694762D01*
X64155857Y5755238D01*
X63865571Y5815714D01*
X63720429Y5876190D01*
X63647857Y5936667D01*
X63575286Y6057619D01*
X63575286Y6178571D01*
X63647857Y6299524D01*
X63720429Y6360000D01*
X63865571Y6420476D01*
X64228429Y6420476D01*
X64446143Y6360000D01*
X65389572Y6420476D02*
X65534715Y6420476D01*
X65679858Y6360000D01*
X65752429Y6299524D01*
X65825000Y6178571D01*
X65897572Y5936667D01*
X65897572Y5634286D01*
X65825000Y5392381D01*
X65752429Y5271429D01*
X65679858Y5210952D01*
X65534715Y5150476D01*
X65389572Y5150476D01*
X65244429Y5210952D01*
X65171858Y5271429D01*
X65099286Y5392381D01*
X65026715Y5634286D01*
X65026715Y5936667D01*
X65099286Y6178571D01*
X65171858Y6299524D01*
X65244429Y6360000D01*
X65389572Y6420476D01*
X66550715Y5271429D02*
X66623287Y5210952D01*
X66550715Y5150476D01*
X66478144Y5210952D01*
X66550715Y5271429D01*
X66550715Y5150476D01*
X66550715Y5936667D02*
X66623287Y5876190D01*
X66550715Y5815714D01*
X66478144Y5876190D01*
X66550715Y5936667D01*
X66550715Y5815714D01*
X67131286Y6420476D02*
X68074715Y6420476D01*
X67566715Y5936667D01*
X67784429Y5936667D01*
X67929572Y5876190D01*
X68002143Y5815714D01*
X68074715Y5694762D01*
X68074715Y5392381D01*
X68002143Y5271429D01*
X67929572Y5210952D01*
X67784429Y5150476D01*
X67349001Y5150476D01*
X67203858Y5210952D01*
X67131286Y5271429D01*
X44525286Y5210952D02*
X44743000Y5150476D01*
X45105857Y5150476D01*
X45251000Y5210952D01*
X45323571Y5271429D01*
X45396143Y5392381D01*
X45396143Y5513333D01*
X45323571Y5634286D01*
X45251000Y5694762D01*
X45105857Y5755238D01*
X44815571Y5815714D01*
X44670429Y5876190D01*
X44597857Y5936667D01*
X44525286Y6057619D01*
X44525286Y6178571D01*
X44597857Y6299524D01*
X44670429Y6360000D01*
X44815571Y6420476D01*
X45178429Y6420476D01*
X45396143Y6360000D01*
X46339572Y6420476D02*
X46484715Y6420476D01*
X46629858Y6360000D01*
X46702429Y6299524D01*
X46775000Y6178571D01*
X46847572Y5936667D01*
X46847572Y5634286D01*
X46775000Y5392381D01*
X46702429Y5271429D01*
X46629858Y5210952D01*
X46484715Y5150476D01*
X46339572Y5150476D01*
X46194429Y5210952D01*
X46121858Y5271429D01*
X46049286Y5392381D01*
X45976715Y5634286D01*
X45976715Y5936667D01*
X46049286Y6178571D01*
X46121858Y6299524D01*
X46194429Y6360000D01*
X46339572Y6420476D01*
X47500715Y5271429D02*
X47573287Y5210952D01*
X47500715Y5150476D01*
X47428144Y5210952D01*
X47500715Y5271429D01*
X47500715Y5150476D01*
X47500715Y5936667D02*
X47573287Y5876190D01*
X47500715Y5815714D01*
X47428144Y5876190D01*
X47500715Y5936667D01*
X47500715Y5815714D01*
X48153858Y6299524D02*
X48226429Y6360000D01*
X48371572Y6420476D01*
X48734429Y6420476D01*
X48879572Y6360000D01*
X48952143Y6299524D01*
X49024715Y6178571D01*
X49024715Y6057619D01*
X48952143Y5876190D01*
X48081286Y5150476D01*
X49024715Y5150476D01*
X25475286Y5210952D02*
X25693000Y5150476D01*
X26055857Y5150476D01*
X26201000Y5210952D01*
X26273571Y5271429D01*
X26346143Y5392381D01*
X26346143Y5513333D01*
X26273571Y5634286D01*
X26201000Y5694762D01*
X26055857Y5755238D01*
X25765571Y5815714D01*
X25620429Y5876190D01*
X25547857Y5936667D01*
X25475286Y6057619D01*
X25475286Y6178571D01*
X25547857Y6299524D01*
X25620429Y6360000D01*
X25765571Y6420476D01*
X26128429Y6420476D01*
X26346143Y6360000D01*
X27289572Y6420476D02*
X27434715Y6420476D01*
X27579858Y6360000D01*
X27652429Y6299524D01*
X27725000Y6178571D01*
X27797572Y5936667D01*
X27797572Y5634286D01*
X27725000Y5392381D01*
X27652429Y5271429D01*
X27579858Y5210952D01*
X27434715Y5150476D01*
X27289572Y5150476D01*
X27144429Y5210952D01*
X27071858Y5271429D01*
X26999286Y5392381D01*
X26926715Y5634286D01*
X26926715Y5936667D01*
X26999286Y6178571D01*
X27071858Y6299524D01*
X27144429Y6360000D01*
X27289572Y6420476D01*
X28450715Y5271429D02*
X28523287Y5210952D01*
X28450715Y5150476D01*
X28378144Y5210952D01*
X28450715Y5271429D01*
X28450715Y5150476D01*
X28450715Y5936667D02*
X28523287Y5876190D01*
X28450715Y5815714D01*
X28378144Y5876190D01*
X28450715Y5936667D01*
X28450715Y5815714D01*
X29974715Y5150476D02*
X29103858Y5150476D01*
X29539286Y5150476D02*
X29539286Y6420476D01*
X29394143Y6239048D01*
X29249001Y6118095D01*
X29103858Y6057619D01*
X6425286Y5210952D02*
X6643000Y5150476D01*
X7005857Y5150476D01*
X7151000Y5210952D01*
X7223571Y5271429D01*
X7296143Y5392381D01*
X7296143Y5513333D01*
X7223571Y5634286D01*
X7151000Y5694762D01*
X7005857Y5755238D01*
X6715571Y5815714D01*
X6570429Y5876190D01*
X6497857Y5936667D01*
X6425286Y6057619D01*
X6425286Y6178571D01*
X6497857Y6299524D01*
X6570429Y6360000D01*
X6715571Y6420476D01*
X7078429Y6420476D01*
X7296143Y6360000D01*
X8239572Y6420476D02*
X8384715Y6420476D01*
X8529858Y6360000D01*
X8602429Y6299524D01*
X8675000Y6178571D01*
X8747572Y5936667D01*
X8747572Y5634286D01*
X8675000Y5392381D01*
X8602429Y5271429D01*
X8529858Y5210952D01*
X8384715Y5150476D01*
X8239572Y5150476D01*
X8094429Y5210952D01*
X8021858Y5271429D01*
X7949286Y5392381D01*
X7876715Y5634286D01*
X7876715Y5936667D01*
X7949286Y6178571D01*
X8021858Y6299524D01*
X8094429Y6360000D01*
X8239572Y6420476D01*
X9400715Y5271429D02*
X9473287Y5210952D01*
X9400715Y5150476D01*
X9328144Y5210952D01*
X9400715Y5271429D01*
X9400715Y5150476D01*
X9400715Y5936667D02*
X9473287Y5876190D01*
X9400715Y5815714D01*
X9328144Y5876190D01*
X9400715Y5936667D01*
X9400715Y5815714D01*
X10416715Y6420476D02*
X10561858Y6420476D01*
X10707001Y6360000D01*
X10779572Y6299524D01*
X10852143Y6178571D01*
X10924715Y5936667D01*
X10924715Y5634286D01*
X10852143Y5392381D01*
X10779572Y5271429D01*
X10707001Y5210952D01*
X10561858Y5150476D01*
X10416715Y5150476D01*
X10271572Y5210952D01*
X10199001Y5271429D01*
X10126429Y5392381D01*
X10053858Y5634286D01*
X10053858Y5936667D01*
X10126429Y6178571D01*
X10199001Y6299524D01*
X10271572Y6360000D01*
X10416715Y6420476D01*
X158825286Y81410952D02*
X159043000Y81350476D01*
X159405857Y81350476D01*
X159551000Y81410952D01*
X159623571Y81471429D01*
X159696143Y81592381D01*
X159696143Y81713333D01*
X159623571Y81834286D01*
X159551000Y81894762D01*
X159405857Y81955238D01*
X159115571Y82015714D01*
X158970429Y82076190D01*
X158897857Y82136667D01*
X158825286Y82257619D01*
X158825286Y82378571D01*
X158897857Y82499524D01*
X158970429Y82560000D01*
X159115571Y82620476D01*
X159478429Y82620476D01*
X159696143Y82560000D01*
X161002429Y82197143D02*
X161002429Y81350476D01*
X160639572Y82680952D02*
X160276715Y81773810D01*
X161220143Y81773810D01*
X161800715Y81471429D02*
X161873287Y81410952D01*
X161800715Y81350476D01*
X161728144Y81410952D01*
X161800715Y81471429D01*
X161800715Y81350476D01*
X161800715Y82136667D02*
X161873287Y82076190D01*
X161800715Y82015714D01*
X161728144Y82076190D01*
X161800715Y82136667D01*
X161800715Y82015714D01*
X162744143Y82076190D02*
X162599001Y82136667D01*
X162526429Y82197143D01*
X162453858Y82318095D01*
X162453858Y82378571D01*
X162526429Y82499524D01*
X162599001Y82560000D01*
X162744143Y82620476D01*
X163034429Y82620476D01*
X163179572Y82560000D01*
X163252143Y82499524D01*
X163324715Y82378571D01*
X163324715Y82318095D01*
X163252143Y82197143D01*
X163179572Y82136667D01*
X163034429Y82076190D01*
X162744143Y82076190D01*
X162599001Y82015714D01*
X162526429Y81955238D01*
X162453858Y81834286D01*
X162453858Y81592381D01*
X162526429Y81471429D01*
X162599001Y81410952D01*
X162744143Y81350476D01*
X163034429Y81350476D01*
X163179572Y81410952D01*
X163252143Y81471429D01*
X163324715Y81592381D01*
X163324715Y81834286D01*
X163252143Y81955238D01*
X163179572Y82015714D01*
X163034429Y82076190D01*
X177875286Y81410952D02*
X178093000Y81350476D01*
X178455857Y81350476D01*
X178601000Y81410952D01*
X178673571Y81471429D01*
X178746143Y81592381D01*
X178746143Y81713333D01*
X178673571Y81834286D01*
X178601000Y81894762D01*
X178455857Y81955238D01*
X178165571Y82015714D01*
X178020429Y82076190D01*
X177947857Y82136667D01*
X177875286Y82257619D01*
X177875286Y82378571D01*
X177947857Y82499524D01*
X178020429Y82560000D01*
X178165571Y82620476D01*
X178528429Y82620476D01*
X178746143Y82560000D01*
X180052429Y82197143D02*
X180052429Y81350476D01*
X179689572Y82680952D02*
X179326715Y81773810D01*
X180270143Y81773810D01*
X180850715Y81471429D02*
X180923287Y81410952D01*
X180850715Y81350476D01*
X180778144Y81410952D01*
X180850715Y81471429D01*
X180850715Y81350476D01*
X180850715Y82136667D02*
X180923287Y82076190D01*
X180850715Y82015714D01*
X180778144Y82076190D01*
X180850715Y82136667D01*
X180850715Y82015714D01*
X181649001Y81350476D02*
X181939286Y81350476D01*
X182084429Y81410952D01*
X182157001Y81471429D01*
X182302143Y81652857D01*
X182374715Y81894762D01*
X182374715Y82378571D01*
X182302143Y82499524D01*
X182229572Y82560000D01*
X182084429Y82620476D01*
X181794143Y82620476D01*
X181649001Y82560000D01*
X181576429Y82499524D01*
X181503858Y82378571D01*
X181503858Y82076190D01*
X181576429Y81955238D01*
X181649001Y81894762D01*
X181794143Y81834286D01*
X182084429Y81834286D01*
X182229572Y81894762D01*
X182302143Y81955238D01*
X182374715Y82076190D01*
X196199571Y81410952D02*
X196417285Y81350476D01*
X196780142Y81350476D01*
X196925285Y81410952D01*
X196997856Y81471429D01*
X197070428Y81592381D01*
X197070428Y81713333D01*
X196997856Y81834286D01*
X196925285Y81894762D01*
X196780142Y81955238D01*
X196489856Y82015714D01*
X196344714Y82076190D01*
X196272142Y82136667D01*
X196199571Y82257619D01*
X196199571Y82378571D01*
X196272142Y82499524D01*
X196344714Y82560000D01*
X196489856Y82620476D01*
X196852714Y82620476D01*
X197070428Y82560000D01*
X198376714Y82197143D02*
X198376714Y81350476D01*
X198013857Y82680952D02*
X197651000Y81773810D01*
X198594428Y81773810D01*
X199175000Y81471429D02*
X199247572Y81410952D01*
X199175000Y81350476D01*
X199102429Y81410952D01*
X199175000Y81471429D01*
X199175000Y81350476D01*
X199175000Y82136667D02*
X199247572Y82076190D01*
X199175000Y82015714D01*
X199102429Y82076190D01*
X199175000Y82136667D01*
X199175000Y82015714D01*
X200699000Y81350476D02*
X199828143Y81350476D01*
X200263571Y81350476D02*
X200263571Y82620476D01*
X200118428Y82439048D01*
X199973286Y82318095D01*
X199828143Y82257619D01*
X201642429Y82620476D02*
X201787572Y82620476D01*
X201932715Y82560000D01*
X202005286Y82499524D01*
X202077857Y82378571D01*
X202150429Y82136667D01*
X202150429Y81834286D01*
X202077857Y81592381D01*
X202005286Y81471429D01*
X201932715Y81410952D01*
X201787572Y81350476D01*
X201642429Y81350476D01*
X201497286Y81410952D01*
X201424715Y81471429D01*
X201352143Y81592381D01*
X201279572Y81834286D01*
X201279572Y82136667D01*
X201352143Y82378571D01*
X201424715Y82499524D01*
X201497286Y82560000D01*
X201642429Y82620476D01*
X215249571Y81410952D02*
X215467285Y81350476D01*
X215830142Y81350476D01*
X215975285Y81410952D01*
X216047856Y81471429D01*
X216120428Y81592381D01*
X216120428Y81713333D01*
X216047856Y81834286D01*
X215975285Y81894762D01*
X215830142Y81955238D01*
X215539856Y82015714D01*
X215394714Y82076190D01*
X215322142Y82136667D01*
X215249571Y82257619D01*
X215249571Y82378571D01*
X215322142Y82499524D01*
X215394714Y82560000D01*
X215539856Y82620476D01*
X215902714Y82620476D01*
X216120428Y82560000D01*
X217426714Y82197143D02*
X217426714Y81350476D01*
X217063857Y82680952D02*
X216701000Y81773810D01*
X217644428Y81773810D01*
X218225000Y81471429D02*
X218297572Y81410952D01*
X218225000Y81350476D01*
X218152429Y81410952D01*
X218225000Y81471429D01*
X218225000Y81350476D01*
X218225000Y82136667D02*
X218297572Y82076190D01*
X218225000Y82015714D01*
X218152429Y82076190D01*
X218225000Y82136667D01*
X218225000Y82015714D01*
X219749000Y81350476D02*
X218878143Y81350476D01*
X219313571Y81350476D02*
X219313571Y82620476D01*
X219168428Y82439048D01*
X219023286Y82318095D01*
X218878143Y82257619D01*
X221200429Y81350476D02*
X220329572Y81350476D01*
X220765000Y81350476D02*
X220765000Y82620476D01*
X220619857Y82439048D01*
X220474715Y82318095D01*
X220329572Y82257619D01*
X234299571Y81410952D02*
X234517285Y81350476D01*
X234880142Y81350476D01*
X235025285Y81410952D01*
X235097856Y81471429D01*
X235170428Y81592381D01*
X235170428Y81713333D01*
X235097856Y81834286D01*
X235025285Y81894762D01*
X234880142Y81955238D01*
X234589856Y82015714D01*
X234444714Y82076190D01*
X234372142Y82136667D01*
X234299571Y82257619D01*
X234299571Y82378571D01*
X234372142Y82499524D01*
X234444714Y82560000D01*
X234589856Y82620476D01*
X234952714Y82620476D01*
X235170428Y82560000D01*
X236476714Y82197143D02*
X236476714Y81350476D01*
X236113857Y82680952D02*
X235751000Y81773810D01*
X236694428Y81773810D01*
X237275000Y81471429D02*
X237347572Y81410952D01*
X237275000Y81350476D01*
X237202429Y81410952D01*
X237275000Y81471429D01*
X237275000Y81350476D01*
X237275000Y82136667D02*
X237347572Y82076190D01*
X237275000Y82015714D01*
X237202429Y82076190D01*
X237275000Y82136667D01*
X237275000Y82015714D01*
X238799000Y81350476D02*
X237928143Y81350476D01*
X238363571Y81350476D02*
X238363571Y82620476D01*
X238218428Y82439048D01*
X238073286Y82318095D01*
X237928143Y82257619D01*
X239379572Y82499524D02*
X239452143Y82560000D01*
X239597286Y82620476D01*
X239960143Y82620476D01*
X240105286Y82560000D01*
X240177857Y82499524D01*
X240250429Y82378571D01*
X240250429Y82257619D01*
X240177857Y82076190D01*
X239307000Y81350476D01*
X240250429Y81350476D01*
X139775286Y62360952D02*
X139993000Y62300476D01*
X140355857Y62300476D01*
X140501000Y62360952D01*
X140573571Y62421429D01*
X140646143Y62542381D01*
X140646143Y62663333D01*
X140573571Y62784286D01*
X140501000Y62844762D01*
X140355857Y62905238D01*
X140065571Y62965714D01*
X139920429Y63026190D01*
X139847857Y63086667D01*
X139775286Y63207619D01*
X139775286Y63328571D01*
X139847857Y63449524D01*
X139920429Y63510000D01*
X140065571Y63570476D01*
X140428429Y63570476D01*
X140646143Y63510000D01*
X141154143Y63570476D02*
X142097572Y63570476D01*
X141589572Y63086667D01*
X141807286Y63086667D01*
X141952429Y63026190D01*
X142025000Y62965714D01*
X142097572Y62844762D01*
X142097572Y62542381D01*
X142025000Y62421429D01*
X141952429Y62360952D01*
X141807286Y62300476D01*
X141371858Y62300476D01*
X141226715Y62360952D01*
X141154143Y62421429D01*
X142750715Y62421429D02*
X142823287Y62360952D01*
X142750715Y62300476D01*
X142678144Y62360952D01*
X142750715Y62421429D01*
X142750715Y62300476D01*
X142750715Y63086667D02*
X142823287Y63026190D01*
X142750715Y62965714D01*
X142678144Y63026190D01*
X142750715Y63086667D01*
X142750715Y62965714D01*
X143331286Y63570476D02*
X144347286Y63570476D01*
X143694143Y62300476D01*
X158825286Y62360952D02*
X159043000Y62300476D01*
X159405857Y62300476D01*
X159551000Y62360952D01*
X159623571Y62421429D01*
X159696143Y62542381D01*
X159696143Y62663333D01*
X159623571Y62784286D01*
X159551000Y62844762D01*
X159405857Y62905238D01*
X159115571Y62965714D01*
X158970429Y63026190D01*
X158897857Y63086667D01*
X158825286Y63207619D01*
X158825286Y63328571D01*
X158897857Y63449524D01*
X158970429Y63510000D01*
X159115571Y63570476D01*
X159478429Y63570476D01*
X159696143Y63510000D01*
X160204143Y63570476D02*
X161147572Y63570476D01*
X160639572Y63086667D01*
X160857286Y63086667D01*
X161002429Y63026190D01*
X161075000Y62965714D01*
X161147572Y62844762D01*
X161147572Y62542381D01*
X161075000Y62421429D01*
X161002429Y62360952D01*
X160857286Y62300476D01*
X160421858Y62300476D01*
X160276715Y62360952D01*
X160204143Y62421429D01*
X161800715Y62421429D02*
X161873287Y62360952D01*
X161800715Y62300476D01*
X161728144Y62360952D01*
X161800715Y62421429D01*
X161800715Y62300476D01*
X161800715Y63086667D02*
X161873287Y63026190D01*
X161800715Y62965714D01*
X161728144Y63026190D01*
X161800715Y63086667D01*
X161800715Y62965714D01*
X162744143Y63026190D02*
X162599001Y63086667D01*
X162526429Y63147143D01*
X162453858Y63268095D01*
X162453858Y63328571D01*
X162526429Y63449524D01*
X162599001Y63510000D01*
X162744143Y63570476D01*
X163034429Y63570476D01*
X163179572Y63510000D01*
X163252143Y63449524D01*
X163324715Y63328571D01*
X163324715Y63268095D01*
X163252143Y63147143D01*
X163179572Y63086667D01*
X163034429Y63026190D01*
X162744143Y63026190D01*
X162599001Y62965714D01*
X162526429Y62905238D01*
X162453858Y62784286D01*
X162453858Y62542381D01*
X162526429Y62421429D01*
X162599001Y62360952D01*
X162744143Y62300476D01*
X163034429Y62300476D01*
X163179572Y62360952D01*
X163252143Y62421429D01*
X163324715Y62542381D01*
X163324715Y62784286D01*
X163252143Y62905238D01*
X163179572Y62965714D01*
X163034429Y63026190D01*
X177875286Y62360952D02*
X178093000Y62300476D01*
X178455857Y62300476D01*
X178601000Y62360952D01*
X178673571Y62421429D01*
X178746143Y62542381D01*
X178746143Y62663333D01*
X178673571Y62784286D01*
X178601000Y62844762D01*
X178455857Y62905238D01*
X178165571Y62965714D01*
X178020429Y63026190D01*
X177947857Y63086667D01*
X177875286Y63207619D01*
X177875286Y63328571D01*
X177947857Y63449524D01*
X178020429Y63510000D01*
X178165571Y63570476D01*
X178528429Y63570476D01*
X178746143Y63510000D01*
X179254143Y63570476D02*
X180197572Y63570476D01*
X179689572Y63086667D01*
X179907286Y63086667D01*
X180052429Y63026190D01*
X180125000Y62965714D01*
X180197572Y62844762D01*
X180197572Y62542381D01*
X180125000Y62421429D01*
X180052429Y62360952D01*
X179907286Y62300476D01*
X179471858Y62300476D01*
X179326715Y62360952D01*
X179254143Y62421429D01*
X180850715Y62421429D02*
X180923287Y62360952D01*
X180850715Y62300476D01*
X180778144Y62360952D01*
X180850715Y62421429D01*
X180850715Y62300476D01*
X180850715Y63086667D02*
X180923287Y63026190D01*
X180850715Y62965714D01*
X180778144Y63026190D01*
X180850715Y63086667D01*
X180850715Y62965714D01*
X181649001Y62300476D02*
X181939286Y62300476D01*
X182084429Y62360952D01*
X182157001Y62421429D01*
X182302143Y62602857D01*
X182374715Y62844762D01*
X182374715Y63328571D01*
X182302143Y63449524D01*
X182229572Y63510000D01*
X182084429Y63570476D01*
X181794143Y63570476D01*
X181649001Y63510000D01*
X181576429Y63449524D01*
X181503858Y63328571D01*
X181503858Y63026190D01*
X181576429Y62905238D01*
X181649001Y62844762D01*
X181794143Y62784286D01*
X182084429Y62784286D01*
X182229572Y62844762D01*
X182302143Y62905238D01*
X182374715Y63026190D01*
X196199571Y62360952D02*
X196417285Y62300476D01*
X196780142Y62300476D01*
X196925285Y62360952D01*
X196997856Y62421429D01*
X197070428Y62542381D01*
X197070428Y62663333D01*
X196997856Y62784286D01*
X196925285Y62844762D01*
X196780142Y62905238D01*
X196489856Y62965714D01*
X196344714Y63026190D01*
X196272142Y63086667D01*
X196199571Y63207619D01*
X196199571Y63328571D01*
X196272142Y63449524D01*
X196344714Y63510000D01*
X196489856Y63570476D01*
X196852714Y63570476D01*
X197070428Y63510000D01*
X197578428Y63570476D02*
X198521857Y63570476D01*
X198013857Y63086667D01*
X198231571Y63086667D01*
X198376714Y63026190D01*
X198449285Y62965714D01*
X198521857Y62844762D01*
X198521857Y62542381D01*
X198449285Y62421429D01*
X198376714Y62360952D01*
X198231571Y62300476D01*
X197796143Y62300476D01*
X197651000Y62360952D01*
X197578428Y62421429D01*
X199175000Y62421429D02*
X199247572Y62360952D01*
X199175000Y62300476D01*
X199102429Y62360952D01*
X199175000Y62421429D01*
X199175000Y62300476D01*
X199175000Y63086667D02*
X199247572Y63026190D01*
X199175000Y62965714D01*
X199102429Y63026190D01*
X199175000Y63086667D01*
X199175000Y62965714D01*
X200699000Y62300476D02*
X199828143Y62300476D01*
X200263571Y62300476D02*
X200263571Y63570476D01*
X200118428Y63389048D01*
X199973286Y63268095D01*
X199828143Y63207619D01*
X201642429Y63570476D02*
X201787572Y63570476D01*
X201932715Y63510000D01*
X202005286Y63449524D01*
X202077857Y63328571D01*
X202150429Y63086667D01*
X202150429Y62784286D01*
X202077857Y62542381D01*
X202005286Y62421429D01*
X201932715Y62360952D01*
X201787572Y62300476D01*
X201642429Y62300476D01*
X201497286Y62360952D01*
X201424715Y62421429D01*
X201352143Y62542381D01*
X201279572Y62784286D01*
X201279572Y63086667D01*
X201352143Y63328571D01*
X201424715Y63449524D01*
X201497286Y63510000D01*
X201642429Y63570476D01*
X215249571Y62360952D02*
X215467285Y62300476D01*
X215830142Y62300476D01*
X215975285Y62360952D01*
X216047856Y62421429D01*
X216120428Y62542381D01*
X216120428Y62663333D01*
X216047856Y62784286D01*
X215975285Y62844762D01*
X215830142Y62905238D01*
X215539856Y62965714D01*
X215394714Y63026190D01*
X215322142Y63086667D01*
X215249571Y63207619D01*
X215249571Y63328571D01*
X215322142Y63449524D01*
X215394714Y63510000D01*
X215539856Y63570476D01*
X215902714Y63570476D01*
X216120428Y63510000D01*
X216628428Y63570476D02*
X217571857Y63570476D01*
X217063857Y63086667D01*
X217281571Y63086667D01*
X217426714Y63026190D01*
X217499285Y62965714D01*
X217571857Y62844762D01*
X217571857Y62542381D01*
X217499285Y62421429D01*
X217426714Y62360952D01*
X217281571Y62300476D01*
X216846143Y62300476D01*
X216701000Y62360952D01*
X216628428Y62421429D01*
X218225000Y62421429D02*
X218297572Y62360952D01*
X218225000Y62300476D01*
X218152429Y62360952D01*
X218225000Y62421429D01*
X218225000Y62300476D01*
X218225000Y63086667D02*
X218297572Y63026190D01*
X218225000Y62965714D01*
X218152429Y63026190D01*
X218225000Y63086667D01*
X218225000Y62965714D01*
X219749000Y62300476D02*
X218878143Y62300476D01*
X219313571Y62300476D02*
X219313571Y63570476D01*
X219168428Y63389048D01*
X219023286Y63268095D01*
X218878143Y63207619D01*
X221200429Y62300476D02*
X220329572Y62300476D01*
X220765000Y62300476D02*
X220765000Y63570476D01*
X220619857Y63389048D01*
X220474715Y63268095D01*
X220329572Y63207619D01*
X234299571Y62360952D02*
X234517285Y62300476D01*
X234880142Y62300476D01*
X235025285Y62360952D01*
X235097856Y62421429D01*
X235170428Y62542381D01*
X235170428Y62663333D01*
X235097856Y62784286D01*
X235025285Y62844762D01*
X234880142Y62905238D01*
X234589856Y62965714D01*
X234444714Y63026190D01*
X234372142Y63086667D01*
X234299571Y63207619D01*
X234299571Y63328571D01*
X234372142Y63449524D01*
X234444714Y63510000D01*
X234589856Y63570476D01*
X234952714Y63570476D01*
X235170428Y63510000D01*
X235678428Y63570476D02*
X236621857Y63570476D01*
X236113857Y63086667D01*
X236331571Y63086667D01*
X236476714Y63026190D01*
X236549285Y62965714D01*
X236621857Y62844762D01*
X236621857Y62542381D01*
X236549285Y62421429D01*
X236476714Y62360952D01*
X236331571Y62300476D01*
X235896143Y62300476D01*
X235751000Y62360952D01*
X235678428Y62421429D01*
X237275000Y62421429D02*
X237347572Y62360952D01*
X237275000Y62300476D01*
X237202429Y62360952D01*
X237275000Y62421429D01*
X237275000Y62300476D01*
X237275000Y63086667D02*
X237347572Y63026190D01*
X237275000Y62965714D01*
X237202429Y63026190D01*
X237275000Y63086667D01*
X237275000Y62965714D01*
X238799000Y62300476D02*
X237928143Y62300476D01*
X238363571Y62300476D02*
X238363571Y63570476D01*
X238218428Y63389048D01*
X238073286Y63268095D01*
X237928143Y63207619D01*
X239379572Y63449524D02*
X239452143Y63510000D01*
X239597286Y63570476D01*
X239960143Y63570476D01*
X240105286Y63510000D01*
X240177857Y63449524D01*
X240250429Y63328571D01*
X240250429Y63207619D01*
X240177857Y63026190D01*
X239307000Y62300476D01*
X240250429Y62300476D01*
X253349571Y62360952D02*
X253567285Y62300476D01*
X253930142Y62300476D01*
X254075285Y62360952D01*
X254147856Y62421429D01*
X254220428Y62542381D01*
X254220428Y62663333D01*
X254147856Y62784286D01*
X254075285Y62844762D01*
X253930142Y62905238D01*
X253639856Y62965714D01*
X253494714Y63026190D01*
X253422142Y63086667D01*
X253349571Y63207619D01*
X253349571Y63328571D01*
X253422142Y63449524D01*
X253494714Y63510000D01*
X253639856Y63570476D01*
X254002714Y63570476D01*
X254220428Y63510000D01*
X254728428Y63570476D02*
X255671857Y63570476D01*
X255163857Y63086667D01*
X255381571Y63086667D01*
X255526714Y63026190D01*
X255599285Y62965714D01*
X255671857Y62844762D01*
X255671857Y62542381D01*
X255599285Y62421429D01*
X255526714Y62360952D01*
X255381571Y62300476D01*
X254946143Y62300476D01*
X254801000Y62360952D01*
X254728428Y62421429D01*
X256325000Y62421429D02*
X256397572Y62360952D01*
X256325000Y62300476D01*
X256252429Y62360952D01*
X256325000Y62421429D01*
X256325000Y62300476D01*
X256325000Y63086667D02*
X256397572Y63026190D01*
X256325000Y62965714D01*
X256252429Y63026190D01*
X256325000Y63086667D01*
X256325000Y62965714D01*
X257849000Y62300476D02*
X256978143Y62300476D01*
X257413571Y62300476D02*
X257413571Y63570476D01*
X257268428Y63389048D01*
X257123286Y63268095D01*
X256978143Y63207619D01*
X258357000Y63570476D02*
X259300429Y63570476D01*
X258792429Y63086667D01*
X259010143Y63086667D01*
X259155286Y63026190D01*
X259227857Y62965714D01*
X259300429Y62844762D01*
X259300429Y62542381D01*
X259227857Y62421429D01*
X259155286Y62360952D01*
X259010143Y62300476D01*
X258574715Y62300476D01*
X258429572Y62360952D01*
X258357000Y62421429D01*
X139775286Y43310952D02*
X139993000Y43250476D01*
X140355857Y43250476D01*
X140501000Y43310952D01*
X140573571Y43371429D01*
X140646143Y43492381D01*
X140646143Y43613333D01*
X140573571Y43734286D01*
X140501000Y43794762D01*
X140355857Y43855238D01*
X140065571Y43915714D01*
X139920429Y43976190D01*
X139847857Y44036667D01*
X139775286Y44157619D01*
X139775286Y44278571D01*
X139847857Y44399524D01*
X139920429Y44460000D01*
X140065571Y44520476D01*
X140428429Y44520476D01*
X140646143Y44460000D01*
X141226715Y44399524D02*
X141299286Y44460000D01*
X141444429Y44520476D01*
X141807286Y44520476D01*
X141952429Y44460000D01*
X142025000Y44399524D01*
X142097572Y44278571D01*
X142097572Y44157619D01*
X142025000Y43976190D01*
X141154143Y43250476D01*
X142097572Y43250476D01*
X142750715Y43371429D02*
X142823287Y43310952D01*
X142750715Y43250476D01*
X142678144Y43310952D01*
X142750715Y43371429D01*
X142750715Y43250476D01*
X142750715Y44036667D02*
X142823287Y43976190D01*
X142750715Y43915714D01*
X142678144Y43976190D01*
X142750715Y44036667D01*
X142750715Y43915714D01*
X143331286Y44520476D02*
X144347286Y44520476D01*
X143694143Y43250476D01*
X158825286Y43310952D02*
X159043000Y43250476D01*
X159405857Y43250476D01*
X159551000Y43310952D01*
X159623571Y43371429D01*
X159696143Y43492381D01*
X159696143Y43613333D01*
X159623571Y43734286D01*
X159551000Y43794762D01*
X159405857Y43855238D01*
X159115571Y43915714D01*
X158970429Y43976190D01*
X158897857Y44036667D01*
X158825286Y44157619D01*
X158825286Y44278571D01*
X158897857Y44399524D01*
X158970429Y44460000D01*
X159115571Y44520476D01*
X159478429Y44520476D01*
X159696143Y44460000D01*
X160276715Y44399524D02*
X160349286Y44460000D01*
X160494429Y44520476D01*
X160857286Y44520476D01*
X161002429Y44460000D01*
X161075000Y44399524D01*
X161147572Y44278571D01*
X161147572Y44157619D01*
X161075000Y43976190D01*
X160204143Y43250476D01*
X161147572Y43250476D01*
X161800715Y43371429D02*
X161873287Y43310952D01*
X161800715Y43250476D01*
X161728144Y43310952D01*
X161800715Y43371429D01*
X161800715Y43250476D01*
X161800715Y44036667D02*
X161873287Y43976190D01*
X161800715Y43915714D01*
X161728144Y43976190D01*
X161800715Y44036667D01*
X161800715Y43915714D01*
X162744143Y43976190D02*
X162599001Y44036667D01*
X162526429Y44097143D01*
X162453858Y44218095D01*
X162453858Y44278571D01*
X162526429Y44399524D01*
X162599001Y44460000D01*
X162744143Y44520476D01*
X163034429Y44520476D01*
X163179572Y44460000D01*
X163252143Y44399524D01*
X163324715Y44278571D01*
X163324715Y44218095D01*
X163252143Y44097143D01*
X163179572Y44036667D01*
X163034429Y43976190D01*
X162744143Y43976190D01*
X162599001Y43915714D01*
X162526429Y43855238D01*
X162453858Y43734286D01*
X162453858Y43492381D01*
X162526429Y43371429D01*
X162599001Y43310952D01*
X162744143Y43250476D01*
X163034429Y43250476D01*
X163179572Y43310952D01*
X163252143Y43371429D01*
X163324715Y43492381D01*
X163324715Y43734286D01*
X163252143Y43855238D01*
X163179572Y43915714D01*
X163034429Y43976190D01*
X177875286Y43310952D02*
X178093000Y43250476D01*
X178455857Y43250476D01*
X178601000Y43310952D01*
X178673571Y43371429D01*
X178746143Y43492381D01*
X178746143Y43613333D01*
X178673571Y43734286D01*
X178601000Y43794762D01*
X178455857Y43855238D01*
X178165571Y43915714D01*
X178020429Y43976190D01*
X177947857Y44036667D01*
X177875286Y44157619D01*
X177875286Y44278571D01*
X177947857Y44399524D01*
X178020429Y44460000D01*
X178165571Y44520476D01*
X178528429Y44520476D01*
X178746143Y44460000D01*
X179326715Y44399524D02*
X179399286Y44460000D01*
X179544429Y44520476D01*
X179907286Y44520476D01*
X180052429Y44460000D01*
X180125000Y44399524D01*
X180197572Y44278571D01*
X180197572Y44157619D01*
X180125000Y43976190D01*
X179254143Y43250476D01*
X180197572Y43250476D01*
X180850715Y43371429D02*
X180923287Y43310952D01*
X180850715Y43250476D01*
X180778144Y43310952D01*
X180850715Y43371429D01*
X180850715Y43250476D01*
X180850715Y44036667D02*
X180923287Y43976190D01*
X180850715Y43915714D01*
X180778144Y43976190D01*
X180850715Y44036667D01*
X180850715Y43915714D01*
X181649001Y43250476D02*
X181939286Y43250476D01*
X182084429Y43310952D01*
X182157001Y43371429D01*
X182302143Y43552857D01*
X182374715Y43794762D01*
X182374715Y44278571D01*
X182302143Y44399524D01*
X182229572Y44460000D01*
X182084429Y44520476D01*
X181794143Y44520476D01*
X181649001Y44460000D01*
X181576429Y44399524D01*
X181503858Y44278571D01*
X181503858Y43976190D01*
X181576429Y43855238D01*
X181649001Y43794762D01*
X181794143Y43734286D01*
X182084429Y43734286D01*
X182229572Y43794762D01*
X182302143Y43855238D01*
X182374715Y43976190D01*
X196199571Y43310952D02*
X196417285Y43250476D01*
X196780142Y43250476D01*
X196925285Y43310952D01*
X196997856Y43371429D01*
X197070428Y43492381D01*
X197070428Y43613333D01*
X196997856Y43734286D01*
X196925285Y43794762D01*
X196780142Y43855238D01*
X196489856Y43915714D01*
X196344714Y43976190D01*
X196272142Y44036667D01*
X196199571Y44157619D01*
X196199571Y44278571D01*
X196272142Y44399524D01*
X196344714Y44460000D01*
X196489856Y44520476D01*
X196852714Y44520476D01*
X197070428Y44460000D01*
X197651000Y44399524D02*
X197723571Y44460000D01*
X197868714Y44520476D01*
X198231571Y44520476D01*
X198376714Y44460000D01*
X198449285Y44399524D01*
X198521857Y44278571D01*
X198521857Y44157619D01*
X198449285Y43976190D01*
X197578428Y43250476D01*
X198521857Y43250476D01*
X199175000Y43371429D02*
X199247572Y43310952D01*
X199175000Y43250476D01*
X199102429Y43310952D01*
X199175000Y43371429D01*
X199175000Y43250476D01*
X199175000Y44036667D02*
X199247572Y43976190D01*
X199175000Y43915714D01*
X199102429Y43976190D01*
X199175000Y44036667D01*
X199175000Y43915714D01*
X200699000Y43250476D02*
X199828143Y43250476D01*
X200263571Y43250476D02*
X200263571Y44520476D01*
X200118428Y44339048D01*
X199973286Y44218095D01*
X199828143Y44157619D01*
X201642429Y44520476D02*
X201787572Y44520476D01*
X201932715Y44460000D01*
X202005286Y44399524D01*
X202077857Y44278571D01*
X202150429Y44036667D01*
X202150429Y43734286D01*
X202077857Y43492381D01*
X202005286Y43371429D01*
X201932715Y43310952D01*
X201787572Y43250476D01*
X201642429Y43250476D01*
X201497286Y43310952D01*
X201424715Y43371429D01*
X201352143Y43492381D01*
X201279572Y43734286D01*
X201279572Y44036667D01*
X201352143Y44278571D01*
X201424715Y44399524D01*
X201497286Y44460000D01*
X201642429Y44520476D01*
X215249571Y43310952D02*
X215467285Y43250476D01*
X215830142Y43250476D01*
X215975285Y43310952D01*
X216047856Y43371429D01*
X216120428Y43492381D01*
X216120428Y43613333D01*
X216047856Y43734286D01*
X215975285Y43794762D01*
X215830142Y43855238D01*
X215539856Y43915714D01*
X215394714Y43976190D01*
X215322142Y44036667D01*
X215249571Y44157619D01*
X215249571Y44278571D01*
X215322142Y44399524D01*
X215394714Y44460000D01*
X215539856Y44520476D01*
X215902714Y44520476D01*
X216120428Y44460000D01*
X216701000Y44399524D02*
X216773571Y44460000D01*
X216918714Y44520476D01*
X217281571Y44520476D01*
X217426714Y44460000D01*
X217499285Y44399524D01*
X217571857Y44278571D01*
X217571857Y44157619D01*
X217499285Y43976190D01*
X216628428Y43250476D01*
X217571857Y43250476D01*
X218225000Y43371429D02*
X218297572Y43310952D01*
X218225000Y43250476D01*
X218152429Y43310952D01*
X218225000Y43371429D01*
X218225000Y43250476D01*
X218225000Y44036667D02*
X218297572Y43976190D01*
X218225000Y43915714D01*
X218152429Y43976190D01*
X218225000Y44036667D01*
X218225000Y43915714D01*
X219749000Y43250476D02*
X218878143Y43250476D01*
X219313571Y43250476D02*
X219313571Y44520476D01*
X219168428Y44339048D01*
X219023286Y44218095D01*
X218878143Y44157619D01*
X221200429Y43250476D02*
X220329572Y43250476D01*
X220765000Y43250476D02*
X220765000Y44520476D01*
X220619857Y44339048D01*
X220474715Y44218095D01*
X220329572Y44157619D01*
X234299571Y43310952D02*
X234517285Y43250476D01*
X234880142Y43250476D01*
X235025285Y43310952D01*
X235097856Y43371429D01*
X235170428Y43492381D01*
X235170428Y43613333D01*
X235097856Y43734286D01*
X235025285Y43794762D01*
X234880142Y43855238D01*
X234589856Y43915714D01*
X234444714Y43976190D01*
X234372142Y44036667D01*
X234299571Y44157619D01*
X234299571Y44278571D01*
X234372142Y44399524D01*
X234444714Y44460000D01*
X234589856Y44520476D01*
X234952714Y44520476D01*
X235170428Y44460000D01*
X235751000Y44399524D02*
X235823571Y44460000D01*
X235968714Y44520476D01*
X236331571Y44520476D01*
X236476714Y44460000D01*
X236549285Y44399524D01*
X236621857Y44278571D01*
X236621857Y44157619D01*
X236549285Y43976190D01*
X235678428Y43250476D01*
X236621857Y43250476D01*
X237275000Y43371429D02*
X237347572Y43310952D01*
X237275000Y43250476D01*
X237202429Y43310952D01*
X237275000Y43371429D01*
X237275000Y43250476D01*
X237275000Y44036667D02*
X237347572Y43976190D01*
X237275000Y43915714D01*
X237202429Y43976190D01*
X237275000Y44036667D01*
X237275000Y43915714D01*
X238799000Y43250476D02*
X237928143Y43250476D01*
X238363571Y43250476D02*
X238363571Y44520476D01*
X238218428Y44339048D01*
X238073286Y44218095D01*
X237928143Y44157619D01*
X239379572Y44399524D02*
X239452143Y44460000D01*
X239597286Y44520476D01*
X239960143Y44520476D01*
X240105286Y44460000D01*
X240177857Y44399524D01*
X240250429Y44278571D01*
X240250429Y44157619D01*
X240177857Y43976190D01*
X239307000Y43250476D01*
X240250429Y43250476D01*
X253349571Y43310952D02*
X253567285Y43250476D01*
X253930142Y43250476D01*
X254075285Y43310952D01*
X254147856Y43371429D01*
X254220428Y43492381D01*
X254220428Y43613333D01*
X254147856Y43734286D01*
X254075285Y43794762D01*
X253930142Y43855238D01*
X253639856Y43915714D01*
X253494714Y43976190D01*
X253422142Y44036667D01*
X253349571Y44157619D01*
X253349571Y44278571D01*
X253422142Y44399524D01*
X253494714Y44460000D01*
X253639856Y44520476D01*
X254002714Y44520476D01*
X254220428Y44460000D01*
X254801000Y44399524D02*
X254873571Y44460000D01*
X255018714Y44520476D01*
X255381571Y44520476D01*
X255526714Y44460000D01*
X255599285Y44399524D01*
X255671857Y44278571D01*
X255671857Y44157619D01*
X255599285Y43976190D01*
X254728428Y43250476D01*
X255671857Y43250476D01*
X256325000Y43371429D02*
X256397572Y43310952D01*
X256325000Y43250476D01*
X256252429Y43310952D01*
X256325000Y43371429D01*
X256325000Y43250476D01*
X256325000Y44036667D02*
X256397572Y43976190D01*
X256325000Y43915714D01*
X256252429Y43976190D01*
X256325000Y44036667D01*
X256325000Y43915714D01*
X257849000Y43250476D02*
X256978143Y43250476D01*
X257413571Y43250476D02*
X257413571Y44520476D01*
X257268428Y44339048D01*
X257123286Y44218095D01*
X256978143Y44157619D01*
X258357000Y44520476D02*
X259300429Y44520476D01*
X258792429Y44036667D01*
X259010143Y44036667D01*
X259155286Y43976190D01*
X259227857Y43915714D01*
X259300429Y43794762D01*
X259300429Y43492381D01*
X259227857Y43371429D01*
X259155286Y43310952D01*
X259010143Y43250476D01*
X258574715Y43250476D01*
X258429572Y43310952D01*
X258357000Y43371429D01*
X139775286Y24260952D02*
X139993000Y24200476D01*
X140355857Y24200476D01*
X140501000Y24260952D01*
X140573571Y24321429D01*
X140646143Y24442381D01*
X140646143Y24563333D01*
X140573571Y24684286D01*
X140501000Y24744762D01*
X140355857Y24805238D01*
X140065571Y24865714D01*
X139920429Y24926190D01*
X139847857Y24986667D01*
X139775286Y25107619D01*
X139775286Y25228571D01*
X139847857Y25349524D01*
X139920429Y25410000D01*
X140065571Y25470476D01*
X140428429Y25470476D01*
X140646143Y25410000D01*
X142097572Y24200476D02*
X141226715Y24200476D01*
X141662143Y24200476D02*
X141662143Y25470476D01*
X141517000Y25289048D01*
X141371858Y25168095D01*
X141226715Y25107619D01*
X142750715Y24321429D02*
X142823287Y24260952D01*
X142750715Y24200476D01*
X142678144Y24260952D01*
X142750715Y24321429D01*
X142750715Y24200476D01*
X142750715Y24986667D02*
X142823287Y24926190D01*
X142750715Y24865714D01*
X142678144Y24926190D01*
X142750715Y24986667D01*
X142750715Y24865714D01*
X143331286Y25470476D02*
X144347286Y25470476D01*
X143694143Y24200476D01*
X158825286Y24260952D02*
X159043000Y24200476D01*
X159405857Y24200476D01*
X159551000Y24260952D01*
X159623571Y24321429D01*
X159696143Y24442381D01*
X159696143Y24563333D01*
X159623571Y24684286D01*
X159551000Y24744762D01*
X159405857Y24805238D01*
X159115571Y24865714D01*
X158970429Y24926190D01*
X158897857Y24986667D01*
X158825286Y25107619D01*
X158825286Y25228571D01*
X158897857Y25349524D01*
X158970429Y25410000D01*
X159115571Y25470476D01*
X159478429Y25470476D01*
X159696143Y25410000D01*
X161147572Y24200476D02*
X160276715Y24200476D01*
X160712143Y24200476D02*
X160712143Y25470476D01*
X160567000Y25289048D01*
X160421858Y25168095D01*
X160276715Y25107619D01*
X161800715Y24321429D02*
X161873287Y24260952D01*
X161800715Y24200476D01*
X161728144Y24260952D01*
X161800715Y24321429D01*
X161800715Y24200476D01*
X161800715Y24986667D02*
X161873287Y24926190D01*
X161800715Y24865714D01*
X161728144Y24926190D01*
X161800715Y24986667D01*
X161800715Y24865714D01*
X162744143Y24926190D02*
X162599001Y24986667D01*
X162526429Y25047143D01*
X162453858Y25168095D01*
X162453858Y25228571D01*
X162526429Y25349524D01*
X162599001Y25410000D01*
X162744143Y25470476D01*
X163034429Y25470476D01*
X163179572Y25410000D01*
X163252143Y25349524D01*
X163324715Y25228571D01*
X163324715Y25168095D01*
X163252143Y25047143D01*
X163179572Y24986667D01*
X163034429Y24926190D01*
X162744143Y24926190D01*
X162599001Y24865714D01*
X162526429Y24805238D01*
X162453858Y24684286D01*
X162453858Y24442381D01*
X162526429Y24321429D01*
X162599001Y24260952D01*
X162744143Y24200476D01*
X163034429Y24200476D01*
X163179572Y24260952D01*
X163252143Y24321429D01*
X163324715Y24442381D01*
X163324715Y24684286D01*
X163252143Y24805238D01*
X163179572Y24865714D01*
X163034429Y24926190D01*
X177875286Y24260952D02*
X178093000Y24200476D01*
X178455857Y24200476D01*
X178601000Y24260952D01*
X178673571Y24321429D01*
X178746143Y24442381D01*
X178746143Y24563333D01*
X178673571Y24684286D01*
X178601000Y24744762D01*
X178455857Y24805238D01*
X178165571Y24865714D01*
X178020429Y24926190D01*
X177947857Y24986667D01*
X177875286Y25107619D01*
X177875286Y25228571D01*
X177947857Y25349524D01*
X178020429Y25410000D01*
X178165571Y25470476D01*
X178528429Y25470476D01*
X178746143Y25410000D01*
X180197572Y24200476D02*
X179326715Y24200476D01*
X179762143Y24200476D02*
X179762143Y25470476D01*
X179617000Y25289048D01*
X179471858Y25168095D01*
X179326715Y25107619D01*
X180850715Y24321429D02*
X180923287Y24260952D01*
X180850715Y24200476D01*
X180778144Y24260952D01*
X180850715Y24321429D01*
X180850715Y24200476D01*
X180850715Y24986667D02*
X180923287Y24926190D01*
X180850715Y24865714D01*
X180778144Y24926190D01*
X180850715Y24986667D01*
X180850715Y24865714D01*
X181649001Y24200476D02*
X181939286Y24200476D01*
X182084429Y24260952D01*
X182157001Y24321429D01*
X182302143Y24502857D01*
X182374715Y24744762D01*
X182374715Y25228571D01*
X182302143Y25349524D01*
X182229572Y25410000D01*
X182084429Y25470476D01*
X181794143Y25470476D01*
X181649001Y25410000D01*
X181576429Y25349524D01*
X181503858Y25228571D01*
X181503858Y24926190D01*
X181576429Y24805238D01*
X181649001Y24744762D01*
X181794143Y24684286D01*
X182084429Y24684286D01*
X182229572Y24744762D01*
X182302143Y24805238D01*
X182374715Y24926190D01*
X196199571Y24260952D02*
X196417285Y24200476D01*
X196780142Y24200476D01*
X196925285Y24260952D01*
X196997856Y24321429D01*
X197070428Y24442381D01*
X197070428Y24563333D01*
X196997856Y24684286D01*
X196925285Y24744762D01*
X196780142Y24805238D01*
X196489856Y24865714D01*
X196344714Y24926190D01*
X196272142Y24986667D01*
X196199571Y25107619D01*
X196199571Y25228571D01*
X196272142Y25349524D01*
X196344714Y25410000D01*
X196489856Y25470476D01*
X196852714Y25470476D01*
X197070428Y25410000D01*
X198521857Y24200476D02*
X197651000Y24200476D01*
X198086428Y24200476D02*
X198086428Y25470476D01*
X197941285Y25289048D01*
X197796143Y25168095D01*
X197651000Y25107619D01*
X199175000Y24321429D02*
X199247572Y24260952D01*
X199175000Y24200476D01*
X199102429Y24260952D01*
X199175000Y24321429D01*
X199175000Y24200476D01*
X199175000Y24986667D02*
X199247572Y24926190D01*
X199175000Y24865714D01*
X199102429Y24926190D01*
X199175000Y24986667D01*
X199175000Y24865714D01*
X200699000Y24200476D02*
X199828143Y24200476D01*
X200263571Y24200476D02*
X200263571Y25470476D01*
X200118428Y25289048D01*
X199973286Y25168095D01*
X199828143Y25107619D01*
X201642429Y25470476D02*
X201787572Y25470476D01*
X201932715Y25410000D01*
X202005286Y25349524D01*
X202077857Y25228571D01*
X202150429Y24986667D01*
X202150429Y24684286D01*
X202077857Y24442381D01*
X202005286Y24321429D01*
X201932715Y24260952D01*
X201787572Y24200476D01*
X201642429Y24200476D01*
X201497286Y24260952D01*
X201424715Y24321429D01*
X201352143Y24442381D01*
X201279572Y24684286D01*
X201279572Y24986667D01*
X201352143Y25228571D01*
X201424715Y25349524D01*
X201497286Y25410000D01*
X201642429Y25470476D01*
X215249571Y24260952D02*
X215467285Y24200476D01*
X215830142Y24200476D01*
X215975285Y24260952D01*
X216047856Y24321429D01*
X216120428Y24442381D01*
X216120428Y24563333D01*
X216047856Y24684286D01*
X215975285Y24744762D01*
X215830142Y24805238D01*
X215539856Y24865714D01*
X215394714Y24926190D01*
X215322142Y24986667D01*
X215249571Y25107619D01*
X215249571Y25228571D01*
X215322142Y25349524D01*
X215394714Y25410000D01*
X215539856Y25470476D01*
X215902714Y25470476D01*
X216120428Y25410000D01*
X217571857Y24200476D02*
X216701000Y24200476D01*
X217136428Y24200476D02*
X217136428Y25470476D01*
X216991285Y25289048D01*
X216846143Y25168095D01*
X216701000Y25107619D01*
X218225000Y24321429D02*
X218297572Y24260952D01*
X218225000Y24200476D01*
X218152429Y24260952D01*
X218225000Y24321429D01*
X218225000Y24200476D01*
X218225000Y24986667D02*
X218297572Y24926190D01*
X218225000Y24865714D01*
X218152429Y24926190D01*
X218225000Y24986667D01*
X218225000Y24865714D01*
X219749000Y24200476D02*
X218878143Y24200476D01*
X219313571Y24200476D02*
X219313571Y25470476D01*
X219168428Y25289048D01*
X219023286Y25168095D01*
X218878143Y25107619D01*
X221200429Y24200476D02*
X220329572Y24200476D01*
X220765000Y24200476D02*
X220765000Y25470476D01*
X220619857Y25289048D01*
X220474715Y25168095D01*
X220329572Y25107619D01*
X234299571Y24260952D02*
X234517285Y24200476D01*
X234880142Y24200476D01*
X235025285Y24260952D01*
X235097856Y24321429D01*
X235170428Y24442381D01*
X235170428Y24563333D01*
X235097856Y24684286D01*
X235025285Y24744762D01*
X234880142Y24805238D01*
X234589856Y24865714D01*
X234444714Y24926190D01*
X234372142Y24986667D01*
X234299571Y25107619D01*
X234299571Y25228571D01*
X234372142Y25349524D01*
X234444714Y25410000D01*
X234589856Y25470476D01*
X234952714Y25470476D01*
X235170428Y25410000D01*
X236621857Y24200476D02*
X235751000Y24200476D01*
X236186428Y24200476D02*
X236186428Y25470476D01*
X236041285Y25289048D01*
X235896143Y25168095D01*
X235751000Y25107619D01*
X237275000Y24321429D02*
X237347572Y24260952D01*
X237275000Y24200476D01*
X237202429Y24260952D01*
X237275000Y24321429D01*
X237275000Y24200476D01*
X237275000Y24986667D02*
X237347572Y24926190D01*
X237275000Y24865714D01*
X237202429Y24926190D01*
X237275000Y24986667D01*
X237275000Y24865714D01*
X238799000Y24200476D02*
X237928143Y24200476D01*
X238363571Y24200476D02*
X238363571Y25470476D01*
X238218428Y25289048D01*
X238073286Y25168095D01*
X237928143Y25107619D01*
X239379572Y25349524D02*
X239452143Y25410000D01*
X239597286Y25470476D01*
X239960143Y25470476D01*
X240105286Y25410000D01*
X240177857Y25349524D01*
X240250429Y25228571D01*
X240250429Y25107619D01*
X240177857Y24926190D01*
X239307000Y24200476D01*
X240250429Y24200476D01*
X177875286Y5210952D02*
X178093000Y5150476D01*
X178455857Y5150476D01*
X178601000Y5210952D01*
X178673571Y5271429D01*
X178746143Y5392381D01*
X178746143Y5513333D01*
X178673571Y5634286D01*
X178601000Y5694762D01*
X178455857Y5755238D01*
X178165571Y5815714D01*
X178020429Y5876190D01*
X177947857Y5936667D01*
X177875286Y6057619D01*
X177875286Y6178571D01*
X177947857Y6299524D01*
X178020429Y6360000D01*
X178165571Y6420476D01*
X178528429Y6420476D01*
X178746143Y6360000D01*
X179689572Y6420476D02*
X179834715Y6420476D01*
X179979858Y6360000D01*
X180052429Y6299524D01*
X180125000Y6178571D01*
X180197572Y5936667D01*
X180197572Y5634286D01*
X180125000Y5392381D01*
X180052429Y5271429D01*
X179979858Y5210952D01*
X179834715Y5150476D01*
X179689572Y5150476D01*
X179544429Y5210952D01*
X179471858Y5271429D01*
X179399286Y5392381D01*
X179326715Y5634286D01*
X179326715Y5936667D01*
X179399286Y6178571D01*
X179471858Y6299524D01*
X179544429Y6360000D01*
X179689572Y6420476D01*
X180850715Y5271429D02*
X180923287Y5210952D01*
X180850715Y5150476D01*
X180778144Y5210952D01*
X180850715Y5271429D01*
X180850715Y5150476D01*
X180850715Y5936667D02*
X180923287Y5876190D01*
X180850715Y5815714D01*
X180778144Y5876190D01*
X180850715Y5936667D01*
X180850715Y5815714D01*
X181649001Y5150476D02*
X181939286Y5150476D01*
X182084429Y5210952D01*
X182157001Y5271429D01*
X182302143Y5452857D01*
X182374715Y5694762D01*
X182374715Y6178571D01*
X182302143Y6299524D01*
X182229572Y6360000D01*
X182084429Y6420476D01*
X181794143Y6420476D01*
X181649001Y6360000D01*
X181576429Y6299524D01*
X181503858Y6178571D01*
X181503858Y5876190D01*
X181576429Y5755238D01*
X181649001Y5694762D01*
X181794143Y5634286D01*
X182084429Y5634286D01*
X182229572Y5694762D01*
X182302143Y5755238D01*
X182374715Y5876190D01*
X196199571Y5210952D02*
X196417285Y5150476D01*
X196780142Y5150476D01*
X196925285Y5210952D01*
X196997856Y5271429D01*
X197070428Y5392381D01*
X197070428Y5513333D01*
X196997856Y5634286D01*
X196925285Y5694762D01*
X196780142Y5755238D01*
X196489856Y5815714D01*
X196344714Y5876190D01*
X196272142Y5936667D01*
X196199571Y6057619D01*
X196199571Y6178571D01*
X196272142Y6299524D01*
X196344714Y6360000D01*
X196489856Y6420476D01*
X196852714Y6420476D01*
X197070428Y6360000D01*
X198013857Y6420476D02*
X198159000Y6420476D01*
X198304143Y6360000D01*
X198376714Y6299524D01*
X198449285Y6178571D01*
X198521857Y5936667D01*
X198521857Y5634286D01*
X198449285Y5392381D01*
X198376714Y5271429D01*
X198304143Y5210952D01*
X198159000Y5150476D01*
X198013857Y5150476D01*
X197868714Y5210952D01*
X197796143Y5271429D01*
X197723571Y5392381D01*
X197651000Y5634286D01*
X197651000Y5936667D01*
X197723571Y6178571D01*
X197796143Y6299524D01*
X197868714Y6360000D01*
X198013857Y6420476D01*
X199175000Y5271429D02*
X199247572Y5210952D01*
X199175000Y5150476D01*
X199102429Y5210952D01*
X199175000Y5271429D01*
X199175000Y5150476D01*
X199175000Y5936667D02*
X199247572Y5876190D01*
X199175000Y5815714D01*
X199102429Y5876190D01*
X199175000Y5936667D01*
X199175000Y5815714D01*
X200699000Y5150476D02*
X199828143Y5150476D01*
X200263571Y5150476D02*
X200263571Y6420476D01*
X200118428Y6239048D01*
X199973286Y6118095D01*
X199828143Y6057619D01*
X201642429Y6420476D02*
X201787572Y6420476D01*
X201932715Y6360000D01*
X202005286Y6299524D01*
X202077857Y6178571D01*
X202150429Y5936667D01*
X202150429Y5634286D01*
X202077857Y5392381D01*
X202005286Y5271429D01*
X201932715Y5210952D01*
X201787572Y5150476D01*
X201642429Y5150476D01*
X201497286Y5210952D01*
X201424715Y5271429D01*
X201352143Y5392381D01*
X201279572Y5634286D01*
X201279572Y5936667D01*
X201352143Y6178571D01*
X201424715Y6299524D01*
X201497286Y6360000D01*
X201642429Y6420476D01*
X215249571Y5210952D02*
X215467285Y5150476D01*
X215830142Y5150476D01*
X215975285Y5210952D01*
X216047856Y5271429D01*
X216120428Y5392381D01*
X216120428Y5513333D01*
X216047856Y5634286D01*
X215975285Y5694762D01*
X215830142Y5755238D01*
X215539856Y5815714D01*
X215394714Y5876190D01*
X215322142Y5936667D01*
X215249571Y6057619D01*
X215249571Y6178571D01*
X215322142Y6299524D01*
X215394714Y6360000D01*
X215539856Y6420476D01*
X215902714Y6420476D01*
X216120428Y6360000D01*
X217063857Y6420476D02*
X217209000Y6420476D01*
X217354143Y6360000D01*
X217426714Y6299524D01*
X217499285Y6178571D01*
X217571857Y5936667D01*
X217571857Y5634286D01*
X217499285Y5392381D01*
X217426714Y5271429D01*
X217354143Y5210952D01*
X217209000Y5150476D01*
X217063857Y5150476D01*
X216918714Y5210952D01*
X216846143Y5271429D01*
X216773571Y5392381D01*
X216701000Y5634286D01*
X216701000Y5936667D01*
X216773571Y6178571D01*
X216846143Y6299524D01*
X216918714Y6360000D01*
X217063857Y6420476D01*
X218225000Y5271429D02*
X218297572Y5210952D01*
X218225000Y5150476D01*
X218152429Y5210952D01*
X218225000Y5271429D01*
X218225000Y5150476D01*
X218225000Y5936667D02*
X218297572Y5876190D01*
X218225000Y5815714D01*
X218152429Y5876190D01*
X218225000Y5936667D01*
X218225000Y5815714D01*
X219749000Y5150476D02*
X218878143Y5150476D01*
X219313571Y5150476D02*
X219313571Y6420476D01*
X219168428Y6239048D01*
X219023286Y6118095D01*
X218878143Y6057619D01*
X221200429Y5150476D02*
X220329572Y5150476D01*
X220765000Y5150476D02*
X220765000Y6420476D01*
X220619857Y6239048D01*
X220474715Y6118095D01*
X220329572Y6057619D01*
X234299571Y5210952D02*
X234517285Y5150476D01*
X234880142Y5150476D01*
X235025285Y5210952D01*
X235097856Y5271429D01*
X235170428Y5392381D01*
X235170428Y5513333D01*
X235097856Y5634286D01*
X235025285Y5694762D01*
X234880142Y5755238D01*
X234589856Y5815714D01*
X234444714Y5876190D01*
X234372142Y5936667D01*
X234299571Y6057619D01*
X234299571Y6178571D01*
X234372142Y6299524D01*
X234444714Y6360000D01*
X234589856Y6420476D01*
X234952714Y6420476D01*
X235170428Y6360000D01*
X236113857Y6420476D02*
X236259000Y6420476D01*
X236404143Y6360000D01*
X236476714Y6299524D01*
X236549285Y6178571D01*
X236621857Y5936667D01*
X236621857Y5634286D01*
X236549285Y5392381D01*
X236476714Y5271429D01*
X236404143Y5210952D01*
X236259000Y5150476D01*
X236113857Y5150476D01*
X235968714Y5210952D01*
X235896143Y5271429D01*
X235823571Y5392381D01*
X235751000Y5634286D01*
X235751000Y5936667D01*
X235823571Y6178571D01*
X235896143Y6299524D01*
X235968714Y6360000D01*
X236113857Y6420476D01*
X237275000Y5271429D02*
X237347572Y5210952D01*
X237275000Y5150476D01*
X237202429Y5210952D01*
X237275000Y5271429D01*
X237275000Y5150476D01*
X237275000Y5936667D02*
X237347572Y5876190D01*
X237275000Y5815714D01*
X237202429Y5876190D01*
X237275000Y5936667D01*
X237275000Y5815714D01*
X238799000Y5150476D02*
X237928143Y5150476D01*
X238363571Y5150476D02*
X238363571Y6420476D01*
X238218428Y6239048D01*
X238073286Y6118095D01*
X237928143Y6057619D01*
X239379572Y6299524D02*
X239452143Y6360000D01*
X239597286Y6420476D01*
X239960143Y6420476D01*
X240105286Y6360000D01*
X240177857Y6299524D01*
X240250429Y6178571D01*
X240250429Y6057619D01*
X240177857Y5876190D01*
X239307000Y5150476D01*
X240250429Y5150476D01*
X253349571Y5210952D02*
X253567285Y5150476D01*
X253930142Y5150476D01*
X254075285Y5210952D01*
X254147856Y5271429D01*
X254220428Y5392381D01*
X254220428Y5513333D01*
X254147856Y5634286D01*
X254075285Y5694762D01*
X253930142Y5755238D01*
X253639856Y5815714D01*
X253494714Y5876190D01*
X253422142Y5936667D01*
X253349571Y6057619D01*
X253349571Y6178571D01*
X253422142Y6299524D01*
X253494714Y6360000D01*
X253639856Y6420476D01*
X254002714Y6420476D01*
X254220428Y6360000D01*
X255163857Y6420476D02*
X255309000Y6420476D01*
X255454143Y6360000D01*
X255526714Y6299524D01*
X255599285Y6178571D01*
X255671857Y5936667D01*
X255671857Y5634286D01*
X255599285Y5392381D01*
X255526714Y5271429D01*
X255454143Y5210952D01*
X255309000Y5150476D01*
X255163857Y5150476D01*
X255018714Y5210952D01*
X254946143Y5271429D01*
X254873571Y5392381D01*
X254801000Y5634286D01*
X254801000Y5936667D01*
X254873571Y6178571D01*
X254946143Y6299524D01*
X255018714Y6360000D01*
X255163857Y6420476D01*
X256325000Y5271429D02*
X256397572Y5210952D01*
X256325000Y5150476D01*
X256252429Y5210952D01*
X256325000Y5271429D01*
X256325000Y5150476D01*
X256325000Y5936667D02*
X256397572Y5876190D01*
X256325000Y5815714D01*
X256252429Y5876190D01*
X256325000Y5936667D01*
X256325000Y5815714D01*
X257849000Y5150476D02*
X256978143Y5150476D01*
X257413571Y5150476D02*
X257413571Y6420476D01*
X257268428Y6239048D01*
X257123286Y6118095D01*
X256978143Y6057619D01*
X258357000Y6420476D02*
X259300429Y6420476D01*
X258792429Y5936667D01*
X259010143Y5936667D01*
X259155286Y5876190D01*
X259227857Y5815714D01*
X259300429Y5694762D01*
X259300429Y5392381D01*
X259227857Y5271429D01*
X259155286Y5210952D01*
X259010143Y5150476D01*
X258574715Y5150476D01*
X258429572Y5210952D01*
X258357000Y5271429D01*
X253349571Y81410952D02*
X253567285Y81350476D01*
X253930142Y81350476D01*
X254075285Y81410952D01*
X254147856Y81471429D01*
X254220428Y81592381D01*
X254220428Y81713333D01*
X254147856Y81834286D01*
X254075285Y81894762D01*
X253930142Y81955238D01*
X253639856Y82015714D01*
X253494714Y82076190D01*
X253422142Y82136667D01*
X253349571Y82257619D01*
X253349571Y82378571D01*
X253422142Y82499524D01*
X253494714Y82560000D01*
X253639856Y82620476D01*
X254002714Y82620476D01*
X254220428Y82560000D01*
X255526714Y82197143D02*
X255526714Y81350476D01*
X255163857Y82680952D02*
X254801000Y81773810D01*
X255744428Y81773810D01*
X256325000Y81471429D02*
X256397572Y81410952D01*
X256325000Y81350476D01*
X256252429Y81410952D01*
X256325000Y81471429D01*
X256325000Y81350476D01*
X256325000Y82136667D02*
X256397572Y82076190D01*
X256325000Y82015714D01*
X256252429Y82076190D01*
X256325000Y82136667D01*
X256325000Y82015714D01*
X257849000Y81350476D02*
X256978143Y81350476D01*
X257413571Y81350476D02*
X257413571Y82620476D01*
X257268428Y82439048D01*
X257123286Y82318095D01*
X256978143Y82257619D01*
X258357000Y82620476D02*
X259300429Y82620476D01*
X258792429Y82136667D01*
X259010143Y82136667D01*
X259155286Y82076190D01*
X259227857Y82015714D01*
X259300429Y81894762D01*
X259300429Y81592381D01*
X259227857Y81471429D01*
X259155286Y81410952D01*
X259010143Y81350476D01*
X258574715Y81350476D01*
X258429572Y81410952D01*
X258357000Y81471429D01*
X82625286Y5210952D02*
X82843000Y5150476D01*
X83205857Y5150476D01*
X83351000Y5210952D01*
X83423571Y5271429D01*
X83496143Y5392381D01*
X83496143Y5513333D01*
X83423571Y5634286D01*
X83351000Y5694762D01*
X83205857Y5755238D01*
X82915571Y5815714D01*
X82770429Y5876190D01*
X82697857Y5936667D01*
X82625286Y6057619D01*
X82625286Y6178571D01*
X82697857Y6299524D01*
X82770429Y6360000D01*
X82915571Y6420476D01*
X83278429Y6420476D01*
X83496143Y6360000D01*
X84439572Y6420476D02*
X84584715Y6420476D01*
X84729858Y6360000D01*
X84802429Y6299524D01*
X84875000Y6178571D01*
X84947572Y5936667D01*
X84947572Y5634286D01*
X84875000Y5392381D01*
X84802429Y5271429D01*
X84729858Y5210952D01*
X84584715Y5150476D01*
X84439572Y5150476D01*
X84294429Y5210952D01*
X84221858Y5271429D01*
X84149286Y5392381D01*
X84076715Y5634286D01*
X84076715Y5936667D01*
X84149286Y6178571D01*
X84221858Y6299524D01*
X84294429Y6360000D01*
X84439572Y6420476D01*
X85600715Y5271429D02*
X85673287Y5210952D01*
X85600715Y5150476D01*
X85528144Y5210952D01*
X85600715Y5271429D01*
X85600715Y5150476D01*
X85600715Y5936667D02*
X85673287Y5876190D01*
X85600715Y5815714D01*
X85528144Y5876190D01*
X85600715Y5936667D01*
X85600715Y5815714D01*
X86979572Y5997143D02*
X86979572Y5150476D01*
X86616715Y6480952D02*
X86253858Y5573810D01*
X87197286Y5573810D01*
X147776286Y11710952D02*
X147994000Y11650476D01*
X148356857Y11650476D01*
X148502000Y11710952D01*
X148574571Y11771429D01*
X148647143Y11892381D01*
X148647143Y12013333D01*
X148574571Y12134286D01*
X148502000Y12194762D01*
X148356857Y12255238D01*
X148066571Y12315714D01*
X147921429Y12376190D01*
X147848857Y12436667D01*
X147776286Y12557619D01*
X147776286Y12678571D01*
X147848857Y12799524D01*
X147921429Y12860000D01*
X148066571Y12920476D01*
X148429429Y12920476D01*
X148647143Y12860000D01*
X149590572Y12920476D02*
X149735715Y12920476D01*
X149880858Y12860000D01*
X149953429Y12799524D01*
X150026000Y12678571D01*
X150098572Y12436667D01*
X150098572Y12134286D01*
X150026000Y11892381D01*
X149953429Y11771429D01*
X149880858Y11710952D01*
X149735715Y11650476D01*
X149590572Y11650476D01*
X149445429Y11710952D01*
X149372858Y11771429D01*
X149300286Y11892381D01*
X149227715Y12134286D01*
X149227715Y12436667D01*
X149300286Y12678571D01*
X149372858Y12799524D01*
X149445429Y12860000D01*
X149590572Y12920476D01*
X150751715Y11771429D02*
X150824287Y11710952D01*
X150751715Y11650476D01*
X150679144Y11710952D01*
X150751715Y11771429D01*
X150751715Y11650476D01*
X150751715Y12436667D02*
X150824287Y12376190D01*
X150751715Y12315714D01*
X150679144Y12376190D01*
X150751715Y12436667D01*
X150751715Y12315714D01*
X151332286Y12920476D02*
X152348286Y12920476D01*
X151695143Y11650476D01*
X154017430Y12980952D02*
X152711144Y11348095D01*
X154743143Y12376190D02*
X154598001Y12436667D01*
X154525429Y12497143D01*
X154452858Y12618095D01*
X154452858Y12678571D01*
X154525429Y12799524D01*
X154598001Y12860000D01*
X154743143Y12920476D01*
X155033429Y12920476D01*
X155178572Y12860000D01*
X155251143Y12799524D01*
X155323715Y12678571D01*
X155323715Y12618095D01*
X155251143Y12497143D01*
X155178572Y12436667D01*
X155033429Y12376190D01*
X154743143Y12376190D01*
X154598001Y12315714D01*
X154525429Y12255238D01*
X154452858Y12134286D01*
X154452858Y11892381D01*
X154525429Y11771429D01*
X154598001Y11710952D01*
X154743143Y11650476D01*
X155033429Y11650476D01*
X155178572Y11710952D01*
X155251143Y11771429D01*
X155323715Y11892381D01*
X155323715Y12134286D01*
X155251143Y12255238D01*
X155178572Y12315714D01*
X155033429Y12376190D01*
X109676286Y11685952D02*
X109894000Y11625476D01*
X110256857Y11625476D01*
X110402000Y11685952D01*
X110474571Y11746429D01*
X110547143Y11867381D01*
X110547143Y11988333D01*
X110474571Y12109286D01*
X110402000Y12169762D01*
X110256857Y12230238D01*
X109966571Y12290714D01*
X109821429Y12351190D01*
X109748857Y12411667D01*
X109676286Y12532619D01*
X109676286Y12653571D01*
X109748857Y12774524D01*
X109821429Y12835000D01*
X109966571Y12895476D01*
X110329429Y12895476D01*
X110547143Y12835000D01*
X111490572Y12895476D02*
X111635715Y12895476D01*
X111780858Y12835000D01*
X111853429Y12774524D01*
X111926000Y12653571D01*
X111998572Y12411667D01*
X111998572Y12109286D01*
X111926000Y11867381D01*
X111853429Y11746429D01*
X111780858Y11685952D01*
X111635715Y11625476D01*
X111490572Y11625476D01*
X111345429Y11685952D01*
X111272858Y11746429D01*
X111200286Y11867381D01*
X111127715Y12109286D01*
X111127715Y12411667D01*
X111200286Y12653571D01*
X111272858Y12774524D01*
X111345429Y12835000D01*
X111490572Y12895476D01*
X112651715Y11746429D02*
X112724287Y11685952D01*
X112651715Y11625476D01*
X112579144Y11685952D01*
X112651715Y11746429D01*
X112651715Y11625476D01*
X112651715Y12411667D02*
X112724287Y12351190D01*
X112651715Y12290714D01*
X112579144Y12351190D01*
X112651715Y12411667D01*
X112651715Y12290714D01*
X114103143Y12895476D02*
X113377429Y12895476D01*
X113304858Y12290714D01*
X113377429Y12351190D01*
X113522572Y12411667D01*
X113885429Y12411667D01*
X114030572Y12351190D01*
X114103143Y12290714D01*
X114175715Y12169762D01*
X114175715Y11867381D01*
X114103143Y11746429D01*
X114030572Y11685952D01*
X113885429Y11625476D01*
X113522572Y11625476D01*
X113377429Y11685952D01*
X113304858Y11746429D01*
X115917430Y12955952D02*
X114611144Y11323095D01*
X117078572Y12895476D02*
X116788286Y12895476D01*
X116643143Y12835000D01*
X116570572Y12774524D01*
X116425429Y12593095D01*
X116352858Y12351190D01*
X116352858Y11867381D01*
X116425429Y11746429D01*
X116498001Y11685952D01*
X116643143Y11625476D01*
X116933429Y11625476D01*
X117078572Y11685952D01*
X117151143Y11746429D01*
X117223715Y11867381D01*
X117223715Y12169762D01*
X117151143Y12290714D01*
X117078572Y12351190D01*
X116933429Y12411667D01*
X116643143Y12411667D01*
X116498001Y12351190D01*
X116425429Y12290714D01*
X116352858Y12169762D01*
%LPC*%
D14*
X37500000Y37510000D03*
X75500000Y75500000D03*
X189500000Y18500000D03*
X227500000Y56500000D03*
D15*
X106465000Y52080000D03*
X100115000Y49540000D03*
X125515000Y52080000D03*
X119165000Y49540000D03*
X87415000Y90180000D03*
X81065000Y87640000D03*
X258865000Y33030000D03*
X252515000Y30490000D03*
X120435000Y80020000D03*
X126785000Y82560000D03*
X139485000Y80020000D03*
X145835000Y82560000D03*
X106465000Y90180000D03*
X100115000Y87640000D03*
X68365000Y90180000D03*
X62015000Y87640000D03*
X49315000Y90180000D03*
X42965000Y87640000D03*
X30265000Y90180000D03*
X23915000Y87640000D03*
X11215000Y90180000D03*
X4865000Y87640000D03*
X125515000Y71130000D03*
X119165000Y68590000D03*
X106465000Y71130000D03*
X100115000Y68590000D03*
X87415000Y71130000D03*
X81065000Y68590000D03*
X68365000Y71130000D03*
X62015000Y68590000D03*
X49315000Y71130000D03*
X42965000Y68590000D03*
X30265000Y71130000D03*
X23915000Y68590000D03*
X11215000Y71130000D03*
X4865000Y68590000D03*
X87415000Y52080000D03*
X81065000Y49540000D03*
X68365000Y52080000D03*
X62015000Y49540000D03*
X49315000Y52080000D03*
X42965000Y49540000D03*
X30265000Y52080000D03*
X23915000Y49540000D03*
X11215000Y52080000D03*
X4865000Y49540000D03*
X125515000Y33030000D03*
X119165000Y30490000D03*
X106465000Y33030000D03*
X100115000Y30490000D03*
X87415000Y33030000D03*
X81065000Y30490000D03*
X68365000Y33030000D03*
X62015000Y30490000D03*
X49315000Y33030000D03*
X42965000Y30490000D03*
X30265000Y33030000D03*
X23915000Y30490000D03*
X11215000Y33030000D03*
X4865000Y30490000D03*
X68365000Y13980000D03*
X62015000Y11440000D03*
X49315000Y13980000D03*
X42965000Y11440000D03*
X30265000Y13980000D03*
X23915000Y11440000D03*
X11215000Y13980000D03*
X4865000Y11440000D03*
X163615000Y90180000D03*
X157265000Y87640000D03*
X182665000Y90180000D03*
X176315000Y87640000D03*
X201715000Y90180000D03*
X195365000Y87640000D03*
X220765000Y90180000D03*
X214415000Y87640000D03*
X239815000Y90180000D03*
X233465000Y87640000D03*
X144565000Y71130000D03*
X138215000Y68590000D03*
X163615000Y71130000D03*
X157265000Y68590000D03*
X182665000Y71130000D03*
X176315000Y68590000D03*
X201715000Y71130000D03*
X195365000Y68590000D03*
X220765000Y71130000D03*
X214415000Y68590000D03*
X239815000Y71130000D03*
X233465000Y68590000D03*
X258865000Y71130000D03*
X252515000Y68590000D03*
X144565000Y52080000D03*
X138215000Y49540000D03*
X163615000Y52080000D03*
X157265000Y49540000D03*
X182665000Y52080000D03*
X176315000Y49540000D03*
X201715000Y52080000D03*
X195365000Y49540000D03*
X220765000Y52080000D03*
X214415000Y49540000D03*
X239815000Y52080000D03*
X233465000Y49540000D03*
X258865000Y52080000D03*
X252515000Y49540000D03*
X144565000Y33030000D03*
X138215000Y30490000D03*
X163615000Y33030000D03*
X157265000Y30490000D03*
X182665000Y33030000D03*
X176315000Y30490000D03*
X201715000Y33030000D03*
X195365000Y30490000D03*
X220765000Y33030000D03*
X214415000Y30490000D03*
X239815000Y33030000D03*
X233465000Y30490000D03*
X182665000Y13980000D03*
X176315000Y11440000D03*
X201715000Y13980000D03*
X195365000Y11440000D03*
X220765000Y13980000D03*
X214415000Y11440000D03*
X239815000Y13980000D03*
X233465000Y11440000D03*
X258865000Y13980000D03*
X252515000Y11440000D03*
X258865000Y90180000D03*
X252515000Y87640000D03*
X87415000Y13980000D03*
X81065000Y11440000D03*
D16*
X130000000Y90300000D03*
X134400000Y90300000D03*
D15*
X149010000Y3970000D03*
X155360000Y6510000D03*
X110910000Y3945000D03*
X117260000Y6485000D03*
D17*
X143295000Y90180000D03*
D18*
X140755000Y90180000D03*
D17*
X124245000Y90180000D03*
D18*
X121705000Y90180000D03*
D17*
X121705000Y60970000D03*
D18*
X124245000Y60970000D03*
D17*
X140755000Y60970000D03*
D18*
X143295000Y60970000D03*
D17*
X159805000Y60970000D03*
D18*
X162345000Y60970000D03*
D17*
X159805000Y80020000D03*
D18*
X162345000Y80020000D03*
D17*
X178855000Y80020000D03*
D18*
X181395000Y80020000D03*
D17*
X178855000Y60970000D03*
D18*
X181395000Y60970000D03*
D17*
X197905000Y60970000D03*
D18*
X200445000Y60970000D03*
D17*
X197905000Y80020000D03*
D18*
X200445000Y80020000D03*
D17*
X216955000Y80020000D03*
D18*
X219495000Y80020000D03*
D17*
X236005000Y80020000D03*
D18*
X238545000Y80020000D03*
D17*
X236005000Y60970000D03*
D18*
X238545000Y60970000D03*
D17*
X216955000Y60970000D03*
D18*
X219495000Y60970000D03*
D17*
X216955000Y41920000D03*
D18*
X219495000Y41920000D03*
D17*
X236005000Y41920000D03*
D18*
X238545000Y41920000D03*
D17*
X255055000Y41920000D03*
D18*
X257595000Y41920000D03*
D17*
X255055000Y22870000D03*
D18*
X257595000Y22870000D03*
D17*
X236005000Y22870000D03*
D18*
X238545000Y22870000D03*
D17*
X236005000Y3820000D03*
D18*
X238545000Y3820000D03*
D17*
X216955000Y3820000D03*
D18*
X219495000Y3820000D03*
D17*
X197905000Y3820000D03*
D18*
X200445000Y3820000D03*
D17*
X178855000Y3820000D03*
D18*
X181395000Y3820000D03*
D17*
X159805000Y22870000D03*
D18*
X162345000Y22870000D03*
D17*
X216955000Y22870000D03*
D18*
X219495000Y22870000D03*
D17*
X197905000Y22870000D03*
D18*
X200445000Y22870000D03*
D17*
X178855000Y22870000D03*
D18*
X181395000Y22870000D03*
D17*
X197905000Y41920000D03*
D18*
X200445000Y41920000D03*
D17*
X178855000Y41920000D03*
D18*
X181395000Y41920000D03*
D17*
X159805000Y41920000D03*
D18*
X162345000Y41920000D03*
D17*
X140755000Y41920000D03*
D18*
X143295000Y41920000D03*
D17*
X121705000Y41920000D03*
D18*
X124245000Y41920000D03*
D17*
X102655000Y22870000D03*
D18*
X105195000Y22870000D03*
D17*
X121705000Y22870000D03*
D18*
X124245000Y22870000D03*
D17*
X140755000Y22870000D03*
D18*
X143295000Y22870000D03*
D17*
X152820000Y14130000D03*
D18*
X150280000Y14130000D03*
D17*
X114720000Y14105000D03*
D18*
X112180000Y14105000D03*
D17*
X83605000Y3820000D03*
D18*
X86145000Y3820000D03*
D17*
X7405000Y3820000D03*
D18*
X9945000Y3820000D03*
D17*
X26455000Y3820000D03*
D18*
X28995000Y3820000D03*
D17*
X45505000Y3820000D03*
D18*
X48045000Y3820000D03*
D17*
X83605000Y22870000D03*
D18*
X86145000Y22870000D03*
D17*
X64555000Y22870000D03*
D18*
X67095000Y22870000D03*
D17*
X45505000Y22870000D03*
D18*
X48045000Y22870000D03*
D17*
X26455000Y22870000D03*
D18*
X28995000Y22870000D03*
D17*
X7405000Y22870000D03*
D18*
X9945000Y22870000D03*
D17*
X45505000Y60970000D03*
D18*
X48045000Y60970000D03*
D17*
X45505000Y41920000D03*
D18*
X48045000Y41920000D03*
D17*
X102655000Y41920000D03*
D18*
X105195000Y41920000D03*
D17*
X83605000Y41920000D03*
D18*
X86145000Y41920000D03*
D17*
X64555000Y41920000D03*
D18*
X67095000Y41920000D03*
D17*
X64555000Y60970000D03*
D18*
X67095000Y60970000D03*
D17*
X83605000Y60970000D03*
D18*
X86145000Y60970000D03*
D17*
X102655000Y60970000D03*
D18*
X105195000Y60970000D03*
D17*
X102655000Y80020000D03*
D18*
X105195000Y80020000D03*
D17*
X83605000Y80020000D03*
D18*
X86145000Y80020000D03*
D17*
X64555000Y80020000D03*
D18*
X67095000Y80020000D03*
D17*
X45505000Y80020000D03*
D18*
X48045000Y80020000D03*
D17*
X26455000Y80020000D03*
D18*
X28995000Y80020000D03*
D17*
X26455000Y60970000D03*
D18*
X28995000Y60970000D03*
D17*
X26455000Y41920000D03*
D18*
X28995000Y41920000D03*
D17*
X255055000Y60970000D03*
D18*
X257595000Y60970000D03*
D17*
X255055000Y80020000D03*
D18*
X257595000Y80020000D03*
D17*
X7405000Y80020000D03*
D18*
X9945000Y80020000D03*
D17*
X7405000Y60970000D03*
D18*
X9945000Y60970000D03*
D17*
X255055000Y3820000D03*
D18*
X257595000Y3820000D03*
D17*
X64555000Y3820000D03*
D18*
X67095000Y3820000D03*
D17*
X7405000Y41920000D03*
D18*
X9945000Y41920000D03*
D19*
X1250000Y1250000D03*
X263750000Y1250000D03*
X1250000Y92750000D03*
X263750000Y92750000D03*
M02*
