M48
;DRILL file {KiCad 4.0.1-stable} date 5/19/2016 2:34:41 PM
;FORMAT={-:-/ absolute / inch / decimal}
FMAT,2
INCH,TZ
T1C0.013
T2C0.016
T3C0.028
T4C0.039
T5C0.039
T6C0.059
T7C0.071
T8C0.067
T9C0.098
T10C0.120
T11C0.157
%
G90
G05
M72
T1
X3.2252Y-3.9315
X3.9728Y-3.8807
X4.7213Y-3.6071
X5.4693Y-3.5913
X5.502Y-3.9059
X6.2177Y-3.5866
X6.965Y-3.5154
X7.7402Y-3.672
X7.7484Y-3.9689
X7.7681Y-3.6449
X7.7945Y-3.6185
X7.7945Y-3.937
X8.2228Y-3.8976
X8.2457Y-3.9252
X8.2488Y-3.689
X8.3268Y-5.935
X8.3488Y-4.1559
X8.4091Y-3.2429
X8.4303Y-5.3043
X8.4484Y-4.3476
X8.461Y-3.9232
X8.476Y-4.2961
X8.5051Y-3.7661
X8.5937Y-4.4531
X8.6807Y-3.0465
X8.7154Y-3.8268
X8.8331Y-4.1831
X8.835Y-4.1272
X8.8831Y-3.7921
X8.8846Y-3.6465
X9.0571Y-4.1839
X9.1665Y-3.1488
X9.1791Y-3.848
X9.2Y-3.3606
X9.2358Y-4.1425
X9.2591Y-3.3902
X9.2665Y-3.8831
X9.9594Y-4.4508
X10.7083Y-4.4094
X11.4535Y-4.5937
X12.2024Y-3.9783
X12.8634Y-5.4681
X12.9488Y-3.7512
T2
X3.1988Y-2.4409
X3.1988Y-6.0433
X3.8583Y-3.9075
X8.2087Y-3.75
X8.2559Y-3.8335
X8.3465Y-3.061
X8.376Y-3.1693
X8.3933Y-3.724
X8.4559Y-3.1067
X8.5933Y-3.1008
X8.7602Y-3.0437
X8.7949Y-3.837
X8.8083Y-3.9709
X8.887Y-3.1185
X9.0031Y-3.8484
X9.1394Y-4.0378
X9.3402Y-3.1272
X13.5335Y-2.4409
X13.5335Y-6.0433
T3
X8.2933Y-2.6496
X8.3248Y-2.6023
X8.3563Y-2.6496
X8.3878Y-2.6023
X8.4193Y-2.6496
T4
X3.4539Y-4.4421
X3.5539Y-4.4421
X5.698Y-5.9386
X5.798Y-5.9386
X13.1783Y-5.9382
X13.2783Y-5.9382
T5
X9.8622Y-3.0709
X9.8622Y-3.1709
T6
X3.3539Y-2.6461
X3.3539Y-3.3941
X3.3539Y-4.1421
X3.3539Y-4.8902
X3.3539Y-5.6382
X3.6039Y-2.5461
X3.6039Y-3.2941
X3.6039Y-4.0421
X3.6039Y-4.7902
X3.6039Y-5.5382
X4.102Y-2.6461
X4.102Y-3.3941
X4.102Y-4.1421
X4.102Y-4.8902
X4.102Y-5.6382
X4.352Y-2.5461
X4.352Y-3.2941
X4.352Y-4.0421
X4.352Y-4.7902
X4.352Y-5.5382
X4.85Y-2.6461
X4.85Y-3.3941
X4.85Y-4.1421
X4.85Y-4.8902
X4.85Y-5.6382
X5.1Y-2.5461
X5.1Y-3.2941
X5.1Y-4.0421
X5.1Y-4.7902
X5.1Y-5.5382
X5.598Y-2.6461
X5.598Y-3.3941
X5.598Y-4.1421
X5.598Y-4.8902
X5.598Y-5.6382
X5.848Y-2.5461
X5.848Y-3.2941
X5.848Y-4.0421
X5.848Y-4.7902
X5.848Y-5.5382
X6.3461Y-2.6461
X6.3461Y-3.3941
X6.3461Y-4.1421
X6.3461Y-4.8902
X6.3461Y-5.6382
X6.5961Y-2.5461
X6.5961Y-3.2941
X6.5961Y-4.0421
X6.5961Y-4.7902
X6.5961Y-5.5382
X7.0941Y-2.6461
X7.0941Y-3.3941
X7.0941Y-4.1421
X7.0941Y-4.8902
X7.3441Y-2.5461
X7.3441Y-3.2941
X7.3441Y-4.0421
X7.3441Y-4.7902
X7.5181Y-5.9382
X7.7681Y-5.8382
X7.8421Y-2.6461
X7.8421Y-3.3941
X7.8421Y-4.1421
X7.8421Y-4.8902
X8.0921Y-2.5461
X8.0921Y-3.2941
X8.0921Y-4.0421
X8.0921Y-4.7902
X8.5902Y-2.6461
X8.5902Y-3.3941
X8.5902Y-4.1421
X8.5902Y-4.8902
X8.8402Y-2.5461
X8.8402Y-3.2941
X8.8402Y-4.0421
X8.8402Y-4.7902
X9.0142Y-5.9382
X9.2642Y-5.8382
X9.3382Y-2.6461
X9.3382Y-3.3941
X9.3382Y-4.1421
X9.3382Y-4.8902
X9.5882Y-2.5461
X9.5882Y-3.2941
X9.5882Y-4.0421
X9.5882Y-4.7902
X10.0862Y-2.6461
X10.0862Y-3.3941
X10.0862Y-4.1421
X10.0862Y-4.8902
X10.0862Y-5.6382
X10.3362Y-2.5461
X10.3362Y-3.2941
X10.3362Y-4.0421
X10.3362Y-4.7902
X10.3362Y-5.5382
X10.8343Y-2.6461
X10.8343Y-3.3941
X10.8343Y-4.1421
X10.8343Y-4.8902
X10.8343Y-5.6382
X11.0843Y-2.5461
X11.0843Y-3.2941
X11.0843Y-4.0421
X11.0843Y-4.7902
X11.0843Y-5.5382
X11.5823Y-2.6461
X11.5823Y-3.3941
X11.5823Y-4.1421
X11.5823Y-4.8902
X11.5823Y-5.6382
X11.8323Y-2.5461
X11.8323Y-3.2941
X11.8323Y-4.0421
X11.8323Y-4.7902
X11.8323Y-5.5382
X12.3303Y-2.6461
X12.3303Y-3.3941
X12.3303Y-4.1421
X12.3303Y-4.8902
X12.3303Y-5.6382
X12.5803Y-2.5461
X12.5803Y-3.2941
X12.5803Y-4.0421
X12.5803Y-4.7902
X12.5803Y-5.5382
X13.0783Y-2.6461
X13.0783Y-3.3941
X13.0783Y-4.1421
X13.0783Y-4.8902
X13.0783Y-5.6382
X13.3283Y-2.5461
X13.3283Y-3.2941
X13.3283Y-4.0421
X13.3283Y-4.7902
X13.3283Y-5.5382
T7
X8.2037Y-2.4518
X8.5108Y-2.4518
T8
X3.3039Y-2.7461
X3.3039Y-3.4941
X3.3039Y-4.2421
X3.3039Y-4.9902
X3.3039Y-5.7382
X3.7039Y-2.7461
X3.7039Y-3.4941
X3.7039Y-4.2421
X3.7039Y-4.9902
X3.7039Y-5.7382
X4.052Y-2.7461
X4.052Y-3.4941
X4.052Y-4.2421
X4.052Y-4.9902
X4.052Y-5.7382
X4.452Y-2.7461
X4.452Y-3.4941
X4.452Y-4.2421
X4.452Y-4.9902
X4.452Y-5.7382
X4.8Y-2.7461
X4.8Y-3.4941
X4.8Y-4.2421
X4.8Y-4.9902
X4.8Y-5.7382
X5.2Y-2.7461
X5.2Y-3.4941
X5.2Y-4.2421
X5.2Y-4.9902
X5.2Y-5.7382
X5.548Y-2.7461
X5.548Y-3.4941
X5.548Y-4.2421
X5.548Y-4.9902
X5.548Y-5.7382
X5.948Y-2.7461
X5.948Y-3.4941
X5.948Y-4.2421
X5.948Y-4.9902
X5.948Y-5.7382
X6.2961Y-2.7461
X6.2961Y-3.4941
X6.2961Y-4.2421
X6.2961Y-4.9902
X6.2961Y-5.7382
X6.6961Y-2.7461
X6.6961Y-3.4941
X6.6961Y-4.2421
X6.6961Y-4.9902
X6.6961Y-5.7382
X7.0441Y-2.7461
X7.0441Y-3.4941
X7.0441Y-4.2421
X7.0441Y-4.9902
X7.4181Y-5.7382
X7.4441Y-2.7461
X7.4441Y-3.4941
X7.4441Y-4.2421
X7.4441Y-4.9902
X7.7921Y-2.7461
X7.7921Y-3.4941
X7.7921Y-4.2421
X7.7921Y-4.9902
X7.8181Y-5.7382
X8.1921Y-2.7461
X8.1921Y-3.4941
X8.1921Y-4.2421
X8.1921Y-4.9902
X8.5402Y-2.7461
X8.5402Y-3.4941
X8.5402Y-4.2421
X8.5402Y-4.9902
X8.9142Y-5.7382
X8.9402Y-2.7461
X8.9402Y-3.4941
X8.9402Y-4.2421
X8.9402Y-4.9902
X9.2882Y-2.7461
X9.2882Y-3.4941
X9.2882Y-4.2421
X9.2882Y-4.9902
X9.3142Y-5.7382
X9.6882Y-2.7461
X9.6882Y-3.4941
X9.6882Y-4.2421
X9.6882Y-4.9902
X10.0362Y-2.7461
X10.0362Y-3.4941
X10.0362Y-4.2421
X10.0362Y-4.9902
X10.0362Y-5.7382
X10.4362Y-2.7461
X10.4362Y-3.4941
X10.4362Y-4.2421
X10.4362Y-4.9902
X10.4362Y-5.7382
X10.7843Y-2.7461
X10.7843Y-3.4941
X10.7843Y-4.2421
X10.7843Y-4.9902
X10.7843Y-5.7382
X11.1843Y-2.7461
X11.1843Y-3.4941
X11.1843Y-4.2421
X11.1843Y-4.9902
X11.1843Y-5.7382
X11.5323Y-2.7461
X11.5323Y-3.4941
X11.5323Y-4.2421
X11.5323Y-4.9902
X11.5323Y-5.7382
X11.9323Y-2.7461
X11.9323Y-3.4941
X11.9323Y-4.2421
X11.9323Y-4.9902
X11.9323Y-5.7382
X12.2803Y-2.7461
X12.2803Y-3.4941
X12.2803Y-4.2421
X12.2803Y-4.9902
X12.2803Y-5.7382
X12.6803Y-2.7461
X12.6803Y-3.4941
X12.6803Y-4.2421
X12.6803Y-4.9902
X12.6803Y-5.7382
X13.0283Y-2.7461
X13.0283Y-3.4941
X13.0283Y-4.2421
X13.0283Y-4.9902
X13.0283Y-5.7382
X13.4283Y-2.7461
X13.4283Y-3.4941
X13.4283Y-4.2421
X13.4283Y-4.9902
X13.4283Y-5.7382
T9
X4.626Y-4.6157
X6.122Y-3.1201
X10.6102Y-5.3642
X12.1063Y-3.8681
T10
X7.1481Y-6.0132
X8.0881Y-6.0132
X8.6442Y-6.0132
X9.5842Y-6.0132
T11
X3.5039Y-2.7461
X3.5039Y-3.4941
X3.5039Y-4.2421
X3.5039Y-4.9902
X3.5039Y-5.7382
X4.252Y-2.7461
X4.252Y-3.4941
X4.252Y-4.2421
X4.252Y-4.9902
X4.252Y-5.7382
X5.Y-2.7461
X5.Y-3.4941
X5.Y-4.2421
X5.Y-4.9902
X5.Y-5.7382
X5.748Y-2.7461
X5.748Y-3.4941
X5.748Y-4.2421
X5.748Y-4.9902
X5.748Y-5.7382
X6.4961Y-2.7461
X6.4961Y-3.4941
X6.4961Y-4.2421
X6.4961Y-4.9902
X6.4961Y-5.7382
X7.1481Y-5.4132
X7.2441Y-2.7461
X7.2441Y-3.4941
X7.2441Y-4.2421
X7.2441Y-4.9902
X7.6181Y-5.7382
X7.9921Y-2.7461
X7.9921Y-3.4941
X7.9921Y-4.2421
X7.9921Y-4.9902
X8.0881Y-5.4132
X8.6442Y-5.4132
X8.7402Y-2.7461
X8.7402Y-3.4941
X8.7402Y-4.2421
X8.7402Y-4.9902
X9.1142Y-5.7382
X9.4882Y-2.7461
X9.4882Y-3.4941
X9.4882Y-4.2421
X9.4882Y-4.9902
X9.5842Y-5.4132
X10.2362Y-2.7461
X10.2362Y-3.4941
X10.2362Y-4.2421
X10.2362Y-4.9902
X10.2362Y-5.7382
X10.9843Y-2.7461
X10.9843Y-3.4941
X10.9843Y-4.2421
X10.9843Y-4.9902
X10.9843Y-5.7382
X11.7323Y-2.7461
X11.7323Y-3.4941
X11.7323Y-4.2421
X11.7323Y-4.9902
X11.7323Y-5.7382
X12.4803Y-2.7461
X12.4803Y-3.4941
X12.4803Y-4.2421
X12.4803Y-4.9902
X12.4803Y-5.7382
X13.2283Y-2.7461
X13.2283Y-3.4941
X13.2283Y-4.2421
X13.2283Y-4.9902
X13.2283Y-5.7382
T0
M30
