G04 #@! TF.FileFunction,Soldermask,Top*
%FSLAX46Y46*%
G04 Gerber Fmt 4.6, Leading zero omitted, Abs format (unit mm)*
G04 Created by KiCad (PCBNEW 4.0.1-stable) date 5/19/2016 2:34:45 PM*
%MOMM*%
G01*
G04 APERTURE LIST*
%ADD10C,0.100000*%
%ADD11C,0.150000*%
%ADD12C,2.686000*%
%ADD13C,1.400000*%
%ADD14O,2.305000X2.559000*%
%ADD15R,2.305000X2.559000*%
%ADD16C,2.900000*%
%ADD17R,2.400000X2.400000*%
%ADD18C,2.400000*%
%ADD19O,1.550000X2.051000*%
G04 APERTURE END LIST*
D10*
D11*
X81250000Y-60750000D02*
X343750000Y-60750000D01*
X80000000Y-153500000D02*
X80000000Y-62000000D01*
X343750000Y-154750000D02*
X81250000Y-154750000D01*
X345000000Y-62000000D02*
X345000000Y-153500000D01*
X343750000Y-154750000D02*
G75*
G03X345000000Y-153500000I0J1250000D01*
G01*
X345000000Y-62000000D02*
G75*
G03X343750000Y-60750000I-1250000J0D01*
G01*
X81250000Y-60750000D02*
G75*
G03X80000000Y-62000000I0J-1250000D01*
G01*
X80000000Y-153500000D02*
G75*
G03X81250000Y-154750000I1250000J0D01*
G01*
D12*
X228960000Y-150830000D03*
X235310000Y-148290000D03*
X190960000Y-150830000D03*
X197310000Y-148290000D03*
X224540000Y-83670000D03*
X218190000Y-86210000D03*
X148540000Y-140670000D03*
X142190000Y-143210000D03*
X338540000Y-64670000D03*
X332190000Y-67210000D03*
X338540000Y-102670000D03*
X332190000Y-105210000D03*
X281540000Y-102670000D03*
X275190000Y-105210000D03*
X300540000Y-83670000D03*
X294190000Y-86210000D03*
X338540000Y-121670000D03*
X332190000Y-124210000D03*
X338540000Y-140670000D03*
X332190000Y-143210000D03*
X338540000Y-83670000D03*
X332190000Y-86210000D03*
X300540000Y-102670000D03*
X294190000Y-105210000D03*
X300540000Y-121670000D03*
X294190000Y-124210000D03*
X300540000Y-140670000D03*
X294190000Y-143210000D03*
X319540000Y-83670000D03*
X313190000Y-86210000D03*
X319540000Y-140670000D03*
X313190000Y-143210000D03*
X319540000Y-121670000D03*
X313190000Y-124210000D03*
X319540000Y-64670000D03*
X313190000Y-67210000D03*
X319540000Y-102670000D03*
X313190000Y-105210000D03*
X300540000Y-64670000D03*
X294190000Y-67210000D03*
X186540000Y-102670000D03*
X180190000Y-105210000D03*
X186540000Y-64670000D03*
X180190000Y-67210000D03*
X186540000Y-121670000D03*
X180190000Y-124210000D03*
X186540000Y-83670000D03*
X180190000Y-86210000D03*
X205540000Y-83670000D03*
X199190000Y-86210000D03*
X205540000Y-121670000D03*
X199190000Y-124210000D03*
X224540000Y-64670000D03*
X218190000Y-67210000D03*
X205540000Y-64670000D03*
X199190000Y-67210000D03*
X205540000Y-102670000D03*
X199190000Y-105210000D03*
X243540000Y-83670000D03*
X237190000Y-86210000D03*
X243540000Y-64670000D03*
X237190000Y-67210000D03*
X262540000Y-83670000D03*
X256190000Y-86210000D03*
X262540000Y-64670000D03*
X256190000Y-67210000D03*
X281540000Y-64670000D03*
X275190000Y-67210000D03*
X281540000Y-121670000D03*
X275190000Y-124210000D03*
X281540000Y-140670000D03*
X275190000Y-143210000D03*
X281540000Y-83670000D03*
X275190000Y-86210000D03*
X224540000Y-102670000D03*
X218190000Y-105210000D03*
X224540000Y-121670000D03*
X218190000Y-124210000D03*
X262540000Y-140670000D03*
X256190000Y-143210000D03*
X262540000Y-121670000D03*
X256190000Y-124210000D03*
X262540000Y-102670000D03*
X256190000Y-105210000D03*
X243540000Y-102670000D03*
X237190000Y-105210000D03*
X243540000Y-121670000D03*
X237190000Y-124210000D03*
X129540000Y-140670000D03*
X123190000Y-143210000D03*
X129540000Y-121670000D03*
X123190000Y-124210000D03*
X129540000Y-102670000D03*
X123190000Y-105210000D03*
X148540000Y-102670000D03*
X142190000Y-105210000D03*
X148540000Y-121670000D03*
X142190000Y-124210000D03*
X110540000Y-140670000D03*
X104190000Y-143210000D03*
X110540000Y-121670000D03*
X104190000Y-124210000D03*
X110540000Y-102670000D03*
X104190000Y-105210000D03*
X167540000Y-83670000D03*
X161190000Y-86210000D03*
X167540000Y-140670000D03*
X161190000Y-143210000D03*
X167540000Y-121670000D03*
X161190000Y-124210000D03*
X167540000Y-64670000D03*
X161190000Y-67210000D03*
X167540000Y-102670000D03*
X161190000Y-105210000D03*
X148540000Y-64670000D03*
X142190000Y-67210000D03*
X148540000Y-83670000D03*
X142190000Y-86210000D03*
X129540000Y-64670000D03*
X123190000Y-67210000D03*
X129540000Y-83670000D03*
X123190000Y-86210000D03*
X91540000Y-102670000D03*
X85190000Y-105210000D03*
X110540000Y-83670000D03*
X104190000Y-86210000D03*
X91540000Y-64670000D03*
X85190000Y-67210000D03*
X110540000Y-64670000D03*
X104190000Y-67210000D03*
X91540000Y-121670000D03*
X85190000Y-124210000D03*
X91540000Y-140670000D03*
X85190000Y-143210000D03*
X91540000Y-83670000D03*
X85190000Y-86210000D03*
D13*
X81250000Y-62000000D03*
X343750000Y-62000000D03*
X343750000Y-153500000D03*
X81250000Y-153500000D03*
D14*
X334730000Y-150830000D03*
D15*
X337270000Y-150830000D03*
D14*
X144730000Y-150840000D03*
D15*
X147270000Y-150840000D03*
D14*
X87730000Y-112830000D03*
D15*
X90270000Y-112830000D03*
D16*
X117500000Y-117240000D03*
X155500000Y-79250000D03*
X269500000Y-136250000D03*
X307500000Y-98250000D03*
D17*
X250500000Y-78000000D03*
D18*
X250500000Y-80540000D03*
D16*
X216175000Y-62275000D03*
D19*
X210649800Y-67501760D03*
X211449900Y-65899020D03*
X212250000Y-67501760D03*
X213050100Y-65899020D03*
X213850200Y-67501760D03*
D16*
X208375000Y-62275000D03*
M02*
