M48
;DRILL file {KiCad 4.0.1-stable} date 5/19/2016 2:34:41 PM
;FORMAT={-:-/ absolute / inch / decimal}
FMAT,2
INCH,TZ
T1C0.067
T2C0.098
T3C0.120
T4C0.157
%
G90
G05
M72
T1
X3.3039Y-2.7461
X3.3039Y-3.4941
X3.3039Y-4.2421
X3.3039Y-4.9902
X3.3039Y-5.7382
X3.7039Y-2.7461
X3.7039Y-3.4941
X3.7039Y-4.2421
X3.7039Y-4.9902
X3.7039Y-5.7382
X4.052Y-2.7461
X4.052Y-3.4941
X4.052Y-4.2421
X4.052Y-4.9902
X4.052Y-5.7382
X4.452Y-2.7461
X4.452Y-3.4941
X4.452Y-4.2421
X4.452Y-4.9902
X4.452Y-5.7382
X4.8Y-2.7461
X4.8Y-3.4941
X4.8Y-4.2421
X4.8Y-4.9902
X4.8Y-5.7382
X5.2Y-2.7461
X5.2Y-3.4941
X5.2Y-4.2421
X5.2Y-4.9902
X5.2Y-5.7382
X5.548Y-2.7461
X5.548Y-3.4941
X5.548Y-4.2421
X5.548Y-4.9902
X5.548Y-5.7382
X5.948Y-2.7461
X5.948Y-3.4941
X5.948Y-4.2421
X5.948Y-4.9902
X5.948Y-5.7382
X6.2961Y-2.7461
X6.2961Y-3.4941
X6.2961Y-4.2421
X6.2961Y-4.9902
X6.2961Y-5.7382
X6.6961Y-2.7461
X6.6961Y-3.4941
X6.6961Y-4.2421
X6.6961Y-4.9902
X6.6961Y-5.7382
X7.0441Y-2.7461
X7.0441Y-3.4941
X7.0441Y-4.2421
X7.0441Y-4.9902
X7.4181Y-5.7382
X7.4441Y-2.7461
X7.4441Y-3.4941
X7.4441Y-4.2421
X7.4441Y-4.9902
X7.7921Y-2.7461
X7.7921Y-3.4941
X7.7921Y-4.2421
X7.7921Y-4.9902
X7.8181Y-5.7382
X8.1921Y-2.7461
X8.1921Y-3.4941
X8.1921Y-4.2421
X8.1921Y-4.9902
X8.5402Y-2.7461
X8.5402Y-3.4941
X8.5402Y-4.2421
X8.5402Y-4.9902
X8.9142Y-5.7382
X8.9402Y-2.7461
X8.9402Y-3.4941
X8.9402Y-4.2421
X8.9402Y-4.9902
X9.2882Y-2.7461
X9.2882Y-3.4941
X9.2882Y-4.2421
X9.2882Y-4.9902
X9.3142Y-5.7382
X9.6882Y-2.7461
X9.6882Y-3.4941
X9.6882Y-4.2421
X9.6882Y-4.9902
X10.0362Y-2.7461
X10.0362Y-3.4941
X10.0362Y-4.2421
X10.0362Y-4.9902
X10.0362Y-5.7382
X10.4362Y-2.7461
X10.4362Y-3.4941
X10.4362Y-4.2421
X10.4362Y-4.9902
X10.4362Y-5.7382
X10.7843Y-2.7461
X10.7843Y-3.4941
X10.7843Y-4.2421
X10.7843Y-4.9902
X10.7843Y-5.7382
X11.1843Y-2.7461
X11.1843Y-3.4941
X11.1843Y-4.2421
X11.1843Y-4.9902
X11.1843Y-5.7382
X11.5323Y-2.7461
X11.5323Y-3.4941
X11.5323Y-4.2421
X11.5323Y-4.9902
X11.5323Y-5.7382
X11.9323Y-2.7461
X11.9323Y-3.4941
X11.9323Y-4.2421
X11.9323Y-4.9902
X11.9323Y-5.7382
X12.2803Y-2.7461
X12.2803Y-3.4941
X12.2803Y-4.2421
X12.2803Y-4.9902
X12.2803Y-5.7382
X12.6803Y-2.7461
X12.6803Y-3.4941
X12.6803Y-4.2421
X12.6803Y-4.9902
X12.6803Y-5.7382
X13.0283Y-2.7461
X13.0283Y-3.4941
X13.0283Y-4.2421
X13.0283Y-4.9902
X13.0283Y-5.7382
X13.4283Y-2.7461
X13.4283Y-3.4941
X13.4283Y-4.2421
X13.4283Y-4.9902
X13.4283Y-5.7382
T2
X4.626Y-4.6157
X6.122Y-3.1201
X10.6102Y-5.3642
X12.1063Y-3.8681
T3
X7.1481Y-6.0132
X8.0881Y-6.0132
X8.6442Y-6.0132
X9.5842Y-6.0132
T4
X3.5039Y-2.7461
X3.5039Y-3.4941
X3.5039Y-4.2421
X3.5039Y-4.9902
X3.5039Y-5.7382
X4.252Y-2.7461
X4.252Y-3.4941
X4.252Y-4.2421
X4.252Y-4.9902
X4.252Y-5.7382
X5.Y-2.7461
X5.Y-3.4941
X5.Y-4.2421
X5.Y-4.9902
X5.Y-5.7382
X5.748Y-2.7461
X5.748Y-3.4941
X5.748Y-4.2421
X5.748Y-4.9902
X5.748Y-5.7382
X6.4961Y-2.7461
X6.4961Y-3.4941
X6.4961Y-4.2421
X6.4961Y-4.9902
X6.4961Y-5.7382
X7.1481Y-5.4132
X7.2441Y-2.7461
X7.2441Y-3.4941
X7.2441Y-4.2421
X7.2441Y-4.9902
X7.6181Y-5.7382
X7.9921Y-2.7461
X7.9921Y-3.4941
X7.9921Y-4.2421
X7.9921Y-4.9902
X8.0881Y-5.4132
X8.6442Y-5.4132
X8.7402Y-2.7461
X8.7402Y-3.4941
X8.7402Y-4.2421
X8.7402Y-4.9902
X9.1142Y-5.7382
X9.4882Y-2.7461
X9.4882Y-3.4941
X9.4882Y-4.2421
X9.4882Y-4.9902
X9.5842Y-5.4132
X10.2362Y-2.7461
X10.2362Y-3.4941
X10.2362Y-4.2421
X10.2362Y-4.9902
X10.2362Y-5.7382
X10.9843Y-2.7461
X10.9843Y-3.4941
X10.9843Y-4.2421
X10.9843Y-4.9902
X10.9843Y-5.7382
X11.7323Y-2.7461
X11.7323Y-3.4941
X11.7323Y-4.2421
X11.7323Y-4.9902
X11.7323Y-5.7382
X12.4803Y-2.7461
X12.4803Y-3.4941
X12.4803Y-4.2421
X12.4803Y-4.9902
X12.4803Y-5.7382
X13.2283Y-2.7461
X13.2283Y-3.4941
X13.2283Y-4.2421
X13.2283Y-4.9902
X13.2283Y-5.7382
T0
M30
